<?xml version="1.0" encoding="UTF-8"?>
<svg width="810px" height="610px" viewBox="0 0 810 610" version="1.1" xmlns="http://www.w3.org/2000/svg" xmlns:xlink="http://www.w3.org/1999/xlink">
    <!-- Generator: Sketch 42 (36781) - http://www.bohemiancoding.com/sketch -->
    <title>Deisgn_IMG</title>
    <desc>Created with Sketch.</desc>
    <defs></defs>
    <g id="Page-1" stroke="none" stroke-width="1" fill="none" fill-rule="evenodd">
        <g id="Deisgn_IMG">
            <g id="Page-1">
                <path d="M767.006797,610 L42.9932027,610 C19.3471579,610 0,590.267475 0,566.150435 L0,43.8517748 C0,19.7325252 19.3471579,0 42.9932027,0 L767.006797,0 C790.652842,0 810,19.7325252 810,43.8517748 L810,566.150435 C810,590.267475 790.652842,610 767.006797,610" id="Fill-1" fill="#D1D2D4"></path>
                <g id="Group" transform="translate(221.000000, 92.000000)">
                    <polygon id="Fill-3" fill="#E6E7E7" points="0.636925325 106.571282 184.81236 0.236006901 368.989961 106.571282 368.989961 319.239668 184.81236 425.574943 0.636925325 319.239668"></polygon>
                    <path d="M225.280753,150.846677 C213.191391,150.846677 201.95751,154.496009 192.61002,160.742108 L224.219523,215.492928 L166.681349,215.492928 C169.579157,245.309168 194.706492,268.612918 225.280753,268.612918 C257.802047,268.612918 284.163874,242.251092 284.163874,209.729798 C284.163874,177.210669 257.802047,150.846677 225.280753,150.846677" id="Fill-5" fill="#D1D2D4"></path>
                    <polygon id="Fill-7" fill="#D1D2D4" points="85.4623622 206.609347 147.147997 99.7672802 208.831467 206.609347"></polygon>
                    <path d="M162.224615,234.688851 L112.892566,234.688851 L112.892566,326.043453 L204.247169,326.043453 L204.247169,274.190442 C185.062724,267.994156 169.607745,253.520274 162.224615,234.688851" id="Fill-9" fill="#D1D2D4"></path>
                </g>
            </g>
        </g>
    </g>
</svg>