<?xml version="1.0" encoding="UTF-8"?>
<svg width="810px" height="610px" viewBox="0 0 810 610" version="1.1" xmlns="http://www.w3.org/2000/svg" xmlns:xlink="http://www.w3.org/1999/xlink">
    <!-- Generator: Sketch 42 (36781) - http://www.bohemiancoding.com/sketch -->
    <title>Eco_IMG</title>
    <desc>Created with Sketch.</desc>
    <defs></defs>
    <g id="Page-1" stroke="none" stroke-width="1" fill="none" fill-rule="evenodd">
        <g id="Eco_IMG">
            <g id="Page-1">
                <path d="M767.006797,610 L42.9932027,610 C19.3471579,610 0,590.267475 0,566.150435 L0,43.8517748 C0,19.7325252 19.3471579,0 42.9932027,0 L767.006797,0 C790.652842,0 810,19.7325252 810,43.8517748 L810,566.150435 C810,590.267475 790.652842,610 767.006797,610" id="Fill-1" fill="#D1D2D4"></path>
                <g id="Group" transform="translate(217.000000, 88.000000)">
                    <polygon id="Fill-3" fill="#E6E7E7" points="0.171179144 108.570259 187.81396 0.236008021 375.454575 108.570259 375.454575 325.240928 187.81396 433.575179 0.171179144 325.240928"></polygon>
                    <path d="M134.091251,339.966901 C132.850262,339.291179 132.02077,338.232115 131.721893,336.897997 C130.879406,333.114388 129.766198,329.341607 129.437,325.508184 C128.83708,318.556045 128.52954,311.564922 128.45807,304.584628 C128.330289,292.378318 129.70339,280.301955 132.373791,268.383693 C135.20446,255.744227 139.250128,243.518425 145.110717,231.942356 C150.531652,221.241259 157.750182,212.034548 167.723578,205.138719 C176.93462,198.767008 187.126759,194.693184 197.936144,192.029281 C205.314941,190.210029 212.799861,188.982035 220.343257,188.104896 C228.566706,187.149789 236.798818,186.285644 245.013604,185.278559 C256.697963,183.844816 268.319513,182.001741 279.419112,177.899762 C283.692187,176.320912 287.787668,174.265591 291.948123,172.392195 C293.756545,171.580029 295.627775,172.082489 296.299166,173.804281 C296.578551,174.525484 296.643524,175.467596 296.448604,176.216955 C293.126305,189.049174 289.814834,201.885725 286.364754,214.685457 C282.362401,229.529682 276.03184,243.278024 266.582561,255.4865 C255.835984,269.373452 242.419005,279.669548 225.772856,285.549628 C219.65454,287.713238 213.317481,289.038693 206.908952,289.963479 C196.476412,291.466527 186.015717,292.778987 175.59184,294.336179 C169.003551,295.321607 162.584193,297.060725 156.381412,299.540537 C155.684032,299.817757 154.962829,300.066821 154.232963,300.237917 C151.586385,300.863826 149.691332,299.555698 149.247348,296.874468 C148.816358,294.277703 149.318818,291.776233 150.029193,289.318078 C152.099674,282.158024 155.813979,275.853452 160.31446,269.992864 C167.247107,260.963746 175.728283,253.786366 186.017882,248.828906 C191.133444,246.364254 196.281492,243.964575 201.416545,241.534575 C201.578979,241.456607 201.745743,241.389468 201.908176,241.313666 C202.534086,241.021286 203.10585,240.659602 202.78315,239.84527 C202.482107,239.078586 201.888684,239.063425 201.171813,239.2865 C198.462428,240.128987 195.729219,240.902168 193.024166,241.759816 C185.335663,244.196313 177.816091,247.044307 170.781652,251.055324 C159.398337,257.543987 150.289086,266.26773 144.367856,278.075537 C140.740182,285.311393 138.30585,292.973906 136.677187,300.894147 C135.336572,307.408799 134.725824,313.984094 134.927241,320.639521 C135.083176,325.84388 135.817374,330.952944 137.177481,335.975377 C137.766572,338.149816 137.515342,338.806045 135.605128,339.966901 L134.091251,339.966901 Z" id="Fill-5" fill="#D1D2D4"></path>
                    <path d="M90.8272888,128.191102 C97.3072888,131.866422 104.224775,134.441529 111.38916,136.405888 C117.314722,138.030219 123.387556,138.690781 129.484214,139.253882 C141.016968,140.32161 152.590872,141.16193 163.91138,143.789016 C183.795364,148.404283 200.811861,158.176262 215.010684,172.788749 C217.553305,175.405005 219.563144,178.536717 221.809053,181.438856 C222.019134,181.711743 222.153412,182.043107 222.28769,182.283508 C216.483412,183.203963 210.726781,184.06161 204.993973,185.042706 C199.139882,186.043294 193.400578,187.52685 187.752235,189.361262 C187.34507,189.493374 186.714829,189.48038 186.389963,189.250807 C179.331701,184.278187 171.398465,181.575299 162.973599,180.091743 C159.443385,179.472332 155.934829,178.718642 152.090578,177.96062 C161.695791,182.660353 171.472102,186.329176 180.317128,191.979684 C177.393332,193.452412 174.573492,194.780032 171.838118,196.265754 C161.758599,201.738668 153.357556,209.115299 146.862396,218.597064 C146.212663,219.54784 145.688545,219.87054 144.462717,219.563 C137.692503,217.869364 131.788599,214.516743 126.341674,210.293481 C116.768947,202.873535 109.784321,193.344123 104.077503,182.779471 C98.8883048,173.172091 95.7825829,162.839176 93.2118075,152.296182 C91.5614866,145.525968 89.7595615,138.792572 87.9944545,132.048348 C87.4746684,130.068829 87.6652567,129.384444 89.3134118,128.191102 L90.8272888,128.191102 Z" id="Fill-7" fill="#D1D2D4"></path>
                </g>
            </g>
        </g>
    </g>
</svg>