<?xml version="1.0" encoding="UTF-8"?>
<svg width="810px" height="610px" viewBox="0 0 810 610" version="1.1" xmlns="http://www.w3.org/2000/svg" xmlns:xlink="http://www.w3.org/1999/xlink">
    <!-- Generator: Sketch 42 (36781) - http://www.bohemiancoding.com/sketch -->
    <title>Edu_IMG</title>
    <desc>Created with Sketch.</desc>
    <defs></defs>
    <g id="Page-1" stroke="none" stroke-width="1" fill="none" fill-rule="evenodd">
        <g id="Edu_IMG">
            <g id="Page-1">
                <g id="Group-3" transform="translate(0.000000, 0.056310)" fill="#D1D2D4">
                    <path d="M767.004745,610 L42.9952545,610 C19.3471062,610 0,590.267475 0,566.148225 L0,43.8517748 C0,19.7325252 19.3471062,0 42.9952545,0 L767.004745,0 C790.650727,0 810,19.7325252 810,43.8517748 L810,566.148225 C810,590.267475 790.650727,610 767.004745,610" id="Fill-1"></path>
                </g>
                <g id="Group" transform="translate(221.000000, 92.000000)">
                    <polygon id="Fill-4" fill="#E6E7E7" points="0.636852941 106.736995 184.812227 0.401754011 368.989767 106.736995 368.989767 319.40531 184.812227 425.740551 0.636852941 319.40531"></polygon>
                    <path d="M50.4288957,196.597832 C50.4288957,190.32358 175.853281,132.540693 184.813094,132.540693 C193.772906,132.540693 319.197291,193.013473 319.197291,196.597832 C319.197291,200.18219 191.533495,266.021762 184.813094,266.021762 C178.092693,266.021762 50.4288957,202.867751 50.4288957,196.597832" id="Fill-6" fill="#D1D2D4"></path>
                    <path d="M89.1767834,292.680508 C73.2734947,291.554305 70.5879332,287.263904 70.5879332,287.263904" id="Fill-8" fill="#FEFEFE"></path>
                    <path d="M77.8266043,266.969505 C82.8078877,265.652714 86.4918717,261.121912 86.4918717,255.729131 C86.4918717,250.217233 82.6671123,245.619291 77.5320588,244.397794 L77.5320588,222.306885 C75.0414171,220.964104 72.728369,219.701457 70.5864171,218.514612 L70.5864171,244.889425 C66.2635294,246.591725 63.1967914,250.795495 63.1967914,255.729131 C63.1967914,260.651939 66.2635294,264.86004 70.5864171,266.558008 L70.5864171,287.264987 C70.5864171,287.264987 93.8836631,296.489024 89.1774332,292.681591 C85.0472995,289.333302 79.1867112,271.305388 77.8266043,266.969505" id="Fill-10" fill="#D1D2D4"></path>
                    <path d="M184.812877,273.258051 C178.571112,273.258051 138.320176,253.443372 116.72523,242.582008 L116.72523,257.515029 C116.72523,257.515029 126.131193,284.390136 176.751861,287.082195 C223.781674,289.323773 253.34884,270.957997 255.586086,260.651072 L255.586086,240.242971 C191.563599,273.234227 186.658118,273.258051 184.812877,273.258051" id="Fill-12" fill="#D1D2D4"></path>
                </g>
            </g>
        </g>
    </g>
</svg>