<?xml version="1.0" encoding="UTF-8"?>
<svg width="810px" height="610px" viewBox="0 0 810 610" version="1.1" xmlns="http://www.w3.org/2000/svg" xmlns:xlink="http://www.w3.org/1999/xlink">
    <!-- Generator: Sketch 42 (36781) - http://www.bohemiancoding.com/sketch -->
    <title>Fashion_IMG</title>
    <desc>Created with Sketch.</desc>
    <defs></defs>
    <g id="Page-1" stroke="none" stroke-width="1" fill="none" fill-rule="evenodd">
        <g id="Fashion_IMG">
            <g id="Page-1" transform="translate(0.000000, 2.000000)">
                <g id="Group-3" transform="translate(0.000000, 0.056489)" fill="#D1D2D4">
                    <path d="M767.004312,610.116173 L42.9948213,610.116173 C19.346673,610.116173 -0.00043315508,590.383647 -0.00043315508,566.266608 L-0.00043315508,43.9679475 C-0.00043315508,19.8486979 19.346673,0.116172662 42.9948213,0.116172662 L767.004312,0.116172662 C790.650294,0.116172662 809.999567,19.8486979 809.999567,43.9679475 L809.999567,566.264398 C809.999567,590.383647 790.650294,610.116173 767.004312,610.116173" id="Fill-1"></path>
                </g>
                <g id="Group" transform="translate(221.000000, 89.000000)">
                    <polygon id="Fill-4" fill="#E6E7E7" points="0.636852941 107.356196 184.812227 0.682843165 368.989767 107.356196 368.989767 320.700728 184.812227 427.374081 0.636852941 320.700728"></polygon>
                    <path d="M286.289201,168.76996 L243.214094,126.500823 C234.479521,117.931845 223.40158,115.774391 218.054281,117.036708 C211.29273,134.281125 189.645805,134.046478 185.216794,133.809658 L185.216794,133.755341 C185.216794,133.755341 185.06519,133.77055 184.811794,133.785758 C184.560564,133.77055 184.406794,133.755341 184.406794,133.755341 L184.406794,133.809658 C179.979949,134.046478 158.333024,134.281125 151.571473,117.036708 C146.224174,115.774391 135.148398,117.931845 126.413826,126.500823 L83.3343877,168.76996 C83.3343877,168.76996 75.1585856,176.341686 83.3343877,186.438046 C91.5101898,196.53006 110.064388,212.301413 110.064388,212.301413 C110.064388,212.301413 114.779281,215.771154 120.754655,207.571528 C126.727864,199.367557 129.556366,197.160132 129.556366,197.160132 L129.556366,298.732075 C129.556366,298.732075 128.300217,311.353068 139.620725,311.353068 L183.150644,311.353068 L186.47511,311.353068 L230.005029,311.353068 C241.325537,311.353068 240.067222,298.732075 240.067222,298.732075 L240.067222,197.160132 C240.067222,197.160132 242.89789,199.367557 248.871099,207.571528 C254.846473,215.771154 259.561366,212.301413 259.561366,212.301413 C259.561366,212.301413 278.113398,196.53006 286.289201,186.438046 C294.465003,176.341686 286.289201,168.76996 286.289201,168.76996" id="Fill-6" fill="#D1D2D4"></path>
                </g>
            </g>
        </g>
    </g>
</svg>