<?xml version="1.0" encoding="UTF-8"?>
<svg width="810px" height="610px" viewBox="0 0 810 610" version="1.1" xmlns="http://www.w3.org/2000/svg" xmlns:xlink="http://www.w3.org/1999/xlink">
    <!-- Generator: Sketch 42 (36781) - http://www.bohemiancoding.com/sketch -->
    <title>Film_IMG</title>
    <desc>Created with Sketch.</desc>
    <defs></defs>
    <g id="Page-1" stroke="none" stroke-width="1" fill="none" fill-rule="evenodd">
        <g id="Film_IMG">
            <g id="Page-1">
                <path d="M767.006797,610 L42.9932027,610 C19.3471579,610 0,590.267475 0,566.150435 L0,43.8517748 C0,19.7325252 19.3471579,0 42.9953695,0 L767.006797,0 C790.652842,0 810,19.7325252 810,43.8517748 L810,566.150435 C810,590.267475 790.652842,610 767.006797,610" id="Fill-1" fill="#D1D2D4"></path>
                <g id="Group" transform="translate(221.000000, 92.000000)">
                    <polygon id="Fill-3" fill="#E6E7E7" points="0.636852941 106.571869 184.812227 0.238794118 368.989767 106.571869 368.989767 319.240184 184.812227 425.573259 0.636852941 319.240184"></polygon>
                    <path d="M260.362703,196.779013 C256.275885,196.779013 252.960083,193.463211 252.960083,189.374227 C252.960083,185.287409 256.275885,181.975939 260.362703,181.975939 C264.453853,181.975939 267.769655,185.287409 267.769655,189.374227 C267.769655,193.463211 264.453853,196.779013 260.362703,196.779013 M184.816126,274.720939 C156.609067,274.720939 133.74281,251.854682 133.74281,223.649789 C133.74281,195.444896 156.609067,172.578639 184.816126,172.578639 C213.018853,172.578639 235.876447,195.444896 235.876447,223.649789 C235.876447,251.854682 213.018853,274.720939 184.816126,274.720939 M271.065965,161.47904 L245.219602,161.47904 C241.678559,161.47904 230.531313,161.704281 230.531313,145.307195 C230.531313,128.91011 215.955644,130.961099 215.955644,130.961099 L184.816126,130.961099 L153.672275,130.961099 C153.672275,130.961099 139.092275,128.91011 139.092275,145.307195 C139.092275,161.704281 127.940698,161.47904 124.406152,161.47904 L98.557623,161.47904 C92.8616337,161.47904 82.3294679,167.170698 82.3294679,188.80896 L82.3294679,277.397837 C82.3294679,283.316901 91.5015267,294.931955 103.114414,294.931955 L184.816126,294.931955 L266.509174,294.931955 C278.13289,294.931955 287.296286,283.316901 287.296286,277.397837 L287.296286,188.80896 C287.296286,167.170698 276.761955,161.47904 271.065965,161.47904" id="Fill-5" fill="#D1D2D4"></path>
                    <path d="M184.816126,193.073805 C167.953398,193.073805 154.239709,206.793992 154.239709,223.648056 C154.239709,240.508618 167.953398,254.222307 184.816126,254.222307 C201.672356,254.222307 215.390377,240.508618 215.390377,223.648056 C215.390377,206.793992 201.672356,193.073805 184.816126,193.073805" id="Fill-7" fill="#D1D2D4"></path>
                </g>
            </g>
        </g>
    </g>
</svg>