<?xml version="1.0" encoding="UTF-8"?>
<svg width="810px" height="610px" viewBox="0 0 810 610" version="1.1" xmlns="http://www.w3.org/2000/svg" xmlns:xlink="http://www.w3.org/1999/xlink">
    <!-- Generator: Sketch 42 (36781) - http://www.bohemiancoding.com/sketch -->
    <title>Finances_IMG</title>
    <desc>Created with Sketch.</desc>
    <defs></defs>
    <g id="Page-1" stroke="none" stroke-width="1" fill="none" fill-rule="evenodd">
        <g id="Finances_IMG">
            <g id="Page-1">
                <g id="Group-8" transform="translate(0.000000, 0.056310)">
                    <g id="Group-3" fill="#D1D2D4">
                        <path d="M767.006797,610 L42.9953695,610 C19.3471579,610 0,590.267475 0,566.148225 L0,43.8517748 C0,19.7325252 19.3471579,0 42.9953695,0 L767.006797,0 C790.652842,0 810,19.7325252 810,43.8517748 L810,566.150435 C810,590.267475 790.652842,610 767.006797,610" id="Fill-1"></path>
                    </g>
                    <g id="Group" transform="translate(221.000000, 92.000000)">
                        <polygon id="Fill-4" fill="#E6E7E7" points="0.636852941 106.680468 184.812227 0.345227273 368.989767 106.680468 368.989767 319.348783 184.812227 425.684024 0.636852941 319.348783"></polygon>
                        <path d="M212.422182,133.650219 C212.422182,133.650219 228.899401,111.661102 246.286246,116.774497 C235.035043,131.605727 240.148439,151.034898 244.241754,154.105968 C251.910765,160.24161 268.788652,182.744016 272.879802,195.017465 C279.013278,196.550834 284.12884,195.017465 284.12884,195.017465 C284.12884,195.017465 287.199909,197.575246 287.199909,202.177519 L287.199909,223.659845 C287.199909,223.659845 288.219989,230.817733 283.617717,230.817733 L273.899882,230.817733 C273.899882,230.817733 270.322021,232.351102 268.275364,239.000032 C266.228706,245.651128 259.070818,261.500273 243.217342,274.287011 C230.43277,287.582706 230.43277,305.991797 230.943893,309.576155 C218.670444,310.59407 197.192449,309.576155 197.192449,309.576155 L197.192449,299.856155 C197.192449,299.856155 194.376941,296.28046 188.115684,296.28046 C181.850096,296.28046 164.974374,295.765005 164.974374,295.765005 C164.974374,295.765005 156.280952,297.30054 156.280952,301.389524 L156.280952,310.028802 L123.551754,310.028802 C123.551754,310.028802 120.996139,291.676021 114.858332,283.493722 C108.720524,275.307091 72.9224225,232.351102 84.6847487,192.972973 C92.8670481,168.426075 124.353091,115.750086 212.422182,133.650219" id="Fill-6" fill="#D1D2D4"></path>
                        <text id="$" font-family="Futura-Medium, Futura" font-size="50" font-weight="400" fill="#E6E7E7">
                            <tspan x="163" y="230.94369">$</tspan>
                        </text>
                    </g>
                </g>
            </g>
        </g>
    </g>
</svg>