<?xml version="1.0" encoding="UTF-8"?>
<svg width="810px" height="610px" viewBox="0 0 810 610" version="1.1" xmlns="http://www.w3.org/2000/svg" xmlns:xlink="http://www.w3.org/1999/xlink">
    <!-- Generator: Sketch 42 (36781) - http://www.bohemiancoding.com/sketch -->
    <title>Food_IMG</title>
    <desc>Created with Sketch.</desc>
    <defs></defs>
    <g id="Page-1" stroke="none" stroke-width="1" fill="none" fill-rule="evenodd">
        <g id="Food_IMG">
            <g id="Page-1">
                <g id="Group-3" transform="translate(0.000000, 0.056310)" fill="#D1D2D4">
                    <path d="M766.976577,610 L43.0234225,610 C19.3622736,610 0,590.254215 0,566.119496 L0,43.8517748 C0,19.7325252 19.3492729,0 42.9952545,0 L766.976577,0 C790.639893,0 810,19.7457848 810,43.880504 L810,566.119496 C810,590.254215 790.639893,610 766.976577,610" id="Fill-1"></path>
                </g>
                <g id="Group" transform="translate(221.000000, 92.000000)">
                    <polygon id="Fill-4" fill="#E6E7E7" points="0.636852941 106.48054 184.807896 0.147465241 368.989767 106.48054 368.989767 319.14669 184.807896 425.479765 0.636852941 319.14669"></polygon>
                    <path d="M121.057647,300.347326 L248.790749,300.347326 L248.790749,278.942968 L121.057647,278.942968 L121.057647,300.347326 Z M287.291738,169.101337 C287.291738,189.366497 270.868663,205.793904 250.601337,205.793904 C249.997086,205.793904 249.388503,205.772246 248.790749,205.744091 L248.790749,274.529118 L121.059813,274.529118 L121.059813,203.807888 C120.381925,203.846872 119.704037,203.866364 119.019652,203.866364 C98.754492,203.866364 82.3292513,187.438957 82.3292513,167.178128 C82.3292513,146.915134 98.754492,130.487727 119.019652,130.487727 C131.238957,130.487727 142.050508,136.465267 148.721096,145.650321 C149.444465,126.024064 165.572995,110.330856 185.376845,110.330856 C205.323636,110.330856 221.543128,126.251471 222.041257,146.08131 C228.765989,137.749572 239.05992,132.410936 250.601337,132.410936 C270.868663,132.410936 287.291738,148.838342 287.291738,169.101337 L287.291738,169.101337 Z" id="Fill-6" fill="#D1D2D4"></path>
                </g>
            </g>
        </g>
    </g>
</svg>