<?xml version="1.0" encoding="UTF-8"?>
<svg width="810px" height="610px" viewBox="0 0 810 610" version="1.1" xmlns="http://www.w3.org/2000/svg" xmlns:xlink="http://www.w3.org/1999/xlink">
    <!-- Generator: Sketch 42 (36781) - http://www.bohemiancoding.com/sketch -->
    <title>Games_IMG</title>
    <desc>Created with Sketch.</desc>
    <defs></defs>
    <g id="Page-1" stroke="none" stroke-width="1" fill="none" fill-rule="evenodd">
        <g id="Games_IMG">
            <g id="Page-1">
                <g id="Group-3" transform="translate(0.000000, 0.056326)" fill="#D1D2D4">
                    <path d="M767.006797,610 L42.9953695,610 C19.3471579,610 0,590.267475 0,566.148225 L0,43.8517748 C0,19.7325252 19.3471579,0 42.9953695,0 L767.006797,0 C790.652842,0 810,19.7347351 810,43.8517748 L810,566.150435 C810,590.267475 790.652842,610 767.006797,610" id="Fill-1"></path>
                </g>
                <g id="Group" transform="translate(221.000000, 92.000000)">
                    <polygon id="Fill-4" fill="#E6E7E7" points="0.636852941 106.541335 184.810061 0.178075988 368.989767 106.541335 368.989767 319.267854 184.810061 425.631113 0.636852941 319.267854"></polygon>
                    <polygon id="Fill-6" fill="#D1D2D4" points="162.478968 199.43268 124.551909 199.43268 124.551909 161.497022 97.6161604 161.497022 97.6161604 199.43268 59.6934332 199.43268 59.6934332 226.376075 97.6161604 226.376075 97.6161604 264.311734 124.551909 264.311734 124.551909 226.376075 162.478968 226.376075"></polygon>
                    <path d="M274.843294,177.806907 C274.843294,186.814757 267.544631,194.117659 258.539337,194.117659 C249.534043,194.117659 242.233214,186.814757 242.233214,177.806907 C242.233214,168.799057 249.534043,161.496155 258.539337,161.496155 C267.544631,161.496155 274.843294,168.799057 274.843294,177.806907" id="Fill-8" fill="#D1D2D4"></path>
                    <path d="M274.843294,248.002282 C274.843294,257.010132 267.544631,264.313034 258.539337,264.313034 C249.534043,264.313034 242.233214,257.010132 242.233214,248.002282 C242.233214,238.994432 249.534043,231.69153 258.539337,231.69153 C267.544631,231.69153 274.843294,238.994432 274.843294,248.002282" id="Fill-10" fill="#D1D2D4"></path>
                    <path d="M239.753401,212.904595 C239.753401,221.912445 232.454738,229.21318 223.449444,229.21318 C214.44415,229.21318 207.143321,221.912445 207.143321,212.904595 C207.143321,203.896744 214.44415,196.593843 223.449444,196.593843 C232.454738,196.593843 239.753401,203.896744 239.753401,212.904595" id="Fill-12" fill="#D1D2D4"></path>
                    <path d="M309.928856,212.904595 C309.928856,221.912445 302.630193,229.21318 293.624898,229.21318 C284.619604,229.21318 277.318775,221.912445 277.318775,212.904595 C277.318775,203.896744 284.619604,196.593843 293.624898,196.593843 C302.630193,196.593843 309.928856,203.896744 309.928856,212.904595" id="Fill-14" fill="#D1D2D4"></path>
                </g>
            </g>
        </g>
    </g>
</svg>