<?xml version="1.0" encoding="UTF-8"?>
<svg width="810px" height="610px" viewBox="0 0 810 610" version="1.1" xmlns="http://www.w3.org/2000/svg" xmlns:xlink="http://www.w3.org/1999/xlink">
    <!-- Generator: Sketch 42 (36781) - http://www.bohemiancoding.com/sketch -->
    <title>Handcraft_IMG</title>
    <desc>Created with Sketch.</desc>
    <defs></defs>
    <g id="Page-1" stroke="none" stroke-width="1" fill="none" fill-rule="evenodd">
        <g id="Handcraft_IMG">
            <g id="Page-1">
                <g id="Group-3" transform="translate(0.000000, 0.056310)" fill="#D1D2D4">
                    <path d="M767.006797,610 L42.9953695,610 C19.3471579,610 0,590.267475 0,566.150435 L0,43.8517748 C0,19.7325252 19.3471579,0 42.9953695,0 L767.006797,0 C790.652842,0 810,19.7325252 810,43.8517748 L810,566.150435 C810,590.267475 790.652842,610 767.006797,610" id="Fill-1"></path>
                </g>
                <g id="Group" transform="translate(221.000000, 92.000000)">
                    <polygon id="Fill-4" fill="#E6E7E7" points="0.636852941 106.736778 184.812227 0.401537433 368.989767 106.736778 368.989767 319.405094 184.812227 425.740334 0.636852941 319.405094"></polygon>
                    <path d="M286.090166,148.011909 C294.411075,139.688834 256.98431,103.243166 247.197171,113.032471 C235.122973,125.106668 234.146209,126.085599 234.146209,126.085599 L271.079176,163.022898 L286.090166,148.011909" id="Fill-6" fill="#D1D2D4"></path>
                    <polygon id="Fill-8" fill="#D1D2D4" points="100.343738 259.941131 92.3953422 304.76835 137.224727 296.817789"></polygon>
                    <path d="M259.732896,174.371345 C262.611211,171.493029 265.374741,168.725168 267.980168,166.121906 L231.042869,129.182441 L222.79343,137.43188 L259.732896,174.371345 Z" id="Fill-10" fill="#D1D2D4"></path>
                    <path d="M219.786901,140.439709 L103.415457,256.811152 L140.352757,293.746286 C154.69019,279.413184 216.317329,217.786045 256.726366,177.379174 L219.786901,140.439709 Z" id="Fill-12" fill="#D1D2D4"></path>
                    <path d="M259.732896,174.371345 C262.611211,171.493029 265.374741,168.725168 267.980168,166.121906 L231.042869,129.182441 L222.79343,137.43188 L259.732896,174.371345 Z" id="Fill-14" fill="#D1D2D4"></path>
                    <polygon id="Fill-16" fill="#D1D2D4" points="269.915505 261.241463 256.372912 274.78189 254.220131 272.631275 267.76489 259.090848 262.365612 253.689404 254.057698 262.00165 251.904917 259.848869 260.214997 251.538789 254.817885 246.143842 246.507805 254.449591 244.348527 252.298976 252.665104 243.98673 247.267992 238.591783 233.725398 252.132211 231.570452 249.981596 245.108714 236.434671 239.718099 231.039725 231.401521 239.351971 229.250906 237.194858 237.560987 228.884778 232.163874 223.487666 223.85596 231.799912 221.703179 229.644965 230.011094 221.337051 227.355853 218.679644 190.418553 255.614778 250.358553 315.554778 287.298019 278.615313"></polygon>
                    <polygon id="Fill-18" fill="#D1D2D4" points="164.941238 183.348917 163.613618 182.021297 177.158377 168.480869 171.76343 163.085922 163.45335 171.396003 161.298404 169.241056 169.608484 160.92881 164.213537 155.533864 155.901291 163.84611 153.746345 161.688997 162.058591 153.378917 156.661479 147.983971 143.118885 161.52873 140.963939 159.371618 154.506532 145.83119 149.111586 140.436243 140.801505 148.741992 138.646559 146.591377 146.956639 138.279131 141.559527 132.884184 133.249447 141.19643 131.0945 139.039318 139.406746 130.729238 134.009634 125.332126 120.46704 138.876885 118.314259 136.721939 131.854687 123.177179 119.265035 110.587527 82.3277353 147.526992 141.546532 206.743623"></polygon>
                </g>
            </g>
        </g>
    </g>
</svg>