<?xml version="1.0" encoding="UTF-8"?>
<svg width="810px" height="610px" viewBox="0 0 810 610" version="1.1" xmlns="http://www.w3.org/2000/svg" xmlns:xlink="http://www.w3.org/1999/xlink">
    <!-- Generator: Sketch 42 (36781) - http://www.bohemiancoding.com/sketch -->
    <title>Health_IMG</title>
    <desc>Created with Sketch.</desc>
    <defs></defs>
    <g id="Page-1" stroke="none" stroke-width="1" fill="none" fill-rule="evenodd">
        <g id="Health_IMG">
            <g id="Page-1">
                <g id="Group-3" transform="translate(0.000000, 0.056310)" fill="#D1D2D4">
                    <path d="M767.004745,610 L42.9952545,610 C19.3471062,610 0,590.267475 0,566.150435 L0,43.8517748 C0,19.7325252 19.3471062,0 42.9952545,0 L767.004745,0 C790.650727,0 810,19.7325252 810,43.8517748 L810,566.148225 C810,590.267475 790.650727,610 767.004745,610" id="Fill-1"></path>
                </g>
                <g id="Group" transform="translate(221.000000, 92.000000)">
                    <polygon id="Fill-4" fill="#E6E7E7" points="0.636852941 106.736995 184.812227 0.401754011 368.989767 106.736995 368.989767 319.40531 184.812227 425.740551 0.636852941 319.40531"></polygon>
                    <path d="M219.465067,266.346195 L179.902848,266.346195 L179.902848,225.150981 L219.465067,225.150981 L219.465067,185.593094 L260.651618,185.593094 L260.651618,225.150981 L264.095201,225.150981 L272.130227,216.73911 C274.192045,214.848388 276.145575,212.849377 277.915013,210.683602 L278.025468,210.56665 L278.008142,210.560152 C286.053997,200.640901 290.894505,188.012265 290.894505,174.242265 C290.894505,142.37288 265.061136,116.539511 233.191751,116.539511 C211.951992,116.539511 193.438944,128.048441 183.424398,145.140741 C173.407687,128.048441 154.896805,116.539511 133.652714,116.539511 C101.785495,116.539511 75.9499599,142.37288 75.9499599,174.242265 C75.9499599,190.06542 82.3281684,204.392024 92.6437567,214.818067 L92.6372594,214.820233 L183.420067,309.603227 L219.465067,271.871088 L219.465067,266.346195 Z" id="Fill-6" fill="#D1D2D4"></path>
                    <polygon id="Fill-8" fill="#D1D2D4" points="293.676877 231.696171 254.10816 231.696171 254.10816 192.133952 226.005059 192.133952 226.005059 231.696171 186.445005 231.696171 186.445005 259.799273 226.005059 259.799273 226.005059 299.367989 254.10816 299.367989 254.10816 259.799273 293.676877 259.799273"></polygon>
                </g>
            </g>
        </g>
    </g>
</svg>