<?xml version="1.0" encoding="UTF-8"?>
<svg width="810px" height="610px" viewBox="0 0 810 610" version="1.1" xmlns="http://www.w3.org/2000/svg" xmlns:xlink="http://www.w3.org/1999/xlink">
    <!-- Generator: Sketch 42 (36781) - http://www.bohemiancoding.com/sketch -->
    <title>Social_IMG</title>
    <desc>Created with Sketch.</desc>
    <defs></defs>
    <g id="Page-1" stroke="none" stroke-width="1" fill="none" fill-rule="evenodd">
        <g id="Social_IMG">
            <g id="Page-1">
                <g id="Group-3" transform="translate(0.000000, 0.056310)" fill="#D1D2D4">
                    <path d="M767.006797,610 L42.9953695,610 C19.3471579,610 0,590.267475 0,566.150435 L0,43.8517748 C0,19.7325252 19.3471579,0 42.9953695,0 L767.006797,0 C790.652842,0 810,19.7325252 810,43.8517748 L810,566.150435 C810,590.267475 790.652842,610 767.006797,610" id="Fill-1"></path>
                </g>
                <g id="Group" transform="translate(221.000000, 92.000000)">
                    <polygon id="Fill-4" fill="#E6E7E7" points="0.636852941 106.842936 184.807896 0.509860963 368.989767 106.842936 368.989767 319.509086 184.807896 425.84216 0.636852941 319.509086"></polygon>
                    <path d="M208.454914,129.786727 C212.173551,130.358492 215.905182,130.85662 219.608658,131.517182 C235.782668,134.395497 250.720021,140.526807 264.812722,148.849882 C265.486278,149.248385 266.170663,149.631727 267.002321,150.110364 C267.236225,149.014481 267.394326,148.100524 267.62823,147.208225 C268.55085,143.691005 271.658738,141.235016 275.290743,141.189535 C278.355316,141.152717 281.419888,141.17654 284.48446,141.183037 C289.597856,141.193866 293.206037,144.384053 293.242856,149.473626 C293.357642,165.160337 293.340316,180.849214 293.249353,196.535925 C293.221198,201.159856 290.223765,204.395524 285.573845,204.81785 C282.104273,205.131888 278.565396,205.123225 275.089326,204.850337 C270.660316,204.503813 268.193497,201.96769 267.36184,197.547342 C267.253551,196.979909 267.179914,196.405979 267.047802,195.569989 C262.891679,196.490444 258.835182,197.514856 254.726706,198.268545 C244.469594,200.15277 234.138845,201.71646 223.684647,201.051567 C220.132775,200.826326 216.383818,199.927529 213.20446,198.359508 C205.502963,194.56507 197.532909,194.768652 189.313791,195.186647 C180.527241,195.634963 171.706037,195.474695 162.90216,195.403225 C161.065583,195.388064 159.140209,194.824963 157.418417,194.116754 C153.927187,192.680845 151.791733,190.051594 151.538337,186.151032 C151.265449,181.973251 153.021893,178.709428 156.818497,177.184722 C160.905316,175.543064 165.195717,174.265257 169.509941,173.36646 C177.41069,171.718305 185.367749,170.267235 193.357294,169.132369 C197.370476,168.56277 201.507107,168.878973 205.587428,168.762021 C206.89339,168.723037 208.210182,168.658064 209.498818,168.456647 C210.91307,168.235738 211.924487,167.469053 211.991626,165.88154 C212.065262,164.200898 211.233604,163.079027 209.678578,162.60039 C208.86208,162.34916 207.95462,162.323171 207.08831,162.321005 C193.894406,162.310176 180.923578,164.177075 168.26462,167.733278 C160.866332,169.812422 153.608818,172.50015 146.494246,175.417449 C143.200102,176.766727 140.245984,179.123091 137.408818,181.366834 C132.615957,185.156941 127.448417,187.361701 121.256465,186.283144 C113.765048,184.977182 110.338791,177.485765 114.265342,170.929963 C117.122,166.158759 121.206652,162.476941 125.557695,159.15031 C144.31331,144.810711 165.169727,135.073385 188.466973,130.787316 C190.593765,130.39531 192.742214,130.118091 194.879834,129.786727 L208.454914,129.786727 Z" id="Fill-6" fill="#D1D2D4"></path>
                    <path d="M102.535719,276.088971 C102.046254,280.511484 100.365612,283.792634 96.1033663,284.847366 C94.3750775,285.27619 92.4821898,285.053115 90.6629385,285.08127 C88.767885,285.111591 86.8685,285.094265 84.9712807,285.087767 C80.0376444,285.068275 76.4099706,281.804452 76.377484,276.849158 C76.2735267,261.160281 76.2865214,245.469238 76.3709866,229.780361 C76.3969759,225.123944 79.3597567,221.88611 83.9988476,221.465949 C87.4705856,221.151912 91.005131,221.14758 94.4833663,221.409639 C98.9145428,221.743168 101.418179,224.287955 102.252003,228.677981 C102.360291,229.245414 102.438259,229.821511 102.576869,230.683489 C106.707003,229.776029 110.7635,228.768944 114.863313,228.010922 C125.122591,226.111537 135.45334,224.560842 145.907537,225.214906 C149.461575,225.437981 153.212698,226.336778 156.392056,227.902634 C164.091388,231.694906 172.067939,231.63643 180.280559,231.049505 C190.013553,230.354291 199.781201,229.448997 209.494703,231.27258 C216.089489,232.511404 219.691174,238.246377 217.616361,243.972687 C216.71973,246.441671 215.069409,248.382206 212.635078,249.185709 C207.957003,250.732072 203.239944,252.297928 198.416762,253.229211 C189.783981,254.894693 181.075398,256.200655 172.366816,257.430816 C169.575131,257.822821 166.681655,257.493623 163.835826,257.50012 C163.179596,257.502286 162.521201,257.493623 161.867136,257.539104 C158.874035,257.753516 157.628714,258.654479 157.628714,260.582019 C157.626548,262.741297 159.170746,264.029933 162.075051,263.934639 C167.097484,263.772206 172.148072,263.711564 177.131521,263.133302 C190.396896,261.595602 203.39588,258.777928 215.92489,254.047874 C222.149329,251.698008 228.00342,248.782874 233.105987,244.301885 C237.426709,240.511778 242.702537,238.885281 248.556628,240.002821 C255.798981,241.384586 259.18842,248.717901 255.46112,255.119933 C252.468019,260.257152 248.045505,264.114398 243.389088,267.644612 C225.603741,281.12873 205.867029,290.493543 183.962377,294.959372 C168.25834,298.160388 152.792537,296.299987 137.554142,291.825495 C125.897939,288.401404 114.900131,283.480762 104.495746,277.221671 C103.943473,276.890307 103.380372,276.578436 102.535719,276.088971" id="Fill-8" fill="#D1D2D4"></path>
                </g>
            </g>
        </g>
    </g>
</svg>