<?xml version="1.0" encoding="UTF-8"?>
<svg width="810px" height="610px" viewBox="0 0 810 610" version="1.1" xmlns="http://www.w3.org/2000/svg" xmlns:xlink="http://www.w3.org/1999/xlink">
    <!-- Generator: Sketch 42 (36781) - http://www.bohemiancoding.com/sketch -->
    <title>Tech_IMG</title>
    <desc>Created with Sketch.</desc>
    <defs></defs>
    <g id="Page-1" stroke="none" stroke-width="1" fill="none" fill-rule="evenodd">
        <g id="Tech_IMG">
            <g id="Page-1">
                <g id="Group-3" transform="translate(0.000000, 0.056310)" fill="#D1D2D4">
                    <path d="M767.006797,610 L42.9953695,610 C19.3471579,610 0,590.267475 0,566.150435 L0,43.8517748 C0,19.7325252 19.3471579,0 42.9953695,0 L767.006797,0 C790.652842,0 810,19.7325252 810,43.8517748 L810,566.150435 C810,590.267475 790.652842,610 767.006797,610" id="Fill-1"></path>
                </g>
                <g id="Group" transform="translate(221.000000, 92.000000)">
                    <polygon id="Fill-4" fill="#E6E7E7" points="0.636852941 106.736995 184.812227 0.401754011 368.989767 106.736995 368.989767 319.40531 184.812227 425.740551 0.636852941 319.40531"></polygon>
                    <path d="M267.281922,261.550519 C267.336067,258.644048 264.890906,256.155572 261.96711,256.142578 C259.075799,256.129583 256.513687,258.644048 256.526682,261.48338 C256.539676,264.166775 259.082297,266.770037 261.783019,266.863166 C264.56604,266.960626 267.227778,264.387684 267.281922,261.550519 L267.281922,261.550519 Z M238.990398,261.290626 C238.927591,264.229583 241.28612,266.752711 244.179596,266.839342 C246.919302,266.919476 249.628687,264.285893 249.656842,261.511535 C249.687163,258.706856 247.313473,256.235706 244.506628,256.144743 C241.517858,256.049449 239.05104,258.347337 238.990398,261.290626 L238.990398,261.290626 Z M76.3016818,138.034182 C76.8777781,136.762872 77.3282594,135.413594 78.0581257,134.237578 C80.0809599,130.971588 83.0935535,128.972578 86.907484,128.827471 C92.6143021,128.610893 98.3362807,128.77116 104.365799,128.77116 C102.08957,133.540198 102.76096,137.878246 106.185051,142.012711 C105.216949,142.181642 104.491414,142.266107 103.787537,142.439369 C99.0423235,143.611053 95.6030722,147.182417 95.3518422,152.081401 C95.0507995,157.911668 94.1866551,164.055973 95.5944091,169.544048 C97.4331524,176.725759 96.9112005,183.771027 96.9783396,190.870439 C97.1494358,208.595144 97.0259866,226.322016 97.0368155,244.048888 C97.0389813,248.142203 98.8885535,250.009102 102.981869,250.011267 C142.175906,250.017765 181.37211,250.011267 220.566147,250.006936 C235.819703,250.006936 251.075425,249.998273 266.328981,250.000439 C270.831628,250.000439 272.579409,248.241829 272.579409,243.726187 C272.579409,222.893594 272.581575,202.061 272.618393,181.226241 C272.618393,180.197497 272.811147,179.118941 273.155505,178.15084 C274.907618,173.238861 275.005078,168.372364 273.081869,163.479877 C272.757003,162.652551 272.655211,161.71477 272.590238,160.815973 C272.488447,159.410385 272.605398,157.985305 272.449463,156.58838 C272.079115,153.242257 270.950746,152.202684 267.556976,151.988273 C265.867671,151.88215 264.171869,151.864824 262.476067,151.851829 C259.589088,151.830171 256.70211,151.845332 253.609382,151.663406 C258.44989,149.900465 262.560532,147.386 262.781441,141.672684 C262.98719,136.381695 260.089382,132.494128 256.121682,128.883781 C256.98366,128.816642 257.564088,128.732176 258.144516,128.732176 C265.629436,128.723513 273.116521,128.719182 280.601441,128.727845 C287.118259,128.734342 290.800078,131.365759 292.965853,137.525225 C293.030826,137.713647 293.201922,137.865251 293.323206,138.034182 L293.323206,265.195519 C293.093634,265.691481 292.835906,266.176615 292.638821,266.685572 C291.020987,270.826535 288.082029,273.427631 283.668179,274.146668 C281.93989,274.428219 280.155291,274.467203 278.396682,274.467203 C254.872029,274.480198 231.347377,274.467203 207.822725,274.45854 L205.076521,274.45854 C207.846548,281.105305 210.681548,287.394717 213.07473,293.848727 C214.411013,297.456909 215.790612,299.601027 220.351735,299.356294 C225.508447,299.079075 228.778767,304.391722 227.141441,309.143433 C225.99358,312.47223 223.10227,314.254663 218.738233,314.256829 C196.131869,314.263326 173.525505,314.263326 150.919142,314.248166 C149.938045,314.246 148.939623,314.152872 147.978019,313.955786 C144.610238,313.273567 142.14342,310.302123 142.04596,306.897524 C141.9485,303.52108 144.248553,300.339556 147.60334,299.559877 C149.158366,299.198193 150.821682,299.16354 152.428687,299.196027 C153.721655,299.21985 154.436361,298.894984 154.958313,297.604182 C157.860452,290.418139 160.868714,283.275412 163.831495,276.113193 C164.02858,275.636722 164.132537,275.123433 164.323126,274.482364 L162.640318,274.482364 C138.197377,274.478032 113.754436,274.469369 89.3114947,274.480198 C86.5003182,274.482364 83.8515749,273.999396 81.4497299,272.444369 C78.7641684,270.705251 77.4430455,268.01969 76.3016818,265.195519 L76.3016818,138.034182 Z" id="Fill-6" fill="#D1D2D4"></path>
                    <path d="M242.681746,190.749805 C237.74811,189.376703 232.621719,188.467078 227.937147,186.502719 C223.072816,184.462559 219.018484,184.858896 214.210463,186.916382 C188.623992,197.864377 162.872922,208.422532 137.186826,219.138789 C133.25811,220.776115 129.294741,222.00411 125.119126,220.18919 C119.667869,217.821997 116.908671,213.431971 116.484179,207.64935 C116.077013,202.115794 118.394393,197.684618 123.429821,195.388896 C132.077762,191.442853 140.914126,187.903976 149.689848,184.239484 C169.389741,176.013869 189.10696,167.83157 208.785195,159.553976 C209.755463,159.14681 210.647762,158.135393 211.180543,157.184618 C214.102174,151.971596 216.623136,146.511676 219.826318,141.482746 C222.522709,137.244324 226.832602,134.822987 231.77057,133.696783 C234.858965,132.990741 237.927869,132.146088 241.050917,131.671783 C246.98081,130.772987 251.49212,133.263628 254.751612,138.104136 C256.583858,140.82435 255.853992,142.795206 252.832735,144.070848 C248.291104,145.987559 243.712655,147.824136 239.242495,149.896783 C235.848725,151.466971 235.153511,153.245072 236.437816,156.755794 C237.769767,160.389965 239.251158,163.976489 240.827842,167.513201 C242.114313,170.402345 244.869179,171.320634 248.130837,170.021168 C252.516532,168.275553 256.856746,166.419484 261.218618,164.608896 C264.584233,163.214136 266.466291,164.195233 267.070543,167.796917 C268.073297,173.776623 266.25188,178.76657 261.190463,182.16034 C256.460409,185.331035 251.680543,188.529885 245.984553,189.833682 C245.503751,189.944136 245.022949,190.08058 244.53565,190.123896 C243.974714,190.175874 243.407281,190.13689 242.842013,190.13689 C242.787869,190.340473 242.73589,190.546222 242.681746,190.749805" id="Fill-8" fill="#D1D2D4"></path>
                    <path d="M175.802168,165.56985 C177.131955,157.378888 175.319201,150.253487 170.257783,144.087524 C166.653933,139.697497 161.965029,136.881989 156.444468,135.586856 C145.312382,132.979262 133.744976,138.233433 128.259067,148.347604 C125.127356,154.11723 124.516607,160.246374 125.909201,166.609422 C126.959602,171.410947 129.103719,174.503674 136.46519,181.936615 C132.662088,183.508968 128.848158,184.905893 125.19666,186.647176 C121.545163,188.38846 118.058265,190.471936 114.179361,192.579235 C113.828505,192.200225 113.057489,191.390225 112.314628,190.55207 C109.328024,187.179957 109.362676,185.993112 112.559361,182.722791 C113.644414,181.611749 114.709976,180.463888 115.903318,179.47846 C116.988372,178.579663 116.687329,177.806481 116.403612,176.593647 C115.396527,172.292417 112.808425,170.873834 108.665297,171.638353 C108.121687,171.737979 107.536928,171.638353 106.973826,171.605866 C103.558398,171.408781 102.371553,170.360545 102.267596,166.949449 C102.135484,162.503112 102.157142,158.048112 102.232944,153.601775 C102.276259,151.085144 103.406794,149.794342 105.903933,149.488968 C108.134682,149.21608 110.408746,149.181428 112.658987,149.21608 C113.886981,149.233406 114.348291,148.798086 115.011019,147.739021 C117.308906,144.070198 116.503238,141.573059 113.28273,138.74239 C108.912195,134.902471 109.115778,133.605171 113.137623,129.41223 C115.725725,126.711508 118.406955,124.093086 121.112008,121.50715 C123.236634,119.477818 125.032061,119.397684 127.286634,121.310064 C128.952115,122.719984 130.379361,124.411455 132.040511,125.827872 C132.52781,126.243701 133.446099,126.235037 134.171634,126.261027 C134.548479,126.276187 134.925324,125.845198 135.325992,125.784556 C139.298024,125.182471 139.713853,122.605198 139.579575,119.146455 C139.332676,112.846214 140.153505,112.10985 146.486233,111.921428 C150.083586,111.815305 153.689602,111.94092 157.291286,112.051374 C160.399174,112.146668 161.715965,113.472123 161.878398,116.640652 C161.982356,118.685144 161.824254,120.744797 161.991019,122.77846 C162.042997,123.413032 162.720885,124.045439 163.221179,124.571722 C163.485404,124.848941 164.050671,124.812123 164.373372,125.05469 C167.604709,127.493353 169.722837,125.946989 172.081366,123.404369 C176.497382,118.641829 177.526126,118.747952 182.158719,123.287417 C184.632035,125.708754 187.057703,128.177738 189.472543,130.657551 C191.727115,132.977096 191.798586,134.850492 189.656634,137.315144 C188.406981,138.751053 187.016553,140.063513 185.684602,141.425786 C185.38789,141.728995 184.759816,142.099342 184.81396,142.292096 C185.374896,144.312765 185.97265,146.331267 186.7415,148.280465 C186.921259,148.735278 187.765912,149.155439 188.333345,149.194422 C190.65289,149.350358 192.994094,149.229075 195.307142,149.443487 C198.116152,149.70338 199.974388,152.651 199.140564,155.327898 C199.036607,155.665759 198.666259,156.02961 198.330564,156.170385 C190.934441,159.278273 183.527489,162.353674 175.802168,165.56985" id="Fill-10" fill="#D1D2D4"></path>
                    <path d="M206.389848,151.068901 C203.108698,144.508767 200.934259,142.739329 195.275088,142.078767 C198.257361,137.96596 199.619634,133.656067 197.027201,128.826388 L223.601265,128.826388 C214.500676,133.556441 210.078163,141.9185 206.389848,151.068901" id="Fill-12" fill="#D1D2D4"></path>
                </g>
            </g>
        </g>
    </g>
</svg>