<svg width="140" height="159" viewBox="0 0 140 159" xmlns="http://www.w3.org/2000/svg" xmlns:xlink="http://www.w3.org/1999/xlink"><title>Question</title><defs><path id="a" d="M.86 39.966L70.396.364l69.538 39.602v79.203L70.396 158.77.86 119.17z"/><path d="M2.864.054A2.082 2.082 0 0 0 .785 2.14V23.66a2.08 2.08 0 0 0 2.079 2.084h32.895a2.08 2.08 0 0 0 2.079-2.084v-8.134l3.605-3.201-3.605-3.2V2.14c0-1.147-.923-2.08-2.067-2.086H2.864z" id="c"/><path d="M1.99.91h27.587a1.743 1.743 0 0 1 1.733 1.748V20.7c0 .966-.78 1.748-1.742 1.748H13.916l-4.39 4.403-4.387-4.403H1.99A1.745 1.745 0 0 1 .249 20.7V2.658c0-.966.78-1.747 1.742-1.747zm19.495 10.995c0 1.093.883 1.98 1.974 1.98 1.09 0 1.973-.887 1.973-1.98s-.884-1.98-1.973-1.98c-1.09 0-1.974.887-1.974 1.98zm-7.673 0c0 1.093.882 1.98 1.97 1.98 1.091 0 1.975-.887 1.975-1.98s-.884-1.98-1.974-1.98c-1.09 0-1.971.887-1.971 1.98zm-7.675 0c0 1.093.883 1.98 1.974 1.98 1.09 0 1.974-.887 1.974-1.98S9.2 9.925 8.11 9.925c-1.09 0-1.974.887-1.974 1.98z" id="e"/><path d="M2.542.221h30.02a1.899 1.899 0 0 1 1.884 1.903v19.631a1.9 1.9 0 0 1-1.896 1.905h-3.12l-4.775 4.79-4.775-4.79H2.542a1.9 1.9 0 0 1-1.895-1.905V2.124c0-1.05.848-1.903 1.895-1.903zm21.213 11.966c0 1.19.961 2.154 2.148 2.154a2.151 2.151 0 0 0 2.147-2.154c0-1.19-.961-2.154-2.147-2.154a2.15 2.15 0 0 0-2.148 2.154zm-8.35 0c0 1.19.961 2.154 2.148 2.154a2.152 2.152 0 0 0 2.147-2.154c0-1.19-.962-2.154-2.147-2.154a2.151 2.151 0 0 0-2.148 2.154zm-8.35 0c0 1.19.961 2.154 2.147 2.154a2.15 2.15 0 0 0 2.147-2.154 2.15 2.15 0 0 0-2.147-2.154 2.151 2.151 0 0 0-2.147 2.154z" id="g"/><path d="M17.687 3.24c-3.02 2.122-5.067 5.38-5.763 9.192l-.344 2.036a14.402 14.402 0 0 0 2.06 10.072l2.714 4.355-3.773 1.131c-4.38 1.29-7.998 4.262-10.178 8.352l-.158.169-1.736 4.748c-.748 2.18-.406 4.716.912 6.644 1.358 1.89 3.577 3.02 5.937 3.02h35.225v-2.792H7.358c-1.49 0-2.832-.678-3.66-1.833-.812-1.187-1.026-2.77-.569-4.104l1.53-4.184.179-.317c1.836-3.452 4.862-5.947 8.53-7.026l7.279-2.181-4.658-7.475a11.622 11.622 0 0 1-1.666-8.121l.339-2.01c.56-3.066 2.202-5.69 4.642-7.404A11.197 11.197 0 0 1 25.97 3.35c2.44 0 4.93.853 6.973 2.374 2.12 1.682 3.637 4.072 4.167 6.586l.543 2.33c.67 2.91.096 6.16-1.546 8.708l-4.436 7.093 7.255 2.176a14.868 14.868 0 0 1 3.657 1.741v-3.227a17.886 17.886 0 0 0-2.84-1.181l-3.772-1.131 2.482-3.972c2.032-3.153 2.747-7.203 1.91-10.838l-.538-2.307c-.657-3.11-2.536-6.088-5.19-8.194C32.08 1.607 29.005.56 25.97.56c-3.024 0-5.895.932-8.283 2.68zm24.896 46.927l.002-15.807h-.002v15.807z" id="i"/><path d="M1.205 1.185l1.501 2.95s1.202-.699 2.226-.474c.809.178 1.396.867 1.237 1.594-.392 1.797-3.851 1.574-4.48 4.461l-.233 1.07 3.538.777.167-.77c.415-1.904 4.173-1.615 4.937-5.122C10.7 2.91 8.433.913 6.047.388a6.746 6.746 0 0 0-1.455-.16c-2.053 0-3.387.957-3.387.957zM.51 15.53l3.367.74.7-3.208-3.366-.74-.701 3.208z" id="k"/><path d="M1.205 1.185l1.5 2.952s1.203-.7 2.226-.475c.81.177 1.397.866 1.237 1.593-.39 1.796-3.85 1.574-4.48 4.461l-.232 1.07 3.538.777.167-.77c.416-1.903 4.173-1.615 4.937-5.122C10.699 2.91 8.433.913 6.046.388a6.79 6.79 0 0 0-1.453-.16c-2.054 0-3.388.957-3.388.957zM.51 15.53l3.367.74.698-3.207-3.366-.741-.7 3.208z" id="m"/><path d="M2.351.42h27.75c.963.006 1.74.793 1.74 1.76v18.147c0 .97-.784 1.76-1.752 1.76h-9.455l-4.413 4.426-4.416-4.426H2.351A1.756 1.756 0 0 1 .6 20.327V2.18c0-.97.784-1.76 1.752-1.76zM21.96 11.48c0 1.1.889 1.993 1.985 1.993a1.988 1.988 0 0 0 1.985-1.992c0-1.099-.888-1.99-1.985-1.99a1.988 1.988 0 0 0-1.985 1.99zm-7.717 0c0 1.1.887 1.993 1.982 1.993a1.99 1.99 0 0 0 1.987-1.992c0-1.099-.889-1.99-1.987-1.99a1.986 1.986 0 0 0-1.982 1.99zm-7.719 0c0 1.1.888 1.993 1.983 1.993a1.988 1.988 0 0 0 1.985-1.992c0-1.099-.888-1.99-1.985-1.99a1.986 1.986 0 0 0-1.983 1.99z" id="o"/></defs><g fill="none" fill-rule="evenodd"><path fill="#33B0CC" d="M.86 39.625v79.205l69.536 39.6 69.538-39.6V39.625L70.396.023z"/><path fill="#33B0CC" d="M.86 39.626v79.204l69.536 39.602 69.538-39.602V39.626L70.396.024z"/><g transform="translate(0 -.34)"><mask id="b" fill="#fff"><use xlink:href="#a"/></mask><path d="M142.77 142.21a21.832 21.832 0 0 0 1.8 2.537v-24.92c-3.574-15.771-6.734-31.572-4.58-48.314-2.154 16.742 1.006 32.543 4.58 48.314V-4.288H-3.775v167.71H144.57v-18.675a21.832 21.832 0 0 1-1.8-2.537" fill="#33B0CC" mask="url(#b)"/></g><path d="M98.818 62.04H65.911a2.082 2.082 0 0 0-2.079 2.086v21.52c0 1.152.93 2.086 2.079 2.086h32.894a2.082 2.082 0 0 0 2.079-2.085v-8.135l3.606-3.201-3.606-3.2v-6.985c0-1.147-.923-2.08-2.066-2.086" fill="#FFF"/><g transform="translate(63.046 61.986)"><mask id="d" fill="#fff"><use xlink:href="#c"/></mask><path fill="#FFF" mask="url(#d)" d="M-162.93 1492.34h725.777V-924.114h-725.776z"/></g><g transform="translate(15.762 55.474)"><mask id="f" fill="#fff"><use xlink:href="#e"/></mask><path fill="#FFF" mask="url(#f)" d="M-1.98 29.085h35.518v-30.41H-1.98z"/></g><g transform="translate(41.722 100.126)"><mask id="h" fill="#fff"><use xlink:href="#g"/></mask><path fill="#FFF" mask="url(#h)" d="M-1.777 30.88H36.87V-2.21H-1.777z"/></g><path d="M139.936 91.694a14.913 14.913 0 0 0-3.66-1.741l-7.254-2.176 4.435-7.094c1.643-2.548 2.217-5.797 1.547-8.707l-.543-2.331c-.53-2.514-2.048-4.904-4.167-6.586-2.043-1.521-4.531-2.373-6.973-2.373-2.43 0-4.735.747-6.667 2.16-2.439 1.714-4.08 4.338-4.641 7.405l-.34 2.01a11.623 11.623 0 0 0 1.668 8.122l4.658 7.473-7.278 2.181c-3.67 1.08-6.697 3.574-8.532 7.027l-.178.317-1.53 4.184c-.458 1.335-.244 2.916.567 4.103.83 1.156 2.17 1.835 3.66 1.835h35.226m0 2.79H104.71c-2.36 0-4.58-1.129-5.937-3.02-1.318-1.928-1.66-4.463-.911-6.643l1.735-4.748.16-.17c2.178-4.088 5.796-7.061 10.175-8.35l3.774-1.132-2.714-4.355a14.403 14.403 0 0 1-2.06-10.072l.343-2.037c.697-3.811 2.743-7.069 5.763-9.19 2.388-1.749 5.26-2.68 8.284-2.68 3.034 0 6.112 1.047 8.665 2.948 2.654 2.105 4.533 5.083 5.19 8.194l.537 2.306c.837 3.635.123 7.685-1.91 10.839l-2.482 3.97 3.773 1.133a17.76 17.76 0 0 1 2.841 1.181" fill="#FFF"/><g transform="translate(97.351 57.335)"><mask id="j" fill="#fff"><use xlink:href="#i"/></mask><path d="M-908.61 3836.28H793.947v-5675.084H-908.609V3836.28zm-2.78 2.79H796.727v-5680.664H-911.391V3839.07z" fill="#FFF" mask="url(#j)"/><path d="M58.369-5.703H-6.127V59.22h52.689c-.207-.93-.41-1.86-.611-2.791H-3.346V-2.912h58.934V56.43H45.95c.2.931.404 1.861.61 2.79H58.37V-5.702z" fill="#FFF" mask="url(#j)"/></g><path d="M80.017 78.96l3.368.739-.7 3.207-3.368-.74.7-3.207zm.48-2.606c.63-2.887 4.087-2.666 4.48-4.462.158-.726-.428-1.416-1.238-1.593-1.023-.225-2.225.474-2.225.474l-1.5-2.952s1.985-1.423 4.841-.796c2.388.525 4.653 2.524 4.05 5.283-.764 3.506-4.52 3.219-4.935 5.122l-.17.77-3.536-.778.233-1.068z" fill="#33B0CC"/><g transform="translate(78.808 66.637)"><mask id="l" fill="#fff"><use xlink:href="#k"/></mask><path fill="#33B0CC" mask="url(#l)" d="M-231.493 774.762h375.019V-473.856h-375.02z"/></g><g transform="translate(78.808 66.637)"><mask id="n" fill="#fff"><use xlink:href="#m"/></mask><path fill="#33B0CC" mask="url(#n)" d="M-.863 17.647H11.57V-1.15H-.863z"/></g><g fill="#FFF"><path d="M73.043 140.934c-.78 1.057-2.06 1.53-4.148 1.53-2.597 0-4.337-.879-5.164-2.596-1.214-2.529-1.58-4.719-.941-5.823.64-1.105 3.386-1.605 5.795-1.605 2.407 0 4.938.463 5.511 1.746.574 1.283-.32 5.71-1.053 6.748zM54.72 139.86l-.047-.01c-.828 1.718-2.56 2.595-5.146 2.595-2.088 0-3.358-.472-4.148-1.528-.791-1.057-1.684-5.38-1.082-6.73.602-1.35 3.217-1.746 5.512-1.746 2.295 0 5.259.5 5.851 1.595.593 1.095.236 3.294-.94 5.824zm22.224-7.55v-.397c-3.709-.997-5.429-1.459-8.229-1.36a18.52 18.52 0 0 0-5.831.84 11.936 11.936 0 0 1-3.682.605 11.903 11.903 0 0 1-3.681-.605 18.473 18.473 0 0 0-5.823-.84c-2.8-.099-5.593.363-8.213 1.36a.464.464 0 0 0-.274.387l-.15 2.246a.47.47 0 0 0 .291.462c.176.052.336.142.471.264 0 .076.075.331.15.68.292 1.6.694 3.176 1.205 4.72a4.475 4.475 0 0 0 2.821 3c1.181.445 2.436.662 3.698.642a9.15 9.15 0 0 0 3.593-.68c2.643-1.141 3.273-2.83 4.073-5.068l.31-.877c.565-1.614.668-1.822 1.553-1.822.883 0 .987.208 1.552 1.822l.31.877c.8 2.19 1.43 3.927 4.074 5.069a9.149 9.149 0 0 0 3.583.67c1.262.02 2.515-.199 3.697-.642a4.477 4.477 0 0 0 2.822-3.001 35 35 0 0 0 1.204-4.662c.075-.36.123-.614.151-.69.126-.138-.023-.245.153-.311.186-.077.172-.262.172-.463v-2.227zM25.491 93.647c-.717.971-1.893 1.405-3.812 1.405-2.387 0-3.985-.806-4.746-2.385-1.116-2.324-1.452-4.337-.864-5.352.587-1.014 3.111-1.474 5.324-1.474 2.213 0 4.54.425 5.066 1.604.528 1.18-.294 5.248-.968 6.202m3.254-5.456c.17-.07-.014-.24-.014-.425v-2.411c-2.782-.915-4.817-1.34-7.39-1.248-1.814-.031-3.542.23-5.273.77a10.72 10.72 0 0 1-3.342.556 10.803 10.803 0 0 1-3.36-.555 16.912 16.912 0 0 0-5.341-.771c-1.09-.04-2.173.034-3.248.18v1.97c.978-.3 2.209-.416 3.361-.416 2.11 0 4.832.46 5.377 1.466.545 1.006.216 3.027-.865 5.351l-.042-.008c-.761 1.578-2.351 2.385-4.73 2.385-1.39 0-2.381-.232-3.101-.727v1.9a9.231 9.231 0 0 0 3.257.544 8.405 8.405 0 0 0 3.303-.624c2.429-1.05 3.008-2.602 3.743-4.658l.285-.807c.52-1.483.614-1.674 1.427-1.674.812 0 .908.191 1.426 1.674l.286.807c.734 2.012 1.313 3.609 3.742 4.658a8.413 8.413 0 0 0 3.295.616 9.267 9.267 0 0 0 3.397-.59 4.113 4.113 0 0 0 2.593-2.759c.467-1.401.836-2.832 1.107-4.284.07-.33.112-.564.138-.633.117-.128-.193-.226-.031-.287"/></g><g transform="translate(42.649 12.684)"><mask id="p" fill="#fff"><use xlink:href="#o"/></mask><path fill="#FFF" mask="url(#p)" d="M-1.642 28.76h35.724V-1.826H-1.642z"/></g><path d="M71.656 50.585c-.72.977-1.904 1.414-3.834 1.414-2.4 0-4.008-.812-4.774-2.4-1.121-2.338-1.46-4.362-.869-5.382.59-1.02 3.13-1.483 5.356-1.483s4.565.427 5.095 1.613c.53 1.187-.295 5.278-.974 6.238zm-16.938-.994l-.043-.01c-.765 1.588-2.365 2.4-4.757 2.4-1.93 0-3.104-.436-3.834-1.413-.73-.977-1.557-4.973-1-6.22.557-1.248 2.974-1.614 5.095-1.614 2.122 0 4.861.462 5.409 1.474s.217 3.044-.87 5.383zm20.37-6.98v-.366c-2.78-.921-4.93-1.348-7.52-1.256a16.837 16.837 0 0 0-5.346.777 10.922 10.922 0 0 1-3.383.558 10.98 10.98 0 0 1-3.391-.558 17.025 17.025 0 0 0-5.378-.777 19.402 19.402 0 0 0-7.588 1.256.426.426 0 0 0-.252.357l-.138 2.077a.435.435 0 0 0 .27.427c.161.049.31.131.435.245 0 .07.07.305.14.628.268 1.478.64 2.936 1.112 4.362a4.14 4.14 0 0 0 2.609 2.774 9.258 9.258 0 0 0 3.417.593 8.432 8.432 0 0 0 3.321-.628c2.444-1.056 3.026-2.617 3.765-4.685l.288-.81c.52-1.493.616-1.684 1.434-1.684s.913.191 1.435 1.683l.287.811c.739 2.025 1.322 3.63 3.765 4.685a8.456 8.456 0 0 0 3.313.62 9.297 9.297 0 0 0 3.417-.594 4.137 4.137 0 0 0 2.608-2.774c.47-1.41.841-2.85 1.114-4.31.07-.33.113-.567.139-.636.117-.13-.108-.228.055-.288.171-.07.073-.242.073-.427v-2.06z" fill="#FFF"/></g></svg>