<?xml version="1.0" encoding="UTF-8"?>
<svg width="140px" height="159px" viewBox="0 0 140 159" version="1.1" xmlns="http://www.w3.org/2000/svg" xmlns:xlink="http://www.w3.org/1999/xlink">
    <!-- Generator: Sketch 42 (36781) - http://www.bohemiancoding.com/sketch -->
    <title>Question</title>
    <desc>Created with Sketch.</desc>
    <defs>
        <polygon id="path-1" points="0.860397351 39.9655814 70.395894 0.36372093 139.934172 39.9655814 139.934172 119.169302 70.395894 158.770233 0.860397351 119.169302"></polygon>
        <path d="M2.86397351,0.0539534884 C1.71615894,0.0539534884 0.785298013,0.987906977 0.785298013,2.13953488 L0.785298013,23.6613953 C0.785298013,24.8130233 1.71615894,25.7451163 2.86397351,25.7451163 L35.7593377,25.7451163 C36.9071523,25.7451163 37.8380132,24.8130233 37.8380132,23.6613953 L37.8380132,15.5265116 L41.4427815,12.3255814 L37.8380132,9.1255814 L37.8380132,2.13953488 C37.8380132,0.993488372 36.9145695,0.0604651163 35.7713907,0.0539534884 L2.86397351,0.0539534884 Z" id="path-3"></path>
        <path d="M1.98966887,0.910697674 L29.5770861,0.910697674 C30.5357616,0.913488372 31.3099338,1.69581395 31.3099338,2.65767442 L31.3099338,20.6995349 C31.3099338,21.6660465 30.5301987,22.4483721 29.5678146,22.4483721 L13.9156291,22.4483721 L9.52649007,26.8511628 L5.1392053,22.4483721 L1.98966887,22.4483721 C1.02728477,22.4483721 0.247549669,21.6660465 0.247549669,20.6995349 L0.247549669,2.65767442 C0.247549669,1.69209302 1.02728477,0.910697674 1.98966887,0.910697674 Z M21.4849007,11.9051163 C21.4849007,12.9981395 22.3684768,13.8855814 23.4588079,13.8855814 C24.5482119,13.8855814 25.4317881,12.9981395 25.4317881,11.9051163 C25.4317881,10.812093 24.5482119,9.92465116 23.4588079,9.92465116 C22.3684768,9.92465116 21.4849007,10.812093 21.4849007,11.9051163 Z M13.8117881,11.9051163 C13.8117881,12.9981395 14.6935099,13.8855814 15.7829139,13.8855814 C16.873245,13.8855814 17.7568212,12.9981395 17.7568212,11.9051163 C17.7568212,10.812093 16.873245,9.92465116 15.7829139,9.92465116 C14.6935099,9.92465116 13.8117881,10.812093 13.8117881,11.9051163 Z M6.13682119,11.9051163 C6.13682119,12.9981395 7.02039735,13.8855814 8.11072848,13.8855814 C9.20013245,13.8855814 10.0846358,12.9981395 10.0846358,11.9051163 C10.0846358,10.812093 9.20013245,9.92465116 8.11072848,9.92465116 C7.02039735,9.92465116 6.13682119,10.812093 6.13682119,11.9051163 Z" id="path-5"></path>
        <path d="M2.54225166,0.221395349 L32.5615894,0.221395349 C33.6055629,0.226976744 34.4464901,1.07813953 34.4464901,2.12372093 L34.4464901,21.7553488 C34.4464901,22.8074419 33.5981457,23.6595349 32.5504636,23.6595349 L29.4296689,23.6595349 L24.6548344,28.4502326 L19.88,23.6595349 L2.54225166,23.6595349 C1.49549669,23.6595349 0.647152318,22.8074419 0.647152318,21.7553488 L0.647152318,2.12372093 C0.647152318,1.07348837 1.49549669,0.221395349 2.54225166,0.221395349 Z M23.7554967,12.1869767 C23.7554967,13.3767442 24.7160265,14.3413953 25.9027815,14.3413953 C27.0886093,14.3413953 28.0500662,13.3767442 28.0500662,12.1869767 C28.0500662,10.9972093 27.0886093,10.0325581 25.9027815,10.0325581 C24.7160265,10.0325581 23.7554967,10.9972093 23.7554967,12.1869767 Z M15.4046358,12.1869767 C15.4046358,13.3767442 16.3660927,14.3413953 17.5528477,14.3413953 C18.7377483,14.3413953 19.7001325,13.3767442 19.7001325,12.1869767 C19.7001325,10.9972093 18.7377483,10.0325581 17.5528477,10.0325581 C16.3660927,10.0325581 15.4046358,10.9972093 15.4046358,12.1869767 Z M7.05470199,12.1869767 C7.05470199,13.3767442 8.01615894,14.3413953 9.20198675,14.3413953 C10.3887417,14.3413953 11.3492715,13.3767442 11.3492715,12.1869767 C11.3492715,10.9972093 10.3887417,10.0325581 9.20198675,10.0325581 C8.01615894,10.0325581 7.05470199,10.9972093 7.05470199,12.1869767 Z" id="path-7"></path>
        <path d="M17.6872848,3.24093023 C14.6666225,5.36186047 12.6203974,8.61953488 11.924106,12.4316279 L11.5801325,14.467907 C11.0090066,17.987907 11.741457,21.5693023 13.6402649,24.5404651 L16.3540397,28.8948837 L12.5805298,30.0260465 C8.20066225,31.3162791 4.58291391,34.2883721 2.40317881,38.3776744 L2.24463576,38.5469767 L0.509006623,43.2948837 C-0.239205298,45.4753488 0.102913907,48.0111628 1.4213245,49.9386047 C2.7786755,51.8288372 4.99827815,52.9590698 7.35788079,52.9590698 L42.5831788,52.9590698 L42.5831788,50.1674419 L7.35788079,50.1674419 C5.86794702,50.1674419 4.52635762,49.4893023 3.6984106,48.3339535 C2.88622517,47.1469767 2.67205298,45.5637209 3.12913907,44.2297674 L4.65986755,40.0455814 L4.83788079,39.7293023 C6.67364238,36.2772093 9.69986755,33.7823256 13.3686093,32.7032558 L20.646755,30.5218605 L15.9887417,23.0474419 C14.4543046,20.6437209 13.8637086,17.7562791 14.322649,14.9255814 L14.6619868,12.9162791 C15.2229139,9.85023256 16.8639735,7.22604651 19.3042384,5.51162791 C21.2354967,4.09767442 23.538543,3.35069767 25.9695364,3.35069767 C28.4107285,3.35069767 30.9001325,4.20372093 32.942649,5.72465116 C35.0621192,7.40651163 36.5798675,9.7972093 37.1101987,12.3106977 L37.6525828,14.6418605 C38.3229139,17.5516279 37.7490066,20.8009302 36.1070199,23.3488372 L31.670596,30.4418605 L38.9255629,32.6176744 C40.2282119,33.0306977 41.458543,33.6213953 42.5831788,34.3590698 L42.5831788,31.132093 C41.6782781,30.6604651 40.727947,30.264186 39.7433113,29.9506977 L35.9707285,28.8195349 L38.4527152,24.8483721 C40.4850331,21.6948837 41.1998675,17.6446512 40.362649,14.0102326 L39.8249007,11.7032558 C39.1684768,8.59255814 37.2891391,5.61488372 34.634702,3.50883721 C32.0813245,1.60744186 29.0050331,0.560930233 25.9695364,0.560930233 C22.9460927,0.560930233 20.074702,1.49302326 17.6872848,3.24093023 Z M42.5831788,50.1674419 L42.5850331,34.36 C42.584106,34.36 42.584106,34.3590698 42.5831788,34.3590698 L42.5831788,50.1674419 Z" id="path-9"></path>
        <path d="M1.20529801,1.18511628 L2.70635762,4.13581395 C2.70635762,4.13581395 3.90794702,3.43627907 4.93152318,3.66139535 C5.74092715,3.83906977 6.32781457,4.52837209 6.16927152,5.25488372 C5.77708609,7.05209302 2.31788079,6.82883721 1.68834437,9.71627907 L1.45562914,10.7851163 L4.99364238,11.5627907 L5.16145695,10.7925581 C5.57589404,8.88930233 9.33364238,9.17767442 10.0976159,5.67069767 C10.7002649,2.91162791 8.43337748,0.91255814 6.04688742,0.387906977 C5.53139073,0.274418605 5.04463576,0.228837209 4.59218543,0.228837209 C2.5394702,0.228837209 1.20529801,1.18511628 1.20529801,1.18511628 Z M0.509006623,15.5302326 L3.87642384,16.2697674 L4.57549669,13.0623256 L1.20993377,12.3227907 L0.509006623,15.5302326 Z" id="path-11"></path>
        <path d="M1.20529801,1.18511628 L2.70543046,4.13674419 C2.70543046,4.13674419 3.90794702,3.43627907 4.93059603,3.66232558 C5.7418543,3.83906977 6.32781457,4.52837209 6.16834437,5.25488372 C5.77708609,7.05116279 2.31788079,6.82883721 1.68834437,9.71627907 L1.45562914,10.7851163 L4.99364238,11.5627907 L5.16145695,10.7925581 C5.57682119,8.89023256 9.33364238,9.17767442 10.0976159,5.67069767 C10.6993377,2.91162791 8.43337748,0.913488372 6.04596026,0.387906977 C5.53139073,0.275348837 5.04463576,0.228837209 4.59311258,0.228837209 C2.5394702,0.228837209 1.20529801,1.18511628 1.20529801,1.18511628 Z M0.509933775,15.5302326 L3.87735099,16.2697674 L4.57549669,13.0632558 L1.20900662,12.3218605 L0.509933775,15.5302326 Z" id="path-13"></path>
        <path d="M2.35125828,0.420465116 L30.1009272,0.420465116 C31.0642384,0.426046512 31.8411921,1.21302326 31.8411921,2.17953488 L31.8411921,20.3274419 C31.8411921,21.2976744 31.0568212,22.0865116 30.0888742,22.0865116 L20.6337748,22.0865116 L16.221457,26.5134884 L11.8054305,22.0865116 L2.35125828,22.0865116 C1.38331126,22.0865116 0.598940397,21.2976744 0.598940397,20.3274419 L0.598940397,2.17953488 C0.598940397,1.20930233 1.38331126,0.420465116 2.35125828,0.420465116 Z M21.9586755,11.4809302 C21.9586755,12.5804651 22.8478146,13.4725581 23.9437086,13.4725581 C25.0405298,13.4725581 25.9287417,12.5804651 25.9287417,11.4809302 C25.9287417,10.3823256 25.0405298,9.49116279 23.9437086,9.49116279 C22.8478146,9.49116279 21.9586755,10.3823256 21.9586755,11.4809302 Z M14.2419868,11.4809302 C14.2419868,12.5804651 15.1292715,13.4725581 16.2242384,13.4725581 C17.3219868,13.4725581 18.2111258,12.5804651 18.2111258,11.4809302 C18.2111258,10.3823256 17.3219868,9.49116279 16.2242384,9.49116279 C15.1292715,9.49116279 14.2419868,10.3823256 14.2419868,11.4809302 Z M6.52344371,11.4809302 C6.52344371,12.5804651 7.41072848,13.4725581 8.50569536,13.4725581 C9.60344371,13.4725581 10.4907285,12.5804651 10.4907285,11.4809302 C10.4907285,10.3823256 9.60344371,9.49116279 8.50569536,9.49116279 C7.41072848,9.49116279 6.52344371,10.3823256 6.52344371,11.4809302 Z" id="path-15"></path>
    </defs>
    <g id="Page-1" stroke="none" stroke-width="1" fill="none" fill-rule="evenodd">
        <g id="Landing-Copy-3" transform="translate(-845.000000, -1495.000000)">
            <g id="HOW-IT-WORKS-Copy" transform="translate(55.000000, 1255.000000)">
                <g id="Question" transform="translate(790.000000, 239.000000)">
                    <polygon id="Fill-1" fill="#33B0CC" points="0.860397351 40.6250233 0.860397351 119.829674 70.395894 159.430605 139.934172 119.829674 139.934172 40.6250233 70.395894 1.02316279"></polygon>
                    <polygon id="Fill-2" fill="#33B0CC" points="0.860397351 40.6259535 0.860397351 119.829674 70.395894 159.431535 139.934172 119.829674 139.934172 40.6259535 70.395894 1.02409302"></polygon>
                    <g id="Group-5" transform="translate(0.000000, 0.660465)">
                        <mask id="mask-2" fill="white">
                            <use xlink:href="#path-1"></use>
                        </mask>
                        <g id="Clip-4"></g>
                        <path d="M142.770609,142.210233 C143.312993,143.11814 143.927695,143.953488 144.570212,144.746977 L144.570212,119.826977 C140.99604,104.055814 137.836305,88.2548837 139.989152,71.5125581 C137.836305,88.2548837 140.99604,104.055814 144.570212,119.826977 L144.570212,-4.28837209 L-3.77508609,-4.28837209 L-3.77508609,163.421395 L144.570212,163.421395 L144.570212,144.746977 C143.927695,143.953488 143.312993,143.11814 142.770609,142.210233" id="Fill-3" fill="#33B0CC" mask="url(#mask-2)"></path>
                    </g>
                    <path d="M98.8181192,63.040093 L65.910702,63.040093 C64.7628874,63.040093 63.8320265,63.9740465 63.8320265,65.1256744 L63.8320265,86.6466047 C63.8320265,87.7982326 64.7628874,88.732186 65.910702,88.732186 L98.8051391,88.732186 C99.9538808,88.732186 100.883815,87.7982326 100.883815,86.6466047 L100.883815,78.5117209 L104.48951,75.3107907 L100.883815,72.1107907 L100.883815,65.1256744 C100.883815,63.9786977 99.961298,63.0466047 98.8181192,63.040093" id="Fill-6" fill="#FFFFFF"></path>
                    <g id="Group-10" transform="translate(63.046358, 62.986047)">
                        <mask id="mask-4" fill="white">
                            <use xlink:href="#path-3"></use>
                        </mask>
                        <g id="Clip-9"></g>
                        <polygon id="Fill-8" fill="#FFFFFF" mask="url(#mask-4)" points="-162.929404 1492.33953 562.847285 1492.33953 562.847285 -924.114419 -162.929404 -924.114419"></polygon>
                    </g>
                    <g id="Group-13" transform="translate(15.761589, 56.474419)">
                        <mask id="mask-6" fill="white">
                            <use xlink:href="#path-5"></use>
                        </mask>
                        <g id="Clip-12"></g>
                        <polygon id="Fill-11" fill="#FFFFFF" mask="url(#mask-6)" points="-1.9794702 29.0846512 33.5378808 29.0846512 33.5378808 -1.3255814 -1.9794702 -1.3255814"></polygon>
                    </g>
                    <g id="Group-16" transform="translate(41.721854, 101.125581)">
                        <mask id="mask-8" fill="white">
                            <use xlink:href="#path-7"></use>
                        </mask>
                        <g id="Clip-15"></g>
                        <polygon id="Fill-14" fill="#FFFFFF" mask="url(#mask-8)" points="-1.77735099 30.8809302 36.8700662 30.8809302 36.8700662 -2.21023256 -1.77735099 -2.21023256"></polygon>
                    </g>
                    <path d="M139.936026,92.6942326 C138.811391,91.9565581 137.579205,91.3667907 136.276556,90.9528372 L129.021589,88.7770233 L133.457086,81.6830698 C135.1,79.1351628 135.673907,75.8858605 135.003576,72.976093 L134.461192,70.6449302 C133.930861,68.1314419 132.413113,65.7407442 130.293642,64.0588837 C128.251126,62.5379535 125.762649,61.6858605 123.32053,61.6858605 C120.890464,61.6858605 118.585563,62.4328372 116.654305,63.8467907 C114.214967,65.5602791 112.574834,68.1844651 112.01298,71.2514419 L111.673642,73.2607442 C111.214702,76.0914419 111.806225,78.9788837 113.340662,81.3826047 L117.998675,88.856093 L110.72053,91.0374884 C107.051788,92.1165581 104.023709,94.6114419 102.188874,98.0644651 L102.010861,98.3807442 L100.48106,102.56493 C100.023046,103.899814 100.237219,105.481209 101.048477,106.668186 C101.878278,107.824465 103.21894,108.502605 104.708874,108.502605 L139.934172,108.502605 M139.934172,111.293302 L104.708874,111.293302 C102.349272,111.293302 100.129669,110.164 98.7723179,108.272837 C97.4539073,106.345395 97.1117881,103.809581 97.8609272,101.630047 L99.5956291,96.8821395 L99.7550993,96.7128372 C101.933907,92.6235349 105.551656,89.6505116 109.930596,88.3612093 L113.705033,87.2300465 L110.991258,82.8746977 C109.093377,79.9044651 108.359073,76.3230698 108.930199,72.8030698 L109.274172,70.7658605 C109.971391,66.9546977 112.016689,63.6970233 115.037351,61.576093 C117.424768,59.8272558 120.297086,58.8951628 123.32053,58.8951628 C126.355099,58.8951628 129.433245,59.9426047 131.985695,61.844 C134.640132,63.9491163 136.51947,66.9267907 137.176821,70.0384186 L137.712715,72.3444651 C138.549934,75.9788837 137.836026,80.0291163 135.803709,83.1826047 L133.320795,87.1537674 L137.094305,88.2858605 C138.07894,88.5984186 139.029272,88.9946977 139.935099,89.4672558" id="Fill-17" fill="#FFFFFF"></path>
                    <g id="Group-22" transform="translate(97.350993, 58.334884)">
                        <mask id="mask-10" fill="white">
                            <use xlink:href="#path-9"></use>
                        </mask>
                        <g id="Clip-20"></g>
                        <path d="M-908.609272,3836.27907 L793.94649,3836.27907 L793.94649,-1838.80372 L-908.609272,-1838.80372 L-908.609272,3836.27907 Z M-911.390728,3839.06977 L796.727947,3839.06977 L796.727947,-1841.59442 L-911.390728,-1841.59442 L-911.390728,3839.06977 Z" id="Fill-19" fill="#FFFFFF" mask="url(#mask-10)"></path>
                        <path d="M58.3689669,-5.70316279 L-6.12745695,-5.70316279 L-6.12745695,59.2205581 L46.5616821,59.2205581 C46.3549272,58.2912558 46.1518808,57.3610233 45.9506887,56.4298605 L-3.346,56.4298605 L-3.346,-2.91246512 L55.5875099,-2.91246512 L55.5875099,56.4298605 L45.9506887,56.4298605 C46.1518808,57.3610233 46.3549272,58.2912558 46.5616821,59.2205581 L58.3689669,59.2205581 L58.3689669,-5.70316279 Z" id="Fill-21" fill="#FFFFFF" mask="url(#mask-10)"></path>
                    </g>
                    <path d="M80.0172318,79.9591628 L83.384649,80.6986977 L82.684649,83.9061395 L79.3172318,83.1666047 L80.0172318,79.9591628 Z M80.4965695,77.3535814 C81.1270331,74.4670698 84.5843841,74.6884651 84.9765695,72.892186 C85.1351126,72.1656744 84.5491523,71.4763721 83.7388212,71.2986977 C82.7161722,71.0735814 81.5136556,71.7731163 81.5136556,71.7731163 L80.0135232,68.8214884 C80.0135232,68.8214884 81.9994834,67.3982326 84.8551126,68.0252093 C87.2425298,68.5498605 89.5084901,70.5489302 88.9058411,73.308 C88.1409404,76.8140465 84.3850464,76.5266047 83.9696821,78.4298605 L83.8009404,79.1991628 L80.2638543,78.4224186 L80.4965695,77.3535814 Z" id="Fill-23" fill="#33B0CC"></path>
                    <g id="Group-27" transform="translate(78.807947, 67.637209)">
                        <mask id="mask-12" fill="white">
                            <use xlink:href="#path-11"></use>
                        </mask>
                        <g id="Clip-26"></g>
                        <polygon id="Fill-25" fill="#33B0CC" mask="url(#mask-12)" points="-231.493245 774.76186 143.52596 774.76186 143.52596 -473.855814 -231.493245 -473.855814"></polygon>
                    </g>
                    <g id="Group-30" transform="translate(78.807947, 67.637209)">
                        <mask id="mask-14" fill="white">
                            <use xlink:href="#path-13"></use>
                        </mask>
                        <g id="Clip-29"></g>
                        <polygon id="Fill-28" fill="#33B0CC" mask="url(#mask-14)" points="-0.863178808 17.6465116 11.5699338 17.6465116 11.5699338 -1.14883721 -0.863178808 -1.14883721"></polygon>
                    </g>
                    <g id="Group-35" transform="translate(0.000000, 84.381395)" fill="#FFFFFF">
                        <path d="M73.0431921,57.5529302 C72.2625298,58.6096744 70.9830596,59.0822326 68.8951126,59.0822326 C66.2981589,59.0822326 64.557894,58.204093 63.7308742,56.4868837 C62.5172318,53.9575814 62.1500795,51.767814 62.7898146,50.6636279 C63.4295497,49.5585116 66.1757748,49.0589767 68.5845166,49.0589767 C70.9923311,49.0589767 73.523457,49.5213023 74.0964371,50.8050233 C74.6703444,52.087814 73.7765695,56.5147907 73.0431921,57.5529302 L73.0431921,57.5529302 Z M54.7189536,56.4775814 L54.6716689,56.4673488 C53.8437219,58.1854884 52.1127285,59.0626977 49.5259735,59.0626977 C47.4380265,59.0626977 46.1678278,58.5910698 45.377894,57.5343256 C44.5870331,56.4775814 43.6941854,52.1547907 44.2959073,50.8050233 C44.8976291,49.4552558 47.5131258,49.0589767 49.8078278,49.0589767 C52.103457,49.0589767 55.0666358,49.5585116 55.6590861,50.6533953 C56.2524636,51.7482791 55.8945828,53.9473488 54.7189536,56.4775814 L54.7189536,56.4775814 Z M76.9427947,48.9268837 L76.9427947,48.539907 L76.9427947,48.5306047 C73.2341854,47.5333953 71.5143179,47.072 68.7143179,47.1715349 C66.7404106,47.1380465 64.7665033,47.4217674 62.8825298,48.0106047 C61.6957748,48.404093 60.4506093,48.607814 59.2008079,48.6152558 C57.9500795,48.6087442 56.7076954,48.404093 55.5200132,48.0106047 C53.6360397,47.4217674 51.6695497,47.1380465 49.6965695,47.1715349 C46.8965695,47.072 44.1039868,47.5333953 41.4838543,48.5306047 C41.3290199,48.5994419 41.2242517,48.7473488 41.2103444,48.9175814 L41.0601457,51.1631628 C41.0490199,51.364093 41.1658411,51.5501395 41.3512715,51.6254884 C41.5265033,51.6775814 41.6869007,51.767814 41.8222649,51.8896744 C41.8222649,51.9659535 41.8973642,52.2208372 41.9724636,52.5696744 C42.2635894,54.1687442 42.6659735,55.7454884 43.1768344,57.2887442 C43.5755099,58.6896744 44.6278278,59.8096744 45.9981589,60.2896744 C47.179351,60.7343256 48.4337881,60.952 49.6956424,60.9315349 C50.9269007,60.9492093 52.1488874,60.7185116 53.2892848,60.2524651 C55.9316689,59.1101395 56.5621325,57.4208372 57.3622649,55.1836279 L57.6728609,54.3064186 C58.2365695,52.6924651 58.3404106,52.4850233 59.2249139,52.4850233 C60.1084901,52.4850233 60.2123311,52.6924651 60.7769669,54.3064186 C60.8706093,54.5706047 60.9744503,54.8626977 61.0866358,55.1836279 C61.8867682,57.3733953 62.5172318,59.1101395 65.160543,60.2524651 C66.2981589,60.7138605 67.5173642,60.9417674 68.7439868,60.9222326 C70.0058411,60.9426977 71.259351,60.724093 72.4414702,60.2803721 C73.8118013,59.7994419 74.8641192,58.6803721 75.2627947,57.2794419 C75.7708742,55.7547907 76.1732583,54.1966512 76.4671656,52.6171163 C76.5422649,52.2580465 76.5895497,52.0031628 76.6182914,51.927814 C76.7443841,51.7892093 76.5951126,51.6822326 76.7712715,51.616186 C76.956702,51.539907 76.9427947,51.3547907 76.9427947,51.1538605 L76.9427947,48.9268837 Z" id="Fill-31"></path>
                        <path d="M25.4912185,10.2656744 C24.7736026,11.2368372 23.5979735,11.6703256 21.6787682,11.6703256 C19.2922781,11.6703256 17.6938675,10.8647442 16.9326755,9.2852093 C15.8173113,6.96148837 15.480755,4.94846512 16.0685695,3.9335814 C16.6563841,2.91962791 19.1800927,2.45916279 21.3932053,2.45916279 C23.6063179,2.45916279 25.932543,2.88427907 26.4591656,4.06381395 C26.9867152,5.24334884 26.1652583,9.31125581 25.4912185,10.2656744 M28.744596,4.80986047 C28.9151921,4.74009302 28.7306887,4.56893023 28.7306887,4.38474419 L28.7306887,1.9735814 C25.9492318,1.05823256 23.9141325,0.634046512 21.3403576,0.725209302 C19.5268477,0.694511628 17.7986358,0.954976744 16.0676424,1.49637209 C14.9763841,1.85730233 13.8749272,2.0452093 12.7261854,2.05172093 C11.5774437,2.0452093 10.4565166,1.85823256 9.36618543,1.49637209 C7.6342649,0.954976744 5.83744371,0.694511628 4.02486093,0.725209302 C2.93545695,0.686139535 1.85161589,0.759627907 0.777046358,0.904744186 L0.777046358,2.87590698 C1.75519205,2.57544186 2.98552318,2.45916279 4.13797351,2.45916279 C6.24724503,2.45916279 8.97029139,2.91962791 9.51545695,3.9252093 C10.0596954,4.93172093 9.73148344,6.95218605 8.65042384,9.27683721 L8.60777483,9.26846512 C7.84658278,10.8470698 6.25651656,11.6535814 3.87837086,11.6535814 C2.48856954,11.6535814 1.49651656,11.4219535 0.777046358,10.9270698 L0.777046358,12.8266047 C1.82194702,13.2005581 2.92433113,13.3884651 4.03413245,13.3707907 C5.16618543,13.3875349 6.28896689,13.1745116 7.33664901,12.7466047 C9.76578808,11.6973023 10.3452583,10.1447442 11.0804901,8.08893023 L11.3651258,7.28148837 C11.8843311,5.79869767 11.9789007,5.608 12.7920132,5.608 C13.6041987,5.608 13.6996954,5.79869767 14.2179735,7.28148837 C14.3051258,7.5252093 14.3996954,7.79404651 14.5035364,8.08893023 C15.2378411,10.1010233 15.8173113,11.6973023 18.2464503,12.7466047 C19.2922781,13.1707907 20.4122781,13.380093 21.5406225,13.3624186 C22.6995629,13.380093 23.8520132,13.180093 24.9377086,12.7726512 C26.1977086,12.3307907 27.1647285,11.3019535 27.5309536,10.0135814 C27.9982384,8.61265116 28.367245,7.18195349 28.6379735,5.72986047 C28.7075099,5.39962791 28.7501589,5.1652093 28.7761192,5.09637209 C28.8929404,4.96893023 28.5832715,4.87032558 28.744596,4.80986047" id="Fill-33"></path>
                    </g>
                    <g id="Group-38" transform="translate(42.649007, 13.683721)">
                        <mask id="mask-16" fill="white">
                            <use xlink:href="#path-15"></use>
                        </mask>
                        <g id="Clip-37"></g>
                        <polygon id="Fill-36" fill="#FFFFFF" mask="url(#mask-16)" points="-1.64198675 28.7609302 34.0821192 28.7609302 34.0821192 -1.82697674 -1.64198675 -1.82697674"></polygon>
                    </g>
                    <path d="M71.6564503,51.5852093 C70.9351258,52.5619535 69.7520795,52.9991628 67.8217483,52.9991628 C65.4222781,52.9991628 63.8136689,52.1870698 63.0478411,50.5991628 C61.9269139,48.2614884 61.5875762,46.2373023 62.1790993,45.2168372 C62.7696954,44.1963721 65.3091656,43.7340465 67.5352583,43.7340465 C69.761351,43.7340465 72.0996291,44.1610233 72.6299603,45.3470698 C73.1602914,46.5340465 72.3351258,50.6252093 71.6564503,51.5852093 L71.6564503,51.5852093 Z M54.7183046,50.5907907 L54.6747285,50.5814884 C53.9098278,52.1693953 52.3095629,52.9805581 49.9184371,52.9805581 C47.988106,52.9805581 46.8143311,52.5452093 46.0837351,51.5675349 C45.3531391,50.5907907 44.5270464,46.5954419 45.0833377,45.3470698 C45.6405563,44.0996279 48.0576424,43.7340465 50.1789669,43.7340465 C52.3012185,43.7340465 55.0400265,44.1963721 55.5879735,45.2084651 C56.1359205,46.2196279 55.8049272,48.252186 54.7183046,50.5907907 L54.7183046,50.5907907 Z M75.0887682,43.6112558 L75.0887682,43.2531163 L75.0887682,43.2447442 C72.3073113,42.323814 70.157245,41.8968372 67.5686358,41.9889302 C65.7449272,41.9582326 63.9629404,42.2205581 62.2217483,42.7656744 C61.124,43.1284651 59.9947285,43.3173023 58.8394967,43.323814 C57.6842649,43.3173023 56.5457219,43.1284651 55.4479735,42.7656744 C53.7067815,42.2205581 51.8941987,41.9582326 50.0704901,41.9889302 C47.4818808,41.8968372 44.9034702,42.323814 42.4817483,43.2447442 C42.3380397,43.3089302 42.242543,43.4456744 42.2304901,43.6019535 L42.0923444,45.6791628 C42.0821457,45.8642791 42.1906225,46.0363721 42.3621457,46.1061395 C42.5234702,46.1545116 42.6718146,46.2373023 42.7969801,46.3507907 C42.7969801,46.4205581 42.8665166,46.655907 42.936053,46.9786977 C43.2049272,48.4568372 43.5767152,49.9145116 44.0486358,51.3405581 C44.4176424,52.6363721 45.3902252,53.6707907 46.6576424,54.1154419 C47.7498278,54.5266047 48.9087682,54.7275349 50.0751258,54.708 C51.2127417,54.7247442 52.3429404,54.5117209 53.3961854,54.080093 C55.8401589,53.0242791 56.4224106,51.4633488 57.161351,49.3954419 L57.4487682,48.5842791 C57.9698278,47.092186 58.0653245,46.9005581 58.8830728,46.9005581 C59.7008212,46.9005581 59.7963179,47.092186 60.3183046,48.5842791 C60.4045298,48.8289302 60.5000265,49.0986977 60.6047947,49.3954419 C61.3437351,51.4196279 61.9269139,53.0242791 64.3699603,54.080093 C65.4222781,54.5070698 66.5478411,54.7173023 67.6826755,54.6996279 C68.8490331,54.7182326 70.0079735,54.5163721 71.1001589,54.1061395 C72.3675762,53.6614884 73.3401589,52.6270698 73.7082384,51.332186 C74.1773775,49.9228837 74.5491656,48.4828837 74.8217483,47.0224186 C74.8912848,46.6912558 74.9348609,46.4549767 74.9608212,46.3861395 C75.0776424,46.2568372 74.8532715,46.1582326 75.0155232,46.0977674 C75.1870464,46.0270698 75.0887682,45.855907 75.0887682,45.6707907 L75.0887682,43.6112558 Z" id="Fill-39" fill="#FFFFFF"></path>
                </g>
            </g>
        </g>
    </g>
</svg>