<svg width="140" height="160" viewBox="0 0 140 160" xmlns="http://www.w3.org/2000/svg" xmlns:xlink="http://www.w3.org/1999/xlink"><title>Feedback</title><defs><path d="M2.197.763h32.907A2.09 2.09 0 0 1 37.17 2.86v21.646c0 1.16-.93 2.098-2.08 2.098H24.45l-5.235 5.284-5.233-5.284H2.197a2.088 2.088 0 0 1-2.08-2.098V2.861c0-1.159.932-2.098 2.08-2.098zm23.254 13.193a2.363 2.363 0 0 0 2.353 2.375c1.3 0 2.354-1.063 2.354-2.375a2.364 2.364 0 0 0-2.354-2.375 2.362 2.362 0 0 0-2.353 2.375zm-9.154 0c0 1.312 1.055 2.375 2.353 2.375 1.3 0 2.356-1.063 2.356-2.375a2.365 2.365 0 0 0-2.356-2.375 2.363 2.363 0 0 0-2.353 2.375zm-9.153 0a2.364 2.364 0 0 0 2.354 2.375c1.3 0 2.353-1.063 2.353-2.375a2.362 2.362 0 0 0-2.353-2.375 2.363 2.363 0 0 0-2.354 2.375z" id="a"/><path d="M2.965.763h32.907a2.089 2.089 0 0 1 2.065 2.098v21.646c0 1.16-.93 2.098-2.08 2.098H25.217l-5.236 5.284-5.233-5.284H2.965a2.09 2.09 0 0 1-2.08-2.098V2.861A2.09 2.09 0 0 1 2.965.763zm23.252 13.193a2.365 2.365 0 0 0 2.354 2.375c1.3 0 2.353-1.063 2.353-2.375a2.362 2.362 0 0 0-2.353-2.375 2.364 2.364 0 0 0-2.354 2.375zm-9.155 0a2.366 2.366 0 0 0 2.356 2.375 2.365 2.365 0 0 0 2.354-2.375 2.364 2.364 0 0 0-2.354-2.375 2.365 2.365 0 0 0-2.356 2.375zm-9.152 0a2.365 2.365 0 0 0 2.354 2.375c1.3 0 2.355-1.063 2.355-2.375a2.364 2.364 0 0 0-2.355-2.375 2.364 2.364 0 0 0-2.354 2.375z" id="c"/><path d="M17.687 3.26C20.076 1.5 22.947.564 25.97.564c3.035 0 6.112 1.055 8.665 2.967 2.654 2.119 4.533 5.113 5.192 8.244l.534 2.32c.838 3.653.125 7.729-1.908 10.899l-2.484 3.995 3.775 1.139c4.384 1.4 8.082 4.483 10.166 8.466l.216.543 1.572 4.451c.806 2.24.474 4.666-.913 6.647-1.3 1.896-3.509 3.035-5.897 3.035H7.358a7.296 7.296 0 0 1-5.935-3.037c-1.32-1.94-1.663-4.49-.914-6.683l1.735-4.774.16-.17C4.582 34.49 8.2 31.499 12.58 30.203l3.774-1.137-2.714-4.383a14.553 14.553 0 0 1-2.06-10.13l.343-2.047c.698-3.834 2.743-7.11 5.764-9.245zM3.697 48.619c.83 1.162 2.172 1.844 3.66 1.844h37.531c1.497 0 2.816-.67 3.618-1.837.86-1.23 1.068-2.717.575-4.088l-1.654-4.681c-1.75-3.313-4.847-5.88-8.501-7.047l-7.255-2.187 4.435-7.138c1.643-2.562 2.217-5.829 1.547-8.756l-.542-2.345c-.531-2.528-2.049-4.932-4.167-6.624C30.9 4.23 28.41 3.371 25.97 3.371c-2.43 0-4.735.752-6.666 2.173-2.44 1.725-4.08 4.365-4.642 7.45l-.338 2.02a11.728 11.728 0 0 0 1.667 8.168l4.656 7.518-7.277 2.195c-3.67 1.086-6.696 3.594-8.533 7.068l-.177.317-1.53 4.21c-.458 1.342-.244 2.934.567 4.128z" id="e"/><path d="M17.992 3.26C20.382 1.5 23.253.564 26.275.564c3.034 0 6.111 1.055 8.665 2.967 2.653 2.119 4.533 5.113 5.192 8.244l.535 2.32c.838 3.655.123 7.729-1.91 10.899l-2.482 3.995 3.775 1.139c4.382 1.398 8.08 4.483 10.166 8.466l.218.549 1.57 4.444c.806 2.241.473 4.668-.915 6.648-1.3 1.896-3.506 3.035-5.895 3.035H7.664a7.3 7.3 0 0 1-5.936-3.037C.408 48.29.066 45.742.815 43.549l1.735-4.777.16-.169c2.18-4.116 5.797-7.104 10.176-8.4l3.774-1.137-2.716-4.381a14.56 14.56 0 0 1-2.059-10.132l.344-2.047c.698-3.834 2.743-7.11 5.763-9.245zM4.003 48.619c.83 1.162 2.172 1.844 3.66 1.844h37.531c1.498 0 2.816-.67 3.616-1.837.862-1.23 1.07-2.717.577-4.088l-1.654-4.681c-1.752-3.313-4.848-5.88-8.501-7.047l-7.256-2.187 4.435-7.136c1.644-2.564 2.218-5.83 1.548-8.758l-.542-2.345c-.532-2.528-2.049-4.932-4.167-6.624-2.046-1.53-4.533-2.388-6.975-2.388-2.43 0-4.734.752-6.666 2.173-2.44 1.725-4.08 4.365-4.642 7.45l-.337 2.02c-.461 2.848.13 5.751 1.665 8.168l4.658 7.518-7.278 2.195c-3.67 1.085-6.697 3.594-8.532 7.068l-.179.32-1.529 4.206c-.458 1.341-.245 2.935.568 4.129z" id="g"/></defs><g fill="none" fill-rule="evenodd"><path fill="#61C2C7" d="M.12 40.305v79.668l69.535 39.833 69.537-39.833V40.305L69.655.472z"/><path fill="#61C2C7" d="M.12 40.306v79.668l69.535 39.832 69.535-39.832V40.306L69.655.473z"/><path fill="#61C2C7" d="M.12 40.306v79.668l69.535 39.832 69.536-39.832V40.306L69.655.474z"/><g transform="translate(12.98 49.32)"><mask id="b" fill="#fff"><use xlink:href="#a"/></mask><path fill="#FFF" mask="url(#b)" d="M-2.538 34.567h42.366V-1.919H-2.538z"/></g><g transform="translate(89.934 49.32)"><mask id="d" fill="#fff"><use xlink:href="#c"/></mask><path fill="#FFF" mask="url(#d)" d="M-1.772 34.567h42.366V-1.919H-1.772z"/></g><path d="M4.66 128.897l-1.53 4.21c-.459 1.342-.243 2.934.568 4.128.83 1.162 2.171 1.845 3.66 1.845h37.53c1.498 0 2.817-.67 3.617-1.838.862-1.23 1.068-2.716.576-4.088l-1.654-4.68c-1.751-3.314-4.847-5.881-8.501-7.047l-7.256-2.188 4.436-7.137c1.643-2.563 2.217-5.83 1.546-8.757l-.541-2.344c-.53-2.529-2.049-4.933-4.168-6.626-2.042-1.53-4.532-2.387-6.974-2.387-2.43 0-4.734.751-6.665 2.174-2.44 1.724-4.08 4.365-4.642 7.449l-.339 2.02a11.739 11.739 0 0 0 1.667 8.169l4.657 7.518-7.277 2.193c-3.669 1.088-6.697 3.596-8.533 7.068l-.177.318zm40.228 12.99H7.358a7.297 7.297 0 0 1-5.935-3.039c-1.32-1.94-1.662-4.49-.914-6.682l1.736-4.773.159-.171c2.178-4.114 5.795-7.105 10.176-8.402l3.773-1.137-2.712-4.382a14.553 14.553 0 0 1-2.061-10.13l.344-2.049c.697-3.833 2.742-7.11 5.763-9.243 2.388-1.76 5.26-2.698 8.282-2.698 3.036 0 6.114 1.054 8.666 2.967 2.654 2.118 4.534 5.113 5.191 8.242l.535 2.32c.838 3.655.125 7.729-1.909 10.9l-2.483 3.996 3.775 1.139c4.383 1.398 8.083 4.481 10.168 8.466l.215.542 1.571 4.451c.806 2.241.473 4.666-.913 6.647-1.3 1.897-3.508 3.036-5.897 3.036z" fill="#FFF"/><g transform="translate(0 88.618)"><mask id="f" fill="#fff"><use xlink:href="#e"/></mask><path d="M-908.61 3858.713H793.947v-5708.268H-908.609v5708.268zm-2.78 2.807H796.727v-5713.882H-911.391V3861.52z" fill="#FFF" mask="url(#f)"/><path d="M-3.346 56.762h58.932v-59.69H-3.346v59.69zm-2.782 2.807h64.496V-5.735H-6.128V59.57z" fill="#FFF" mask="url(#f)"/></g><path d="M91.19 128.9l-1.53 4.207c-.458 1.34-.243 2.933.569 4.128.83 1.162 2.171 1.844 3.66 1.844h37.53c1.499 0 2.816-.669 3.616-1.836.862-1.232 1.07-2.717.577-4.09l-1.654-4.68c-1.752-3.314-4.848-5.88-8.501-7.046l-7.256-2.188 4.435-7.137c1.643-2.563 2.218-5.83 1.547-8.757L123.64 101c-.53-2.528-2.049-4.932-4.167-6.624-2.044-1.53-4.532-2.388-6.974-2.388-2.43 0-4.734.752-6.665 2.174-2.44 1.724-4.08 4.364-4.642 7.448l-.34 2.022c-.459 2.847.132 5.751 1.667 8.168l4.658 7.517-7.277 2.195c-3.67 1.086-6.698 3.595-8.534 7.067l-.178.321zm40.23 12.987H93.89a7.297 7.297 0 0 1-5.937-3.039c-1.319-1.94-1.662-4.49-.914-6.682l1.736-4.777.158-.168c2.183-4.116 5.799-7.105 10.178-8.4l3.773-1.138-2.713-4.381a14.555 14.555 0 0 1-2.06-10.132l.343-2.047c.698-3.834 2.743-7.11 5.764-9.244 2.388-1.76 5.26-2.698 8.282-2.698 3.034 0 6.112 1.054 8.666 2.967 2.653 2.117 4.533 5.113 5.191 8.242l.535 2.32c.838 3.656.124 7.73-1.91 10.9l-2.482 3.996 3.775 1.139c4.382 1.397 8.082 4.481 10.168 8.465l.216.55 1.57 4.444c.805 2.241.473 4.667-.915 6.647-1.299 1.897-3.505 3.036-5.895 3.036z" fill="#FFF"/><g transform="translate(86.225 88.618)"><mask id="h" fill="#fff"><use xlink:href="#g"/></mask><path d="M-908.303 3858.713H794.252v-5708.268H-908.303v5708.268zm-2.782 2.807H797.034v-5713.882H-911.085V3861.52z" fill="#FFF" mask="url(#h)"/><path d="M-3.041 56.762h58.933v-59.69H-3.041v59.69zm-2.78 2.807h64.495V-5.735H-5.822V59.57z" fill="#FFF" mask="url(#h)"/></g><g fill="#FFF"><path d="M83.723 48.321C70 42.452 59.446 46.406 56.537 47.756l-1.163-2.549c3.17-1.474 14.662-5.79 29.434.53l-1.085 2.584z"/><path d="M61.144 49.38l.39-1.052-5.143-1.93 2.282-5.034-1.014-.466-2.777 6.132zM70.062 85.838c-4.514 0-9.86-.832-15.724-3.34l1.085-2.584c13.722 5.87 24.278 1.915 27.186.564l1.163 2.55c-1.911.889-6.852 2.81-13.71 2.81"/><path d="M78.003 78.854l-.39 1.053 5.142 1.93-2.281 5.034 1.013.467 2.778-6.133z"/></g></g></svg>