<svg width="140" height="160" viewBox="0 0 140 160" xmlns="http://www.w3.org/2000/svg" xmlns:xlink="http://www.w3.org/1999/xlink"><title>Idea</title><defs><path d="M6.995 1.348C4.798 1.348 2.18.886.161.065.148.49.174.886.242 1.295a6.555 6.555 0 0 0 5.257 5.352c.38.067 1.102.109 1.482.109 3.59 0 6.86-2.923 6.86-6.54v-.15C11.11.885 9.19 1.347 6.995 1.347z" id="a"/><path d="M4.233 4.19c-4.485 4.439-4.54 11.702-.136 16.224a6.19 6.19 0 0 1 1.478 2.758c1.91.941 4.24 1.528 6.64 1.528 2.439 0 4.822-.6 6.76-1.584a7.306 7.306 0 0 1 1.681-3.059c4.039-4.504 3.903-11.402-.325-15.73A11.318 11.318 0 0 0 12.212.9a11.31 11.31 0 0 0-7.979 3.29z" id="c"/><path d="M17.687 3.26C20.074 1.502 22.947.564 25.97.564c3.033 0 6.111 1.054 8.665 2.965 2.652 2.119 4.533 5.115 5.19 8.244l.536 2.321c.838 3.652.125 7.728-1.908 10.9l-2.484 3.995 3.773 1.138c4.385 1.399 8.083 4.482 10.17 8.467l.215.549 1.572 4.442c.806 2.243.47 4.669-.915 6.648-1.301 1.896-3.506 3.036-5.896 3.036H7.358A7.296 7.296 0 0 1 1.42 50.23C.103 48.29-.239 45.74.51 43.548l1.736-4.777.16-.17c2.18-4.113 5.796-7.103 10.176-8.4l3.773-1.136-2.714-4.381a14.545 14.545 0 0 1-2.06-10.131l.344-2.048c.696-3.834 2.742-7.11 5.763-9.245zM3.697 48.618c.83 1.16 2.17 1.844 3.66 1.844h37.531c1.5 0 2.817-.67 3.616-1.838.863-1.23 1.07-2.715.578-4.088l-1.654-4.68c-1.753-3.313-4.849-5.88-8.502-7.048l-7.255-2.187 4.436-7.136c1.642-2.564 2.216-5.83 1.546-8.758l-.543-2.345c-.532-2.527-2.049-4.932-4.167-6.624-2.044-1.53-4.532-2.388-6.973-2.388-2.431 0-4.735.752-6.666 2.175-2.44 1.723-4.081 4.363-4.642 7.448l-.34 2.02a11.745 11.745 0 0 0 1.667 8.17l4.658 7.518-7.278 2.194c-3.667 1.086-6.695 3.593-8.531 7.067l-.18.32-1.529 4.206c-.457 1.343-.244 2.935.568 4.13z" id="e"/></defs><g fill="none" fill-rule="evenodd"><path fill="#6DC7C7" d="M.16 39.92v79.533l69.536 39.766 69.537-39.766V39.92L69.696.154z"/><path fill="#6DC7C7" d="M.16 39.922v79.53l69.536 39.766 69.537-39.766v-79.53L69.696.155z"/><path fill="#6DC7C7" d="M.16 39.922v79.531l69.537 39.765 69.536-39.765V39.922L69.697.155z"/><g transform="translate(63.046 56.805)"><mask id="b" fill="#fff"><use xlink:href="#a"/></mask><path fill="#FFF" mask="url(#b)" d="M-2.119 9.054h18.237V-2.233H-2.12z"/></g><g transform="translate(57.483 31.542)"><mask id="d" fill="#fff"><use xlink:href="#c"/></mask><path fill="#FFF" mask="url(#d)" d="M-1.445 26.998h27.317V-1.398H-1.445z"/></g><path d="M48.235 115.8l-1.53 4.208c-.457 1.34-.243 2.932.569 4.127.829 1.162 2.17 1.844 3.66 1.844h37.53c1.499 0 2.816-.669 3.617-1.836.862-1.231 1.069-2.717.576-4.09l-1.654-4.679c-1.752-3.314-4.848-5.88-8.5-7.046l-7.257-2.189 4.437-7.136c1.642-2.563 2.216-5.831 1.545-8.757l-.541-2.346c-.532-2.527-2.05-4.932-4.168-6.624-2.043-1.53-4.533-2.387-6.974-2.387-2.43 0-4.734.752-6.665 2.173-2.44 1.725-4.08 4.364-4.641 7.448l-.34 2.021c-.46 2.848.13 5.752 1.667 8.17l4.657 7.518-7.277 2.194c-3.67 1.085-6.696 3.594-8.533 7.067l-.178.32zm40.23 12.986h-37.53a7.296 7.296 0 0 1-5.937-3.037c-1.319-1.94-1.662-4.49-.913-6.683l1.735-4.776.16-.17c2.18-4.114 5.797-7.103 10.176-8.4l3.774-1.137-2.713-4.382a14.547 14.547 0 0 1-2.061-10.13l.344-2.048c.697-3.835 2.742-7.11 5.763-9.245 2.387-1.758 5.26-2.696 8.282-2.696 3.035 0 6.112 1.053 8.665 2.966 2.654 2.118 4.534 5.113 5.192 8.242l.535 2.321c.838 3.654.125 7.728-1.909 10.9l-2.483 3.995 3.775 1.14c4.382 1.397 8.082 4.481 10.168 8.465l.216.55 1.57 4.443c.805 2.242.472 4.667-.915 6.648-1.298 1.895-3.505 3.034-5.894 3.034z" fill="#FFF"/><g transform="translate(43.576 75.518)"><mask id="f" fill="#fff"><use xlink:href="#e"/></mask><path d="M-908.61 3858.713H793.947v-5708.269H-908.609v5708.27zm-2.78 2.807H796.727v-5713.883H-911.391V3861.52z" fill="#FFF" mask="url(#f)"/><path d="M-3.346 56.76h58.932V-2.928H-3.346v59.69zm-2.782 2.808h64.496V-5.736H-6.128v65.304z" fill="#FFF" mask="url(#f)"/></g></g></svg>