<svg width="140" height="160" viewBox="0 0 140 160" xmlns="http://www.w3.org/2000/svg" xmlns:xlink="http://www.w3.org/1999/xlink"><title>Launch</title><defs><path d="M24.988 10.79C37.464 3.106 47.53.13 57.508.13c6.79 0 13.537 1.377 20.978 3.584-5.433 18.435-12.72 30.64-34.906 41.419-1.864 7.94-6.87 15.139-14.587 19.23L21.198 49.95c-2.705 1.578-5.86 1.94-8.68 1.399-3.753-.764-7.03-3.018-9.024-6.57-3.42-6.355-1.063-14.3 5.154-17.761L.854 12.604c7.744-4.209 16.44-4.618 24.134-1.813zm21.704 17.948a9.304 9.304 0 0 0 1.563.133 9.169 9.169 0 0 0 4.168-.997c4.232-2.328 5.698-7.527 3.494-11.746-1.307-2.28-3.387-3.881-5.975-4.37-2.005-.35-4.032-.09-5.73.864-4.232 2.328-5.699 7.528-3.495 11.745 1.306 2.28 3.388 3.882 5.975 4.37z" id="a"/><path d="M12.927 2.328C7.723 5.658 1.861 15.981 1.634 16.42l-1.02 1.732 1.97-.026c.522-.125 12.03-.486 17.639-3.968 4.744-2.945 6.882-7.863 4.834-11.18-.799-1.3-1.97-2.068-3.598-2.454a8.66 8.66 0 0 0-1.99-.225c-2.091 0-4.379.687-6.542 2.03z" id="c"/></defs><g fill="none" fill-rule="evenodd"><path fill="#26A8CE" d="M.61 40.31v79.204l69.537 39.601 69.536-39.6V40.308L70.147.708z"/><path fill="#26A8CE" d="M.609 40.31v79.205l69.537 39.601 69.537-39.6V40.308L70.146.71z"/><path fill="#26A8CE" d="M.609 40.31v79.206l69.537 39.6 69.536-39.6V40.309L70.146.71z"/><g transform="translate(44.503 50.763)"><mask id="b" fill="#fff"><use xlink:href="#a"/></mask><path fill="#FFF" mask="url(#b)" d="M-5.142 70.379h89.624V-5.885H-5.142z"/></g><g transform="translate(16.689 93.553)"><mask id="d" fill="#fff"><use xlink:href="#c"/></mask><path fill="#FFF" mask="url(#d)" d="M-5.382 24.167h37.211V-5.716H-5.382z"/></g></g></svg>