<?xml version="1.0" encoding="UTF-8"?>
<svg width="140px" height="160px" viewBox="0 0 140 160" version="1.1" xmlns="http://www.w3.org/2000/svg" xmlns:xlink="http://www.w3.org/1999/xlink">
    <!-- Generator: Sketch 42 (36781) - http://www.bohemiancoding.com/sketch -->
    <title>Launch</title>
    <desc>Created with Sketch.</desc>
    <defs>
        <path d="M24.9876821,10.7906977 C37.4643709,3.10511628 47.5304636,0.130232558 57.5075497,0.130232558 C64.2980132,0.130232558 71.0449007,1.50697674 78.4862252,3.7144186 C73.0531126,22.1488372 65.7656954,34.3544186 43.5798675,45.1330233 C41.7162914,53.0725581 36.7096689,60.2716279 28.9929801,64.3627907 L21.1984106,49.9506977 C18.4929801,51.5293023 15.3378808,51.8911628 12.5174834,51.3497674 C8.76529801,50.5860465 5.48781457,48.332093 3.49443709,44.7795349 C0.0732450331,38.4251163 2.43099338,30.4790698 8.64847682,27.0186047 L0.853907285,12.6037209 C8.5984106,8.39534884 17.293245,7.98604651 24.9876821,10.7906977 Z M46.6923179,28.7376744 C47.2059603,28.8251163 47.727947,28.8706977 48.2545695,28.8706977 C49.6666225,28.8706977 51.1018543,28.5488372 52.4230464,27.8744186 C56.6545695,25.5460465 58.1213245,20.3469767 55.9165563,16.1283721 C54.6101987,13.8483721 52.5296689,12.2465116 49.9419868,11.7581395 C47.9365563,11.4074419 45.9098013,11.667907 44.2112583,12.6223256 C39.9797351,14.9497674 38.5129801,20.1497674 40.7168212,24.3674419 C42.0231788,26.6474419 44.1046358,28.2493023 46.6923179,28.7376744 Z" id="path-1"></path>
        <path d="M12.9272848,2.32837209 C7.72317881,5.65860465 1.8607947,15.9813953 1.63364238,16.4204651 L0.613774834,18.1516279 L2.58490066,18.1255814 C3.10596026,18.0009302 14.6137748,17.64 20.2230464,14.1581395 C24.9672848,11.2130233 27.105298,6.29488372 25.0572185,2.97767442 C24.2580132,1.67813953 23.0860927,0.909767442 21.4589404,0.52372093 C20.8247682,0.373953488 20.1572185,0.298604651 19.4683444,0.298604651 C17.3776159,0.298604651 15.0903311,0.986046512 12.9272848,2.32837209 Z" id="path-3"></path>
    </defs>
    <g id="Page-1" stroke="none" stroke-width="1" fill="none" fill-rule="evenodd">
        <g id="Landing-Copy-3" transform="translate(-1161.000000, -1495.000000)">
            <g id="HOW-IT-WORKS-Copy" transform="translate(55.000000, 1255.000000)">
                <g id="Launch" transform="translate(1106.000000, 240.000000)">
                    <polygon id="Fill-1" fill="#26A8CE" points="0.61015894 40.3094884 0.61015894 119.51414 70.1465828 159.11507 139.683007 119.51414 139.683007 40.3094884 70.1465828 0.707627907"></polygon>
                    <polygon id="Fill-2" fill="#26A8CE" points="0.608860927 40.3094884 0.608860927 119.51507 70.1462119 159.116 139.682636 119.51507 139.682636 40.3094884 70.1462119 0.70855814"></polygon>
                    <polygon id="Fill-3" fill="#26A8CE" points="0.608582781 40.3093023 0.608582781 119.515814 70.1459338 159.116744 139.682358 119.515814 139.682358 40.3093023 70.1459338 0.709302326"></polygon>
                    <g id="Group-6" transform="translate(44.503311, 50.762791)">
                        <mask id="mask-2" fill="white">
                            <use xlink:href="#path-1"></use>
                        </mask>
                        <g id="Clip-5"></g>
                        <polygon id="Fill-4" fill="#FFFFFF" mask="url(#mask-2)" points="-5.14198675 70.3786047 84.4821192 70.3786047 84.4821192 -5.88465116 -5.14198675 -5.88465116"></polygon>
                    </g>
                    <g id="Group-9" transform="translate(16.688742, 93.553488)">
                        <mask id="mask-4" fill="white">
                            <use xlink:href="#path-3"></use>
                        </mask>
                        <g id="Clip-8"></g>
                        <polygon id="Fill-7" fill="#FFFFFF" mask="url(#mask-4)" points="-5.38211921 24.1665116 31.8291391 24.1665116 31.8291391 -5.71627907 -5.38211921 -5.71627907"></polygon>
                    </g>
                </g>
            </g>
        </g>
    </g>
</svg>