<?xml version="1.0" encoding="UTF-8"?>
<svg width="140px" height="160px" viewBox="0 0 140 160" version="1.1" xmlns="http://www.w3.org/2000/svg" xmlns:xlink="http://www.w3.org/1999/xlink">
    <!-- Generator: Sketch 42 (36781) - http://www.bohemiancoding.com/sketch -->
    <title>MVP</title>
    <desc>Created with Sketch.</desc>
    <defs>
        <path d="M6.57258278,17.0861176 C5.64913907,16.2230588 4.38635762,15.1472941 2.64887417,13.7967059 L0.260529801,16.9628235 C2.40688742,18.6324706 4.97695364,20.8856471 5.38582781,21.5868235 C5.37655629,21.5698824 5.3181457,21.4588235 5.28198675,21.2743529 L9.0786755,21.4898824 C11.5291391,13.7185882 18.5059603,4.51858824 21.2076821,4.38023529 L21.0139073,0.398117647 C15.68,0.668235294 9.47086093,10.5355294 6.57258278,17.0861176 Z M5.38675497,21.5877647 C5.38675497,21.5877647 5.38675497,21.5877647 5.38582781,21.5868235 C5.38582781,21.5877647 5.38675497,21.5877647 5.38675497,21.5877647 Z" id="path-1"></path>
    </defs>
    <g id="Page-1" stroke="none" stroke-width="1" fill="none" fill-rule="evenodd">
        <g id="Landing-Copy-3" transform="translate(-1003.000000, -1410.000000)">
            <g id="HOW-IT-WORKS-Copy" transform="translate(55.000000, 1255.000000)">
                <g id="MVP" transform="translate(948.000000, 155.000000)">
                    <polygon id="Fill-1" fill="#2CACCC" points="-0.000278145695 39.9998118 -0.000278145695 119.999812 69.5361457 159.999812 139.073497 119.999812 139.073497 39.9998118 69.5361457 -0.000188235294"></polygon>
                    <polygon id="Fill-2" fill="#2CACCC" points="9.27152319e-05 39.9995294 9.27152319e-05 120.000471 69.5365166 159.999529 139.07294 120.000471 139.07294 39.9995294 69.5365166 -0.000470588235"></polygon>
                    <polygon id="Fill-3" fill="#2CACCC" points="-0.000185430464 39.9998118 -0.000185430464 119.999812 69.5362384 159.999812 139.072662 119.999812 139.072662 39.9998118 69.5362384 -0.000188235294"></polygon>
                    <g id="Group-16" transform="translate(26.887417, 42.352941)" fill="#FFFFFF">
                        <path d="M66.7631258,58.8846118 C63.1657748,58.8846118 60.238755,61.8549647 60.238755,65.5067294 C60.238755,69.1584941 63.1657748,72.1297882 66.7631258,72.1297882 C70.3604768,72.1297882 73.2874967,69.1584941 73.2874967,65.5067294 C73.2874967,61.8549647 70.3604768,58.8846118 66.7631258,58.8846118 M66.7631258,74.0064941 C62.1468344,74.0064941 58.3909404,70.1937882 58.3909404,65.5067294 C58.3909404,60.8206118 62.1468344,57.0079059 66.7631258,57.0079059 C71.3803444,57.0079059 75.1353113,60.8206118 75.1353113,65.5067294 C75.1353113,70.1937882 71.3803444,74.0064941 66.7631258,74.0064941" id="Fill-4"></path>
                        <path d="M56.3813377,5.04781176 C56.3813377,7.32169412 54.5650464,9.16545882 52.3250464,9.16545882 C50.0850464,9.16545882 48.268755,7.32169412 48.268755,5.04781176 C48.268755,2.77392941 50.0850464,0.930164706 52.3250464,0.930164706 C54.5650464,0.930164706 56.3813377,2.77392941 56.3813377,5.04781176" id="Fill-6"></path>
                        <path d="M10.8149536,58.8846118 C7.21760265,58.8846118 4.29058278,61.8549647 4.29058278,65.5067294 C4.29058278,69.1584941 7.21760265,72.1297882 10.8149536,72.1297882 C14.4123046,72.1297882 17.3393245,69.1584941 17.3393245,65.5067294 C17.3393245,61.8549647 14.4123046,58.8846118 10.8149536,58.8846118 M10.8149536,74.0064941 C6.1977351,74.0064941 2.44276821,70.1937882 2.44276821,65.5067294 C2.44276821,60.8206118 6.1977351,57.0079059 10.8149536,57.0079059 C15.431245,57.0079059 19.1871391,60.8206118 19.1871391,65.5067294 C19.1871391,70.1937882 15.431245,74.0064941 10.8149536,74.0064941" id="Fill-8"></path>
                        <path d="M21.5509139,62.0224941 C20.0535629,57.2648471 15.7395232,54.0686118 10.8144901,54.0686118 C7.80495364,54.0686118 4.97435762,55.2582588 2.84654305,57.4182588 L0.588927152,55.1264941 C3.31939073,52.3537882 6.95197351,50.8262588 10.8144901,50.8262588 C17.1339603,50.8262588 22.6709139,54.9297882 24.5929007,61.0361412 L21.5509139,62.0224941 Z" id="Fill-10"></path>
                        <path d="M17.9337219,55.7934118 C20.4351788,57.4141176 21.2065695,60.3910588 21.8018013,63.4461176 C27.576106,63.4583529 50.5231258,63.4131765 55.9033907,63.4263529 C56.4930596,60.2527059 58.4020662,57.5534118 61.0277616,55.9270588 C61.2586225,55.6522353 61.4922649,55.1816471 61.7277616,55.1816471 L15.8504106,55.1816471 C16.1600795,55.1816471 17.6500132,55.4988235 17.9337219,55.7934118" id="Fill-12"></path>
                        <path d="M51.0490993,10.8715294 L51.0490993,55.1821176 L54.7577086,55.1821176 L54.7577086,9.45223529 C54.7577086,10.3284706 53.8305563,10.8630588 51.0490993,10.8715294" id="Fill-14"></path>
                    </g>
                    <g id="Group-19" transform="translate(94.569536, 60.235294)">
                        <mask id="mask-2" fill="white">
                            <use xlink:href="#path-1"></use>
                        </mask>
                        <g id="Clip-18"></g>
                        <polygon id="Fill-17" fill="#FFFFFF" mask="url(#mask-2)" points="-2.45695364 24.3472941 23.9260927 24.3472941 23.9260927 -2.36047059 -2.45695364 -2.36047059"></polygon>
                    </g>
                </g>
            </g>
        </g>
    </g>
</svg>