<svg width="140" height="160" viewBox="0 0 140 160" xmlns="http://www.w3.org/2000/svg" xmlns:xlink="http://www.w3.org/1999/xlink"><title>MVP</title><defs><path d="M6.573 17.086c-.924-.863-2.187-1.939-3.924-3.29L.26 16.964c2.146 1.67 4.716 3.923 5.125 4.624a1.137 1.137 0 0 1-.104-.313l3.797.216c2.45-7.771 9.427-16.971 12.129-17.11L21.014.398C15.68.668 9.47 10.536 6.573 17.086zm-1.186 4.502l-.001-.001z" id="a"/></defs><g fill="none" fill-rule="evenodd"><path fill="#2CACCC" d="M0 40v80l69.536 40 69.537-40V40L69.536 0z"/><path fill="#2CACCC" d="M0 40v80l69.537 40 69.536-40V40L69.537 0z"/><path fill="#2CACCC" d="M0 40v80l69.536 40 69.537-40V40L69.536 0z"/><g fill="#FFF"><path d="M93.65 101.238c-3.597 0-6.524 2.97-6.524 6.622 0 3.651 2.927 6.623 6.525 6.623 3.597 0 6.524-2.972 6.524-6.623 0-3.652-2.927-6.622-6.524-6.622m0 15.121c-4.617 0-8.373-3.812-8.373-8.5 0-4.685 3.756-8.498 8.373-8.498 4.617 0 8.372 3.813 8.372 8.499 0 4.687-3.755 8.5-8.372 8.5M83.269 47.4c0 2.275-1.817 4.118-4.057 4.118s-4.056-1.843-4.056-4.117 1.816-4.118 4.056-4.118 4.057 1.844 4.057 4.118M37.702 101.238c-3.597 0-6.524 2.97-6.524 6.622 0 3.651 2.927 6.623 6.524 6.623 3.598 0 6.525-2.972 6.525-6.623 0-3.652-2.927-6.622-6.525-6.622m0 15.121c-4.617 0-8.372-3.812-8.372-8.5 0-4.685 3.755-8.498 8.372-8.498s8.373 3.813 8.373 8.499c0 4.687-3.756 8.5-8.373 8.5"/><path d="M48.438 104.375c-1.497-4.757-5.811-7.953-10.736-7.953-3.01 0-5.84 1.19-7.968 3.35l-2.258-2.293c2.73-2.772 6.363-4.3 10.226-4.3 6.32 0 11.856 4.104 13.778 10.21l-3.042.986z"/><path d="M44.821 98.146c2.502 1.621 3.273 4.598 3.868 7.653 5.775.012 28.722-.033 34.102-.02a11.245 11.245 0 0 1 5.124-7.499c.231-.275.465-.745.7-.745H42.738c.31 0 1.8.317 2.083.611M77.937 53.224v44.311h3.708v-45.73c0 .876-.927 1.411-3.708 1.42"/></g><g transform="translate(94.57 60.235)"><mask id="b" fill="#fff"><use xlink:href="#a"/></mask><path fill="#FFF" mask="url(#b)" d="M-2.457 24.347h26.383V-2.36H-2.457z"/></g></g></svg>