<svg width="140" height="160" viewBox="0 0 140 160" xmlns="http://www.w3.org/2000/svg"><title>Measure</title><g fill="none" fill-rule="evenodd"><path fill="#54BDC7" d="M0 40v80l69.998 40L140 120V40L69.998 0z"/><path fill="#54BDC7" d="M0 40v80l69.998 40L140 120V40L69.998 0z"/><path fill="#54BDC7" d="M0 40v80l69.998 40L140 120V40L69.998 0z"/><path fill="#FFF" d="M54.343 89.98h6.658V70.512h-6.658zM62.996 89.98h6.657V64.472h-6.657zM90.289 89.98h6.657V64.472H90.29zM72.982 89.98h5.99V74.541h-5.99zM81.636 89.98h6.657V58.43h-6.657z"/><path d="M43.727 76.015c-1.13-1.05-2.677-2.36-4.804-4l-2.927 3.851c2.63 2.03 5.778 4.774 6.278 5.626a1.386 1.386 0 0 1-.127-.382l4.65.264c3.002-9.456 11.547-20.65 14.859-20.818l-.24-4.846c-6.532.329-14.137 12.335-17.69 20.305z" fill="#FFF"/><path d="M127.33 117.973c1.478 0 2.744-1.405 2.744-2.903v-3.685H8.741v3.685c0 1.498 2.446 2.903 3.925 2.903H127.33zM20.353 103.855l-7.056 4.706h113.251l-7.056-4.706h-99.14zm-.412-58.74v55.917h99.867V45.115c0-1.416-1.68-3.377-3.084-3.377H23.182c-1.404 0-3.241 1.961-3.241 3.377zm111.882 66.27h.118v3.685c0 2.647-1.994 4.785-4.61 4.785H12.665c-2.618 0-4.858-2.138-4.858-4.785v-3.685h-.025l.025.158v-.158h.213l10.053-8.75v-57.52c0-2.505 2.624-5.26 5.108-5.26h93.542c2.484 0 4.95 2.755 4.95 5.26v57.616l10.149 8.654z" fill="#FFF"/><path d="M26.474 94.443h86.8V48.326h-86.8v46.117zm-1.867 2.824h90.534V46.443H24.607v50.824z" fill="#FFF"/></g></svg>