<?xml version="1.0" encoding="UTF-8"?>
<svg width="140px" height="160px" viewBox="0 0 140 160" version="1.1" xmlns="http://www.w3.org/2000/svg" xmlns:xlink="http://www.w3.org/1999/xlink">
    <!-- Generator: Sketch 42 (36781) - http://www.bohemiancoding.com/sketch -->
    <title>Measure</title>
    <desc>Created with Sketch.</desc>
    <defs></defs>
    <g id="Page-1" stroke="none" stroke-width="1" fill="none" fill-rule="evenodd">
        <g id="Landing-Copy-3" transform="translate(-371.000000, -1409.000000)">
            <g id="HOW-IT-WORKS-Copy" transform="translate(55.000000, 1255.000000)">
                <g id="Measure" transform="translate(316.000000, 154.000000)">
                    <polygon id="Fill-1" fill="#54BDC7" points="0 39.9998118 0 119.999812 69.9981333 159.999812 140 119.999812 140 39.9998118 69.9981333 -0.000188235294"></polygon>
                    <polygon id="Fill-2" fill="#54BDC7" points="-0.000186666667 39.9995294 -0.000186666667 120.000471 69.9979467 159.999529 139.999813 120.000471 139.999813 39.9995294 69.9979467 -0.000470588235"></polygon>
                    <polygon id="Fill-3" fill="#54BDC7" points="9.33333335e-05 39.9998118 9.33333335e-05 119.999812 69.9982267 159.999812 140.000093 119.999812 140.000093 39.9998118 69.9982267 -0.000188235294"></polygon>
                    <polygon id="Fill-4" fill="#FFFFFF" points="54.3433333 89.9802353 61.0008 89.9802353 61.0008 70.512 54.3433333 70.512"></polygon>
                    <polygon id="Fill-5" fill="#FFFFFF" points="62.9962667 89.9802353 69.6528 89.9802353 69.6528 64.4715294 62.9962667 64.4715294"></polygon>
                    <polygon id="Fill-6" fill="#FFFFFF" points="90.2888 89.9802353 96.9462667 89.9802353 96.9462667 64.4715294 90.2888 64.4715294"></polygon>
                    <polygon id="Fill-7" fill="#FFFFFF" points="72.982 89.9802353 78.9721333 89.9802353 78.9721333 74.5411765 72.982 74.5411765"></polygon>
                    <polygon id="Fill-8" fill="#FFFFFF" points="81.6358667 89.9802353 88.2933333 89.9802353 88.2933333 58.4301176 81.6358667 58.4301176"></polygon>
                    <path d="M43.7266667,76.0150588 C42.5973333,74.9656471 41.0498667,73.6555294 38.9228,72.0141176 L35.9958667,75.8663529 C38.626,77.8964706 41.7741333,80.64 42.2744,81.4917647 C42.2632,81.472 42.1922667,81.3364706 42.1474667,81.1096471 L46.7973333,81.3741176 C49.7989333,71.9181176 58.3436,60.7237647 61.656,60.5562353 L61.4161333,55.7101176 C54.8837333,56.0385882 47.2789333,68.0451765 43.7266667,76.0150588 Z" id="Clip-10" fill="#FFFFFF"></path>
                    <path d="M127.330373,117.973082 C128.80784,117.973082 130.074373,116.567906 130.074373,115.070494 L130.074373,111.384847 L8.74104,111.384847 L8.74104,115.070494 C8.74104,116.567906 11.1873067,117.973082 12.6657067,117.973082 L127.330373,117.973082 Z M20.35264,103.855435 L13.29664,108.561318 L126.54824,108.561318 L119.49224,103.855435 L20.35264,103.855435 Z M19.94104,45.1147294 L19.94104,101.031906 L119.807707,101.031906 L119.807707,45.1147294 C119.807707,43.6992 118.127707,41.7377882 116.723973,41.7377882 L23.1815733,41.7377882 C21.77784,41.7377882 19.94104,43.6992 19.94104,45.1147294 Z M131.822507,111.384847 L131.94104,111.384847 L131.94104,115.070494 C131.94104,117.717082 129.94744,119.855435 127.330373,119.855435 L12.6657067,119.855435 C10.0477067,119.855435 7.80770667,117.717082 7.80770667,115.070494 L7.80770667,111.384847 L7.78250667,111.384847 L7.80770667,111.542965 L7.80770667,111.384847 L8.02144,111.384847 L18.0743733,102.634729 L18.0743733,45.1147294 C18.0743733,42.6102588 20.6979733,39.8554353 23.1815733,39.8554353 L116.723973,39.8554353 C119.207573,39.8554353 121.674373,42.6102588 121.674373,45.1147294 L121.674373,102.730729 L131.822507,111.384847 Z" id="Fill-12" fill="#FFFFFF"></path>
                    <path d="M26.474,94.4432941 L113.274,94.4432941 L113.274,48.3256471 L26.474,48.3256471 L26.474,94.4432941 Z M24.6073333,97.2668235 L115.140667,97.2668235 L115.140667,46.4432941 L24.6073333,46.4432941 L24.6073333,97.2668235 Z" id="Fill-14" fill="#FFFFFF"></path>
                </g>
            </g>
        </g>
    </g>
</svg>