<svg width="140" height="160" viewBox="0 0 140 160" xmlns="http://www.w3.org/2000/svg" xmlns:xlink="http://www.w3.org/1999/xlink"><title>Startup</title><defs><path d="M17.687 3.26C20.074 1.502 22.947.564 25.97.564c3.033 0 6.111 1.054 8.665 2.965 2.652 2.119 4.533 5.115 5.19 8.244l.536 2.321c.838 3.654.124 7.728-1.91 10.9l-2.482 3.995 3.773 1.138c4.386 1.399 8.083 4.482 10.17 8.467l.215.549 1.572 4.442c.806 2.243.47 4.669-.915 6.648-1.301 1.896-3.506 3.036-5.896 3.036H7.358A7.296 7.296 0 0 1 1.42 50.23C.103 48.29-.239 45.74.51 43.548l1.737-4.78.157-.166c2.183-4.115 5.8-7.104 10.178-8.4l3.773-1.137-2.716-4.381a14.554 14.554 0 0 1-2.058-10.131l.344-2.048c.696-3.834 2.742-7.11 5.763-9.245zM3.697 48.618c.83 1.16 2.17 1.844 3.66 1.844h37.531c1.5 0 2.817-.67 3.616-1.838.863-1.23 1.07-2.715.578-4.088l-1.654-4.68c-1.753-3.313-4.849-5.88-8.502-7.048l-7.255-2.187 4.434-7.136c1.644-2.564 2.218-5.83 1.548-8.758l-.543-2.345c-.532-2.527-2.049-4.932-4.167-6.624-2.044-1.53-4.532-2.388-6.973-2.388-2.431 0-4.735.752-6.666 2.175-2.44 1.723-4.081 4.363-4.642 7.448l-.34 2.02a11.745 11.745 0 0 0 1.667 8.17l4.658 7.518-7.278 2.194c-3.67 1.086-6.697 3.595-8.533 7.067l-.179.322-1.528 4.204c-.459 1.343-.244 2.935.568 4.13z" id="a"/><path d="M19.251.896L2.898 1.19C1.428 1.215.267 2.2.274 3.38l.102 16.986c.007 1.182 1.18 2.138 2.65 2.113l16.355-.293c1.283-.024 2.331-.787 2.558-1.783a.729.729 0 0 0 .032-.272c.015-.056.015-.096.015-.15l-.101-16.986a.475.475 0 0 0-.017-.15c-.002-.094-.002-.19-.036-.269-.237-.972-1.263-1.679-2.52-1.679h-.06z" id="c"/><path d="M1.48.928L.134.953.24 18.232l1.346-.025c1.168-.02 2.127-.822 2.122-1.783L3.623 2.637c-.005-.95-.95-1.709-2.098-1.709H1.48z" id="e"/><path d="M2.14.476C.975.498.013 1.3.019 2.262l.084 13.785c.006.963.974 1.73 2.143 1.71l1.346-.026L3.486.451 2.141.477z" id="g"/><path d="M12.326.796L2.684.878C1.197.89.24 1.956.254 3.588l.029 3.588 1.777-.017-.03-3.586c-.007-.897.397-.9.668-.903l9.641-.081c.352-.003.443.117.477.162.106.14.167.406.17.729l.028 3.585 1.778-.015-.03-3.584c-.005-.734-.184-1.34-.531-1.8-.3-.397-.869-.87-1.878-.87h-.027z" id="i"/><path d="M6.902 1.91C4.729 1.91 2.139 1.454.14.64c-.013.42.014.813.08 1.216a6.484 6.484 0 0 0 5.202 5.295c.374.068 1.09.11 1.464.11 3.555 0 6.787-2.893 6.787-6.47V.64c-2.702.812-4.6 1.27-6.772 1.27z" id="k"/><path d="M4.229 4.056c-4.437 4.39-4.492 11.577-.135 16.048a6.115 6.115 0 0 1 1.461 2.731c1.891.93 4.197 1.512 6.57 1.512 2.41 0 4.771-.594 6.688-1.568a7.223 7.223 0 0 1 1.663-3.024c3.995-4.458 3.86-11.28-.32-15.562A11.197 11.197 0 0 0 12.122.8c-2.85 0-5.7 1.084-7.894 3.255z" id="m"/></defs><g fill="none" fill-rule="evenodd"><path fill="#49B9C9" d="M.16 40.457v79.668l69.535 39.835 69.537-39.835V40.457L69.695.625z"/><path fill="#49B9C9" d="M.16 40.459v79.667l69.535 39.835 69.538-39.835V40.459L69.695.625z"/><path fill="#49B9C9" d="M.16 40.46v79.666l69.535 39.835 69.538-39.835V40.46L69.695.625z"/><path d="M48.234 118.61l-1.528 4.204c-.46 1.342-.244 2.934.568 4.128.829 1.163 2.17 1.845 3.66 1.845h37.53c1.499 0 2.816-.67 3.617-1.837.862-1.23 1.069-2.717.576-4.089l-1.654-4.68c-1.752-3.313-4.848-5.88-8.5-7.047l-7.257-2.188 4.436-7.136c1.643-2.563 2.217-5.83 1.546-8.757l-.541-2.346c-.532-2.527-2.05-4.932-4.168-6.624-2.043-1.53-4.533-2.387-6.974-2.387-2.43 0-4.734.751-6.665 2.174-2.44 1.723-4.08 4.363-4.641 7.448l-.34 2.02c-.46 2.848.13 5.752 1.666 8.17l4.658 7.517-7.278 2.194c-3.67 1.086-6.697 3.595-8.532 7.068l-.18.322zm40.23 12.984h-37.53a7.297 7.297 0 0 1-5.936-3.038c-1.319-1.94-1.662-4.49-.913-6.682l1.736-4.78.159-.167c2.182-4.116 5.798-7.104 10.176-8.4l3.774-1.137-2.714-4.381a14.554 14.554 0 0 1-2.06-10.13l.344-2.049c.697-3.834 2.742-7.111 5.763-9.244 2.387-1.76 5.26-2.697 8.282-2.697 3.035 0 6.112 1.054 8.665 2.966 2.654 2.118 4.534 5.113 5.192 8.242l.535 2.321c.838 3.655.125 7.729-1.91 10.9l-2.483 3.995 3.776 1.139c4.383 1.398 8.082 4.482 10.168 8.466l.216.55 1.57 4.443c.805 2.241.472 4.667-.915 6.647-1.298 1.897-3.505 3.036-5.894 3.036z" fill="#FFF"/><g transform="translate(43.576 78.325)"><mask id="b" fill="#fff"><use xlink:href="#a"/></mask><path d="M-908.61 3858.713H793.947v-5708.269H-908.609v5708.27zm-2.78 2.807H796.727v-5713.883H-911.391V3861.52z" fill="#FFF" mask="url(#b)"/><path d="M-3.346 56.76h58.932V-2.928H-3.346v59.69zm-2.782 2.808h64.496V-5.736H-6.128v65.304z" fill="#FFF" mask="url(#b)"/></g><g transform="translate(100.132 45.577)"><mask id="d" fill="#fff"><use xlink:href="#c"/></mask><path fill="#FFF" mask="url(#d)" d="M-1.703 24.85l26.227-.582-.56-25.744-26.227.581z"/></g><g transform="translate(123.311 47.448)"><mask id="f" fill="#fff"><use xlink:href="#e"/></mask><path fill="#FFF" mask="url(#f)" d="M-1.889 20.48l8.074-.178L5.714-1.37l-8.074.18z"/></g><g transform="translate(95.497 48.384)"><mask id="h" fill="#fff"><use xlink:href="#g"/></mask><path fill="#FFF" mask="url(#h)" d="M-1.988 20.052l8.074-.179-.471-21.67-8.074.178z"/></g><g transform="translate(103.841 40.898)"><mask id="j" fill="#fff"><use xlink:href="#i"/></mask><path fill="#FFF" mask="url(#j)" d="M-1.84 9.615l18.905-.419-.237-10.83-18.904.42z"/></g><g transform="translate(21.325 64.29)"><mask id="l" fill="#fff"><use xlink:href="#k"/></mask><path fill="#FFF" mask="url(#l)" d="M-2.114 9.532h18.04V-1.634h-18.04z"/></g><g transform="translate(15.762 39.963)"><mask id="n" fill="#fff"><use xlink:href="#m"/></mask><path fill="#FFF" mask="url(#n)" d="M-1.388 26.619h27.025v-28.09H-1.388z"/></g><g fill="#FFF"><path d="M52.246 59.091h32.45v-2.807h-32.45z"/><path d="M79.482 64.26l-1.138-1.234 6.027-5.653-6.027-5.654 1.138-1.235 7.34 6.889z"/></g></g></svg>