<svg width="140" height="160" viewBox="0 0 140 160" xmlns="http://www.w3.org/2000/svg"><title>Team</title><g fill="none" fill-rule="evenodd"><path fill="#3CB4CA" d="M0 40v80l69.536 40 69.537-40V40L69.536 0z"/><path fill="#3CB4CA" d="M0 40v80l69.537 40 69.536-40V40L69.537 0z"/><path fill="#3CB4CA" d="M0 40v80l69.536 40 69.537-40V40L69.536 0z"/><g fill="#FFF"><path d="M44.712 96.666l-8.126 15.926c-.904 1.773-3.074 2.473-4.82 1.554-1.747-.918-2.436-3.12-1.532-4.894l8.125-15.926c.905-1.774 3.075-2.473 4.822-1.554 1.747.918 2.436 3.12 1.531 4.894M32.84 101.678l-8.126 15.926c-.905 1.773-3.074 2.474-4.821 1.555-1.747-.919-2.436-3.121-1.532-4.894l8.126-15.927c.905-1.773 3.074-2.472 4.822-1.554 1.747.919 2.435 3.121 1.53 4.894M52.948 98.781l-8.126 15.926c-.905 1.773-3.074 2.473-4.82 1.554-1.748-.918-2.437-3.12-1.533-4.894l8.127-15.926c.904-1.773 3.073-2.473 4.821-1.554 1.747.918 2.436 3.12 1.53 4.894M59.401 104.39l-8.125 15.925c-.905 1.773-3.075 2.472-4.821 1.555-1.747-.919-2.436-3.121-1.532-4.894l8.126-15.927c.904-1.773 3.074-2.472 4.822-1.554 1.746.919 2.435 3.121 1.53 4.894M63.993 113.648l-8.126 15.925c-.905 1.773-3.074 2.473-4.821 1.555-1.747-.919-2.436-3.12-1.532-4.894l8.127-15.927c.904-1.773 3.073-2.472 4.82-1.554 1.748.919 2.437 3.121 1.532 4.895"/><path d="M31.08 145.468l-8.15-4.286c-5.327-2.8-11.995-12.23-9.081-17.938l5.98-11.724c2.914-5.709 4.586 5.014 14.98-5.287l16.31 8.574c5.326 2.8 7.3 9.763 4.388 15.472L49.527 142c-2.914 5.71-13.12 6.267-18.446 3.467M82.775 113.286c-.427 0-.84.126-1.196.364a2.2 2.2 0 0 0-.933 1.408 2.224 2.224 0 0 0 .315 1.667l9.738 14.965c.065.102.148.19.23.28.054.058.102.12.147.189l5.147 7.908c1.235 1.899 4.073 2.988 7.787 2.988 3.663 0 7.739-1.083 10.14-2.694l7.66-5.136c2.279-1.528 4.448-4.44 5.661-7.602 1.292-3.36 1.274-6.453-.046-8.48l-7.168-11.016c-.045-.072-.096-.138-.145-.205l-.134-.18a1.834 1.834 0 0 1-.177-.318l-9.714-14.925c-.636-.978-2.055-1.283-3.029-.628a2.243 2.243 0 0 0-.62 3.074l4.222 6.485c.253.389.3.88.127 1.312a1.398 1.398 0 0 1-.995.846 8.98 8.98 0 0 0-.983.275 1.38 1.38 0 0 1-1.603-.56l-7.32-11.247c-.635-.978-2.056-1.28-3.03-.629a2.243 2.243 0 0 0-.618 3.075l7.123 10.946c.203.312.275.694.202 1.06-.074.368-.29.69-.597.896l-.933.626a1.38 1.38 0 0 1-1.927-.401l-8.19-12.587c-.634-.978-2.055-1.28-3.028-.627a2.196 2.196 0 0 0-.933 1.408 2.223 2.223 0 0 0 .314 1.665l8.19 12.588c.424.65.247 1.525-.393 1.956l-.933.625a1.388 1.388 0 0 1-1.046.206 1.395 1.395 0 0 1-.881-.606l-7.124-10.945c-.634-.978-2.055-1.28-3.028-.63a2.242 2.242 0 0 0-.618 3.076l9.738 14.965c.08.124.179.243.3.363.282.278.435.665.42 1.063-.027.756-.12 1.472-.277 2.13a1.398 1.398 0 0 1-1.112 1.059 1.384 1.384 0 0 1-1.4-.613l-5.497-8.446a2.177 2.177 0 0 0-1.833-.993m21.236 32.592h-.001c-4.733 0-8.323-1.511-10.109-4.255l-5.083-7.812a4.599 4.599 0 0 1-.44-.563l-9.739-14.966a5.073 5.073 0 0 1-.718-3.788 5.005 5.005 0 0 1 2.125-3.2 4.967 4.967 0 0 1 3.452-.779l-3.384-5.2c-1.51-2.32-.879-5.454 1.406-6.988a4.995 4.995 0 0 1 3.783-.719 5.129 5.129 0 0 1-.074-2.351 5.013 5.013 0 0 1 2.124-3.198c1.77-1.185 4.23-1.033 5.834.262a5.035 5.035 0 0 1 2.136-3.25 4.89 4.89 0 0 1 2.73-.831c1.68 0 3.233.845 4.153 2.26l1.258 1.93a5.02 5.02 0 0 1 2.06-2.915 4.89 4.89 0 0 1 2.73-.832c1.68 0 3.233.844 4.155 2.26l9.739 14.964c.055.089.102.174.144.262l.035.047c.086.116.172.232.252.354l7.168 11.015c1.85 2.846 1.963 6.775.317 11.064-1.412 3.676-3.987 7.098-6.72 8.932l-7.66 5.136c-2.864 1.92-7.446 3.161-11.673 3.161M63.993 39.726L55.867 23.8c-.04-.078-.095-.142-.139-.215-.074-.163-.138-.329-.22-.49l-5.982-11.723c-2.913-5.709-13.119-6.266-18.445-3.466L22.93 12.19c-5.327 2.801-11.995 12.23-9.081 17.939l4.293 8.417c.06.19.126.38.22.562l8.125 15.925c.905 1.774 3.075 2.474 4.822 1.555 1.746-.918 2.435-3.12 1.53-4.894l-4.586-8.99a9.15 9.15 0 0 1 1.708.69c.064.247.153.491.273.726l8.126 15.926c.905 1.774 3.074 2.473 4.82 1.555 1.748-.919 2.436-3.121 1.532-4.894L38.77 45.06l.992-.523 6.835 13.395c.904 1.773 3.074 2.473 4.82 1.555 1.747-.919 2.436-3.12 1.531-4.895l-6.834-13.395.992-.521 5.944 11.648c.904 1.774 3.074 2.473 4.822 1.555 1.746-.919 2.435-3.121 1.53-4.895l-6.107-11.97c.292-.268.567-.552.825-.85l3.522 6.902c.904 1.774 3.073 2.473 4.82 1.554 1.748-.918 2.437-3.12 1.532-4.894M87.244 52.84l9.738-14.965c1.084-1.666.63-3.93-1.013-5.032-1.641-1.1-3.872-.637-4.956 1.03l-9.738 14.964c-1.085 1.667-.629 3.93 1.013 5.031 1.641 1.1 3.87.638 4.956-1.028M85.769 39.873l9.738-14.965c1.084-1.667.63-3.93-1.013-5.031-1.641-1.1-3.872-.638-4.956 1.028L79.8 35.87c-1.085 1.667-.629 3.93 1.013 5.032 1.641 1.1 3.87.638 4.956-1.03M93.077 59.109l9.739-14.965c1.084-1.667.628-3.93-1.013-5.031-1.641-1.1-3.872-.638-4.957 1.028l-9.738 14.965c-1.085 1.667-.628 3.93 1.014 5.032 1.64 1.1 3.87.637 4.955-1.03M101.047 62.096l9.738-14.965c1.084-1.667.628-3.93-1.013-5.031-1.641-1.1-3.872-.639-4.956 1.028l-9.738 14.965c-1.085 1.666-.629 3.93 1.013 5.032 1.641 1.1 3.87.637 4.956-1.03M111.248 61.653l9.739-14.965c1.084-1.667.628-3.93-1.014-5.031-1.64-1.1-3.871-.638-4.955 1.028l-9.739 14.965c-1.085 1.667-.629 3.93 1.013 5.032 1.641 1.1 3.871.638 4.956-1.03"/><path d="M122.577 16.97l-7.66-5.135c-5.004-3.356-16.364-4.67-19.855.693l-7.169 11.016c-3.49 5.365 6.548 1.622 2.753 15.856l15.325 10.277c5.004 3.355 11.955 1.713 15.447-3.652l7.168-11.016c3.49-5.363-1.004-14.682-6.009-18.038"/></g></g></svg>