<?xml version="1.0" encoding="UTF-8"?>
<svg width="140px" height="160px" viewBox="0 0 140 160" version="1.1" xmlns="http://www.w3.org/2000/svg" xmlns:xlink="http://www.w3.org/1999/xlink">
    <!-- Generator: Sketch 42 (36781) - http://www.bohemiancoding.com/sketch -->
    <title>Team</title>
    <desc>Created with Sketch.</desc>
    <defs></defs>
    <g id="Page-1" stroke="none" stroke-width="1" fill="none" fill-rule="evenodd">
        <g id="Landing-Copy-3" transform="translate(-687.000000, -1409.000000)">
            <g id="HOW-IT-WORKS-Copy" transform="translate(55.000000, 1255.000000)">
                <g id="Team" transform="translate(632.000000, 154.000000)">
                    <polygon id="Fill-1" fill="#3CB4CA" points="-0.000278145695 39.9998118 -0.000278145695 119.999812 69.5361457 159.999812 139.073497 119.999812 139.073497 39.9998118 69.5361457 -0.000188235294"></polygon>
                    <polygon id="Fill-2" fill="#3CB4CA" points="9.27152319e-05 39.9995294 9.27152319e-05 120.000471 69.5365166 159.999529 139.07294 120.000471 139.07294 39.9995294 69.5365166 -0.000470588235"></polygon>
                    <polygon id="Fill-3" fill="#3CB4CA" points="-0.000185430464 39.9998118 -0.000185430464 119.999812 69.5362384 159.999812 139.072662 119.999812 139.072662 39.9998118 69.5362384 -0.000188235294"></polygon>
                    <g id="Group-32" transform="translate(12.980132, 5.647059)" fill="#FFFFFF">
                        <path d="M31.7318808,91.0188235 L23.6063179,106.944471 C22.7014172,108.717647 20.5318808,109.417882 18.7851258,108.499294 C17.0383709,107.580706 16.3494967,105.378353 17.2534702,103.605176 L25.3790331,87.6785882 C26.2839338,85.9054118 28.4534702,85.2061176 30.2011523,86.1247059 C31.9479073,87.0432941 32.6367815,89.2456471 31.7318808,91.0188235" id="Fill-4"></path>
                        <path d="M19.8594172,96.0314353 L11.7338543,111.957082 C10.8289536,113.730259 8.65941722,114.430494 6.91266225,113.511906 C5.16590728,112.593318 4.47703311,110.390965 5.38100662,108.617788 L13.5065695,92.6912 C14.4114702,90.9180235 16.5810066,90.2187294 18.3286887,91.1373176 C20.0754437,92.0559059 20.7643179,94.2582588 19.8594172,96.0314353" id="Fill-6"></path>
                        <path d="M39.9676821,93.1339294 L31.8421192,109.059576 C30.9372185,110.832753 28.7676821,111.532988 27.0209272,110.6144 L27.0209272,110.6144 C25.2741722,109.695812 24.585298,107.493459 25.4892715,105.720282 L33.6157616,89.7936941 C34.5197351,88.0205176 36.6892715,87.3212235 38.4369536,88.2398118 C40.1837086,89.1584 40.8725828,91.3607529 39.9676821,93.1339294" id="Fill-8"></path>
                        <path d="M46.4212185,98.7422118 L38.2956556,114.667859 C37.390755,116.441035 35.2212185,117.140329 33.4744636,116.222682 C31.7277086,115.304094 31.0388344,113.101741 31.9428079,111.328565 L40.069298,95.4019765 C40.9732715,93.6288 43.1428079,92.9295059 44.8904901,93.8480941 C46.637245,94.7666824 47.3261192,96.9690353 46.4212185,98.7422118" id="Fill-10"></path>
                        <path d="M51.0124768,108.000471 L42.8869139,123.926118 C41.9820132,125.699294 39.8124768,126.398588 38.0657219,125.480941 C36.3189669,124.562353 35.6300927,122.36 36.5340662,120.586824 L44.6605563,104.660235 C45.5645298,102.887059 47.7340662,102.187765 49.4817483,103.106353 C51.2285033,104.024941 51.9173775,106.227294 51.0124768,108.000471" id="Fill-12"></path>
                        <path d="M18.1004238,139.820518 L9.94982781,135.535341 C4.62333775,132.7344 -2.04474172,123.304753 0.868370861,117.596518 L6.84943046,105.873224 C9.76254305,100.164047 11.4351258,110.886871 21.8294305,100.585694 L38.1389669,109.159812 C43.4645298,111.960753 45.4393642,118.922635 42.5271788,124.631812 L36.5461192,136.354165 C33.6330066,142.063341 23.4269139,142.620518 18.1004238,139.820518" id="Fill-14"></path>
                        <path d="M69.7950066,107.639059 C69.3675894,107.639059 68.9540795,107.765176 68.5989801,108.003294 C68.1150066,108.327059 67.7830861,108.827765 67.6662649,109.411294 C67.5485166,109.994824 67.6597748,110.586824 67.9805695,111.078118 L77.7184503,126.042824 C77.7842781,126.145412 77.8667947,126.233882 77.9483841,126.322353 C78.0030861,126.380706 78.051298,126.443765 78.0958013,126.511529 L83.2424238,134.420235 C84.4773907,136.318588 87.315404,137.407529 91.0295762,137.407529 C94.692755,137.407529 98.7685166,136.325176 101.170768,134.713882 L108.829974,129.577882 C111.108914,128.050353 113.277523,125.137412 114.491166,121.976 C115.782689,118.615059 115.765073,115.523294 114.444808,113.495059 L107.276993,102.479529 C107.231563,102.408 107.18057,102.342118 107.13143,102.275294 L106.997921,102.094588 C106.967325,102.051294 106.938583,102.006118 106.911695,101.96 C106.878318,101.899765 106.848649,101.838588 106.820834,101.776471 L97.1070596,86.8522353 C96.4710331,85.8743529 95.0515629,85.5694118 94.078053,86.2235294 C93.0720927,86.8974118 92.7948742,88.2771765 93.4587152,89.2983529 L97.6800397,95.7830588 C97.9331523,96.1717647 97.9804371,96.6630588 97.8070596,97.0950588 C97.632755,97.5261176 97.2609669,97.8432941 96.8122252,97.9411765 C96.4812318,98.0136471 96.1502384,98.1058824 95.8285166,98.216 C95.2332848,98.4211765 94.5740795,98.1896471 94.2254702,97.656 L86.9056026,86.4089412 C86.2705033,85.4310588 84.850106,85.128 83.876596,85.7802353 C82.8715629,86.4550588 82.5934172,87.8348235 83.2581854,88.8550588 L90.3805695,99.8009412 C90.5836159,100.113412 90.6559338,100.494588 90.5826887,100.861647 C90.5085166,101.228706 90.2934172,101.550588 89.9856026,101.756706 L89.0528874,102.382588 C88.4140795,102.810824 87.5499735,102.632941 87.1262649,101.981647 L78.9358013,89.3952941 C78.3016291,88.4174118 76.8812318,88.1143529 75.9077219,88.7675294 C75.4228212,89.0912941 75.0918278,89.592 74.9750066,90.1755294 C74.8572583,90.7581176 74.9685166,91.3501176 75.2893113,91.8414118 L83.4797748,104.428706 C83.9025563,105.079059 83.7254702,105.954353 83.0857351,106.384471 L82.1530199,107.010353 C81.8452053,107.216471 81.4678543,107.288 81.1071921,107.215529 C80.7465298,107.140235 80.4294437,106.922824 80.2254702,106.610353 L73.1021589,95.6644706 C72.4679868,94.6865882 71.0466623,94.3844706 70.0740795,95.0357647 C69.0681192,95.7105882 68.7909007,97.0903529 69.4556689,98.1105882 L79.1935497,113.076235 C79.2742119,113.199529 79.3724901,113.319059 79.493947,113.438588 C79.7758013,113.717176 79.9287815,114.104 79.913947,114.502118 C79.8870596,115.257882 79.7934172,115.974118 79.6367285,116.632 C79.5078543,117.177882 79.0702384,117.593882 78.5250728,117.690824 C77.9826887,117.788706 77.4291788,117.546824 77.1241457,117.078118 L71.6279868,108.632 C71.2237483,108.009882 70.5385828,107.639059 69.7950066,107.639059 M91.0305033,140.231059 L91.0295762,140.231059 C86.2964636,140.231059 82.7065298,138.719529 80.9208344,135.976 L75.8381854,128.164235 C75.701894,128.012706 75.543351,127.823529 75.3987152,127.601412 L65.6589801,112.634824 C64.9302384,111.513882 64.6752715,110.168941 64.9413642,108.846588 C65.207457,107.523294 65.9612318,106.387294 67.0654702,105.647529 C68.080702,104.967059 69.3369934,104.695059 70.5181854,104.868235 L67.1340795,99.6672941 C65.6246755,97.3482353 66.2551391,94.2141176 68.5396424,92.68 C69.651298,91.9364706 71.0550066,91.6861176 72.323351,91.9609412 C72.1184503,91.2051765 72.0906358,90.4032941 72.2491788,89.6098824 C72.5161987,88.2875294 73.2699735,87.1515294 74.3732848,86.4117647 C76.1432185,85.2268235 78.6020265,85.3792941 80.2069272,86.6743529 C80.4526225,85.3896471 81.1850728,84.2009412 82.3430861,83.4244706 C83.1552715,82.8804706 84.0991126,82.5924706 85.0726225,82.5924706 C86.7526225,82.5924706 88.3056026,83.4376471 89.2262649,84.8522353 L90.4834834,86.7835294 C90.7848079,85.6277647 91.4875894,84.5764706 92.544543,83.8677647 C93.3567285,83.3237647 94.3005695,83.0357647 95.2731523,83.0357647 C96.9540795,83.0357647 98.5070596,83.88 99.428649,85.2955294 L109.167457,100.260235 C109.223086,100.348706 109.269444,100.434353 109.312093,100.521882 L109.346397,100.568941 C109.432623,100.684706 109.518848,100.800471 109.598583,100.922824 L116.766397,111.938353 C118.616993,114.783529 118.730106,118.712941 117.083483,123.001882 C115.67143,126.678118 113.096728,130.100235 110.363483,131.933647 L102.704278,137.069647 C99.8403046,138.990588 95.2583179,140.231059 91.0305033,140.231059" id="Fill-16"></path>
                        <path d="M51.0124768,34.0790588 L42.8869139,18.1534118 C42.8470464,18.0752941 42.7923444,18.0112941 42.7478411,17.9378824 C42.6736689,17.7750588 42.6096954,17.6094118 42.5271788,17.4475294 L36.5461192,5.72517647 C33.6330066,0.016 23.4269139,-0.541176471 18.1004238,2.25882353 L9.94982781,6.544 C4.62333775,9.34494118 -2.04474172,18.7745882 0.868370861,24.4828235 L5.16201325,32.8997647 C5.22227815,33.0898824 5.28810596,33.2790588 5.38174834,33.4616471 L13.5073113,49.3872941 C14.4122119,51.1614118 16.5817483,51.8607059 18.3285033,50.9421176 C20.0752583,50.0235294 20.7641325,47.8211765 19.8592318,46.048 L15.2726093,37.0588235 C15.8001589,37.2084706 16.3675762,37.4305882 16.9804238,37.7477647 C17.0453245,37.9952941 17.133404,38.2390588 17.2539338,38.4743529 L25.3794967,54.4 C26.2843974,56.1741176 28.4539338,56.8734118 30.2006887,55.9548235 C31.9474437,55.0362353 32.6363179,52.8338824 31.7323444,51.0607059 L25.7883709,39.4127059 L26.781351,38.8903529 L33.6153907,52.2851765 C34.5202914,54.0583529 36.6898278,54.7576471 38.4365828,53.84 L38.4365828,53.84 C40.1833377,52.9214118 40.8722119,50.7190588 39.9673113,48.9449412 L33.1332715,35.5501176 L34.1253245,35.0287059 L40.069298,46.6767059 C40.9732715,48.4508235 43.1428079,49.1501176 44.8904901,48.2315294 C46.637245,47.3129412 47.3261192,45.1105882 46.4212185,43.3374118 L40.3140662,31.3675294 C40.6061192,31.0992941 40.8805563,30.8150588 41.1392318,30.5176471 L44.6605563,37.4192941 C45.5645298,39.1924706 47.7340662,39.8917647 49.4817483,38.9731765 L49.4817483,38.9731765 C51.2285033,38.0545882 51.9173775,35.8522353 51.0124768,34.0790588" id="Fill-18"></path>
                        <path d="M74.2635099,47.1925647 L84.0023179,32.2278588 C85.0861589,30.5619765 84.6309272,28.2975059 82.9889404,27.1963294 C81.3478808,26.0960941 79.1171523,26.5591529 78.0333113,28.2250353 L68.2945033,43.1897412 C67.2097351,44.8565647 67.665894,47.1200941 69.3078808,48.2212706 C70.9489404,49.3215059 73.1787417,48.8593882 74.2635099,47.1925647" id="Fill-20"></path>
                        <path d="M72.7885033,34.2258824 L82.5273113,19.2611765 C83.6111523,17.5943529 83.1559205,15.3308235 81.5139338,14.2296471 C79.8728742,13.1294118 77.6421457,13.5915294 76.5583046,15.2583529 L66.8194967,30.2230588 C65.7347285,31.8898824 66.1908874,34.1534118 67.8328742,35.2545882 C69.4739338,36.3548235 71.7037351,35.8927059 72.7885033,34.2258824" id="Fill-22"></path>
                        <path d="M80.0970596,53.4618353 L89.8358675,38.4971294 C90.9197086,36.8303059 90.4635497,34.5667765 88.8224901,33.4656 L88.8224901,33.4656 C87.1814305,32.3653647 84.950702,32.8274824 83.8659338,34.4943059 L74.128053,49.4590118 C73.0432848,51.1258353 73.4994437,53.3893647 75.1414305,54.4905412 C76.7824901,55.5907765 79.0122914,55.1277176 80.0970596,53.4618353" id="Fill-24"></path>
                        <path d="M88.0664901,56.4487529 L97.805298,41.4840471 C98.8891391,39.8172235 98.4329801,37.5536941 96.7919205,36.4525176 C95.1508609,35.3522824 92.9201325,35.8144 91.8362914,37.4812235 L82.0974834,52.4459294 C81.0127152,54.1118118 81.4688742,56.3762824 83.1108609,57.4774588 C84.7519205,58.5776941 86.9817219,58.1146353 88.0664901,56.4487529" id="Fill-26"></path>
                        <path d="M98.2678543,56.0057412 L108.006662,41.0410353 C109.090503,39.3742118 108.635272,37.1106824 106.993285,36.0095059 C105.352225,34.9092706 103.121497,35.3723294 102.037656,37.0382118 L92.2988477,52.0029176 C91.2140795,53.6697412 91.6702384,55.9332706 93.3122252,57.0344471 C94.9532848,58.1346824 97.1830861,57.6725647 98.2678543,56.0057412" id="Fill-28"></path>
                        <path d="M109.596821,11.3237647 L101.937616,6.18776471 C96.9328477,2.83152941 85.5724503,1.51764706 82.0817219,6.88141176 L74.9129801,17.8969412 C71.4222517,23.2616471 81.4605298,19.5185882 77.6656954,33.7529412 L92.990596,44.0296471 C97.9953642,47.3849412 104.946225,45.7425882 108.437881,40.3778824 L115.605695,29.3623529 C119.096424,23.9985882 114.601589,14.68 109.596821,11.3237647" id="Fill-30"></path>
                    </g>
                </g>
            </g>
        </g>
    </g>
</svg>