<?xml version="1.0" encoding="UTF-8"?>
<svg width="1366px" height="374px" viewBox="0 0 1366 374" version="1.1" xmlns="http://www.w3.org/2000/svg" xmlns:xlink="http://www.w3.org/1999/xlink">
    <!-- Generator: Sketch 42 (36781) - http://www.bohemiancoding.com/sketch -->
    <title>Group 5</title>
    <desc>Created with Sketch.</desc>
    <defs></defs>
    <g id="Page-1" stroke="none" stroke-width="1" fill="none" fill-rule="evenodd">
        <g id="Landing-Copy-2" transform="translate(0.000000, -3835.000000)">
            <g id="Group-5" transform="translate(-38.000000, 3835.000000)">
                <g id="Group-Copy-2" transform="translate(102.000000, 217.500000) scale(-1, 1) translate(-102.000000, -217.500000) translate(0.000000, 61.000000)">
                    <polygon id="Fill-560" fill="#F0F0F0" transform="translate(158.252869, 273.362014) scale(1, -1) translate(-158.252869, -273.362014) " points="135.355442 253.836832 135.355442 292.887195 169.194702 312.412377 181.150296 305.513745 181.150296 241.210282 169.194702 234.311651"></polygon>
                    <polygon id="Fill-562" fill="#E6BB83" transform="translate(101.516682, 273.362114) scale(1, -1) translate(-101.516682, -273.362114) " points="135.355442 292.887295 101.516183 312.412476 67.6779208 292.887295 67.6779208 253.836932 101.516183 234.311751 135.355442 253.836932"></polygon>
                    <polygon id="Fill-570" fill="#EBEBEB" transform="translate(135.355642, 214.775002) scale(1, -1) translate(-135.355642, -214.775002) " points="169.194403 234.300183 135.355143 253.825365 101.516881 234.300183 101.516881 195.24982 135.355143 175.724639 169.194403 195.24982"></polygon>
                    <polygon id="Fill-572" fill="#EBEBEB" transform="translate(67.677721, 214.775002) scale(1, -1) translate(-67.677721, -214.775002) " points="101.516482 234.300183 67.6772223 253.825365 33.8389604 234.300183 33.8389604 195.24982 67.6772223 175.724639 101.516482 195.24982"></polygon>
                    <polygon id="Fill-582" fill="#F6F6F6" transform="translate(169.194503, 156.187989) scale(1, -1) translate(-169.194503, -156.187989) " points="203.033264 175.713171 169.194004 195.238352 135.355742 175.713171 135.355742 136.662808 169.194004 117.137627 203.033264 136.662808"></polygon>
                    <polygon id="Fill-585" fill="#F6F6F6" transform="translate(101.516682, 156.187890) scale(1, -1) translate(-101.516682, -156.187890) " points="135.355442 175.713071 101.516183 195.238253 67.6779208 175.713071 67.6779208 136.662708 101.516183 117.137527 135.355442 136.662708"></polygon>
                    <polygon id="Fill-587" fill="#EBEBEB" transform="translate(33.838761, 156.187890) scale(1, -1) translate(-33.838761, -156.187890) " points="67.6775217 175.713071 33.8382619 195.238253 0 175.713071 0 136.662708 33.8382619 117.137527 67.6775217 136.662708"></polygon>
                    <polygon id="Fill-593" fill="#00B1B0" transform="translate(135.355642, 97.637575) scale(1, -1) translate(-135.355642, -97.637575) " points="169.194403 117.162756 135.355143 136.687937 101.516881 117.162756 101.516881 78.1123931 135.355143 58.5872116 169.194403 78.1123931"></polygon>
                    <polygon id="Fill-595" fill="#FAFAFA" transform="translate(67.677721, 97.637575) scale(1, -1) translate(-67.677721, -97.637575) " points="101.516482 117.162756 67.6772223 136.687937 33.8389604 117.162756 33.8389604 78.1123931 67.6772223 58.5872116 101.516482 78.1123931"></polygon>
                    <polygon id="Fill-609" fill="#F0F0F0" transform="translate(101.516682, 39.050363) scale(1, -1) translate(-101.516682, -39.050363) " points="135.355442 58.5755444 101.516183 78.1007258 67.6779208 58.5755444 67.6779208 19.5251815 101.516183 0 135.355442 19.5251815"></polygon>
                </g>
                <g id="Group-Copy-3" transform="translate(1252.000000, 0.000000)">
                    <polygon id="Fill-560" fill="#F0F0F0" transform="translate(158.252869, 273.362014) scale(1, -1) translate(-158.252869, -273.362014) " points="135.355442 253.836832 135.355442 292.887195 169.194702 312.412377 181.150296 305.513745 181.150296 241.210282 169.194702 234.311651"></polygon>
                    <polygon id="Fill-562" fill="#F6F6F6" transform="translate(101.516682, 273.362114) scale(1, -1) translate(-101.516682, -273.362114) " points="135.355442 292.887295 101.516183 312.412476 67.6779208 292.887295 67.6779208 253.836932 101.516183 234.311751 135.355442 253.836932"></polygon>
                    <polygon id="Fill-570" fill="#F6F6F6" transform="translate(135.355642, 214.775002) scale(1, -1) translate(-135.355642, -214.775002) " points="169.194403 234.300183 135.355143 253.825365 101.516881 234.300183 101.516881 195.24982 135.355143 175.724639 169.194403 195.24982"></polygon>
                    <polygon id="Fill-572" fill="#F48365" transform="translate(67.677721, 214.775002) scale(1, -1) translate(-67.677721, -214.775002) " points="101.516482 234.300183 67.6772223 253.825365 33.8389604 234.300183 33.8389604 195.24982 67.6772223 175.724639 101.516482 195.24982"></polygon>
                    <polygon id="Fill-582" fill="#F6F6F6" transform="translate(169.194503, 156.187989) scale(1, -1) translate(-169.194503, -156.187989) " points="203.033264 175.713171 169.194004 195.238352 135.355742 175.713171 135.355742 136.662808 169.194004 117.137627 203.033264 136.662808"></polygon>
                    <polygon id="Fill-585" fill="#EBEBEB" transform="translate(101.516682, 156.187890) scale(1, -1) translate(-101.516682, -156.187890) " points="135.355442 175.713071 101.516183 195.238253 67.6779208 175.713071 67.6779208 136.662708 101.516183 117.137527 135.355442 136.662708"></polygon>
                    <polygon id="Fill-587" fill="#F6F6F6" transform="translate(33.838761, 156.187890) scale(1, -1) translate(-33.838761, -156.187890) " points="67.6775217 175.713071 33.8382619 195.238253 0 175.713071 0 136.662708 33.8382619 117.137527 67.6775217 136.662708"></polygon>
                    <polygon id="Fill-593" fill="#F6F6F6" transform="translate(135.355642, 97.637575) scale(1, -1) translate(-135.355642, -97.637575) " points="169.194403 117.162756 135.355143 136.687937 101.516881 117.162756 101.516881 78.1123931 135.355143 58.5872116 169.194403 78.1123931"></polygon>
                    <polygon id="Fill-595" fill="#F6F6F6" transform="translate(67.677721, 97.637575) scale(1, -1) translate(-67.677721, -97.637575) " points="101.516482 117.162756 67.6772223 136.687937 33.8389604 117.162756 33.8389604 78.1123931 67.6772223 58.5872116 101.516482 78.1123931"></polygon>
                    <polygon id="Fill-609" fill="#00A8CB" transform="translate(101.516682, 39.050363) scale(1, -1) translate(-101.516682, -39.050363) " points="135.355442 58.5755444 101.516183 78.1007258 67.6779208 58.5755444 67.6779208 19.5251815 101.516183 0 135.355442 19.5251815"></polygon>
                </g>
            </g>
        </g>
    </g>
</svg>