<svg width="1366" height="452" viewBox="0 0 1366 452" xmlns="http://www.w3.org/2000/svg"><title>Group 4</title><g fill="none" fill-rule="evenodd"><path fill="#F0F0F0" d="M30.645 431.887v-39.05l-33.84-19.525-11.955 6.898v64.304l11.955 6.898z"/><path fill="#F6F6F6" d="M30.645 392.837l33.839-19.525 33.838 19.525v39.05l-33.838 19.525-33.84-19.525z"/><path fill="#EBEBEB" d="M-3.194 334.25l33.839-19.525 33.838 19.525v39.05l-33.838 19.525-33.84-19.525z"/><path fill="#68C7C5" d="M64.484 334.25l33.839-19.525 33.838 19.525v39.05l-33.838 19.525-33.84-19.525z"/><path fill="#F6F6F6" d="M-37.033 275.663l33.839-19.525 33.838 19.525v39.05l-33.838 19.525-33.84-19.525zM30.645 275.663l33.839-19.525 33.838 19.525v39.05l-33.838 19.525-33.84-19.525z"/><path fill="#EBEBEB" d="M98.322 275.663l33.84-19.525L166 275.663v39.05l-33.838 19.525-33.84-19.525z"/><path fill="#F6F6F6" d="M-3.194 217.112l33.839-19.525 33.838 19.525v39.05l-33.838 19.526-33.84-19.525z"/><path fill="#FAFAFA" d="M64.484 217.112l33.839-19.525 33.838 19.525v39.05l-33.838 19.526-33.84-19.525z"/><path fill="#F0F0F0" d="M30.645 158.525L64.484 139l33.838 19.525v39.05l-33.838 19.526-33.84-19.525z"/><g><path fill="#F0F0F0" d="M1349.355 292.887v-39.05l33.84-19.525 11.955 6.898v64.304l-11.955 6.898z"/><path fill="#F6F6F6" d="M1349.355 253.837l-33.839-19.525-33.838 19.525v39.05l33.838 19.525 33.84-19.525zM1383.194 195.25l-33.839-19.525-33.838 19.525v39.05l33.838 19.525 33.84-19.525z"/><path fill="#EBEBEB" d="M1315.516 195.25l-33.839-19.525-33.838 19.525v39.05l33.838 19.525 33.84-19.525z"/><path fill="#F6F6F6" d="M1417.033 136.663l-33.839-19.525-33.838 19.525v39.05l33.838 19.525 33.84-19.525z"/><path fill="#E6BB83" d="M1349.355 136.663l-33.839-19.525-33.838 19.525v39.05l33.838 19.525 33.84-19.525z"/><path fill="#F6F6F6" d="M1281.678 136.663l-33.84-19.525L1214 136.663v39.05l33.838 19.525 33.84-19.525zM1383.194 78.112l-33.839-19.525-33.838 19.525v39.05l33.838 19.526 33.84-19.525z"/><path fill="#F6F6F6" d="M1315.516 78.112l-33.839-19.525-33.838 19.525v39.05l33.838 19.526 33.84-19.525z"/><path fill="#EBEBEB" d="M1349.355 19.525L1315.516 0l-33.838 19.525v39.05l33.838 19.526 33.84-19.525z"/></g></g></svg>