<svg width="1366" height="1014" viewBox="0 0 1366 1014" xmlns="http://www.w3.org/2000/svg"><title>HEXAGONOS</title><g fill="none" fill-rule="evenodd"><path fill="#FFF" d="M.89 1013.094h1363.987V435.332l-555.61 32.516-36.29 20.509-33.869-20.509-273.47-40.07-96.278-19.12-34.965 19.12-166.274 7.554-41.013-7.553-36.431-17.718L.89 355.136z"/><path fill="#F0F0F0" d="M61.47 1012.991l-31.134-17.963v-39.052l33.838-19.525 33.84 19.525v39.052l-31.135 17.963z"/><path fill="#F6F6F6" d="M-1.48 1012.991v-75.373l31.816 18.358v39.052L-.798 1012.99zM267.208 897.39l-33.84-19.526-33.837 19.525v39.05l33.838 19.526 33.84-19.525z"/><path fill="#FAFAFA" d="M-1.48 937.607v-41.384l31.816-18.36 33.838 19.527v39.05l-33.838 19.525z"/><path fill="#F0F0F0" d="M470.242 897.39l-33.84-19.526-33.838 19.525v39.05l33.838 19.526 33.84-19.525z"/><path fill="#F6F6F6" d="M233.37 838.802l-33.84-19.525-33.838 19.525v39.05l33.838 19.526 33.84-19.525zM368.725 838.802l-33.84-19.525-33.838 19.525v39.05l33.839 19.526 33.839-19.525z"/><path fill="#FAFAFA" d="M436.403 838.802l-33.84-19.525-33.838 19.525v39.05l33.838 19.526 33.84-19.525z"/><path fill="#F6F6F6" d="M98.013 838.802l-33.839-19.525-33.838 19.525v39.05l33.838 19.526 33.84-19.525zM-1.48 820.444l31.816 18.358v39.05L-1.48 896.21zM199.53 780.252l-33.839-19.525-33.838 19.525v39.05l33.838 19.525 33.84-19.525z"/><path fill="#F6F6F6" d="M131.852 780.252l-33.839-19.525-33.838 19.525v39.05l33.838 19.525 33.84-19.525z"/><path fill="#F0F0F0" d="M267.208 780.252l-33.84-19.525-33.837 19.525v39.05l33.838 19.525 33.84-19.525z"/><path fill="#68C7C5" d="M334.886 780.252l-33.84-19.525-33.838 19.525v39.05l33.839 19.525 33.839-19.525z"/><path fill="#F6F6F6" d="M402.564 780.252l-33.84-19.525-33.838 19.525v39.05l33.839 19.525 33.839-19.525z"/><path fill="#FAFAFA" d="M-1.48 820.47v-41.384l31.816-18.359 33.838 19.525v39.05l-33.838 19.525z"/><path fill="#EBEBEB" d="M470.242 780.252l-33.84-19.525-33.838 19.525v39.05l33.838 19.525 33.84-19.525z"/><path fill="#F6F6F6" d="M233.37 721.665l-33.84-19.525-33.838 19.525v39.05l33.838 19.525 33.84-19.525zM301.047 721.665l-33.84-19.525-33.837 19.525v39.05l33.838 19.525 33.839-19.525z"/><path fill="#FAFAFA" d="M368.725 721.665l-33.84-19.525-33.838 19.525v39.05l33.839 19.525 33.839-19.525z"/><path fill="#ECECEC" d="M436.678 721.525L402.838 702 369 721.525v39.05l33.838 19.526 33.84-19.525zM30.678 252.525L-3.162 233-37 252.525v39.05l33.838 19.526 33.84-19.525z"/><path fill="#F0F0F0" d="M165.433 721.456l-33.84-19.525-33.837 19.525v39.05l33.838 19.525 33.839-19.525z"/><path fill="#E6BB83" d="M199.53 662.314l-33.839-19.526-33.838 19.526v39.05l33.838 19.525 33.84-19.525z"/><path fill="#F6F6F6" d="M98.013 721.665L64.174 702.14l-33.838 19.525v39.05l33.838 19.525 33.84-19.525z"/><path fill="#ECECEC" d="M-1.48 703.306l31.816 18.359v39.05L-1.48 779.073z"/><path fill="#E6BA83" d="M808.38 897.333l-33.839-19.525-33.838 19.525v39.05l33.838 19.526 33.84-19.525z"/><path fill="#F6F6F6" d="M673.025 897.333l-33.84-19.525-33.838 19.525v39.05l33.839 19.526 33.839-19.525zM774.542 838.783l-33.84-19.525-33.838 19.525v39.05l33.838 19.525 33.84-19.525z"/><path fill="#F6F6F6" d="M706.864 838.783l-33.84-19.525-33.838 19.525v39.05l33.838 19.525 33.84-19.525z"/><path fill="#ECECEC" d="M909.897 838.783l-33.84-19.525-33.837 19.525v39.05l33.838 19.525 33.84-19.525z"/><path fill="#FAFAFA" d="M639.186 838.783l-33.84-19.525-33.838 19.525v39.05l33.839 19.525 33.839-19.525z"/><path fill="#F6F6F6" d="M503.845 838.783l-33.84-19.525-33.837 19.525v39.05l33.838 19.525 33.84-19.525zM808.38 780.196l-33.839-19.525-33.838 19.525v39.05l33.838 19.525 33.84-19.525zM876.058 780.196L842.22 760.67l-33.838 19.525v39.05l33.838 19.525 33.84-19.525z"/><path fill="#FAFAFA" d="M943.736 780.196l-33.84-19.525-33.837 19.525v39.05l33.838 19.525 33.84-19.525z"/><path fill="#ECECEC" d="M1011.414 780.196l-33.84-19.525-33.838 19.525v39.05l33.839 19.525 33.839-19.525z"/><path fill="#F0F0F0" d="M740.703 780.196l-33.84-19.525-33.838 19.525v39.05l33.838 19.525 33.84-19.525z"/><path fill="#F6F6F6" d="M673.025 780.196l-33.84-19.525-33.838 19.525v39.05l33.839 19.525 33.839-19.525z"/><path fill="#ECECEC" d="M605.347 780.196l-33.84-19.525-33.838 19.525v39.05l33.839 19.525 33.839-19.525z"/><path fill="#F6F6F6" d="M131.852 662.314l-33.839-19.526-33.838 19.526v39.05l33.838 19.525 33.84-19.525zM267.208 662.314l-33.84-19.526-33.837 19.526v39.05l33.838 19.525 33.84-19.525z"/><path fill="#FAFAFA" d="M402.564 662.314l-33.84-19.526-33.838 19.526v39.05l33.839 19.525 33.839-19.525z"/><path fill="#F6F6F6" d="M-1.48 702.53v-41.383l31.816-18.36 33.838 19.527v39.05l-33.838 19.525z"/><path fill="#F0F0F0" d="M470.242 662.314l-33.84-19.526-33.838 19.526v39.05l33.838 19.525 33.84-19.525zM233.37 603.726l-33.84-19.525-33.838 19.525v39.05l33.838 19.526 33.84-19.525z"/><path fill="#F6F6F6" d="M301.047 603.726l-33.84-19.525-33.837 19.525v39.05l33.838 19.526 33.839-19.525z"/><path fill="#F6F6F6" d="M368.725 603.726l-33.84-19.525-33.838 19.525v39.05l33.839 19.526 33.839-19.525z"/><path fill="#FAFAFA" d="M436.403 603.726l-33.84-19.525-33.838 19.525v39.05l33.838 19.526 33.84-19.525z"/><path fill="#F6F6F6" d="M165.691 603.726l-33.839-19.525-33.838 19.525v39.05l33.838 19.526 33.84-19.525z"/><path fill="#F0F0F0" d="M98.013 603.726l-33.839-19.525-33.838 19.525v39.05l33.838 19.526 33.84-19.525z"/><path fill="#F6F6F6" d="M-1.48 585.368l31.816 18.358v39.05L-1.48 661.135z"/><path fill="#FAFAFA" d="M131.852 545.14l-33.839-19.526-33.838 19.525v39.05l33.838 19.526 33.84-19.525z"/><path fill="#F6F6F6" d="M267.208 545.14l-33.84-19.526-33.837 19.525v39.05l33.838 19.526 33.84-19.525z"/><path fill="#FAFAFA" d="M334.886 545.14l-33.84-19.526-33.838 19.525v39.05l33.839 19.526 33.839-19.525z"/><path fill="#F6F6F6" d="M402.564 545.14l-33.84-19.526-33.838 19.525v39.05l33.839 19.526 33.839-19.525z"/><path fill="#FAFAFA" d="M-1.48 585.357v-41.384l31.816-18.36 33.838 19.526v39.05l-33.838 19.526z"/><path fill="#F0F0F0" d="M470.242 545.14l-33.84-19.526-33.838 19.525v39.05l33.838 19.526 33.84-19.525z"/><path fill="#F6F6F6" d="M233.37 486.552l-33.84-19.525-33.838 19.525v39.05l33.838 19.526 33.84-19.525z"/><path fill="#F6F6F6" d="M300.678 486.525L266.838 467 233 486.525v39.05l33.838 19.526 33.84-19.525zM165.678 369.525L131.838 350 98 369.525v39.05l33.838 19.526 33.84-19.525z"/><path fill="#FAFAFA" d="M436.403 486.552l-33.84-19.525-33.838 19.525v39.05l33.838 19.526 33.84-19.525z"/><path fill="#F6F6F6" d="M165.691 486.552l-33.839-19.525-33.838 19.525v39.05l33.838 19.526 33.84-19.525zM98.013 486.552l-33.839-19.525-33.838 19.525v39.05l33.838 19.526 33.84-19.525z"/><path fill="#00B4CB" d="M30.336 486.552l-33.84-19.525-33.838 19.525v39.05l33.838 19.526 33.84-19.525z"/><path fill="#F6F6F6" d="M199.53 428.002l-33.839-19.525-33.838 19.525v39.05l33.838 19.525 33.84-19.525zM131.678 427.525L97.838 408 64 427.525v39.05l33.838 19.526 33.84-19.525zM64.678 193.525L30.838 174-3 193.525v39.05l33.838 19.526 33.84-19.525z"/><path fill="#FFF" d="M63.678 77.525L29.838 58-4 77.525v39.05l33.838 19.526 33.84-19.525z"/><path fill="#F6F6F6" d="M131.678 77.525L97.838 58 64 77.525v39.05l33.838 19.526 33.84-19.525z"/><path fill="#F0F0F0" d="M267.208 428.002l-33.84-19.525-33.837 19.525v39.05l33.838 19.525 33.84-19.525z"/><path fill="#ECECEC" d="M334.678 427.525L300.838 408 267 427.525v39.05l33.838 19.526 33.84-19.525zM98.678 135.525L64.838 116 31 135.525v39.05l33.838 19.526 33.84-19.525zM131.852 311.128l-33.839-19.526-33.838 19.526v39.05l33.838 19.525 33.84-19.525z"/><path fill="#FAFAFA" d="M64.175 428.002l-33.84-19.525-33.838 19.525v39.05l33.838 19.525 33.84-19.525z"/><path fill="#F6F6F6" d="M470.242 428.002l-33.84-19.525-33.838 19.525v39.05l33.838 19.525 33.84-19.525z"/><path fill="#F48365" d="M301.047 369.415l-33.84-19.525-33.837 19.525v39.05l33.838 19.525 33.839-19.525z"/><path fill="#ECECEC" d="M436.403 369.415l-33.84-19.525-33.838 19.525v39.05l33.838 19.525 33.84-19.525z"/><path fill="#F6F6F6" d="M98.013 369.415L64.174 349.89l-33.838 19.525v39.05l33.838 19.525 33.84-19.525z"/><path fill="#ECECEC" d="M30.336 369.415l-33.84-19.525-33.838 19.525v39.05l33.838 19.525 33.84-19.525z"/><path fill="#F6F6F6" d="M774.542 720.845l-33.84-19.526-33.838 19.526v39.05l33.838 19.525 33.84-19.525zM706.864 720.845l-33.84-19.526-33.838 19.526v39.05l33.838 19.525 33.84-19.525zM842.22 720.845l-33.84-19.526-33.838 19.526v39.05l33.838 19.525 33.84-19.525z"/><path fill="#F0F0F0" d="M909.897 720.845l-33.84-19.526-33.837 19.526v39.05l33.838 19.525 33.84-19.525z"/><path fill="#FAFAFA" d="M977.575 720.845l-33.84-19.526-33.837 19.526v39.05l33.838 19.525 33.84-19.525z"/><path fill="#F6F6F6" d="M639.186 720.845l-33.84-19.526-33.838 19.526v39.05l33.839 19.525 33.839-19.525z"/><path fill="#ECECEC" d="M571.508 720.845l-33.84-19.526-33.838 19.526v39.05l33.839 19.525 33.839-19.525z"/><path fill="#F0F0F0" d="M1045.253 720.845l-33.84-19.526-33.838 19.526v39.05l33.838 19.525 33.84-19.525z"/><path fill="#F6F6F6" d="M503.845 720.845l-33.84-19.526-33.837 19.526v39.05l33.838 19.525 33.84-19.525z"/><path fill="#F0F0F0" d="M808.38 662.257l-33.839-19.525-33.838 19.525v39.05l33.838 19.526 33.84-19.525z"/><path fill="#F6F6F6" d="M876.058 662.257l-33.839-19.525-33.838 19.525v39.05l33.838 19.526 33.84-19.525z"/><path fill="#F6F6F6" d="M943.678 662.525L909.838 643 876 662.525v39.05l33.838 19.526 33.84-19.525z"/><path fill="#00B1B0" d="M1349.678 195.525L1315.838 176 1282 195.525v39.05l33.838 19.526 33.84-19.525z"/><path fill="#FAFAFA" d="M1011.414 662.257l-33.84-19.525-33.838 19.525v39.05l33.839 19.526 33.839-19.525z"/><path fill="#F6F6F6" d="M740.703 662.257l-33.84-19.525-33.838 19.525v39.05l33.838 19.526 33.84-19.525z"/><path fill="#F0F0F0" d="M673.025 662.257l-33.84-19.525-33.838 19.525v39.05l33.839 19.526 33.839-19.525z"/><path fill="#F6F6F6" d="M605.347 662.257l-33.84-19.525-33.838 19.525v39.05l33.839 19.526 33.839-19.525z"/><path fill="#FAFAFA" d="M537.774 662.257l-33.839-19.525-33.838 19.525v39.05l33.838 19.526 33.84-19.525z"/><path fill="#F6F6F6" d="M774.542 603.67l-33.84-19.525-33.838 19.525v39.05l33.838 19.526 33.84-19.525z"/><path fill="#FAFAFA" d="M706.864 603.67l-33.84-19.525-33.838 19.525v39.05l33.838 19.526 33.84-19.525z"/><path fill="#F6F6F6" d="M842.22 603.67l-33.84-19.525-33.838 19.525v39.05l33.838 19.526 33.84-19.525z"/><path fill="#FAFAFA" d="M909.897 603.67l-33.84-19.525-33.837 19.525v39.05l33.838 19.526 33.84-19.525z"/><path fill="#F6F6F6" d="M977.575 603.67l-33.84-19.525-33.837 19.525v39.05l33.838 19.526 33.84-19.525z"/><path fill="#FAFAFA" d="M639.186 603.67l-33.84-19.525-33.838 19.525v39.05l33.839 19.526 33.839-19.525z"/><path fill="#F6F6F6" d="M571.508 603.67l-33.84-19.525-33.838 19.525v39.05l33.839 19.526 33.839-19.525z"/><path fill="#F0F0F0" d="M1045.253 603.67l-33.84-19.525-33.838 19.525v39.05l33.838 19.526 33.84-19.525z"/><path fill="#F6F6F6" d="M503.845 603.67l-33.84-19.525-33.837 19.525v39.05l33.838 19.526 33.84-19.525zM808.38 545.083l-33.839-19.525-33.838 19.525v39.05l33.838 19.526 33.84-19.525z"/><path fill="#FAFAFA" d="M876.058 545.083l-33.839-19.525-33.838 19.525v39.05l33.838 19.526 33.84-19.525z"/><path fill="#F6F6F6" d="M943.736 545.083l-33.84-19.525-33.837 19.525v39.05l33.838 19.526 33.84-19.525z"/><path fill="#FAFAFA" d="M1011.414 545.083l-33.84-19.525-33.838 19.525v39.05l33.839 19.526 33.839-19.525z"/><path fill="#F6F6F6" d="M740.703 545.083l-33.84-19.525-33.838 19.525v39.05l33.838 19.526 33.84-19.525zM673.025 545.083l-33.84-19.525-33.838 19.525v39.05l33.839 19.526 33.839-19.525zM605.347 545.083l-33.84-19.525-33.838 19.525v39.05l33.839 19.526 33.839-19.525z"/><path fill="#ECECEC" d="M537.774 545.083l-33.839-19.525-33.838 19.525v39.05l33.838 19.526 33.84-19.525z"/><path fill="#F6F6F6" d="M774.542 486.533l-33.84-19.525-33.838 19.525v39.05l33.838 19.525 33.84-19.525zM706.864 486.533l-33.84-19.525-33.838 19.525v39.05l33.838 19.525 33.84-19.525z"/><path fill="#F0F0F0" d="M842.22 486.533l-33.84-19.525-33.838 19.525v39.05l33.838 19.525 33.84-19.525z"/><path fill="#ECECEC" d="M909.897 486.533l-33.84-19.525-33.837 19.525v39.05l33.838 19.525 33.84-19.525z"/><path fill="#F6F6F6" d="M977.575 486.533l-33.84-19.525-33.837 19.525v39.05l33.838 19.525 33.84-19.525z"/><path fill="#FAFAFA" d="M639.186 486.533l-33.84-19.525-33.838 19.525v39.05l33.839 19.525 33.839-19.525z"/><path fill="#F6F6F6" d="M571.508 486.533l-33.84-19.525-33.838 19.525v39.05l33.839 19.525 33.839-19.525zM1045.678 486.525L1011.838 467 978 486.525v39.05l33.838 19.526 33.84-19.525zM977.678 369.525L943.838 350 910 369.525v39.05l33.838 19.526 33.84-19.525z"/><path fill="#F6F6F6" d="M503.845 486.533l-33.84-19.525-33.837 19.525v39.05l33.838 19.525 33.84-19.525zM876.058 427.946L842.22 408.42l-33.838 19.525v39.05l33.838 19.525 33.84-19.525z"/><path fill="#FAFAFA" d="M943.678 427.525L909.838 408 876 427.525v39.05l33.838 19.526 33.84-19.525z"/><path fill="#EBEBEB" d="M1011.678 427.525L977.838 408 944 427.525v39.05l33.838 19.526 33.84-19.525z"/><path fill="#F0F0F0" d="M740.703 427.946l-33.84-19.525-33.838 19.525v39.05l33.838 19.525 33.84-19.525z"/><path fill="#F6F6F6" d="M673.025 427.946l-33.84-19.525-33.838 19.525v39.05l33.839 19.525 33.839-19.525z"/><path fill="#ECECEC" d="M605.678 427.525L571.838 408 538 427.525v39.05l33.838 19.526 33.84-19.525z"/><path fill="#F0F0F0" d="M537.774 427.946l-33.839-19.525-33.838 19.525v39.05l33.838 19.525 33.84-19.525z"/><path fill="#F6F6F6" d="M267.208 311.128l-33.84-19.526-33.837 19.526v39.05l33.838 19.525 33.84-19.525zM64.175 311.128l-33.84-19.526-33.838 19.526v39.05l33.838 19.525 33.84-19.525z"/><path fill="#ECECEC" d="M30.336 18.229L-3.504-1.296l-33.838 19.525v39.05l33.838 19.525 33.84-19.525z"/><path fill="#F6F6F6" d="M640.25 370.723l-33.839-19.525-33.838 19.525v39.05l33.838 19.525 33.84-19.525z"/><path fill="#EBEBEB" d="M572.678 370.525L538.838 351 505 370.525v39.05l33.838 19.526 33.84-19.525zM606.678 195.525L572.838 176 539 195.525v39.05l33.838 19.526 33.84-19.525z"/><path fill="#F6F6F6" d="M504.91 370.723l-33.84-19.525-33.838 19.525v39.05l33.839 19.525 33.839-19.525zM606.412 312.136l-33.84-19.525-33.838 19.525v39.05l33.839 19.525 33.839-19.525zM1349.553 312.192l-33.84-19.525-33.838 19.525v39.05l33.839 19.525 33.839-19.525zM1417.23 312.192l-33.839-19.525-33.838 19.525v39.05l33.838 19.525 33.84-19.525zM1352.278 1012.991l9.232-5.326v5.326z"/><path fill="#F0F0F0" d="M1346.848 1012.991l-31.134-17.963v-39.052l33.839-19.525 11.956 6.899v64.303l-9.251 5.338z"/><path fill="#F6F6F6" d="M1279.17 1012.991l-31.134-17.963v-39.052l33.839-19.525 33.84 19.525v39.052l-31.135 17.963zM1349.553 897.39l-33.84-19.526-33.838 19.525v39.05l33.839 19.526 33.839-19.525zM1349.553 936.44v-39.05l11.957-6.9v52.848z"/><path fill="#FAFAFA" d="M1214.197 897.39l-33.84-19.526-33.837 19.525v39.05l33.838 19.526 33.84-19.525z"/><path fill="#F6F6F6" d="M1146.52 897.39l-33.84-19.526-33.838 19.525v39.05l33.838 19.526 33.84-19.525z"/><path fill="#68C7C5" d="M1315.714 877.852v-39.05l33.84-19.524 11.955 6.898v64.303l-11.956 6.898z"/><path fill="#F6F6F6" d="M1315.714 838.802l-33.84-19.525-33.838 19.525v39.05l33.839 19.526 33.839-19.525zM1248.036 838.802l-33.84-19.525-33.838 19.525v39.05l33.839 19.526 33.839-19.525z"/><path fill="#F6F6F6" d="M1180.358 838.802l-33.84-19.525-33.837 19.525v39.05l33.838 19.526 33.84-19.525z"/><path fill="#ECECEC" d="M1112.786 838.802l-33.84-19.525-33.838 19.525v39.05l33.839 19.526 33.839-19.525z"/><path fill="#F6F6F6" d="M1349.553 780.252l-33.84-19.525-33.838 19.525v39.05l33.839 19.525 33.839-19.525zM1281.875 780.252l-33.84-19.525-33.838 19.525v39.05l33.839 19.525 33.839-19.525z"/><path fill="#F0F0F0" d="M1349.553 819.303v-39.05l11.957-6.9v52.848z"/><path fill="#FAFAFA" d="M1214.197 780.252l-33.84-19.525-33.837 19.525v39.05l33.838 19.525 33.84-19.525z"/><path fill="#F6F6F6" d="M1146.52 780.252l-33.84-19.525-33.838 19.525v39.05l33.838 19.525 33.84-19.525z"/><path fill="#F6F6F6" d="M1078.856 780.252l-33.839-19.525-33.838 19.525v39.05l33.838 19.525 33.84-19.525zM1315.714 760.715v-39.05l33.84-19.526 11.955 6.9v64.303l-11.956 6.898z"/><path fill="#F0F0F0" d="M1315.714 721.665l-33.84-19.525-33.838 19.525v39.05l33.839 19.525 33.839-19.525z"/><path fill="#F6F6F6" d="M1248.036 721.665l-33.84-19.525-33.838 19.525v39.05l33.839 19.525 33.839-19.525z"/><path fill="#F48365" d="M1180.358 721.665l-33.84-19.525-33.837 19.525v39.05l33.838 19.525 33.84-19.525z"/><path fill="#F0F0F0" d="M1112.786 721.665l-33.84-19.525-33.838 19.525v39.05l33.839 19.525 33.839-19.525z"/><path fill="#F6F6F6" d="M1349.553 664.442l-33.84-19.525-33.838 19.525v39.05l33.839 19.525 33.839-19.525zM1281.875 664.442l-33.84-19.525-33.838 19.525v39.05l33.839 19.525 33.839-19.525zM1349.553 703.493v-39.05l11.957-6.9v52.848z"/><path fill="#F6F6F6" d="M1214.197 664.442l-33.84-19.525-33.837 19.525v39.05l33.838 19.525 33.84-19.525z"/><path fill="#EBEBEB" d="M1146.52 664.442l-33.84-19.525-33.838 19.525v39.05l33.838 19.525 33.84-19.525z"/><path fill="#F6F6F6" d="M1078.856 664.442l-33.839-19.525-33.838 19.525v39.05l33.838 19.525 33.84-19.525z"/><path fill="#F0F0F0" d="M1315.714 644.905v-39.05l33.84-19.525 11.955 6.898v64.304l-11.956 6.898z"/><path fill="#F6F6F6" d="M1315.714 605.855l-33.84-19.525-33.838 19.525v39.05l33.839 19.525 33.839-19.525z"/><path fill="#F0F0F0" d="M1248.036 605.855l-33.84-19.525-33.838 19.525v39.05l33.839 19.525 33.839-19.525z"/><path fill="#F6F6F6" d="M1180.358 605.855l-33.84-19.525-33.837 19.525v39.05l33.838 19.525 33.84-19.525z"/><path fill="#FAFAFA" d="M1112.786 605.855l-33.84-19.525-33.838 19.525v39.05l33.839 19.525 33.839-19.525z"/><path fill="#F6F6F6" d="M1349.553 547.268l-33.84-19.525-33.838 19.525v39.05l33.839 19.525 33.839-19.525z"/><path fill="#00A8CB" d="M1281.875 547.268l-33.84-19.525-33.838 19.525v39.05l33.839 19.525 33.839-19.525z"/><path fill="#F6F6F6" d="M1349.553 586.318v-39.05l11.957-6.9v52.85z"/><path fill="#FAFAFA" d="M1214.197 547.268l-33.84-19.525-33.837 19.525v39.05l33.838 19.525 33.84-19.525z"/><path fill="#F6F6F6" d="M1146.52 547.268l-33.84-19.525-33.838 19.525v39.05l33.838 19.525 33.84-19.525z"/><path fill="#F6F6F6" d="M1078.856 547.268l-33.839-19.525-33.838 19.525v39.05l33.838 19.525 33.84-19.525zM1383.392 488.68l-33.84-19.525-33.838 19.526v39.05l33.838 19.525 33.84-19.525zM1315.714 488.68l-33.84-19.525-33.838 19.526v39.05l33.839 19.525 33.839-19.525zM1248.036 488.68l-33.84-19.525-33.838 19.526v39.05l33.839 19.525 33.839-19.525zM1383.678 253.525L1349.838 234 1316 253.525v39.05l33.838 19.526 33.84-19.525z"/><path fill="#ECECEC" d="M1281.678 312.525L1247.838 293 1214 312.525v39.05l33.838 19.526 33.84-19.525z"/><path fill="#F6F6F6" d="M1349.553 430.13l-33.84-19.525-33.838 19.525v39.05l33.839 19.526 33.839-19.525zM1281.875 430.13l-33.84-19.525-33.838 19.525v39.05l33.839 19.526 33.839-19.525z"/><path fill="#F0F0F0" d="M1417.23 430.13l-33.839-19.525-33.838 19.525v39.05l33.838 19.526 33.84-19.525z"/><path fill="#FAFAFA" d="M1214.197 430.13l-33.84-19.525-33.837 19.525v39.05l33.838 19.526 33.84-19.525z"/><path fill="#F6F6F6" d="M1146.52 430.13l-33.84-19.525-33.838 19.525v39.05l33.838 19.526 33.84-19.525z"/><path fill="#F6F6F6" d="M1078.856 430.13l-33.839-19.525-33.838 19.525v39.05l33.838 19.526 33.84-19.525z"/><path fill="#E6BB83" d="M1383.392 371.543l-33.84-19.525-33.838 19.525v39.05l33.838 19.526 33.84-19.525z"/><path fill="#F0F0F0" d="M1315.714 371.543l-33.84-19.525-33.838 19.525v39.05l33.839 19.526 33.839-19.526z"/><path fill="#F6F6F6" d="M1248.036 371.543l-33.84-19.525-33.838 19.525v39.05l33.839 19.526 33.839-19.526z"/><path fill="#ECECEC" d="M1180.358 371.543l-33.84-19.525-33.837 19.525v39.05l33.838 19.526 33.84-19.526z"/></g></svg>