<?xml version="1.0" encoding="UTF-8"?>
<svg width="1366px" height="1014px" viewBox="0 0 1366 1014" version="1.1" xmlns="http://www.w3.org/2000/svg" xmlns:xlink="http://www.w3.org/1999/xlink">
    <!-- Generator: Sketch 42 (36781) - http://www.bohemiancoding.com/sketch -->
    <title>HEXAGONOS</title>
    <desc>Created with Sketch.</desc>
    <defs></defs>
    <g id="Page-1" stroke="none" stroke-width="1" fill="none" fill-rule="evenodd">
        <g id="Landing-Copy-2" transform="translate(0.000000, -202.000000)">
            <g id="HEXAGONOS" transform="translate(-38.000000, 200.000000)">
                <polygon id="Rectangle-4" fill="#FFFFFF" transform="translate(720.883281, 686.114818) scale(1, -1) translate(-720.883281, -686.114818) " points="38.8895899 357.135567 1402.87697 357.135567 1402.87697 934.898067 847.267198 902.381624 810.976905 881.872826 777.10798 902.381624 503.638202 942.450848 407.359824 961.571084 372.394967 942.450848 206.120614 934.898067 165.107624 942.450848 128.676785 960.168739 38.8895899 1015.09407"></polygon>
                <polygon id="Fill-25" fill="#F0F0F0" transform="translate(102.174919, 976.721271) scale(1, -1) translate(-102.174919, -976.721271) " points="99.4693948 938.451217 68.3361583 956.414783 68.3361583 995.466143 102.17442 1014.99132 136.01368 995.466143 136.01368 956.414783 104.879446 938.451217"></polygon>
                <polygon id="Fill-27" fill="#F6F6F6" transform="translate(52.427695, 977.304633) scale(1, -1) translate(-52.427695, -977.304633) " points="36.5193317 939.617941 36.5193317 1014.99132 68.3360585 996.632867 68.3360585 957.581507 37.2018243 939.617941"></polygon>
                <polygon id="Fill-33" fill="#F6F6F6" transform="translate(271.369422, 918.914667) scale(1, -1) translate(-271.369422, -918.914667) " points="305.208183 938.439849 271.368923 957.96503 237.530661 938.439849 237.530661 899.389486 271.368923 879.864304 305.208183 899.389486"></polygon>
                <polygon id="Fill-39" fill="#FAFAFA" transform="translate(69.346826, 918.914368) scale(1, -1) translate(-69.346826, -918.914368) " points="36.5193317 898.221964 36.5193317 939.605775 68.3360585 957.96523 102.17432 938.439051 102.17432 899.388688 68.3360585 879.863507"></polygon>
                <polygon id="Fill-41" fill="#F0F0F0" transform="translate(474.402785, 918.914667) scale(1, -1) translate(-474.402785, -918.914667) " points="508.241546 938.439849 474.402286 957.96503 440.564024 938.439849 440.564024 899.389486 474.402286 879.864304 508.241546 899.389486"></polygon>
                <polygon id="Fill-43" fill="#F6F6F6" transform="translate(237.530461, 860.327456) scale(1, -1) translate(-237.530461, -860.327456) " points="271.369222 879.852637 237.529963 899.377819 203.691701 879.852637 203.691701 840.802274 237.529963 821.277093 271.369222 840.802274"></polygon>
                <polygon id="Fill-47" fill="#F6F6F6" transform="translate(372.886103, 860.327456) scale(1, -1) translate(-372.886103, -860.327456) " points="406.724864 879.852637 372.885605 899.377819 339.047343 879.852637 339.047343 840.802274 372.885605 821.277093 406.724864 840.802274"></polygon>
                <polygon id="Fill-49" fill="#FAFAFA" transform="translate(440.563924, 860.327456) scale(1, -1) translate(-440.563924, -860.327456) " points="474.402685 879.852637 440.563426 899.377819 406.725164 879.852637 406.725164 840.802274 440.563426 821.277093 474.402685 840.802274"></polygon>
                <polygon id="Fill-53" fill="#F6F6F6" transform="translate(102.174720, 860.327456) scale(1, -1) translate(-102.174720, -860.327456) " points="136.01348 879.852637 102.174221 899.377819 68.3359588 879.852637 68.3359588 840.802274 102.174221 821.277093 136.01348 840.802274"></polygon>
                <polygon id="Fill-55" fill="#F6F6F6" transform="translate(52.427695, 860.327356) scale(1, -1) translate(-52.427695, -860.327356) " points="36.5193317 898.210496 68.3360585 879.853036 68.3360585 840.802673 36.5193317 822.444216"></polygon>
                <polygon id="Fill-57" fill="#F6F6F6" transform="translate(203.691601, 801.777041) scale(1, -1) translate(-203.691601, -801.777041) " points="237.530362 821.302222 203.691102 840.827404 169.85284 821.302222 169.85284 782.251859 203.691102 762.726678 237.530362 782.251859"></polygon>
                <polygon id="Fill-59" fill="#F6F6F6" transform="translate(136.013680, 801.777041) scale(1, -1) translate(-136.013680, -801.777041) " points="169.852441 821.302222 136.013181 840.827404 102.174919 821.302222 102.174919 782.251859 136.013181 762.726678 169.852441 782.251859"></polygon>
                <polygon id="Fill-61" fill="#F0F0F0" transform="translate(271.369422, 801.777041) scale(1, -1) translate(-271.369422, -801.777041) " points="305.208183 821.302222 271.368923 840.827404 237.530661 821.302222 237.530661 782.251859 271.368923 762.726678 305.208183 782.251859"></polygon>
                <polygon id="Fill-63" fill="#68C7C5" transform="translate(339.047243, 801.777041) scale(1, -1) translate(-339.047243, -801.777041) " points="372.886004 821.302222 339.046744 840.827404 305.208482 821.302222 305.208482 782.251859 339.046744 762.726678 372.886004 782.251859"></polygon>
                <polygon id="Fill-65" fill="#F6F6F6" transform="translate(406.725064, 801.777041) scale(1, -1) translate(-406.725064, -801.777041) " points="440.563825 821.302222 406.724565 840.827404 372.886303 821.302222 372.886303 782.251859 406.724565 762.726678 440.563825 782.251859"></polygon>
                <polygon id="Fill-67" fill="#FAFAFA" transform="translate(69.346826, 801.776941) scale(1, -1) translate(-69.346826, -801.776941) " points="36.5193317 781.084537 36.5193317 822.468348 68.3360585 840.826805 102.17432 821.301624 102.17432 782.251261 68.3360585 762.727077"></polygon>
                <polygon id="Fill-69" fill="#EBEBEB" transform="translate(474.402785, 801.777041) scale(1, -1) translate(-474.402785, -801.777041) " points="508.241546 821.302222 474.402286 840.827404 440.564024 821.302222 440.564024 782.251859 474.402286 762.726678 508.241546 782.251859"></polygon>
                <polygon id="Fill-71" fill="#F6F6F6" transform="translate(237.530461, 743.190029) scale(1, -1) translate(-237.530461, -743.190029) " points="271.369222 762.71521 237.529963 782.240392 203.691701 762.71521 203.691701 723.664847 237.529963 704.139666 271.369222 723.664847"></polygon>
                <polygon id="Fill-73" fill="#F6F6F6" transform="translate(305.208282, 743.190029) scale(1, -1) translate(-305.208282, -743.190029) " points="339.047043 762.71521 305.207784 782.240392 271.369522 762.71521 271.369522 723.664847 305.207784 704.139666 339.047043 723.664847"></polygon>
                <polygon id="Fill-75" fill="#FAFAFA" transform="translate(372.886103, 743.190029) scale(1, -1) translate(-372.886103, -743.190029) " points="406.724864 762.71521 372.885605 782.240392 339.047343 762.71521 339.047343 723.664847 372.885605 704.139666 406.724864 723.664847"></polygon>
                <polygon id="Fill-77" fill="#ECECEC" transform="translate(440.838761, 743.050363) scale(1, -1) translate(-440.838761, -743.050363) " points="474.677522 762.575544 440.838262 782.100726 407 762.575544 407 723.525181 440.838262 704 474.677522 723.525181"></polygon>
                <polygon id="Fill-77-Copy" fill="#ECECEC" transform="translate(34.838761, 274.050363) scale(1, -1) translate(-34.838761, -274.050363) " points="68.6775217 293.575544 34.8382619 313.100726 1 293.575544 1 254.525181 34.8382619 235 68.6775217 254.525181"></polygon>
                <polygon id="Fill-79" fill="#F0F0F0" transform="translate(169.594281, 742.980887) scale(1, -1) translate(-169.594281, -742.980887) " points="203.433042 762.506069 169.593782 782.03125 135.755521 762.506069 135.755521 723.455706 169.593782 703.930524 203.433042 723.455706"></polygon>
                <polygon id="Fill-79-Copy" fill="#E6BB83" transform="translate(203.691601, 683.838762) scale(1, -1) translate(-203.691601, -683.838762) " points="237.530362 703.363944 203.691102 722.889125 169.85284 703.363944 169.85284 664.313581 203.691102 644.788399 237.530362 664.313581"></polygon>
                <polygon id="Fill-81" fill="#F6F6F6" transform="translate(102.174720, 743.189929) scale(1, -1) translate(-102.174720, -743.189929) " points="136.01348 762.71511 102.174221 782.240292 68.3359588 762.71511 68.3359588 723.664748 102.174221 704.139566 136.01348 723.664748"></polygon>
                <polygon id="Fill-83" fill="#ECECEC" transform="translate(52.427695, 743.189730) scale(1, -1) translate(-52.427695, -743.189730) " points="36.5193317 781.073368 68.3360585 762.714911 68.3360585 723.664548 36.5193317 705.306091"></polygon>
                <polygon id="Fill-119" fill="#E6BA83" transform="translate(812.541743, 918.858425) scale(1, -1) translate(-812.541743, -918.858425) " points="846.380504 938.383607 812.541244 957.908788 778.702982 938.383607 778.702982 899.333244 812.541244 879.808062 846.380504 899.333244"></polygon>
                <polygon id="Fill-129" fill="#F6F6F6" transform="translate(677.186001, 918.858425) scale(1, -1) translate(-677.186001, -918.858425) " points="711.024762 938.383607 677.185502 957.908788 643.34724 938.383607 643.34724 899.333244 677.185502 879.808062 711.024762 899.333244"></polygon>
                <polygon id="Fill-135" fill="#F6F6F6" transform="translate(778.702782, 860.308110) scale(1, -1) translate(-778.702782, -860.308110) " points="812.541543 879.833292 778.702283 899.358473 744.864021 879.833292 744.864021 840.782929 778.702283 821.257747 812.541543 840.782929"></polygon>
                <polygon id="Fill-137" fill="#F6F6F6" transform="translate(711.024961, 860.308110) scale(1, -1) translate(-711.024961, -860.308110) " points="744.863722 879.833292 711.024462 899.358473 677.1862 879.833292 677.1862 840.782929 711.024462 821.257747 744.863722 840.782929"></polygon>
                <polygon id="Fill-141" fill="#ECECEC" transform="translate(914.058424, 860.308110) scale(1, -1) translate(-914.058424, -860.308110) " points="947.897185 879.833292 914.057925 899.358473 880.219664 879.833292 880.219664 840.782929 914.057925 821.257747 947.897185 840.782929"></polygon>
                <polygon id="Fill-145" fill="#FAFAFA" transform="translate(643.347040, 860.308110) scale(1, -1) translate(-643.347040, -860.308110) " points="677.185801 879.833292 643.346542 899.358473 609.50828 879.833292 609.50828 840.782929 643.346542 821.257747 677.185801 840.782929"></polygon>
                <polygon id="Fill-151" fill="#F6F6F6" transform="translate(508.006365, 860.308110) scale(1, -1) translate(-508.006365, -860.308110) " points="541.845126 879.833292 508.005866 899.358473 474.167605 879.833292 474.167605 840.782929 508.005866 821.257747 541.845126 840.782929"></polygon>
                <polygon id="Fill-153" fill="#F6F6F6" transform="translate(812.541743, 801.720998) scale(1, -1) translate(-812.541743, -801.720998) " points="846.380504 821.24618 812.541244 840.771361 778.702982 821.24618 778.702982 782.195817 812.541244 762.670635 846.380504 782.195817"></polygon>
                <polygon id="Fill-155" fill="#F6F6F6" transform="translate(880.219564, 801.720998) scale(1, -1) translate(-880.219564, -801.720998) " points="914.058325 821.24618 880.219065 840.771361 846.380803 821.24618 846.380803 782.195817 880.219065 762.670635 914.058325 782.195817"></polygon>
                <polygon id="Fill-157" fill="#FAFAFA" transform="translate(947.897385, 801.720998) scale(1, -1) translate(-947.897385, -801.720998) " points="981.736146 821.24618 947.896886 840.771361 914.058624 821.24618 914.058624 782.195817 947.896886 762.670635 981.736146 782.195817"></polygon>
                <polygon id="Fill-159" fill="#ECECEC" transform="translate(1015.575206, 801.720998) scale(1, -1) translate(-1015.575206, -801.720998) " points="1049.41397 821.24618 1015.57471 840.771361 981.736445 821.24618 981.736445 782.195817 1015.57471 762.670635 1049.41397 782.195817"></polygon>
                <polygon id="Fill-161" fill="#F0F0F0" transform="translate(744.863822, 801.720898) scale(1, -1) translate(-744.863822, -801.720898) " points="778.702583 821.24608 744.863323 840.771261 711.025061 821.24608 711.025061 782.195717 744.863323 762.670536 778.702583 782.195717"></polygon>
                <polygon id="Fill-163" fill="#F6F6F6" transform="translate(677.186001, 801.720898) scale(1, -1) translate(-677.186001, -801.720898) " points="711.024762 821.24608 677.185502 840.771261 643.34724 821.24608 643.34724 782.195717 677.185502 762.670536 711.024762 782.195717"></polygon>
                <polygon id="Fill-165" fill="#ECECEC" transform="translate(609.508180, 801.720898) scale(1, -1) translate(-609.508180, -801.720898) " points="643.346941 821.24608 609.507681 840.771261 575.669419 821.24608 575.669419 782.195717 609.507681 762.670536 643.346941 782.195717"></polygon>
                <polygon id="Fill-171" fill="#F6F6F6" transform="translate(136.013680, 683.838762) scale(1, -1) translate(-136.013680, -683.838762) " points="169.852441 703.363944 136.013181 722.889125 102.174919 703.363944 102.174919 664.313581 136.013181 644.788399 169.852441 664.313581"></polygon>
                <polygon id="Fill-173" fill="#F6F6F6" transform="translate(271.369422, 683.838762) scale(1, -1) translate(-271.369422, -683.838762) " points="305.208183 703.363944 271.368923 722.889125 237.530661 703.363944 237.530661 664.313581 271.368923 644.788399 305.208183 664.313581"></polygon>
                <polygon id="Fill-177" fill="#FAFAFA" transform="translate(406.725064, 683.838762) scale(1, -1) translate(-406.725064, -683.838762) " points="440.563825 703.363944 406.724565 722.889125 372.886303 703.363944 372.886303 664.313581 406.724565 644.788399 440.563825 664.313581"></polygon>
                <polygon id="Fill-179" fill="#F6F6F6" transform="translate(69.346826, 683.838264) scale(1, -1) translate(-69.346826, -683.838264) " points="36.5193317 663.145859 36.5193317 704.529671 68.3360585 722.889125 102.17432 703.362946 102.17432 664.312584 68.3360585 644.787402"></polygon>
                <polygon id="Fill-181" fill="#F0F0F0" transform="translate(474.402785, 683.838762) scale(1, -1) translate(-474.402785, -683.838762) " points="508.241546 703.363944 474.402286 722.889125 440.564024 703.363944 440.564024 664.313581 474.402286 644.788399 508.241546 664.313581"></polygon>
                <polygon id="Fill-183" fill="#F0F0F0" transform="translate(237.530461, 625.251650) scale(1, -1) translate(-237.530461, -625.251650) " points="271.369222 644.776832 237.529963 664.302013 203.691701 644.776832 203.691701 605.726469 237.529963 586.201287 271.369222 605.726469"></polygon>
                <polygon id="Fill-185" fill="#F6F6F6" transform="translate(305.208282, 625.251650) scale(1, -1) translate(-305.208282, -625.251650) " points="339.047043 644.776832 305.207784 664.302013 271.369522 644.776832 271.369522 605.726469 305.207784 586.201287 339.047043 605.726469"></polygon>
                <polygon id="Fill-187" fill="#F6F6F6" transform="translate(372.886103, 625.251650) scale(1, -1) translate(-372.886103, -625.251650) " points="406.724864 644.776832 372.885605 664.302013 339.047343 644.776832 339.047343 605.726469 372.885605 586.201287 406.724864 605.726469"></polygon>
                <polygon id="Fill-189" fill="#FAFAFA" transform="translate(440.563924, 625.251650) scale(1, -1) translate(-440.563924, -625.251650) " points="474.402685 644.776832 440.563426 664.302013 406.725164 644.776832 406.725164 605.726469 440.563426 586.201287 474.402685 605.726469"></polygon>
                <polygon id="Fill-191" fill="#F6F6F6" transform="translate(169.852640, 625.251551) scale(1, -1) translate(-169.852640, -625.251551) " points="203.691401 644.776732 169.852142 664.301914 136.01388 644.776732 136.01388 605.726369 169.852142 586.201188 203.691401 605.726369"></polygon>
                <polygon id="Fill-193" fill="#F0F0F0" transform="translate(102.174720, 625.251551) scale(1, -1) translate(-102.174720, -625.251551) " points="136.01348 644.776732 102.174221 664.301914 68.3359588 644.776732 68.3359588 605.726369 102.174221 586.201188 136.01348 605.726369"></polygon>
                <polygon id="Fill-195" fill="#F6F6F6" transform="translate(52.427695, 625.251251) scale(1, -1) translate(-52.427695, -625.251251) " points="36.5193317 663.134391 68.3360585 644.776931 68.3360585 605.725571 36.5193317 587.368111"></polygon>
                <polygon id="Fill-199" fill="#FAFAFA" transform="translate(136.013680, 566.664439) scale(1, -1) translate(-136.013680, -566.664439) " points="169.852441 586.18962 136.013181 605.714802 102.174919 586.18962 102.174919 547.139257 136.013181 527.614076 169.852441 547.139257"></polygon>
                <polygon id="Fill-201" fill="#F6F6F6" transform="translate(271.369422, 566.664439) scale(1, -1) translate(-271.369422, -566.664439) " points="305.208183 586.18962 271.368923 605.714802 237.530661 586.18962 237.530661 547.139257 271.368923 527.614076 305.208183 547.139257"></polygon>
                <polygon id="Fill-203" fill="#FAFAFA" transform="translate(339.047243, 566.664439) scale(1, -1) translate(-339.047243, -566.664439) " points="372.886004 586.18962 339.046744 605.714802 305.208482 586.18962 305.208482 547.139257 339.046744 527.614076 372.886004 547.139257"></polygon>
                <polygon id="Fill-205" fill="#F6F6F6" transform="translate(406.725064, 566.664439) scale(1, -1) translate(-406.725064, -566.664439) " points="440.563825 586.18962 406.724565 605.714802 372.886303 586.18962 372.886303 547.139257 406.724565 527.614076 440.563825 547.139257"></polygon>
                <polygon id="Fill-207" fill="#FAFAFA" transform="translate(69.346826, 566.664140) scale(1, -1) translate(-69.346826, -566.664140) " points="36.5193317 545.971735 36.5193317 587.355547 68.3360585 605.715001 102.17432 586.188822 102.17432 547.138459 68.3360585 527.613278"></polygon>
                <polygon id="Fill-209" fill="#F0F0F0" transform="translate(474.402785, 566.664439) scale(1, -1) translate(-474.402785, -566.664439) " points="508.241546 586.18962 474.402286 605.714802 440.564024 586.18962 440.564024 547.139257 474.402286 527.614076 508.241546 547.139257"></polygon>
                <polygon id="Fill-211" fill="#F6F6F6" transform="translate(237.530461, 508.077427) scale(1, -1) translate(-237.530461, -508.077427) " points="271.369222 527.602608 237.529963 547.127789 203.691701 527.602608 203.691701 488.552245 237.529963 469.027064 271.369222 488.552245"></polygon>
                <polygon id="Fill-213" fill="#F6F6F6" transform="translate(304.838761, 508.050363) scale(1, -1) translate(-304.838761, -508.050363) " points="338.677522 527.575544 304.838262 547.100726 271 527.575544 271 488.525181 304.838262 469 338.677522 488.525181"></polygon>
                <polygon id="Fill-213-Copy" fill="#F6F6F6" transform="translate(169.838761, 391.050363) scale(1, -1) translate(-169.838761, -391.050363) " points="203.677522 410.575544 169.838262 430.100726 136 410.575544 136 371.525181 169.838262 352 203.677522 371.525181"></polygon>
                <polygon id="Fill-217" fill="#FAFAFA" transform="translate(440.563924, 508.077427) scale(1, -1) translate(-440.563924, -508.077427) " points="474.402685 527.602608 440.563426 547.127789 406.725164 527.602608 406.725164 488.552245 440.563426 469.027064 474.402685 488.552245"></polygon>
                <polygon id="Fill-219" fill="#F6F6F6" transform="translate(169.852640, 508.077427) scale(1, -1) translate(-169.852640, -508.077427) " points="203.691401 527.602608 169.852142 547.127789 136.01388 527.602608 136.01388 488.552245 169.852142 469.027064 203.691401 488.552245"></polygon>
                <polygon id="Fill-221" fill="#F6F6F6" transform="translate(102.174720, 508.077427) scale(1, -1) translate(-102.174720, -508.077427) " points="136.01348 527.602608 102.174221 547.127789 68.3359588 527.602608 68.3359588 488.552245 102.174221 469.027064 136.01348 488.552245"></polygon>
                <polygon id="Fill-223" fill="#00B4CB" transform="translate(34.496899, 508.077427) scale(1, -1) translate(-34.496899, -508.077427) " points="68.3356594 527.602608 34.4963997 547.127789 0.658137738 527.602608 0.658137738 488.552245 34.4963997 469.027064 68.3356594 488.552245"></polygon>
                <polygon id="Fill-226" fill="#F6F6F6" transform="translate(203.691601, 449.527012) scale(1, -1) translate(-203.691601, -449.527012) " points="237.530362 469.052193 203.691102 488.577374 169.85284 469.052193 169.85284 430.00183 203.691102 410.476649 237.530362 430.00183"></polygon>
                <polygon id="Fill-228" fill="#F6F6F6" transform="translate(135.838761, 449.050363) scale(1, -1) translate(-135.838761, -449.050363) " points="169.677522 468.575544 135.838262 488.100726 102 468.575544 102 429.525181 135.838262 410 169.677522 429.525181"></polygon>
                <polygon id="Fill-228-Copy" fill="#F6F6F6" transform="translate(68.838761, 215.050363) scale(1, -1) translate(-68.838761, -215.050363) " points="102.677522 234.575544 68.8382619 254.100726 35 234.575544 35 195.525181 68.8382619 176 102.677522 195.525181"></polygon>
                <polygon id="Fill-228-Copy-2" fill="#FFFFFF" transform="translate(67.838761, 99.050363) scale(1, -1) translate(-67.838761, -99.050363) " points="101.677522 118.575544 67.8382619 138.100726 34 118.575544 34 79.5251815 67.8382619 60 101.677522 79.5251815"></polygon>
                <polygon id="Fill-228-Copy-3" fill="#F6F6F6" transform="translate(135.838761, 99.050363) scale(1, -1) translate(-135.838761, -99.050363) " points="169.677522 118.575544 135.838262 138.100726 102 118.575544 102 79.5251815 135.838262 60 169.677522 79.5251815"></polygon>
                <polygon id="Fill-230" fill="#F0F0F0" transform="translate(271.369422, 449.527012) scale(1, -1) translate(-271.369422, -449.527012) " points="305.208183 469.052193 271.368923 488.577374 237.530661 469.052193 237.530661 430.00183 271.368923 410.476649 305.208183 430.00183"></polygon>
                <polygon id="Fill-232" fill="#ECECEC" transform="translate(338.838761, 449.050363) scale(1, -1) translate(-338.838761, -449.050363) " points="372.677522 468.575544 338.838262 488.100726 305 468.575544 305 429.525181 338.838262 410 372.677522 429.525181"></polygon>
                <polygon id="Fill-232-Copy-2" fill="#ECECEC" transform="translate(102.838761, 157.050363) scale(1, -1) translate(-102.838761, -157.050363) " points="136.677522 176.575544 102.838262 196.100726 69 176.575544 69 137.525181 102.838262 118 136.677522 137.525181"></polygon>
                <polygon id="Fill-232-Copy" fill="#ECECEC" transform="translate(136.013680, 332.652845) scale(1, -1) translate(-136.013680, -332.652845) " points="169.852441 352.178027 136.013181 371.703208 102.174919 352.178027 102.174919 313.127664 136.013181 293.602482 169.852441 313.127664"></polygon>
                <polygon id="Fill-236" fill="#FAFAFA" transform="translate(68.335859, 449.527012) scale(1, -1) translate(-68.335859, -449.527012) " points="102.17462 469.052193 68.3353601 488.577374 34.4970981 469.052193 34.4970981 430.00183 68.3353601 410.476649 102.17462 430.00183"></polygon>
                <polygon id="Fill-239" fill="#F6F6F6" transform="translate(474.402785, 449.527012) scale(1, -1) translate(-474.402785, -449.527012) " points="508.241546 469.052193 474.402286 488.577374 440.564024 469.052193 440.564024 430.00183 474.402286 410.476649 508.241546 430.00183"></polygon>
                <polygon id="Fill-243" fill="#F48365" transform="translate(305.208282, 390.939900) scale(1, -1) translate(-305.208282, -390.939900) " points="339.047043 410.465081 305.207784 429.990263 271.369522 410.465081 271.369522 371.414718 305.207784 351.889537 339.047043 371.414718"></polygon>
                <polygon id="Fill-247" fill="#ECECEC" transform="translate(440.563924, 390.939900) scale(1, -1) translate(-440.563924, -390.939900) " points="474.402685 410.465081 440.563426 429.990263 406.725164 410.465081 406.725164 371.414718 440.563426 351.889537 474.402685 371.414718"></polygon>
                <polygon id="Fill-249" fill="#F6F6F6" transform="translate(102.174720, 390.939900) scale(1, -1) translate(-102.174720, -390.939900) " points="136.01348 410.465081 102.174221 429.990263 68.3359588 410.465081 68.3359588 371.414718 102.174221 351.889537 136.01348 371.414718"></polygon>
                <polygon id="Fill-251" fill="#ECECEC" transform="translate(34.496899, 390.939900) scale(1, -1) translate(-34.496899, -390.939900) " points="68.3356594 410.465081 34.4963997 429.990263 0.658137738 410.465081 0.658137738 371.414718 34.4963997 351.889537 68.3356594 371.414718"></polygon>
                <polygon id="Fill-255" fill="#F6F6F6" transform="translate(778.702782, 742.369732) scale(1, -1) translate(-778.702782, -742.369732) " points="812.541543 761.894913 778.702283 781.420095 744.864021 761.894913 744.864021 722.84455 778.702283 703.319369 812.541543 722.84455"></polygon>
                <polygon id="Fill-257" fill="#F6F6F6" transform="translate(711.024961, 742.369732) scale(1, -1) translate(-711.024961, -742.369732) " points="744.863722 761.894913 711.024462 781.420095 677.1862 761.894913 677.1862 722.84455 711.024462 703.319369 744.863722 722.84455"></polygon>
                <polygon id="Fill-259" fill="#F6F6F6" transform="translate(846.380703, 742.369732) scale(1, -1) translate(-846.380703, -742.369732) " points="880.219464 761.894913 846.380204 781.420095 812.541942 761.894913 812.541942 722.84455 846.380204 703.319369 880.219464 722.84455"></polygon>
                <polygon id="Fill-261" fill="#F0F0F0" transform="translate(914.058424, 742.369732) scale(1, -1) translate(-914.058424, -742.369732) " points="947.897185 761.894913 914.057925 781.420095 880.219664 761.894913 880.219664 722.84455 914.057925 703.319369 947.897185 722.84455"></polygon>
                <polygon id="Fill-263" fill="#FAFAFA" transform="translate(981.736345, 742.369732) scale(1, -1) translate(-981.736345, -742.369732) " points="1015.57511 761.894913 981.735846 781.420095 947.897584 761.894913 947.897584 722.84455 981.735846 703.319369 1015.57511 722.84455"></polygon>
                <polygon id="Fill-265" fill="#F6F6F6" transform="translate(643.347040, 742.369732) scale(1, -1) translate(-643.347040, -742.369732) " points="677.185801 761.894913 643.346542 781.420095 609.50828 761.894913 609.50828 722.84455 643.346542 703.319369 677.185801 722.84455"></polygon>
                <polygon id="Fill-267" fill="#ECECEC" transform="translate(575.669219, 742.369732) scale(1, -1) translate(-575.669219, -742.369732) " points="609.50798 761.894913 575.668721 781.420095 541.830459 761.894913 541.830459 722.84455 575.668721 703.319369 609.50798 722.84455"></polygon>
                <polygon id="Fill-269" fill="#F0F0F0" transform="translate(1049.413967, 742.369732) scale(1, -1) translate(-1049.413967, -742.369732) " points="1083.25273 761.894913 1049.41347 781.420095 1015.57521 761.894913 1015.57521 722.84455 1049.41347 703.319369 1083.25273 722.84455"></polygon>
                <polygon id="Fill-271" fill="#F6F6F6" transform="translate(508.006365, 742.369732) scale(1, -1) translate(-508.006365, -742.369732) " points="541.845126 761.894913 508.005866 781.420095 474.167605 761.894913 474.167605 722.84455 508.005866 703.319369 541.845126 722.84455"></polygon>
                <polygon id="Fill-273" fill="#F0F0F0" transform="translate(812.541743, 683.782620) scale(1, -1) translate(-812.541743, -683.782620) " points="846.380504 703.307801 812.541244 722.832983 778.702982 703.307801 778.702982 664.257438 812.541244 644.732257 846.380504 664.257438"></polygon>
                <polygon id="Fill-275" fill="#F6F6F6" transform="translate(880.219564, 683.782620) scale(1, -1) translate(-880.219564, -683.782620) " points="914.058325 703.307801 880.219065 722.832983 846.380803 703.307801 846.380803 664.257438 880.219065 644.732257 914.058325 664.257438"></polygon>
                <polygon id="Fill-277" fill="#F6F6F6" transform="translate(947.838761, 684.050363) scale(1, -1) translate(-947.838761, -684.050363) " points="981.677522 703.575544 947.838262 723.100726 914 703.575544 914 664.525181 947.838262 645 981.677522 664.525181"></polygon>
                <polygon id="Fill-277-Copy" fill="#00B1B0" transform="translate(1353.838761, 217.050363) scale(1, -1) translate(-1353.838761, -217.050363) " points="1387.67752 236.575544 1353.83826 256.100726 1320 236.575544 1320 197.525181 1353.83826 178 1387.67752 197.525181"></polygon>
                <polygon id="Fill-279" fill="#FAFAFA" transform="translate(1015.575206, 683.782620) scale(1, -1) translate(-1015.575206, -683.782620) " points="1049.41397 703.307801 1015.57471 722.832983 981.736445 703.307801 981.736445 664.257438 1015.57471 644.732257 1049.41397 664.257438"></polygon>
                <polygon id="Fill-281" fill="#F6F6F6" transform="translate(744.863822, 683.782520) scale(1, -1) translate(-744.863822, -683.782520) " points="778.702583 703.307702 744.863323 722.832883 711.025061 703.307702 711.025061 664.257339 744.863323 644.732157 778.702583 664.257339"></polygon>
                <polygon id="Fill-283" fill="#F0F0F0" transform="translate(677.186001, 683.782520) scale(1, -1) translate(-677.186001, -683.782520) " points="711.024762 703.307702 677.185502 722.832883 643.34724 703.307702 643.34724 664.257339 677.185502 644.732157 711.024762 664.257339"></polygon>
                <polygon id="Fill-285" fill="#F6F6F6" transform="translate(609.508180, 683.782520) scale(1, -1) translate(-609.508180, -683.782520) " points="643.346941 703.307702 609.507681 722.832883 575.669419 703.307702 575.669419 664.257339 609.507681 644.732157 643.346941 664.257339"></polygon>
                <polygon id="Fill-287" fill="#FAFAFA" transform="translate(541.935726, 683.782520) scale(1, -1) translate(-541.935726, -683.782520) " points="575.774487 703.307702 541.935227 722.832883 508.096965 703.307702 508.096965 664.257339 541.935227 644.732157 575.774487 664.257339"></polygon>
                <polygon id="Fill-289" fill="#F6F6F6" transform="translate(778.702782, 625.195508) scale(1, -1) translate(-778.702782, -625.195508) " points="812.541543 644.720689 778.702283 664.245871 744.864021 644.720689 744.864021 605.670326 778.702283 586.145145 812.541543 605.670326"></polygon>
                <polygon id="Fill-291" fill="#FAFAFA" transform="translate(711.024961, 625.195508) scale(1, -1) translate(-711.024961, -625.195508) " points="744.863722 644.720689 711.024462 664.245871 677.1862 644.720689 677.1862 605.670326 711.024462 586.145145 744.863722 605.670326"></polygon>
                <polygon id="Fill-293" fill="#F6F6F6" transform="translate(846.380703, 625.195508) scale(1, -1) translate(-846.380703, -625.195508) " points="880.219464 644.720689 846.380204 664.245871 812.541942 644.720689 812.541942 605.670326 846.380204 586.145145 880.219464 605.670326"></polygon>
                <polygon id="Fill-295" fill="#FAFAFA" transform="translate(914.058424, 625.195508) scale(1, -1) translate(-914.058424, -625.195508) " points="947.897185 644.720689 914.057925 664.245871 880.219664 644.720689 880.219664 605.670326 914.057925 586.145145 947.897185 605.670326"></polygon>
                <polygon id="Fill-297" fill="#F6F6F6" transform="translate(981.736345, 625.195508) scale(1, -1) translate(-981.736345, -625.195508) " points="1015.57511 644.720689 981.735846 664.245871 947.897584 644.720689 947.897584 605.670326 981.735846 586.145145 1015.57511 605.670326"></polygon>
                <polygon id="Fill-299" fill="#FAFAFA" transform="translate(643.347040, 625.195508) scale(1, -1) translate(-643.347040, -625.195508) " points="677.185801 644.720689 643.346542 664.245871 609.50828 644.720689 609.50828 605.670326 643.346542 586.145145 677.185801 605.670326"></polygon>
                <polygon id="Fill-301" fill="#F6F6F6" transform="translate(575.669219, 625.195508) scale(1, -1) translate(-575.669219, -625.195508) " points="609.50798 644.720689 575.668721 664.245871 541.830459 644.720689 541.830459 605.670326 575.668721 586.145145 609.50798 605.670326"></polygon>
                <polygon id="Fill-303" fill="#F0F0F0" transform="translate(1049.413967, 625.195508) scale(1, -1) translate(-1049.413967, -625.195508) " points="1083.25273 644.720689 1049.41347 664.245871 1015.57521 644.720689 1015.57521 605.670326 1049.41347 586.145145 1083.25273 605.670326"></polygon>
                <polygon id="Fill-305" fill="#F6F6F6" transform="translate(508.006365, 625.195508) scale(1, -1) translate(-508.006365, -625.195508) " points="541.845126 644.720689 508.005866 664.245871 474.167605 644.720689 474.167605 605.670326 508.005866 586.145145 541.845126 605.670326"></polygon>
                <polygon id="Fill-307" fill="#F6F6F6" transform="translate(812.541743, 566.608396) scale(1, -1) translate(-812.541743, -566.608396) " points="846.380504 586.133577 812.541244 605.658759 778.702982 586.133577 778.702982 547.083215 812.541244 527.558033 846.380504 547.083215"></polygon>
                <polygon id="Fill-309" fill="#FAFAFA" transform="translate(880.219564, 566.608396) scale(1, -1) translate(-880.219564, -566.608396) " points="914.058325 586.133577 880.219065 605.658759 846.380803 586.133577 846.380803 547.083215 880.219065 527.558033 914.058325 547.083215"></polygon>
                <polygon id="Fill-311" fill="#F6F6F6" transform="translate(947.897385, 566.608396) scale(1, -1) translate(-947.897385, -566.608396) " points="981.736146 586.133577 947.896886 605.658759 914.058624 586.133577 914.058624 547.083215 947.896886 527.558033 981.736146 547.083215"></polygon>
                <polygon id="Fill-313" fill="#FAFAFA" transform="translate(1015.575206, 566.608396) scale(1, -1) translate(-1015.575206, -566.608396) " points="1049.41397 586.133577 1015.57471 605.658759 981.736445 586.133577 981.736445 547.083215 1015.57471 527.558033 1049.41397 547.083215"></polygon>
                <polygon id="Fill-315" fill="#F6F6F6" transform="translate(744.863822, 566.608396) scale(1, -1) translate(-744.863822, -566.608396) " points="778.702583 586.133577 744.863323 605.658759 711.025061 586.133577 711.025061 547.083215 744.863323 527.558033 778.702583 547.083215"></polygon>
                <polygon id="Fill-317" fill="#F6F6F6" transform="translate(677.186001, 566.608396) scale(1, -1) translate(-677.186001, -566.608396) " points="711.024762 586.133577 677.185502 605.658759 643.34724 586.133577 643.34724 547.083215 677.185502 527.558033 711.024762 547.083215"></polygon>
                <polygon id="Fill-319" fill="#F6F6F6" transform="translate(609.508180, 566.608396) scale(1, -1) translate(-609.508180, -566.608396) " points="643.346941 586.133577 609.507681 605.658759 575.669419 586.133577 575.669419 547.083215 609.507681 527.558033 643.346941 547.083215"></polygon>
                <polygon id="Fill-321" fill="#ECECEC" transform="translate(541.935726, 566.608396) scale(1, -1) translate(-541.935726, -566.608396) " points="575.774487 586.133577 541.935227 605.658759 508.096965 586.133577 508.096965 547.083215 541.935227 527.558033 575.774487 547.083215"></polygon>
                <polygon id="Fill-323" fill="#F6F6F6" transform="translate(778.702782, 508.057981) scale(1, -1) translate(-778.702782, -508.057981) " points="812.541543 527.583163 778.702283 547.108344 744.864021 527.583163 744.864021 488.5328 778.702283 469.007618 812.541543 488.5328"></polygon>
                <polygon id="Fill-325" fill="#F6F6F6" transform="translate(711.024961, 508.057981) scale(1, -1) translate(-711.024961, -508.057981) " points="744.863722 527.583163 711.024462 547.108344 677.1862 527.583163 677.1862 488.5328 711.024462 469.007618 744.863722 488.5328"></polygon>
                <polygon id="Fill-327" fill="#F0F0F0" transform="translate(846.380703, 508.057981) scale(1, -1) translate(-846.380703, -508.057981) " points="880.219464 527.583163 846.380204 547.108344 812.541942 527.583163 812.541942 488.5328 846.380204 469.007618 880.219464 488.5328"></polygon>
                <polygon id="Fill-329" fill="#ECECEC" transform="translate(914.058424, 508.057981) scale(1, -1) translate(-914.058424, -508.057981) " points="947.897185 527.583163 914.057925 547.108344 880.219664 527.583163 880.219664 488.5328 914.057925 469.007618 947.897185 488.5328"></polygon>
                <polygon id="Fill-331" fill="#F6F6F6" transform="translate(981.736345, 508.057981) scale(1, -1) translate(-981.736345, -508.057981) " points="1015.57511 527.583163 981.735846 547.108344 947.897584 527.583163 947.897584 488.5328 981.735846 469.007618 1015.57511 488.5328"></polygon>
                <polygon id="Fill-333" fill="#FAFAFA" transform="translate(643.347040, 508.057981) scale(1, -1) translate(-643.347040, -508.057981) " points="677.185801 527.583163 643.346542 547.108344 609.50828 527.583163 609.50828 488.5328 643.346542 469.007618 677.185801 488.5328"></polygon>
                <polygon id="Fill-335" fill="#F6F6F6" transform="translate(575.669219, 508.057981) scale(1, -1) translate(-575.669219, -508.057981) " points="609.50798 527.583163 575.668721 547.108344 541.830459 527.583163 541.830459 488.5328 575.668721 469.007618 609.50798 488.5328"></polygon>
                <polygon id="Fill-337" fill="#F6F6F6" transform="translate(1049.838761, 508.050363) scale(1, -1) translate(-1049.838761, -508.050363) " points="1083.67752 527.575544 1049.83826 547.100726 1016 527.575544 1016 488.525181 1049.83826 469 1083.67752 488.525181"></polygon>
                <polygon id="Fill-337-Copy" fill="#F6F6F6" transform="translate(981.838761, 391.050363) scale(1, -1) translate(-981.838761, -391.050363) " points="1015.67752 410.575544 981.838262 430.100726 948 410.575544 948 371.525181 981.838262 352 1015.67752 371.525181"></polygon>
                <polygon id="Fill-339" fill="#F6F6F6" transform="translate(508.006365, 508.057981) scale(1, -1) translate(-508.006365, -508.057981) " points="541.845126 527.583163 508.005866 547.108344 474.167605 527.583163 474.167605 488.5328 508.005866 469.007618 541.845126 488.5328"></polygon>
                <polygon id="Fill-343" fill="#F6F6F6" transform="translate(880.219564, 449.470869) scale(1, -1) translate(-880.219564, -449.470869) " points="914.058325 468.996051 880.219065 488.521232 846.380803 468.996051 846.380803 429.945688 880.219065 410.420506 914.058325 429.945688"></polygon>
                <polygon id="Fill-345" fill="#FAFAFA" transform="translate(947.838761, 449.050363) scale(1, -1) translate(-947.838761, -449.050363) " points="981.677522 468.575544 947.838262 488.100726 914 468.575544 914 429.525181 947.838262 410 981.677522 429.525181"></polygon>
                <polygon id="Fill-347" fill="#EBEBEB" transform="translate(1015.838761, 449.050363) scale(1, -1) translate(-1015.838761, -449.050363) " points="1049.67752 468.575544 1015.83826 488.100726 982 468.575544 982 429.525181 1015.83826 410 1049.67752 429.525181"></polygon>
                <polygon id="Fill-349" fill="#F0F0F0" transform="translate(744.863822, 449.470869) scale(1, -1) translate(-744.863822, -449.470869) " points="778.702583 468.996051 744.863323 488.521232 711.025061 468.996051 711.025061 429.945688 744.863323 410.420506 778.702583 429.945688"></polygon>
                <polygon id="Fill-351" fill="#F6F6F6" transform="translate(677.186001, 449.470869) scale(1, -1) translate(-677.186001, -449.470869) " points="711.024762 468.996051 677.185502 488.521232 643.34724 468.996051 643.34724 429.945688 677.185502 410.420506 711.024762 429.945688"></polygon>
                <polygon id="Fill-353" fill="#ECECEC" transform="translate(609.838761, 449.050363) scale(1, -1) translate(-609.838761, -449.050363) " points="643.677522 468.575544 609.838262 488.100726 576 468.575544 576 429.525181 609.838262 410 643.677522 429.525181"></polygon>
                <polygon id="Fill-355" fill="#F0F0F0" transform="translate(541.935726, 449.470869) scale(1, -1) translate(-541.935726, -449.470869) " points="575.774487 468.996051 541.935227 488.521232 508.096965 468.996051 508.096965 429.945688 541.935227 410.420506 575.774487 429.945688"></polygon>
                <polygon id="Fill-359" fill="#F6F6F6" transform="translate(271.369422, 332.652845) scale(1, -1) translate(-271.369422, -332.652845) " points="305.208183 352.178027 271.368923 371.703208 237.530661 352.178027 237.530661 313.127664 271.368923 293.602482 305.208183 313.127664"></polygon>
                <polygon id="Fill-365" fill="#F6F6F6" transform="translate(68.335859, 332.652845) scale(1, -1) translate(-68.335859, -332.652845) " points="102.17462 352.178027 68.3353601 371.703208 34.4970981 352.178027 34.4970981 313.127664 68.3353601 293.602482 102.17462 313.127664"></polygon>
                <polygon id="Fill-394" fill="#ECECEC" transform="translate(34.496899, 39.753983) scale(1, -1) translate(-34.496899, -39.753983) " points="68.3356594 59.2791643 34.4963997 78.8043457 0.658137738 59.2791643 0.658137738 20.2288013 34.4963997 0.70361989 68.3356594 20.2288013"></polygon>
                <polygon id="Fill-407" fill="#F6F6F6" transform="translate(644.411889, 392.248027) scale(1, -1) translate(-644.411889, -392.248027) " points="678.250649 411.773208 644.41139 431.29839 610.573128 411.773208 610.573128 372.722846 644.41139 353.197664 678.250649 372.722846"></polygon>
                <polygon id="Fill-409" fill="#EBEBEB" transform="translate(576.838761, 392.050363) scale(1, -1) translate(-576.838761, -392.050363) " points="610.677522 411.575544 576.838262 431.100726 543 411.575544 543 372.525181 576.838262 353 610.677522 372.525181"></polygon>
                <polygon id="Fill-409-Copy-2" fill="#EBEBEB" transform="translate(610.838761, 217.050363) scale(1, -1) translate(-610.838761, -217.050363) " points="644.677522 236.575544 610.838262 256.100726 577 236.575544 577 197.525181 610.838262 178 644.677522 197.525181"></polygon>
                <polygon id="Fill-413" fill="#F6F6F6" transform="translate(509.071213, 392.248027) scale(1, -1) translate(-509.071213, -392.248027) " points="542.909974 411.773208 509.070715 431.29839 475.232453 411.773208 475.232453 372.722846 509.070715 353.197664 542.909974 372.722846"></polygon>
                <polygon id="Fill-425" fill="#F6F6F6" transform="translate(610.573028, 333.660915) scale(1, -1) translate(-610.573028, -333.660915) " points="644.411789 353.186097 610.572529 372.711278 576.734267 353.186097 576.734267 314.135734 610.572529 294.610552 644.411789 314.135734"></polygon>
                <polygon id="Fill-449" fill="#F6F6F6" transform="translate(1353.714064, 333.717057) scale(1, -1) translate(-1353.714064, -333.717057) " points="1387.55282 353.242239 1353.71356 372.76742 1319.8753 353.242239 1319.8753 314.191876 1353.71356 294.666695 1387.55282 314.191876"></polygon>
                <polygon id="Fill-451" fill="#F6F6F6" transform="translate(1421.391885, 333.717057) scale(1, -1) translate(-1421.391885, -333.717057) " points="1455.23065 353.242239 1421.39139 372.76742 1387.55312 353.242239 1387.55312 314.191876 1421.39139 294.666695 1455.23065 314.191876"></polygon>
                <polygon id="Fill-486" fill="#F6F6F6" transform="translate(1394.893711, 1012.328301) scale(1, -1) translate(-1394.893711, -1012.328301) " points="1390.27791 1009.66528 1399.50952 1014.99132 1399.50952 1009.66528"></polygon>
                <polygon id="Fill-494" fill="#F0F0F0" transform="translate(1376.611191, 976.721271) scale(1, -1) translate(-1376.611191, -976.721271) " points="1384.848 938.451217 1353.71376 956.414783 1353.71376 995.466143 1387.55302 1014.99132 1399.50862 1008.09269 1399.50862 943.78923 1390.25805 938.451217"></polygon>
                <polygon id="Fill-496" fill="#F6F6F6" transform="translate(1319.874904, 976.721271) scale(1, -1) translate(-1319.874904, -976.721271) " points="1317.16988 938.451217 1286.03564 956.414783 1286.03564 995.466143 1319.8749 1014.99132 1353.71416 995.466143 1353.71416 956.414783 1322.57993 938.451217"></polygon>
                <polygon id="Fill-504" fill="#F6F6F6" transform="translate(1353.714064, 918.914667) scale(1, -1) translate(-1353.714064, -918.914667) " points="1387.55282 938.439849 1353.71356 957.96503 1319.8753 938.439849 1319.8753 899.389486 1353.71356 879.864304 1387.55282 899.389486"></polygon>
                <polygon id="Fill-508" fill="#F6F6F6" transform="translate(1393.531220, 918.914667) scale(1, -1) translate(-1393.531220, -918.914667) " points="1387.55292 899.389486 1387.55292 938.439849 1399.50952 945.33848 1399.50952 892.490854"></polygon>
                <polygon id="Fill-510" fill="#FAFAFA" transform="translate(1218.358322, 918.914667) scale(1, -1) translate(-1218.358322, -918.914667) " points="1252.19708 938.439849 1218.35782 957.96503 1184.51956 938.439849 1184.51956 899.389486 1218.35782 879.864304 1252.19708 899.389486"></polygon>
                <polygon id="Fill-512" fill="#F6F6F6" transform="translate(1150.680401, 918.914667) scale(1, -1) translate(-1150.680401, -918.914667) " points="1184.51916 938.439849 1150.6799 957.96503 1116.84164 938.439849 1116.84164 899.389486 1150.6799 879.864304 1184.51916 899.389486"></polygon>
                <polygon id="Fill-516" fill="#68C7C5" transform="translate(1376.611291, 860.327556) scale(1, -1) translate(-1376.611291, -860.327556) " points="1353.71386 840.802873 1353.71386 879.853236 1387.55312 899.37742 1399.50872 892.478788 1399.50872 828.176323 1387.55312 821.277691"></polygon>
                <polygon id="Fill-518" fill="#F6F6F6" transform="translate(1319.875103, 860.327456) scale(1, -1) translate(-1319.875103, -860.327456) " points="1353.71386 879.852637 1319.8746 899.377819 1286.03634 879.852637 1286.03634 840.802274 1319.8746 821.277093 1353.71386 840.802274"></polygon>
                <polygon id="Fill-520" fill="#F6F6F6" transform="translate(1252.197182, 860.327456) scale(1, -1) translate(-1252.197182, -860.327456) " points="1286.03594 879.852637 1252.19668 899.377819 1218.35842 879.852637 1218.35842 840.802274 1252.19668 821.277093 1286.03594 840.802274"></polygon>
                <polygon id="Fill-522" fill="#F6F6F6" transform="translate(1184.519361, 860.327456) scale(1, -1) translate(-1184.519361, -860.327456) " points="1218.35812 879.852637 1184.51886 899.377819 1150.6806 879.852637 1150.6806 840.802274 1184.51886 821.277093 1218.35812 840.802274"></polygon>
                <polygon id="Fill-524" fill="#ECECEC" transform="translate(1116.947007, 860.327456) scale(1, -1) translate(-1116.947007, -860.327456) " points="1150.78577 879.852637 1116.94651 899.377819 1083.10825 879.852637 1083.10825 840.802274 1116.94651 821.277093 1150.78577 840.802274"></polygon>
                <polygon id="Fill-526" fill="#F6F6F6" transform="translate(1353.714064, 801.777041) scale(1, -1) translate(-1353.714064, -801.777041) " points="1387.55282 821.302222 1353.71356 840.827404 1319.8753 821.302222 1319.8753 782.251859 1353.71356 762.726678 1387.55282 782.251859"></polygon>
                <polygon id="Fill-528" fill="#F6F6F6" transform="translate(1286.036143, 801.777041) scale(1, -1) translate(-1286.036143, -801.777041) " points="1319.8749 821.302222 1286.03564 840.827404 1252.19738 821.302222 1252.19738 782.251859 1286.03564 762.726678 1319.8749 782.251859"></polygon>
                <polygon id="Fill-530" fill="#F0F0F0" transform="translate(1393.531220, 801.777340) scale(1, -1) translate(-1393.531220, -801.777340) " points="1387.55292 782.252159 1387.55292 821.302521 1399.50952 828.201153 1399.50952 775.353527"></polygon>
                <polygon id="Fill-532" fill="#FAFAFA" transform="translate(1218.358322, 801.777041) scale(1, -1) translate(-1218.358322, -801.777041) " points="1252.19708 821.302222 1218.35782 840.827404 1184.51956 821.302222 1184.51956 782.251859 1218.35782 762.726678 1252.19708 782.251859"></polygon>
                <polygon id="Fill-534" fill="#F6F6F6" transform="translate(1150.680401, 801.777041) scale(1, -1) translate(-1150.680401, -801.777041) " points="1184.51916 821.302222 1150.6799 840.827404 1116.84164 821.302222 1116.84164 782.251859 1150.6799 762.726678 1184.51916 782.251859"></polygon>
                <polygon id="Fill-536" fill="#F6F6F6" transform="translate(1083.017647, 801.777041) scale(1, -1) translate(-1083.017647, -801.777041) " points="1116.85641 821.302222 1083.01715 840.827404 1049.17889 821.302222 1049.17889 782.251859 1083.01715 762.726678 1116.85641 782.251859"></polygon>
                <polygon id="Fill-538" fill="#F6F6F6" transform="translate(1376.611291, 743.189829) scale(1, -1) translate(-1376.611291, -743.189829) " points="1353.71386 723.664648 1353.71386 762.715011 1387.55312 782.240192 1399.50872 775.341561 1399.50872 711.038098 1387.55312 704.139466"></polygon>
                <polygon id="Fill-540" fill="#F0F0F0" transform="translate(1319.875103, 743.189929) scale(1, -1) translate(-1319.875103, -743.189929) " points="1353.71386 762.71511 1319.8746 782.240292 1286.03634 762.71511 1286.03634 723.664748 1319.8746 704.139566 1353.71386 723.664748"></polygon>
                <polygon id="Fill-542" fill="#F6F6F6" transform="translate(1252.197182, 743.189929) scale(1, -1) translate(-1252.197182, -743.189929) " points="1286.03594 762.71511 1252.19668 782.240292 1218.35842 762.71511 1218.35842 723.664748 1252.19668 704.139566 1286.03594 723.664748"></polygon>
                <polygon id="Fill-544" fill="#F48365" transform="translate(1184.519361, 743.189929) scale(1, -1) translate(-1184.519361, -743.189929) " points="1218.35812 762.71511 1184.51886 782.240292 1150.6806 762.71511 1150.6806 723.664748 1184.51886 704.139566 1218.35812 723.664748"></polygon>
                <polygon id="Fill-546" fill="#F0F0F0" transform="translate(1116.947007, 743.189929) scale(1, -1) translate(-1116.947007, -743.189929) " points="1150.78577 762.71511 1116.94651 782.240292 1083.10825 762.71511 1083.10825 723.664748 1116.94651 704.139566 1150.78577 723.664748"></polygon>
                <polygon id="Fill-548" fill="#F6F6F6" transform="translate(1353.714064, 685.967087) scale(1, -1) translate(-1353.714064, -685.967087) " points="1387.55282 705.492268 1353.71356 725.01745 1319.8753 705.492268 1319.8753 666.441905 1353.71356 646.916724 1387.55282 666.441905"></polygon>
                <polygon id="Fill-550" fill="#F6F6F6" transform="translate(1286.036143, 685.967087) scale(1, -1) translate(-1286.036143, -685.967087) " points="1319.8749 705.492268 1286.03564 725.01745 1252.19738 705.492268 1252.19738 666.441905 1286.03564 646.916724 1319.8749 666.441905"></polygon>
                <polygon id="Fill-552" fill="#F6F6F6" transform="translate(1393.531220, 685.967386) scale(1, -1) translate(-1393.531220, -685.967386) " points="1387.55292 666.442204 1387.55292 705.492567 1399.50952 712.391199 1399.50952 659.543573"></polygon>
                <polygon id="Fill-554" fill="#F6F6F6" transform="translate(1218.358322, 685.967087) scale(1, -1) translate(-1218.358322, -685.967087) " points="1252.19708 705.492268 1218.35782 725.01745 1184.51956 705.492268 1184.51956 666.441905 1218.35782 646.916724 1252.19708 666.441905"></polygon>
                <polygon id="Fill-556" fill="#EBEBEB" transform="translate(1150.680401, 685.967087) scale(1, -1) translate(-1150.680401, -685.967087) " points="1184.51916 705.492268 1150.6799 725.01745 1116.84164 705.492268 1116.84164 666.441905 1150.6799 646.916724 1184.51916 666.441905"></polygon>
                <polygon id="Fill-558" fill="#F6F6F6" transform="translate(1083.017647, 685.967087) scale(1, -1) translate(-1083.017647, -685.967087) " points="1116.85641 705.492268 1083.01715 725.01745 1049.17889 705.492268 1049.17889 666.441905 1083.01715 646.916724 1116.85641 666.441905"></polygon>
                <polygon id="Fill-560" fill="#F0F0F0" transform="translate(1376.611291, 627.379875) scale(1, -1) translate(-1376.611291, -627.379875) " points="1353.71386 607.854694 1353.71386 646.905057 1387.55312 666.430238 1399.50872 659.531607 1399.50872 595.228144 1387.55312 588.329512"></polygon>
                <polygon id="Fill-562" fill="#F6F6F6" transform="translate(1319.875103, 627.379975) scale(1, -1) translate(-1319.875103, -627.379975) " points="1353.71386 646.905156 1319.8746 666.430338 1286.03634 646.905156 1286.03634 607.854793 1319.8746 588.329612 1353.71386 607.854793"></polygon>
                <polygon id="Fill-564" fill="#F0F0F0" transform="translate(1252.197182, 627.379975) scale(1, -1) translate(-1252.197182, -627.379975) " points="1286.03594 646.905156 1252.19668 666.430338 1218.35842 646.905156 1218.35842 607.854793 1252.19668 588.329612 1286.03594 607.854793"></polygon>
                <polygon id="Fill-566" fill="#F6F6F6" transform="translate(1184.519361, 627.379975) scale(1, -1) translate(-1184.519361, -627.379975) " points="1218.35812 646.905156 1184.51886 666.430338 1150.6806 646.905156 1150.6806 607.854793 1184.51886 588.329612 1218.35812 607.854793"></polygon>
                <polygon id="Fill-568" fill="#FAFAFA" transform="translate(1116.947007, 627.379975) scale(1, -1) translate(-1116.947007, -627.379975) " points="1150.78577 646.905156 1116.94651 666.430338 1083.10825 646.905156 1083.10825 607.854793 1116.94651 588.329612 1150.78577 607.854793"></polygon>
                <polygon id="Fill-570" fill="#F6F6F6" transform="translate(1353.714064, 568.792863) scale(1, -1) translate(-1353.714064, -568.792863) " points="1387.55282 588.318044 1353.71356 607.843226 1319.8753 588.318044 1319.8753 549.267682 1353.71356 529.7425 1387.55282 549.267682"></polygon>
                <polygon id="Fill-572" fill="#00A8CB" transform="translate(1286.036143, 568.792863) scale(1, -1) translate(-1286.036143, -568.792863) " points="1319.8749 588.318044 1286.03564 607.843226 1252.19738 588.318044 1252.19738 549.267682 1286.03564 529.7425 1319.8749 549.267682"></polygon>
                <polygon id="Fill-574" fill="#F6F6F6" transform="translate(1393.531220, 568.792763) scale(1, -1) translate(-1393.531220, -568.792763) " points="1387.55292 549.267083 1387.55292 588.318443 1399.50952 595.217075 1399.50952 542.368452"></polygon>
                <polygon id="Fill-576" fill="#FAFAFA" transform="translate(1218.358322, 568.792863) scale(1, -1) translate(-1218.358322, -568.792863) " points="1252.19708 588.318044 1218.35782 607.843226 1184.51956 588.318044 1184.51956 549.267682 1218.35782 529.7425 1252.19708 549.267682"></polygon>
                <polygon id="Fill-578" fill="#F6F6F6" transform="translate(1150.680401, 568.792863) scale(1, -1) translate(-1150.680401, -568.792863) " points="1184.51916 588.318044 1150.6799 607.843226 1116.84164 588.318044 1116.84164 549.267682 1150.6799 529.7425 1184.51916 549.267682"></polygon>
                <polygon id="Fill-580" fill="#F6F6F6" transform="translate(1083.017647, 568.792863) scale(1, -1) translate(-1083.017647, -568.792863) " points="1116.85641 588.318044 1083.01715 607.843226 1049.17889 588.318044 1049.17889 549.267682 1083.01715 529.7425 1116.85641 549.267682"></polygon>
                <polygon id="Fill-582" fill="#F6F6F6" transform="translate(1387.552924, 510.205851) scale(1, -1) translate(-1387.552924, -510.205851) " points="1421.39169 529.731032 1387.55243 549.256214 1353.71416 529.731032 1353.71416 490.680669 1387.55243 471.155488 1421.39169 490.680669"></polygon>
                <polygon id="Fill-585" fill="#F6F6F6" transform="translate(1319.875103, 510.205751) scale(1, -1) translate(-1319.875103, -510.205751) " points="1353.71386 529.730933 1319.8746 549.256114 1286.03634 529.730933 1286.03634 490.68057 1319.8746 471.155388 1353.71386 490.68057"></polygon>
                <polygon id="Fill-587" fill="#F6F6F6" transform="translate(1252.197182, 510.205751) scale(1, -1) translate(-1252.197182, -510.205751) " points="1286.03594 529.730933 1252.19668 549.256114 1218.35842 529.730933 1218.35842 490.68057 1252.19668 471.155388 1286.03594 490.68057"></polygon>
                <polygon id="Fill-589" fill="#F6F6F6" transform="translate(1387.838761, 275.050363) scale(1, -1) translate(-1387.838761, -275.050363) " points="1421.67752 294.575544 1387.83826 314.100726 1354 294.575544 1354 255.525181 1387.83826 236 1421.67752 255.525181"></polygon>
                <polygon id="Fill-591-Copy" fill="#ECECEC" transform="translate(1285.838761, 334.050363) scale(1, -1) translate(-1285.838761, -334.050363) " points="1319.67752 353.575544 1285.83826 373.100726 1252 353.575544 1252 314.525181 1285.83826 295 1319.67752 314.525181"></polygon>
                <polygon id="Fill-593" fill="#F6F6F6" transform="translate(1353.714064, 451.655436) scale(1, -1) translate(-1353.714064, -451.655436) " points="1387.55282 471.180617 1353.71356 490.705799 1319.8753 471.180617 1319.8753 432.130254 1353.71356 412.605073 1387.55282 432.130254"></polygon>
                <polygon id="Fill-595" fill="#F6F6F6" transform="translate(1286.036143, 451.655436) scale(1, -1) translate(-1286.036143, -451.655436) " points="1319.8749 471.180617 1286.03564 490.705799 1252.19738 471.180617 1252.19738 432.130254 1286.03564 412.605073 1319.8749 432.130254"></polygon>
                <polygon id="Fill-597" fill="#F0F0F0" transform="translate(1421.391885, 451.655436) scale(1, -1) translate(-1421.391885, -451.655436) " points="1455.23065 471.180617 1421.39139 490.705799 1387.55312 471.180617 1387.55312 432.130254 1421.39139 412.605073 1455.23065 432.130254"></polygon>
                <polygon id="Fill-600" fill="#FAFAFA" transform="translate(1218.358322, 451.655436) scale(1, -1) translate(-1218.358322, -451.655436) " points="1252.19708 471.180617 1218.35782 490.705799 1184.51956 471.180617 1184.51956 432.130254 1218.35782 412.605073 1252.19708 432.130254"></polygon>
                <polygon id="Fill-602" fill="#F6F6F6" transform="translate(1150.680401, 451.655436) scale(1, -1) translate(-1150.680401, -451.655436) " points="1184.51916 471.180617 1150.6799 490.705799 1116.84164 471.180617 1116.84164 432.130254 1150.6799 412.605073 1184.51916 432.130254"></polygon>
                <polygon id="Fill-604" fill="#F6F6F6" transform="translate(1083.017647, 451.655436) scale(1, -1) translate(-1083.017647, -451.655436) " points="1116.85641 471.180617 1083.01715 490.705799 1049.17889 471.180617 1049.17889 432.130254 1083.01715 412.605073 1116.85641 432.130254"></polygon>
                <polygon id="Fill-606" fill="#E6BB83" transform="translate(1387.552924, 393.068324) scale(1, -1) translate(-1387.552924, -393.068324) " points="1421.39169 412.593505 1387.55243 432.118687 1353.71416 412.593505 1353.71416 373.543142 1387.55243 354.017961 1421.39169 373.543142"></polygon>
                <polygon id="Fill-609" fill="#F0F0F0" transform="translate(1319.875103, 393.068224) scale(1, -1) translate(-1319.875103, -393.068224) " points="1353.71386 412.593406 1319.8746 432.118587 1286.03634 412.593406 1286.03634 373.543043 1319.8746 354.017861 1353.71386 373.543043"></polygon>
                <polygon id="Fill-611" fill="#F6F6F6" transform="translate(1252.197182, 393.068224) scale(1, -1) translate(-1252.197182, -393.068224) " points="1286.03594 412.593406 1252.19668 432.118587 1218.35842 412.593406 1218.35842 373.543043 1252.19668 354.017861 1286.03594 373.543043"></polygon>
                <polygon id="Fill-613" fill="#ECECEC" transform="translate(1184.519361, 393.068224) scale(1, -1) translate(-1184.519361, -393.068224) " points="1218.35812 412.593406 1184.51886 432.118587 1150.6806 412.593406 1150.6806 373.543043 1184.51886 354.017861 1218.35812 373.543043"></polygon>
            </g>
        </g>
    </g>
</svg>