<?xml version="1.0" encoding="utf-8"?>
<!-- Generator: Adobe Illustrator 18.1.0, SVG Export Plug-In . SVG Version: 6.00 Build 0)  -->
<svg version="1.1" id="Capa_1" xmlns="http://www.w3.org/2000/svg" xmlns:xlink="http://www.w3.org/1999/xlink" x="0px" y="0px"
	 viewBox="0 0 31.4 36" enable-background="new 0 0 31.4 36" xml:space="preserve">
<g>
	<defs>
		<rect id="SVGID_1_" width="31.4" height="36"/>
	</defs>
	<clipPath id="SVGID_2_">
		<use xlink:href="#SVGID_1_"  overflow="visible"/>
	</clipPath>
	<path clip-path="url(#SVGID_2_)" fill="#EE4036" d="M0,9.3v17.5c0,0.2,0.1,0.4,0.3,0.5L15.4,36c0.2,0.1,0.4,0.1,0.5,0l15.2-8.7
		c0.2-0.1,0.3-0.3,0.3-0.5V9.3c0-0.2-0.1-0.4-0.3-0.5L15.9,0.1c-0.2-0.1-0.4-0.1-0.5,0L0.3,8.8C0.1,8.9,0,9.1,0,9.3"/>
	<path clip-path="url(#SVGID_2_)" fill="#FFFFFF" d="M11.6,11c-2.9,0-4.9,2.7-4.9,5.6c0,5.1,3.9,7.2,8.9,10.4
		c5-3.3,8.9-5.4,8.9-10.4c0-3-2-5.6-4.9-5.6c-1.9,0-3.4,1.1-4,1.7C15.1,12.1,13.5,11,11.6,11"/>
</g>
</svg>
