<?xml version="1.0" encoding="utf-8"?>
<!-- Generator: Adobe Illustrator 18.1.0, SVG Export Plug-In . SVG Version: 6.00 Build 0)  -->
<svg version="1.1" id="Capa_1" xmlns="http://www.w3.org/2000/svg" xmlns:xlink="http://www.w3.org/1999/xlink" x="0px" y="0px"
	 viewBox="0 0 31.4 36" enable-background="new 0 0 31.4 36" xml:space="preserve">
<g>
	<defs>
		<rect id="SVGID_1_" width="31.4" height="36"/>
	</defs>
	<clipPath id="SVGID_2_">
		<use xlink:href="#SVGID_1_"  overflow="visible"/>
	</clipPath>
	<path clip-path="url(#SVGID_2_)" fill="#00A8CC" d="M0,9.3v17.5c0,0.2,0.1,0.4,0.3,0.5L15.4,36c0.2,0.1,0.4,0.1,0.5,0l15.2-8.7
		c0.2-0.1,0.3-0.3,0.3-0.5V9.3c0-0.2-0.1-0.4-0.3-0.5L15.9,0.1c-0.2-0.1-0.4-0.1-0.5,0L0.3,8.8C0.1,8.9,0,9.1,0,9.3"/>
	
		<rect x="7.6" y="21.2" transform="matrix(0.9707 -0.2404 0.2404 0.9707 -4.9814 4.4332)" clip-path="url(#SVGID_2_)" fill="#FFFFFF" width="16.2" height="2.9"/>
	<path clip-path="url(#SVGID_2_)" fill="#FFFFFF" d="M12.6,12.7c0,1.3-1.1,2.4-2.4,2.4s-2.4-1.1-2.4-2.4c0-1.3,1.1-2.4,2.4-2.4
		S12.6,11.4,12.6,12.7"/>
	<path clip-path="url(#SVGID_2_)" fill="#FFFFFF" d="M23.6,12.7c0,1.3-1.1,2.4-2.4,2.4c-1.3,0-2.4-1.1-2.4-2.4
		c0-1.3,1.1-2.4,2.4-2.4C22.5,10.3,23.6,11.4,23.6,12.7"/>
</g>
</svg>
