<?xml version="1.0" encoding="utf-8"?>
<!-- Generator: Adobe Illustrator 18.1.0, SVG Export Plug-In . SVG Version: 6.00 Build 0)  -->
<svg version="1.1" id="Capa_1" xmlns="http://www.w3.org/2000/svg" xmlns:xlink="http://www.w3.org/1999/xlink" x="0px" y="0px"
	 viewBox="0 0 31.4 36" enable-background="new 0 0 31.4 36" xml:space="preserve">
<g>
	<defs>
		<rect id="SVGID_1_" width="31.4" height="36"/>
	</defs>
	<clipPath id="SVGID_2_">
		<use xlink:href="#SVGID_1_"  overflow="visible"/>
	</clipPath>
	<path clip-path="url(#SVGID_2_)" fill="#8BC53F" d="M0,9.3v17.5c0,0.2,0.1,0.4,0.3,0.5L15.4,36c0.2,0.1,0.4,0.1,0.5,0l15.2-8.7
		c0.2-0.1,0.3-0.3,0.3-0.5V9.3c0-0.2-0.1-0.4-0.3-0.5L15.9,0.1c-0.2-0.1-0.4-0.1-0.5,0L0.3,8.8C0.1,8.9,0,9.1,0,9.3"/>
	<path clip-path="url(#SVGID_2_)" fill="#FFFFFF" d="M12.5,20.8c0,0,1.6,1.5,3.4,1.5c0.7,0,1.5-0.3,1.5-1.1c0-1.6-6.4-1.7-6.4-5.9
		c0-2.2,1.6-3.8,3.7-4.2V9.2h2.1V11c2.4,0.3,3.6,1.5,3.6,1.5l-1.5,2.8c0,0-1.4-1.2-3.1-1.2c-0.7,0-1.5,0.3-1.5,1.1
		c0,1.7,6.4,1.5,6.4,5.9c0,2.1-1.4,3.9-3.9,4.3v1.8h-2.1v-1.8c-2.6-0.4-4-1.9-4-1.9L12.5,20.8z"/>
</g>
</svg>
