<?xml version="1.0" encoding="utf-8"?>
<!-- Generator: Adobe Illustrator 18.1.0, SVG Export Plug-In . SVG Version: 6.00 Build 0)  -->
<svg version="1.1" id="Capa_1" xmlns="http://www.w3.org/2000/svg" xmlns:xlink="http://www.w3.org/1999/xlink" x="0px" y="0px"
	 viewBox="0 0 31.4 36" enable-background="new 0 0 31.4 36" xml:space="preserve">
<g>
	<defs>
		<rect id="SVGID_1_" width="31.4" height="36"/>
	</defs>
	<clipPath id="SVGID_2_">
		<use xlink:href="#SVGID_1_"  overflow="visible"/>
	</clipPath>
	<path clip-path="url(#SVGID_2_)" fill="#FBC225" d="M0,9.3v17.5c0,0.2,0.1,0.4,0.3,0.5L15.4,36c0.2,0.1,0.4,0.1,0.5,0l15.2-8.7
		c0.2-0.1,0.3-0.3,0.3-0.5V9.3c0-0.2-0.1-0.4-0.3-0.5L15.9,0.1c-0.2-0.1-0.4-0.1-0.5,0L0.3,8.8C0.1,8.9,0,9.1,0,9.3"/>
	<path clip-path="url(#SVGID_2_)" fill="#FFFFFF" d="M9.1,24.2h2c0.5,0,1.1,0.2,1.4,0.6c0.7,0.8,1.6,1.3,2.7,1.3h4.2
		c1.9,0,3.5-1.6,3.5-3.5v-0.1v-4.6v-1.3c0-1.3-1.1-2.4-2.4-2.4h-2.8l0.8-3.4c0.2-1-0.6-2-1.7-2c-0.6,0-1.2,0.3-1.5,0.9l-2.8,5.5
		c-0.3,0.6-0.9,0.9-1.6,0.9H9.1c-0.3,0-0.6,0.3-0.6,0.6v6.9C8.4,23.9,8.7,24.2,9.1,24.2"/>
</g>
</svg>
