<?xml version="1.0" encoding="UTF-8"?>
<svg width="20px" height="16px" viewBox="0 0 20 16" version="1.1" xmlns="http://www.w3.org/2000/svg" xmlns:xlink="http://www.w3.org/1999/xlink">
    <!-- Generator: Sketch 42 (36781) - http://www.bohemiancoding.com/sketch -->
    <title>Project_ICON</title>
    <desc>Created with Sketch.</desc>
    <defs></defs>
    <g id="Page-1" stroke="none" stroke-width="1" fill="none" fill-rule="evenodd">
        <g id="Home" transform="translate(-219.000000, -754.000000)" fill="#F48465">
            <g id="Views" transform="translate(42.000000, 220.000000)">
                <g id="View-Copy-4" transform="translate(0.000000, 370.000000)">
                    <g id="Project_ICON" transform="translate(177.736070, 164.724521)">
                        <path d="M6.33641549,1.62405076 C6.33797276,1.45125171 6.37482808,1.3131101 6.44057935,1.23484612 C6.46290017,1.20816152 6.5213842,1.1367314 6.73524886,1.13917206 L12.3699599,1.18294132 C12.575,1.18440572 12.6267359,1.25079179 12.6462882,1.27584928 C12.7063295,1.35281157 12.7398973,1.49794976 12.73834,1.67384032 L12.7281313,2.8286001 L6.32586068,2.8346204 L6.33641549,1.62405076 Z M15.5618381,3.76483904 C15.4313737,3.22528945 14.8214441,2.82664757 14.0704954,2.82746112 L13.7664823,2.82762383 L13.776518,1.68181316 C13.7799786,1.28317128 13.6813517,0.952054446 13.4832327,0.698388039 C13.310203,0.476450271 12.9779861,0.211231385 12.3784383,0.206512767 L6.74390035,0.162743515 C6.14625589,0.159163874 5.80659866,0.414457391 5.6254366,0.630212141 C5.4148595,0.881275173 5.3016981,1.22215466 5.29823751,1.61607793 L5.2876827,2.83559667 L4.51285587,2.83624751 C3.65428268,2.83706107 2.96597067,3.36261751 2.95870343,4.00581399 L2.85436654,13.2538176 C2.8470993,13.897014 3.52347225,14.4285908 4.38221847,14.4277772 L13.939858,14.4188281 C14.6908067,14.4181773 15.3097338,14.0110744 15.4524833,13.4711994 C15.4725548,13.426942 15.4730738,13.3752 15.4735929,13.3232952 C15.4834556,13.2936818 15.4838017,13.2717158 15.4841477,13.2421024 L15.5883116,3.99393609 C15.5886577,3.9644854 15.5890037,3.934872 15.5796601,3.9125806 C15.5803522,3.86083851 15.5808713,3.80909642 15.5618381,3.76483904 L15.5618381,3.76483904 Z" id="Fill-1"></path>
                        <path d="M17.2111395,3.91308501 L16.4248927,3.91373585 L16.3188255,13.3220097 L17.1050723,13.3211962 C17.7880204,13.3205453 18.3567689,12.8927782 18.3626519,12.3690116 L18.4472634,4.86299167 C18.4531464,4.33922504 17.8942606,3.91243416 17.2111395,3.91308501" id="Fill-4"></path>
                        <path d="M0.0846980203,4.88007632 L8.65148318e-05,12.3862589 C-0.00579649373,12.9098628 0.553089319,13.3366537 1.23621043,13.3360029 L2.02228419,13.335352 L2.12835138,3.92707815 L1.34227761,3.9278917 C0.659156503,3.92854255 0.0905810289,4.3563097 0.0846980203,4.88007632" id="Fill-6"></path>
                    </g>
                </g>
            </g>
        </g>
    </g>
</svg>