<svg width="20" height="16" viewBox="0 0 20 16" xmlns="http://www.w3.org/2000/svg"><title>Project_ICON</title><g fill="#F48465" fill-rule="evenodd"><path d="M7.072 2.349c.002-.173.039-.311.105-.39.022-.026.08-.098.294-.095l5.635.043c.205.002.257.068.276.093.06.077.094.222.092.398l-.01 1.155-6.402.006.01-1.21zm9.226 2.14c-.13-.54-.74-.938-1.491-.937h-.304l.01-1.146c.003-.398-.096-.73-.294-.983-.173-.222-.505-.487-1.104-.492L7.48.887c-.598-.003-.937.252-1.118.468-.211.25-.324.592-.328.986l-.01 1.22h-.775c-.859 0-1.547.526-1.554 1.17l-.105 9.247c-.007.644.67 1.175 1.528 1.174l9.558-.009c.75 0 1.37-.407 1.513-.947a.368.368 0 0 0 .02-.148c.01-.03.01-.052.011-.081l.104-9.249c0-.029.001-.059-.008-.08a.364.364 0 0 0-.018-.149zM17.947 4.638h-.786l-.106 9.409.786-.001c.683 0 1.252-.429 1.258-.952l.084-7.506c.006-.524-.553-.951-1.236-.95M.82 5.605L.737 13.11c-.006.523.553.95 1.236.95l.786-.001.106-9.408h-.786c-.683.001-1.251.429-1.257.953"/></g></svg>