<?xml version="1.0" encoding="UTF-8"?>
<svg width="14px" height="17px" viewBox="0 0 14 17" version="1.1" xmlns="http://www.w3.org/2000/svg" xmlns:xlink="http://www.w3.org/1999/xlink">
    <!-- Generator: Sketch 42 (36781) - http://www.bohemiancoding.com/sketch -->
    <title>User_ICON</title>
    <desc>Created with Sketch.</desc>
    <defs></defs>
    <g id="Page-1" stroke="none" stroke-width="1" fill="none" fill-rule="evenodd">
        <g id="Home" transform="translate(-54.000000, -754.000000)">
            <g id="Views" transform="translate(42.000000, 220.000000)">
                <g id="View-Copy-4" transform="translate(0.000000, 370.000000)">
                    <g id="User_ICON" transform="translate(12.034213, 164.724521)">
                        <polygon id="Page-1" fill="#68C7C5" points="6.94247746 6.00474888e-05 0 3.91915949 0 11.7571582 6.9428869 15.6764578 13.8855691 11.7571582 13.8855691 3.91915949 6.94309162 6.00474888e-05"></polygon>
                        <path d="M10.8734634,11.2451224 C10.6536432,11.5527203 10.2993193,11.7243234 9.92681054,11.7243234 L3.94055501,11.7243234 C3.56179774,11.7243234 3.20763405,11.5409284 2.98765362,11.2451224 C2.77392172,10.9434981 2.71888656,10.5530467 2.84105341,10.209918 L3.09756373,9.5297118 L3.10365204,9.49418095 L3.14034215,9.45283173 C3.48248943,8.83174013 4.06272186,8.35851269 4.77120945,8.15735225 L5.36369862,7.9858267 L4.93615472,7.32330829 C4.63077766,6.86187276 4.51469913,6.31184284 4.6064244,5.76755371 L4.66129935,5.45405993 C4.77120945,4.87439512 5.09501167,4.36563684 5.58367905,4.03437764 C5.96860475,3.76223308 6.42675045,3.62034243 6.9091693,3.62034243 C7.4040051,3.62034243 7.89267248,3.78597203 8.29578302,4.07580443 C8.70514209,4.38929821 9.01652735,4.83894185 9.12659768,5.34164903 L9.2119943,5.6965696 C9.34641789,6.25854657 9.23033936,6.88561171 8.90661725,7.37063103 L8.51576345,7.97395722 L9.10825262,8.14548277 C9.80448348,8.35851269 10.4031411,8.83174013 10.7391199,9.45283173 L10.757465,9.49418095 L10.7696416,9.5297118 L11.0202238,10.209918 C11.148479,10.5530467 11.0934438,10.9434981 10.8734634,11.2451224" id="Fill-1" fill="#FFFFFF"></path>
                    </g>
                </g>
            </g>
        </g>
    </g>
</svg>