<svg width="14" height="17" viewBox="0 0 14 17" xmlns="http://www.w3.org/2000/svg"><title>User_ICON</title><g fill="none" fill-rule="evenodd"><path fill="#68C7C5" d="M6.977.725L.034 4.644v7.838L6.977 16.4l6.943-3.92V4.645L6.977.724z"/><path d="M10.908 11.97c-.22.307-.574.479-.947.479H3.975c-.379 0-.733-.184-.953-.48a1.14 1.14 0 0 1-.147-1.035l.257-.68.006-.035.037-.042a2.702 2.702 0 0 1 1.63-1.295l.593-.172-.428-.662a2.154 2.154 0 0 1-.33-1.556l.056-.313c.11-.58.433-1.089.922-1.42a2.28 2.28 0 0 1 1.325-.414c.495 0 .984.165 1.387.455.41.314.72.763.83 1.266l.086.355a2.165 2.165 0 0 1-.305 1.674l-.391.603.592.172a2.78 2.78 0 0 1 1.631 1.307l.019.042.012.035.25.68c.129.344.074.734-.146 1.036" fill="#FFF"/></g></svg>