<svg width="87" height="118" viewBox="0 0 87 118" xmlns="http://www.w3.org/2000/svg"><title>ART_ICON</title><g fill="none" fill-rule="evenodd"><path fill="#00B1B0" d="M43.3 0L0 25v50l43.3 25 43.303-25V25z"/><path d="M27.527 70.196S24.66 60.293 45.54 36.338c-.83-3.478-2.132-8.96 7.994-10.948 3.01-1.29 2.156-2.767 2.784-3.158.63-.391 2.731.972 2.766 8.17-.55 3.99-2.479 8.627-5.974 8.843-2.677 4.626-13.748 22.193-15.26 23.37-1.51 1.178-6.847 8.964-10.322 7.58z" fill="#FEFEFE"/><path d="M35.727 110.48s-.192.84-.36 1.32l-.755 2.279h2.23l-.755-2.28c-.156-.479-.336-1.319-.336-1.319h-.024zm1.5 4.858H34.24l-.72 2.183h-1.595l2.998-8.517h1.62l2.998 8.516h-1.595l-.72-2.182zM43.575 113c.828 0 1.343-.493 1.343-1.345 0-.815-.347-1.318-1.56-1.318h-1.174V113h1.39zm-2.938-3.995h2.746c.924 0 1.343.072 1.715.24.852.384 1.392 1.2 1.392 2.326 0 1.02-.54 1.968-1.44 2.327v.025s.12.12.288.42l1.75 3.177h-1.726l-1.691-3.178h-1.487v3.178h-1.547v-8.515zM50.296 110.337h-2.794v-1.332h7.136v1.332h-2.795v7.184h-1.547z" fill="#00B1B0"/></g></svg>