<?xml version="1.0" encoding="UTF-8"?>
<svg width="87px" height="118px" viewBox="0 0 87 118" version="1.1" xmlns="http://www.w3.org/2000/svg" xmlns:xlink="http://www.w3.org/1999/xlink">
    <!-- Generator: Sketch 42 (36781) - http://www.bohemiancoding.com/sketch -->
    <title>ART_ICON</title>
    <desc>Created with Sketch.</desc>
    <defs></defs>
    <g id="Page-1" stroke="none" stroke-width="1" fill="none" fill-rule="evenodd">
        <g id="Home" transform="translate(-122.000000, -1067.000000)">
            <g id="CATEGORIES" transform="translate(122.000000, 1066.000000)">
                <g id="ART_ICON" transform="translate(0.000000, 1.000000)">
                    <polygon id="Fill-1" fill="#00B1B0" points="43.3008 -0.0001 -0.0002 24.9999 -0.0002 75.0009 43.3008 100.0009 86.6028 75.0009 86.6028 24.9999"></polygon>
                    <path d="M27.5273,70.1956 C27.5273,70.1956 24.6593,60.2926 45.5393,36.3376 C44.7093,32.8596 43.4073,27.3776 53.5333,25.3896 C56.5433,24.1006 55.6893,22.6226 56.3173,22.2316 C56.9463,21.8406 59.0483,23.2036 59.0833,30.4016 C58.5333,34.3916 56.6043,39.0286 53.1093,39.2446 C50.4323,43.8706 39.3613,61.4376 37.8493,62.6146 C36.3383,63.7926 31.0023,71.5786 27.5273,70.1956 Z" id="Fill-2" fill="#FEFEFE"></path>
                    <path d="M35.7273,110.4805 C35.7273,110.4805 35.5353,111.3205 35.3673,111.7995 L34.6123,114.0785 L36.8423,114.0785 L36.0873,111.7995 C35.9313,111.3205 35.7513,110.4805 35.7513,110.4805 L35.7273,110.4805 Z M37.2263,115.3375 L34.2403,115.3375 L33.5203,117.5205 L31.9253,117.5205 L34.9233,109.0045 L36.5423,109.0045 L39.5413,117.5205 L37.9463,117.5205 L37.2263,115.3375 Z" id="Fill-4" fill="#00B1B0"></path>
                    <path d="M43.5749,112.9991 C44.4029,112.9991 44.9179,112.5071 44.9179,111.6551 C44.9179,110.8401 44.5709,110.3371 43.3589,110.3371 L42.1839,110.3371 L42.1839,112.9991 L43.5749,112.9991 Z M40.6369,109.0051 L43.3829,109.0051 C44.3069,109.0051 44.7259,109.0771 45.0979,109.2451 C45.9499,109.6291 46.4899,110.4441 46.4899,111.5711 C46.4899,112.5911 45.9499,113.5391 45.0509,113.8981 L45.0509,113.9231 C45.0509,113.9231 45.1699,114.0421 45.3379,114.3421 L47.0889,117.5201 L45.3619,117.5201 L43.6709,114.3421 L42.1839,114.3421 L42.1839,117.5201 L40.6369,117.5201 L40.6369,109.0051 Z" id="Fill-6" fill="#00B1B0"></path>
                    <polygon id="Fill-8" fill="#00B1B0" points="50.2956 110.337 47.5016 110.337 47.5016 109.005 54.6376 109.005 54.6376 110.337 51.8426 110.337 51.8426 117.521 50.2956 117.521"></polygon>
                </g>
            </g>
        </g>
    </g>
</svg>