<svg width="88" height="118" viewBox="0 0 88 118" xmlns="http://www.w3.org/2000/svg"><title>DESIGN_ICON</title><g fill="none" fill-rule="evenodd"><path fill="#00B1B0" d="M.522 25L43.823 0l43.301 25v50l-43.3 25L.521 75zM26.136 116.19c1.727 0 2.83-1.02 2.83-2.939 0-1.895-1.128-2.915-2.83-2.915h-1.271v5.853h1.27zm-2.819-7.186h2.902c2.627 0 4.341 1.56 4.341 4.247 0 2.686-1.714 4.27-4.34 4.27h-2.902v-8.517zM32.185 109.005h5.097v1.332h-3.55v2.23H36.6v1.332h-2.867v2.29h3.742v1.332h-5.289zM39.277 115.338s.923.899 2.123.899c.648 0 1.235-.336 1.235-1.031 0-1.523-4.018-1.26-4.018-3.874 0-1.415 1.223-2.471 2.855-2.471 1.68 0 2.542.912 2.542.912l-.672 1.259s-.815-.744-1.882-.744c-.72 0-1.284.42-1.284 1.02 0 1.511 4.006 1.139 4.006 3.862 0 1.355-1.03 2.494-2.806 2.494-1.895 0-2.939-1.163-2.939-1.163l.84-1.163zM45.733 117.521h1.547v-8.516h-1.547zM53.255 108.861c2.087 0 3.167 1.08 3.167 1.08l-.768 1.15s-.912-.815-2.267-.815c-1.907 0-2.926 1.32-2.926 2.927 0 1.846 1.259 3.046 2.854 3.046 1.284 0 2.135-.888 2.135-.888v-.995h-1.307v-1.33h2.698v4.484h-1.32v-.408c0-.18.013-.359.013-.359h-.024s-.887.911-2.471.911c-2.242 0-4.173-1.739-4.173-4.413 0-2.47 1.859-4.39 4.389-4.39M58.561 109.005h1.547l3.226 4.918c.324.49.708 1.319.708 1.319h.024s-.084-.816-.084-1.32v-4.917h1.535v8.516h-1.535l-3.226-4.906c-.324-.492-.708-1.32-.708-1.32h-.024s.084.816.084 1.32v4.906h-1.547v-8.516z"/><path d="M53.338 35.41c-2.842 0-5.483.858-7.681 2.327l7.43 12.872H39.562c.68 7.01 6.588 12.489 13.777 12.489 7.646 0 13.844-6.198 13.844-13.844 0-7.646-6.198-13.844-13.844-13.844" fill="#FEFEFE"/><path fill="#FEFEFE" d="M20.465 48.52l14.503-25.119L49.47 48.52zM38.513 55.122H26.915V76.6h21.478V64.409a15.84 15.84 0 0 1-9.88-9.287"/></g></svg>