<svg width="87" height="118" viewBox="0 0 87 118" xmlns="http://www.w3.org/2000/svg"><title>ECO_ICON</title><g fill="none" fill-rule="evenodd"><path fill="#00B1B0" d="M5.492 109.005h5.097v1.332h-3.55v2.23h2.867v1.332H7.039v2.29h3.742v1.332H5.49zM16.134 108.861c2.075 0 3.142 1.163 3.142 1.163l-.744 1.151s-.971-.899-2.326-.899c-1.8 0-2.854 1.344-2.854 2.927 0 1.62 1.09 3.046 2.866 3.046 1.474 0 2.47-1.079 2.47-1.079l.816 1.115s-1.176 1.38-3.347 1.38c-2.602 0-4.4-1.932-4.4-4.439 0-2.47 1.87-4.365 4.377-4.365M24.701 116.25c1.56 0 2.806-1.296 2.806-3.047 0-1.68-1.247-2.927-2.806-2.927-1.56 0-2.807 1.247-2.807 2.927 0 1.751 1.247 3.046 2.807 3.046m0-7.388c2.506 0 4.401 1.908 4.401 4.342 0 2.507-1.895 4.461-4.4 4.461-2.508 0-4.403-1.954-4.403-4.46 0-2.435 1.895-4.343 4.402-4.343M30.68 109.005h1.546v7.185h3.682v1.33H30.68zM40.818 116.25c1.559 0 2.806-1.296 2.806-3.047 0-1.68-1.247-2.927-2.806-2.927-1.56 0-2.807 1.247-2.807 2.927 0 1.751 1.247 3.046 2.807 3.046m0-7.388c2.506 0 4.4 1.908 4.4 4.342 0 2.507-1.894 4.461-4.4 4.461-2.507 0-4.402-1.954-4.402-4.46 0-2.435 1.895-4.343 4.402-4.343M50.61 108.861c2.086 0 3.166 1.08 3.166 1.08l-.768 1.15s-.911-.815-2.266-.815c-1.907 0-2.927 1.32-2.927 2.927 0 1.846 1.26 3.046 2.855 3.046 1.283 0 2.134-.888 2.134-.888v-.995h-1.307v-1.33h2.699v4.484h-1.32v-.408c0-.18.012-.359.012-.359h-.024s-.887.911-2.47.911c-2.243 0-4.174-1.739-4.174-4.413 0-2.47 1.859-4.39 4.39-4.39M55.916 117.521h1.547v-8.516h-1.547zM63.413 108.861c2.075 0 3.143 1.163 3.143 1.163l-.744 1.151s-.972-.899-2.327-.899c-1.799 0-2.854 1.344-2.854 2.927 0 1.62 1.091 3.046 2.866 3.046 1.476 0 2.471-1.079 2.471-1.079l.815 1.115s-1.175 1.38-3.346 1.38c-2.603 0-4.4-1.932-4.4-4.439 0-2.47 1.87-4.365 4.376-4.365M70.95 110.48s-.192.84-.36 1.32l-.755 2.279h2.23l-.755-2.28c-.156-.479-.336-1.319-.336-1.319h-.024zm1.499 4.858h-2.986l-.72 2.183h-1.595l2.998-8.517h1.619l2.999 8.516h-1.595l-.72-2.182zM75.86 109.005h1.547v7.185h3.682v1.33h-5.23zM.149 25.219L43.349.278l43.2 24.94v49.884l-43.2 24.942-43.2-24.942z"/><path d="M30.98 78.492a1.05 1.05 0 0 1-.545-.707c-.194-.87-.45-1.739-.527-2.622-.137-1.6-.208-3.21-.225-4.817-.029-2.81.287-5.59.902-8.334.651-2.91 1.582-5.725 2.932-8.39 1.248-2.464 2.91-4.583 5.206-6.171 2.121-1.467 4.467-2.404 6.956-3.018 1.7-.419 3.422-.701 5.16-.903 1.891-.22 3.787-.419 5.678-.651 2.69-.33 5.366-.755 7.921-1.699.984-.363 1.927-.837 2.885-1.268.416-.187.847-.071 1.001.325a.96.96 0 0 1 .035.556c-.765 2.954-1.528 5.909-2.322 8.856-.92 3.418-2.379 6.583-4.554 9.394-2.474 3.196-5.563 5.567-9.396 6.921-1.408.498-2.867.803-4.343 1.016-2.4.346-4.81.648-7.209 1.007a19.766 19.766 0 0 0-4.423 1.198 3.619 3.619 0 0 1-.495.161c-.609.144-1.045-.157-1.148-.775-.099-.598.017-1.173.181-1.74.476-1.648 1.331-3.099 2.367-4.449 1.596-2.079 3.55-3.731 5.918-4.872 1.178-.568 2.363-1.12 3.545-1.68l.113-.05c.144-.068.276-.151.202-.339-.07-.176-.206-.179-.37-.128-.625.194-1.254.372-1.877.569-1.77.561-3.5 1.217-5.12 2.14-2.62 1.494-4.719 3.503-6.082 6.221-.835 1.666-1.396 3.43-1.77 5.254a19.586 19.586 0 0 0-.404 4.545 15.26 15.26 0 0 0 .52 3.531c.134.5.076.652-.363.919h-.349z" fill="#FEFEFE"/><path d="M21.02 29.736c1.492.846 3.085 1.439 4.734 1.89 1.364.375 2.762.527 4.166.657 2.655.246 5.319.439 7.926 1.044 4.578 1.063 8.495 3.312 11.764 6.677.585.602 1.048 1.323 1.565 1.99.049.064.08.14.111.195-1.337.212-2.662.41-3.982.636-1.347.23-2.669.572-3.97.994-.093.03-.238.027-.313-.025-1.625-1.145-3.451-1.768-5.391-2.11-.813-.142-1.621-.315-2.506-.49 2.212 1.082 4.462 1.927 6.499 3.228-.673.339-1.322.645-1.952.986-2.321 1.26-4.255 2.959-5.75 5.142-.15.219-.27.293-.553.222-1.558-.39-2.918-1.162-4.172-2.134-2.204-1.708-3.812-3.902-5.126-6.334-1.194-2.212-1.909-4.591-2.501-7.018-.38-1.56-.795-3.11-1.201-4.662-.12-.456-.076-.613.303-.888h.349z" fill="#FEFEFE"/></g></svg>