<svg width="88" height="118" viewBox="0 0 88 118" xmlns="http://www.w3.org/2000/svg"><title>EDU_ICON</title><g fill="none" fill-rule="evenodd"><path fill="#00B1B0" d="M.606 25l43.3-25L87.21 25v50l-43.302 25L.606 75z"/><path d="M12.312 46.127c0-1.475 29.488-15.06 31.595-15.06 2.106 0 31.594 14.217 31.594 15.06S45.487 62.45 43.907 62.45c-1.58 0-31.595-14.848-31.595-16.322M21.422 68.717c-3.739-.265-4.37-1.273-4.37-1.273" fill="#FEFEFE"/><path d="M18.754 62.672a2.738 2.738 0 0 0 2.037-2.643 2.74 2.74 0 0 0-2.106-2.664v-5.194a150.14 150.14 0 0 1-1.633-.89v6.2a2.736 2.736 0 1 0 0 5.094v4.868s5.477 2.17 4.37 1.274c-.97-.787-2.348-5.025-2.668-6.045M43.907 64.15c-1.467 0-10.931-4.658-16.008-7.211v3.51s2.212 6.319 14.113 6.952c11.057.527 18.008-3.791 18.534-6.214v-4.798c-15.052 7.757-16.205 7.762-16.64 7.762" fill="#FEFEFE"/><path fill="#00B1B0" d="M10.044 109.005h5.097v1.332h-3.55v2.23h2.867v1.332H11.59v2.29h3.742v1.332h-5.29zM19.762 116.19c1.727 0 2.83-1.02 2.83-2.939 0-1.895-1.127-2.915-2.83-2.915H18.49v5.853h1.27zm-2.818-7.186h2.902c2.626 0 4.34 1.56 4.34 4.247 0 2.686-1.714 4.27-4.34 4.27h-2.902v-8.517zM25.692 109.005h1.547v5.457c0 1.14.744 1.787 1.883 1.787s1.895-.647 1.895-1.8v-5.444h1.547v5.457c0 1.907-1.38 3.202-3.43 3.202-2.063 0-3.442-1.295-3.442-3.202v-5.457zM38.397 108.861c2.075 0 3.143 1.163 3.143 1.163l-.744 1.151s-.972-.899-2.327-.899c-1.799 0-2.854 1.344-2.854 2.927 0 1.62 1.091 3.046 2.866 3.046 1.475 0 2.471-1.079 2.471-1.079l.815 1.115s-1.175 1.38-3.346 1.38c-2.603 0-4.4-1.932-4.4-4.439 0-2.47 1.87-4.365 4.376-4.365M45.934 110.48s-.192.84-.36 1.32l-.755 2.279h2.23l-.755-2.28c-.156-.479-.336-1.319-.336-1.319h-.024zm1.499 4.858h-2.986l-.72 2.183h-1.595l2.998-8.517h1.619l2.999 8.516h-1.595l-.72-2.182zM52.114 110.337h-2.793v-1.332h7.136v1.332H53.66v7.184h-1.547zM57.588 117.521h1.547v-8.516h-1.547zM65.11 116.25c1.559 0 2.806-1.296 2.806-3.047 0-1.68-1.247-2.927-2.806-2.927-1.56 0-2.807 1.247-2.807 2.927 0 1.751 1.247 3.046 2.807 3.046m0-7.388c2.506 0 4.4 1.908 4.4 4.342 0 2.507-1.894 4.461-4.4 4.461-2.507 0-4.402-1.954-4.402-4.46 0-2.435 1.895-4.343 4.402-4.343M71.088 109.005h1.547l3.226 4.918c.324.49.708 1.319.708 1.319h.024s-.084-.816-.084-1.32v-4.917h1.535v8.516h-1.535l-3.226-4.906c-.324-.492-.708-1.32-.708-1.32h-.024s.084.816.084 1.32v4.906h-1.547v-8.516z"/></g></svg>