<svg width="88" height="118" viewBox="0 0 88 118" xmlns="http://www.w3.org/2000/svg"><title>FASH_ICON</title><g fill="none" fill-rule="evenodd"><path fill="#00B1B0" d="M.866 25L44.167 0l43.301 25v50l-43.3 25L.865 75z"/><path d="M68.025 39.393l-10.127-9.906c-2.054-2.009-4.659-2.514-5.915-2.218-1.59 4.041-6.68 3.986-7.72 3.931v-.013l-.096.007a6.838 6.838 0 0 1-.095-.007v.013c-1.04.055-6.13.11-7.72-3.93-1.258-.297-3.862.208-5.915 2.217L20.31 39.393s-1.923 1.774 0 4.141c1.922 2.365 6.284 6.061 6.284 6.061s1.11.814 2.514-1.108c1.404-1.923 2.07-2.44 2.07-2.44v23.805s-.297 2.957 2.365 2.957h21.25c2.662 0 2.366-2.957 2.366-2.957V46.047s.665.517 2.07 2.44c1.405 1.922 2.513 1.108 2.513 1.108s4.362-3.696 6.284-6.06c1.922-2.368 0-4.142 0-4.142" fill="#FEFEFE"/><path fill="#00B1B0" d="M19.177 109.005h4.893v1.332h-3.346v2.41h2.818v1.33h-2.818v3.444h-1.547zM27.983 110.48s-.192.84-.36 1.32l-.755 2.279h2.23l-.755-2.28c-.156-.479-.336-1.319-.336-1.319h-.024zm1.5 4.858h-2.987l-.72 2.183h-1.595l2.998-8.517h1.62l2.998 8.516h-1.595l-.72-2.182zM33.085 115.338s.923.899 2.123.899c.648 0 1.235-.336 1.235-1.031 0-1.523-4.018-1.26-4.018-3.874 0-1.415 1.223-2.471 2.855-2.471 1.679 0 2.542.912 2.542.912l-.672 1.259s-.815-.744-1.882-.744c-.72 0-1.284.42-1.284 1.02 0 1.511 4.006 1.139 4.006 3.862 0 1.355-1.031 2.494-2.806 2.494-1.895 0-2.94-1.163-2.94-1.163l.84-1.163zM39.54 109.005h1.548v3.61h3.898v-3.61h1.547v8.516h-1.547v-3.575h-3.898v3.575H39.54zM48.697 117.521h1.547v-8.516h-1.547zM56.218 116.25c1.56 0 2.806-1.296 2.806-3.047 0-1.68-1.246-2.927-2.806-2.927s-2.807 1.247-2.807 2.927c0 1.751 1.247 3.046 2.807 3.046m0-7.388c2.506 0 4.401 1.908 4.401 4.342 0 2.507-1.895 4.461-4.4 4.461-2.508 0-4.403-1.954-4.403-4.46 0-2.435 1.895-4.343 4.402-4.343M62.197 109.005h1.546l3.226 4.918c.325.49.709 1.319.709 1.319h.023s-.083-.816-.083-1.32v-4.917h1.535v8.516h-1.535l-3.227-4.906c-.324-.492-.708-1.32-.708-1.32h-.023s.084.816.084 1.32v4.906h-1.547v-8.516z"/></g></svg>