<svg width="92" height="133" viewBox="0 0 92 133" xmlns="http://www.w3.org/2000/svg"><title>FILM_ICON</title><g fill="none" fill-rule="evenodd"><path fill="#00B1B0" d="M2.227 25L45.528 0 88.83 25v50l-43.302 25-43.3-25z"/><path d="M63.291 46.209a1.74 1.74 0 1 1 0-3.48 1.74 1.74 0 0 1 0 3.48M45.529 64.534c-6.631 0-12.007-5.376-12.007-12.008 0-6.631 5.376-12.007 12.007-12.007 6.631 0 12.005 5.376 12.005 12.007 0 6.632-5.374 12.008-12.005 12.008M65.808 37.91h-6.077c-.833 0-3.454.053-3.454-3.803 0-3.855-3.426-3.372-3.426-3.372H38.207s-3.428-.483-3.428 3.372c0 3.856-2.622 3.803-3.453 3.803h-6.077c-1.339 0-3.815 1.338-3.815 6.425v20.828c0 1.392 2.156 4.123 4.886 4.123h38.416c2.733 0 4.887-2.731 4.887-4.123V44.335c0-5.087-2.476-6.425-3.815-6.425" fill="#FEFEFE"/><path d="M45.53 45.338c-3.966 0-7.19 3.226-7.19 7.189s3.224 7.187 7.19 7.187c3.962 0 7.187-3.224 7.187-7.187s-3.225-7.19-7.188-7.19" fill="#FEFEFE"/><path fill="#00B1B0" d="M26.04 109.005h4.893v1.332h-3.346v2.41h2.818v1.33h-2.818v3.444H26.04zM32.388 117.521h1.547v-8.516h-1.547zM36.096 109.005h1.547v7.185h3.682v1.33h-5.23zM42.995 109.005h1.654l1.668 4.21c.192.504.432 1.247.432 1.247h.023s.23-.743.42-1.247l1.667-4.21h1.656l.683 8.516h-1.535l-.359-4.762c-.037-.564-.013-1.32-.013-1.32h-.024s-.25.829-.456 1.32l-1.379 3.299h-1.355l-1.367-3.3a20.65 20.65 0 0 1-.468-1.33h-.024s.024.767-.012 1.33l-.359 4.763H42.3l.696-8.516zM58.522 116.25c.96 0 1.535-.528 1.535-1.56v-.923h-1.438c-.95 0-1.56.42-1.56 1.247 0 .683.588 1.235 1.463 1.235m-1.595-3.262v-.024s-1.08-.42-1.08-1.859c0-1.51 1.212-2.243 2.688-2.243.539 0 1.115.144 1.115.144l-.372 1.223s-.288-.072-.564-.072c-.72 0-1.307.397-1.307 1.14 0 .492.276 1.127 1.296 1.127h1.354v-1.103h1.524v1.103h1.103v1.344H61.58v1.007c0 1.74-1.14 2.89-3.06 2.89-1.846 0-3.045-1.115-3.045-2.555 0-.923.552-1.81 1.45-2.122M3.784 127.64c.9 0 1.427-.576 1.427-1.464 0-.875-.528-1.438-1.404-1.438H2.333v2.902h1.451zm-2.998-4.234h3.286c1.595 0 2.71 1.115 2.71 2.77s-1.115 2.807-2.71 2.807H2.333v2.938H.786v-8.515zM8.155 123.405H9.7v3.61h3.897v-3.61h1.548v8.516h-1.548v-3.575H9.701v3.575H8.155zM21.123 130.65c1.56 0 2.807-1.296 2.807-3.047 0-1.68-1.247-2.926-2.807-2.926-1.559 0-2.806 1.246-2.806 2.926 0 1.752 1.247 3.046 2.806 3.046m0-7.388c2.507 0 4.402 1.909 4.402 4.343 0 2.507-1.895 4.46-4.402 4.46-2.506 0-4.4-1.953-4.4-4.46 0-2.434 1.894-4.343 4.4-4.343M28.793 124.737h-2.795v-1.332h7.137v1.332H30.34v7.184h-1.547zM38.007 130.65c1.56 0 2.807-1.296 2.807-3.047 0-1.68-1.247-2.926-2.807-2.926-1.559 0-2.806 1.246-2.806 2.926 0 1.752 1.247 3.046 2.806 3.046m0-7.388c2.507 0 4.402 1.909 4.402 4.343 0 2.507-1.895 4.46-4.402 4.46-2.506 0-4.4-1.953-4.4-4.46 0-2.434 1.894-4.343 4.4-4.343M47.8 123.262c2.086 0 3.166 1.079 3.166 1.079l-.768 1.15s-.912-.814-2.266-.814c-1.907 0-2.927 1.319-2.927 2.927 0 1.846 1.26 3.046 2.855 3.046 1.283 0 2.134-.888 2.134-.888v-.995h-1.307v-1.331h2.7v4.485h-1.32v-.408c0-.18.011-.36.011-.36h-.024s-.887.912-2.47.912c-2.243 0-4.174-1.74-4.174-4.413 0-2.471 1.86-4.39 4.39-4.39M56.044 127.4c.827 0 1.343-.493 1.343-1.345 0-.815-.348-1.318-1.559-1.318h-1.176v2.663h1.392zm-2.938-3.995h2.746c.923 0 1.343.073 1.715.24.852.385 1.391 1.2 1.391 2.327 0 1.02-.539 1.968-1.438 2.326v.025s.12.12.287.42l1.751 3.178h-1.727l-1.69-3.178h-1.489v3.178h-1.546v-8.515zM63.737 124.88s-.192.84-.36 1.32l-.755 2.279h2.23l-.756-2.28c-.156-.478-.336-1.318-.336-1.318h-.023zm1.499 4.858H62.25l-.72 2.183h-1.595l2.998-8.516h1.619l2.998 8.516h-1.594l-.72-2.183zM71.644 127.64c.899 0 1.428-.576 1.428-1.464 0-.875-.53-1.438-1.404-1.438h-1.475v2.902h1.45zm-2.998-4.234h3.286c1.596 0 2.71 1.115 2.71 2.77s-1.114 2.807-2.71 2.807h-1.74v2.938h-1.546v-8.515zM76.014 123.405h1.547v3.61h3.898v-3.61h1.547v8.516h-1.547v-3.575H77.56v3.575h-1.547zM86.945 128.358l-2.83-4.953h1.75l1.332 2.507c.276.527.504 1.151.516 1.14h.024s.239-.613.516-1.14l1.319-2.507h1.75l-2.83 4.953v3.564h-1.547v-3.564z"/></g></svg>