<svg width="87" height="118" viewBox="0 0 87 118" xmlns="http://www.w3.org/2000/svg"><title>FINAN_ICON</title><g fill="none" fill-rule="evenodd"><path fill="#00B1B0" d="M.047 25L43.348 0l43.301 25v50l-43.301 25L.047 75z"/><path d="M49.84 31.341s3.873-5.17 7.96-3.968c-2.645 3.487-1.442 8.055-.48 8.777 1.803 1.443 5.771 6.733 6.733 9.62 1.442.36 2.645 0 2.645 0s.722.6.722 1.682v5.051s.24 1.683-.842 1.683h-2.285s-.84.36-1.323 1.924c-.48 1.563-2.164 5.29-5.89 8.295-3.007 3.127-3.007 7.455-2.887 8.297-2.885.24-7.935 0-7.935 0v-2.285s-.662-.84-2.134-.84-5.44-.122-5.44-.122-2.044.362-2.044 1.322v2.032h-7.695s-.6-4.315-2.044-6.239c-1.443-1.924-9.859-12.024-7.094-21.282 1.924-5.77 9.326-18.155 30.032-13.947" fill="#FEFEFE"/><path d="M41.58 40.645v1.585c.636.102 1.156.313 1.56.631.405.318.79.806 1.157 1.464l-1.577.881c-.474-.862-1.095-1.294-1.86-1.294-.474 0-.868.141-1.181.421-.312.28-.47.63-.47 1.051 0 .383.128.701.38.954.249.248.75.542 1.506.882a14.89 14.89 0 0 1 1.617.837c.426.261.746.513.962.756.61.658.914 1.453.914 2.386a3.82 3.82 0 0 1-.825 2.426c-.544.695-1.272 1.164-2.183 1.406v1.675h-1.416V55.08c-1.056-.173-1.862-.536-2.417-1.092-.556-.554-.965-1.412-1.23-2.57l1.779-.373c.243.82.539 1.404.89 1.755.367.334.854.501 1.464.501.593 0 1.089-.192 1.488-.574.393-.377.59-.866.59-1.463 0-.535-.165-.963-.493-1.286a4.537 4.537 0 0 0-.74-.53 12.842 12.842 0 0 0-1.25-.643c-1.045-.469-1.733-.9-2.061-1.294-.524-.588-.785-1.29-.785-2.11a2.967 2.967 0 0 1 .723-1.993c.235-.273.525-.509.87-.709a4.69 4.69 0 0 1 1.172-.469v-1.585h1.416zM15.388 109.005h4.893v1.332h-3.346v2.41h2.818v1.33h-2.818v3.444h-1.547zM21.736 117.521h1.547v-8.516h-1.547zM25.444 109.005h1.547l3.226 4.918c.324.49.708 1.319.708 1.319h.024s-.084-.816-.084-1.32v-4.917H32.4v8.516h-1.535l-3.226-4.906c-.324-.492-.708-1.32-.708-1.32h-.024s.084.816.084 1.32v4.906h-1.547v-8.516zM37.298 110.48s-.192.84-.36 1.32l-.755 2.279h2.23l-.755-2.28c-.156-.479-.336-1.319-.336-1.319h-.024zm1.5 4.858H35.81l-.72 2.183h-1.595l2.998-8.517h1.62l2.998 8.516h-1.595l-.72-2.182zM42.208 109.005h1.547l3.226 4.918c.324.49.708 1.319.708 1.319h.024s-.084-.816-.084-1.32v-4.917h1.535v8.516h-1.535l-3.226-4.906c-.324-.492-.708-1.32-.708-1.32h-.024s.084.816.084 1.32v4.906h-1.547v-8.516zM55.117 108.861c2.075 0 3.143 1.163 3.143 1.163l-.744 1.151s-.97-.899-2.327-.899c-1.799 0-2.854 1.344-2.854 2.927 0 1.62 1.091 3.046 2.866 3.046 1.476 0 2.471-1.079 2.471-1.079l.815 1.115s-1.175 1.38-3.346 1.38c-2.603 0-4.4-1.932-4.4-4.439 0-2.47 1.87-4.365 4.376-4.365M59.92 109.005h5.097v1.332h-3.55v2.23h2.866v1.332h-2.866v2.29h3.742v1.332H59.92zM67.012 115.338s.923.899 2.122.899c.649 0 1.235-.336 1.235-1.031 0-1.523-4.017-1.26-4.017-3.874 0-1.415 1.223-2.471 2.854-2.471 1.679 0 2.543.912 2.543.912l-.672 1.259s-.815-.744-1.882-.744c-.72 0-1.284.42-1.284 1.02 0 1.511 4.006 1.139 4.006 3.862 0 1.355-1.032 2.494-2.806 2.494-1.896 0-2.939-1.163-2.939-1.163l.84-1.163z" fill="#00B1B0"/></g></svg>