<svg width="87" height="122" viewBox="0 0 87 122" xmlns="http://www.w3.org/2000/svg"><title>FOOD_ICON</title><g fill="none" fill-rule="evenodd"><path fill="#00B1B0" d="M.143 25.098l43.301-25 43.303 25v50l-43.303 25-43.3-25z"/><path d="M28.456 70.678h30.031v-5.032H28.456v5.032zm39.083-30.857a8.626 8.626 0 0 1-9.052 8.615v16.172H28.456V47.981a8.626 8.626 0 1 1 6.504-13.674 8.623 8.623 0 0 1 17.238.102 8.626 8.626 0 0 1 15.341 5.412z" fill="#FEFEFE"/><path fill="#00B1B0" d="M27.187 113.323h4.893v1.332h-3.346v2.41h2.818v1.33h-2.818v3.444h-1.547zM37.348 120.567c1.56 0 2.806-1.295 2.806-3.046 0-1.68-1.247-2.927-2.806-2.927-1.56 0-2.807 1.247-2.807 2.927 0 1.751 1.247 3.046 2.807 3.046m0-7.388c2.506 0 4.401 1.908 4.401 4.342 0 2.507-1.895 4.461-4.4 4.461-2.508 0-4.403-1.954-4.403-4.461 0-2.434 1.895-4.342 4.402-4.342M47.14 120.567c1.56 0 2.806-1.295 2.806-3.046 0-1.68-1.247-2.927-2.806-2.927-1.56 0-2.807 1.247-2.807 2.927 0 1.751 1.247 3.046 2.807 3.046m0-7.388c2.506 0 4.401 1.908 4.401 4.342 0 2.507-1.895 4.461-4.4 4.461-2.508 0-4.403-1.954-4.403-4.461 0-2.434 1.895-4.342 4.402-4.342M55.937 120.507c1.727 0 2.83-1.02 2.83-2.938 0-1.896-1.127-2.915-2.83-2.915h-1.271v5.853h1.27zm-2.818-7.185h2.902c2.626 0 4.34 1.56 4.34 4.247 0 2.686-1.714 4.27-4.34 4.27h-2.902v-8.517z"/></g></svg>