<svg width="87" height="122" viewBox="0 0 87 122" xmlns="http://www.w3.org/2000/svg"><title>GAMES_ICON</title><g fill="none" fill-rule="evenodd"><path fill="#00B1B0" d="M.324 25.098l43.3-25 43.303 25v50l-43.302 25-43.301-25z"/><path fill="#FEFEFE" d="M38.375 46.932h-8.917v-8.916h-6.333v8.916h-8.916v6.333h8.916v8.917h6.333v-8.917h8.917zM64.793 41.849a3.833 3.833 0 1 1-7.666 0 3.833 3.833 0 0 1 7.666 0M64.793 58.348a3.834 3.834 0 1 1-7.668 0 3.834 3.834 0 0 1 7.668 0M56.543 50.098a3.833 3.833 0 1 1-7.666 0 3.833 3.833 0 0 1 7.666 0M73.042 50.098a3.833 3.833 0 1 1-7.666 0 3.833 3.833 0 0 1 7.666 0"/><path d="M28.095 113.18c2.087 0 3.167 1.078 3.167 1.078l-.768 1.151s-.913-.815-2.267-.815c-1.907 0-2.927 1.32-2.927 2.927 0 1.846 1.26 3.046 2.854 3.046 1.285 0 2.136-.888 2.136-.888v-.995h-1.307v-1.33h2.697v4.484h-1.319v-.408c0-.18.012-.359.012-.359h-.024s-.887.911-2.47.911c-2.242 0-4.174-1.739-4.174-4.413 0-2.47 1.86-4.39 4.39-4.39M36.136 114.798s-.193.84-.36 1.32l-.756 2.278h2.23l-.755-2.279c-.155-.479-.335-1.319-.335-1.319h-.024zm1.498 4.857h-2.986l-.72 2.183h-1.594l2.997-8.516h1.62l2.998 8.516h-1.594l-.72-2.183zM41.477 113.323h1.655l1.667 4.21c.192.504.432 1.247.432 1.247h.024s.228-.743.42-1.247l1.667-4.21h1.655l.684 8.516h-1.536l-.36-4.762c-.036-.564-.012-1.32-.012-1.32h-.024s-.251.829-.455 1.32l-1.38 3.299h-1.355l-1.367-3.3a20.65 20.65 0 0 1-.468-1.33H42.7s.024.767-.012 1.33l-.36 4.763h-1.547l.696-8.516zM51.581 113.323h5.097v1.332h-3.55v2.23h2.867v1.332h-2.867v2.29h3.742v1.332h-5.289zM58.673 119.656s.923.899 2.123.899c.648 0 1.235-.336 1.235-1.031 0-1.523-4.018-1.26-4.018-3.874 0-1.415 1.223-2.471 2.855-2.471 1.68 0 2.542.912 2.542.912l-.672 1.259s-.815-.744-1.882-.744c-.72 0-1.284.42-1.284 1.02 0 1.51 4.006 1.139 4.006 3.862 0 1.355-1.03 2.494-2.806 2.494-1.895 0-2.939-1.163-2.939-1.163l.84-1.163z" fill="#00B1B0"/></g></svg>