<svg width="88" height="122" viewBox="0 0 88 122" xmlns="http://www.w3.org/2000/svg"><title>HC_ICON</title><g fill="none" fill-rule="evenodd"><path fill="#00B1B0" d="M.505 25.098l43.301-25 43.301 25v50l-43.301 25-43.301-25z"/><path d="M67.617 34.803c1.957-1.957-6.843-10.525-9.144-8.224a4974.863 4974.863 0 0 0-3.068 3.069l8.683 8.683 3.53-3.529M23.947 61.118l-1.87 10.539 10.54-1.87zM61.42 41l1.94-1.94-8.685-8.684-1.94 1.939L61.42 41zM52.029 33.022l-27.36 27.36 8.684 8.684 27.36-27.359-8.684-8.685z" fill="#FEFEFE"/><path d="M61.42 41l1.94-1.94-8.685-8.684-1.94 1.939L61.42 41zM63.814 61.424l-3.184 3.184-.506-.506 3.184-3.184-1.269-1.27-1.953 1.955-.506-.506 1.953-1.954-1.269-1.27-1.953 1.954-.508-.506 1.955-1.954-1.269-1.268-3.184 3.183-.506-.506 3.183-3.184-1.268-1.27-1.955 1.955-.505-.506 1.953-1.954-1.269-1.27-1.953 1.955-.506-.507 1.953-1.953-.624-.625-8.684 8.684 14.092 14.092 8.685-8.684zM39.134 43.11l-.312-.312 3.185-3.183-1.269-1.269-1.954 1.955-.506-.508 1.953-1.953-1.268-1.269-1.954 1.955-.507-.508 1.954-1.953-1.269-1.27-3.184 3.185-.506-.506 3.184-3.184-1.269-1.269-1.954 1.953-.506-.505 1.953-1.955-1.268-1.269-1.954 1.955-.506-.507 1.954-1.954-1.269-1.269-3.184 3.184-.506-.506 3.183-3.185-2.96-2.96-8.684 8.685L33.634 48.61z" fill="#FEFEFE"/><path fill="#00B1B0" d="M4.777 113.323h1.547v3.61h3.898v-3.61h1.547v8.516h-1.547v-3.575H6.324v3.575H4.777zM16.667 114.798s-.192.84-.36 1.32l-.755 2.278h2.23l-.755-2.279c-.156-.479-.336-1.319-.336-1.319h-.024zm1.5 4.857H15.18l-.72 2.183h-1.595l2.998-8.516h1.62l2.998 8.516h-1.595l-.72-2.183zM21.577 113.323h1.547l3.226 4.918c.324.49.708 1.319.708 1.319h.024s-.084-.816-.084-1.32v-4.917h1.535v8.516h-1.535l-3.226-4.906c-.324-.492-.708-1.32-.708-1.32h-.024s.084.816.084 1.32v4.906h-1.547v-8.516zM33.515 120.507c1.727 0 2.831-1.02 2.831-2.938 0-1.896-1.128-2.915-2.83-2.915h-1.272v5.853h1.271zm-2.818-7.185H33.6c2.626 0 4.341 1.56 4.341 4.247 0 2.686-1.715 4.27-4.34 4.27h-2.903v-8.517z"/><path fill="#050201" d="M39.421 119.08h3.61v-1.331h-3.61z"/><path d="M48.839 113.18c2.075 0 3.143 1.162 3.143 1.162l-.744 1.151s-.972-.899-2.327-.899c-1.8 0-2.854 1.344-2.854 2.927 0 1.62 1.09 3.046 2.866 3.046 1.475 0 2.47-1.079 2.47-1.079l.816 1.115s-1.175 1.38-3.346 1.38c-2.603 0-4.401-1.932-4.401-4.439 0-2.47 1.87-4.365 4.377-4.365M56.579 117.317c.828 0 1.343-.492 1.343-1.344 0-.815-.347-1.318-1.56-1.318h-1.174v2.662h1.39zm-2.938-3.994h2.746c.924 0 1.343.072 1.715.24.852.384 1.392 1.199 1.392 2.326 0 1.02-.54 1.968-1.44 2.327v.025s.12.119.288.419l1.75 3.178h-1.726l-1.691-3.178h-1.487v3.178H53.64v-8.515zM64.271 114.798s-.192.84-.36 1.32l-.755 2.278h2.23l-.755-2.279c-.156-.479-.336-1.319-.336-1.319h-.024zm1.5 4.857h-2.987l-.72 2.183H60.47l2.998-8.516h1.62l2.998 8.516H66.49l-.72-2.183zM69.18 113.323h4.894v1.332h-3.346v2.41h2.818v1.33h-2.818v3.444H69.18zM77.292 114.655h-2.794v-1.332h7.136v1.332h-2.795v7.184h-1.547z" fill="#00B1B0"/></g></svg>