<?xml version="1.0" encoding="UTF-8"?>
<svg width="88px" height="122px" viewBox="0 0 88 122" version="1.1" xmlns="http://www.w3.org/2000/svg" xmlns:xlink="http://www.w3.org/1999/xlink">
    <!-- Generator: Sketch 42 (36781) - http://www.bohemiancoding.com/sketch -->
    <title>HC_ICON</title>
    <desc>Created with Sketch.</desc>
    <defs></defs>
    <g id="Page-1" stroke="none" stroke-width="1" fill="none" fill-rule="evenodd">
        <g id="Home" transform="translate(-327.000000, -1223.000000)">
            <g id="CATEGORIES" transform="translate(122.000000, 1066.000000)">
                <g id="HC_ICON" transform="translate(205.000000, 156.982000)">
                    <polygon id="Fill-92" fill="#00B1B0" points="0.505 25.1164 43.806 0.1164 87.107 25.1164 87.107 75.1164 43.806 100.1164 0.505 75.1164"></polygon>
                    <path d="M67.6172,34.8205 C69.5742,32.8635 60.7742,24.2955 58.4732,26.5965 C55.6342,29.4355 55.4052,29.6655 55.4052,29.6655 L64.0882,38.3495 C65.5272,36.9105 66.7352,35.7025 67.6172,34.8205" id="Fill-93" fill="#FEFEFE"></path>
                    <polygon id="Fill-94" fill="#FEFEFE" points="23.9468 61.1359 22.0778 71.6749 32.6178 69.8059"></polygon>
                    <path d="M61.4204,41.0178 C62.0974,40.3408 62.7464,39.6908 63.3594,39.0788 L54.6754,30.3938 L52.7354,32.3328 L61.4204,41.0178 Z" id="Fill-95" fill="#FEFEFE"></path>
                    <path d="M52.0288,33.0402 L24.6688,60.4002 L33.3528,69.0842 C36.7238,65.7142 51.2128,51.2252 60.7138,41.7252 L52.0288,33.0402 Z" id="Fill-96" fill="#FEFEFE"></path>
                    <path d="M61.4204,41.0178 C62.0974,40.3408 62.7464,39.6908 63.3594,39.0788 L54.6754,30.3938 L52.7354,32.3328 L61.4204,41.0178 Z" id="Fill-97" fill="#FEFEFE"></path>
                    <polygon id="Fill-98" fill="#FEFEFE" points="63.8144 61.4416 60.6304 64.6256 60.1244 64.1196 63.3084 60.9356 62.0394 59.6666 60.0864 61.6206 59.5804 61.1146 61.5334 59.1606 60.2644 57.8916 58.3114 59.8446 57.8034 59.3386 59.7584 57.3846 58.4894 56.1166 55.3054 59.2996 54.7994 58.7936 57.9824 55.6096 56.7144 54.3406 54.7594 56.2946 54.2544 55.7886 56.2074 53.8346 54.9384 52.5656 52.9854 54.5196 52.4794 54.0126 54.4324 52.0596 53.8084 51.4346 45.1244 60.1186 59.2164 74.2106 67.9014 65.5266"></polygon>
                    <polygon id="Fill-99" fill="#FEFEFE" points="39.1342 43.1285 38.8222 42.8165 42.0072 39.6335 40.7382 38.3645 38.7842 40.3185 38.2782 39.8115 40.2312 37.8575 38.9632 36.5895 37.0092 38.5435 36.5022 38.0365 38.4562 36.0825 37.1872 34.8135 34.0032 37.9985 33.4972 37.4915 36.6812 34.3075 35.4122 33.0395 33.4582 34.9925 32.9522 34.4865 34.9052 32.5325 33.6372 31.2635 31.6832 33.2185 31.1772 32.7115 33.1312 30.7565 31.8622 29.4885 28.6782 32.6725 28.1722 32.1665 31.3552 28.9815 28.3952 26.0215 19.7112 34.7065 33.6342 48.6285"></polygon>
                    <polygon id="Fill-100" fill="#00B1B0" points="4.7771 113.3408 6.3241 113.3408 6.3241 116.9508 10.2221 116.9508 10.2221 113.3408 11.7691 113.3408 11.7691 121.8568 10.2221 121.8568 10.2221 118.2818 6.3241 118.2818 6.3241 121.8568 4.7771 121.8568"></polygon>
                    <path d="M16.6672,114.8164 C16.6672,114.8164 16.4752,115.6564 16.3072,116.1354 L15.5522,118.4144 L17.7822,118.4144 L17.0272,116.1354 C16.8712,115.6564 16.6912,114.8164 16.6912,114.8164 L16.6672,114.8164 Z M18.1662,119.6734 L15.1802,119.6734 L14.4602,121.8564 L12.8652,121.8564 L15.8632,113.3404 L17.4822,113.3404 L20.4812,121.8564 L18.8862,121.8564 L18.1662,119.6734 Z" id="Fill-101" fill="#00B1B0"></path>
                    <path d="M21.5769,113.3408 L23.1239,113.3408 L26.3499,118.2588 C26.6739,118.7498 27.0579,119.5778 27.0579,119.5778 L27.0819,119.5778 C27.0819,119.5778 26.9979,118.7618 26.9979,118.2588 L26.9979,113.3408 L28.5329,113.3408 L28.5329,121.8568 L26.9979,121.8568 L23.7719,116.9508 C23.4479,116.4588 23.0639,115.6318 23.0639,115.6318 L23.0399,115.6318 C23.0399,115.6318 23.1239,116.4468 23.1239,116.9508 L23.1239,121.8568 L21.5769,121.8568 L21.5769,113.3408 Z" id="Fill-102" fill="#00B1B0"></path>
                    <path d="M33.5154,120.5254 C35.2424,120.5254 36.3464,119.5054 36.3464,117.5874 C36.3464,115.6914 35.2184,114.6724 33.5154,114.6724 L32.2444,114.6724 L32.2444,120.5254 L33.5154,120.5254 Z M30.6974,113.3404 L33.5994,113.3404 C36.2254,113.3404 37.9404,114.9004 37.9404,117.5874 C37.9404,120.2734 36.2254,121.8564 33.5994,121.8564 L30.6974,121.8564 L30.6974,113.3404 Z" id="Fill-103" fill="#00B1B0"></path>
                    <polygon id="Fill-104" fill="#050201" points="39.421 119.098 43.031 119.098 43.031 117.767 39.421 117.767"></polygon>
                    <path d="M48.8386,113.1973 C50.9136,113.1973 51.9816,114.3603 51.9816,114.3603 L51.2376,115.5113 C51.2376,115.5113 50.2656,114.6123 48.9106,114.6123 C47.1116,114.6123 46.0566,115.9563 46.0566,117.5393 C46.0566,119.1583 47.1476,120.5853 48.9226,120.5853 C50.3976,120.5853 51.3936,119.5063 51.3936,119.5063 L52.2086,120.6213 C52.2086,120.6213 51.0336,122.0003 48.8626,122.0003 C46.2596,122.0003 44.4616,120.0693 44.4616,117.5623 C44.4616,115.0923 46.3326,113.1973 48.8386,113.1973" id="Fill-105" fill="#00B1B0"></path>
                    <path d="M56.5788,117.335 C57.4068,117.335 57.9218,116.843 57.9218,115.991 C57.9218,115.176 57.5748,114.673 56.3628,114.673 L55.1878,114.673 L55.1878,117.335 L56.5788,117.335 Z M53.6408,113.341 L56.3868,113.341 C57.3108,113.341 57.7298,113.413 58.1018,113.581 C58.9538,113.965 59.4938,114.78 59.4938,115.907 C59.4938,116.927 58.9538,117.875 58.0548,118.234 L58.0548,118.259 C58.0548,118.259 58.1738,118.378 58.3418,118.678 L60.0928,121.856 L58.3658,121.856 L56.6748,118.678 L55.1878,118.678 L55.1878,121.856 L53.6408,121.856 L53.6408,113.341 Z" id="Fill-106" fill="#00B1B0"></path>
                    <path d="M64.2712,114.8164 C64.2712,114.8164 64.0792,115.6564 63.9112,116.1354 L63.1562,118.4144 L65.3862,118.4144 L64.6312,116.1354 C64.4752,115.6564 64.2952,114.8164 64.2952,114.8164 L64.2712,114.8164 Z M65.7702,119.6734 L62.7842,119.6734 L62.0642,121.8564 L60.4692,121.8564 L63.4672,113.3404 L65.0862,113.3404 L68.0852,121.8564 L66.4902,121.8564 L65.7702,119.6734 Z" id="Fill-107" fill="#00B1B0"></path>
                    <polygon id="Fill-108" fill="#00B1B0" points="69.1809 113.3408 74.0739 113.3408 74.0739 114.6728 70.7279 114.6728 70.7279 117.0828 73.5459 117.0828 73.5459 118.4138 70.7279 118.4138 70.7279 121.8568 69.1809 121.8568"></polygon>
                    <polygon id="Fill-109" fill="#00B1B0" points="77.2917 114.6729 74.4977 114.6729 74.4977 113.3409 81.6337 113.3409 81.6337 114.6729 78.8387 114.6729 78.8387 121.8569 77.2917 121.8569"></polygon>
                </g>
            </g>
        </g>
    </g>
</svg>