<?xml version="1.0" encoding="UTF-8"?>
<svg width="88px" height="122px" viewBox="0 0 88 122" version="1.1" xmlns="http://www.w3.org/2000/svg" xmlns:xlink="http://www.w3.org/1999/xlink">
    <!-- Generator: Sketch 42 (36781) - http://www.bohemiancoding.com/sketch -->
    <title>HEALTH_ICON</title>
    <desc>Created with Sketch.</desc>
    <defs></defs>
    <g id="Page-1" stroke="none" stroke-width="1" fill="none" fill-rule="evenodd">
        <g id="Home" transform="translate(-427.000000, -1223.000000)">
            <g id="CATEGORIES" transform="translate(122.000000, 1066.000000)">
                <g id="HEALTH_ICON" transform="translate(305.000000, 156.982000)">
                    <polygon id="Fill-110" fill="#00B1B0" points="0.6856 25.1164 43.9866 0.1164 87.2886 25.1164 87.2886 75.1164 43.9866 100.1164 0.6856 75.1164"></polygon>
                    <path d="M52.1338,62.6418 L42.8328,62.6418 L42.8328,52.9558 L52.1338,52.9558 L52.1338,43.6558 L61.8168,43.6558 L61.8168,52.9558 L62.6268,52.9558 L64.5158,50.9788 C65.0008,50.5348 65.4598,50.0638 65.8758,49.5548 L65.9018,49.5278 L65.8978,49.5258 C67.7898,47.1938 68.9268,44.2248 68.9268,40.9878 C68.9268,33.4948 62.8538,27.4208 55.3608,27.4208 C50.3668,27.4208 46.0148,30.1268 43.6598,34.1448 C41.3048,30.1268 36.9528,27.4208 31.9588,27.4208 C24.4658,27.4208 18.3918,33.4948 18.3918,40.9878 C18.3918,44.7078 19.8918,48.0758 22.3178,50.5268 L22.3158,50.5278 L43.6588,72.8118 L52.1338,63.9408 L52.1338,62.6418 Z" id="Fill-111" fill="#FEFEFE"></path>
                    <polygon id="Fill-112" fill="#FEFEFE" points="69.5816 54.4953 60.2786 54.4953 60.2786 45.1943 53.6716 45.1943 53.6716 54.4953 44.3706 54.4953 44.3706 61.1023 53.6716 61.1023 53.6716 70.4053 60.2786 70.4053 60.2786 61.1023 69.5816 61.1023"></polygon>
                    <polygon id="Fill-113" fill="#00B1B0" points="20.2165 113.3408 21.7635 113.3408 21.7635 116.9508 25.6615 116.9508 25.6615 113.3408 27.2085 113.3408 27.2085 121.8568 25.6615 121.8568 25.6615 118.2818 21.7635 118.2818 21.7635 121.8568 20.2165 121.8568"></polygon>
                    <polygon id="Fill-114" fill="#00B1B0" points="29.3723 113.3408 34.4693 113.3408 34.4693 114.6728 30.9193 114.6728 30.9193 116.9038 33.7863 116.9038 33.7863 118.2348 30.9193 118.2348 30.9193 120.5258 34.6613 120.5258 34.6613 121.8568 29.3723 121.8568"></polygon>
                    <path d="M39.0066,114.8164 C39.0066,114.8164 38.8146,115.6564 38.6466,116.1354 L37.8916,118.4144 L40.1216,118.4144 L39.3666,116.1354 C39.2106,115.6564 39.0306,114.8164 39.0306,114.8164 L39.0066,114.8164 Z M40.5056,119.6734 L37.5196,119.6734 L36.7996,121.8564 L35.2046,121.8564 L38.2026,113.3404 L39.8216,113.3404 L42.8206,121.8564 L41.2256,121.8564 L40.5056,119.6734 Z" id="Fill-115" fill="#00B1B0"></path>
                    <polygon id="Fill-116" fill="#00B1B0" points="43.9162 113.3408 45.4632 113.3408 45.4632 120.5258 49.1452 120.5258 49.1452 121.8568 43.9162 121.8568"></polygon>
                    <polygon id="Fill-117" fill="#00B1B0" points="51.4626 114.6729 48.6686 114.6729 48.6686 113.3409 55.8046 113.3409 55.8046 114.6729 53.0096 114.6729 53.0096 121.8569 51.4626 121.8569"></polygon>
                    <polygon id="Fill-118" fill="#00B1B0" points="56.9358 113.3408 58.4828 113.3408 58.4828 116.9508 62.3808 116.9508 62.3808 113.3408 63.9278 113.3408 63.9278 121.8568 62.3808 121.8568 62.3808 118.2818 58.4828 118.2818 58.4828 121.8568 56.9358 121.8568"></polygon>
                </g>
            </g>
        </g>
    </g>
</svg>