<svg width="88" height="122" viewBox="0 0 88 122" xmlns="http://www.w3.org/2000/svg"><title>HEALTH_ICON</title><g fill="none" fill-rule="evenodd"><path fill="#00B1B0" d="M.686 25.098l43.3-25 43.303 25v50l-43.302 25-43.301-25z"/><path d="M52.134 62.624h-9.301v-9.686h9.3v-9.3h9.684v9.3h.81l1.889-1.977c.485-.444.944-.915 1.36-1.424l.026-.027-.004-.002a13.504 13.504 0 0 0 3.029-8.538c0-7.493-6.073-13.567-13.566-13.567-4.994 0-9.346 2.706-11.701 6.724-2.355-4.018-6.707-6.724-11.701-6.724-7.493 0-13.567 6.074-13.567 13.567 0 3.72 1.5 7.088 3.926 9.539h-.002l21.343 22.285 8.475-8.871v-1.3z" fill="#FEFEFE"/><path fill="#FEFEFE" d="M69.582 54.477h-9.303v-9.3h-6.607v9.3H44.37v6.607h9.3v9.303h6.608v-9.303h9.303z"/><path fill="#00B1B0" d="M20.216 113.323h1.547v3.61h3.898v-3.61h1.547v8.516h-1.546v-3.575h-3.898v3.575h-1.547zM29.372 113.323h5.097v1.332h-3.55v2.23h2.867v1.332H30.92v2.29h3.742v1.332h-5.289zM39.007 114.798s-.192.84-.36 1.32l-.755 2.278h2.23l-.755-2.279c-.156-.479-.336-1.319-.336-1.319h-.024zm1.499 4.857H37.52l-.72 2.183h-1.595l2.998-8.516h1.619l2.999 8.516h-1.595l-.72-2.183zM43.916 113.323h1.547v7.185h3.682v1.33h-5.229zM51.463 114.655h-2.794v-1.332h7.136v1.332H53.01v7.184h-1.547zM56.936 113.323h1.547v3.61h3.898v-3.61h1.547v8.516H62.38v-3.575h-3.898v3.575h-1.547z"/></g></svg>