<svg width="87" height="122" viewBox="0 0 87 122" xmlns="http://www.w3.org/2000/svg"><title>OTHERS_ICON</title><g fill="none" fill-rule="evenodd"><path fill="#00B1B0" d="M.228 25.098l43.3-25 43.302 25v50l-43.301 25-43.301-25zM24.645 120.567c1.559 0 2.806-1.295 2.806-3.046 0-1.68-1.247-2.927-2.806-2.927-1.56 0-2.807 1.247-2.807 2.927 0 1.751 1.247 3.046 2.807 3.046m0-7.388c2.506 0 4.4 1.908 4.4 4.342 0 2.507-1.894 4.461-4.4 4.461-2.507 0-4.402-1.954-4.402-4.461 0-2.434 1.895-4.342 4.402-4.342M32.314 114.655h-2.795v-1.332h7.137v1.332H33.86v7.184h-1.547zM37.786 113.323h1.547v3.61h3.898v-3.61h1.547v8.516h-1.547v-3.575h-3.898v3.575h-1.547zM46.943 113.323h5.097v1.332h-3.55v2.23h2.866v1.332H48.49v2.29h3.742v1.332h-5.29zM56.78 117.317c.828 0 1.343-.492 1.343-1.344 0-.815-.347-1.318-1.558-1.318h-1.176v2.662h1.392zm-2.938-3.994h2.747c.922 0 1.343.072 1.715.24.852.384 1.39 1.199 1.39 2.326 0 1.02-.538 1.968-1.438 2.327v.025s.12.119.288.419l1.75 3.178h-1.726l-1.691-3.178h-1.489v3.178h-1.545v-8.515zM61.93 119.656s.924.899 2.123.899c.648 0 1.235-.336 1.235-1.031 0-1.523-4.017-1.26-4.017-3.874 0-1.415 1.222-2.471 2.854-2.471 1.679 0 2.542.912 2.542.912l-.672 1.259s-.815-.744-1.882-.744c-.72 0-1.284.42-1.284 1.02 0 1.51 4.006 1.139 4.006 3.862 0 1.355-1.031 2.494-2.806 2.494-1.895 0-2.94-1.163-2.94-1.163l.84-1.163z"/><path d="M31.005 50.098a5.671 5.671 0 1 1-11.342 0 5.671 5.671 0 0 1 11.342 0M67.394 50.098a5.671 5.671 0 1 1-11.342 0 5.671 5.671 0 0 1 11.342 0M49.2 50.098a5.671 5.671 0 1 1-11.342 0 5.671 5.671 0 0 1 11.342 0" fill="#FEFEFE"/></g></svg>