<?xml version="1.0" encoding="UTF-8"?>
<svg width="87px" height="122px" viewBox="0 0 87 122" version="1.1" xmlns="http://www.w3.org/2000/svg" xmlns:xlink="http://www.w3.org/1999/xlink">
    <!-- Generator: Sketch 42 (36781) - http://www.bohemiancoding.com/sketch -->
    <title>OTHERS_ICON</title>
    <desc>Created with Sketch.</desc>
    <defs></defs>
    <g id="Page-1" stroke="none" stroke-width="1" fill="none" fill-rule="evenodd">
        <g id="Home" transform="translate(-728.000000, -1223.000000)">
            <g id="CATEGORIES" transform="translate(122.000000, 1066.000000)">
                <g id="OTHERS_ICON" transform="translate(606.000000, 156.982000)">
                    <polygon id="Fill-144" fill="#00B1B0" points="0.2276 25.1164 43.5286 0.1164 86.8296 25.1164 86.8296 75.1164 43.5286 100.1164 0.2276 75.1164"></polygon>
                    <path d="M24.6448,120.585 C26.2038,120.585 27.4508,119.29 27.4508,117.539 C27.4508,115.859 26.2038,114.612 24.6448,114.612 C23.0848,114.612 21.8378,115.859 21.8378,117.539 C21.8378,119.29 23.0848,120.585 24.6448,120.585 M24.6448,113.197 C27.1508,113.197 29.0458,115.105 29.0458,117.539 C29.0458,120.046 27.1508,122 24.6448,122 C22.1378,122 20.2428,120.046 20.2428,117.539 C20.2428,115.105 22.1378,113.197 24.6448,113.197" id="Fill-145" fill="#00B1B0"></path>
                    <polygon id="Fill-146" fill="#00B1B0" points="32.3137 114.6729 29.5187 114.6729 29.5187 113.3409 36.6557 113.3409 36.6557 114.6729 33.8607 114.6729 33.8607 121.8569 32.3137 121.8569"></polygon>
                    <polygon id="Fill-147" fill="#00B1B0" points="37.7864 113.3408 39.3334 113.3408 39.3334 116.9508 43.2314 116.9508 43.2314 113.3408 44.7784 113.3408 44.7784 121.8568 43.2314 121.8568 43.2314 118.2818 39.3334 118.2818 39.3334 121.8568 37.7864 121.8568"></polygon>
                    <polygon id="Fill-148" fill="#00B1B0" points="46.9426 113.3408 52.0396 113.3408 52.0396 114.6728 48.4896 114.6728 48.4896 116.9038 51.3556 116.9038 51.3556 118.2348 48.4896 118.2348 48.4896 120.5258 52.2316 120.5258 52.2316 121.8568 46.9426 121.8568"></polygon>
                    <path d="M56.7805,117.335 C57.6075,117.335 58.1235,116.843 58.1235,115.991 C58.1235,115.176 57.7755,114.673 56.5645,114.673 L55.3885,114.673 L55.3885,117.335 L56.7805,117.335 Z M53.8425,113.341 L56.5885,113.341 C57.5115,113.341 57.9315,113.413 58.3035,113.581 C59.1555,113.965 59.6945,114.78 59.6945,115.907 C59.6945,116.927 59.1555,117.875 58.2565,118.234 L58.2565,118.259 C58.2565,118.259 58.3755,118.378 58.5435,118.678 L60.2945,121.856 L58.5675,121.856 L56.8765,118.678 L55.3885,118.678 L55.3885,121.856 L53.8425,121.856 L53.8425,113.341 Z" id="Fill-149" fill="#00B1B0"></path>
                    <path d="M61.9299,119.6738 C61.9299,119.6738 62.8539,120.5728 64.0529,120.5728 C64.7009,120.5728 65.2879,120.2368 65.2879,119.5418 C65.2879,118.0188 61.2709,118.2818 61.2709,115.6678 C61.2709,114.2528 62.4929,113.1968 64.1249,113.1968 C65.8039,113.1968 66.6669,114.1088 66.6669,114.1088 L65.9949,115.3678 C65.9949,115.3678 65.1799,114.6238 64.1129,114.6238 C63.3929,114.6238 62.8289,115.0438 62.8289,115.6438 C62.8289,117.1548 66.8349,116.7828 66.8349,119.5058 C66.8349,120.8608 65.8039,121.9998 64.0289,121.9998 C62.1339,121.9998 61.0899,120.8368 61.0899,120.8368 L61.9299,119.6738 Z" id="Fill-150" fill="#00B1B0"></path>
                    <path d="M31.0051,50.1164 C31.0051,53.2484 28.4661,55.7874 25.3341,55.7874 C22.2021,55.7874 19.6631,53.2484 19.6631,50.1164 C19.6631,46.9844 22.2021,44.4454 25.3341,44.4454 C28.4661,44.4454 31.0051,46.9844 31.0051,50.1164" id="Fill-151" fill="#FEFEFE"></path>
                    <path d="M67.3945,50.1164 C67.3945,53.2484 64.8555,55.7874 61.7235,55.7874 C58.5915,55.7874 56.0525,53.2484 56.0525,50.1164 C56.0525,46.9844 58.5915,44.4454 61.7235,44.4454 C64.8555,44.4454 67.3945,46.9844 67.3945,50.1164" id="Fill-152" fill="#FEFEFE"></path>
                    <path d="M49.1998,50.1164 C49.1998,53.2484 46.6608,55.7874 43.5288,55.7874 C40.3968,55.7874 37.8578,53.2484 37.8578,50.1164 C37.8578,46.9844 40.3968,44.4454 43.5288,44.4454 C46.6608,44.4454 49.1998,46.9844 49.1998,50.1164" id="Fill-153" fill="#FEFEFE"></path>
                </g>
            </g>
        </g>
    </g>
</svg>