<svg width="87" height="122" viewBox="0 0 87 122" xmlns="http://www.w3.org/2000/svg"><title>SOCIAL_ICON</title><g fill="none" fill-rule="evenodd"><path fill="#00B1B0" d="M.046 25.098l43.301-25 43.303 25v50l-43.303 25-43.3-25zM19.965 119.656s.923.899 2.123.899c.648 0 1.235-.336 1.235-1.031 0-1.523-4.018-1.26-4.018-3.874 0-1.415 1.223-2.471 2.855-2.471 1.68 0 2.542.912 2.542.912l-.672 1.259s-.815-.744-1.882-.744c-.72 0-1.284.42-1.284 1.02 0 1.51 4.006 1.139 4.006 3.862 0 1.355-1.03 2.494-2.806 2.494-1.895 0-2.939-1.163-2.939-1.163l.84-1.163zM30.235 120.567c1.56 0 2.806-1.295 2.806-3.046 0-1.68-1.247-2.927-2.806-2.927-1.56 0-2.807 1.247-2.807 2.927 0 1.751 1.247 3.046 2.807 3.046m0-7.388c2.506 0 4.401 1.908 4.401 4.342 0 2.507-1.895 4.461-4.4 4.461-2.508 0-4.403-1.954-4.403-4.461 0-2.434 1.895-4.342 4.402-4.342M40.003 113.18c2.075 0 3.143 1.162 3.143 1.162l-.744 1.151s-.972-.899-2.327-.899c-1.8 0-2.854 1.344-2.854 2.927 0 1.62 1.09 3.046 2.866 3.046 1.476 0 2.47-1.079 2.47-1.079l.816 1.115s-1.175 1.38-3.346 1.38c-2.603 0-4.401-1.932-4.401-4.439 0-2.47 1.87-4.365 4.377-4.365M44.805 121.839h1.547v-8.516h-1.547zM51.247 114.798s-.192.84-.36 1.32l-.755 2.278h2.23l-.755-2.279c-.156-.479-.336-1.319-.336-1.319h-.024zm1.5 4.857H49.76l-.72 2.183h-1.595l2.998-8.516h1.62l2.998 8.516h-1.595l-.72-2.183zM56.157 113.323h1.548v7.185h3.681v1.33h-5.229z"/><path d="M48.907 30.493c.874.135 1.752.252 2.622.407 3.803.677 7.315 2.118 10.628 4.075.159.094.32.184.515.296.055-.257.092-.472.147-.682a1.883 1.883 0 0 1 1.802-1.415c.72-.01 1.44-.003 2.16-.002 1.204.003 2.052.753 2.06 1.949a850.4 850.4 0 0 1 .002 11.066c-.007 1.087-.711 1.847-1.805 1.946a14.69 14.69 0 0 1-2.464.008c-1.042-.081-1.622-.677-1.817-1.717-.026-.133-.043-.268-.074-.464-.977.215-1.931.457-2.897.634-2.412.443-4.84.81-7.298.654-.835-.053-1.717-.264-2.464-.633-1.811-.892-3.685-.844-5.617-.746-2.066.106-4.14.068-6.21.05-.432-.003-.884-.135-1.29-.301-.82-.338-1.322-.956-1.382-1.873-.064-.983.349-1.75 1.242-2.11a17.77 17.77 0 0 1 2.984-.896 88.627 88.627 0 0 1 5.607-.995c.943-.135 1.916-.06 2.875-.088.307-.01.616-.024.919-.071.333-.052.57-.233.587-.606.017-.395-.18-.66-.544-.771a2.101 2.101 0 0 0-.61-.066 33.534 33.534 0 0 0-9.127 1.273c-1.74.488-3.446 1.12-5.12 1.806-.773.317-1.468.872-2.135 1.399-1.126.89-2.341 1.409-3.797 1.156-1.762-.307-2.567-2.068-1.644-3.61.672-1.122 1.632-1.987 2.655-2.77 4.409-3.371 9.313-5.66 14.79-6.668.5-.092 1.006-.157 1.508-.235h3.192zM24.004 64.89c-.115 1.04-.51 1.81-1.512 2.059-.406.1-.852.048-1.28.055-.445.007-.891.003-1.338 0-1.16-.003-2.012-.77-2.02-1.936a887.372 887.372 0 0 1-.001-11.066c.006-1.094.702-1.856 1.793-1.954a15.028 15.028 0 0 1 2.465-.014c1.04.079 1.63.677 1.826 1.709.026.134.044.269.077.472.97-.214 1.924-.45 2.889-.63 2.41-.445 4.84-.81 7.298-.656.836.052 1.718.264 2.465.632 1.81.89 3.686.878 5.617.74 2.288-.164 4.585-.376 6.868.052 1.55.292 2.398 1.64 1.91 2.986-.211.58-.6 1.037-1.172 1.226-1.1.363-2.21.732-3.342.95-2.03.392-4.078.699-6.125.988-.656.093-1.336.015-2.006.017-.154 0-.31-.002-.462.009-.704.05-.997.262-.997.715-.001.508.363.81 1.045.789 1.18-.04 2.368-.053 3.54-.19 3.119-.361 6.175-1.023 9.12-2.135 1.465-.552 2.84-1.238 4.04-2.291 1.016-.892 2.257-1.274 3.633-1.011 1.703.324 2.5 2.049 1.623 3.554-.704 1.208-1.743 2.114-2.838 2.945-4.181 3.17-8.822 5.372-13.972 6.42-3.692.754-7.328.317-10.911-.735a33.134 33.134 0 0 1-7.772-3.434c-.13-.078-.262-.151-.461-.266" fill="#FEFEFE"/></g></svg>