<svg width="88" height="122" viewBox="0 0 88 122" xmlns="http://www.w3.org/2000/svg"><title>TECH_ICON</title><g fill="none" fill-rule="evenodd"><path fill="#00B1B0" d="M.866 25.098l43.301-25 43.301 25v50l-43.3 25-43.302-25zM2.836 114.655H.042v-1.332h7.136v1.332H4.383v7.184H2.836zM8.309 113.323h5.097v1.332h-3.55v2.23h2.867v1.332H9.856v2.29h3.742v1.332h-5.29zM18.95 113.18c2.075 0 3.143 1.162 3.143 1.162l-.744 1.151s-.972-.899-2.327-.899c-1.799 0-2.854 1.344-2.854 2.927 0 1.62 1.091 3.046 2.866 3.046 1.475 0 2.471-1.079 2.471-1.079l.815 1.115s-1.175 1.38-3.346 1.38c-2.603 0-4.4-1.932-4.4-4.439 0-2.47 1.87-4.365 4.376-4.365M23.753 113.323H25.3v3.61h3.898v-3.61h1.547v8.516h-1.547v-3.575H25.3v3.575h-1.547zM32.908 113.323h1.547l3.226 4.918c.324.49.708 1.319.708 1.319h.024s-.084-.816-.084-1.32v-4.917h1.535v8.516H38.33l-3.226-4.906c-.324-.492-.708-1.32-.708-1.32h-.024s.084.816.084 1.32v4.906h-1.547v-8.516zM45.843 120.567c1.558 0 2.805-1.295 2.805-3.046 0-1.68-1.247-2.927-2.806-2.927-1.56 0-2.806 1.247-2.806 2.927 0 1.751 1.246 3.046 2.806 3.046m0-7.388c2.507 0 4.401 1.908 4.401 4.342 0 2.507-1.895 4.461-4.4 4.461-2.508 0-4.403-1.954-4.403-4.461 0-2.434 1.896-4.342 4.403-4.342M51.82 113.323h1.547v7.185h3.683v1.33h-5.23zM61.958 120.567c1.56 0 2.807-1.295 2.807-3.046 0-1.68-1.247-2.927-2.807-2.927-1.56 0-2.806 1.247-2.806 2.927 0 1.751 1.247 3.046 2.806 3.046m0-7.388c2.507 0 4.402 1.908 4.402 4.342 0 2.507-1.895 4.461-4.402 4.461-2.506 0-4.401-1.954-4.401-4.461 0-2.434 1.895-4.342 4.4-4.342M71.75 113.18c2.087 0 3.167 1.078 3.167 1.078l-.768 1.151s-.912-.815-2.267-.815c-1.907 0-2.926 1.32-2.926 2.927 0 1.846 1.259 3.046 2.854 3.046 1.284 0 2.135-.888 2.135-.888v-.995h-1.307v-1.33h2.698v4.484h-1.32v-.408c0-.18.013-.359.013-.359h-.024s-.887.911-2.471.911c-2.242 0-4.173-1.739-4.173-4.413 0-2.47 1.859-4.39 4.389-4.39M78.796 118.276l-2.831-4.953h1.75l1.333 2.507c.276.527.503 1.15.516 1.139h.024s.239-.612.515-1.14l1.319-2.506h1.75l-2.83 4.953v3.563h-1.546v-3.563z"/><path d="M63.557 61.496a1.268 1.268 0 0 0-1.25-1.27c-.68-.005-1.281.587-1.28 1.254.004.631.602 1.243 1.237 1.265.654.023 1.28-.582 1.293-1.249zm-6.652-.06c-.014.69.54 1.283 1.22 1.303.645.02 1.28-.6 1.288-1.252.007-.659-.551-1.24-1.211-1.262a1.244 1.244 0 0 0-1.297 1.21zm-38.25-28.98c.137-.298.242-.616.414-.892.476-.768 1.184-1.238 2.08-1.272 1.342-.05 2.688-.013 4.105-.013-.535 1.121-.377 2.141.428 3.113-.228.04-.398.06-.564.1-1.115.275-1.924 1.115-1.983 2.267-.071 1.371-.274 2.815.057 4.106.433 1.688.309 3.344.326 5.014.04 4.167.01 8.335.013 12.502 0 .963.435 1.402 1.398 1.402 9.215.002 18.43 0 27.645 0l10.759-.003c1.058 0 1.469-.413 1.469-1.475 0-4.898 0-9.796.01-14.694a2.2 2.2 0 0 1 .126-.723c.412-1.155.435-2.299-.017-3.449-.077-.194-.101-.415-.116-.626-.024-.33.004-.666-.033-.995-.087-.786-.352-1.03-1.15-1.08a21.612 21.612 0 0 0-1.195-.033c-.678-.005-1.357 0-2.084-.044 1.138-.415 2.104-1.006 2.156-2.349.048-1.244-.633-2.158-1.566-3.007.203-.016.339-.036.476-.036 1.76-.002 3.52-.003 5.28 0 1.532.001 2.397.62 2.906 2.068.016.044.056.08.085.12v29.896c-.054.117-.115.231-.161.35-.381.974-1.071 1.585-2.11 1.754a7.657 7.657 0 0 1-1.24.076c-5.53.003-11.06 0-16.591-.002h-.646c.65 1.562 1.318 3.041 1.88 4.56.315.847.639 1.351 1.712 1.293 1.212-.064 1.98 1.184 1.596 2.302-.27.782-.95 1.201-1.976 1.201-5.315.002-10.63.002-15.945-.002a3.49 3.49 0 0 1-.691-.068 1.754 1.754 0 0 1-1.395-1.66c-.023-.793.518-1.542 1.307-1.725.366-.085.756-.093 1.134-.085.304.006.472-.07.595-.375.682-1.689 1.39-3.369 2.086-5.052.046-.112.07-.233.116-.384h-.396c-5.747 0-11.493-.003-17.24 0-.661 0-1.284-.113-1.85-.479-.63-.409-.941-1.04-1.21-1.704V32.456z" fill="#FEFEFE"/><path d="M57.773 44.85c-1.16-.323-2.365-.537-3.467-.998-1.143-.48-2.096-.386-3.227.098-6.015 2.573-12.07 5.055-18.11 7.574-.922.386-1.854.675-2.836.248-1.282-.556-1.93-1.588-2.03-2.948-.096-1.301.449-2.343 1.633-2.883 2.033-.928 4.11-1.76 6.174-2.622 4.63-1.934 9.267-3.857 13.894-5.804.228-.095.438-.333.563-.556.687-1.226 1.28-2.51 2.032-3.692.635-.996 1.648-1.566 2.809-1.83.726-.166 1.447-.365 2.18-.477 1.396-.21 2.456.375 3.223 1.514.43.639.259 1.102-.451 1.402-1.068.45-2.145.883-3.196 1.37-.797.368-.961.786-.66 1.611a40.5 40.5 0 0 0 1.033 2.53c.302.68.95.895 1.717.59 1.03-.41 2.052-.847 3.077-1.273.79-.328 1.234-.096 1.376.75.236 1.407-.193 2.58-1.383 3.377-1.111.745-2.235 1.497-3.575 1.804-.113.026-.225.059-.34.069-.132.011-.265.002-.398.002l-.038.144" fill="#FEFEFE"/><path d="M42.049 38.93c.312-1.925-.114-3.6-1.303-5.05-.848-1.033-1.95-1.695-3.248-1.999-2.617-.614-5.337.623-6.627 3-.736 1.358-.88 2.797-.552 4.294.247 1.129.751 1.857 2.482 3.604-.894.37-1.791.697-2.65 1.106-.858.41-1.678.9-2.59 1.395-.082-.089-.264-.28-.438-.477-.702-.791-.695-1.07.057-1.84.256-.26.506-.53.786-.763.256-.21.185-.393.118-.678-.237-1.011-.845-1.344-1.819-1.164-.128.023-.265-.002-.398-.008-.803-.047-1.082-.294-1.106-1.096a65.654 65.654 0 0 1-.008-3.137c.01-.591.275-.895.862-.968.525-.064 1.059-.072 1.589-.064.288.005.397-.098.553-.346.54-.863.35-1.45-.407-2.115-1.027-.904-.979-1.209-.034-2.195a60.867 60.867 0 0 1 1.875-1.858c.499-.478.921-.496 1.452-.047.391.332.727.73 1.118 1.063.114.098.33.096.5.101.089.003.177-.096.272-.111.934-.142 1.032-.749 1-1.56-.058-1.483.135-1.655 1.624-1.7.845-.024 1.693.005 2.54.03.731.023 1.04.334 1.078 1.08.025.48-.012.965.027 1.444.012.149.171.297.289.42.062.066.195.056.271.114.76.573 1.258.21 1.812-.389 1.038-1.118 1.28-1.093 2.37-.026.581.569 1.152 1.15 1.719 1.733.53.544.547.985.043 1.565-.293.338-.62.646-.934.967-.069.07-.217.157-.204.202.132.475.272.95.453 1.408.042.107.241.206.374.215.546.038 1.096.008 1.64.06.66.06 1.097.753.901 1.383a.37.37 0 0 1-.191.197c-1.738.731-3.48 1.455-5.296 2.21M49.24 35.521c-.77-1.542-1.283-1.958-2.613-2.114.701-.966 1.021-1.98.412-3.116h6.248c-2.14 1.113-3.18 3.08-4.047 5.23" fill="#FEFEFE"/></g></svg>