<svg xmlns="http://www.w3.org/2000/svg" viewBox="0 0 12.52 16.99"><defs><style>.cls-1{fill:#00b1af;}</style></defs><title>idea_Idea</title><g id="Capa_2" data-name="Capa 2"><g id="Capa_1-2" data-name="Capa 1"><g id="_Grupo_" data-name="&lt;Grupo&gt;"><path id="_Trazado_compuesto_" data-name="&lt;Trazado compuesto&gt;" class="cls-1" d="M6.26,14a9.73,9.73,0,0,1-3.57-.7,3.34,3.34,0,0,0,0,.67,3.58,3.58,0,0,0,7.1-.59v-.08A9.8,9.8,0,0,1,6.26,14ZM10.73,1.87A6.26,6.26,0,1,0,1.8,10.65a3.38,3.38,0,0,1,.81,1.51,8.42,8.42,0,0,0,7.37,0,4,4,0,0,1,.92-1.67A6.26,6.26,0,0,0,10.73,1.87Z"/></g></g></g></svg>