<svg xmlns="http://www.w3.org/2000/svg" viewBox="0 0 23.45 37.31"><defs><style>.cls-1{fill:#03a9cd;}.cls-2{fill:#fff;}</style></defs><title>location_Idea</title><g id="Capa_2" data-name="Capa 2"><g id="Capa_1-2" data-name="Capa 1"><path class="cls-1" d="M23.45,12a13.43,13.43,0,0,1-.93,4.71c-1.68,3.65-5,10.49-6.73,14.19l-.06.14-2.55,5.33a1.61,1.61,0,0,1-1.46.93,1.68,1.68,0,0,1-1.46-.93L7.66,30.91c-1.74-3.67-5-10.55-6.73-14.19A14.09,14.09,0,0,1,0,12,12.17,12.17,0,0,1,3.42,3.53,11.64,11.64,0,0,1,11.72,0,11.89,11.89,0,0,1,23.45,12Z"/><path class="cls-2" d="M11.73,5.43a6.85,6.85,0,1,0,6.85,6.85A6.87,6.87,0,0,0,11.73,5.43Zm0,2.77a4.08,4.08,0,1,1-4.08,4.08A4,4,0,0,1,11.73,8.2Z"/></g></g></svg>