<svg xmlns="http://www.w3.org/2000/svg" viewBox="0 0 16.19 15.47"><defs><style>.cls-1{fill:#f2674a;}</style></defs><title>problem_Idea</title><g id="Capa_2" data-name="Capa 2"><g id="Capa_1-2" data-name="Capa 1"><path class="cls-1" d="M.06,6.51S2.43,3.35,3.84,4,3.56,5.93,4.92,6.56s3.41-.15,3-2S6.62,4.07,6,3.1,9.09,0,9.09,0,11.36,4.5,12,3.32c.78-1.42,2.16-2.88,3.59-.69,0,0,1.23,1.63.17,2.32s-2,.3-2.37,1.05,2.56,2.77,2.56,2.77-2,3.25-3.33,2.4.24-2.28-1.76-2.7a2.32,2.32,0,0,0-2.58,1.59c-.09,1.83,1.08,1.37,1.89,2.35s-3,3.06-3,3.06-1.07-2.66-2.58-3.15S4,13.78,2.58,14-.68,12.41.24,10.8s2.22,0,2.33-1.32S.06,6.51.06,6.51Z"/></g></g></svg>