<svg id="Capa_1" data-name="Capa 1" xmlns="http://www.w3.org/2000/svg" viewBox="0 0 14.6 12.16"><defs><style>.cls-1{fill:#fff;}</style></defs><title>proyect</title><path class="cls-1" d="M12.32,1.23v9.71a.35.35,0,0,1,0,.08.67.67,0,0,1,0,.16,1.21,1.21,0,0,1-1.19,1H3.5a1.22,1.22,0,0,1-1.22-1.23V1.23A1.22,1.22,0,0,1,3.5,0h7.6A1.21,1.21,0,0,1,12.3,1a.64.64,0,0,1,0,.16A.35.35,0,0,1,12.32,1.23Z"/><path class="cls-1" d="M14.6,2.14V10a1,1,0,0,1-1,1H13V1.14h.63A1,1,0,0,1,14.6,2.14Z"/><path class="cls-1" d="M0,10V2.14a1,1,0,0,1,1-1h.63V11H1A1,1,0,0,1,0,10Z"/></svg>