<?xml version="1.0" encoding="UTF-8"?>
<svg width="160px" height="183px" viewBox="0 0 160 183" version="1.1" xmlns="http://www.w3.org/2000/svg" xmlns:xlink="http://www.w3.org/1999/xlink">
    <!-- Generator: Sketch 42 (36781) - http://www.bohemiancoding.com/sketch -->
    <title>Profile_IMG</title>
    <desc>Created with Sketch.</desc>
    <defs></defs>
    <g id="Page-1" stroke="none" stroke-width="1" fill="none" fill-rule="evenodd">
        <g id="MyProfile_Edit" transform="translate(-42.000000, -152.000000)">
            <g id="Profile_IMG" transform="translate(42.000000, 152.000000)">
                <path d="M0,47.0929423 L0,135.945481 C0,136.898212 0.511111111,137.778404 1.33955556,138.255212 L78.6604444,182.681481 C79.4888889,183.157404 80.5111111,183.157404 81.3395556,182.681481 L158.660444,138.255212 C159.488889,137.778404 160,136.898212 160,135.945481 L160,47.0929423 C160,46.1402115 159.488889,45.2600192 158.660444,44.7832115 L81.3395556,0.356942308 C80.5111111,-0.118980769 79.4888889,-0.118980769 78.6604444,0.356942308 L1.33955556,44.7832115 C0.511111111,45.2600192 0,46.1402115 0,47.0929423" id="Fill-1" fill="#D8D8D8"></path>
                <g id="AddPic" transform="translate(50.000000, 57.000000)" stroke="#EBEBEB" stroke-width="20" stroke-linecap="square">
                    <path d="M0,31 L61,31" id="Line"></path>
                    <path d="M31,0 L31,61" id="Line-Copy"></path>
                </g>
            </g>
        </g>
    </g>
</svg>