<svg xmlns="http://www.w3.org/2000/svg" viewBox="0 0 97.63 93"><defs><style>.cls-1{fill:#00acc8;}.cls-2{fill:#0091b3;}</style></defs><title>Gracias</title><g id="Capa_2" data-name="Capa 2"><g id="Capa_1-2" data-name="Capa 1"><path class="cls-1" d="M87.29,29.62a1.81,1.81,0,1,0,3.62,0,16.78,16.78,0,0,0-5-11.93,1.81,1.81,0,0,0-2.56,2.56A13.17,13.17,0,0,1,87.29,29.62Z"/><path class="cls-1" d="M11.67,17.68a16.77,16.77,0,0,0-5,11.93,1.81,1.81,0,1,0,3.62,0,13.17,13.17,0,0,1,3.89-9.37,1.81,1.81,0,1,0-2.56-2.56Z"/><path class="cls-2" d="M80.2,55.56a.22.22,0,0,0,.1-.1c9-1.62,17.33-17.29,17.33-26.61A19.19,19.19,0,0,0,78.47,9.7a18.9,18.9,0,0,0-6.6,1.21A29.43,29.43,0,0,0,26,11,18.79,18.79,0,0,0,19.17,9.7,19.19,19.19,0,0,0,0,28.85c0,9,7.73,23.8,16.3,26.34A6.87,6.87,0,0,0,15,57.86a5,5,0,0,0,.74,3.74,15.1,15.1,0,0,0,3,3.13c1.92,1.69,1.86,1.79,1.37,2.5a1.81,1.81,0,0,0,.52,2.52,1.76,1.76,0,0,0,1,.31,1.83,1.83,0,0,0,1.51-.82c2.33-3.48-.31-5.75-2-7.25a12.54,12.54,0,0,1-2.33-2.4,1.16,1.16,0,0,1-.22-1c.26-1.27,2-2.65,2.55-3a1.41,1.41,0,0,0,.34-.32,14.53,14.53,0,0,0,4.94-2.5C31.28,61.54,38.32,69,46.06,70.83a11,11,0,0,0-3,5.18,6.86,6.86,0,0,0,1,5.32,18.34,18.34,0,0,0,5.43,4.94c2.88,1.94,3,2.16,1.82,3.92a1.81,1.81,0,0,0,.48,2.5,2,2,0,0,0,1,.31,1.8,1.8,0,0,0,1.53-.8c3.23-4.86-.26-7.21-2.81-8.93a15.13,15.13,0,0,1-4.46-3.95,3.25,3.25,0,0,1-.51-2.56c.48-2.37,3.22-4.7,4.5-5.61,8-1,15.45-9.61,20.32-18.26a15.35,15.35,0,0,0,4,2.16,7.09,7.09,0,0,0-1.4,2.81,4.83,4.83,0,0,0,.76,3.74,15,15,0,0,0,3,3.13c2,1.67,1.88,1.79,1.4,2.5a1.81,1.81,0,0,0,.51,2.52,1.73,1.73,0,0,0,1,.31,1.81,1.81,0,0,0,1.51-.82c2.33-3.48-.32-5.75-2-7.25a12.12,12.12,0,0,1-2.33-2.4,1.16,1.16,0,0,1-.22-1C77.91,57.32,79.63,55.94,80.2,55.56ZM18.8,52C12.12,52,3.64,37.65,3.64,28.85A15.54,15.54,0,0,1,19.17,13.33a15.24,15.24,0,0,1,4.37.63,29.17,29.17,0,0,0-4.47,15.6c0,5.78,2,13,5.42,20.1A9.4,9.4,0,0,1,18.8,52ZM36.22,14.61a22.14,22.14,0,0,0-6.54,15.76,1.82,1.82,0,0,1-1.82,1.81,1.79,1.79,0,0,1-1.79-1.81A25.74,25.74,0,0,1,33.66,12a1.8,1.8,0,0,1,2.56,0,1.76,1.76,0,0,1,.54,1.28A1.79,1.79,0,0,1,36.22,14.61Zm36.95,35c.12-.26.23-.52.36-.79l.6-1.3c.22-.48.42-1,.61-1.46s.36-.84.52-1.28.38-1,.55-1.47.28-.83.44-1.24.31-1,.47-1.49.25-.8.35-1.19.26-1,.38-1.49.19-.76.28-1.14.19-1,.28-1.51c.07-.33.15-.68.19-1,.09-.55.15-1.08.19-1.6,0-.28.07-.57.09-.83.07-.79.1-1.56.1-2.3s0-1.5-.07-2.24c0-.23-.06-.47-.07-.71-.06-.5-.13-1-.19-1.49,0-.28-.09-.55-.15-.83-.07-.45-.17-.9-.26-1.34s-.15-.57-.22-.86-.23-.86-.36-1.28-.19-.57-.28-.84-.32-.86-.5-1.28c-.1-.26-.19-.52-.31-.79-.19-.45-.42-.89-.63-1.34-.12-.22-.22-.44-.35-.66-.31-.61-.66-1.22-1-1.82A.82.82,0,0,1,74.1,14a15.38,15.38,0,0,1,4.37-.63A15.55,15.55,0,0,1,94,28.85C94,37.65,85.53,52,78.83,52A9.36,9.36,0,0,1,73.17,49.65Z"/></g></g></svg>