<?xml version="1.0" encoding="UTF-8"?>
<svg width="1024px" height="761px" viewBox="0 0 1024 761" version="1.1" xmlns="http://www.w3.org/2000/svg" xmlns:xlink="http://www.w3.org/1999/xlink">
    <!-- Generator: Sketch 42 (36781) - http://www.bohemiancoding.com/sketch -->
    <title>BG_Hexágonos</title>
    <desc>Created with Sketch.</desc>
    <defs></defs>
    <g id="Page-1" stroke="none" stroke-width="1" fill="none" fill-rule="evenodd">
        <g id="LANDING-W/MENU">
            <g id="FONDO" transform="translate(-84.000000, -3.000000)">
                <g id="BG_Hexágonos" transform="translate(58.000000, 0.000000)">
                    <polygon id="Rectangle-4" fill="#FFFFFF" points="25 0 1049 0 1049 434 380.702535 444.184552 155.383407 489.83592 150.547033 434 98.0604785 444.184552 98.0604785 489.83592 25 434"></polygon>
                    <g id="Hexágonos" transform="translate(0.000000, 2.000000)">
                        <polygon id="Fill-1" fill="#F6F6F6" points="129.643603 0.0065169145 153.002339 13.4927846 176.360325 0.0065169145"></polygon>
                        <polygon id="Fill-3" fill="#F6F6F6" points="78.8349999 0.0065169145 102.193736 13.4927846 125.551723 0.0065169145"></polygon>
                        <polygon id="Fill-5" fill="#F6F6F6" points="180.45228 0.0065169145 203.811016 13.4927846 227.169003 0.0065169145"></polygon>
                        <polygon id="Fill-7" fill="#F0F0F0" points="231.260359 0.0065169145 254.619095 13.4927846 277.977081 0.0065169145"></polygon>
                        <polygon id="Fill-9" fill="#FAFAFA" points="282.069036 0.0065169145 305.427772 13.4927846 328.785759 0.0065169145"></polygon>
                        <polygon id="Fill-11" fill="#F6F6F6" points="28.0269963 0.0065169145 51.3857323 13.4927846 74.7437191 0.0065169145"></polygon>
                        <polygon id="Fill-13" fill="#F0F0F0" points="332.877639 0.0065169145 356.236375 13.4927846 379.594362 0.0065169145"></polygon>
                        <polygon id="Fill-15" fill="#F0F0F0" points="176.375831 0.0065169145 153.002114 13.5002753 153.002114 42.8346303 178.406602 57.5014333 203.811091 42.8346303 203.811091 13.5002753 180.437374 0.0065169145"></polygon>
                        <polygon id="Fill-17" fill="#F6F6F6" points="227.183835 0.0065169145 203.810866 13.5002753 203.810866 42.8346303 229.214606 57.5014333 254.619095 42.8346303 254.619095 13.5002753 231.245377 0.0065169145"></polygon>
                        <polygon id="Fill-19" fill="#F6F6F6" points="277.992513 0.0065169145 254.618795 13.5002753 254.618795 42.8346303 280.023284 57.5014333 305.427772 42.8346303 305.427772 13.5002753 282.054055 0.0065169145"></polygon>
                        <polygon id="Fill-21" fill="#FAFAFA" points="328.80119 0.0065169145 305.427473 13.5002753 305.427473 42.8346303 330.831961 57.5014333 356.23645 42.8346303 356.23645 13.5002753 332.862732 0.0065169145"></polygon>
                        <polygon id="Fill-23" fill="#F6F6F6" points="125.567154 0.0065169145 102.193436 13.5002753 102.193436 42.8346303 127.597925 57.5014333 153.002413 42.8346303 153.002413 13.5002753 129.628696 0.0065169145"></polygon>
                        <polygon id="Fill-25" fill="#F0F0F0" points="74.758551 0.0065169145 51.3855824 13.5002753 51.3855824 42.8346303 76.789322 57.5014333 102.193811 42.8346303 102.193811 13.5002753 78.8200931 0.0065169145"></polygon>
                        <polygon id="Fill-27" fill="#F6F6F6" points="27.4994154 0.0065169145 27.4994154 56.6250206 51.3855075 42.8346303 51.3855075 13.5002753 28.0117899 0.0065169145"></polygon>
                        <polygon id="Fill-29" fill="#F6F6F6" points="178.406453 86.8435786 153.001964 101.510382 127.598224 86.8435786 127.598224 57.5099727 153.001964 42.8431697 178.406453 57.5099727"></polygon>
                        <polygon id="Fill-31" fill="#FAFAFA" points="127.597925 86.8435786 102.193436 101.510382 76.7896966 86.8435786 76.7896966 57.5099727 102.193436 42.8431697 127.597925 57.5099727"></polygon>
                        <polygon id="Fill-33" fill="#F6F6F6" points="229.214906 86.8435786 203.810417 101.510382 178.406677 86.8435786 178.406677 57.5099727 203.810417 42.8431697 229.214906 57.5099727"></polygon>
                        <polygon id="Fill-35" fill="#FAFAFA" points="280.023359 86.8435786 254.61887 101.510382 229.21513 86.8435786 229.21513 57.5099727 254.61887 42.8431697 280.023359 57.5099727"></polygon>
                        <polygon id="Fill-37" fill="#F6F6F6" points="330.831812 86.8435786 305.427323 101.510382 280.023583 86.8435786 280.023583 57.5099727 305.427323 42.8431697 330.831812 57.5099727"></polygon>
                        <polygon id="Fill-39" fill="#FAFAFA" points="27.4994154 56.6334102 27.4994154 87.7198414 51.3855075 101.510981 76.7892471 86.8434288 76.7892471 57.5098229 51.3855075 42.8430199"></polygon>
                        <polygon id="Fill-41" fill="#F0F0F0" points="381.64019 86.8435786 356.235701 101.510382 330.831961 86.8435786 330.831961 57.5099727 356.235701 42.8431697 381.64019 57.5099727"></polygon>
                        <polygon id="Fill-43" fill="#F6F6F6" points="203.810642 130.852752 178.406153 145.519555 153.002413 130.852752 153.002413 101.519146 178.406153 86.8523428 203.810642 101.519146"></polygon>
                        <polygon id="Fill-45" fill="#F6F6F6" points="254.619095 130.852752 229.214606 145.519555 203.810866 130.852752 203.810866 101.519146 229.214606 86.8523428 254.619095 101.519146"></polygon>
                        <polygon id="Fill-47" fill="#F6F6F6" points="305.427548 130.852752 280.023059 145.519555 254.619319 130.852752 254.619319 101.519146 280.023059 86.8523428 305.427548 101.519146"></polygon>
                        <polygon id="Fill-49" fill="#FAFAFA" points="356.236001 130.852752 330.831512 145.519555 305.427772 130.852752 305.427772 101.519146 330.831512 86.8523428 356.236001 101.519146"></polygon>
                        <polygon id="Fill-51" fill="#F6F6F6" points="153.002189 130.852752 127.5977 145.519555 102.19396 130.852752 102.19396 101.519146 127.5977 86.8523428 153.002189 101.519146"></polygon>
                        <polygon id="Fill-53" fill="#F6F6F6" points="102.193661 130.852752 76.7891722 145.519555 51.3854326 130.852752 51.3854326 101.519146 76.7891722 86.8523428 102.193661 101.519146"></polygon>
                        <polygon id="Fill-55" fill="#F6F6F6" points="27.4994154 144.642842 51.3855075 130.853201 51.3855075 101.519595 27.4994154 87.7292048"></polygon>
                        <polygon id="Fill-57" fill="#F6F6F6" points="178.406453 174.834284 153.001964 189.501087 127.598224 174.834284 127.598224 145.500678 153.001964 130.833875 178.406453 145.500678"></polygon>
                        <polygon id="Fill-59" fill="#F6F6F6" points="127.597925 174.834284 102.193436 189.501087 76.7896966 174.834284 76.7896966 145.500678 102.193436 130.833875 127.597925 145.500678"></polygon>
                        <polygon id="Fill-61" fill="#F0F0F0" points="229.214906 174.834284 203.810417 189.501087 178.406677 174.834284 178.406677 145.500678 203.810417 130.833875 229.214906 145.500678"></polygon>
                        <polygon id="Fill-63" fill="#68C7C5" points="280.023359 174.834284 254.61887 189.501087 229.21513 174.834284 229.21513 145.500678 254.61887 130.833875 280.023359 145.500678"></polygon>
                        <polygon id="Fill-65" fill="#F6F6F6" points="330.831812 174.834284 305.427323 189.501087 280.023583 174.834284 280.023583 145.500678 305.427323 130.833875 330.831812 145.500678"></polygon>
                        <polygon id="Fill-67" fill="#FAFAFA" points="27.4994154 144.623966 27.4994154 175.710397 51.3855075 189.500787 76.7892471 174.833984 76.7892471 145.500378 51.3855075 130.834325"></polygon>
                        <polygon id="Fill-69" fill="#EBEBEB" points="381.64019 174.834284 356.235701 189.501087 330.831961 174.834284 330.831961 145.500678 356.235701 130.833875 381.64019 145.500678"></polygon>
                        <polygon id="Fill-71" fill="#F6F6F6" points="203.810642 218.843307 178.406153 233.51011 153.002413 218.843307 153.002413 189.509701 178.406153 174.842898 203.810642 189.509701"></polygon>
                        <polygon id="Fill-73" fill="#F6F6F6" points="254.619095 218.843307 229.214606 233.51011 203.810866 218.843307 203.810866 189.509701 229.214606 174.842898 254.619095 189.509701"></polygon>
                        <polygon id="Fill-75" fill="#FAFAFA" points="305.427548 218.843307 280.023059 233.51011 254.619319 218.843307 254.619319 189.509701 280.023059 174.842898 305.427548 189.509701"></polygon>
                        <polygon id="Fill-77" fill="#ECECEC" points="356.236001 218.843307 330.831512 233.51011 305.427772 218.843307 305.427772 189.509701 330.831512 174.842898 356.236001 189.509701"></polygon>
                        <polygon id="Fill-79" fill="#F0F0F0" points="153.002189 218.843382 127.5977 233.510185 102.19396 218.843382 102.19396 189.509776 127.5977 174.842973 153.002189 189.509776"></polygon>
                        <polygon id="Fill-81" fill="#F6F6F6" points="102.193661 218.843382 76.7891722 233.510185 51.3854326 218.843382 51.3854326 189.509776 76.7891722 174.842973 102.193661 189.509776"></polygon>
                        <polygon id="Fill-83" fill="#ECECEC" points="27.4994154 232.633922 51.3855075 218.843532 51.3855075 189.509926 27.4994154 175.719536"></polygon>
                        <polygon id="Fill-85" fill="#F0F0F0" points="586.658174 0.0065169145 610.09032 13.5339835 633.522466 0.0065169145"></polygon>
                        <polygon id="Fill-87" fill="#F6F6F6" points="637.466776 0.0065169145 660.898923 13.5339835 684.331069 0.0065169145"></polygon>
                        <polygon id="Fill-89" fill="#F6F6F6" points="688.275529 0.0065169145 711.707675 13.5339835 735.139822 0.0065169145"></polygon>
                        <polygon id="Fill-91" fill="#FAFAFA" points="739.083457 0.0065169145 762.515604 13.5339835 785.94775 0.0065169145"></polygon>
                        <polygon id="Fill-93" fill="#F6F6F6" points="535.850095 0.0065169145 559.282241 13.5339835 582.713639 0.0065169145"></polygon>
                        <polygon id="Fill-95" fill="#F0F0F0" points="485.041492 0.0065169145 508.473639 13.5339835 531.905785 0.0065169145"></polygon>
                        <polygon id="Fill-97" fill="#F6F6F6" points="434.232815 0.0065169145 457.664961 13.5339835 481.097107 0.0065169145"></polygon>
                        <polygon id="Fill-99" fill="#FAFAFA" points="383.50369 0.0065169145 406.935836 13.5339835 430.367982 0.0065169145"></polygon>
                        <polygon id="Fill-101" fill="#F6F6F6" points="582.727647 0.0065169145 559.282017 13.5429723 559.282017 42.8765783 584.685756 57.5433812 610.090245 42.8765783 610.090245 13.5429723 586.643866 0.0065169145"></polygon>
                        <polygon id="Fill-103" fill="#FAFAFA" points="531.919568 0.0065169145 508.473189 13.5429723 508.473189 42.8765783 533.877678 57.5433812 559.282166 42.8765783 559.282166 13.5429723 535.835788 0.0065169145"></polygon>
                        <polygon id="Fill-105" fill="#F6F6F6" points="633.536324 0.0065169145 610.089945 13.5429723 610.089945 42.8765783 635.494434 57.5433812 660.898923 42.8765783 660.898923 13.5429723 637.452544 0.0065169145"></polygon>
                        <polygon id="Fill-107" fill="#FAFAFA" points="684.344927 0.0065169145 660.898548 13.5429723 660.898548 42.8765783 686.303037 57.5433812 711.707525 42.8765783 711.707525 13.5429723 688.261146 0.0065169145"></polygon>
                        <polygon id="Fill-109" fill="#F6F6F6" points="735.153605 0.0065169145 711.707226 13.5429723 711.707226 42.8765783 737.111714 57.5433812 762.515454 42.8765783 762.515454 13.5429723 739.069824 0.0065169145"></polygon>
                        <polygon id="Fill-111" fill="#FAFAFA" points="481.11089 0.0065169145 457.664511 13.5429723 457.664511 42.8765783 483.069 57.5433812 508.473489 42.8765783 508.473489 13.5429723 485.02711 0.0065169145"></polygon>
                        <polygon id="Fill-113" fill="#F6F6F6" points="430.302288 0.0065169145 406.856658 13.5429723 406.856658 42.8765783 432.260397 57.5433812 457.664886 42.8765783 457.664886 13.5429723 434.218507 0.0065169145"></polygon>
                        <polygon id="Fill-115" fill="#F0F0F0" points="785.961608 0.0065169145 762.515229 13.5429723 762.515229 42.8765783 787.919718 57.5433812 813.324207 42.8765783 813.324207 13.5429723 789.877828 0.0065169145"></polygon>
                        <polygon id="Fill-117" fill="#F6F6F6" points="379.504996 0.0065169145 356.058617 13.5429723 356.058617 42.8765783 381.463106 57.5433812 406.867594 42.8765783 406.867594 13.5429723 383.421216 0.0065169145"></polygon>
                        <polygon id="Fill-119" fill="#E6BA83" points="635.494659 86.8858262 610.09017 101.552629 584.68643 86.8858262 584.68643 57.5522203 610.09017 42.8854173 635.494659 57.5522203"></polygon>
                        <polygon id="Fill-121" fill="#F6F6F6" points="686.303112 86.8858262 660.898623 101.552629 635.494883 86.8858262 635.494883 57.5522203 660.898623 42.8854173 686.303112 57.5522203"></polygon>
                        <polygon id="Fill-123" fill="#F6F6F6" points="737.111565 86.8858262 711.707076 101.552629 686.303336 86.8858262 686.303336 57.5522203 711.707076 42.8854173 737.111565 57.5522203"></polygon>
                        <polygon id="Fill-125" fill="#FAFAFA" points="787.920018 86.8858262 762.515529 101.552629 737.111789 86.8858262 737.111789 57.5522203 762.515529 42.8854173 787.920018 57.5522203"></polygon>
                        <polygon id="Fill-127" fill="#F6F6F6" points="584.686131 86.8858262 559.281642 101.552629 533.877903 86.8858262 533.877903 57.5522203 559.281642 42.8854173 584.686131 57.5522203"></polygon>
                        <polygon id="Fill-129" fill="#F6F6F6" points="533.877678 86.8858262 508.473189 101.552629 483.06945 86.8858262 483.06945 57.5522203 508.473189 42.8854173 533.877678 57.5522203"></polygon>
                        <polygon id="Fill-131" fill="#F6F6F6" points="483.069225 86.8858262 457.664736 101.552629 432.260997 86.8858262 432.260997 57.5522203 457.664736 42.8854173 483.069225 57.5522203"></polygon>
                        <polygon id="Fill-133" fill="#ECECEC" points="432.339875 86.8858262 406.935387 101.552629 381.531647 86.8858262 381.531647 57.5522203 406.935387 42.8854173 432.339875 57.5522203"></polygon>
                        <polygon id="Fill-135" fill="#F6F6F6" points="610.090395 130.867284 584.685906 145.534087 559.282166 130.867284 559.282166 101.533678 584.685906 86.8668747 610.090395 101.533678"></polygon>
                        <polygon id="Fill-137" fill="#F6F6F6" points="559.281942 130.867284 533.877453 145.534087 508.473714 130.867284 508.473714 101.533678 533.877453 86.8668747 559.281942 101.533678"></polygon>
                        <polygon id="Fill-139" fill="#F0F0F0" points="660.898923 130.867284 635.494434 145.534087 610.090694 130.867284 610.090694 101.533678 635.494434 86.8668747 660.898923 101.533678"></polygon>
                        <polygon id="Fill-141" fill="#ECECEC" points="711.707301 130.867284 686.302812 145.534087 660.899072 130.867284 660.899072 101.533678 686.302812 86.8668747 711.707301 101.533678"></polygon>
                        <polygon id="Fill-143" fill="#F6F6F6" points="762.515829 130.867284 737.11134 145.534087 711.7076 130.867284 711.7076 101.533678 737.11134 86.8668747 762.515829 101.533678"></polygon>
                        <polygon id="Fill-145" fill="#FAFAFA" points="508.473414 130.867284 483.068925 145.534087 457.665186 130.867284 457.665186 101.533678 483.068925 86.8668747 508.473414 101.533678"></polygon>
                        <polygon id="Fill-147" fill="#F6F6F6" points="457.664961 130.867284 432.260472 145.534087 406.856733 130.867284 406.856733 101.533678 432.260472 86.8668747 457.664961 101.533678"></polygon>
                        <polygon id="Fill-149" fill="#F6F6F6" points="813.324132 130.867284 787.919643 145.534087 762.515903 130.867284 762.515903 101.533678 787.919643 86.8668747 813.324132 101.533678"></polygon>
                        <polygon id="Fill-151" fill="#F6F6F6" points="406.867744 130.867284 381.463256 145.534087 356.059516 130.867284 356.059516 101.533678 381.463256 86.8668747 406.867744 101.533678"></polygon>
                        <polygon id="Fill-153" fill="#F6F6F6" points="635.494659 174.876382 610.09017 189.543185 584.68643 174.876382 584.68643 145.542776 610.09017 130.875973 635.494659 145.542776"></polygon>
                        <polygon id="Fill-155" fill="#F6F6F6" points="686.303112 174.876382 660.898623 189.543185 635.494883 174.876382 635.494883 145.542776 660.898623 130.875973 686.303112 145.542776"></polygon>
                        <polygon id="Fill-157" fill="#FAFAFA" points="737.111565 174.876382 711.707076 189.543185 686.303336 174.876382 686.303336 145.542776 711.707076 130.875973 737.111565 145.542776"></polygon>
                        <polygon id="Fill-159" fill="#ECECEC" points="787.920018 174.876382 762.515529 189.543185 737.111789 174.876382 737.111789 145.542776 762.515529 130.875973 787.920018 145.542776"></polygon>
                        <polygon id="Fill-161" fill="#F0F0F0" points="584.686131 174.876457 559.281642 189.54326 533.877903 174.876457 533.877903 145.542851 559.281642 130.876048 584.686131 145.542851"></polygon>
                        <polygon id="Fill-163" fill="#F6F6F6" points="533.877678 174.876457 508.473189 189.54326 483.06945 174.876457 483.06945 145.542851 508.473189 130.876048 533.877678 145.542851"></polygon>
                        <polygon id="Fill-165" fill="#ECECEC" points="483.069225 174.876457 457.664736 189.54326 432.260997 174.876457 432.260997 145.542851 457.664736 130.876048 483.069225 145.542851"></polygon>
                        <polygon id="Fill-167" fill="#F0F0F0" points="432.339875 174.876457 406.935387 189.54326 381.531647 174.876457 381.531647 145.542851 406.935387 130.876048 432.339875 145.542851"></polygon>
                        <polygon id="Fill-171" fill="#F6F6F6" points="127.597925 263.426418 102.193436 278.093221 76.7896966 263.426418 76.7896966 234.092812 102.193436 219.426009 127.597925 234.092812"></polygon>
                        <polygon id="Fill-173" fill="#F6F6F6" points="229.214906 263.426418 203.810417 278.093221 178.406677 263.426418 178.406677 234.092812 203.810417 219.426009 229.214906 234.092812"></polygon>
                        <polygon id="Fill-177" fill="#FAFAFA" points="330.831812 263.426418 305.427323 278.093221 280.023583 263.426418 280.023583 234.092812 305.427323 219.426009 330.831812 234.092812"></polygon>
                        <polygon id="Fill-179" fill="#F6F6F6" points="27.4994154 233.2164 27.4994154 264.302831 51.3855075 278.09397 76.7892471 263.426418 76.7892471 234.092812 51.3855075 219.426009"></polygon>
                        <polygon id="Fill-181" fill="#F0F0F0" points="381.64019 263.426418 356.235701 278.093221 330.831961 263.426418 330.831961 234.092812 356.235701 219.426009 381.64019 234.092812"></polygon>
                        <polygon id="Fill-183" fill="#F0F0F0" points="203.810642 307.435516 178.406153 322.102319 153.002413 307.435516 153.002413 278.10191 178.406153 263.435107 203.810642 278.10191"></polygon>
                        <polygon id="Fill-185" fill="#F6F6F6" points="254.619095 307.435516 229.214606 322.102319 203.810866 307.435516 203.810866 278.10191 229.214606 263.435107 254.619095 278.10191"></polygon>
                        <polygon id="Fill-187" fill="#F6F6F6" points="305.427548 307.435516 280.023059 322.102319 254.619319 307.435516 254.619319 278.10191 280.023059 263.435107 305.427548 278.10191"></polygon>
                        <polygon id="Fill-189" fill="#FAFAFA" points="356.236001 307.435516 330.831512 322.102319 305.427772 307.435516 305.427772 278.10191 330.831512 263.435107 356.236001 278.10191"></polygon>
                        <polygon id="Fill-191" fill="#F6F6F6" points="153.002189 307.435591 127.5977 322.102394 102.19396 307.435591 102.19396 278.101985 127.5977 263.435182 153.002189 278.101985"></polygon>
                        <polygon id="Fill-193" fill="#F0F0F0" points="102.193661 307.435591 76.7891722 322.102394 51.3854326 307.435591 51.3854326 278.101985 76.7891722 263.435182 102.193661 278.101985"></polygon>
                        <polygon id="Fill-195" fill="#F6F6F6" points="27.4994154 321.225832 51.3855075 307.436191 51.3855075 278.101836 27.4994154 264.312194"></polygon>
                        <polygon id="Fill-199" fill="#FAFAFA" points="127.597925 351.444689 102.193436 366.111492 76.7896966 351.444689 76.7896966 322.111083 102.193436 307.44428 127.597925 322.111083"></polygon>
                        <polygon id="Fill-201" fill="#F6F6F6" points="229.214906 351.444689 203.810417 366.111492 178.406677 351.444689 178.406677 322.111083 203.810417 307.44428 229.214906 322.111083"></polygon>
                        <polygon id="Fill-203" fill="#FAFAFA" points="280.023359 351.444689 254.61887 366.111492 229.21513 351.444689 229.21513 322.111083 254.61887 307.44428 280.023359 322.111083"></polygon>
                        <polygon id="Fill-205" fill="#F6F6F6" points="330.831812 351.444689 305.427323 366.111492 280.023583 351.444689 280.023583 322.111083 305.427323 307.44428 330.831812 322.111083"></polygon>
                        <polygon id="Fill-207" fill="#FAFAFA" points="27.4994154 321.234521 27.4994154 352.320952 51.3855075 366.112092 76.7892471 351.44454 76.7892471 322.110934 51.3855075 307.444131"></polygon>
                        <polygon id="Fill-209" fill="#F0F0F0" points="381.64019 351.444689 356.235701 366.111492 330.831961 351.444689 330.831961 322.111083 356.235701 307.44428 381.64019 322.111083"></polygon>
                        <polygon id="Fill-211" fill="#F6F6F6" points="203.810642 395.453713 178.406153 410.120516 153.002413 395.453713 153.002413 366.120107 178.406153 351.453304 203.810642 366.120107"></polygon>
                        <polygon id="Fill-213" fill="#F6F6F6" points="254.619095 395.453713 229.214606 410.120516 203.810866 395.453713 203.810866 366.120107 229.214606 351.453304 254.619095 366.120107"></polygon>
                        <polygon id="Fill-217" fill="#FAFAFA" points="356.236001 395.453713 330.831512 410.120516 305.427772 395.453713 305.427772 366.120107 330.831512 351.453304 356.236001 366.120107"></polygon>
                        <polygon id="Fill-219" fill="#F6F6F6" points="153.002189 395.453713 127.5977 410.120516 102.19396 395.453713 102.19396 366.120107 127.5977 351.453304 153.002189 366.120107"></polygon>
                        <polygon id="Fill-221" fill="#F6F6F6" points="102.193661 395.453713 76.7891722 410.120516 51.3854326 395.453713 51.3854326 366.120107 76.7891722 351.453304 102.193661 366.120107"></polygon>
                        <polygon id="Fill-223" fill="#00B4CB" points="51.3852079 395.453713 25.9807192 410.120516 0.576979663 395.453713 0.576979663 366.120107 25.9807192 351.453304 51.3852079 366.120107"></polygon>
                        <polygon id="Fill-226" fill="#F6F6F6" points="178.406453 439.435245 153.001964 454.102048 127.598224 439.435245 127.598224 410.101639 153.001964 395.434836 178.406453 410.101639"></polygon>
                        <polygon id="Fill-228" fill="#F6F6F6" points="127.597925 439.435245 102.193436 454.102048 76.7896966 439.435245 76.7896966 410.101639 102.193436 395.434836 127.597925 410.101639"></polygon>
                        <polygon id="Fill-230" fill="#F0F0F0" points="229.214906 439.435245 203.810417 454.102048 178.406677 439.435245 178.406677 410.101639 203.810417 395.434836 229.214906 410.101639"></polygon>
                        <polygon id="Fill-232" fill="#ECECEC" points="280.023359 439.435245 254.61887 454.102048 229.21513 439.435245 229.21513 410.101639 254.61887 395.434836 280.023359 410.101639"></polygon>
                        <polygon id="Fill-236" fill="#FAFAFA" points="76.7894718 439.435245 51.3849832 454.102048 25.9812436 439.435245 25.9812436 410.101639 51.3849832 395.434836 76.7894718 410.101639"></polygon>
                        <polygon id="Fill-239" fill="#F6F6F6" points="381.64019 439.435245 356.235701 454.102048 330.831961 439.435245 330.831961 410.101639 356.235701 395.434836 381.64019 410.101639"></polygon>
                        <polygon id="Fill-241" fill="#F6F6F6" points="203.810642 483.444343 178.406153 498.111146 153.002413 483.444343 153.002413 454.110737 178.406153 439.443934 203.810642 454.110737"></polygon>
                        <polygon id="Fill-243" fill="#F6F6F6" points="254.619095 483.444343 229.214606 498.111146 203.810866 483.444343 203.810866 454.110737 229.214606 439.443934 254.619095 454.110737"></polygon>
                        <polygon id="Fill-245" fill="#FAFAFA" points="305.427548 483.444343 280.023059 498.111146 254.619319 483.444343 254.619319 454.110737 280.023059 439.443934 305.427548 454.110737"></polygon>
                        <polygon id="Fill-247" fill="#ECECEC" points="356.236001 483.444343 330.831512 498.111146 305.427772 483.444343 305.427772 454.110737 330.831512 439.443934 356.236001 454.110737"></polygon>
                        <polygon id="Fill-249" fill="#F6F6F6" points="102.193661 483.444343 76.7891722 498.111146 51.3854326 483.444343 51.3854326 454.110737 76.7891722 439.443934 102.193661 454.110737"></polygon>
                        <polygon id="Fill-251" fill="#ECECEC" points="51.3852079 483.444343 25.9807192 498.111146 0.576979663 483.444343 0.576979663 454.110737 25.9807192 439.443934 51.3852079 454.110737"></polygon>
                        <polygon id="Fill-255" fill="#F6F6F6" points="610.090395 219.459493 584.685906 234.126296 559.282166 219.459493 559.282166 190.125887 584.685906 175.459084 610.090395 190.125887"></polygon>
                        <polygon id="Fill-257" fill="#F6F6F6" points="559.281942 219.459493 533.877453 234.126296 508.473714 219.459493 508.473714 190.125887 533.877453 175.459084 559.281942 190.125887"></polygon>
                        <polygon id="Fill-259" fill="#F6F6F6" points="660.898923 219.459493 635.494434 234.126296 610.090694 219.459493 610.090694 190.125887 635.494434 175.459084 660.898923 190.125887"></polygon>
                        <polygon id="Fill-261" fill="#F0F0F0" points="711.707301 219.459493 686.302812 234.126296 660.899072 219.459493 660.899072 190.125887 686.302812 175.459084 711.707301 190.125887"></polygon>
                        <polygon id="Fill-263" fill="#FAFAFA" points="762.515829 219.459493 737.11134 234.126296 711.7076 219.459493 711.7076 190.125887 737.11134 175.459084 762.515829 190.125887"></polygon>
                        <polygon id="Fill-265" fill="#F6F6F6" points="508.473414 219.459493 483.068925 234.126296 457.665186 219.459493 457.665186 190.125887 483.068925 175.459084 508.473414 190.125887"></polygon>
                        <polygon id="Fill-267" fill="#ECECEC" points="457.664961 219.459493 432.260472 234.126296 406.856733 219.459493 406.856733 190.125887 432.260472 175.459084 457.664961 190.125887"></polygon>
                        <polygon id="Fill-269" fill="#F0F0F0" points="813.324132 219.459493 787.919643 234.126296 762.515903 219.459493 762.515903 190.125887 787.919643 175.459084 813.324132 190.125887"></polygon>
                        <polygon id="Fill-271" fill="#F6F6F6" points="406.867744 219.459493 381.463256 234.126296 356.059516 219.459493 356.059516 190.125887 381.463256 175.459084 406.867744 190.125887"></polygon>
                        <polygon id="Fill-273" fill="#F0F0F0" points="635.494659 263.468591 610.09017 278.135394 584.68643 263.468591 584.68643 234.134985 610.09017 219.468182 635.494659 234.134985"></polygon>
                        <polygon id="Fill-275" fill="#F6F6F6" points="686.303112 263.468591 660.898623 278.135394 635.494883 263.468591 635.494883 234.134985 660.898623 219.468182 686.303112 234.134985"></polygon>
                        <polygon id="Fill-277" fill="#F6F6F6" points="737.111565 263.468591 711.707076 278.135394 686.303336 263.468591 686.303336 234.134985 711.707076 219.468182 737.111565 234.134985"></polygon>
                        <polygon id="Fill-279" fill="#FAFAFA" points="787.920018 263.468591 762.515529 278.135394 737.111789 263.468591 737.111789 234.134985 762.515529 219.468182 787.920018 234.134985"></polygon>
                        <polygon id="Fill-281" fill="#F6F6F6" points="584.686131 263.468666 559.281642 278.135469 533.877903 263.468666 533.877903 234.13506 559.281642 219.468257 584.686131 234.13506"></polygon>
                        <polygon id="Fill-283" fill="#F0F0F0" points="533.877678 263.468666 508.473189 278.135469 483.06945 263.468666 483.06945 234.13506 508.473189 219.468257 533.877678 234.13506"></polygon>
                        <polygon id="Fill-285" fill="#F6F6F6" points="483.069225 263.468666 457.664736 278.135469 432.260997 263.468666 432.260997 234.13506 457.664736 219.468257 483.069225 234.13506"></polygon>
                        <polygon id="Fill-287" fill="#FAFAFA" points="432.339875 263.468666 406.935387 278.135469 381.531647 263.468666 381.531647 234.13506 406.935387 219.468257 432.339875 234.13506"></polygon>
                        <polygon id="Fill-289" fill="#F6F6F6" points="610.090395 307.477689 584.685906 322.144492 559.282166 307.477689 559.282166 278.144083 584.685906 263.47728 610.090395 278.144083"></polygon>
                        <polygon id="Fill-291" fill="#FAFAFA" points="559.281942 307.477689 533.877453 322.144492 508.473714 307.477689 508.473714 278.144083 533.877453 263.47728 559.281942 278.144083"></polygon>
                        <polygon id="Fill-293" fill="#F6F6F6" points="660.898923 307.477689 635.494434 322.144492 610.090694 307.477689 610.090694 278.144083 635.494434 263.47728 660.898923 278.144083"></polygon>
                        <polygon id="Fill-295" fill="#FAFAFA" points="711.707301 307.477689 686.302812 322.144492 660.899072 307.477689 660.899072 278.144083 686.302812 263.47728 711.707301 278.144083"></polygon>
                        <polygon id="Fill-297" fill="#F6F6F6" points="762.515829 307.477689 737.11134 322.144492 711.7076 307.477689 711.7076 278.144083 737.11134 263.47728 762.515829 278.144083"></polygon>
                        <polygon id="Fill-299" fill="#FAFAFA" points="508.473414 307.477689 483.068925 322.144492 457.665186 307.477689 457.665186 278.144083 483.068925 263.47728 508.473414 278.144083"></polygon>
                        <polygon id="Fill-301" fill="#F6F6F6" points="457.664961 307.477689 432.260472 322.144492 406.856733 307.477689 406.856733 278.144083 432.260472 263.47728 457.664961 278.144083"></polygon>
                        <polygon id="Fill-303" fill="#F0F0F0" points="813.324132 307.477689 787.919643 322.144492 762.515903 307.477689 762.515903 278.144083 787.919643 263.47728 813.324132 278.144083"></polygon>
                        <polygon id="Fill-305" fill="#F6F6F6" points="406.867744 307.477689 381.463256 322.144492 356.059516 307.477689 356.059516 278.144083 381.463256 263.47728 406.867744 278.144083"></polygon>
                        <polygon id="Fill-307" fill="#F6F6F6" points="635.494659 351.486787 610.09017 366.15359 584.68643 351.486787 584.68643 322.153181 610.09017 307.486378 635.494659 322.153181"></polygon>
                        <polygon id="Fill-309" fill="#F6F6F6" points="686.303112 351.486787 660.898623 366.15359 635.494883 351.486787 635.494883 322.153181 660.898623 307.486378 686.303112 322.153181"></polygon>
                        <polygon id="Fill-311" fill="#F6F6F6" points="737.111565 351.486787 711.707076 366.15359 686.303336 351.486787 686.303336 322.153181 711.707076 307.486378 737.111565 322.153181"></polygon>
                        <polygon id="Fill-313" fill="#FAFAFA" points="787.920018 351.486787 762.515529 366.15359 737.111789 351.486787 737.111789 322.153181 762.515529 307.486378 787.920018 322.153181"></polygon>
                        <polygon id="Fill-315" fill="#F6F6F6" points="584.686131 351.486787 559.281642 366.15359 533.877903 351.486787 533.877903 322.153181 559.281642 307.486378 584.686131 322.153181"></polygon>
                        <polygon id="Fill-317" fill="#F6F6F6" points="533.877678 351.486787 508.473189 366.15359 483.06945 351.486787 483.06945 322.153181 508.473189 307.486378 533.877678 322.153181"></polygon>
                        <polygon id="Fill-319" fill="#F6F6F6" points="483.069225 351.486787 457.664736 366.15359 432.260997 351.486787 432.260997 322.153181 457.664736 307.486378 483.069225 322.153181"></polygon>
                        <polygon id="Fill-321" fill="#ECECEC" points="432.339875 351.486787 406.935387 366.15359 381.531647 351.486787 381.531647 322.153181 406.935387 307.486378 432.339875 322.153181"></polygon>
                        <polygon id="Fill-323" fill="#F6F6F6" points="610.090395 395.46832 584.685906 410.135122 559.282166 395.46832 559.282166 366.134714 584.685906 351.467911 610.090395 366.134714"></polygon>
                        <polygon id="Fill-325" fill="#F6F6F6" points="559.281942 395.46832 533.877453 410.135122 508.473714 395.46832 508.473714 366.134714 533.877453 351.467911 559.281942 366.134714"></polygon>
                        <polygon id="Fill-327" fill="#F0F0F0" points="660.898923 395.46832 635.494434 410.135122 610.090694 395.46832 610.090694 366.134714 635.494434 351.467911 660.898923 366.134714"></polygon>
                        <polygon id="Fill-329" fill="#ECECEC" points="711.707301 395.46832 686.302812 410.135122 660.899072 395.46832 660.899072 366.134714 686.302812 351.467911 711.707301 366.134714"></polygon>
                        <polygon id="Fill-331" fill="#F6F6F6" points="762.515829 395.46832 737.11134 410.135122 711.7076 395.46832 711.7076 366.134714 737.11134 351.467911 762.515829 366.134714"></polygon>
                        <polygon id="Fill-333" fill="#FAFAFA" points="508.473414 395.46832 483.068925 410.135122 457.665186 395.46832 457.665186 366.134714 483.068925 351.467911 508.473414 366.134714"></polygon>
                        <polygon id="Fill-335" fill="#F6F6F6" points="457.664961 395.46832 432.260472 410.135122 406.856733 395.46832 406.856733 366.134714 432.260472 351.467911 457.664961 366.134714"></polygon>
                        <polygon id="Fill-337" fill="#F6F6F6" points="813.324132 395.46832 787.919643 410.135122 762.515903 395.46832 762.515903 366.134714 787.919643 351.467911 813.324132 366.134714"></polygon>
                        <polygon id="Fill-339" fill="#F6F6F6" points="406.867744 395.46832 381.463256 410.135122 356.059516 395.46832 356.059516 366.134714 381.463256 351.467911 406.867744 366.134714"></polygon>
                        <polygon id="Fill-341" fill="#F6F6F6" points="635.494659 439.477418 610.09017 454.144221 584.68643 439.477418 584.68643 410.143812 610.09017 395.477009 635.494659 410.143812"></polygon>
                        <polygon id="Fill-343" fill="#F6F6F6" points="686.303112 439.477418 660.898623 454.144221 635.494883 439.477418 635.494883 410.143812 660.898623 395.477009 686.303112 410.143812"></polygon>
                        <polygon id="Fill-345" fill="#FAFAFA" points="737.111565 439.477418 711.707076 454.144221 686.303336 439.477418 686.303336 410.143812 711.707076 395.477009 737.111565 410.143812"></polygon>
                        <polygon id="Fill-347" fill="#EBEBEB" points="787.920018 439.477418 762.515529 454.144221 737.111789 439.477418 737.111789 410.143812 762.515529 395.477009 787.920018 410.143812"></polygon>
                        <polygon id="Fill-349" fill="#F0F0F0" points="584.686131 439.477418 559.281642 454.144221 533.877903 439.477418 533.877903 410.143812 559.281642 395.477009 584.686131 410.143812"></polygon>
                        <polygon id="Fill-351" fill="#F6F6F6" points="533.877678 439.477418 508.473189 454.144221 483.06945 439.477418 483.06945 410.143812 508.473189 395.477009 533.877678 410.143812"></polygon>
                        <polygon id="Fill-353" fill="#ECECEC" points="483.069225 439.477418 457.664736 454.144221 432.260997 439.477418 432.260997 410.143812 457.664736 395.477009 483.069225 410.143812"></polygon>
                        <polygon id="Fill-355" fill="#F0F0F0" points="432.339875 439.477418 406.935387 454.144221 381.531647 439.477418 381.531647 410.143812 406.935387 395.477009 432.339875 410.143812"></polygon>
                        <polygon id="Fill-357" fill="#F6F6F6" points="178.406453 527.228046 153.001964 541.894849 127.598224 527.228046 127.598224 497.89444 153.001964 483.227637 178.406453 497.89444"></polygon>
                        <polygon id="Fill-359" fill="#F6F6F6" points="229.214906 527.228046 203.810417 541.894849 178.406677 527.228046 178.406677 497.89444 203.810417 483.227637 229.214906 497.89444"></polygon>
                        <polygon id="Fill-361" fill="#F0F0F0" points="280.023359 527.228046 254.61887 541.894849 229.21513 527.228046 229.21513 497.89444 254.61887 483.227637 280.023359 497.89444"></polygon>
                        <polygon id="Fill-363" fill="#FAFAFA" points="330.831812 527.228046 305.427323 541.894849 280.023583 527.228046 280.023583 497.89444 305.427323 483.227637 330.831812 497.89444"></polygon>
                        <polygon id="Fill-365" fill="#F6F6F6" points="76.7894718 527.228046 51.3849832 541.894849 25.9812436 527.228046 25.9812436 497.89444 51.3849832 483.227637 76.7894718 497.89444"></polygon>
                        <polygon id="Fill-368" fill="#F0F0F0" points="381.64019 527.228046 356.235701 541.894849 330.831961 527.228046 330.831961 497.89444 356.235701 483.227637 381.64019 497.89444"></polygon>
                        <polygon id="Fill-370" fill="#F48365" points="254.619095 571.237144 229.214606 585.903947 203.810866 571.237144 203.810866 541.903538 229.214606 527.236735 254.619095 541.903538"></polygon>
                        <polygon id="Fill-372" fill="#FAFAFA" points="356.236001 571.237144 330.831512 585.903947 305.427772 571.237144 305.427772 541.903538 330.831512 527.236735 356.236001 541.903538"></polygon>
                        <polygon id="Fill-374" fill="#F6F6F6" points="51.3852079 571.237144 25.9807192 585.903947 0.576979663 571.237144 0.576979663 541.903538 25.9807192 527.236735 51.3852079 541.903538"></polygon>
                        <polygon id="Fill-377" fill="#FAFAFA" points="127.597925 615.246242 102.193436 629.913045 76.7896966 615.246242 76.7896966 585.912636 102.193436 571.245833 127.597925 585.912636"></polygon>
                        <polygon id="Fill-379" fill="#F6F6F6" points="229.214906 615.246242 203.810417 629.913045 178.406677 615.246242 178.406677 585.912636 203.810417 571.245833 229.214906 585.912636"></polygon>
                        <polygon id="Fill-381" fill="#FAFAFA" points="76.7894718 615.246242 51.3849832 629.913045 25.9812436 615.246242 25.9812436 585.912636 51.3849832 571.245833 76.7894718 585.912636"></polygon>
                        <polygon id="Fill-384" fill="#F0F0F0" points="381.64019 615.246242 356.235701 629.913045 330.831961 615.246242 330.831961 585.912636 356.235701 571.245833 381.64019 585.912636"></polygon>
                        <polygon id="Fill-388" fill="#FAFAFA" points="356.236001 659.25534 330.831512 673.922143 305.427772 659.25534 305.427772 629.921734 330.831512 615.254931 356.236001 629.921734"></polygon>
                        <polygon id="Fill-390" fill="#F6F6F6" points="102.193661 659.255415 76.7891722 673.922218 51.3854326 659.255415 51.3854326 629.921809 76.7891722 615.255006 102.193661 629.921809"></polygon>
                        <polygon id="Fill-392" fill="#F6F6F6" points="178.406453 703.236873 153.001964 717.903676 127.598224 703.236873 127.598224 673.903267 153.001964 659.236464 178.406453 673.903267"></polygon>
                        <polygon id="Fill-394" fill="#ECECEC" points="51.3852079 747.245971 25.9807192 761.912774 0.576979663 747.245971 0.576979663 717.912365 25.9807192 703.245562 51.3852079 717.912365"></polygon>
                        <polygon id="Fill-397" fill="#F6F6F6" points="610.889819 482.461712 585.48533 497.128515 560.081591 482.461712 560.081591 453.128106 585.48533 438.461303 610.889819 453.128106"></polygon>
                        <polygon id="Fill-399" fill="#F6F6F6" points="560.081366 482.461712 534.676877 497.128515 509.273138 482.461712 509.273138 453.128106 534.676877 438.461303 560.081366 453.128106"></polygon>
                        <polygon id="Fill-401" fill="#F6F6F6" points="661.698272 482.461712 636.293783 497.128515 610.890044 482.461712 610.890044 453.128106 636.293783 438.461303 661.698272 453.128106"></polygon>
                        <polygon id="Fill-403" fill="#F0F0F0" points="712.5068 482.461712 687.102311 497.128515 661.698571 482.461712 661.698571 453.128106 687.102311 438.461303 712.5068 453.128106"></polygon>
                        <polygon id="Fill-405" fill="#FAFAFA" points="763.315178 482.461712 737.910689 497.128515 712.50695 482.461712 712.50695 453.128106 737.910689 438.461303 763.315178 453.128106"></polygon>
                        <polygon id="Fill-407" fill="#F6F6F6" points="509.272838 482.461712 483.868349 497.128515 458.46461 482.461712 458.46461 453.128106 483.868349 438.461303 509.272838 453.128106"></polygon>
                        <polygon id="Fill-409" fill="#EBEBEB" points="458.464385 482.461712 433.059896 497.128515 407.656157 482.461712 407.656157 453.128106 433.059896 438.461303 458.464385 453.128106"></polygon>
                        <polygon id="Fill-411" fill="#F0F0F0" points="813.808228 481.984944 788.40374 496.651747 763 481.984944 763 452.651338 788.40374 437.984535 813.808228 452.651338"></polygon>
                        <polygon id="Fill-411-Copy" fill="#FFFFFF" points="863.808228 481.984944 838.40374 496.651747 813 481.984944 813 452.651338 838.40374 437.984535 863.808228 452.651338"></polygon>
                        <polygon id="Fill-413" fill="#F6F6F6" points="407.667168 482.461712 382.26268 497.128515 356.85894 482.461712 356.85894 453.128106 382.26268 438.461303 407.667168 453.128106"></polygon>
                        <polygon id="Fill-415" fill="#F6F6F6" points="687.102536 526.47081 661.698047 541.137613 636.294308 526.47081 636.294308 497.137204 661.698047 482.470401 687.102536 497.137204"></polygon>
                        <polygon id="Fill-417" fill="#F6F6F6" points="737.910914 526.47081 712.506425 541.137613 687.102686 526.47081 687.102686 497.137204 712.506425 482.470401 737.910914 497.137204"></polygon>
                        <polygon id="Fill-419" fill="#FAFAFA" points="788.719367 526.47081 763.314878 541.137613 737.911139 526.47081 737.911139 497.137204 763.314878 482.470401 788.719367 497.137204"></polygon>
                        <polygon id="Fill-421" fill="#F6F6F6" points="585.485555 526.47081 560.081066 541.137613 534.677327 526.47081 534.677327 497.137204 560.081066 482.470401 585.485555 497.137204"></polygon>
                        <polygon id="Fill-423" fill="#F0F0F0" points="534.677102 526.47081 509.272613 541.137613 483.868874 526.47081 483.868874 497.137204 509.272613 482.470401 534.677102 497.137204"></polygon>
                        <polygon id="Fill-425" fill="#F6F6F6" points="483.868649 526.47081 458.46416 541.137613 433.060421 526.47081 433.060421 497.137204 458.46416 482.470401 483.868649 497.137204"></polygon>
                        <polygon id="Fill-427" fill="#F6F6F6" points="610.889819 570.479909 585.48533 585.146712 560.081591 570.479909 560.081591 541.146303 585.48533 526.4795 610.889819 541.146303"></polygon>
                        <polygon id="Fill-429" fill="#F6F6F6" points="763.315178 570.479909 737.910689 585.146712 712.50695 570.479909 712.50695 541.146303 737.910689 526.4795 763.315178 541.146303"></polygon>
                        <polygon id="Fill-431" fill="#FAFAFA" points="509.272838 570.479909 483.868349 585.146712 458.46461 570.479909 458.46461 541.146303 483.868349 526.4795 509.272838 541.146303"></polygon>
                        <polygon id="Fill-433" fill="#F6F6F6" points="407.667168 570.479909 382.26268 585.146712 356.85894 570.479909 356.85894 541.146303 382.26268 526.4795 407.667168 541.146303"></polygon>
                        <polygon id="Fill-435" fill="#F6F6F6" points="737.910914 614.489007 712.506425 629.15581 687.102686 614.489007 687.102686 585.155401 712.506425 570.488598 737.910914 585.155401"></polygon>
                        <polygon id="Fill-437" fill="#FAFAFA" points="788.719367 614.489007 763.314878 629.15581 737.911139 614.489007 737.911139 585.155401 763.314878 570.488598 788.719367 585.155401"></polygon>
                        <polygon id="Fill-439" fill="#F6F6F6" points="534.677102 614.489007 509.272613 629.15581 483.868874 614.489007 483.868874 585.155401 509.272613 570.488598 534.677102 585.155401"></polygon>
                        <polygon id="Fill-441" fill="#F6F6F6" points="483.868649 614.489007 458.46416 629.15581 433.060421 614.489007 433.060421 585.155401 458.46416 570.488598 483.868649 585.155401"></polygon>
                        <polygon id="Fill-443" fill="#F6F6F6" points="661.698272 658.470539 636.293783 673.137342 610.890044 658.470539 610.890044 629.136933 636.293783 614.47013 661.698272 629.136933"></polygon>
                        <polygon id="Fill-445" fill="#ECECEC" points="712.5068 658.470539 687.102311 673.137342 661.698571 658.470539 661.698571 629.136933 687.102311 614.47013 712.5068 629.136933"></polygon>
                        <polygon id="Fill-447" fill="#FAFAFA" points="737.910914 702.479637 712.506425 717.14644 687.102686 702.479637 687.102686 673.146031 712.506425 658.479228 737.910914 673.146031"></polygon>
                        <polygon id="Fill-449" fill="#F6F6F6" points="1041.77441 526.428638 1016.36992 541.095441 990.966183 526.428638 990.966183 497.095032 1016.36992 482.428229 1041.77441 497.095032"></polygon>
                        <polygon id="Fill-451" fill="#F6F6F6" points="1092.58286 526.428638 1067.17838 541.095441 1041.77464 526.428638 1041.77464 497.095032 1067.17838 482.428229 1092.58286 497.095032"></polygon>
                        <polygon id="Fill-454" fill="#F6F6F6" points="940.157431 526.428638 914.752942 541.095441 889.349203 526.428638 889.349203 497.095032 914.752942 482.428229 940.157431 497.095032"></polygon>
                        <polygon id="Fill-456" fill="#F6F6F6" points="838.551761 526.428638 813.147273 541.095441 787.743533 526.428638 787.743533 497.095032 813.147273 482.428229 838.551761 497.095032"></polygon>
                        <polygon id="Fill-458" fill="#E6BA83" points="1067.1786 570.437736 1041.77411 585.104539 1016.37037 570.437736 1016.37037 541.10413 1041.77411 526.437327 1067.1786 541.10413"></polygon>
                        <polygon id="Fill-461" fill="#F6F6F6" points="1016.37015 570.437736 990.965659 585.104539 965.56192 570.437736 965.56192 541.10413 990.965659 526.437327 1016.37015 541.10413"></polygon>
                        <polygon id="Fill-463" fill="#F6F6F6" points="914.753167 570.437736 889.348678 585.104539 863.944939 570.437736 863.944939 541.10413 889.348678 526.437327 914.753167 541.10413"></polygon>
                        <polygon id="Fill-468" fill="#FAFAFA" points="940.157431 614.446834 914.752942 629.113637 889.349203 614.446834 889.349203 585.113228 914.752942 570.446425 940.157431 585.113228"></polygon>
                        <polygon id="Fill-470" fill="#F6F6F6" points="838.551761 614.446834 813.147273 629.113637 787.743533 614.446834 787.743533 585.113228 813.147273 570.446425 838.551761 585.113228"></polygon>
                        <polygon id="Fill-474" fill="#F6F6F6" points="914.746875 658.456007 889.342386 673.12281 863.938646 658.456007 863.938646 629.122401 889.342386 614.455598 914.746875 629.122401"></polygon>
                        <polygon id="Fill-479" fill="#F6F6F6" points="838.551761 702.437464 813.147273 717.104267 787.743533 702.437464 787.743533 673.103859 813.147273 658.437056 838.551761 673.103859"></polygon>
                        <polygon id="Fill-482" fill="#F6F6F6" points="993.011637 0.0065169145 1016.37037 13.4927846 1039.72836 0.0065169145"></polygon>
                        <polygon id="Fill-484" fill="#F6F6F6" points="942.202884 0.0065169145 965.56162 13.4927846 988.919607 0.0065169145"></polygon>
                        <polygon id="Fill-486" fill="#F6F6F6" points="1043.82024 0.0065169145 1050.75078 4.00730316 1050.75078 0.0065169145"></polygon>
                        <polygon id="Fill-488" fill="#F6F6F6" points="891.394955 0.0065169145 914.753691 13.4927846 938.111678 0.0065169145"></polygon>
                        <polygon id="Fill-490" fill="#ECECEC" points="840.586203 0.0065169145 863.944939 13.4927846 887.302926 0.0065169145"></polygon>
                        <polygon id="Fill-492" fill="#F6F6F6" points="789.789061 0.0065169145 813.147797 13.4927846 836.505784 0.0065169145"></polygon>
                        <polygon id="Fill-494" fill="#F0F0F0" points="1039.74379 0.0065169145 1016.37007 13.5002753 1016.37007 42.8346303 1041.77456 57.5014333 1050.75011 52.3193626 1050.75011 4.01629201 1043.80533 0.0065169145"></polygon>
                        <polygon id="Fill-496" fill="#F6F6F6" points="988.935113 0.0065169145 965.561395 13.5002753 965.561395 42.8346303 990.965884 57.5014333 1016.37037 42.8346303 1016.37037 13.5002753 992.996655 0.0065169145"></polygon>
                        <polygon id="Fill-498" fill="#F0F0F0" points="938.126435 0.0065169145 914.753467 13.5002753 914.753467 42.8346303 940.157206 57.5014333 965.561695 42.8346303 965.561695 13.5002753 942.187977 0.0065169145"></polygon>
                        <polygon id="Fill-500" fill="#F6F6F6" points="887.318432 0.0065169145 863.944714 13.5002753 863.944714 42.8346303 889.349203 57.5014333 914.753691 42.8346303 914.753691 13.5002753 891.379974 0.0065169145"></polygon>
                        <polygon id="Fill-502" fill="#FAFAFA" points="836.588633 0.0065169145 813.214915 13.5002753 813.214915 42.8346303 838.619404 57.5014333 864.023892 42.8346303 864.023892 13.5002753 840.650175 0.0065169145"></polygon>
                        <polygon id="Fill-504" fill="#F6F6F6" points="1041.77441 86.8435786 1016.36992 101.510382 990.966183 86.8435786 990.966183 57.5099727 1016.36992 42.8431697 1041.77441 57.5099727"></polygon>
                        <polygon id="Fill-506" fill="#FAFAFA" points="990.965884 86.8435786 965.561395 101.510382 940.157656 86.8435786 940.157656 57.5099727 965.561395 42.8431697 990.965884 57.5099727"></polygon>
                        <polygon id="Fill-508" fill="#F6F6F6" points="1041.77449 57.5099727 1041.77449 86.8435786 1050.75078 92.0256493 1050.75078 52.327902"></polygon>
                        <polygon id="Fill-510" fill="#FAFAFA" points="940.157431 86.8435786 914.752942 101.510382 889.349203 86.8435786 889.349203 57.5099727 914.752942 42.8431697 940.157431 57.5099727"></polygon>
                        <polygon id="Fill-512" fill="#F6F6F6" points="889.348903 86.8435786 863.944414 101.510382 838.540675 86.8435786 838.540675 57.5099727 863.944414 42.8431697 889.348903 57.5099727"></polygon>
                        <polygon id="Fill-514" fill="#F6F6F6" points="838.551761 86.8435786 813.147273 101.510382 787.743533 86.8435786 787.743533 57.5099727 813.147273 42.8431697 838.551761 57.5099727"></polygon>
                        <polygon id="Fill-516" fill="#F6F6F6" points="1016.37015 101.519445 1016.37015 130.853051 1041.77464 145.519105 1050.75018 140.337035 1050.75018 92.034713 1041.77464 86.8526424"></polygon>
                        <polygon id="Fill-518" fill="#F6F6F6" points="1016.37015 130.852752 990.965659 145.519555 965.56192 130.852752 965.56192 101.519146 990.965659 86.8523428 1016.37015 101.519146"></polygon>
                        <polygon id="Fill-520" fill="#F6F6F6" points="965.56162 130.852752 940.157131 145.519555 914.753392 130.852752 914.753392 101.519146 940.157131 86.8523428 965.56162 101.519146"></polygon>
                        <polygon id="Fill-522" fill="#F6F6F6" points="914.753167 130.852752 889.348678 145.519555 863.944939 130.852752 863.944939 101.519146 889.348678 86.8523428 914.753167 101.519146"></polygon>
                        <polygon id="Fill-524" fill="#ECECEC" points="864.023892 130.852752 838.619404 145.519555 813.215664 130.852752 813.215664 101.519146 838.619404 86.8523428 864.023892 101.519146"></polygon>
                        <polygon id="Fill-526" fill="#F6F6F6" points="1041.77441 174.834284 1016.36992 189.501087 990.966183 174.834284 990.966183 145.500678 1016.36992 130.833875 1041.77441 145.500678"></polygon>
                        <polygon id="Fill-528" fill="#F6F6F6" points="990.965884 174.834284 965.561395 189.501087 940.157656 174.834284 940.157656 145.500678 965.561395 130.833875 990.965884 145.500678"></polygon>
                        <polygon id="Fill-530" fill="#F0F0F0" points="1041.77449 145.500453 1041.77449 174.834059 1050.75078 180.01613 1050.75078 140.318383"></polygon>
                        <polygon id="Fill-532" fill="#00B1B0" points="940.157431 174.834284 914.752942 189.501087 889.349203 174.834284 889.349203 145.500678 914.752942 130.833875 940.157431 145.500678"></polygon>
                        <polygon id="Fill-534" fill="#F6F6F6" points="889.348903 174.834284 863.944414 189.501087 838.540675 174.834284 838.540675 145.500678 863.944414 130.833875 889.348903 145.500678"></polygon>
                        <polygon id="Fill-536" fill="#F6F6F6" points="838.551761 174.834284 813.147273 189.501087 787.743533 174.834284 787.743533 145.500678 813.147273 130.833875 838.551761 145.500678"></polygon>
                        <polygon id="Fill-538" fill="#F6F6F6" points="1016.37015 189.509851 1016.37015 218.843457 1041.77464 233.51026 1050.75018 228.328189 1050.75018 180.025119 1041.77464 174.843048"></polygon>
                        <polygon id="Fill-540" fill="#F0F0F0" points="1016.37015 218.843382 990.965659 233.510185 965.56192 218.843382 965.56192 189.509776 990.965659 174.842973 1016.37015 189.509776"></polygon>
                        <polygon id="Fill-542" fill="#F6F6F6" points="965.56162 218.843382 940.157131 233.510185 914.753392 218.843382 914.753392 189.509776 940.157131 174.842973 965.56162 189.509776"></polygon>
                        <polygon id="Fill-544" fill="#ECECEC" points="914.753167 218.843382 889.348678 233.510185 863.944939 218.843382 863.944939 189.509776 889.348678 174.842973 914.753167 189.509776"></polygon>
                        <polygon id="Fill-546" fill="#F0F0F0" points="864.023892 218.843382 838.619404 233.510185 813.215664 218.843382 813.215664 189.509776 838.619404 174.842973 864.023892 189.509776"></polygon>
                        <polygon id="Fill-548" fill="#F6F6F6" points="1041.77441 261.827677 1016.36992 276.49448 990.966183 261.827677 990.966183 232.494071 1016.36992 217.827268 1041.77441 232.494071"></polygon>
                        <polygon id="Fill-550" fill="#F6F6F6" points="990.965884 261.827677 965.561395 276.49448 940.157656 261.827677 940.157656 232.494071 965.561395 217.827268 990.965884 232.494071"></polygon>
                        <polygon id="Fill-552" fill="#F6F6F6" points="1041.77449 232.493846 1041.77449 261.827452 1050.75078 267.009523 1050.75078 227.311775"></polygon>
                        <polygon id="Fill-554" fill="#F6F6F6" points="940.157431 261.827677 914.752942 276.49448 889.349203 261.827677 889.349203 232.494071 914.752942 217.827268 940.157431 232.494071"></polygon>
                        <polygon id="Fill-556" fill="#ECECEC" points="889.348903 261.827677 863.944414 276.49448 838.540675 261.827677 838.540675 232.494071 863.944414 217.827268 889.348903 232.494071"></polygon>
                        <polygon id="Fill-558" fill="#F6F6F6" points="838.551761 261.827677 813.147273 276.49448 787.743533 261.827677 787.743533 232.494071 813.147273 217.827268 838.551761 232.494071"></polygon>
                        <polygon id="Fill-560" fill="#F0F0F0" points="1016.37015 276.503244 1016.37015 305.83685 1041.77464 320.503653 1050.75018 315.321582 1050.75018 267.018512 1041.77464 261.836441"></polygon>
                        <polygon id="Fill-562" fill="#F6F6F6" points="1016.37015 305.836775 990.965659 320.503578 965.56192 305.836775 965.56192 276.503169 990.965659 261.836366 1016.37015 276.503169"></polygon>
                        <polygon id="Fill-564" fill="#F0F0F0" points="965.56162 305.836775 940.157131 320.503578 914.753392 305.836775 914.753392 276.503169 940.157131 261.836366 965.56162 276.503169"></polygon>
                        <polygon id="Fill-566" fill="#F6F6F6" points="914.753167 305.836775 889.348678 320.503578 863.944939 305.836775 863.944939 276.503169 889.348678 261.836366 914.753167 276.503169"></polygon>
                        <polygon id="Fill-568" fill="#FAFAFA" points="864.023892 305.836775 838.619404 320.503578 813.215664 305.836775 813.215664 276.503169 838.619404 261.836366 864.023892 276.503169"></polygon>
                        <polygon id="Fill-570" fill="#F6F6F6" points="1041.77441 349.845873 1016.36992 364.512676 990.966183 349.845873 990.966183 320.512267 1016.36992 305.845464 1041.77441 320.512267"></polygon>
                        <polygon id="Fill-572" fill="#00A8CB" points="990.965884 349.845873 965.561395 364.512676 940.157656 349.845873 940.157656 320.512267 965.561395 305.845464 990.965884 320.512267"></polygon>
                        <polygon id="Fill-574" fill="#F6F6F6" points="1041.77449 320.511967 1041.77449 349.846322 1050.75078 355.028393 1050.75078 315.329897"></polygon>
                        <polygon id="Fill-576" fill="#FAFAFA" points="940.157431 349.845873 914.752942 364.512676 889.349203 349.845873 889.349203 320.512267 914.752942 305.845464 940.157431 320.512267"></polygon>
                        <polygon id="Fill-578" fill="#F6F6F6" points="889.348903 349.845873 863.944414 364.512676 838.540675 349.845873 838.540675 320.512267 863.944414 305.845464 889.348903 320.512267"></polygon>
                        <polygon id="Fill-580" fill="#F6F6F6" points="838.551761 349.845873 813.147273 364.512676 787.743533 349.845873 787.743533 320.512267 813.147273 305.845464 838.551761 320.512267"></polygon>
                        <polygon id="Fill-582" fill="#F6F6F6" points="1067.1786 393.854896 1041.77411 408.521699 1016.37037 393.854896 1016.37037 364.52129 1041.77411 349.854487 1067.1786 364.52129"></polygon>
                        <polygon id="Fill-585" fill="#F6F6F6" points="1016.37015 393.854971 990.965659 408.521774 965.56192 393.854971 965.56192 364.521365 990.965659 349.854562 1016.37015 364.521365"></polygon>
                        <polygon id="Fill-587" fill="#F6F6F6" points="965.56162 393.854971 940.157131 408.521774 914.753392 393.854971 914.753392 364.521365 940.157131 349.854562 965.56162 364.521365"></polygon>
                        <polygon id="Fill-589" fill="#F6F6F6" points="914.753167 393.854971 889.348678 408.521774 863.944939 393.854971 863.944939 364.521365 889.348678 349.854562 914.753167 364.521365"></polygon>
                        <polygon id="Fill-591" fill="#ECECEC" points="864.023892 393.854971 838.619404 408.521774 813.215664 393.854971 813.215664 364.521365 838.619404 349.854562 864.023892 364.521365"></polygon>
                        <polygon id="Fill-593" fill="#F6F6F6" points="1041.77441 437.836429 1016.36992 452.503232 990.966183 437.836429 990.966183 408.502823 1016.36992 393.83602 1041.77441 408.502823"></polygon>
                        <polygon id="Fill-595" fill="#F6F6F6" points="990.965884 437.836429 965.561395 452.503232 940.157656 437.836429 940.157656 408.502823 965.561395 393.83602 990.965884 408.502823"></polygon>
                        <polygon id="Fill-597" fill="#F0F0F0" points="1092.58286 437.836429 1067.17838 452.503232 1041.77464 437.836429 1041.77464 408.502823 1067.17838 393.83602 1092.58286 408.502823"></polygon>
                        <polygon id="Fill-600" fill="#FAFAFA" points="940.157431 437.836429 914.752942 452.503232 889.349203 437.836429 889.349203 408.502823 914.752942 393.83602 940.157431 408.502823"></polygon>
                        <polygon id="Fill-602" fill="#F6F6F6" points="889.348903 437.836429 863.944414 452.503232 838.540675 437.836429 838.540675 408.502823 863.944414 393.83602 889.348903 408.502823"></polygon>
                        <polygon id="Fill-604" fill="#F6F6F6" points="838.551761 437.836429 813.147273 452.503232 787.743533 437.836429 787.743533 408.502823 813.147273 393.83602 838.551761 408.502823"></polygon>
                        <polygon id="Fill-606" fill="#F6F6F6" points="1067.1786 481.845527 1041.77411 496.51233 1016.37037 481.845527 1016.37037 452.511921 1041.77411 437.845118 1067.1786 452.511921"></polygon>
                        <polygon id="Fill-609" fill="#F0F0F0" points="1016.37015 481.845602 990.965659 496.512405 965.56192 481.845602 965.56192 452.511996 990.965659 437.845193 1016.37015 452.511996"></polygon>
                        <polygon id="Fill-611" fill="#F6F6F6" points="965.56162 481.845602 940.157131 496.512405 914.753392 481.845602 914.753392 452.511996 940.157131 437.845193 965.56162 452.511996"></polygon>
                        <polygon id="Fill-613" fill="#ECECEC" points="914.753167 481.845602 889.348678 496.512405 863.944939 481.845602 863.944939 452.511996 889.348678 437.845193 914.753167 452.511996"></polygon>
                    </g>
                </g>
            </g>
        </g>
    </g>
</svg>