<svg width="1024" height="761" viewBox="0 0 1024 761" xmlns="http://www.w3.org/2000/svg" xmlns:xlink="http://www.w3.org/1999/xlink"><title>BG_Hexágonos</title><defs><path id="a" d="M0 0h1024v800H0z"/></defs><g fill="none" fill-rule="evenodd"><mask id="b" fill="#fff"><use xlink:href="#a"/></mask><use fill-opacity="0" fill="#D8D8D8" xlink:href="#a"/><path fill="#FFF" mask="url(#b)" d="M-1-3h1024v434l-668.297 10.185-225.32 45.65L124.547 431 72.06 441.185v45.65L-1 431z"/><g mask="url(#b)"><path fill="#F6F6F6" d="M103.644-.993l23.358 13.486L150.36-.993zm-50.809 0l23.359 13.486L99.552-.993zm101.617 0l23.359 13.486L201.169-.993z"/><path fill="#F0F0F0" d="M205.26-.993l23.36 13.486L251.976-.993z"/><path fill="#FAFAFA" d="M256.069-.993l23.359 13.486L302.786-.993z"/><path fill="#F6F6F6" d="M2.027-.993l23.359 13.486L48.744-.993z"/><path fill="#F0F0F0" d="M306.878-.993l23.358 13.486L353.594-.993zm-156.502 0L127.002 12.5v29.335L152.407 56.5l25.404-14.666V12.5L154.437-.993z"/><path fill="#F6F6F6" d="M201.184-.993L177.81 12.5v29.335L203.215 56.5l25.404-14.666V12.5L205.245-.993zm50.809 0L228.619 12.5v29.335L254.023 56.5l25.405-14.666V12.5L256.054-.993z"/><path fill="#FAFAFA" d="M302.801-.993L279.427 12.5v29.335L304.832 56.5l25.404-14.666V12.5L306.863-.993z"/><path fill="#F6F6F6" d="M99.567-.993L76.193 12.5v29.335L101.598 56.5l25.404-14.666V12.5L103.63-.993z"/><path fill="#F0F0F0" d="M48.759-.993L25.386 12.5v29.335L50.789 56.5l25.405-14.666V12.5L52.82-.993z"/><path fill="#F6F6F6" d="M1.5-.993v56.618l23.886-13.79V12.5L2.012-.993zm150.906 86.837l-25.404 14.666-25.404-14.666V56.51l25.404-14.667 25.404 14.667z"/><path fill="#FAFAFA" d="M101.598 85.844L76.193 100.51 50.79 85.844V56.51l25.403-14.667 25.405 14.667z"/><path fill="#F6F6F6" d="M203.215 85.844L177.81 100.51l-25.403-14.666V56.51l25.403-14.667 25.405 14.667z"/><path fill="#FAFAFA" d="M254.023 85.844L228.62 100.51l-25.404-14.666V56.51l25.404-14.667 25.404 14.667z"/><path fill="#F6F6F6" d="M304.832 85.844l-25.405 14.666-25.403-14.666V56.51l25.403-14.667 25.405 14.667z"/><path fill="#FAFAFA" d="M1.5 55.633V86.72l23.886 13.791 25.403-14.668V56.51L25.386 41.843z"/><path fill="#F0F0F0" d="M355.64 85.844l-25.404 14.666-25.404-14.666V56.51l25.404-14.667L355.64 56.51z"/><path fill="#F6F6F6" d="M177.81 129.853l-25.404 14.667-25.404-14.667v-29.334l25.404-14.667 25.405 14.667zm50.81 0l-25.405 14.667-25.404-14.667v-29.334l25.404-14.667 25.404 14.667z"/><path fill="#F6F6F6" d="M279.428 129.853l-25.405 14.667-25.404-14.667v-29.334l25.404-14.667 25.405 14.667z"/><path fill="#FAFAFA" d="M330.236 129.853l-25.404 14.667-25.404-14.667v-29.334l25.404-14.667 25.404 14.667z"/><path fill="#F6F6F6" d="M127.002 129.853l-25.404 14.667-25.404-14.667v-29.334l25.404-14.667 25.404 14.667z"/><path fill="#F6F6F6" d="M76.194 129.853L50.789 144.52l-25.404-14.667v-29.334L50.79 85.852l25.405 14.667z"/><path fill="#F6F6F6" d="M1.5 143.643l23.886-13.79V100.52L1.499 86.73zm150.906 30.191l-25.404 14.667-25.404-14.667v-29.333l25.404-14.667 25.404 14.667zm-50.808 0l-25.405 14.667-25.403-14.667v-29.333l25.403-14.667 25.405 14.667z"/><path fill="#F0F0F0" d="M203.215 173.834l-25.405 14.667-25.403-14.667v-29.333l25.403-14.667 25.405 14.667z"/><path fill="#68C7C5" d="M254.023 173.834l-25.404 14.667-25.404-14.667v-29.333l25.404-14.667 25.404 14.667z"/><path fill="#F6F6F6" d="M304.832 173.834l-25.405 14.667-25.403-14.667v-29.333l25.403-14.667 25.405 14.667z"/><path fill="#FAFAFA" d="M1.5 143.624v31.086l23.886 13.79 25.403-14.666V144.5l-25.403-14.666z"/><path fill="#EBEBEB" d="M355.64 173.834l-25.404 14.667-25.404-14.667v-29.333l25.404-14.667L355.64 144.5z"/><path fill="#F6F6F6" d="M177.81 217.843l-25.404 14.667-25.404-14.667V188.51l25.404-14.667 25.405 14.667zm50.81 0l-25.405 14.667-25.404-14.667V188.51l25.404-14.667 25.404 14.667z"/><path fill="#FAFAFA" d="M279.428 217.843l-25.405 14.667-25.404-14.667V188.51l25.404-14.667 25.405 14.667z"/><path fill="#ECECEC" d="M330.236 217.843l-25.404 14.667-25.404-14.667V188.51l25.404-14.667 25.404 14.667z"/><path fill="#F0F0F0" d="M126.808 218l-25.404 14.667L76 218v-29.333L101.404 174l25.404 14.667z"/><path fill="#E6BB83" d="M152.406 262.426l-25.404 14.667-25.404-14.667v-29.333l25.404-14.667 25.404 14.667z"/><path fill="#F6F6F6" d="M76.194 217.843L50.789 232.51l-25.404-14.667V188.51l25.404-14.667 25.405 14.667z"/><path fill="#ECECEC" d="M1.5 231.634l23.886-13.79V188.51L1.499 174.72z"/><path fill="#F0F0F0" d="M560.658-.993l23.432 13.527L607.522-.993z"/><path fill="#F6F6F6" d="M611.467-.993l23.432 13.527L658.33-.993zm50.809 0l23.432 13.527L709.14-.993z"/><path fill="#FAFAFA" d="M713.083-.993l23.433 13.527L759.948-.993z"/><path fill="#F6F6F6" d="M509.85-.993l23.432 13.527L556.714-.993z"/><path fill="#F0F0F0" d="M459.041-.993l23.433 13.527L505.906-.993z"/><path fill="#F6F6F6" d="M408.233-.993l23.432 13.527L455.097-.993z"/><path fill="#FAFAFA" d="M357.504-.993l23.432 13.527L404.368-.993z"/><path fill="#F6F6F6" d="M556.728-.993l-23.446 13.536v29.334l25.404 14.666 25.404-14.666V12.543L560.644-.993z"/><path fill="#FAFAFA" d="M505.92-.993l-23.447 13.536v29.334l25.405 14.666 25.404-14.666V12.543L509.836-.993z"/><path fill="#F6F6F6" d="M607.536-.993L584.09 12.543v29.334l25.404 14.666L634.9 41.877V12.543L611.453-.993z"/><path fill="#FAFAFA" d="M658.345-.993l-23.446 13.536v29.334l25.404 14.666 25.405-14.666V12.543L662.26-.993z"/><path fill="#F6F6F6" d="M709.154-.993l-23.447 13.536v29.334l25.405 14.666 25.403-14.666V12.543L713.07-.993z"/><path fill="#FAFAFA" d="M455.11-.993l-23.445 13.536v29.334l25.404 14.666 25.404-14.666V12.543L459.027-.993z"/><path fill="#F6F6F6" d="M404.302-.993l-23.445 13.536v29.334l25.403 14.666 25.405-14.666V12.543L408.219-.993z"/><path fill="#F0F0F0" d="M759.962-.993l-23.447 13.536v29.334l25.405 14.666 25.404-14.666V12.543L763.878-.993z"/><path fill="#F6F6F6" d="M353.505-.993l-23.446 13.536v29.334l25.404 14.666 25.405-14.666V12.543L357.42-.993z"/><path fill="#E6BA83" d="M609.495 85.886l-25.405 14.667-25.404-14.667V56.552l25.404-14.667 25.405 14.667z"/><path fill="#F6F6F6" d="M660.303 85.886L634.9 100.553l-25.404-14.667V56.552L634.9 41.885l25.404 14.667z"/><path fill="#F6F6F6" d="M711.112 85.886l-25.405 14.667-25.404-14.667V56.552l25.404-14.667 25.405 14.667z"/><path fill="#FAFAFA" d="M761.92 85.886l-25.404 14.667-25.404-14.667V56.552l25.404-14.667 25.404 14.667z"/><path fill="#F6F6F6" d="M558.686 85.886l-25.404 14.667-25.404-14.667V56.552l25.404-14.667 25.404 14.667zm-50.808 0l-25.405 14.667-25.404-14.667V56.552l25.404-14.667 25.405 14.667z"/><path fill="#F6F6F6" d="M457.07 85.886l-25.405 14.667-25.404-14.667V56.552l25.404-14.667 25.404 14.667z"/><path fill="#ECECEC" d="M406.34 85.886l-25.405 14.667-25.403-14.667V56.552l25.403-14.667 25.405 14.667z"/><path fill="#F6F6F6" d="M584.09 129.867l-25.404 14.667-25.404-14.667v-29.333l25.404-14.667 25.404 14.667zm-50.808 0l-25.405 14.667-25.403-14.667v-29.333l25.403-14.667 25.405 14.667z"/><path fill="#F0F0F0" d="M634.899 129.867l-25.405 14.667-25.403-14.667v-29.333l25.403-14.667 25.405 14.667z"/><path fill="#ECECEC" d="M685.707 129.867l-25.404 14.667-25.404-14.667v-29.333l25.404-14.667 25.404 14.667z"/><path fill="#F6F6F6" d="M736.516 129.867l-25.405 14.667-25.403-14.667v-29.333l25.403-14.667 25.405 14.667z"/><path fill="#FAFAFA" d="M482.473 129.867l-25.404 14.667-25.404-14.667v-29.333l25.404-14.667 25.404 14.667z"/><path fill="#F6F6F6" d="M431.665 129.867l-25.405 14.667-25.403-14.667v-29.333l25.403-14.667 25.405 14.667zm355.659 0l-25.404 14.667-25.404-14.667v-29.333l25.404-14.667 25.404 14.667z"/><path fill="#F6F6F6" d="M380.868 129.867l-25.405 14.667-25.403-14.667v-29.333l25.403-14.667 25.405 14.667zm228.627 44.009l-25.405 14.667-25.404-14.667v-29.333l25.404-14.667 25.405 14.667zm50.808 0L634.9 188.543l-25.404-14.667v-29.333l25.404-14.667 25.404 14.667z"/><path fill="#FAFAFA" d="M711.112 173.876l-25.405 14.667-25.404-14.667v-29.333l25.404-14.667 25.405 14.667z"/><path fill="#ECECEC" d="M761.92 173.876l-25.404 14.667-25.404-14.667v-29.333l25.404-14.667 25.404 14.667z"/><path fill="#F0F0F0" d="M558.686 173.876l-25.404 14.667-25.404-14.667v-29.333l25.404-14.667 25.404 14.667z"/><path fill="#F6F6F6" d="M507.878 173.876l-25.405 14.667-25.404-14.667v-29.333l25.404-14.667 25.405 14.667z"/><path fill="#ECECEC" d="M457.07 173.876l-25.405 14.667-25.404-14.667v-29.333l25.404-14.667 25.404 14.667z"/><path fill="#F0F0F0" d="M406.34 173.876l-25.405 14.667-25.403-14.667v-29.333l25.403-14.667 25.405 14.667z"/><path fill="#F6F6F6" d="M101.598 262.426l-25.405 14.667-25.403-14.667v-29.333l25.403-14.667 25.405 14.667zm101.617 0l-25.405 14.667-25.403-14.667v-29.333l25.403-14.667 25.405 14.667z"/><path fill="#FAFAFA" d="M304.832 262.426l-25.405 14.667-25.403-14.667v-29.333l25.403-14.667 25.405 14.667z"/><path fill="#F6F6F6" d="M1.5 232.216v31.087l23.886 13.791 25.403-14.668v-29.333l-25.403-14.667z"/><path fill="#F0F0F0" d="M355.64 262.426l-25.404 14.667-25.404-14.667v-29.333l25.404-14.667 25.404 14.667zm-177.83 44.01l-25.404 14.666-25.404-14.666v-29.334l25.404-14.667 25.405 14.667z"/><path fill="#F6F6F6" d="M228.62 306.436l-25.405 14.666-25.404-14.666v-29.334l25.404-14.667 25.404 14.667z"/><path fill="#F6F6F6" d="M279.428 306.436l-25.405 14.666-25.404-14.666v-29.334l25.404-14.667 25.405 14.667z"/><path fill="#FAFAFA" d="M330.236 306.436l-25.404 14.666-25.404-14.666v-29.334l25.404-14.667 25.404 14.667z"/><path fill="#F6F6F6" d="M127.002 306.436l-25.404 14.666-25.404-14.666v-29.334l25.404-14.667 25.404 14.667z"/><path fill="#F0F0F0" d="M76.194 306.436l-25.405 14.666-25.404-14.666v-29.334l25.404-14.667 25.405 14.667z"/><path fill="#F6F6F6" d="M1.5 320.226l23.886-13.79v-29.334l-23.887-13.79z"/><path fill="#FAFAFA" d="M101.598 350.445L76.193 365.11 50.79 350.445V321.11l25.403-14.667 25.405 14.667z"/><path fill="#F6F6F6" d="M203.215 350.445L177.81 365.11l-25.403-14.666V321.11l25.403-14.667 25.405 14.667z"/><path fill="#FAFAFA" d="M254.023 350.445L228.62 365.11l-25.404-14.666V321.11l25.404-14.667 25.404 14.667z"/><path fill="#F6F6F6" d="M304.832 350.445l-25.405 14.666-25.403-14.666V321.11l25.403-14.667 25.405 14.667z"/><path fill="#FAFAFA" d="M1.5 320.235v31.086l23.886 13.791 25.403-14.667V321.11l-25.403-14.667z"/><path fill="#F0F0F0" d="M355.64 350.445l-25.404 14.666-25.404-14.666V321.11l25.404-14.667 25.404 14.667z"/><path fill="#F6F6F6" d="M177.81 394.454l-25.404 14.667-25.404-14.667V365.12l25.404-14.667 25.405 14.667zm50.81 0l-25.405 14.667-25.404-14.667V365.12l25.404-14.667 25.404 14.667z"/><path fill="#FAFAFA" d="M330.236 394.454l-25.404 14.667-25.404-14.667V365.12l25.404-14.667 25.404 14.667z"/><path fill="#F6F6F6" d="M127.002 394.454l-25.404 14.667-25.404-14.667V365.12l25.404-14.667 25.404 14.667zm-50.808 0L50.789 409.12l-25.404-14.667V365.12l25.404-14.667 25.405 14.667z"/><path fill="#00B4CB" d="M25.385 394.454L-.019 409.12l-25.404-14.667V365.12l25.404-14.667 25.404 14.667z"/><path fill="#F6F6F6" d="M152.406 438.435l-25.404 14.667-25.404-14.667v-29.333l25.404-14.667 25.404 14.667zm-50.808 0l-25.405 14.667-25.403-14.667v-29.333l25.403-14.667 25.405 14.667z"/><path fill="#F0F0F0" d="M203.215 438.435l-25.405 14.667-25.403-14.667v-29.333l25.403-14.667 25.405 14.667z"/><path fill="#ECECEC" d="M254.023 438.435l-25.404 14.667-25.404-14.667v-29.333l25.404-14.667 25.404 14.667z"/><path fill="#FAFAFA" d="M50.79 438.435l-25.405 14.667-25.404-14.667v-29.333l25.404-14.667 25.404 14.667z"/><path fill="#F6F6F6" d="M355.64 438.435l-25.404 14.667-25.404-14.667v-29.333l25.404-14.667 25.404 14.667z"/><path fill="#F48365" d="M228.62 482.444l-25.405 14.667-25.404-14.667v-29.333l25.404-14.667 25.404 14.667z"/><path fill="#FAFAFA" d="M279.428 482.444l-25.405 14.667-25.404-14.667v-29.333l25.404-14.667 25.405 14.667z"/><path fill="#ECECEC" d="M330.236 482.444l-25.404 14.667-25.404-14.667v-29.333l25.404-14.667 25.404 14.667z"/><path fill="#F6F6F6" d="M76.194 482.444l-25.405 14.667-25.404-14.667v-29.333l25.404-14.667 25.405 14.667z"/><path fill="#ECECEC" d="M25.385 482.444L-.019 497.111l-25.404-14.667v-29.333l25.404-14.667 25.404 14.667z"/><path fill="#F6F6F6" d="M584.09 218.46l-25.404 14.666-25.404-14.667v-29.333l25.404-14.667 25.404 14.667zm-50.808 0l-25.405 14.666-25.403-14.667v-29.333l25.403-14.667 25.405 14.667zm101.617 0l-25.405 14.666-25.403-14.667v-29.333l25.403-14.667 25.405 14.667z"/><path fill="#F0F0F0" d="M685.707 218.46l-25.404 14.666-25.404-14.667v-29.333l25.404-14.667 25.404 14.667z"/><path fill="#FAFAFA" d="M736.516 218.46l-25.405 14.666-25.403-14.667v-29.333l25.403-14.667 25.405 14.667z"/><path fill="#F6F6F6" d="M482.473 218.46l-25.404 14.666-25.404-14.667v-29.333l25.404-14.667 25.404 14.667z"/><path fill="#ECECEC" d="M431.665 218.46l-25.405 14.666-25.403-14.667v-29.333l25.403-14.667 25.405 14.667z"/><path fill="#F0F0F0" d="M787.324 218.46l-25.404 14.666-25.404-14.667v-29.333l25.404-14.667 25.404 14.667z"/><path fill="#F6F6F6" d="M380.868 218.46l-25.405 14.666-25.403-14.667v-29.333l25.403-14.667 25.405 14.667z"/><path fill="#F0F0F0" d="M609.495 262.469l-25.405 14.666-25.404-14.666v-29.334l25.404-14.667 25.405 14.667z"/><path fill="#F6F6F6" d="M660.303 262.469L634.9 277.135l-25.404-14.666v-29.334l25.404-14.667 25.404 14.667z"/><path fill="#F6F6F6" d="M711.112 262.469l-25.405 14.666-25.404-14.666v-29.334l25.404-14.667 25.405 14.667z"/><path fill="#FAFAFA" d="M761.92 262.469l-25.404 14.666-25.404-14.666v-29.334l25.404-14.667 25.404 14.667z"/><path fill="#F6F6F6" d="M558.686 262.469l-25.404 14.666-25.404-14.666v-29.334l25.404-14.667 25.404 14.667z"/><path fill="#F0F0F0" d="M507.878 262.469l-25.405 14.666-25.404-14.666v-29.334l25.404-14.667 25.405 14.667z"/><path fill="#F6F6F6" d="M457.07 262.469l-25.405 14.666-25.404-14.666v-29.334l25.404-14.667 25.404 14.667z"/><path fill="#FAFAFA" d="M406.34 262.469l-25.405 14.666-25.403-14.666v-29.334l25.403-14.667 25.405 14.667z"/><path fill="#F6F6F6" d="M584.09 306.478l-25.404 14.666-25.404-14.666v-29.334l25.404-14.667 25.404 14.667z"/><path fill="#FAFAFA" d="M533.282 306.478l-25.405 14.666-25.403-14.666v-29.334l25.403-14.667 25.405 14.667z"/><path fill="#F6F6F6" d="M634.899 306.478l-25.405 14.666-25.403-14.666v-29.334l25.403-14.667 25.405 14.667z"/><path fill="#FAFAFA" d="M685.707 306.478l-25.404 14.666-25.404-14.666v-29.334l25.404-14.667 25.404 14.667z"/><path fill="#F6F6F6" d="M736.516 306.478l-25.405 14.666-25.403-14.666v-29.334l25.403-14.667 25.405 14.667z"/><path fill="#FAFAFA" d="M482.473 306.478l-25.404 14.666-25.404-14.666v-29.334l25.404-14.667 25.404 14.667z"/><path fill="#F6F6F6" d="M431.665 306.478l-25.405 14.666-25.403-14.666v-29.334l25.403-14.667 25.405 14.667z"/><path fill="#F0F0F0" d="M787.324 306.478l-25.404 14.666-25.404-14.666v-29.334l25.404-14.667 25.404 14.667z"/><path fill="#F6F6F6" d="M380.868 306.478l-25.405 14.666-25.403-14.666v-29.334l25.403-14.667 25.405 14.667zm228.627 44.009l-25.405 14.667-25.404-14.667v-29.334l25.404-14.667 25.405 14.667zm50.808 0L634.9 365.154l-25.404-14.667v-29.334l25.404-14.667 25.404 14.667z"/><path fill="#F6F6F6" d="M711.112 350.487l-25.405 14.667-25.404-14.667v-29.334l25.404-14.667 25.405 14.667z"/><path fill="#FAFAFA" d="M761.92 350.487l-25.404 14.667-25.404-14.667v-29.334l25.404-14.667 25.404 14.667z"/><path fill="#F6F6F6" d="M558.686 350.487l-25.404 14.667-25.404-14.667v-29.334l25.404-14.667 25.404 14.667zm-50.808 0l-25.405 14.667-25.404-14.667v-29.334l25.404-14.667 25.405 14.667z"/><path fill="#F6F6F6" d="M457.07 350.487l-25.405 14.667-25.404-14.667v-29.334l25.404-14.667 25.404 14.667z"/><path fill="#ECECEC" d="M406.34 350.487l-25.405 14.667-25.403-14.667v-29.334l25.403-14.667 25.405 14.667z"/><path fill="#F6F6F6" d="M584.09 394.468l-25.404 14.667-25.404-14.667v-29.333l25.404-14.667 25.404 14.667zm-50.808 0l-25.405 14.667-25.403-14.667v-29.333l25.403-14.667 25.405 14.667z"/><path fill="#F0F0F0" d="M634.899 394.468l-25.405 14.667-25.403-14.667v-29.333l25.403-14.667 25.405 14.667z"/><path fill="#ECECEC" d="M685.707 394.468l-25.404 14.667-25.404-14.667v-29.333l25.404-14.667 25.404 14.667z"/><path fill="#F6F6F6" d="M736.516 394.468l-25.405 14.667-25.403-14.667v-29.333l25.403-14.667 25.405 14.667z"/><path fill="#FAFAFA" d="M482.473 394.468l-25.404 14.667-25.404-14.667v-29.333l25.404-14.667 25.404 14.667z"/><path fill="#F6F6F6" d="M431.665 394.468l-25.405 14.667-25.403-14.667v-29.333l25.403-14.667 25.405 14.667zm355.659 0l-25.404 14.667-25.404-14.667v-29.333l25.404-14.667 25.404 14.667z"/><path fill="#F6F6F6" d="M380.868 394.468l-25.405 14.667-25.403-14.667v-29.333l25.403-14.667 25.405 14.667zm228.627 44.009l-25.405 14.667-25.404-14.667v-29.333l25.404-14.667 25.405 14.667zm50.808 0L634.9 453.144l-25.404-14.667v-29.333l25.404-14.667 25.404 14.667z"/><path fill="#FAFAFA" d="M711.112 438.477l-25.405 14.667-25.404-14.667v-29.333l25.404-14.667 25.405 14.667z"/><path fill="#EBEBEB" d="M761.92 438.477l-25.404 14.667-25.404-14.667v-29.333l25.404-14.667 25.404 14.667z"/><path fill="#F0F0F0" d="M558.686 438.477l-25.404 14.667-25.404-14.667v-29.333l25.404-14.667 25.404 14.667z"/><path fill="#F6F6F6" d="M507.878 438.477l-25.405 14.667-25.404-14.667v-29.333l25.404-14.667 25.405 14.667z"/><path fill="#ECECEC" d="M457.07 438.477l-25.405 14.667-25.404-14.667v-29.333l25.404-14.667 25.404 14.667z"/><path fill="#F0F0F0" d="M406.34 438.477l-25.405 14.667-25.403-14.667v-29.333l25.403-14.667 25.405 14.667z"/><path fill="#F6F6F6" d="M203.215 526.228l-25.405 14.667-25.403-14.667v-29.334l25.403-14.666 25.405 14.666z"/><path fill="#FAFAFA" d="M304.832 526.228l-25.405 14.667-25.403-14.667v-29.334l25.403-14.666 25.405 14.666z"/><path fill="#F6F6F6" d="M50.79 526.228l-25.405 14.667-25.404-14.667v-29.334l25.404-14.666 25.404 14.666z"/><path fill="#F0F0F0" d="M355.64 526.228l-25.404 14.667-25.404-14.667v-29.334l25.404-14.666 25.404 14.666z"/><path fill="#ECECEC" d="M25.385 746.246L-.019 760.913l-25.404-14.667v-29.334l25.404-14.666 25.404 14.666z"/><path fill="#F6F6F6" d="M584.89 481.462l-25.405 14.667-25.403-14.667v-29.334l25.403-14.667 25.405 14.667zm50.808 0l-25.404 14.667-25.404-14.667v-29.334l25.404-14.667 25.404 14.667z"/><path fill="#F0F0F0" d="M686.507 481.462l-25.405 14.667-25.403-14.667v-29.334l25.403-14.667 25.405 14.667z"/><path fill="#FAFAFA" d="M737.315 481.462l-25.404 14.667-25.404-14.667v-29.334l25.404-14.667 25.404 14.667z"/><path fill="#F6F6F6" d="M483.273 481.462l-25.405 14.667-25.403-14.667v-29.334l25.403-14.667 25.405 14.667z"/><path fill="#EBEBEB" d="M432.464 481.462l-25.404 14.667-25.404-14.667v-29.334l25.404-14.667 25.404 14.667z"/><path fill="#F0F0F0" d="M787.808 480.985l-25.404 14.667L737 480.985V451.65l25.404-14.666 25.404 14.666z"/><path fill="#FFF" d="M837.808 480.985l-25.404 14.667L787 480.985V451.65l25.404-14.666 25.404 14.666z"/><path fill="#F6F6F6" d="M381.667 481.462l-25.404 14.667-25.404-14.667v-29.334l25.404-14.667 25.404 14.667zm279.436 44.008l-25.405 14.668-25.404-14.667v-29.334l25.404-14.667 25.405 14.667zm50.807 0l-25.404 14.668-25.403-14.667v-29.334l25.403-14.667 25.405 14.667z"/><path fill="#FAFAFA" d="M762.72 525.47l-25.405 14.668-25.404-14.667v-29.334l25.404-14.667 25.404 14.667z"/><path fill="#F6F6F6" d="M457.869 525.47l-25.405 14.668-25.404-14.667v-29.334l25.404-14.667 25.405 14.667zm557.905-.041l-25.404 14.666-25.404-14.666v-29.334l25.404-14.667 25.404 14.667zm50.809 0l-25.405 14.666-25.403-14.666v-29.334l25.403-14.667 25.405 14.667z"/><path fill="#00B1B0" d="M812.552 525.429l-25.405 14.666-25.403-14.666v-29.334l25.403-14.667 25.405 14.667z"/><path fill="#F6F6F6" d="M967.012-.993l23.358 13.486 23.358-13.486zm-50.809 0l23.359 13.486L962.92-.993zm101.617 0l6.93 4v-4zm-152.425 0l23.359 13.486L912.112-.993z"/><path fill="#ECECEC" d="M814.586-.993l23.359 13.486L861.303-.993z"/><path fill="#F6F6F6" d="M763.79-.993l23.358 13.486L810.506-.993z"/><path fill="#F0F0F0" d="M1013.744-.993L990.37 12.5v29.335l25.405 14.666 8.975-5.182V3.016l-6.945-4.01z"/><path fill="#F6F6F6" d="M962.935-.993L939.561 12.5v29.335L964.966 56.5l25.404-14.666V12.5L966.997-.993z"/><path fill="#F0F0F0" d="M912.126-.993L888.753 12.5v29.335L914.157 56.5l25.405-14.666V12.5L916.188-.993z"/><path fill="#F6F6F6" d="M861.318-.993L837.945 12.5v29.335L863.349 56.5l25.405-14.666V12.5L865.38-.993z"/><path fill="#FAFAFA" d="M810.589-.993L787.215 12.5v29.335L812.619 56.5l25.405-14.666V12.5L814.65-.993z"/><path fill="#F6F6F6" d="M1015.774 85.844L990.37 100.51l-25.404-14.666V56.51l25.404-14.667 25.404 14.667z"/><path fill="#FAFAFA" d="M964.966 85.844L939.56 100.51l-25.403-14.666V56.51l25.403-14.667 25.405 14.667z"/><path fill="#F6F6F6" d="M1015.774 56.51v29.334l8.977 5.182V51.328z"/><path fill="#FAFAFA" d="M914.157 85.844l-25.404 14.666-25.404-14.666V56.51l25.404-14.667 25.404 14.667z"/><path fill="#F6F6F6" d="M863.349 85.844l-25.405 14.666-25.403-14.666V56.51l25.403-14.667L863.35 56.51z"/><path fill="#F6F6F6" d="M812.552 85.844l-25.405 14.666-25.403-14.666V56.51l25.403-14.667 25.405 14.667z"/><path fill="#68C7C5" d="M990.37 100.52v29.333l25.405 14.666 8.975-5.182V91.035l-8.975-5.182z"/><path fill="#F6F6F6" d="M990.37 129.853l-25.404 14.667-25.404-14.667v-29.334l25.404-14.667 25.404 14.667zm-50.808 0l-25.405 14.667-25.404-14.667v-29.334l25.404-14.667 25.405 14.667z"/><path fill="#F6F6F6" d="M888.753 129.853L863.35 144.52l-25.404-14.667v-29.334l25.404-14.667 25.404 14.667z"/><path fill="#ECECEC" d="M838.024 129.853l-25.405 14.667-25.403-14.667v-29.334l25.403-14.667 25.405 14.667z"/><path fill="#F6F6F6" d="M1015.774 173.834l-25.404 14.667-25.404-14.667v-29.333l25.404-14.667 25.404 14.667zm-50.808 0l-25.405 14.667-25.403-14.667v-29.333l25.403-14.667 25.405 14.667z"/><path fill="#F0F0F0" d="M1015.774 144.5v29.334l8.977 5.182v-39.698z"/><path fill="#FAFAFA" d="M914.157 173.834l-25.404 14.667-25.404-14.667v-29.333l25.404-14.667 25.404 14.667z"/><path fill="#F6F6F6" d="M863.349 173.834l-25.405 14.667-25.403-14.667v-29.333l25.403-14.667L863.35 144.5z"/><path fill="#F6F6F6" d="M812.552 173.834l-25.405 14.667-25.403-14.667v-29.333l25.403-14.667 25.405 14.667zM990.37 188.51v29.333l25.405 14.667 8.975-5.182v-48.303l-8.975-5.182z"/><path fill="#F0F0F0" d="M990.37 217.843l-25.404 14.667-25.404-14.667V188.51l25.404-14.667 25.404 14.667z"/><path fill="#F6F6F6" d="M939.562 217.843l-25.405 14.667-25.404-14.667V188.51l25.404-14.667 25.405 14.667z"/><path fill="#F48365" d="M888.753 217.843L863.35 232.51l-25.404-14.667V188.51l25.404-14.667 25.404 14.667z"/><path fill="#F0F0F0" d="M838.024 217.843l-25.405 14.667-25.403-14.667V188.51l25.403-14.667 25.405 14.667z"/><path fill="#F6F6F6" d="M1015.774 260.828l-25.404 14.666-25.404-14.666v-29.334l25.404-14.667 25.404 14.667zm-50.808 0l-25.405 14.666-25.403-14.666v-29.334l25.403-14.667 25.405 14.667zm50.808-29.334v29.333l8.977 5.183v-39.698zm-101.617 29.334l-25.404 14.666-25.404-14.666v-29.334l25.404-14.667 25.404 14.667z"/><path fill="#EBEBEB" d="M863.349 260.828l-25.405 14.666-25.403-14.666v-29.334l25.403-14.667 25.405 14.667z"/><path fill="#F6F6F6" d="M812.552 260.828l-25.405 14.666-25.403-14.666v-29.334l25.403-14.667 25.405 14.667z"/><path fill="#F0F0F0" d="M990.37 275.503v29.334l25.405 14.667 8.975-5.182v-48.303l-8.975-5.183z"/><path fill="#F6F6F6" d="M990.37 304.837l-25.404 14.667-25.404-14.667v-29.334l25.404-14.667 25.404 14.667z"/><path fill="#F0F0F0" d="M939.562 304.837l-25.405 14.667-25.404-14.667v-29.334l25.404-14.667 25.405 14.667z"/><path fill="#F6F6F6" d="M888.753 304.837l-25.404 14.667-25.404-14.667v-29.334l25.404-14.667 25.404 14.667z"/><path fill="#FAFAFA" d="M838.024 304.837l-25.405 14.667-25.403-14.667v-29.334l25.403-14.667 25.405 14.667z"/><path fill="#F6F6F6" d="M1015.774 348.846l-25.404 14.667-25.404-14.667v-29.334l25.404-14.667 25.404 14.667z"/><path fill="#00A8CB" d="M964.966 348.846l-25.405 14.667-25.403-14.667v-29.334l25.403-14.667 25.405 14.667z"/><path fill="#F6F6F6" d="M1015.774 319.512v29.334l8.977 5.182V314.33z"/><path fill="#FAFAFA" d="M914.157 348.846l-25.404 14.667-25.404-14.667v-29.334l25.404-14.667 25.404 14.667z"/><path fill="#F6F6F6" d="M863.349 348.846l-25.405 14.667-25.403-14.667v-29.334l25.403-14.667 25.405 14.667z"/><path fill="#F6F6F6" d="M812.552 348.846l-25.405 14.667-25.403-14.667v-29.334l25.403-14.667 25.405 14.667zm228.627 44.009l-25.405 14.667-25.404-14.667V363.52l25.404-14.667 25.405 14.667zm-50.809 0l-25.404 14.667-25.404-14.667v-29.334l25.404-14.666 25.404 14.666zm-50.808 0l-25.405 14.667-25.404-14.667v-29.334l25.404-14.666 25.405 14.666zm-50.809 0l-25.404 14.667-25.404-14.667v-29.334l25.404-14.666 25.404 14.666z"/><path fill="#ECECEC" d="M838.024 392.855l-25.405 14.667-25.403-14.667v-29.334l25.403-14.666 25.405 14.666z"/><path fill="#F6F6F6" d="M1015.774 436.836l-25.404 14.667-25.404-14.667v-29.333l25.404-14.667 25.404 14.667zm-50.808 0l-25.405 14.667-25.403-14.667v-29.333l25.403-14.667 25.405 14.667z"/><path fill="#F0F0F0" d="M1066.583 436.836l-25.405 14.667-25.403-14.667v-29.333l25.403-14.667 25.405 14.667z"/><path fill="#FAFAFA" d="M914.157 436.836l-25.404 14.667-25.404-14.667v-29.333l25.404-14.667 25.404 14.667z"/><path fill="#F6F6F6" d="M863.349 436.836l-25.405 14.667-25.403-14.667v-29.333l25.403-14.667 25.405 14.667z"/><path fill="#F6F6F6" d="M812.552 436.836l-25.405 14.667-25.403-14.667v-29.333l25.403-14.667 25.405 14.667z"/><path fill="#E6BB83" d="M1041.179 480.846l-25.405 14.666-25.404-14.666v-29.334l25.404-14.667 25.405 14.667z"/><path fill="#F0F0F0" d="M990.37 480.846l-25.404 14.666-25.404-14.666v-29.334l25.404-14.667 25.404 14.667z"/><path fill="#F6F6F6" d="M939.562 480.846l-25.405 14.666-25.404-14.666v-29.334l25.404-14.667 25.405 14.667z"/><path fill="#ECECEC" d="M888.753 480.846l-25.404 14.666-25.404-14.666v-29.334l25.404-14.667 25.404 14.667z"/></g></g></svg>