<?xml version="1.0" encoding="UTF-8"?>
<svg width="1024px" height="729px" viewBox="0 0 1024 729" version="1.1" xmlns="http://www.w3.org/2000/svg" xmlns:xlink="http://www.w3.org/1999/xlink">
    <!-- Generator: Sketch 42 (36781) - http://www.bohemiancoding.com/sketch -->
    <title>BG</title>
    <desc>Created with Sketch.</desc>
    <defs></defs>
    <g id="Page-1" stroke="none" stroke-width="1" fill="none" fill-rule="evenodd">
        <g id="Intro">
            <g id="BG" transform="translate(-129.000000, -60.000000)">
                <polygon id="Fill-15" fill="#F0EFEF" points="186.5005 0.6169 157.2365 17.5129 157.2365 54.2379 189.0425 72.6019 220.8485 54.2379 220.8485 17.5129 191.5855 0.6169"></polygon>
                <polygon id="Fill-17" fill="#F4F6F6" points="250.1116 0.6169 220.8476 17.5129 220.8476 54.2379 252.6536 72.6019 284.4596 54.2379 284.4596 17.5129 255.1966 0.6169"></polygon>
                <polygon id="Fill-19" fill="#F4F6F6" points="313.7227 0.6169 284.4597 17.5129 284.4597 54.2379 316.2647 72.6019 348.0707 54.2379 348.0707 17.5129 318.8077 0.6169"></polygon>
                <polygon id="Fill-21" fill="#F9F9F9" points="377.3338 0.6169 348.0708 17.5129 348.0708 54.2379 379.8758 72.6019 411.6818 54.2379 411.6818 17.5129 382.4188 0.6169"></polygon>
                <polygon id="Fill-23" fill="#F4F6F6" points="122.8885 0.6169 93.6255 17.5129 93.6255 54.2379 125.4305 72.6019 157.2365 54.2379 157.2365 17.5129 127.9735 0.6169"></polygon>
                <polygon id="Fill-29" fill="#F4F6F6" points="189.0427 109.3379 157.2367 127.7009 125.4317 109.3379 125.4317 72.6119 157.2367 54.2489 189.0427 72.6119"></polygon>
                <polygon id="Fill-33" fill="#F4F6F6" points="252.6541 109.3379 220.8481 127.7009 189.0431 109.3379 189.0431 72.6119 220.8481 54.2489 252.6541 72.6119"></polygon>
                <polygon id="Fill-35" fill="#F9F9F9" points="316.2654 109.3379 284.4594 127.7009 252.6544 109.3379 252.6544 72.6119 284.4594 54.2489 316.2654 72.6119"></polygon>
                <polygon id="Fill-37" fill="#F4F6F6" points="379.8767 109.3379 348.0707 127.7009 316.2657 109.3379 316.2657 72.6119 348.0707 54.2489 379.8767 72.6119"></polygon>
                <polygon id="Fill-41" fill="#F0EFEF" points="443.488 109.3379 411.682 127.7009 379.877 109.3379 379.877 72.6119 411.682 54.2489 443.488 72.6119"></polygon>
                <polygon id="Fill-43" fill="#F4F6F6" points="220.8484 164.4377 189.0424 182.8007 157.2374 164.4377 157.2374 127.7117 189.0424 109.3487 220.8484 127.7117"></polygon>
                <polygon id="Fill-45" fill="#F4F6F6" points="284.4597 164.4377 252.6537 182.8007 220.8487 164.4377 220.8487 127.7117 252.6537 109.3487 284.4597 127.7117"></polygon>
                <polygon id="Fill-47" fill="#F4F6F6" points="348.071 164.4377 316.265 182.8007 284.46 164.4377 284.46 127.7117 316.265 109.3487 348.071 127.7117"></polygon>
                <polygon id="Fill-49" fill="#F9F9F9" points="411.6823 164.4377 379.8763 182.8007 348.0713 164.4377 348.0713 127.7117 379.8763 109.3487 411.6823 127.7117"></polygon>
                <polygon id="Fill-51" fill="#F4F6F6" points="157.237 164.4377 125.431 182.8007 93.626 164.4377 93.626 127.7117 125.431 109.3487 157.237 127.7117"></polygon>
                <polygon id="Fill-57" fill="#F4F6F6" points="189.0427 219.5029 157.2367 237.8659 125.4317 219.5029 125.4317 182.7769 157.2367 164.4139 189.0427 182.7769"></polygon>
                <polygon id="Fill-61" fill="#F0EFEF" points="252.6541 219.5029 220.8481 237.8659 189.0431 219.5029 189.0431 182.7769 220.8481 164.4139 252.6541 182.7769"></polygon>
                <polygon id="Fill-63" fill="#EBEBEB" points="316.2654 219.5029 284.4594 237.8659 252.6544 219.5029 252.6544 182.7769 284.4594 164.4139 316.2654 182.7769"></polygon>
                <polygon id="Fill-65" fill="#F4F6F6" points="379.8767 219.5029 348.0707 237.8659 316.2657 219.5029 316.2657 182.7769 348.0707 164.4139 379.8767 182.7769"></polygon>
                <polygon id="Fill-69" fill="#F4F6F6" points="443.488 219.5029 411.682 237.8659 379.877 219.5029 379.877 182.7769 411.682 164.4139 443.488 182.7769"></polygon>
                <polygon id="Fill-71" fill="#F4F6F6" points="220.8484 274.6026 189.0424 292.9656 157.2374 274.6026 157.2374 237.8766 189.0424 219.5136 220.8484 237.8766"></polygon>
                <polygon id="Fill-73" fill="#F4F6F6" points="284.4597 274.6026 252.6537 292.9656 220.8487 274.6026 220.8487 237.8766 252.6537 219.5136 284.4597 237.8766"></polygon>
                <polygon id="Fill-75" fill="#F9F9F9" points="348.071 274.6026 316.265 292.9656 284.46 274.6026 284.46 237.8766 316.265 219.5136 348.071 237.8766"></polygon>
                <polygon id="Fill-77" fill="#EBEBEB" points="411.6823 274.6026 379.8763 292.9656 348.0713 274.6026 348.0713 237.8766 379.8763 219.5136 411.6823 237.8766"></polygon>
                <polygon id="Fill-79" fill="#F0EFEF" points="157.237 274.6027 125.431 292.9657 93.626 274.6027 93.626 237.8767 125.431 219.5137 157.237 237.8767"></polygon>
                <polygon id="Fill-101" fill="#F4F6F6" points="695.2472 0.6169 665.8922 17.5649 665.8922 54.2909 697.6982 72.6539 729.5032 54.2909 729.5032 17.5649 700.1482 0.6169"></polygon>
                <polygon id="Fill-103" fill="#F9F9F9" points="631.636 0.6169 602.281 17.5649 602.281 54.2909 634.087 72.6539 665.893 54.2909 665.893 17.5649 636.537 0.6169"></polygon>
                <polygon id="Fill-105" fill="#F4F6F6" points="758.8591 0.6169 729.5041 17.5649 729.5041 54.2909 761.3101 72.6539 793.1151 54.2909 793.1151 17.5649 763.7601 0.6169"></polygon>
                <polygon id="Fill-107" fill="#F9F9F9" points="822.4702 0.6169 793.1152 17.5649 793.1152 54.2909 824.9212 72.6539 856.7272 54.2909 856.7272 17.5649 827.3712 0.6169"></polygon>
                <polygon id="Fill-109" fill="#F4F6F6" points="886.0813 0.6169 856.7263 17.5649 856.7263 54.2909 888.5323 72.6539 920.3383 54.2909 920.3383 17.5649 890.9823 0.6169"></polygon>
                <polygon id="Fill-111" fill="#F9F9F9" points="568.0249 0.6169 538.6699 17.5649 538.6699 54.2909 570.4759 72.6539 602.2809 54.2909 602.2809 17.5649 572.9259 0.6169"></polygon>
                <polygon id="Fill-113" fill="#F4F6F6" points="504.4138 0.6169 475.0588 17.5649 475.0588 54.2909 506.8648 72.6539 538.6698 54.2909 538.6698 17.5649 509.3148 0.6169"></polygon>
                <polygon id="Fill-115" fill="#F0EFEF" points="949.6925 0.6169 920.3375 17.5649 920.3375 54.2909 952.1425 72.6539 983.9485 54.2909 983.9485 17.5649 954.5935 0.6169"></polygon>
                <polygon id="Fill-117" fill="#F4F6F6" points="440.8162 0.6169 411.4612 17.5649 411.4612 54.2909 443.2672 72.6539 475.0732 54.2909 475.0732 17.5649 445.7172 0.6169"></polygon>
                <polygon id="Fill-119" fill="#F4F6F6" points="761.3094 109.3907 729.5034 127.7537 697.6984 109.3907 697.6984 72.6647 729.5034 54.3017 761.3094 72.6647"></polygon>
                <polygon id="Fill-121" fill="#F4F6F6" points="824.9207 109.3907 793.1147 127.7537 761.3097 109.3907 761.3097 72.6647 793.1147 54.3017 824.9207 72.6647"></polygon>
                <polygon id="Fill-123" fill="#F4F6F6" points="888.532 109.3907 856.726 127.7537 824.921 109.3907 824.921 72.6647 856.726 54.3017 888.532 72.6647"></polygon>
                <polygon id="Fill-125" fill="#F9F9F9" points="952.1433 109.3907 920.3373 127.7537 888.5323 109.3907 888.5323 72.6647 920.3373 54.3017 952.1433 72.6647"></polygon>
                <polygon id="Fill-127" fill="#F4F6F6" points="697.698 109.3907 665.892 127.7537 634.087 109.3907 634.087 72.6647 665.892 54.3017 697.698 72.6647"></polygon>
                <polygon id="Fill-129" fill="#F4F6F6" points="634.0867 109.3907 602.2807 127.7537 570.4757 109.3907 570.4757 72.6647 602.2807 54.3017 634.0867 72.6647"></polygon>
                <polygon id="Fill-131" fill="#F4F6F6" points="570.4753 109.3907 538.6693 127.7537 506.8643 109.3907 506.8643 72.6647 538.6693 54.3017 570.4753 72.6647"></polygon>
                <polygon id="Fill-133" fill="#EBEBEB" points="506.9631 109.3907 475.1571 127.7537 443.3521 109.3907 443.3521 72.6647 475.1571 54.3017 506.9631 72.6647"></polygon>
                <polygon id="Fill-135" fill="#F4F6F6" points="729.5037 164.4559 697.6977 182.8189 665.8927 164.4559 665.8927 127.7299 697.6977 109.3669 729.5037 127.7299"></polygon>
                <polygon id="Fill-137" fill="#F4F6F6" points="665.8923 164.4559 634.0863 182.8189 602.2813 164.4559 602.2813 127.7299 634.0863 109.3669 665.8923 127.7299"></polygon>
                <polygon id="Fill-139" fill="#F0EFEF" points="793.1151 164.4559 761.3091 182.8189 729.5041 164.4559 729.5041 127.7299 761.3091 109.3669 793.1151 127.7299"></polygon>
                <polygon id="Fill-141" fill="#EBEBEB" points="856.7264 164.4559 824.9204 182.8189 793.1154 164.4559 793.1154 127.7299 824.9204 109.3669 856.7264 127.7299"></polygon>
                <polygon id="Fill-143" fill="#F4F6F6" points="920.3376 164.4559 888.5316 182.8189 856.7266 164.4559 856.7266 127.7299 888.5316 109.3669 920.3376 127.7299"></polygon>
                <polygon id="Fill-145" fill="#F9F9F9" points="602.281 164.4559 570.475 182.8189 538.67 164.4559 538.67 127.7299 570.475 109.3669 602.281 127.7299"></polygon>
                <polygon id="Fill-147" fill="#F4F6F6" points="538.6697 164.4559 506.8637 182.8189 475.0587 164.4559 475.0587 127.7299 506.8637 109.3669 538.6697 127.7299"></polygon>
                <polygon id="Fill-149" fill="#F4F6F6" points="983.949 164.4559 952.143 182.8189 920.338 164.4559 920.338 127.7299 952.143 109.3669 983.949 127.7299"></polygon>
                <polygon id="Fill-151" fill="#F4F6F6" points="475.0724 164.4559 443.2664 182.8189 411.4614 164.4559 411.4614 127.7299 443.2664 109.3669 475.0724 127.7299"></polygon>
                <polygon id="Fill-153" fill="#F4F6F6" points="761.3094 219.5557 729.5034 237.9187 697.6984 219.5557 697.6984 182.8297 729.5034 164.4667 761.3094 182.8297"></polygon>
                <polygon id="Fill-155" fill="#F4F6F6" points="824.9207 219.5557 793.1147 237.9187 761.3097 219.5557 761.3097 182.8297 793.1147 164.4667 824.9207 182.8297"></polygon>
                <polygon id="Fill-157" fill="#F9F9F9" points="888.532 219.5557 856.726 237.9187 824.921 219.5557 824.921 182.8297 856.726 164.4667 888.532 182.8297"></polygon>
                <polygon id="Fill-159" fill="#EBEBEB" points="952.1433 219.5557 920.3373 237.9187 888.5323 219.5557 888.5323 182.8297 920.3373 164.4667 952.1433 182.8297"></polygon>
                <polygon id="Fill-161" fill="#F0EFEF" points="697.698 219.5557 665.892 237.9187 634.087 219.5557 634.087 182.8297 665.892 164.4667 697.698 182.8297"></polygon>
                <polygon id="Fill-163" fill="#F4F6F6" points="634.0867 219.5557 602.2807 237.9187 570.4757 219.5557 570.4757 182.8297 602.2807 164.4667 634.0867 182.8297"></polygon>
                <polygon id="Fill-165" fill="#EBEBEB" points="570.4753 219.5557 538.6693 237.9187 506.8643 219.5557 506.8643 182.8297 538.6693 164.4667 570.4753 182.8297"></polygon>
                <polygon id="Fill-167" fill="#F0EFEF" points="506.9631 219.5557 475.1571 237.9187 443.3521 219.5557 443.3521 182.8297 475.1571 164.4667 506.9631 182.8297"></polygon>
                <polygon id="Fill-174" fill="#F4F6F6" points="252.6541 330.421 220.8481 348.784 189.0431 330.421 189.0431 293.695 220.8481 275.332 252.6541 293.695"></polygon>
                <polygon id="Fill-179" fill="#F9F9F9" points="379.8767 330.421 348.0707 348.784 316.2657 330.421 316.2657 293.695 348.0707 275.332 379.8767 293.695"></polygon>
                <polygon id="Fill-183" fill="#F0EFEF" points="443.488 330.421 411.682 348.784 379.877 330.421 379.877 293.695 411.682 275.332 443.488 293.695"></polygon>
                <polygon id="Fill-185" fill="#F0EFEF" points="220.8484 385.5207 189.0424 403.8837 157.2374 385.5207 157.2374 348.7947 189.0424 330.4317 220.8484 348.7947"></polygon>
                <polygon id="Fill-187" fill="#F4F6F6" points="284.4597 385.5207 252.6537 403.8837 220.8487 385.5207 220.8487 348.7947 252.6537 330.4317 284.4597 348.7947"></polygon>
                <polygon id="Fill-189" fill="#F4F6F6" points="348.071 385.5207 316.265 403.8837 284.46 385.5207 284.46 348.7947 316.265 330.4317 348.071 348.7947"></polygon>
                <polygon id="Fill-191" fill="#F9F9F9" points="411.6823 385.5207 379.8763 403.8837 348.0713 385.5207 348.0713 348.7947 379.8763 330.4317 411.6823 348.7947"></polygon>
                <polygon id="Fill-193" fill="#F4F6F6" points="157.237 385.5208 125.431 403.8838 93.626 385.5208 93.626 348.7948 125.431 330.4318 157.237 348.7948"></polygon>
                <polygon id="Fill-201" fill="#F4F6F6" points="252.6541 440.6205 220.8481 458.9835 189.0431 440.6205 189.0431 403.8945 220.8481 385.5315 252.6541 403.8945"></polygon>
                <polygon id="Fill-203" fill="#F9F9F9" points="316.2654 440.6205 284.4594 458.9835 252.6544 440.6205 252.6544 403.8945 284.4594 385.5315 316.2654 403.8945"></polygon>
                <polygon id="Fill-205" fill="#F4F6F6" points="379.8767 440.6205 348.0707 458.9835 316.2657 440.6205 316.2657 403.8945 348.0707 385.5315 379.8767 403.8945"></polygon>
                <polygon id="Fill-209" fill="#F0EFEF" points="443.488 440.6205 411.682 458.9835 379.877 440.6205 379.877 403.8945 411.682 385.5315 443.488 403.8945"></polygon>
                <g id="Group-253" transform="translate(0.000000, 440.570000)">
                    <polygon id="Fill-211" fill="#F4F6F6" points="220.8484 55.1503 189.0424 73.5133 157.2374 55.1503 157.2374 18.4243 189.0424 0.0613 220.8484 18.4243"></polygon>
                    <polygon id="Fill-213" fill="#F4F6F6" points="284.4597 55.1503 252.6537 73.5133 220.8487 55.1503 220.8487 18.4243 252.6537 0.0613 284.4597 18.4243"></polygon>
                    <polygon id="Fill-218" fill="#F9F9F9" points="411.6823 55.1503 379.8763 73.5133 348.0713 55.1503 348.0713 18.4243 379.8763 0.0613 411.6823 18.4243"></polygon>
                    <polygon id="Fill-220" fill="#F4F6F6" points="157.237 55.1503 125.431 73.5133 93.626 55.1503 93.626 18.4243 125.431 0.0613 157.237 18.4243"></polygon>
                    <polygon id="Fill-227" fill="#F4F6F6" points="189.0427 110.2155 157.2367 128.5785 125.4317 110.2155 125.4317 73.4895 157.2367 55.1265 189.0427 73.4895"></polygon>
                    <polygon id="Fill-231" fill="#F0EFEF" points="252.6541 110.2155 220.8481 128.5785 189.0431 110.2155 189.0431 73.4895 220.8481 55.1265 252.6541 73.4895"></polygon>
                    <polygon id="Fill-233" fill="#EBEBEB" points="316.2654 110.2155 284.4594 128.5785 252.6544 110.2155 252.6544 73.4895 284.4594 55.1265 316.2654 73.4895"></polygon>
                    <polygon id="Fill-238" fill="#F4F6F6" points="443.488 110.2155 411.682 128.5785 379.877 110.2155 379.877 73.4895 411.682 55.1265 443.488 73.4895"></polygon>
                    <polygon id="Fill-240" fill="#F4F6F6" points="220.8484 165.3152 189.0424 183.6782 157.2374 165.3152 157.2374 128.5892 189.0424 110.2262 220.8484 128.5892"></polygon>
                    <polygon id="Fill-242" fill="#F4F6F6" points="284.4597 165.3152 252.6537 183.6782 220.8487 165.3152 220.8487 128.5892 252.6537 110.2262 284.4597 128.5892"></polygon>
                    <polygon id="Fill-244" fill="#F9F9F9" points="348.071 165.3152 316.265 183.6782 284.46 165.3152 284.46 128.5892 316.265 110.2262 348.071 128.5892"></polygon>
                    <polygon id="Fill-246" fill="#EBEBEB" points="411.6823 165.3152 379.8763 183.6782 348.0713 165.3152 348.0713 128.5892 379.8763 110.2262 411.6823 128.5892"></polygon>
                </g>
                <polygon id="Fill-254" fill="#F4F6F6" points="729.5037 275.3741 697.6977 293.7371 665.8927 275.3741 665.8927 238.6481 697.6977 220.2851 729.5037 238.6481"></polygon>
                <polygon id="Fill-256" fill="#F4F6F6" points="665.8923 275.3741 634.0863 293.7371 602.2813 275.3741 602.2813 238.6481 634.0863 220.2851 665.8923 238.6481"></polygon>
                <polygon id="Fill-258" fill="#F4F6F6" points="793.1151 275.3741 761.3091 293.7371 729.5041 275.3741 729.5041 238.6481 761.3091 220.2851 793.1151 238.6481"></polygon>
                <polygon id="Fill-260" fill="#F0EFEF" points="856.7264 275.3741 824.9204 293.7371 793.1154 275.3741 793.1154 238.6481 824.9204 220.2851 856.7264 238.6481"></polygon>
                <polygon id="Fill-262" fill="#F9F9F9" points="920.3376 275.3741 888.5316 293.7371 856.7266 275.3741 856.7266 238.6481 888.5316 220.2851 920.3376 238.6481"></polygon>
                <polygon id="Fill-264" fill="#F4F6F6" points="602.281 275.3741 570.475 293.7371 538.67 275.3741 538.67 238.6481 570.475 220.2851 602.281 238.6481"></polygon>
                <polygon id="Fill-266" fill="#EBEBEB" points="538.6697 275.3741 506.8637 293.7371 475.0587 275.3741 475.0587 238.6481 506.8637 220.2851 538.6697 238.6481"></polygon>
                <polygon id="Fill-268" fill="#F0EFEF" points="983.949 275.3741 952.143 293.7371 920.338 275.3741 920.338 238.6481 952.143 220.2851 983.949 238.6481"></polygon>
                <polygon id="Fill-270" fill="#F4F6F6" points="475.0724 275.3741 443.2664 293.7371 411.4614 275.3741 411.4614 238.6481 443.2664 220.2851 475.0724 238.6481"></polygon>
                <polygon id="Fill-272" fill="#F0EFEF" points="761.3094 330.4738 729.5034 348.8368 697.6984 330.4738 697.6984 293.7478 729.5034 275.3848 761.3094 293.7478"></polygon>
                <polygon id="Fill-274" fill="#F4F6F6" points="824.9207 330.4738 793.1147 348.8368 761.3097 330.4738 761.3097 293.7478 793.1147 275.3848 824.9207 293.7478"></polygon>
                <polygon id="Fill-276" fill="#F4F6F6" points="888.532 330.4738 856.726 348.8368 824.921 330.4738 824.921 293.7478 856.726 275.3848 888.532 293.7478"></polygon>
                <polygon id="Fill-278" fill="#F9F9F9" points="952.1433 330.4738 920.3373 348.8368 888.5323 330.4738 888.5323 293.7478 920.3373 275.3848 952.1433 293.7478"></polygon>
                <polygon id="Fill-280" fill="#F4F6F6" points="697.698 330.4738 665.892 348.8368 634.087 330.4738 634.087 293.7478 665.892 275.3848 697.698 293.7478"></polygon>
                <polygon id="Fill-282" fill="#F0EFEF" points="634.0867 330.4738 602.2807 348.8368 570.4757 330.4738 570.4757 293.7478 602.2807 275.3848 634.0867 293.7478"></polygon>
                <polygon id="Fill-284" fill="#F4F6F6" points="570.4753 330.4738 538.6693 348.8368 506.8643 330.4738 506.8643 293.7478 538.6693 275.3848 570.4753 293.7478"></polygon>
                <polygon id="Fill-286" fill="#F9F9F9" points="506.9631 330.4738 475.1571 348.8368 443.3521 330.4738 443.3521 293.7478 475.1571 275.3848 506.9631 293.7478"></polygon>
                <polygon id="Fill-288" fill="#F4F6F6" points="729.5037 385.5735 697.6977 403.9365 665.8927 385.5735 665.8927 348.8475 697.6977 330.4845 729.5037 348.8475"></polygon>
                <polygon id="Fill-290" fill="#F9F9F9" points="665.8923 385.5735 634.0863 403.9365 602.2813 385.5735 602.2813 348.8475 634.0863 330.4845 665.8923 348.8475"></polygon>
                <polygon id="Fill-292" fill="#F4F6F6" points="793.1151 385.5735 761.3091 403.9365 729.5041 385.5735 729.5041 348.8475 761.3091 330.4845 793.1151 348.8475"></polygon>
                <polygon id="Fill-294" fill="#F9F9F9" points="856.7264 385.5735 824.9204 403.9365 793.1154 385.5735 793.1154 348.8475 824.9204 330.4845 856.7264 348.8475"></polygon>
                <polygon id="Fill-296" fill="#F4F6F6" points="920.3376 385.5735 888.5316 403.9365 856.7266 385.5735 856.7266 348.8475 888.5316 330.4845 920.3376 348.8475"></polygon>
                <polygon id="Fill-298" fill="#F9F9F9" points="602.281 385.5735 570.475 403.9365 538.67 385.5735 538.67 348.8475 570.475 330.4845 602.281 348.8475"></polygon>
                <polygon id="Fill-300" fill="#F4F6F6" points="538.6697 385.5735 506.8637 403.9365 475.0587 385.5735 475.0587 348.8475 506.8637 330.4845 538.6697 348.8475"></polygon>
                <polygon id="Fill-302" fill="#F0EFEF" points="983.949 385.5735 952.143 403.9365 920.338 385.5735 920.338 348.8475 952.143 330.4845 983.949 348.8475"></polygon>
                <polygon id="Fill-304" fill="#F4F6F6" points="475.0724 385.5735 443.2664 403.9365 411.4614 385.5735 411.4614 348.8475 443.2664 330.4845 475.0724 348.8475"></polygon>
                <polygon id="Fill-306" fill="#F4F6F6" points="761.3094 440.6733 729.5034 459.0363 697.6984 440.6733 697.6984 403.9473 729.5034 385.5843 761.3094 403.9473"></polygon>
                <polygon id="Fill-308" fill="#F4F6F6" points="824.9207 440.6733 793.1147 459.0363 761.3097 440.6733 761.3097 403.9473 793.1147 385.5843 824.9207 403.9473"></polygon>
                <polygon id="Fill-310" fill="#F4F6F6" points="888.532 440.6733 856.726 459.0363 824.921 440.6733 824.921 403.9473 856.726 385.5843 888.532 403.9473"></polygon>
                <polygon id="Fill-312" fill="#F9F9F9" points="952.1433 440.6733 920.3373 459.0363 888.5323 440.6733 888.5323 403.9473 920.3373 385.5843 952.1433 403.9473"></polygon>
                <polygon id="Fill-314" fill="#F4F6F6" points="697.698 440.6733 665.892 459.0363 634.087 440.6733 634.087 403.9473 665.892 385.5843 697.698 403.9473"></polygon>
                <polygon id="Fill-316" fill="#F4F6F6" points="634.0867 440.6733 602.2807 459.0363 570.4757 440.6733 570.4757 403.9473 602.2807 385.5843 634.0867 403.9473"></polygon>
                <polygon id="Fill-318" fill="#F4F6F6" points="570.4753 440.6733 538.6693 459.0363 506.8643 440.6733 506.8643 403.9473 538.6693 385.5843 570.4753 403.9473"></polygon>
                <polygon id="Fill-320" fill="#EBEBEB" points="506.9631 440.6733 475.1571 459.0363 443.3521 440.6733 443.3521 403.9473 475.1571 385.5843 506.9631 403.9473"></polygon>
                <g id="Group-404" transform="translate(0.000000, 440.570000)">
                    <polygon id="Fill-322" fill="#F4F6F6" points="729.5037 55.1685 697.6977 73.5315 665.8927 55.1685 665.8927 18.4425 697.6977 0.0795 729.5037 18.4425"></polygon>
                    <polygon id="Fill-324" fill="#F4F6F6" points="665.8923 55.1685 634.0863 73.5315 602.2813 55.1685 602.2813 18.4425 634.0863 0.0795 665.8923 18.4425"></polygon>
                    <polygon id="Fill-326" fill="#F0EFEF" points="793.1151 55.1685 761.3091 73.5315 729.5041 55.1685 729.5041 18.4425 761.3091 0.0795 793.1151 18.4425"></polygon>
                    <polygon id="Fill-328" fill="#EBEBEB" points="856.7264 55.1685 824.9204 73.5315 793.1154 55.1685 793.1154 18.4425 824.9204 0.0795 856.7264 18.4425"></polygon>
                    <polygon id="Fill-330" fill="#F4F6F6" points="920.3376 55.1685 888.5316 73.5315 856.7266 55.1685 856.7266 18.4425 888.5316 0.0795 920.3376 18.4425"></polygon>
                    <polygon id="Fill-332" fill="#F9F9F9" points="602.281 55.1685 570.475 73.5315 538.67 55.1685 538.67 18.4425 570.475 0.0795 602.281 18.4425"></polygon>
                    <polygon id="Fill-334" fill="#F4F6F6" points="538.6697 55.1685 506.8637 73.5315 475.0587 55.1685 475.0587 18.4425 506.8637 0.0795 538.6697 18.4425"></polygon>
                    <polygon id="Fill-336" fill="#F4F6F6" points="983.949 55.1685 952.143 73.5315 920.338 55.1685 920.338 18.4425 952.143 0.0795 983.949 18.4425"></polygon>
                    <polygon id="Fill-338" fill="#F4F6F6" points="475.0724 55.1685 443.2664 73.5315 411.4614 55.1685 411.4614 18.4425 443.2664 0.0795 475.0724 18.4425"></polygon>
                    <polygon id="Fill-340" fill="#F4F6F6" points="761.3094 110.2682 729.5034 128.6312 697.6984 110.2682 697.6984 73.5422 729.5034 55.1792 761.3094 73.5422"></polygon>
                    <polygon id="Fill-342" fill="#F4F6F6" points="824.9207 110.2682 793.1147 128.6312 761.3097 110.2682 761.3097 73.5422 793.1147 55.1792 824.9207 73.5422"></polygon>
                    <polygon id="Fill-344" fill="#F9F9F9" points="888.532 110.2682 856.726 128.6312 824.921 110.2682 824.921 73.5422 856.726 55.1792 888.532 73.5422"></polygon>
                    <polygon id="Fill-346" fill="#F4F6F6" points="952.1433 110.2682 920.3373 128.6312 888.5323 110.2682 888.5323 73.5422 920.3373 55.1792 952.1433 73.5422"></polygon>
                    <polygon id="Fill-348" fill="#F0EFEF" points="697.698 110.2683 665.892 128.6313 634.087 110.2683 634.087 73.5423 665.892 55.1793 697.698 73.5423"></polygon>
                    <polygon id="Fill-350" fill="#F4F6F6" points="634.0867 110.2683 602.2807 128.6313 570.4757 110.2683 570.4757 73.5423 602.2807 55.1793 634.0867 73.5423"></polygon>
                    <polygon id="Fill-352" fill="#EBEBEB" points="570.4753 110.2683 538.6693 128.6313 506.8643 110.2683 506.8643 73.5423 538.6693 55.1793 570.4753 73.5423"></polygon>
                    <polygon id="Fill-354" fill="#F0EFEF" points="506.9631 110.2683 475.1571 128.6313 443.3521 110.2683 443.3521 73.5423 475.1571 55.1793 506.9631 73.5423"></polygon>
                    <polygon id="Fill-356" fill="#F4F6F6" points="189.0427 220.1328 157.2367 238.4958 125.4317 220.1328 125.4317 183.4068 157.2367 165.0438 189.0427 183.4068"></polygon>
                    <polygon id="Fill-358" fill="#F4F6F6" points="252.6541 220.1328 220.8481 238.4958 189.0431 220.1328 189.0431 183.4068 220.8481 165.0438 252.6541 183.4068"></polygon>
                    <polygon id="Fill-360" fill="#F0EFEF" points="316.2654 220.1328 284.4594 238.4958 252.6544 220.1328 252.6544 183.4068 284.4594 165.0438 316.2654 183.4068"></polygon>
                    <polygon id="Fill-362" fill="#F9F9F9" points="379.8767 220.1328 348.0707 238.4958 316.2657 220.1328 316.2657 183.4068 348.0707 165.0438 379.8767 183.4068"></polygon>
                    <polygon id="Fill-367" fill="#F0EFEF" points="443.488 220.1328 411.682 238.4958 379.877 220.1328 379.877 183.4068 411.682 165.0438 443.488 183.4068"></polygon>
                    <polygon id="Fill-369" fill="#F4F6F6" points="284.4597 275.2325 252.6537 293.5955 220.8487 275.2325 220.8487 238.5065 252.6537 220.1435 284.4597 238.5065"></polygon>
                    <polygon id="Fill-371" fill="#F9F9F9" points="411.6823 275.2325 379.8763 293.5955 348.0713 275.2325 348.0713 238.5065 379.8763 220.1435 411.6823 238.5065"></polygon>
                    <polygon id="Fill-378" fill="#F4F6F6" points="252.6541 330.3322 220.8481 348.6952 189.0431 330.3322 189.0431 293.6062 220.8481 275.2432 252.6541 293.6062"></polygon>
                    <polygon id="Fill-383" fill="#F0EFEF" points="443.488 330.3322 411.682 348.6952 379.877 330.3322 379.877 293.6062 411.682 275.2432 443.488 293.6062"></polygon>
                    <polygon id="Fill-385" fill="#F9F9F9" points="411.6823 385.432 379.8763 403.795 348.0713 385.432 348.0713 348.706 379.8763 330.343 411.6823 348.706"></polygon>
                    <polygon id="Fill-392" fill="#F4F6F6" points="730.5046 164.0849 698.6986 182.4479 666.8936 164.0849 666.8936 127.3589 698.6986 108.9959 730.5046 127.3589"></polygon>
                    <polygon id="Fill-394" fill="#F4F6F6" points="666.8932 164.0849 635.0872 182.4479 603.2822 164.0849 603.2822 127.3589 635.0872 108.9959 666.8932 127.3589"></polygon>
                    <polygon id="Fill-396" fill="#F4F6F6" points="794.1159 164.0849 762.3099 182.4479 730.5049 164.0849 730.5049 127.3589 762.3099 108.9959 794.1159 127.3589"></polygon>
                    <polygon id="Fill-398" fill="#F0EFEF" points="857.7272 164.0849 825.9212 182.4479 794.1162 164.0849 794.1162 127.3589 825.9212 108.9959 857.7272 127.3589"></polygon>
                    <polygon id="Fill-400" fill="#F9F9F9" points="921.3385 164.0849 889.5325 182.4479 857.7275 164.0849 857.7275 127.3589 889.5325 108.9959 921.3385 127.3589"></polygon>
                    <polygon id="Fill-402" fill="#F4F6F6" points="603.2819 164.0849 571.4759 182.4479 539.6709 164.0849 539.6709 127.3589 571.4759 108.9959 603.2819 127.3589"></polygon>
                </g>
                <polygon id="Fill-405" fill="#EBEBEB" points="539.6705 604.6549 507.8645 623.0179 476.0595 604.6549 476.0595 567.9289 507.8645 549.5659 539.6705 567.9289"></polygon>
                <g id="Group-455" transform="translate(412.000000, 548.570000)">
                    <polygon id="Fill-407" fill="#F0EFEF" points="572.9498 56.0849 541.1438 74.4479 509.3388 56.0849 509.3388 19.3589 541.1438 0.9959 572.9498 19.3589"></polygon>
                    <polygon id="Fill-409" fill="#F4F6F6" points="64.0732 56.0849 32.2672 74.4479 0.4622 56.0849 0.4622 19.3589 32.2672 0.9959 64.0732 19.3589"></polygon>
                    <polygon id="Fill-411" fill="#F4F6F6" points="413.9216 111.1847 382.1156 129.5477 350.3106 111.1847 350.3106 74.4587 382.1156 56.0957 413.9216 74.4587"></polygon>
                    <polygon id="Fill-413" fill="#F4F6F6" points="477.5328 111.1847 445.7268 129.5477 413.9218 111.1847 413.9218 74.4587 445.7268 56.0957 477.5328 74.4587"></polygon>
                    <polygon id="Fill-415" fill="#F9F9F9" points="541.1442 111.1847 509.3382 129.5477 477.5332 111.1847 477.5332 74.4587 509.3382 56.0957 541.1442 74.4587"></polygon>
                    <polygon id="Fill-417" fill="#F4F6F6" points="286.6989 111.1847 254.8929 129.5477 223.0879 111.1847 223.0879 74.4587 254.8929 56.0957 286.6989 74.4587"></polygon>
                    <polygon id="Fill-419" fill="#F0EFEF" points="223.0875 111.1847 191.2815 129.5477 159.4765 111.1847 159.4765 74.4587 191.2815 56.0957 223.0875 74.4587"></polygon>
                    <polygon id="Fill-421" fill="#F4F6F6" points="159.4762 111.1847 127.6702 129.5477 95.8652 111.1847 95.8652 74.4587 127.6702 56.0957 159.4762 74.4587"></polygon>
                    <polygon id="Fill-423" fill="#F4F6F6" points="318.5046 166.2844 286.6986 184.6474 254.8936 166.2844 254.8936 129.5584 286.6986 111.1954 318.5046 129.5584"></polygon>
                    <polygon id="Fill-425" fill="#F4F6F6" points="509.3385 166.2844 477.5325 184.6474 445.7275 166.2844 445.7275 129.5584 477.5325 111.1954 509.3385 129.5584"></polygon>
                    <polygon id="Fill-427" fill="#F9F9F9" points="191.2819 166.2844 159.4759 184.6474 127.6709 166.2844 127.6709 129.5584 159.4759 111.1954 191.2819 129.5584"></polygon>
                    <polygon id="Fill-429" fill="#F4F6F6" points="64.0732 166.2844 32.2672 184.6474 0.4622 166.2844 0.4622 129.5584 32.2672 111.1954 64.0732 129.5584"></polygon>
                    <polygon id="Fill-431" fill="#F4F6F6" points="477.5328 221.3842 445.7268 239.7472 413.9218 221.3842 413.9218 184.6582 445.7268 166.2952 477.5328 184.6582"></polygon>
                    <polygon id="Fill-433" fill="#F9F9F9" points="541.1442 221.3842 509.3382 239.7472 477.5332 221.3842 477.5332 184.6582 509.3382 166.2952 541.1442 184.6582"></polygon>
                    <polygon id="Fill-435" fill="#F4F6F6" points="223.0875 221.3842 191.2815 239.7472 159.4765 221.3842 159.4765 184.6582 191.2815 166.2952 223.0875 184.6582"></polygon>
                    <polygon id="Fill-437" fill="#F4F6F6" points="159.4762 221.3842 127.6702 239.7472 95.8652 221.3842 95.8652 184.6582 127.6702 166.2952 159.4762 184.6582"></polygon>
                    <polygon id="Fill-439" fill="#F4F6F6" points="382.1159 276.4494 350.3099 294.8124 318.5049 276.4494 318.5049 239.7234 350.3099 221.3604 382.1159 239.7234"></polygon>
                    <polygon id="Fill-441" fill="#EBEBEB" points="445.7272 276.4494 413.9212 294.8124 382.1162 276.4494 382.1162 239.7234 413.9212 221.3604 445.7272 239.7234"></polygon>
                    <polygon id="Fill-451" fill="#F4F6F6" points="730.7421 111.1319 698.9361 129.4949 667.1311 111.1319 667.1311 74.4059 698.9361 56.0429 730.7421 74.4059"></polygon>
                    <polygon id="Fill-453" fill="#F4F6F6" points="603.5334 111.1319 571.7274 129.4949 539.9224 111.1319 539.9224 74.4059 571.7274 56.0429 603.5334 74.4059"></polygon>
                </g>
                <g id="Group-479" transform="translate(951.000000, 659.570000)">
                    <polygon id="Fill-460" fill="#F4F6F6" points="159.9364 55.2317 128.1304 73.5947 96.3254 55.2317 96.3254 18.5057 128.1304 0.1427 159.9364 18.5057"></polygon>
                    <polygon id="Fill-465" fill="#F9F9F9" points="191.7421 110.3314 159.9361 128.6944 128.1311 110.3314 128.1311 73.6054 159.9361 55.2424 191.7421 73.6054"></polygon>
                    <polygon id="Fill-467" fill="#F4F6F6" points="64.5334 110.3314 32.7274 128.6944 0.9224 110.3314 0.9224 73.6054 32.7274 55.2424 64.5334 73.6054"></polygon>
                    <polygon id="Fill-471" fill="#F4F6F6" points="159.9285 165.4312 128.1225 183.7942 96.3175 165.4312 96.3175 128.7052 128.1225 110.3422 159.9285 128.7052"></polygon>
                </g>
                <polygon id="Fill-496" fill="#F0EFEF" points="1140.1998 0.6169 1110.9358 17.5129 1110.9358 54.2379 1142.7418 72.6019 1174.5478 54.2379 1174.5478 17.5129 1145.2848 0.6169"></polygon>
                <polygon id="Fill-498" fill="#F4F6F6" points="1076.5879 0.6169 1047.3249 17.5129 1047.3249 54.2379 1079.1299 72.6019 1110.9359 54.2379 1110.9359 17.5129 1081.6729 0.6169"></polygon>
                <polygon id="Fill-500" fill="#F9F9F9" points="1013.0758 0.6169 983.8128 17.5129 983.8128 54.2379 1015.6178 72.6019 1047.4238 54.2379 1047.4238 17.5129 1018.1608 0.6169"></polygon>
                <polygon id="Fill-504" fill="#F9F9F9" points="1206.3534 109.3379 1174.5474 127.7009 1142.7424 109.3379 1142.7424 72.6119 1174.5474 54.2489 1206.3534 72.6119"></polygon>
                <polygon id="Fill-508" fill="#F9F9F9" points="1142.7421 109.3379 1110.9361 127.7009 1079.1311 109.3379 1079.1311 72.6119 1110.9361 54.2489 1142.7421 72.6119"></polygon>
                <polygon id="Fill-510" fill="#F4F6F6" points="1079.1307 109.3379 1047.3247 127.7009 1015.5197 109.3379 1015.5197 72.6119 1047.3247 54.2489 1079.1307 72.6119"></polygon>
                <polygon id="Fill-512" fill="#F4F6F6" points="1015.5334 109.3379 983.7274 127.7009 951.9224 109.3379 951.9224 72.6119 983.7274 54.2489 1015.5334 72.6119"></polygon>
                <polygon id="Fill-518" fill="#F4F6F6" points="1174.5477 164.4377 1142.7417 182.8007 1110.9367 164.4377 1110.9367 127.7117 1142.7417 109.3487 1174.5477 127.7117"></polygon>
                <polygon id="Fill-520" fill="#F4F6F6" points="1110.9364 164.4377 1079.1304 182.8007 1047.3254 164.4377 1047.3254 127.7117 1079.1304 109.3487 1110.9364 127.7117"></polygon>
                <polygon id="Fill-522" fill="#EBEBEB" points="1047.4241 164.4377 1015.6181 182.8007 983.8131 164.4377 983.8131 127.7117 1015.6181 109.3487 1047.4241 127.7117"></polygon>
                <polygon id="Fill-526" fill="#F4F6F6" points="1206.3534 219.5029 1174.5474 237.8659 1142.7424 219.5029 1142.7424 182.7769 1174.5474 164.4139 1206.3534 182.7769"></polygon>
                <polygon id="Fill-530" fill="#F9F9F9" points="1142.7421 219.5029 1110.9361 237.8659 1079.1311 219.5029 1079.1311 182.7769 1110.9361 164.4139 1142.7421 182.7769"></polygon>
                <polygon id="Fill-532" fill="#F4F6F6" points="1079.1307 219.5029 1047.3247 237.8659 1015.5197 219.5029 1015.5197 182.7769 1047.3247 164.4139 1079.1307 182.7769"></polygon>
                <polygon id="Fill-534" fill="#F4F6F6" points="1015.5334 219.5029 983.7274 237.8659 951.9224 219.5029 951.9224 182.7769 983.7274 164.4139 1015.5334 182.7769"></polygon>
                <polygon id="Fill-540" fill="#F4F6F6" points="1174.5477 274.6027 1142.7417 292.9657 1110.9367 274.6027 1110.9367 237.8767 1142.7417 219.5137 1174.5477 237.8767"></polygon>
                <polygon id="Fill-542" fill="#EBEBEB" points="1110.9364 274.6027 1079.1304 292.9657 1047.3254 274.6027 1047.3254 237.8767 1079.1304 219.5137 1110.9364 237.8767"></polygon>
                <polygon id="Fill-544" fill="#F0EFEF" points="1047.4241 274.6027 1015.6181 292.9657 983.8131 274.6027 983.8131 237.8767 1015.6181 219.5137 1047.4241 237.8767"></polygon>
                <polygon id="Fill-548" fill="#F4F6F6" points="1206.3534 328.4193 1174.5474 346.7823 1142.7424 328.4193 1142.7424 291.6933 1174.5474 273.3303 1206.3534 291.6933"></polygon>
                <polygon id="Fill-552" fill="#F4F6F6" points="1142.7421 328.4193 1110.9361 346.7823 1079.1311 328.4193 1079.1311 291.6933 1110.9361 273.3303 1142.7421 291.6933"></polygon>
                <polygon id="Fill-554" fill="#EBEBEB" points="1079.1307 328.4193 1047.3247 346.7823 1015.5197 328.4193 1015.5197 291.6933 1047.3247 273.3303 1079.1307 291.6933"></polygon>
                <polygon id="Fill-556" fill="#F4F6F6" points="1015.5334 328.4193 983.7274 346.7823 951.9224 328.4193 951.9224 291.6933 983.7274 273.3303 1015.5334 291.6933"></polygon>
                <polygon id="Fill-562" fill="#F0EFEF" points="1174.5477 383.5191 1142.7417 401.8821 1110.9367 383.5191 1110.9367 346.7931 1142.7417 328.4301 1174.5477 346.7931"></polygon>
                <polygon id="Fill-564" fill="#F4F6F6" points="1110.9364 383.5191 1079.1304 401.8821 1047.3254 383.5191 1047.3254 346.7931 1079.1304 328.4301 1110.9364 346.7931"></polygon>
                <polygon id="Fill-566" fill="#F9F9F9" points="1047.4241 383.5191 1015.6181 401.8821 983.8131 383.5191 983.8131 346.7931 1015.6181 328.4301 1047.4241 346.7931"></polygon>
                <polygon id="Fill-570" fill="#F9F9F9" points="1206.3534 438.6188 1174.5474 456.9818 1142.7424 438.6188 1142.7424 401.8928 1174.5474 383.5298 1206.3534 401.8928"></polygon>
                <polygon id="Fill-574" fill="#F9F9F9" points="1142.7421 438.6188 1110.9361 456.9818 1079.1311 438.6188 1079.1311 401.8928 1110.9361 383.5298 1142.7421 401.8928"></polygon>
                <polygon id="Fill-576" fill="#F4F6F6" points="1079.1307 438.6188 1047.3247 456.9818 1015.5197 438.6188 1015.5197 401.8928 1047.3247 383.5298 1079.1307 401.8928"></polygon>
                <polygon id="Fill-578" fill="#F4F6F6" points="1015.5334 438.6188 983.7274 456.9818 951.9224 438.6188 951.9224 401.8928 983.7274 383.5298 1015.5334 401.8928"></polygon>
                <g id="Group-613" transform="translate(951.000000, 438.570000)">
                    <polygon id="Fill-585" fill="#F4F6F6" points="223.5477 55.1486 191.7417 73.5116 159.9367 55.1486 159.9367 18.4226 191.7417 0.0596 223.5477 18.4226"></polygon>
                    <polygon id="Fill-587" fill="#F4F6F6" points="159.9364 55.1486 128.1304 73.5116 96.3254 55.1486 96.3254 18.4226 128.1304 0.0596 159.9364 18.4226"></polygon>
                    <polygon id="Fill-589" fill="#EBEBEB" points="96.4241 55.1486 64.6181 73.5116 32.8131 55.1486 32.8131 18.4226 64.6181 0.0596 96.4241 18.4226"></polygon>
                    <polygon id="Fill-593" fill="#F4F6F6" points="255.3534 110.2137 223.5474 128.5767 191.7424 110.2137 191.7424 73.4877 223.5474 55.1247 255.3534 73.4877"></polygon>
                    <polygon id="Fill-598" fill="#F9F9F9" points="191.7421 110.2137 159.9361 128.5767 128.1311 110.2137 128.1311 73.4877 159.9361 55.1247 191.7421 73.4877"></polygon>
                    <polygon id="Fill-600" fill="#F4F6F6" points="128.1307 110.2137 96.3247 128.5767 64.5197 110.2137 64.5197 73.4877 96.3247 55.1247 128.1307 73.4877"></polygon>
                    <polygon id="Fill-602" fill="#F4F6F6" points="64.5334 110.2137 32.7274 128.5767 0.9224 110.2137 0.9224 73.4877 32.7274 55.1247 64.5334 73.4877"></polygon>
                    <polygon id="Fill-609" fill="#F4F6F6" points="223.5477 165.3135 191.7417 183.6765 159.9367 165.3135 159.9367 128.5875 191.7417 110.2245 223.5477 128.5875"></polygon>
                    <polygon id="Fill-611" fill="#EBEBEB" points="159.9364 165.3135 128.1304 183.6765 96.3254 165.3135 96.3254 128.5875 128.1304 110.2245 159.9364 128.5875"></polygon>
                </g>
            </g>
        </g>
    </g>
</svg>