<?xml version="1.0" encoding="UTF-8"?>
<svg width="1024px" height="1000px" viewBox="0 0 1024 1000" version="1.1" xmlns="http://www.w3.org/2000/svg" xmlns:xlink="http://www.w3.org/1999/xlink">
    <!-- Generator: Sketch 42 (36781) - http://www.bohemiancoding.com/sketch -->
    <title>FONDO</title>
    <desc>Created with Sketch.</desc>
    <defs>
        <linearGradient x1="50%" y1="58.8534963%" x2="50%" y2="100%" id="linearGradient-1">
            <stop stop-color="#FFFFFF" offset="0%"></stop>
            <stop stop-color="#F3F2F2" offset="100%"></stop>
        </linearGradient>
        <polygon id="path-2" points="11.1750599 69.495464 11.1750599 0.419553253 0.603878462 0.419553253 0.603878462 69.495464 11.1750599 69.495464"></polygon>
        <polygon id="path-4" points="41.1704838 69.2763826 41.1704838 0.20047184 0.680013906 0.20047184 0.680013906 69.2763826 41.1704838 69.2763826"></polygon>
        <polygon id="path-6" points="11.1750599 69.4686521 11.1750599 0.392741357 0.603878462 0.392741357 0.603878462 69.4686521 11.1750599 69.4686521"></polygon>
    </defs>
    <g id="Page-1" stroke="none" stroke-width="1" fill="none" fill-rule="evenodd">
        <g id="LANDING-W/MENU">
            <g id="FONDO" transform="translate(-181.000000, -14.000000)">
                <path d="M181,94 L724.55952,94 L1067.66025,94 C1067.66025,94 1038.10061,138.566677 993.699812,153.298043 C949.299016,168.029409 915.682794,143.578705 896.071478,153.298043 C875.665408,163.41126 866.405858,235.363567 843.082238,252.458614 C819.758618,269.553661 771,241.024362 771,241.024362 L737.777718,324.789874 C737.777718,324.789874 734.689443,354.606569 737.777718,385.841119 C740.865993,417.07567 771,442.22213 771,458.245104 C771,496.623639 737.777718,526.463774 737.777718,526.463774 L920.117722,714.534893 L1047.25908,714.534893 L1208,679.294549 L1208,1014 L181,1014 L181,94 Z" id="Combined-Shape" fill="url(#linearGradient-1)"></path>
                <g id="Hexagonos">
                    <polygon id="Fill-5" fill="#F6F6F6" points="180.7249 0.00767314126 208.235115 15.8866657 235.744447 0.00767314126"></polygon>
                    <polygon id="Fill-7" fill="#F0F0F0" points="240.562947 0.00767314126 268.073162 15.8866657 295.582495 0.00767314126"></polygon>
                    <polygon id="Fill-9" fill="#FAFAFA" points="300.401701 0.00767314126 327.911916 15.8866657 355.421248 0.00767314126"></polygon>
                    <polygon id="Fill-13" fill="#F0F0F0" points="360.240366 0.00767314126 387.750581 15.8866657 415.259914 0.00767314126"></polygon>
                    <polygon id="Fill-15" fill="#F0F0F0" points="175.923956 0.00767314126 148.396096 15.8954854 148.396096 50.4343228 178.31565 67.7033005 208.235203 50.4343228 208.235203 15.8954854 180.707344 0.00767314126"></polygon>
                    <polygon id="Fill-17" fill="#F6F6F6" points="235.761915 0.00767314126 208.234938 15.8954854 208.234938 50.4343228 238.153609 67.7033005 268.073162 50.4343228 268.073162 15.8954854 240.545303 0.00767314126"></polygon>
                    <polygon id="Fill-19" fill="#F6F6F6" points="295.600669 0.00767314126 268.072809 15.8954854 268.072809 50.4343228 297.992363 67.7033005 327.911916 50.4343228 327.911916 15.8954854 300.384057 0.00767314126"></polygon>
                    <polygon id="Fill-21" fill="#FAFAFA" points="355.439422 0.00767314126 327.911563 15.8954854 327.911563 50.4343228 357.831116 67.7033005 387.750669 50.4343228 387.750669 15.8954854 360.22281 0.00767314126"></polygon>
                    <polygon id="Fill-33" fill="#F6F6F6" points="238.153962 102.25131 208.234409 119.520288 178.315738 102.25131 178.315738 67.7133549 208.234409 50.4443772 238.153962 67.7133549"></polygon>
                    <polygon id="Fill-35" fill="#FAFAFA" points="297.992451 102.25131 268.072898 119.520288 238.154227 102.25131 238.154227 67.7133549 268.072898 50.4443772 297.992451 67.7133549"></polygon>
                    <polygon id="Fill-37" fill="#F6F6F6" points="357.83094 102.25131 327.911386 119.520288 297.992715 102.25131 297.992715 67.7133549 327.911386 50.4443772 357.83094 67.7133549"></polygon>
                    <polygon id="Fill-41" fill="#F0F0F0" points="417.66934 102.25131 387.749787 119.520288 357.831116 102.25131 357.831116 67.7133549 387.749787 50.4443772 417.66934 67.7133549"></polygon>
                    <polygon id="Fill-43" fill="#F6F6F6" points="208.234673 154.068562 178.31512 171.33754 148.396449 154.068562 148.396449 119.530607 178.31512 102.261629 208.234673 119.530607"></polygon>
                    <polygon id="Fill-45" fill="#F6F6F6" points="268.073162 154.068562 238.153609 171.33754 208.234938 154.068562 208.234938 119.530607 238.153609 102.261629 268.073162 119.530607"></polygon>
                    <polygon id="Fill-47" fill="#F6F6F6" points="327.911651 154.068562 297.992098 171.33754 268.073427 154.068562 268.073427 119.530607 297.992098 102.261629 327.911651 119.530607"></polygon>
                    <polygon id="Fill-49" fill="#FAFAFA" points="387.75014 154.068562 357.830587 171.33754 327.911916 154.068562 327.911916 119.530607 357.830587 102.261629 387.75014 119.530607"></polygon>
                    <polygon id="Fill-61" fill="#F0F0F0" points="238.153962 205.85327 208.234409 223.122248 178.315738 205.85327 178.315738 171.315314 208.234409 154.046337 238.153962 171.315314"></polygon>
                    <polygon id="Fill-63" fill="#F0F0F0" points="297.992451 205.85327 268.072898 223.122248 238.154227 205.85327 238.154227 171.315314 268.072898 154.046337 297.992451 171.315314"></polygon>
                    <polygon id="Fill-65" fill="#F6F6F6" points="357.83094 205.85327 327.911386 223.122248 297.992715 205.85327 297.992715 171.315314 327.911386 154.046337 357.83094 171.315314"></polygon>
                    <polygon id="Fill-69" fill="#D8D8D8" points="417.838224 205.806933 387.918671 223.075911 358 205.806933 358 171.268978 387.918671 154 417.838224 171.268978"></polygon>
                    <polygon id="Fill-69-Copy-2" fill="#66C7C6" points="1136.83822 412.806933 1106.91867 430.075911 1077 412.806933 1077 378.268978 1106.91867 361 1136.83822 378.268978"></polygon>
                    <polygon id="Fill-71" fill="#F6F6F6" points="208.234673 257.670346 178.31512 274.939323 148.396449 257.670346 148.396449 223.13239 178.31512 205.863413 208.234673 223.13239"></polygon>
                    <polygon id="Fill-73" fill="#F6F6F6" points="268.073162 257.670346 238.153609 274.939323 208.234938 257.670346 208.234938 223.13239 238.153609 205.863413 268.073162 223.13239"></polygon>
                    <polygon id="Fill-75" fill="#FAFAFA" points="327.911651 257.670346 297.992098 274.939323 268.073427 257.670346 268.073427 223.13239 297.992098 205.863413 327.911651 223.13239"></polygon>
                    <polygon id="Fill-77" fill="#ECECEC" points="387.75014 257.670346 357.830587 274.939323 327.911916 257.670346 327.911916 223.13239 357.830587 205.863413 387.75014 223.13239"></polygon>
                    <polygon id="Fill-85" fill="#F0F0F0" points="659.124563 0.00767314126 686.721236 15.9351741 714.317908 0.00767314126"></polygon>
                    <polygon id="Fill-87" fill="#F6F6F6" points="718.963229 0.00767314126 746.559901 15.9351741 774.156573 0.00767314126"></polygon>
                    <polygon id="Fill-89" fill="#F6F6F6" points="778.80207 0.00767314126 806.398743 15.9351741 833.995415 0.00767314126"></polygon>
                    <polygon id="Fill-91" fill="#FAFAFA" points="838.639942 0.00767314126 866.236614 15.9351741 893.833286 0.00767314126"></polygon>
                    <polygon id="Fill-93" fill="#F6F6F6" points="599.286516 0.00767314126 626.883188 15.9351741 654.478978 0.00767314126"></polygon>
                    <polygon id="Fill-95" fill="#F0F0F0" points="539.44785 0.00767314126 567.044523 15.9351741 594.641195 0.00767314126"></polygon>
                    <polygon id="Fill-97" fill="#F6F6F6" points="479.609097 0.00767314126 507.205769 15.9351741 534.802441 0.00767314126"></polygon>
                    <polygon id="Fill-99" fill="#FAFAFA" points="419.864035 0.00767314126 447.460707 15.9351741 475.057379 0.00767314126"></polygon>
                    <polygon id="Fill-101" fill="#F6F6F6" points="654.495475 0.00767314126 626.882923 15.9457577 626.882923 50.4837131 656.801594 67.7526908 686.721147 50.4837131 686.721147 15.9457577 659.107713 0.00767314126"></polygon>
                    <polygon id="Fill-103" fill="#FAFAFA" points="594.657428 0.00767314126 567.043993 15.9457577 567.043993 50.4837131 596.963546 67.7526908 626.8831 50.4837131 626.8831 15.9457577 599.269665 0.00767314126"></polygon>
                    <polygon id="Fill-105" fill="#F6F6F6" points="714.334229 0.00767314126 686.720794 15.9457577 686.720794 50.4837131 716.640348 67.7526908 746.559901 50.4837131 746.559901 15.9457577 718.946466 0.00767314126"></polygon>
                    <polygon id="Fill-107" fill="#FAFAFA" points="774.172894 0.00767314126 746.55946 15.9457577 746.55946 50.4837131 776.479013 67.7526908 806.398566 50.4837131 806.398566 15.9457577 778.785132 0.00767314126"></polygon>
                    <polygon id="Fill-109" fill="#F6F6F6" points="834.011648 0.00767314126 806.398213 15.9457577 806.398213 50.4837131 836.317766 67.7526908 866.236437 50.4837131 866.236437 15.9457577 838.623885 0.00767314126"></polygon>
                    <polygon id="Fill-111" fill="#FAFAFA" points="534.818674 0.00767314126 507.20524 15.9457577 507.20524 50.4837131 537.124793 67.7526908 567.044346 50.4837131 567.044346 15.9457577 539.430912 0.00767314126"></polygon>
                    <polygon id="Fill-113" fill="#F6F6F6" points="474.980009 0.00767314126 447.367457 15.9457577 447.367457 50.4837131 477.286128 67.7526908 507.205681 50.4837131 507.205681 15.9457577 479.592246 0.00767314126"></polygon>
                    <polygon id="Fill-115" fill="#F0F0F0" points="893.849607 0.00767314126 866.236173 15.9457577 866.236173 50.4837131 896.155726 67.7526908 926.075279 50.4837131 926.075279 15.9457577 898.461845 0.00767314126"></polygon>
                    <polygon id="Fill-117" fill="#F6F6F6" points="415.154665 0.00767314126 387.541231 15.9457577 387.541231 50.4837131 417.460784 67.7526908 447.380337 50.4837131 447.380337 15.9457577 419.766903 0.00767314126"></polygon>
                    <polygon id="Fill-119" fill="#E6BA83" points="716.640612 102.301053 686.721059 119.570031 656.802388 102.301053 656.802388 67.763098 686.721059 50.4941204 716.640612 67.763098"></polygon>
                    <polygon id="Fill-121" fill="#F6F6F6" points="776.479101 102.301053 746.559548 119.570031 716.640877 102.301053 716.640877 67.763098 746.559548 50.4941204 776.479101 67.763098"></polygon>
                    <polygon id="Fill-123" fill="#F6F6F6" points="836.31759 102.301053 806.398037 119.570031 776.479366 102.301053 776.479366 67.763098 806.398037 50.4941204 836.31759 67.763098"></polygon>
                    <polygon id="Fill-125" fill="#FAFAFA" points="896.156079 102.301053 866.236526 119.570031 836.317855 102.301053 836.317855 67.763098 866.236526 50.4941204 896.156079 67.763098"></polygon>
                    <polygon id="Fill-127" fill="#F6F6F6" points="656.802035 102.301053 626.882482 119.570031 596.963811 102.301053 596.963811 67.763098 626.882482 50.4941204 656.802035 67.763098"></polygon>
                    <polygon id="Fill-129" fill="#F6F6F6" points="596.963546 102.301053 567.043993 119.570031 537.125322 102.301053 537.125322 67.763098 567.043993 50.4941204 596.963546 67.763098"></polygon>
                    <polygon id="Fill-131" fill="#F6F6F6" points="537.125058 102.301053 507.205504 119.570031 477.286833 102.301053 477.286833 67.763098 507.205504 50.4941204 537.125058 67.763098"></polygon>
                    <polygon id="Fill-133" fill="#ECECEC" points="477.379731 102.301053 447.460178 119.570031 417.541507 102.301053 417.541507 67.763098 447.460178 50.4941204 477.379731 67.763098"></polygon>
                    <polygon id="Fill-135" fill="#F6F6F6" points="686.721324 154.085673 656.801771 171.35465 626.8831 154.085673 626.8831 119.547717 656.801771 102.27874 686.721324 119.547717"></polygon>
                    <polygon id="Fill-137" fill="#F6F6F6" points="626.882835 154.085673 596.963282 171.35465 567.044611 154.085673 567.044611 119.547717 596.963282 102.27874 626.882835 119.547717"></polygon>
                    <polygon id="Fill-139" fill="#F0F0F0" points="746.559901 154.085673 716.640348 171.35465 686.721677 154.085673 686.721677 119.547717 716.640348 102.27874 746.559901 119.547717"></polygon>
                    <polygon id="Fill-141" fill="#ECECEC" points="806.398301 154.085673 776.478748 171.35465 746.560077 154.085673 746.560077 119.547717 776.478748 102.27874 806.398301 119.547717"></polygon>
                    <polygon id="Fill-143" fill="#F6F6F6" points="866.236879 154.085673 836.317325 171.35465 806.398654 154.085673 806.398654 119.547717 836.317325 102.27874 866.236879 119.547717"></polygon>
                    <polygon id="Fill-145" fill="#FAFAFA" points="567.044258 154.085673 537.124705 171.35465 507.206034 154.085673 507.206034 119.547717 537.124705 102.27874 567.044258 119.547717"></polygon>
                    <polygon id="Fill-147" fill="#F6F6F6" points="507.205769 154.085673 477.286216 171.35465 447.367545 154.085673 447.367545 119.547717 477.286216 102.27874 507.205769 119.547717"></polygon>
                    <polygon id="Fill-149" fill="#F6F6F6" points="926.075191 154.085673 896.155638 171.35465 866.236967 154.085673 866.236967 119.547717 896.155638 102.27874 926.075191 119.547717"></polygon>
                    <polygon id="Fill-151" fill="#F6F6F6" points="447.380513 154.085673 417.46096 171.35465 387.542289 154.085673 387.542289 119.547717 417.46096 102.27874 447.380513 119.547717"></polygon>
                    <polygon id="Fill-153" fill="#F6F6F6" points="716.640612 205.902837 686.721059 223.171814 656.802388 205.902837 656.802388 171.364881 686.721059 154.095904 716.640612 171.364881"></polygon>
                    <polygon id="Fill-155" fill="#F6F6F6" points="776.479101 205.902837 746.559548 223.171814 716.640877 205.902837 716.640877 171.364881 746.559548 154.095904 776.479101 171.364881"></polygon>
                    <polygon id="Fill-157" fill="#FAFAFA" points="836.31759 205.902837 806.398037 223.171814 776.479366 205.902837 776.479366 171.364881 806.398037 154.095904 836.31759 171.364881"></polygon>
                    <polygon id="Fill-159" fill="#ECECEC" points="896.156079 205.902837 866.236526 223.171814 836.317855 205.902837 836.317855 171.364881 866.236526 154.095904 896.156079 171.364881"></polygon>
                    <polygon id="Fill-161" fill="#F0F0F0" points="656.802035 205.902925 626.882482 223.171903 596.963811 205.902925 596.963811 171.364969 626.882482 154.095992 656.802035 171.364969"></polygon>
                    <polygon id="Fill-163" fill="#F6F6F6" points="596.963546 205.902925 567.043993 223.171903 537.125322 205.902925 537.125322 171.364969 567.043993 154.095992 596.963546 171.364969"></polygon>
                    <polygon id="Fill-165" fill="#ECECEC" points="537.125058 205.902925 507.205504 223.171903 477.286833 205.902925 477.286833 171.364969 507.205504 154.095992 537.125058 171.364969"></polygon>
                    <polygon id="Fill-167" fill="#F0F0F0" points="477.379731 205.902925 447.460178 223.171903 417.541507 205.902925 417.541507 171.364969 447.460178 154.095992 477.379731 171.364969"></polygon>
                    <polygon id="Fill-169" fill="#F6F6F6" points="297.929549 827.948523 268.009995 845.217501 238.091324 827.948523 238.091324 793.410568 268.009995 776.14159 297.929549 793.410568"></polygon>
                    <polygon id="Fill-173" fill="#F6F6F6" points="238.153962 310.163363 208.234409 327.432341 178.315738 310.163363 178.315738 275.625408 208.234409 258.35643 238.153962 275.625408"></polygon>
                    <polygon id="Fill-175" fill="#F0F0F0" points="417.606526 827.948523 387.686973 845.217501 357.768302 827.948523 357.768302 793.410568 387.686973 776.14159 417.606526 793.410568"></polygon>
                    <polygon id="Fill-177" fill="#FAFAFA" points="357.83094 310.163363 327.911386 327.432341 297.992715 310.163363 297.992715 275.625408 327.911386 258.35643 357.83094 275.625408"></polygon>
                    <polygon id="Fill-181" fill="#F0F0F0" points="417.66934 310.163363 387.749787 327.432341 357.831116 310.163363 357.831116 275.625408 387.749787 258.35643 417.66934 275.625408"></polygon>
                    <polygon id="Fill-183" fill="#F0F0F0" points="208.234673 361.980527 178.31512 379.249505 148.396449 361.980527 148.396449 327.442572 178.31512 310.173594 208.234673 327.442572"></polygon>
                    <polygon id="Fill-185" fill="#F6F6F6" points="268.073162 361.980527 238.153609 379.249505 208.234938 361.980527 208.234938 327.442572 238.153609 310.173594 268.073162 327.442572"></polygon>
                    <polygon id="Fill-187" fill="#F6F6F6" points="327.911651 361.980527 297.992098 379.249505 268.073427 361.980527 268.073427 327.442572 297.992098 310.173594 327.911651 327.442572"></polygon>
                    <polygon id="Fill-189" fill="#FAFAFA" points="387.75014 361.980527 357.830587 379.249505 327.911916 361.980527 327.911916 327.442572 357.830587 310.173594 387.75014 327.442572"></polygon>
                    <polygon id="Fill-197" fill="#F6F6F6" points="297.929549 931.582851 268.009995 948.851829 238.091324 931.582851 238.091324 897.044896 268.009995 879.775918 297.929549 897.044896"></polygon>
                    <polygon id="Fill-201" fill="#00B1B0" points="238.153962 413.797779 208.234409 431.066757 178.315738 413.797779 178.315738 379.259824 208.234409 361.990846 238.153962 379.259824"></polygon>
                    <polygon id="Fill-203" fill="#FAFAFA" points="297.992451 413.797779 268.072898 431.066757 238.154227 413.797779 238.154227 379.259824 268.072898 361.990846 297.992451 379.259824"></polygon>
                    <polygon id="Fill-205" fill="#F6F6F6" points="357.83094 413.797779 327.911386 431.066757 297.992715 413.797779 297.992715 379.259824 327.911386 361.990846 357.83094 379.259824"></polygon>
                    <polygon id="Fill-209" fill="#F0F0F0" points="417.66934 413.797779 387.749787 431.066757 357.831116 413.797779 357.831116 379.259824 387.749787 361.990846 417.66934 379.259824"></polygon>
                    <g id="Group-254" transform="translate(0.000000, 413.255985)">
                        <polygon id="Fill-211" fill="#F6F6F6" points="208.234673 52.3588701 178.31512 69.6278478 148.396449 52.3588701 148.396449 17.8209147 178.31512 0.551936989 208.234673 17.8209147"></polygon>
                        <polygon id="Fill-213" fill="#F6F6F6" points="268.073162 52.3588701 238.153609 69.6278478 208.234938 52.3588701 208.234938 17.8209147 238.153609 0.551936989 268.073162 17.8209147"></polygon>
                        <polygon id="Fill-215" fill="#F6F6F6" points="1137.42048 414.035294 1107.50092 431.304272 1077.58225 414.035294 1077.58225 379.497339 1107.50092 362.228361 1137.42048 379.497339"></polygon>
                        <polygon id="Fill-217" fill="#FAFAFA" points="387.75014 52.3588701 357.830587 69.6278478 327.911916 52.3588701 327.911916 17.8209147 357.830587 0.551936989 387.75014 17.8209147"></polygon>
                        <polygon id="Fill-230" fill="#F0F0F0" points="238.153962 104.143578 208.234409 121.412555 178.315738 104.143578 178.315738 69.6056221 208.234409 52.3366444 238.153962 69.6056221"></polygon>
                        <polygon id="Fill-232" fill="#ECECEC" points="297.992451 104.143578 268.072898 121.412555 238.154227 104.143578 238.154227 69.6056221 268.072898 52.3366444 297.992451 69.6056221"></polygon>
                        <polygon id="Fill-234" fill="#F6F6F6" points="985.607374 465.385367 955.68782 482.654344 925.769149 465.385367 925.769149 430.847411 955.68782 413.578433 985.607374 430.847411"></polygon>
                        <polygon id="Fill-239" fill="#F6F6F6" points="417.66934 104.143578 387.749787 121.412555 357.831116 104.143578 357.831116 69.6056221 387.749787 52.3366444 417.66934 69.6056221"></polygon>
                        <polygon id="Fill-241" fill="#F6F6F6" points="208.234673 155.960741 178.31512 173.229719 148.396449 155.960741 148.396449 121.422786 178.31512 104.153808 208.234673 121.422786"></polygon>
                        <polygon id="Fill-243" fill="#F6F6F6" points="268.073162 155.960741 238.153609 173.229719 208.234938 155.960741 208.234938 121.422786 238.153609 104.153808 268.073162 121.422786"></polygon>
                        <polygon id="Fill-245" fill="#FAFAFA" points="327.911651 155.960741 297.992098 173.229719 268.073427 155.960741 268.073427 121.422786 297.992098 104.153808 327.911651 121.422786"></polygon>
                        <polygon id="Fill-247" fill="#ECECEC" points="387.75014 155.960741 357.830587 173.229719 327.911916 155.960741 327.911916 121.422786 357.830587 104.153808 387.75014 121.422786"></polygon>
                    </g>
                    <polygon id="Fill-255" fill="#F6F6F6" points="686.721324 258.395854 656.801771 275.664832 626.8831 258.395854 626.8831 223.857899 656.801771 206.588921 686.721324 223.857899"></polygon>
                    <polygon id="Fill-257" fill="#F6F6F6" points="626.882835 258.395854 596.963282 275.664832 567.044611 258.395854 567.044611 223.857899 596.963282 206.588921 626.882835 223.857899"></polygon>
                    <polygon id="Fill-259" fill="#F6F6F6" points="746.559901 257.395854 716.640348 274.664832 686.721677 257.395854 686.721677 222.857899 716.640348 205.588921 746.559901 222.857899"></polygon>
                    <polygon id="Fill-261" fill="#F0F0F0" points="805.838224 257.806933 775.918671 275.075911 746 257.806933 746 223.268978 775.918671 206 805.838224 223.268978"></polygon>
                    <polygon id="Fill-261-Copy-2" fill="#F0F0F0" points="1134.83822 723.806933 1104.91867 741.075911 1075 723.806933 1075 689.268978 1104.91867 672 1134.83822 689.268978"></polygon>
                    <polygon id="Fill-261-Copy" fill="#F0F0F0" points="627.838224 671.806933 597.918671 689.075911 568 671.806933 568 637.268978 597.918671 620 627.838224 637.268978"></polygon>
                    <polygon id="Fill-263" fill="#FAFAFA" points="865.838224 257.806933 835.918671 275.075911 806 257.806933 806 223.268978 835.918671 206 865.838224 223.268978"></polygon>
                    <polygon id="Fill-263-Copy" fill="#FAFAFA" points="1015.83822 723.806933 985.918671 741.075911 956 723.806933 956 689.268978 985.918671 672 1015.83822 689.268978"></polygon>
                    <polygon id="Fill-265" fill="#F6F6F6" points="567.044258 258.395854 537.124705 275.664832 507.206034 258.395854 507.206034 223.857899 537.124705 206.588921 567.044258 223.857899"></polygon>
                    <polygon id="Fill-261-Copy" fill="#F0F0F0" points="746.838224 671.806933 716.918671 689.075911 687 671.806933 687 637.268978 716.918671 620 746.838224 637.268978"></polygon>
                    <polygon id="Fill-267" fill="#ECECEC" points="507.205769 258.395854 477.286216 275.664832 447.367545 258.395854 447.367545 223.857899 477.286216 206.588921 507.205769 223.857899"></polygon>
                    <polygon id="Fill-261-Copy" fill="#F0F0F0" points="776.838224 722.806933 746.918671 740.075911 717 722.806933 717 688.268978 746.918671 671 776.838224 688.268978"></polygon>
                    <polygon id="Fill-271" fill="#F6F6F6" points="447.380513 258.395854 417.46096 275.664832 387.542289 258.395854 387.542289 223.857899 417.46096 206.588921 447.380513 223.857899"></polygon>
                    <polygon id="Fill-273" fill="#F0F0F0" points="716.640612 310.213018 686.721059 327.481996 656.802388 310.213018 656.802388 275.675063 686.721059 258.406085 716.640612 275.675063"></polygon>
                    <polygon id="Fill-275" fill="#F6F6F6" points="776.479101 310.213018 746.559548 327.481996 716.640877 310.213018 716.640877 275.675063 746.559548 258.406085 776.479101 275.675063"></polygon>
                    <polygon id="Fill-281" fill="#F6F6F6" points="656.802035 310.213107 626.882482 327.482084 596.963811 310.213107 596.963811 275.675151 626.882482 258.406173 656.802035 275.675151"></polygon>
                    <polygon id="Fill-283" fill="#F0F0F0" points="596.963546 310.213107 567.043993 327.482084 537.125322 310.213107 537.125322 275.675151 567.043993 258.406173 596.963546 275.675151"></polygon>
                    <polygon id="Fill-285" fill="#F6F6F6" points="537.125058 310.213107 507.205504 327.482084 477.286833 310.213107 477.286833 275.675151 507.205504 258.406173 537.125058 275.675151"></polygon>
                    <polygon id="Fill-287" fill="#FAFAFA" points="477.379731 310.213107 447.460178 327.482084 417.541507 310.213107 417.541507 275.675151 447.460178 258.406173 477.379731 275.675151"></polygon>
                    <polygon id="Fill-289" fill="#F6F6F6" points="686.721324 362.030182 656.801771 379.29916 626.8831 362.030182 626.8831 327.492227 656.801771 310.223249 686.721324 327.492227"></polygon>
                    <polygon id="Fill-291" fill="#FAFAFA" points="626.882835 362.030182 596.963282 379.29916 567.044611 362.030182 567.044611 327.492227 596.963282 310.223249 626.882835 327.492227"></polygon>
                    <polygon id="Fill-293" fill="#F6F6F6" points="746.559901 362.030182 716.640348 379.29916 686.721677 362.030182 686.721677 327.492227 716.640348 310.223249 746.559901 327.492227"></polygon>
                    <polygon id="Fill-299" fill="#FAFAFA" points="567.044258 362.030182 537.124705 379.29916 507.206034 362.030182 507.206034 327.492227 537.124705 310.223249 567.044258 327.492227"></polygon>
                    <polygon id="Fill-301" fill="#F6F6F6" points="507.205769 362.030182 477.286216 379.29916 447.367545 362.030182 447.367545 327.492227 477.286216 310.223249 507.205769 327.492227"></polygon>
                    <polygon id="Fill-305" fill="#F6F6F6" points="447.380513 362.030182 417.46096 379.29916 387.542289 362.030182 387.542289 327.492227 417.46096 310.223249 447.380513 327.492227"></polygon>
                    <polygon id="Fill-307" fill="#F6F6F6" points="716.640612 413.847346 686.721059 431.116324 656.802388 413.847346 656.802388 379.309391 686.721059 362.040413 716.640612 379.309391"></polygon>
                    <polygon id="Fill-309" fill="#F6F6F6" points="775.479101 413.847346 745.559548 431.116324 715.640877 413.847346 715.640877 379.309391 745.559548 362.040413 775.479101 379.309391"></polygon>
                    <polygon id="Fill-315" fill="#F6F6F6" points="656.802035 413.847346 626.882482 431.116324 596.963811 413.847346 596.963811 379.309391 626.882482 362.040413 656.802035 379.309391"></polygon>
                    <polygon id="Fill-317" fill="#F6F6F6" points="596.963546 413.847346 567.043993 431.116324 537.125322 413.847346 537.125322 379.309391 567.043993 362.040413 596.963546 379.309391"></polygon>
                    <polygon id="Fill-319" fill="#F6F6F6" points="537.125058 413.847346 507.205504 431.116324 477.286833 413.847346 477.286833 379.309391 507.205504 362.040413 537.125058 379.309391"></polygon>
                    <polygon id="Fill-321" fill="#ECECEC" points="477.379731 413.847346 447.460178 431.116324 417.541507 413.847346 417.541507 379.309391 447.460178 362.040413 477.379731 379.309391"></polygon>
                    <g id="Group-481" transform="translate(0.000000, 413.255985)">
                        <polygon id="Fill-323" fill="#F6F6F6" points="686.721324 52.3760685 656.801771 69.6450462 626.8831 52.3760685 626.8831 17.8381131 656.801771 0.569135409 686.721324 17.8381131"></polygon>
                        <polygon id="Fill-325" fill="#F6F6F6" points="626.882835 52.3760685 596.963282 69.6450462 567.044611 52.3760685 567.044611 17.8381131 596.963282 0.569135409 626.882835 17.8381131"></polygon>
                        <polygon id="Fill-327" fill="#F0F0F0" points="746.559901 52.3760685 716.640348 69.6450462 686.721677 52.3760685 686.721677 17.8381131 716.640348 0.569135409 746.559901 17.8381131"></polygon>
                        <polygon id="Fill-329" fill="#ECECEC" points="806.398301 52.3760685 776.478748 69.6450462 746.560077 52.3760685 746.560077 17.8381131 776.478748 0.569135409 806.398301 17.8381131"></polygon>
                        <polygon id="Fill-333" fill="#FAFAFA" points="567.044258 52.3760685 537.124705 69.6450462 507.206034 52.3760685 507.206034 17.8381131 537.124705 0.569135409 567.044258 17.8381131"></polygon>
                        <polygon id="Fill-335" fill="#F6F6F6" points="507.205769 52.3760685 477.286216 69.6450462 447.367545 52.3760685 447.367545 17.8381131 477.286216 0.569135409 507.205769 17.8381131"></polygon>
                        <polygon id="Fill-339" fill="#F6F6F6" points="447.380513 52.3760685 417.46096 69.6450462 387.542289 52.3760685 387.542289 17.8381131 417.46096 0.569135409 447.380513 17.8381131"></polygon>
                        <polygon id="Fill-341" fill="#F6F6F6" points="716.640612 104.193232 686.721059 121.46221 656.802388 104.193232 656.802388 69.655277 686.721059 52.3862993 716.640612 69.655277"></polygon>
                        <polygon id="Fill-343" fill="#F6F6F6" points="746.838224 155.806933 716.918671 173.075911 687 155.806933 687 121.268978 716.918671 104 746.838224 121.268978"></polygon>
                        <polygon id="Fill-345" fill="#FAFAFA" points="775.838224 103.193232 746.918671 121.46221 717 104.193232 717 69.655277 746.918671 52.3862993 776.838224 69.655277"></polygon>
                        <polygon id="Fill-347" fill="#00B4CB" points="896.156079 104.193232 866.236526 121.46221 836.317855 104.193232 836.317855 69.655277 866.236526 52.3862993 896.156079 69.655277"></polygon>
                        <polygon id="Fill-349" fill="#F0F0F0" points="656.802035 104.193232 626.882482 121.46221 596.963811 104.193232 596.963811 69.655277 626.882482 52.3862993 656.802035 69.655277"></polygon>
                        <polygon id="Fill-351" fill="#F6F6F6" points="596.963546 104.193232 567.043993 121.46221 537.125322 104.193232 537.125322 69.655277 567.043993 52.3862993 596.963546 69.655277"></polygon>
                        <polygon id="Fill-353" fill="#ECECEC" points="537.125058 104.193232 507.205504 121.46221 477.286833 104.193232 477.286833 69.655277 507.205504 52.3862993 537.125058 69.655277"></polygon>
                        <polygon id="Fill-355" fill="#F0F0F0" points="477.379731 104.193232 447.460178 121.46221 417.541507 104.193232 417.541507 69.655277 447.460178 52.3862993 477.379731 69.655277"></polygon>
                        <polygon id="Fill-359" fill="#F6F6F6" points="238.153962 207.512521 208.234409 224.781498 178.315738 207.512521 178.315738 172.974565 208.234409 155.705587 238.153962 172.974565"></polygon>
                        <polygon id="Fill-361" fill="#F0F0F0" points="297.992451 207.512521 268.072898 224.781498 238.154227 207.512521 238.154227 172.974565 268.072898 155.705587 297.992451 172.974565"></polygon>
                        <polygon id="Fill-363" fill="#FAFAFA" points="357.83094 207.512521 327.911386 224.781498 297.992715 207.512521 297.992715 172.974565 327.911386 155.705587 357.83094 172.974565"></polygon>
                        <polygon id="Fill-368" fill="#F0F0F0" points="417.66934 207.512521 387.749787 224.781498 357.831116 207.512521 357.831116 172.974565 387.749787 155.705587 417.66934 172.974565"></polygon>
                        <polygon id="Fill-370" fill="#F6F6F6" points="268.073162 259.329684 238.153609 276.598662 208.234938 259.329684 208.234938 224.791729 238.153609 207.522751 268.073162 224.791729"></polygon>
                        <polygon id="Fill-372" fill="#FAFAFA" points="387.75014 259.329684 357.830587 276.598662 327.911916 259.329684 327.911916 224.791729 357.830587 207.522751 387.75014 224.791729"></polygon>
                        <polygon id="Fill-379" fill="#F6F6F6" points="238.153962 311.146848 208.234409 328.415826 178.315738 311.146848 178.315738 276.608893 208.234409 259.339915 238.153962 276.608893"></polygon>
                        <polygon id="Fill-384" fill="#F0F0F0" points="417.66934 311.146848 387.749787 328.415826 357.831116 311.146848 357.831116 276.608893 387.749787 259.339915 417.66934 276.608893"></polygon>
                        <polygon id="Fill-386" fill="#F6F6F6" points="327.858983 466.230823 297.939429 483.499801 268.020759 466.230823 268.020759 431.692868 297.939429 414.42389 327.858983 431.692868"></polygon>
                        <polygon id="Fill-388" fill="#FAFAFA" points="387.75014 362.964012 357.830587 380.23299 327.911916 362.964012 327.911916 328.426057 357.830587 311.157079 387.75014 328.426057"></polygon>
                        <polygon id="Fill-397" fill="#F6F6F6" points="687.662827 154.803773 657.743274 172.072751 627.824603 154.803773 627.824603 120.265817 657.743274 102.99684 687.662827 120.265817"></polygon>
                        <polygon id="Fill-399" fill="#F6F6F6" points="627.824338 154.803773 597.904785 172.072751 567.986114 154.803773 567.986114 120.265817 597.904785 102.99684 627.824338 120.265817"></polygon>
                        <polygon id="Fill-401" fill="#F6F6F6" points="717.58238 206.806933 687.662827 224.075911 657.744156 206.806933 657.744156 172.268978 687.662827 155 717.58238 172.268978"></polygon>
                        <polygon id="Fill-403" fill="#F0F0F0" points="806.339893 154.803773 776.42034 172.072751 746.501669 154.803773 746.501669 120.265817 776.42034 102.99684 806.339893 120.265817"></polygon>
                        <polygon id="Fill-407" fill="#F6F6F6" points="567.985761 154.803773 538.066208 172.072751 508.147537 154.803773 508.147537 120.265817 538.066208 102.99684 567.985761 120.265817"></polygon>
                        <polygon id="Fill-409" fill="#F48465" points="508.147272 154.803773 478.227719 172.072751 448.309048 154.803773 448.309048 120.265817 478.227719 102.99684 508.147272 120.265817"></polygon>
                        <polygon id="Fill-413" fill="#F6F6F6" points="448.322017 154.803773 418.402464 172.072751 388.483793 154.803773 388.483793 120.265817 418.402464 102.99684 448.322017 120.265817"></polygon>
                        <polygon id="Fill-415" fill="#F6F6F6" points="776.420605 206.620937 746.501051 223.889914 716.58238 206.620937 716.58238 172.082981 746.501051 154.814004 776.420605 172.082981"></polygon>
                        <polygon id="Fill-417" fill="#F6F6F6" points="836.259005 206.620937 806.339452 223.889914 776.420781 206.620937 776.420781 172.082981 806.339452 154.814004 836.259005 172.082981"></polygon>
                        <polygon id="Fill-421" fill="#F6F6F6" points="657.743539 206.620937 627.823985 223.889914 597.905315 206.620937 597.905315 172.082981 627.823985 154.814004 657.743539 172.082981"></polygon>
                        <polygon id="Fill-423" fill="#F0F0F0" points="597.90505 206.620937 567.985497 223.889914 538.066826 206.620937 538.066826 172.082981 567.985497 154.814004 597.90505 172.082981"></polygon>
                        <polygon id="Fill-425" fill="#F6F6F6" points="538.066561 206.620937 508.147008 223.889914 478.228337 206.620937 478.228337 172.082981 508.147008 154.814004 538.066561 172.082981"></polygon>
                        <polygon id="Fill-427" fill="#F6F6F6" points="687.662827 258.438101 657.743274 275.707078 627.824603 258.438101 627.824603 223.900145 657.743274 206.631168 687.662827 223.900145"></polygon>
                        <polygon id="Fill-427" fill="#F6F6F6" points="657.662827 309.438101 627.743274 326.707078 597.824603 309.438101 597.824603 274.900145 627.743274 257.631168 657.662827 274.900145"></polygon>
                        <polygon id="Fill-429" fill="#F6F6F6" points="865.178294 258.438101 835.258741 275.707078 805.34007 258.438101 805.34007 223.900145 835.258741 206.631168 865.178294 223.900145"></polygon>
                        <polygon id="Fill-427" fill="#F6F6F6" points="717.662827 309.438101 687.743274 326.707078 657.824603 309.438101 657.824603 274.900145 687.743274 257.631168 717.662827 274.900145"></polygon>
                        <polygon id="Fill-431" fill="#FAFAFA" points="567.838224 258.806933 537.918671 276.075911 508 258.806933 508 224.268978 537.918671 207 567.838224 224.268978"></polygon>
                        <polygon id="Fill-431-Copy" fill="#FAFAFA" points="508.160241 257.806933 478.240688 275.075911 448.322017 257.806933 448.322017 223.268978 478.240688 206 508.160241 223.268978"></polygon>
                        <polygon id="Fill-427" fill="#F6F6F6" points="805.662827 258.438101 775.743274 275.707078 745.824603 258.438101 745.824603 223.900145 775.743274 206.631168 805.662827 223.900145"></polygon>
                        <polygon id="Fill-433" fill="#F6F6F6" points="448.322017 258.438101 418.402464 275.707078 388.483793 258.438101 388.483793 223.900145 418.402464 206.631168 448.322017 223.900145"></polygon>
                        <polygon id="Fill-435" fill="#F6F6F6" points="837.259005 308.255265 807.339452 325.524242 777.420781 308.255265 777.420781 273.717309 807.339452 256.448332 837.259005 273.717309"></polygon>
                        <polygon id="Fill-437" fill="#FAFAFA" points="895.838224 308.806933 865.918671 326.075911 836 308.806933 836 274.268978 865.918671 257 895.838224 274.268978"></polygon>
                        <polygon id="Fill-437-Copy-2" fill="#FAFAFA" points="925.838224 362.806933 895.918671 380.075911 866 362.806933 866 328.268978 895.918671 311 925.838224 328.268978"></polygon>
                        <polygon id="Fill-437-Copy" fill="#FAFAFA" points="1195.12709 309.806933 1165.20753 327.075911 1135.28886 309.806933 1135.28886 275.268978 1165.20753 258 1195.12709 275.268978"></polygon>
                        <polygon id="Fill-439" fill="#F6F6F6" points="597.90505 310.255265 567.985497 327.524242 538.066826 310.255265 538.066826 275.717309 567.985497 258.448332 597.90505 275.717309"></polygon>
                        <polygon id="Fill-437" fill="#FAFAFA" points="923.838224 257.806933 893.918671 275.075911 864 257.806933 864 223.268978 893.918671 206 923.838224 223.268978"></polygon>
                        <polygon id="Fill-437-Copy-3" fill="#FAFAFA" points="1194.83822 206.806933 1164.91867 224.075911 1135 206.806933 1135 172.268978 1164.91867 155 1194.83822 172.268978"></polygon>
                        <polygon id="Fill-441" fill="#F6F6F6" points="538.066561 310.255265 508.147008 327.524242 478.228337 310.255265 478.228337 275.717309 508.147008 258.448332 538.066561 275.717309"></polygon>
                        <polygon id="Fill-443" fill="#F6F6F6" points="747.501316 362.039972 717.581763 379.30895 687.663092 362.039972 687.663092 327.502017 717.581763 310.233039 747.501316 327.502017"></polygon>
                        <polygon id="Fill-445" fill="#ECECEC" points="807.339893 362.039972 777.42034 379.30895 747.501669 362.039972 747.501669 327.502017 777.42034 310.233039 807.339893 327.502017"></polygon>
                        <polygon id="Fill-447" fill="#FAFAFA" points="837.259005 413.857136 807.339452 431.126114 777.420781 413.857136 777.420781 379.319181 807.339452 362.050203 837.259005 379.319181"></polygon>
                        <g id="Group-453" transform="translate(1194.523649, 154.344796)">
                            <mask id="mask-3" fill="white">
                                <use xlink:href="#path-2"></use>
                            </mask>
                            <g id="Clip-452"></g>
                            <polygon id="Fill-451" fill="#F6F6F6" mask="url(#mask-3)" points="60.4421026 52.2264863 30.5225494 69.495464 0.603878462 52.2264863 0.603878462 17.6885309 30.5225494 0.419553253 60.4421026 17.6885309"></polygon>
                        </g>
                        <polygon id="Fill-456" fill="#F6F6F6" points="954.786452 207.571282 924.866899 224.84026 894.948228 207.571282 894.948228 173.033326 924.866899 155.764349 954.786452 173.033326"></polygon>
                        <g id="Group-460" transform="translate(1164.528225, 206.381041)">
                            <mask id="mask-5" fill="white">
                                <use xlink:href="#path-4"></use>
                            </mask>
                            <g id="Clip-459"></g>
                            <polygon id="Fill-458" fill="#E6BA83" mask="url(#mask-5)" points="60.5182381 52.0074049 30.5986849 69.2763826 0.680013906 52.0074049 0.680013906 17.4694495 30.5986849 0.20047184 60.5182381 17.4694495"></polygon>
                        </g>
                        <polygon id="Fill-463" fill="#F6F6F6" points="1045.53091 258.388446 1015.61136 275.657424 985.692684 258.388446 985.692684 223.85049 1015.61136 206.581513 1045.53091 223.85049"></polygon>
                        <polygon id="Fill-468" fill="#FAFAFA" points="1075.4502 310.20561 1045.53064 327.474587 1015.61197 310.20561 1015.61197 275.667654 1045.53064 258.398677 1075.4502 275.667654"></polygon>
                        <polygon id="Fill-470" fill="#F6F6F6" points="955.786452 310.20561 925.866899 327.474587 895.948228 310.20561 895.948228 275.667654 925.866899 258.398677 955.786452 275.667654"></polygon>
                        <polygon id="Fill-472" fill="#F6F6F6" points="1165.20797 362.022862 1135.28842 379.29184 1105.36975 362.022862 1105.36975 327.484907 1135.28842 310.215929 1165.20797 327.484907"></polygon>
                        <polygon id="Fill-474" fill="#F6F6F6" points="1045.5235 362.022862 1015.60394 379.29184 985.685273 362.022862 985.685273 327.484907 1015.60394 310.215929 1045.5235 327.484907"></polygon>
                        <g id="Group-478" transform="translate(1194.523649, 361.607807)">
                            <mask id="mask-7" fill="white">
                                <use xlink:href="#path-6"></use>
                            </mask>
                            <g id="Clip-477"></g>
                            <polygon id="Fill-476" fill="#F0F0F0" mask="url(#mask-7)" points="60.4421026 52.1996744 30.5225494 69.4686521 0.603878462 52.1996744 0.603878462 17.6617191 30.5225494 0.392741357 60.4421026 17.6617191"></polygon>
                        </g>
                        <polygon id="Fill-479" fill="#F6F6F6" points="955.786452 413.807481 925.866899 431.076459 895.948228 413.807481 895.948228 379.269526 925.866899 362.000548 955.786452 379.269526"></polygon>
                    </g>
                    <polygon id="Fill-482" fill="#F6F6F6" points="1137.69802 0.00767314126 1165.20824 15.8866657 1192.71757 0.00767314126"></polygon>
                    <polygon id="Fill-484" fill="#F6F6F6" points="1077.85918 0.00767314126 1105.3694 15.8866657 1132.87873 0.00767314126"></polygon>
                    <polygon id="Fill-488" fill="#F6F6F6" points="1018.02131 0.00767314126 1045.53153 15.8866657 1073.04086 0.00767314126"></polygon>
                    <polygon id="Fill-490" fill="#ECECEC" points="958.182469 0.00767314126 985.692684 15.8866657 1013.20202 0.00767314126"></polygon>
                    <polygon id="Fill-492" fill="#F6F6F6" points="898.357302 0.00767314126 925.867517 15.8866657 953.376849 0.00767314126"></polygon>
                    <polygon id="Fill-494" fill="#F0F0F0" points="1192.73575 0.00767314126 1165.20789 15.8954854 1165.20789 50.4343228 1195.12744 67.7033005 1205.69818 61.6018302 1205.69818 4.72885994 1197.51913 0.00767314126"></polygon>
                    <polygon id="Fill-496" fill="#F6F6F6" points="1132.89699 0.00767314126 1105.36913 15.8954854 1105.36913 50.4343228 1135.28869 67.7033005 1165.20824 50.4343228 1165.20824 15.8954854 1137.68038 0.00767314126"></polygon>
                    <polygon id="Fill-498" fill="#F0F0F0" points="1073.05824 0.00767314126 1045.53126 15.8954854 1045.53126 50.4343228 1075.44993 67.7033005 1105.36949 50.4343228 1105.36949 15.8954854 1077.84163 0.00767314126"></polygon>
                    <polygon id="Fill-500" fill="#F6F6F6" points="1013.22028 0.00767314126 985.692419 15.8954854 985.692419 50.4343228 1015.61197 67.7033005 1045.53153 50.4343228 1045.53153 15.8954854 1018.00367 0.00767314126"></polygon>
                    <polygon id="Fill-502" fill="#FAFAFA" points="953.474423 0.00767314126 925.946564 15.8954854 925.946564 50.4343228 955.866117 67.7033005 985.78567 50.4343228 985.78567 15.8954854 958.257811 0.00767314126"></polygon>
                    <polygon id="Fill-504" fill="#F6F6F6" points="1195.12726 102.25131 1165.20771 119.520288 1135.28904 102.25131 1135.28904 67.7133549 1165.20771 50.4443772 1195.12726 67.7133549"></polygon>
                    <polygon id="Fill-506" fill="#FAFAFA" points="1135.28869 102.25131 1105.36913 119.520288 1075.45046 102.25131 1075.45046 67.7133549 1105.36913 50.4443772 1135.28869 67.7133549"></polygon>
                    <polygon id="Fill-508" fill="#F6F6F6" points="1195.12735 67.7133549 1195.12735 102.25131 1205.69897 108.352781 1205.69897 61.6118847"></polygon>
                    <polygon id="Fill-510" fill="#FAFAFA" points="1075.4502 102.25131 1045.53064 119.520288 1015.61197 102.25131 1015.61197 67.7133549 1045.53064 50.4443772 1075.4502 67.7133549"></polygon>
                    <polygon id="Fill-512" fill="#F6F6F6" points="1015.61162 102.25131 985.692067 119.520288 955.773396 102.25131 955.773396 67.7133549 985.692067 50.4443772 1015.61162 67.7133549"></polygon>
                    <polygon id="Fill-514" fill="#F6F6F6" points="955.786452 102.25131 925.866899 119.520288 895.948228 102.25131 895.948228 67.7133549 925.866899 50.4443772 955.786452 67.7133549"></polygon>
                    <polygon id="Fill-522" fill="#F6F6F6" points="1045.53091 154.068562 1015.61136 171.33754 985.692684 154.068562 985.692684 119.530607 1015.61136 102.261629 1045.53091 119.530607"></polygon>
                    <polygon id="Fill-524" fill="#ECECEC" points="985.78567 154.068562 955.866117 171.33754 925.947446 154.068562 925.947446 119.530607 955.866117 102.261629 985.78567 119.530607"></polygon>
                    <polygon id="Fill-534" fill="#F6F6F6" points="1015.61162 205.85327 985.692067 223.122248 955.773396 205.85327 955.773396 171.315314 985.692067 154.046337 1015.61162 171.315314"></polygon>
                    <polygon id="Fill-544" fill="#ECECEC" points="1045.53091 257.670434 1015.61136 274.939412 985.692684 257.670434 985.692684 223.132478 1015.61136 205.863501 1045.53091 223.132478"></polygon>
                    <polygon id="Fill-566" fill="#F6F6F6" points="1045.53091 360.098138 1015.61136 377.367116 985.692684 360.098138 985.692684 325.560183 1015.61136 308.291205 1045.53091 325.560183"></polygon>
                </g>
            </g>
        </g>
    </g>
</svg>
