<?xml version="1.0" encoding="UTF-8"?>
<svg width="1024px" height="533px" viewBox="0 0 1024 533" version="1.1" xmlns="http://www.w3.org/2000/svg" xmlns:xlink="http://www.w3.org/1999/xlink">
    <!-- Generator: Sketch 42 (36781) - http://www.bohemiancoding.com/sketch -->
    <title>FONDO_BOTTOM</title>
    <desc>Created with Sketch.</desc>
    <defs></defs>
    <g id="Page-1" stroke="none" stroke-width="1" fill="none" fill-rule="evenodd" opacity="0.7">
        <g id="LANDING-W/MENU" transform="translate(0.000000, -2189.000000)">
            <g id="FONDO_BOTTOM" transform="translate(-217.000000, 2175.000000)">
                <g id="Page-1-Copy" transform="translate(987.000000, 0.000000)">
                    <polygon id="Fill-1" fill="#F6F6F6" points="278.92288 9.14364641e-05 247.931174 17.9024367 247.931174 53.7089561 278.92288 71.6131301 309.913671 53.7089561 309.913671 17.9024367"></polygon>
                    <polygon id="Fill-3" fill="#F0F0F0" points="278.922605 107.429982 247.9309 125.333241 216.940109 107.429982 216.940109 71.6234624 247.9309 53.7202028 278.922605 71.6234624"></polygon>
                    <polygon id="Fill-5" fill="#F6F6F6" points="247.931174 161.150367 216.939469 179.053627 185.948678 161.150367 185.948678 125.343848 216.939469 107.440588 247.931174 125.343848"></polygon>
                    <polygon id="Fill-6" fill="#FAFAFA" points="185.948404 161.150367 154.956698 179.053627 123.965907 161.150367 123.965907 125.343848 154.956698 107.440588 185.948404 125.343848"></polygon>
                    <polygon id="Fill-7" fill="#F6F6F6" points="309.914037 161.150367 278.922331 179.053627 247.93154 161.150367 247.93154 125.343848 278.922331 107.440588 309.914037 125.343848"></polygon>
                    <polygon id="Fill-9" fill="#F6F6F6" points="0 125.343574 0 161.150093 30.9917052 179.053353 61.9834104 161.150093 61.9834104 125.343574 30.9917052 107.441228"></polygon>
                    <polygon id="Fill-10" fill="#F6F6F6" points="278.922605 214.870753 247.9309 232.774013 216.940109 214.870753 216.940109 179.064234 247.9309 161.160974 278.922605 179.064234"></polygon>
                    <polygon id="Fill-13" fill="#F6F6F6" points="185.948404 268.55749 154.956698 286.46075 123.965907 268.55749 123.965907 232.750971 154.956698 214.847711 185.948404 232.750971"></polygon>
                    <polygon id="Fill-14" fill="#F0F0F0" points="309.914037 268.55749 278.922331 286.46075 247.93154 268.55749 247.93154 232.750971 278.922331 214.847711 309.914037 232.750971"></polygon>
                    <polygon id="Fill-16" fill="#FAFAFA" points="123.965633 268.55749 92.9739277 286.46075 61.9831363 268.55749 61.9831363 232.750971 92.9739277 214.847711 123.965633 232.750971"></polygon>
                    <polygon id="Fill-17" fill="#F6F6F6" points="0 232.750514 0 268.557947 30.9917052 286.460293 61.9834104 268.557947 61.9834104 232.750514 30.9917052 214.848168"></polygon>
                    <polygon id="Fill-18" fill="#F6F6F6" points="278.922605 322.277876 247.9309 340.181135 216.940109 322.277876 216.940109 286.471356 247.9309 268.568097 278.922605 286.471356"></polygon>
                    <polygon id="Fill-21" fill="#F6F6F6" points="185.948404 375.532758 154.956698 393.436018 123.965907 375.532758 123.965907 339.726239 154.956698 321.822979 185.948404 339.726239"></polygon>
                    <polygon id="Fill-22" fill="#F0F0F0" points="309.914037 375.532758 278.922331 393.436018 247.93154 375.532758 247.93154 339.726239 278.922331 321.822979 309.914037 339.726239"></polygon>
                    <polygon id="Fill-39" fill="#ECECEC" points="92.9742018 536.238104 61.9824966 554.141364 30.9917052 536.238104 30.9917052 500.431585 61.9824966 482.528325 92.9742018 500.431585"></polygon>
                    <polygon id="Fill-41" fill="#F48465" points="216.939743 214.870753 185.948038 232.774013 154.957247 214.870753 154.957247 179.064234 185.948038 161.160974 216.939743 179.064234"></polygon>
                    <polygon id="Fill-43" fill="#00A9CD" points="92.9742018 322.277876 61.9824966 340.181135 30.9917052 322.277876 30.9917052 286.471356 61.9824966 268.568097 92.9742018 286.471356"></polygon>
                </g>
                <g id="Page-1-Copy-2" transform="translate(0.000000, 49.000000)">
                    <polygon id="Fill-1" fill="#F6F6F6" points="278.92288 9.14364641e-05 247.931174 17.9024367 247.931174 53.7089561 278.92288 71.6131301 309.913671 53.7089561 309.913671 17.9024367"></polygon>
                    <polygon id="Fill-2" fill="#F0F0F0" points="340.905102 9.14364641e-05 309.913397 17.9024367 309.913397 53.7089561 340.905102 71.6131301 371.896807 53.7089561 371.896807 17.9024367"></polygon>
                    <polygon id="Fill-3" fill="#F0F0F0" points="278.922605 107.429982 247.9309 125.333241 216.940109 107.429982 216.940109 71.6234624 247.9309 53.7202028 278.922605 71.6234624"></polygon>
                    <polygon id="Fill-4" fill="#F6F6F6" points="340.905102 71.6236453 340.905102 107.430165 371.896807 125.333424 402.888512 107.430165 402.888512 71.6236453 371.896807 53.7203856"></polygon>
                    <polygon id="Fill-5" fill="#F6F6F6" points="247.931174 161.150367 216.939469 179.053627 185.948678 161.150367 185.948678 125.343848 216.939469 107.440588 247.931174 125.343848"></polygon>
                    <polygon id="Fill-7" fill="#F6F6F6" points="309.914037 161.150367 278.922331 179.053627 247.93154 161.150367 247.93154 125.343848 278.922331 107.440588 309.914037 125.343848"></polygon>
                    <polygon id="Fill-8" fill="#FAFAFA" points="371.896807 161.150367 340.905102 179.053627 309.914311 161.150367 309.914311 125.343848 340.905102 107.440588 371.896807 125.343848"></polygon>
                    <polygon id="Fill-10" fill="#F6F6F6" points="278.922605 214.870753 247.9309 232.774013 216.940109 214.870753 216.940109 179.064234 247.9309 161.160974 278.922605 179.064234"></polygon>
                    <polygon id="Fill-11" fill="#F6F6F6" points="340.905376 214.870753 309.913671 232.774013 278.92288 214.870753 278.92288 179.064234 309.913671 161.160974 340.905376 179.064234"></polygon>
                    <polygon id="Fill-12" fill="#F6F6F6" points="340.905102 179.064325 340.905102 214.870844 371.896807 232.774104 402.888512 214.870844 402.888512 179.064325 371.896807 161.161065"></polygon>
                    <polygon id="Fill-14" fill="#F0F0F0" points="309.914037 268.55749 278.922331 286.46075 247.93154 268.55749 247.93154 232.750971 278.922331 214.847711 309.914037 232.750971"></polygon>
                    <polygon id="Fill-15" fill="#ECECEC" points="371.896807 268.55749 340.905102 286.46075 309.914311 268.55749 309.914311 232.750971 340.905102 214.847711 371.896807 232.750971"></polygon>
                    <polygon id="Fill-18" fill="#F6F6F6" points="278.922605 322.277876 247.9309 340.181135 216.940109 322.277876 216.940109 286.471356 247.9309 268.568097 278.922605 286.471356"></polygon>
                    <polygon id="Fill-19" fill="#F6F6F6" points="340.905376 322.277876 309.913671 340.181135 278.92288 322.277876 278.92288 286.471356 309.913671 268.568097 340.905376 286.471356"></polygon>
                    <polygon id="Fill-20" fill="#FAFAFA" points="340.905102 286.471265 340.905102 322.277784 371.896807 340.181044 402.888512 322.277784 402.888512 286.471265 371.896807 268.568005"></polygon>
                    <polygon id="Fill-22" fill="#F0F0F0" points="309.914037 375.532758 278.922331 393.436018 247.93154 375.532758 247.93154 339.726239 278.922331 321.822979 309.914037 339.726239"></polygon>
                    <polygon id="Fill-23" fill="#ECECEC" points="371.896807 375.532758 340.905102 393.436018 309.914311 375.532758 309.914311 339.726239 340.905102 321.822979 371.896807 339.726239"></polygon>
                    <polygon id="Fill-25" fill="#FAFAFA" points="340.905102 393.446167 340.905102 429.253601 371.896807 447.155946 402.888512 429.253601 402.888512 393.446167 371.896807 375.543822"></polygon>
                    <polygon id="Fill-29" fill="#ECECEC" points="371.896807 482.517719 340.905102 500.420978 309.914311 482.517719 309.914311 446.711199 340.905102 428.80794 371.896807 446.711199"></polygon>
                    <polygon id="Fill-33" fill="#FAFAFA" points="340.905102 500.431768 340.905102 536.238287 371.896807 554.141547 402.888512 536.238287 402.888512 500.431768 371.896807 482.528508"></polygon>
                    <polygon id="Fill-40" fill="#66C7C6" points="340.905376 107.429982 309.913671 125.333241 278.92288 107.429982 278.92288 71.6234624 309.913671 53.7202028 340.905376 71.6234624"></polygon>
                    <polygon id="Fill-42" fill="#E6BA83" points="340.982497 322.709779 309.990791 340.613039 279 322.709779 279 286.90326 309.990791 269 340.982497 286.90326"></polygon>
                </g>
            </g>
        </g>
    </g>
</svg>