<svg width="1024" height="533" viewBox="0 0 1024 533" xmlns="http://www.w3.org/2000/svg"><title>FONDO_BOTTOM</title><g fill="none" fill-rule="evenodd" opacity=".7"><path fill="#F6F6F6" d="M1048.923-14L1017.93 3.902V39.71l30.992 17.904 30.99-17.904V3.902z"/><path fill="#F0F0F0" d="M1048.923 93.43l-30.992 17.903-30.99-17.903V57.623l30.99-17.903 30.992 17.903z"/><path fill="#F6F6F6" d="M1017.931 147.15l-30.992 17.904-30.99-17.904v-35.806l30.99-17.903 30.992 17.903z"/><path fill="#FAFAFA" d="M955.948 147.15l-30.991 17.904-30.991-17.904v-35.806l30.99-17.903 30.992 17.903z"/><path fill="#F6F6F6" d="M1079.914 147.15l-30.992 17.904-30.99-17.904v-35.806l30.99-17.903 30.992 17.903zM770 111.344v35.806l30.992 17.903 30.991-17.903v-35.806L800.992 93.44zM1048.923 200.87l-30.992 17.904-30.99-17.903v-35.807l30.99-17.903 30.992 17.903zM955.948 254.557l-30.991 17.904-30.991-17.904v-35.806l30.99-17.903 30.992 17.903z"/><path fill="#F0F0F0" d="M1079.914 254.557l-30.992 17.904-30.99-17.904v-35.806l30.99-17.903 30.992 17.903z"/><path fill="#FAFAFA" d="M893.966 254.557l-30.992 17.904-30.99-17.904v-35.806l30.99-17.903 30.992 17.903z"/><path fill="#F6F6F6" d="M770 218.75v35.808l30.992 17.902 30.991-17.902V218.75l-30.991-17.903zM1048.923 308.278l-30.992 17.903-30.99-17.903V272.47l30.99-17.903 30.992 17.903zM955.948 361.533l-30.991 17.903-30.991-17.903v-35.807l30.99-17.903 30.992 17.903z"/><path fill="#F0F0F0" d="M1079.914 361.533l-30.992 17.903-30.99-17.903v-35.807l30.99-17.903 30.992 17.903z"/><path fill="#ECECEC" d="M862.974 522.238l-30.992 17.903-30.99-17.903v-35.806l30.99-17.904 30.992 17.904z"/><path fill="#F48465" d="M986.94 200.87l-30.992 17.904-30.99-17.903v-35.807l30.99-17.903 30.992 17.903z"/><path fill="#00A9CD" d="M862.974 308.278l-30.992 17.903-30.99-17.903V272.47l30.99-17.903 30.992 17.903z"/><g><path fill="#F6F6F6" d="M61.923 35L30.93 52.902V88.71l30.992 17.904 30.99-17.904V52.902z"/><path fill="#F0F0F0" d="M123.905 35L92.913 52.902V88.71l30.992 17.904 30.992-17.904V52.902zM61.923 142.43L30.93 160.333-.06 142.43v-35.807L30.93 88.72l30.992 17.903z"/><path fill="#F6F6F6" d="M123.905 106.624v35.806l30.992 17.903 30.992-17.903v-35.806L154.897 88.72zM30.931 196.15L-.06 214.054l-30.99-17.904v-35.806l30.99-17.903 30.992 17.903z"/><path fill="#F6F6F6" d="M92.914 196.15l-30.992 17.904-30.99-17.904v-35.806l30.99-17.903 30.992 17.903z"/><path fill="#FAFAFA" d="M154.897 196.15l-30.992 17.904-30.99-17.904v-35.806l30.99-17.903 30.992 17.903z"/><path fill="#F6F6F6" d="M61.923 249.87L30.93 267.775-.06 249.871v-35.807l30.99-17.903 30.992 17.903zM123.905 249.87l-30.991 17.904-30.991-17.903v-35.807l30.99-17.903 30.992 17.903zM123.905 214.064v35.807l30.992 17.903 30.992-17.903v-35.807l-30.992-17.903z"/><path fill="#F0F0F0" d="M92.914 303.557l-30.992 17.904-30.99-17.904v-35.806l30.99-17.903 30.992 17.903z"/><path fill="#ECECEC" d="M154.897 303.557l-30.992 17.904-30.99-17.904v-35.806l30.99-17.903 30.992 17.903z"/><path fill="#F6F6F6" d="M61.923 357.278L30.93 375.18-.06 357.278V321.47l30.99-17.903 30.992 17.903zM123.905 357.278L92.914 375.18l-30.991-17.903V321.47l30.99-17.903 30.992 17.903z"/><path fill="#FAFAFA" d="M123.905 321.471v35.807l30.992 17.903 30.992-17.903V321.47l-30.992-17.903z"/><path fill="#F0F0F0" d="M92.914 410.533l-30.992 17.903-30.99-17.903v-35.807l30.99-17.903 30.992 17.903z"/><path fill="#ECECEC" d="M154.897 410.533l-30.992 17.903-30.99-17.903v-35.807l30.99-17.903 30.992 17.903z"/><path fill="#FAFAFA" d="M123.905 428.446v35.808l30.992 17.902 30.992-17.902v-35.808l-30.992-17.902z"/><path fill="#ECECEC" d="M154.897 517.518l-30.992 17.903-30.99-17.903V481.71l30.99-17.903 30.992 17.903z"/><path fill="#FAFAFA" d="M123.905 535.432v35.806l30.992 17.904 30.992-17.904v-35.806l-30.992-17.903z"/><path fill="#66C7C6" d="M123.905 142.43l-30.991 17.903-30.991-17.903v-35.807l30.99-17.903 30.992 17.903z"/><path fill="#E6BA83" d="M123.982 357.71l-30.991 17.903L62 357.71v-35.807L92.99 304l30.992 17.903z"/></g></g></svg>