<svg id="Capa_1" data-name="Capa 1" xmlns="http://www.w3.org/2000/svg" viewBox="0 0 27.49 31.6"><defs><style>.cls-1{fill:#00a9cd;}.cls-2{fill:#fff;}</style></defs><title>create</title><path class="cls-1" d="M1.38,8.9V22.7a.41.41,0,0,0,.21.36L13.54,30A.41.41,0,0,0,14,30l11.95-6.9a.41.41,0,0,0,.21-.36V8.9a.41.41,0,0,0-.21-.36L14,1.65a.41.41,0,0,0-.41,0L1.59,8.54A.41.41,0,0,0,1.38,8.9Z"/><g id="_Grupo_" data-name="&lt;Grupo&gt;"><path id="_Trazado_compuesto_" data-name="&lt;Trazado compuesto&gt;" class="cls-2" d="M13.74,21.09a8.29,8.29,0,0,1-3-.6,2.85,2.85,0,0,0,0,.57,3,3,0,0,0,6.05-.5v-.07A8.35,8.35,0,0,1,13.74,21.09Zm3.8-10.37A5.34,5.34,0,1,0,9.94,18.2a2.88,2.88,0,0,1,.69,1.28,7.17,7.17,0,0,0,6.28,0A3.39,3.39,0,0,1,17.7,18,5.33,5.33,0,0,0,17.55,10.72Z"/></g></svg>