<svg id="Capa_1" data-name="Capa 1" xmlns="http://www.w3.org/2000/svg" viewBox="0 0 25.33 28.61"><defs><style>.cls-1{fill:#00b4cb;}.cls-2{fill:#fff;}</style></defs><title>Create Idea_added</title><path class="cls-1" d="M0,8.19V20.42a2.08,2.08,0,0,0,1,1.8l10.59,6.11a2.08,2.08,0,0,0,2.08,0l10.59-6.11a2.08,2.08,0,0,0,1-1.8V8.19a2.08,2.08,0,0,0-1-1.8L13.71.28a2.08,2.08,0,0,0-2.08,0L1,6.39A2.08,2.08,0,0,0,0,8.19Z"/><polygon class="cls-2" points="17.61 11.6 11.97 17.25 11.2 18.02 10.43 17.25 7.73 14.55 8.5 13.78 11.2 16.48 16.84 10.83 17.61 11.6"/></svg>