<?xml version="1.0" encoding="UTF-8"?>
<svg width="160px" height="184px" viewBox="0 0 160 184" version="1.1" xmlns="http://www.w3.org/2000/svg" xmlns:xlink="http://www.w3.org/1999/xlink">
    <!-- Generator: Sketch 42 (36781) - http://www.bohemiancoding.com/sketch -->
    <title>Profile_IMG</title>
    <desc>Created with Sketch.</desc>
    <defs>
        <polygon id="path-1" points="0 91.5960846 0 0.0769615385 160 0.0769615385 160 91.5960846 160 183.115208 0 183.115208"></polygon>
    </defs>
    <g id="Page-1" stroke="none" stroke-width="1" fill="none" fill-rule="evenodd">
        <g id="MyProfile" transform="translate(-42.000000, -151.000000)">
            <g id="Profile_IMG" transform="translate(42.000000, 151.000000)">
                <g id="Group-3" transform="translate(0.000000, 0.807654)">
                    <mask id="mask-2" fill="white">
                        <use xlink:href="#path-1"></use>
                    </mask>
                    <g id="Clip-2"></g>
                    <path d="M0,47.1697269 L0,136.022265 C0,136.974996 0.511111111,137.855188 1.33955556,138.331996 L78.6604444,182.758265 C79.4888889,183.234188 80.5111111,183.234188 81.3395556,182.758265 L158.660444,138.331996 C159.488889,137.855188 160,136.974996 160,136.022265 L160,47.1697269 C160,46.2169962 159.488889,45.3368038 158.660444,44.8599962 L81.3395556,0.433726923 C80.5111111,-0.0421961538 79.4888889,-0.0421961538 78.6604444,0.433726923 L1.33955556,44.8599962 C0.511111111,45.3368038 0,46.2169962 0,47.1697269" id="Fill-1" fill="#03A9CC" mask="url(#mask-2)"></path>
                </g>
                <path d="M111.181422,121.455835 C109.441867,123.957527 106.638311,125.352565 103.690756,125.352565 L56.3245333,125.352565 C53.3272,125.352565 50.5245333,123.861104 48.7840889,121.455835 C47.0934222,119.003681 46.6578667,115.828796 47.6240889,113.038719 L49.6543111,107.507219 L49.7023111,107.21795 L49.9929778,106.881796 C52.6996444,101.831527 57.2907556,97.98345 62.8969778,96.3477962 L67.5849778,94.9527577 L64.2018667,89.5663346 C61.7858667,85.8137962 60.8676444,81.3411808 61.5929778,76.91545 L62.0276444,74.3659885 C62.8969778,69.6527577 65.4587556,65.5154115 69.3254222,62.8217577 C72.3716444,60.6093346 75.9965333,59.4549115 79.8134222,59.4549115 C83.7289778,59.4549115 87.5956444,60.8021808 90.7849778,63.1587962 C94.0240889,65.7082577 96.4880889,69.3643731 97.3592,73.4521808 L98.0347556,76.3386808 C99.0978667,80.9077192 98.1805333,86.0066423 95.6187556,89.9502577 L92.5254222,94.8572192 L97.2134222,96.2513731 C102.723644,97.98345 107.459644,101.831527 110.118311,106.881796 L110.2632,107.21795 L110.360089,107.507219 L112.342311,113.038719 C113.357422,115.828796 112.921867,119.003681 111.181422,121.455835" id="Fill-4" fill="#FEFEFE"></path>
            </g>
        </g>
    </g>
</svg>