<svg id="Capa_1" data-name="Capa 1" xmlns="http://www.w3.org/2000/svg" viewBox="0 0 14.09 16.27"><defs><style>.cls-1{fill:#00b1af;}</style></defs><title>discover_Hover</title><path class="cls-1" d="M7.87,8.13a.82.82,0,1,1-.82-.82A.83.83,0,0,1,7.87,8.13Z"/><path class="cls-1" d="M7.05,0,0,4.07V12.2l7.05,4.07,7-4.07V4.07ZM10.7,4.69,8.76,9.85,3.6,11.78c-.18.07-.27,0-.2-.2L5.33,6.42l5.16-1.93C10.67,4.42,10.76,4.51,10.7,4.69Z"/><path class="cls-1" d="M7.87,8.13a.82.82,0,1,1-.82-.82A.83.83,0,0,1,7.87,8.13Z"/><path class="cls-1" d="M7.87,8.13a.82.82,0,1,1-.82-.82A.83.83,0,0,1,7.87,8.13Z"/></svg>