<svg xmlns="http://www.w3.org/2000/svg" viewBox="0 0 390.07 122.49"><defs><style>.cls-1{fill:#efefef;}</style></defs><title>divisor</title><g id="Capa_2" data-name="Capa 2"><g id="Capa_1-2" data-name="Capa 1"><path class="cls-1" d="M3.08.76A1.8,1.8,0,0,0,.53,3.31L21.74,24.53A1.8,1.8,0,0,0,24.3,22L3.08.76Z"/><path class="cls-1" d="M33.86.89a1.81,1.81,0,0,0-3.08,1.28,1.79,1.79,0,0,0,.53,1.27L52.53,24.66a1.81,1.81,0,0,0,2.55,0,1.81,1.81,0,0,0,0-2.55L33.86.89Z"/><path class="cls-1" d="M26.68,9a1.81,1.81,0,1,0-2.55,2.56L36.72,24.18a1.78,1.78,0,0,0,1.28.53,1.8,1.8,0,0,0,1.28-3.08L26.68,9Z"/><path class="cls-1" d="M48,3.61H69A1.81,1.81,0,0,0,69,0H48a1.81,1.81,0,0,0,0,3.61Z"/><path class="cls-1" d="M90.5,21.68h-21a1.8,1.8,0,1,0,0,3.61h21a1.8,1.8,0,1,0,0-3.61Z"/><path class="cls-1" d="M70.19,12.64a1.81,1.81,0,0,0-1.8-1.8H59.6a1.81,1.81,0,0,0,0,3.61h8.78a1.81,1.81,0,0,0,1.8-1.81Z"/><path class="cls-1" d="M88.15.76a1.8,1.8,0,0,0-2.55,0,1.81,1.81,0,0,0,0,2.55l21.22,21.22a1.81,1.81,0,0,0,2.55,0,1.8,1.8,0,0,0,0-2.55L88.15.76Z"/><path class="cls-1" d="M118.93.89a1.81,1.81,0,0,0-3.08,1.28,1.79,1.79,0,0,0,.53,1.27L137.6,24.66a1.78,1.78,0,0,0,1.27.53,1.81,1.81,0,0,0,1.28-3.08L118.93.89Z"/><path class="cls-1" d="M111.75,9a1.81,1.81,0,1,0-2.55,2.56l12.59,12.59a1.81,1.81,0,0,0,2.55-2.55L111.75,9Z"/><path class="cls-1" d="M133,3.61h21A1.81,1.81,0,0,0,154,0H133a1.81,1.81,0,0,0,0,3.61Z"/><path class="cls-1" d="M175.57,21.68h-21a1.8,1.8,0,1,0,0,3.61h21a1.8,1.8,0,1,0,0-3.61Z"/><path class="cls-1" d="M155.26,12.64a1.81,1.81,0,0,0-1.81-1.8h-8.78a1.81,1.81,0,0,0,0,3.61h8.78a1.81,1.81,0,0,0,1.81-1.81Z"/><path class="cls-1" d="M173.22.76a1.8,1.8,0,1,0-2.55,2.55l21.22,21.22A1.8,1.8,0,1,0,194.44,22L173.22.76Z"/><path class="cls-1" d="M204,.89a1.8,1.8,0,0,0-3.08,1.28,1.78,1.78,0,0,0,.53,1.27l21.22,21.22a1.81,1.81,0,0,0,2.56,0,1.81,1.81,0,0,0,0-2.55L204,.89Z"/><path class="cls-1" d="M196.82,9a1.81,1.81,0,0,0-2.55,2.56l12.59,12.59a1.81,1.81,0,0,0,2.55,0,1.81,1.81,0,0,0,0-2.55L196.82,9Z"/><path class="cls-1" d="M218.12,3.61h21a1.81,1.81,0,0,0,0-3.61h-21a1.81,1.81,0,0,0,0,3.61Z"/><path class="cls-1" d="M260.64,21.68h-21a1.8,1.8,0,0,0,0,3.61h21a1.8,1.8,0,1,0,0-3.61Z"/><path class="cls-1" d="M240.33,12.64a1.8,1.8,0,0,0-1.8-1.8h-8.78a1.81,1.81,0,0,0,0,3.61h8.78a1.81,1.81,0,0,0,1.8-1.81Z"/><path class="cls-1" d="M258.29.76a1.8,1.8,0,0,0-2.55,0,1.81,1.81,0,0,0,0,2.55L277,24.53a1.8,1.8,0,0,0,2.55,0,1.8,1.8,0,0,0,0-2.55L258.29.76Z"/><path class="cls-1" d="M289.07.89A1.8,1.8,0,0,0,286,2.17a1.78,1.78,0,0,0,.53,1.27l21.22,21.22a1.78,1.78,0,0,0,1.28.53,1.81,1.81,0,0,0,1.28-3.08L289.07.89Z"/><path class="cls-1" d="M281.89,9a1.81,1.81,0,0,0-2.55,2.56l12.59,12.59a1.81,1.81,0,0,0,2.55-2.55L281.89,9Z"/><path class="cls-1" d="M303.19,3.61h21a1.81,1.81,0,0,0,0-3.61h-21a1.81,1.81,0,1,0,0,3.61Z"/><path class="cls-1" d="M345.71,21.68h-21a1.8,1.8,0,1,0,0,3.61h21a1.8,1.8,0,0,0,0-3.61Z"/><path class="cls-1" d="M325.4,12.64a1.81,1.81,0,0,0-1.81-1.8h-8.78a1.81,1.81,0,0,0,0,3.61h8.78a1.81,1.81,0,0,0,1.81-1.81Z"/><path class="cls-1" d="M45.63,33.16a1.81,1.81,0,0,0-2.55,0,1.81,1.81,0,0,0,0,2.55L64.3,56.93a1.81,1.81,0,1,0,2.56-2.55L45.63,33.16Z"/><path class="cls-1" d="M76.42,33.29a1.81,1.81,0,0,0-2.55,0,1.79,1.79,0,0,0,0,2.55L95.09,57.06a1.81,1.81,0,0,0,2.55,0,1.81,1.81,0,0,0,0-2.55L76.42,33.29Z"/><path class="cls-1" d="M69.24,41.43A1.81,1.81,0,1,0,66.69,44L79.27,56.57A1.8,1.8,0,0,0,81.83,54L69.24,41.43Z"/><path class="cls-1" d="M90.54,36h21a1.8,1.8,0,1,0,0-3.61h-21a1.8,1.8,0,0,0,0,3.61Z"/><path class="cls-1" d="M133.06,54.08h-21a1.81,1.81,0,0,0,0,3.61h21a1.81,1.81,0,0,0,0-3.61Z"/><path class="cls-1" d="M112.74,45a1.81,1.81,0,0,0-1.81-1.8h-8.78a1.81,1.81,0,1,0,0,3.61h8.78A1.81,1.81,0,0,0,112.74,45Z"/><path class="cls-1" d="M130.71,33.16a1.8,1.8,0,0,0-2.55,2.55l21.22,21.22a1.81,1.81,0,1,0,2.56-2.55L130.71,33.16Z"/><path class="cls-1" d="M161.49,33.29a1.81,1.81,0,0,0-3.08,1.28,1.78,1.78,0,0,0,.53,1.27l21.22,21.22a1.8,1.8,0,1,0,2.55-2.55L161.49,33.29Z"/><path class="cls-1" d="M154.31,41.43A1.81,1.81,0,0,0,151.76,44l12.59,12.59a1.8,1.8,0,0,0,2.55,0,1.81,1.81,0,0,0,0-2.55L154.31,41.43Z"/><path class="cls-1" d="M175.61,36h21a1.8,1.8,0,1,0,0-3.61h-21a1.8,1.8,0,0,0,0,3.61Z"/><path class="cls-1" d="M218.13,54.08h-21a1.81,1.81,0,0,0,0,3.61h21a1.81,1.81,0,0,0,0-3.61Z"/><path class="cls-1" d="M197.81,45a1.8,1.8,0,0,0-1.8-1.8h-8.78a1.81,1.81,0,0,0,0,3.61H196a1.81,1.81,0,0,0,1.8-1.81Z"/><path class="cls-1" d="M215.78,33.16a1.81,1.81,0,0,0-2.55,0,1.81,1.81,0,0,0,0,2.55l21.22,21.22A1.8,1.8,0,0,0,237,54.38L215.78,33.16Z"/><path class="cls-1" d="M246.56,33.29a1.8,1.8,0,0,0-3.08,1.28,1.77,1.77,0,0,0,.53,1.27l21.22,21.22a1.78,1.78,0,0,0,1.28.53,1.8,1.8,0,0,0,1.28-3.08L246.56,33.29Z"/><path class="cls-1" d="M239.38,41.43A1.81,1.81,0,0,0,236.82,44l12.59,12.59A1.81,1.81,0,0,0,252,54L239.38,41.43Z"/><path class="cls-1" d="M260.68,36h21a1.8,1.8,0,1,0,0-3.61h-21a1.8,1.8,0,1,0,0,3.61Z"/><path class="cls-1" d="M303.2,54.08h-21a1.81,1.81,0,0,0,0,3.61h21a1.81,1.81,0,0,0,0-3.61Z"/><path class="cls-1" d="M282.89,45a1.81,1.81,0,0,0-1.81-1.8H272.3a1.81,1.81,0,0,0,0,3.61h8.78A1.81,1.81,0,0,0,282.89,45Z"/><path class="cls-1" d="M300.85,33.16a1.81,1.81,0,0,0-2.55,2.55l21.22,21.22a1.8,1.8,0,0,0,2.55-2.55L300.85,33.16Z"/><path class="cls-1" d="M331.63,33.29a1.8,1.8,0,0,0-3.08,1.28,1.77,1.77,0,0,0,.53,1.27l21.22,21.22a1.81,1.81,0,1,0,2.56-2.55L331.63,33.29Z"/><path class="cls-1" d="M324.45,41.43A1.81,1.81,0,0,0,321.9,44l12.59,12.59a1.8,1.8,0,0,0,2.56,0A1.81,1.81,0,0,0,337,54L324.45,41.43Z"/><path class="cls-1" d="M345.75,36h21a1.8,1.8,0,1,0,0-3.61h-21a1.8,1.8,0,0,0,0,3.61Z"/><path class="cls-1" d="M388.27,54.08h-21a1.81,1.81,0,0,0,0,3.61h21a1.81,1.81,0,0,0,0-3.61Z"/><path class="cls-1" d="M368,45a1.81,1.81,0,0,0-1.81-1.8h-8.78a1.81,1.81,0,0,0,0,3.61h8.78A1.81,1.81,0,0,0,368,45Z"/><path class="cls-1" d="M3.08,65.56A1.8,1.8,0,0,0,.53,68.11L21.74,89.32a1.8,1.8,0,0,0,2.55-2.55L3.08,65.56Z"/><path class="cls-1" d="M33.86,65.69A1.81,1.81,0,0,0,30.78,67a1.78,1.78,0,0,0,.53,1.27L52.53,89.46a1.81,1.81,0,0,0,2.55-2.56L33.86,65.69Z"/><path class="cls-1" d="M26.68,73.83a1.81,1.81,0,1,0-2.55,2.55L36.72,89A1.78,1.78,0,0,0,38,89.5a1.8,1.8,0,0,0,1.28-3.08L26.68,73.83Z"/><path class="cls-1" d="M48,68.41H69a1.81,1.81,0,0,0,0-3.61H48a1.81,1.81,0,0,0,0,3.61Z"/><path class="cls-1" d="M90.5,86.48h-21a1.8,1.8,0,1,0,0,3.61h21a1.8,1.8,0,1,0,0-3.61Z"/><path class="cls-1" d="M70.19,77.44a1.81,1.81,0,0,0-1.8-1.8H59.6a1.81,1.81,0,0,0,0,3.61h8.78a1.81,1.81,0,0,0,1.8-1.81Z"/><path class="cls-1" d="M88.15,65.56a1.8,1.8,0,1,0-2.55,2.55l21.22,21.22a1.8,1.8,0,0,0,2.55,0,1.8,1.8,0,0,0,0-2.55L88.15,65.56Z"/><path class="cls-1" d="M118.93,65.69a1.8,1.8,0,1,0-2.55,2.55L137.6,89.46a1.79,1.79,0,0,0,1.27.53,1.8,1.8,0,0,0,1.28-3.08L118.93,65.69Z"/><path class="cls-1" d="M111.75,73.83a1.81,1.81,0,1,0-2.55,2.55L121.79,89a1.8,1.8,0,0,0,2.55-2.55L111.75,73.83Z"/><path class="cls-1" d="M133,68.41h21a1.81,1.81,0,0,0,0-3.61H133a1.81,1.81,0,0,0,0,3.61Z"/><path class="cls-1" d="M175.57,86.48h-21a1.8,1.8,0,1,0,0,3.61h21a1.8,1.8,0,1,0,0-3.61Z"/><path class="cls-1" d="M155.26,77.44a1.81,1.81,0,0,0-1.81-1.8h-8.78a1.81,1.81,0,0,0,0,3.61h8.78a1.81,1.81,0,0,0,1.81-1.81Z"/><path class="cls-1" d="M173.22,65.56a1.8,1.8,0,1,0-2.55,2.55l21.22,21.22a1.8,1.8,0,1,0,2.55-2.55L173.22,65.56Z"/><path class="cls-1" d="M204,65.69a1.8,1.8,0,0,0-2.55,0,1.8,1.8,0,0,0,0,2.55l21.22,21.22a1.81,1.81,0,0,0,2.56-2.56L204,65.69Z"/><path class="cls-1" d="M196.82,73.83a1.81,1.81,0,0,0-2.55,2.55L206.86,89a1.81,1.81,0,0,0,2.55,0,1.81,1.81,0,0,0,0-2.55L196.82,73.83Z"/><path class="cls-1" d="M218.12,68.41h21a1.81,1.81,0,0,0,0-3.61h-21a1.81,1.81,0,0,0,0,3.61Z"/><path class="cls-1" d="M260.64,86.48h-21a1.8,1.8,0,0,0,0,3.61h21a1.8,1.8,0,1,0,0-3.61Z"/><path class="cls-1" d="M240.33,77.44a1.8,1.8,0,0,0-1.8-1.8h-8.78a1.81,1.81,0,0,0,0,3.61h8.78a1.81,1.81,0,0,0,1.8-1.81Z"/><path class="cls-1" d="M258.29,65.56a1.8,1.8,0,0,0-2.55,2.55L277,89.32a1.8,1.8,0,0,0,2.55,0,1.8,1.8,0,0,0,0-2.55L258.29,65.56Z"/><path class="cls-1" d="M289.07,65.69a1.8,1.8,0,0,0-2.55,2.55l21.22,21.22A1.79,1.79,0,0,0,309,90a1.8,1.8,0,0,0,1.28-3.08L289.07,65.69Z"/><path class="cls-1" d="M281.89,73.83a1.81,1.81,0,0,0-2.55,2.55L291.93,89a1.8,1.8,0,0,0,2.55-2.55L281.89,73.83Z"/><path class="cls-1" d="M303.19,68.41h21a1.81,1.81,0,0,0,0-3.61h-21a1.81,1.81,0,1,0,0,3.61Z"/><path class="cls-1" d="M345.71,86.48h-21a1.8,1.8,0,1,0,0,3.61h21a1.8,1.8,0,0,0,0-3.61Z"/><path class="cls-1" d="M325.4,77.44a1.81,1.81,0,0,0-1.81-1.8h-8.78a1.81,1.81,0,0,0,0,3.61h8.78a1.81,1.81,0,0,0,1.81-1.81Z"/><path class="cls-1" d="M45.63,98a1.81,1.81,0,0,0-2.55,0,1.81,1.81,0,0,0,0,2.55L64.3,121.72a1.81,1.81,0,1,0,2.56-2.55L45.63,98Z"/><path class="cls-1" d="M76.42,98.08a1.8,1.8,0,0,0-2.55,0,1.79,1.79,0,0,0,0,2.55l21.22,21.22a1.81,1.81,0,0,0,2.55,0,1.81,1.81,0,0,0,0-2.56L76.42,98.08Z"/><path class="cls-1" d="M69.24,106.23a1.8,1.8,0,0,0-2.55,0,1.8,1.8,0,0,0,0,2.55l12.59,12.59a1.8,1.8,0,0,0,2.55-2.55L69.24,106.23Z"/><path class="cls-1" d="M90.54,100.8h21a1.8,1.8,0,1,0,0-3.61h-21a1.8,1.8,0,1,0,0,3.61Z"/><path class="cls-1" d="M133.06,118.87h-21a1.81,1.81,0,0,0,0,3.61h21a1.81,1.81,0,0,0,0-3.61Z"/><path class="cls-1" d="M112.74,109.84a1.8,1.8,0,0,0-1.81-1.8h-8.78a1.8,1.8,0,1,0,0,3.61h8.78a1.81,1.81,0,0,0,1.81-1.81Z"/><path class="cls-1" d="M130.71,98a1.8,1.8,0,0,0-2.55,2.55l21.22,21.22a1.81,1.81,0,1,0,2.56-2.55L130.71,98Z"/><path class="cls-1" d="M161.49,98.08a1.8,1.8,0,0,0-2.55,0,1.8,1.8,0,0,0,0,2.55l21.22,21.22a1.81,1.81,0,0,0,2.55-2.56L161.49,98.08Z"/><path class="cls-1" d="M154.31,106.23a1.8,1.8,0,1,0-2.55,2.55l12.59,12.59a1.8,1.8,0,0,0,2.55,0,1.81,1.81,0,0,0,0-2.55l-12.59-12.59Z"/><path class="cls-1" d="M175.61,100.8h21a1.8,1.8,0,1,0,0-3.61h-21a1.8,1.8,0,1,0,0,3.61Z"/><path class="cls-1" d="M218.13,118.87h-21a1.81,1.81,0,0,0,0,3.61h21a1.81,1.81,0,0,0,0-3.61Z"/><path class="cls-1" d="M197.81,109.84A1.8,1.8,0,0,0,196,108h-8.78a1.8,1.8,0,1,0,0,3.61H196a1.81,1.81,0,0,0,1.8-1.81Z"/><path class="cls-1" d="M215.78,98a1.81,1.81,0,0,0-2.55,0,1.81,1.81,0,0,0,0,2.55l21.22,21.22a1.8,1.8,0,0,0,2.55-2.55L215.78,98Z"/><path class="cls-1" d="M246.56,98.08a1.8,1.8,0,1,0-2.55,2.55l21.22,21.22a1.79,1.79,0,0,0,1.28.53,1.8,1.8,0,0,0,1.28-3.08L246.56,98.08Z"/><path class="cls-1" d="M239.38,106.23a1.81,1.81,0,1,0-2.56,2.55l12.59,12.59a1.81,1.81,0,0,0,2.55-2.55l-12.59-12.59Z"/><path class="cls-1" d="M260.68,100.8h21a1.8,1.8,0,1,0,0-3.61h-21a1.8,1.8,0,1,0,0,3.61Z"/><path class="cls-1" d="M303.2,118.87h-21a1.81,1.81,0,0,0,0,3.61h21a1.81,1.81,0,0,0,0-3.61Z"/><path class="cls-1" d="M282.89,109.84a1.81,1.81,0,0,0-1.81-1.8H272.3a1.8,1.8,0,1,0,0,3.61h8.78a1.81,1.81,0,0,0,1.81-1.81Z"/><path class="cls-1" d="M300.85,98a1.81,1.81,0,0,0-2.55,2.55l21.22,21.22a1.8,1.8,0,0,0,2.55-2.55L300.85,98Z"/><path class="cls-1" d="M331.63,98.08a1.8,1.8,0,0,0-2.55,0,1.8,1.8,0,0,0,0,2.55l21.22,21.22a1.81,1.81,0,1,0,2.56-2.56L331.63,98.08Z"/><path class="cls-1" d="M324.45,106.23a1.81,1.81,0,0,0-3.08,1.27,1.79,1.79,0,0,0,.53,1.28l12.59,12.59a1.8,1.8,0,0,0,2.56,0,1.81,1.81,0,0,0,0-2.55l-12.59-12.59Z"/><path class="cls-1" d="M345.75,100.8h21a1.8,1.8,0,1,0,0-3.61h-21a1.8,1.8,0,0,0,0,3.61Z"/><path class="cls-1" d="M388.27,118.87h-21a1.81,1.81,0,0,0,0,3.61h21a1.81,1.81,0,0,0,0-3.61Z"/><path class="cls-1" d="M368,109.84a1.8,1.8,0,0,0-1.81-1.8h-8.78a1.8,1.8,0,0,0,0,3.61h8.78a1.81,1.81,0,0,0,1.81-1.81Z"/></g></g></svg>