<svg width="78" height="90" viewBox="0 0 78 90" xmlns="http://www.w3.org/2000/svg"><title>DONE_ICON</title><g fill="none" fill-rule="evenodd"><path fill="#00B0AF" d="M38.97 0L0 22.5v45L38.97 90l38.973-22.5v-45z"/><path d="M33.03 53.745c.277-.396.42-.594.557-.797l19.225-28.35c1.13-1.666 2.427-1.91 4.106-.77 1.16.788 2.321 1.57 3.474 2.366 1.375.949 1.652 2.313.717 3.693a37438.456 37438.456 0 0 1-23.778 35.07c-.867 1.278-2.007 2.136-3.67 1.867-1.037-.168-1.91-.687-2.646-1.422a9625.193 9625.193 0 0 1-13.887-13.894c-1.123-1.128-1.121-2.533-.009-3.676a235.827 235.827 0 0 1 3.213-3.223c1.2-1.184 2.613-1.185 3.806.005 2.843 2.833 5.68 5.672 8.51 8.516.147.147.227.36.381.615" fill="#FEFEFE"/></g></svg>