<?xml version="1.0" encoding="UTF-8"?>
<svg width="24px" height="24px" viewBox="0 0 24 24" version="1.1" xmlns="http://www.w3.org/2000/svg" xmlns:xlink="http://www.w3.org/1999/xlink">
    <!-- Generator: Sketch 42 (36781) - http://www.bohemiancoding.com/sketch -->
    <title>Edit_ICON</title>
    <desc>Created with Sketch.</desc>
    <defs></defs>
    <g id="Page-1" stroke="none" stroke-width="1" fill="none" fill-rule="evenodd">
        <g id="MyProfile" transform="translate(-442.000000, -163.000000)" fill="#D8D8D8">
            <g id="Edit_ICON" transform="translate(442.000000, 163.000000)">
                <path d="M23.9884734,6.34233578 C23.9660697,6.65295963 23.956767,6.96523486 23.9182349,7.27382202 C23.8586202,7.75106972 23.6526936,8.14349174 23.3005101,8.49413394 C19.4523633,12.3250514 15.6193541,16.1711615 11.7698862,20.0007028 C11.478033,20.2910147 11.119244,20.5460972 10.7455927,20.7168495 C8.47638165,21.7538037 6.1250422,22.5754734 3.72674862,23.254189 C2.72551927,23.5375101 1.69561101,23.7195468 0.678638532,23.9472716 C0.651941284,23.9532716 0.624418349,23.9569046 0.59706055,23.9587761 C0.120913761,23.9911982 -0.0577100917,23.8494 0.0159963303,23.380189 C0.140895413,22.585767 0.277354128,21.7877119 0.48999633,21.0134917 C1.22084037,18.3530147 2.1197945,15.7494 3.23964771,13.2248312 C3.41667523,12.8258037 3.66212477,12.4851798 3.97329908,12.1748862 C7.75318899,8.40562018 11.5366018,4.63965688 15.2897394,0.843858716 C15.8615009,0.265546789 16.4906752,0.00127155963 17.2634642,5.50458713e-06 C18.8277578,-0.00263669725 20.2764,0.388629358 21.5383266,1.34169358 C22.8998862,2.3700055 23.5899413,3.79250092 23.8798679,5.43842752 C23.8989138,5.54670275 23.9173541,5.65552844 23.9274826,5.76484954 C23.9452624,5.95662936 23.9563817,6.14895963 23.9703083,6.34106972 C23.9763633,6.34145505 23.9824183,6.34189541 23.9884734,6.34233578" id="Fill-1"></path>
            </g>
        </g>
    </g>
</svg>