<svg id="Capa_1" data-name="Capa 1" xmlns="http://www.w3.org/2000/svg" viewBox="0 0 38.56 14.57"><defs><style>.cls-1{fill:#03a9cd;}</style></defs><title>expert</title><path class="cls-1" d="M38.11,1.44A22.4,22.4,0,0,0,29.38,0a19.7,19.7,0,0,0-6.19.89,12.7,12.7,0,0,1-3.91.64A12.69,12.69,0,0,1,15.37.89,19.7,19.7,0,0,0,9.18,0,22.4,22.4,0,0,0,.45,1.44a.49.49,0,0,0-.29.41L0,4.23a.5.5,0,0,0,.31.49A1.29,1.29,0,0,1,.81,5c0,.08.08.35.16.72a36.94,36.94,0,0,0,1.28,5,4.75,4.75,0,0,0,3,3.18,10.7,10.7,0,0,0,3.93.68A9.75,9.75,0,0,0,13,13.86c2.81-1.21,3.48-3,4.33-5.37l.33-.93c.6-1.71.71-1.93,1.65-1.93s1.05.22,1.65,1.93c.1.28.21.59.33.93.85,2.32,1.52,4.16,4.33,5.37a9.77,9.77,0,0,0,3.81.71,10.73,10.73,0,0,0,3.93-.68,4.75,4.75,0,0,0,3-3.18,37.15,37.15,0,0,0,1.28-4.94c.08-.38.13-.65.16-.73a1.26,1.26,0,0,1,.49-.33.5.5,0,0,0,.31-.49L38.4,1.86a.49.49,0,0,0-.29-.41ZM14.47,9.85C13.59,11.67,11.75,12.6,9,12.6c-2.22,0-3.57-.5-4.41-1.62S2.8,5.28,3.44,3.85,6.86,2,9.3,2s5.59.53,6.22,1.69.25,3.49-1,6.17ZM34,11c-.83,1.12-2.19,1.62-4.41,1.62-2.76,0-4.61-.93-5.49-2.75-1.29-2.68-1.68-5-1-6.17S26.7,2,29.26,2s5.25.49,5.86,1.85S34.78,9.9,34,11Z"/></svg>