<svg id="Capa_1" data-name="Capa 1" xmlns="http://www.w3.org/2000/svg" viewBox="0 0 24.93 9.42"><defs><style>.cls-1{fill:#f48465;}</style></defs><title>expert_Proyect</title><path class="cls-1" d="M24.64.93A14.48,14.48,0,0,0,19,0a12.74,12.74,0,0,0-4,.58A8.21,8.21,0,0,1,12.47,1,8.21,8.21,0,0,1,9.94.58a12.74,12.74,0,0,0-4-.58A14.48,14.48,0,0,0,.29.93.32.32,0,0,0,.1,1.2L0,2.73A.32.32,0,0,0,.2,3a.83.83,0,0,1,.32.2c0,.05.05.22.1.47a23.89,23.89,0,0,0,.83,3.2A3.07,3.07,0,0,0,3.39,9a6.92,6.92,0,0,0,2.54.44A6.31,6.31,0,0,0,8.39,9c1.81-.78,2.25-2,2.8-3.47l.21-.6c.38-1.1.46-1.25,1.06-1.25s.68.14,1.06,1.25l.21.6c.55,1.5,1,2.69,2.8,3.47A6.32,6.32,0,0,0,19,9.42,6.94,6.94,0,0,0,21.55,9a3.07,3.07,0,0,0,1.93-2.06,24,24,0,0,0,.83-3.19c.05-.25.09-.42.1-.47A.81.81,0,0,1,24.73,3a.32.32,0,0,0,.2-.32l-.1-1.53a.32.32,0,0,0-.19-.27ZM9.36,6.37C8.79,7.55,7.6,8.15,5.81,8.15A3.24,3.24,0,0,1,3,7.1c-.52-.7-1.15-3.69-.74-4.61S4.44,1.29,6,1.29s3.62.34,4,1.09.16,2.26-.67,4ZM22,7.1a3.24,3.24,0,0,1-2.85,1c-1.79,0-3-.6-3.55-1.78-.83-1.73-1.08-3.22-.67-4s2.37-1.09,4-1.09,3.39.31,3.79,1.2S22.49,6.4,22,7.1Z"/></svg>