<svg id="Capa_1" data-name="Capa 1" xmlns="http://www.w3.org/2000/svg" viewBox="0 0 52 59.17"><defs><style>.cls-1{fill:#fff;}</style></defs><title>facebook</title><path class="cls-1" d="M50.58,13.75,27.41.37a2.89,2.89,0,0,0-2.83,0L1.41,13.75A2.84,2.84,0,0,0,0,16.2V43a2.84,2.84,0,0,0,1.41,2.45L24.58,58.79a2.86,2.86,0,0,0,2.83,0L50.58,45.41A2.83,2.83,0,0,0,52,43V16.2A2.83,2.83,0,0,0,50.58,13.75Zm-20,8.9a.42.42,0,0,1-.42.42h-1.8c-1.24,0-1.47.48-1.47,1.43v2H30a.41.41,0,0,1,.42.42v3.38a.42.42,0,0,1-.42.42H26.87v8.53a.41.41,0,0,1-.41.42H23a.42.42,0,0,1-.42-.42V30.7H19.86a.42.42,0,0,1-.42-.42V26.9a.42.42,0,0,1,.42-.42h2.68V24.15c0-3.08,1.93-5.07,4.93-5.07h2.67a.42.42,0,0,1,.42.42Z"/></svg>