<svg xmlns="http://www.w3.org/2000/svg" viewBox="0 0 52 59.17"><defs><style>.cls-1{fill:#ccc;}.cls-2{fill:#fff;}</style></defs><title>facebook</title><g id="Capa_2" data-name="Capa 2"><g id="Capa_1-2" data-name="Capa 1"><path class="cls-1" d="M24.59.38,1.41,13.76A2.83,2.83,0,0,0,0,16.21V43a2.83,2.83,0,0,0,1.41,2.45L24.59,58.79a2.83,2.83,0,0,0,2.83,0L50.59,45.41A2.83,2.83,0,0,0,52,43V16.21a2.83,2.83,0,0,0-1.41-2.45L27.41.38a2.83,2.83,0,0,0-2.83,0"/><path class="cls-2" d="M30.14,19.09H27.47a4.68,4.68,0,0,0-4.93,5.06v2.33H19.86a.42.42,0,0,0-.42.42v3.38a.42.42,0,0,0,.42.42h2.68v8.53a.42.42,0,0,0,.42.42h3.5a.42.42,0,0,0,.42-.42V30.7H30a.42.42,0,0,0,.42-.42V26.9a.42.42,0,0,0-.42-.42H26.88v-2c0-1,.23-1.43,1.46-1.43h1.8a.42.42,0,0,0,.42-.42V19.51A.42.42,0,0,0,30.14,19.09Z"/></g></g></svg>