<svg width="30" height="34" viewBox="0 0 30 34" xmlns="http://www.w3.org/2000/svg" xmlns:xlink="http://www.w3.org/1999/xlink"><title>FB_Icon</title><defs><path id="a" d="M29.007 33.47V.463H0V33.47z"/></defs><g fill="none" fill-rule="evenodd"><mask id="b" fill="#fff"><use xlink:href="#a"/></mask><path d="M17.293 13.099c0 .129-.191.213-.32.213H15.97c-.69 0-.91.29-.91.82v.854h1.842c.062 0 .2.15.244.193.043.044.146.23.146.291v1.886c0 .129-.262.419-.39.419H15.06v4.573c0 .13-.012.447-.141.447h-1.952c-.129 0-.138-.317-.138-.447v-4.573H11.24c-.13 0-.082-.29-.082-.42V15.47c0-.13-.048-.484.082-.484h1.591v-1.052c0-1.714 1.032-2.823 2.703-2.823l1.507.002c.129 0 .253.106.253.235v1.75zm11.006-4.962L15.412.674a1.51 1.51 0 0 0-.769-.211c-.272 0-.534.07-.778.211L.863 8.137C.375 8.42 0 8.94 0 9.503v14.926c0 .564.38 1.084.868 1.366l12.967 7.464c.488.281 1.11.281 1.597 0l12.857-7.464c.488-.282.718-.802.718-1.366V9.503c0-.563-.22-1.084-.708-1.366z" fill="#4A4A4A" mask="url(#b)"/></g></svg>