<svg xmlns="http://www.w3.org/2000/svg" viewBox="0 0 56.13 11.7"><defs><style>.cls-1{fill:#e6e6e6;}.cls-2{fill:#f26649;}.cls-3{fill:#e6ba83;}.cls-4{fill:#00b4cb;}</style></defs><title>finalStep_Create Idea</title><g id="Capa_2" data-name="Capa 2"><g id="Capa_1-2" data-name="Capa 1"><polygon class="cls-1" points="23 2.92 23 8.78 28.07 11.7 33.13 8.78 33.13 2.92 28.07 0 23 2.92"/><polygon class="cls-2" points="23.62 3.28 23.62 8.42 28.07 10.98 32.51 8.42 32.51 3.28 28.07 0.72 23.62 3.28"/><polygon class="cls-1" points="0 2.92 0 8.78 5.07 11.7 10.13 8.78 10.13 2.92 5.07 0 0 2.92"/><polygon class="cls-3" points="0.62 3.28 0.62 8.42 5.07 10.98 9.51 8.42 9.51 3.28 5.07 0.72 0.62 3.28"/><polygon class="cls-1" points="46 2.92 46 8.78 51.06 11.7 56.13 8.78 56.13 2.92 51.06 0 46 2.92"/><polygon class="cls-4" points="46.62 3.28 46.62 8.42 51.06 10.98 55.51 8.42 55.51 3.28 51.06 0.72 46.62 3.28"/></g></g></svg>