<?xml version="1.0" encoding="UTF-8"?>
<svg width="16px" height="22px" viewBox="0 0 16 22" version="1.1" xmlns="http://www.w3.org/2000/svg" xmlns:xlink="http://www.w3.org/1999/xlink">
    <!-- Generator: Sketch 42 (36781) - http://www.bohemiancoding.com/sketch -->
    <title>Gender Icon</title>
    <desc>Created with Sketch.</desc>
    <defs></defs>
    <g id="Page-1" stroke="none" stroke-width="1" fill="none" fill-rule="evenodd">
        <g id="MyProfile" transform="translate(-232.000000, -261.000000)">
            <g id="ID" transform="translate(82.000000, 148.000000)">
                <g id="Gender-Icon" transform="translate(151.000000, 114.000000)">
                    <path d="M5.3608,12.5377 C3.1748,12.5377 1.3968,10.7597 1.3968,8.5737 C1.3968,6.3877 3.1748,4.6087 5.3608,4.6087 C7.5468,4.6087 9.3248,6.3877 9.3248,8.5737 C9.3248,10.7597 7.5468,12.5377 5.3608,12.5377 L5.3608,12.5377 Z M10.7758,0.2367 C10.3958,0.2367 10.0888,0.5447 10.0888,0.9237 C10.0888,1.3027 10.3958,1.6097 10.7758,1.6097 L11.5458,1.6097 L8.7218,4.4327 C7.8038,3.6867 6.6348,3.2367 5.3608,3.2367 C2.4188,3.2367 0.0248,5.6297 0.0248,8.5737 C0.0248,11.2827 2.0558,13.5217 4.6748,13.8607 L4.6748,17.1117 L3.3198,17.1117 C2.9408,17.1117 2.6338,17.4187 2.6338,17.7977 C2.6338,18.1767 2.9408,18.4837 3.3198,18.4837 L4.6748,18.4837 L4.6748,19.5507 C4.6748,19.9297 4.9818,20.2367 5.3608,20.2367 C5.7398,20.2367 6.0468,19.9297 6.0468,19.5507 L6.0468,18.4837 L7.4028,18.4837 C7.7818,18.4837 8.0888,18.1767 8.0888,17.7977 C8.0888,17.4187 7.7818,17.1117 7.4028,17.1117 L6.0468,17.1117 L6.0468,13.8607 C8.6658,13.5217 10.6978,11.2827 10.6978,8.5737 C10.6978,7.3977 10.3108,6.3137 9.6648,5.4307 L12.5158,2.5797 L12.5158,3.1877 C12.5158,3.5667 12.8228,3.8737 13.2018,3.8737 C13.5808,3.8737 13.8878,3.5667 13.8878,3.1877 L13.8878,0.2367 L10.7758,0.2367 Z" id="Fill-6" fill="#939597"></path>
                    <path d="M5.3608,12.5377 C3.1748,12.5377 1.3968,10.7597 1.3968,8.5737 C1.3968,6.3877 3.1748,4.6087 5.3608,4.6087 C7.5468,4.6087 9.3248,6.3877 9.3248,8.5737 C9.3248,10.7597 7.5468,12.5377 5.3608,12.5377 Z M10.7758,0.2367 C10.3958,0.2367 10.0888,0.5447 10.0888,0.9237 C10.0888,1.3027 10.3958,1.6097 10.7758,1.6097 L11.5458,1.6097 L8.7218,4.4327 C7.8038,3.6867 6.6348,3.2367 5.3608,3.2367 C2.4188,3.2367 0.0248,5.6297 0.0248,8.5737 C0.0248,11.2827 2.0558,13.5217 4.6748,13.8607 L4.6748,17.1117 L3.3198,17.1117 C2.9408,17.1117 2.6338,17.4187 2.6338,17.7977 C2.6338,18.1767 2.9408,18.4837 3.3198,18.4837 L4.6748,18.4837 L4.6748,19.5507 C4.6748,19.9297 4.9818,20.2367 5.3608,20.2367 C5.7398,20.2367 6.0468,19.9297 6.0468,19.5507 L6.0468,18.4837 L7.4028,18.4837 C7.7818,18.4837 8.0888,18.1767 8.0888,17.7977 C8.0888,17.4187 7.7818,17.1117 7.4028,17.1117 L6.0468,17.1117 L6.0468,13.8607 C8.6658,13.5217 10.6978,11.2827 10.6978,8.5737 C10.6978,7.3977 10.3108,6.3137 9.6648,5.4307 L12.5158,2.5797 L12.5158,3.1877 C12.5158,3.5667 12.8228,3.8737 13.2018,3.8737 C13.5808,3.8737 13.8878,3.5667 13.8878,3.1877 L13.8878,0.2367 L10.7758,0.2367 Z" id="Stroke-7" stroke="#939597" stroke-width="0.5"></path>
                </g>
            </g>
        </g>
    </g>
</svg>