<svg xmlns="http://www.w3.org/2000/svg" viewBox="0 0 33.5 38.51"><defs><style>.cls-1{fill:#fff;}.cls-2{fill:#03a9cd;}</style></defs><title>hex negative_Idea</title><g id="Capa_2" data-name="Capa 2"><g id="Capa_1-2" data-name="Capa 1"><polygon class="cls-1" points="0.59 28.55 0.63 9.91 16.78 0.62 32.91 9.96 32.88 28.6 16.75 37.88 0.59 28.55"/><path class="cls-2" d="M16.75,1.36l15.5,8.95v17.9l-15.5,8.95L1.25,28.21V10.31l15.5-8.95m0-1.36a.56.56,0,0,0-.28.08L.28,9.42A.56.56,0,0,0,0,9.91V28.6a.56.56,0,0,0,.28.49l16.19,9.35a.56.56,0,0,0,.56,0l16.19-9.35a.56.56,0,0,0,.28-.49V9.91a.56.56,0,0,0-.28-.49L17,.08A.56.56,0,0,0,16.75,0Z"/></g></g></svg>