<?xml version="1.0" encoding="UTF-8"?>
<svg width="1366px" height="838px" viewBox="0 0 1366 838" version="1.1" xmlns="http://www.w3.org/2000/svg" xmlns:xlink="http://www.w3.org/1999/xlink">
    <!-- Generator: Sketch 42 (36781) - http://www.bohemiancoding.com/sketch -->
    <title>HEXAGONOS</title>
    <desc>Created with Sketch.</desc>
    <defs></defs>
    <g id="Page-1" stroke="none" stroke-width="1" fill="none" fill-rule="evenodd">
        <g id="Landing-Copy-3" transform="translate(0.000000, -381.000000)">
            <g id="Group-6" transform="translate(-38.000000, 0.000000)">
                <g id="HEXAGONOS" transform="translate(0.000000, 381.000000)">
                    <polygon id="Rectangle-4" fill="#FFFFFF" transform="translate(720.883281, 508.114818) scale(1, -1) translate(-720.883281, -508.114818) " points="38.8895899 179.135567 1402.87697 179.135567 1402.87697 756.898067 847.267198 724.381624 810.976905 703.872826 777.10798 724.381624 503.638202 764.450848 407.359824 783.571084 372.394967 764.450848 206.120614 756.898067 165.107624 764.450848 128.676785 782.168739 38.8895899 837.094068"></polygon>
                    <polygon id="Fill-25" fill="#F0F0F0" transform="translate(102.174919, 798.721271) scale(1, -1) translate(-102.174919, -798.721271) " points="99.4693948 760.451217 68.3361583 778.414783 68.3361583 817.466143 102.17442 836.991324 136.01368 817.466143 136.01368 778.414783 104.879446 760.451217"></polygon>
                    <polygon id="Fill-27" fill="#F6F6F6" transform="translate(52.427695, 799.304633) scale(1, -1) translate(-52.427695, -799.304633) " points="36.5193317 761.617941 36.5193317 836.991324 68.3360585 818.632867 68.3360585 779.581507 37.2018243 761.617941"></polygon>
                    <polygon id="Fill-33" fill="#F6F6F6" transform="translate(271.369422, 740.914667) scale(1, -1) translate(-271.369422, -740.914667) " points="305.208183 760.439849 271.368923 779.96503 237.530661 760.439849 237.530661 721.389486 271.368923 701.864304 305.208183 721.389486"></polygon>
                    <polygon id="Fill-39" fill="#FAFAFA" transform="translate(69.346826, 740.914368) scale(1, -1) translate(-69.346826, -740.914368) " points="36.5193317 720.221964 36.5193317 761.605775 68.3360585 779.96523 102.17432 760.439051 102.17432 721.388688 68.3360585 701.863507"></polygon>
                    <polygon id="Fill-41" fill="#F0F0F0" transform="translate(474.402785, 740.914667) scale(1, -1) translate(-474.402785, -740.914667) " points="508.241546 760.439849 474.402286 779.96503 440.564024 760.439849 440.564024 721.389486 474.402286 701.864304 508.241546 721.389486"></polygon>
                    <polygon id="Fill-43" fill="#F6F6F6" transform="translate(237.530461, 682.327456) scale(1, -1) translate(-237.530461, -682.327456) " points="271.369222 701.852637 237.529963 721.377819 203.691701 701.852637 203.691701 662.802274 237.529963 643.277093 271.369222 662.802274"></polygon>
                    <polygon id="Fill-47" fill="#F6F6F6" transform="translate(372.886103, 682.327456) scale(1, -1) translate(-372.886103, -682.327456) " points="406.724864 701.852637 372.885605 721.377819 339.047343 701.852637 339.047343 662.802274 372.885605 643.277093 406.724864 662.802274"></polygon>
                    <polygon id="Fill-49" fill="#FAFAFA" transform="translate(440.563924, 682.327456) scale(1, -1) translate(-440.563924, -682.327456) " points="474.402685 701.852637 440.563426 721.377819 406.725164 701.852637 406.725164 662.802274 440.563426 643.277093 474.402685 662.802274"></polygon>
                    <polygon id="Fill-53" fill="#F6F6F6" transform="translate(102.174720, 682.327456) scale(1, -1) translate(-102.174720, -682.327456) " points="136.01348 701.852637 102.174221 721.377819 68.3359588 701.852637 68.3359588 662.802274 102.174221 643.277093 136.01348 662.802274"></polygon>
                    <polygon id="Fill-55" fill="#F6F6F6" transform="translate(52.427695, 682.327356) scale(1, -1) translate(-52.427695, -682.327356) " points="36.5193317 720.210496 68.3360585 701.853036 68.3360585 662.802673 36.5193317 644.444216"></polygon>
                    <polygon id="Fill-57" fill="#F6F6F6" transform="translate(203.691601, 623.777041) scale(1, -1) translate(-203.691601, -623.777041) " points="237.530362 643.302222 203.691102 662.827404 169.85284 643.302222 169.85284 604.251859 203.691102 584.726678 237.530362 604.251859"></polygon>
                    <polygon id="Fill-59" fill="#F6F6F6" transform="translate(136.013680, 623.777041) scale(1, -1) translate(-136.013680, -623.777041) " points="169.852441 643.302222 136.013181 662.827404 102.174919 643.302222 102.174919 604.251859 136.013181 584.726678 169.852441 604.251859"></polygon>
                    <polygon id="Fill-61" fill="#F0F0F0" transform="translate(271.369422, 623.777041) scale(1, -1) translate(-271.369422, -623.777041) " points="305.208183 643.302222 271.368923 662.827404 237.530661 643.302222 237.530661 604.251859 271.368923 584.726678 305.208183 604.251859"></polygon>
                    <polygon id="Fill-63" fill="#68C7C5" transform="translate(339.047243, 623.777041) scale(1, -1) translate(-339.047243, -623.777041) " points="372.886004 643.302222 339.046744 662.827404 305.208482 643.302222 305.208482 604.251859 339.046744 584.726678 372.886004 604.251859"></polygon>
                    <polygon id="Fill-65" fill="#F6F6F6" transform="translate(406.725064, 623.777041) scale(1, -1) translate(-406.725064, -623.777041) " points="440.563825 643.302222 406.724565 662.827404 372.886303 643.302222 372.886303 604.251859 406.724565 584.726678 440.563825 604.251859"></polygon>
                    <polygon id="Fill-67" fill="#FAFAFA" transform="translate(69.346826, 623.776941) scale(1, -1) translate(-69.346826, -623.776941) " points="36.5193317 603.084537 36.5193317 644.468348 68.3360585 662.826805 102.17432 643.301624 102.17432 604.251261 68.3360585 584.727077"></polygon>
                    <polygon id="Fill-69" fill="#EBEBEB" transform="translate(474.402785, 623.777041) scale(1, -1) translate(-474.402785, -623.777041) " points="508.241546 643.302222 474.402286 662.827404 440.564024 643.302222 440.564024 604.251859 474.402286 584.726678 508.241546 604.251859"></polygon>
                    <polygon id="Fill-71" fill="#F6F6F6" transform="translate(237.530461, 565.190029) scale(1, -1) translate(-237.530461, -565.190029) " points="271.369222 584.71521 237.529963 604.240392 203.691701 584.71521 203.691701 545.664847 237.529963 526.139666 271.369222 545.664847"></polygon>
                    <polygon id="Fill-73" fill="#F6F6F6" transform="translate(305.208282, 565.190029) scale(1, -1) translate(-305.208282, -565.190029) " points="339.047043 584.71521 305.207784 604.240392 271.369522 584.71521 271.369522 545.664847 305.207784 526.139666 339.047043 545.664847"></polygon>
                    <polygon id="Fill-75" fill="#FAFAFA" transform="translate(372.886103, 565.190029) scale(1, -1) translate(-372.886103, -565.190029) " points="406.724864 584.71521 372.885605 604.240392 339.047343 584.71521 339.047343 545.664847 372.885605 526.139666 406.724864 545.664847"></polygon>
                    <polygon id="Fill-77" fill="#ECECEC" transform="translate(440.838761, 565.050363) scale(1, -1) translate(-440.838761, -565.050363) " points="474.677522 584.575544 440.838262 604.100726 407 584.575544 407 545.525181 440.838262 526 474.677522 545.525181"></polygon>
                    <polygon id="Fill-77-Copy" fill="#ECECEC" transform="translate(34.838761, 96.050363) scale(1, -1) translate(-34.838761, -96.050363) " points="68.6775217 115.575544 34.8382619 135.100726 1 115.575544 1 76.5251815 34.8382619 57 68.6775217 76.5251815"></polygon>
                    <polygon id="Fill-79" fill="#F0F0F0" transform="translate(169.594281, 564.980887) scale(1, -1) translate(-169.594281, -564.980887) " points="203.433042 584.506069 169.593782 604.03125 135.755521 584.506069 135.755521 545.455706 169.593782 525.930524 203.433042 545.455706"></polygon>
                    <polygon id="Fill-79-Copy" fill="#E6BB83" transform="translate(203.691601, 505.838762) scale(1, -1) translate(-203.691601, -505.838762) " points="237.530362 525.363944 203.691102 544.889125 169.85284 525.363944 169.85284 486.313581 203.691102 466.788399 237.530362 486.313581"></polygon>
                    <polygon id="Fill-81" fill="#F6F6F6" transform="translate(102.174720, 565.189929) scale(1, -1) translate(-102.174720, -565.189929) " points="136.01348 584.71511 102.174221 604.240292 68.3359588 584.71511 68.3359588 545.664748 102.174221 526.139566 136.01348 545.664748"></polygon>
                    <polygon id="Fill-83" fill="#ECECEC" transform="translate(52.427695, 565.189730) scale(1, -1) translate(-52.427695, -565.189730) " points="36.5193317 603.073368 68.3360585 584.714911 68.3360585 545.664548 36.5193317 527.306091"></polygon>
                    <polygon id="Fill-119" fill="#E6BA83" transform="translate(812.541743, 740.858425) scale(1, -1) translate(-812.541743, -740.858425) " points="846.380504 760.383607 812.541244 779.908788 778.702982 760.383607 778.702982 721.333244 812.541244 701.808062 846.380504 721.333244"></polygon>
                    <polygon id="Fill-129" fill="#F6F6F6" transform="translate(677.186001, 740.858425) scale(1, -1) translate(-677.186001, -740.858425) " points="711.024762 760.383607 677.185502 779.908788 643.34724 760.383607 643.34724 721.333244 677.185502 701.808062 711.024762 721.333244"></polygon>
                    <polygon id="Fill-135" fill="#F6F6F6" transform="translate(778.702782, 682.308110) scale(1, -1) translate(-778.702782, -682.308110) " points="812.541543 701.833292 778.702283 721.358473 744.864021 701.833292 744.864021 662.782929 778.702283 643.257747 812.541543 662.782929"></polygon>
                    <polygon id="Fill-137" fill="#F6F6F6" transform="translate(711.024961, 682.308110) scale(1, -1) translate(-711.024961, -682.308110) " points="744.863722 701.833292 711.024462 721.358473 677.1862 701.833292 677.1862 662.782929 711.024462 643.257747 744.863722 662.782929"></polygon>
                    <polygon id="Fill-141" fill="#ECECEC" transform="translate(914.058424, 682.308110) scale(1, -1) translate(-914.058424, -682.308110) " points="947.897185 701.833292 914.057925 721.358473 880.219664 701.833292 880.219664 662.782929 914.057925 643.257747 947.897185 662.782929"></polygon>
                    <polygon id="Fill-145" fill="#FAFAFA" transform="translate(643.347040, 682.308110) scale(1, -1) translate(-643.347040, -682.308110) " points="677.185801 701.833292 643.346542 721.358473 609.50828 701.833292 609.50828 662.782929 643.346542 643.257747 677.185801 662.782929"></polygon>
                    <polygon id="Fill-151" fill="#F6F6F6" transform="translate(508.006365, 682.308110) scale(1, -1) translate(-508.006365, -682.308110) " points="541.845126 701.833292 508.005866 721.358473 474.167605 701.833292 474.167605 662.782929 508.005866 643.257747 541.845126 662.782929"></polygon>
                    <polygon id="Fill-153" fill="#F6F6F6" transform="translate(812.541743, 623.720998) scale(1, -1) translate(-812.541743, -623.720998) " points="846.380504 643.24618 812.541244 662.771361 778.702982 643.24618 778.702982 604.195817 812.541244 584.670635 846.380504 604.195817"></polygon>
                    <polygon id="Fill-155" fill="#F6F6F6" transform="translate(880.219564, 623.720998) scale(1, -1) translate(-880.219564, -623.720998) " points="914.058325 643.24618 880.219065 662.771361 846.380803 643.24618 846.380803 604.195817 880.219065 584.670635 914.058325 604.195817"></polygon>
                    <polygon id="Fill-157" fill="#FAFAFA" transform="translate(947.897385, 623.720998) scale(1, -1) translate(-947.897385, -623.720998) " points="981.736146 643.24618 947.896886 662.771361 914.058624 643.24618 914.058624 604.195817 947.896886 584.670635 981.736146 604.195817"></polygon>
                    <polygon id="Fill-159" fill="#ECECEC" transform="translate(1015.575206, 623.720998) scale(1, -1) translate(-1015.575206, -623.720998) " points="1049.41397 643.24618 1015.57471 662.771361 981.736445 643.24618 981.736445 604.195817 1015.57471 584.670635 1049.41397 604.195817"></polygon>
                    <polygon id="Fill-161" fill="#F0F0F0" transform="translate(744.863822, 623.720898) scale(1, -1) translate(-744.863822, -623.720898) " points="778.702583 643.24608 744.863323 662.771261 711.025061 643.24608 711.025061 604.195717 744.863323 584.670536 778.702583 604.195717"></polygon>
                    <polygon id="Fill-163" fill="#F6F6F6" transform="translate(677.186001, 623.720898) scale(1, -1) translate(-677.186001, -623.720898) " points="711.024762 643.24608 677.185502 662.771261 643.34724 643.24608 643.34724 604.195717 677.185502 584.670536 711.024762 604.195717"></polygon>
                    <polygon id="Fill-165" fill="#ECECEC" transform="translate(609.508180, 623.720898) scale(1, -1) translate(-609.508180, -623.720898) " points="643.346941 643.24608 609.507681 662.771261 575.669419 643.24608 575.669419 604.195717 609.507681 584.670536 643.346941 604.195717"></polygon>
                    <polygon id="Fill-171" fill="#F6F6F6" transform="translate(136.013680, 505.838762) scale(1, -1) translate(-136.013680, -505.838762) " points="169.852441 525.363944 136.013181 544.889125 102.174919 525.363944 102.174919 486.313581 136.013181 466.788399 169.852441 486.313581"></polygon>
                    <polygon id="Fill-173" fill="#F6F6F6" transform="translate(271.369422, 505.838762) scale(1, -1) translate(-271.369422, -505.838762) " points="305.208183 525.363944 271.368923 544.889125 237.530661 525.363944 237.530661 486.313581 271.368923 466.788399 305.208183 486.313581"></polygon>
                    <polygon id="Fill-177" fill="#FAFAFA" transform="translate(406.725064, 505.838762) scale(1, -1) translate(-406.725064, -505.838762) " points="440.563825 525.363944 406.724565 544.889125 372.886303 525.363944 372.886303 486.313581 406.724565 466.788399 440.563825 486.313581"></polygon>
                    <polygon id="Fill-179" fill="#F6F6F6" transform="translate(69.346826, 505.838264) scale(1, -1) translate(-69.346826, -505.838264) " points="36.5193317 485.145859 36.5193317 526.529671 68.3360585 544.889125 102.17432 525.362946 102.17432 486.312584 68.3360585 466.787402"></polygon>
                    <polygon id="Fill-181" fill="#F0F0F0" transform="translate(474.402785, 505.838762) scale(1, -1) translate(-474.402785, -505.838762) " points="508.241546 525.363944 474.402286 544.889125 440.564024 525.363944 440.564024 486.313581 474.402286 466.788399 508.241546 486.313581"></polygon>
                    <polygon id="Fill-183" fill="#F0F0F0" transform="translate(237.530461, 447.251650) scale(1, -1) translate(-237.530461, -447.251650) " points="271.369222 466.776832 237.529963 486.302013 203.691701 466.776832 203.691701 427.726469 237.529963 408.201287 271.369222 427.726469"></polygon>
                    <polygon id="Fill-185" fill="#F6F6F6" transform="translate(305.208282, 447.251650) scale(1, -1) translate(-305.208282, -447.251650) " points="339.047043 466.776832 305.207784 486.302013 271.369522 466.776832 271.369522 427.726469 305.207784 408.201287 339.047043 427.726469"></polygon>
                    <polygon id="Fill-187" fill="#F6F6F6" transform="translate(372.886103, 447.251650) scale(1, -1) translate(-372.886103, -447.251650) " points="406.724864 466.776832 372.885605 486.302013 339.047343 466.776832 339.047343 427.726469 372.885605 408.201287 406.724864 427.726469"></polygon>
                    <polygon id="Fill-189" fill="#FAFAFA" transform="translate(440.563924, 447.251650) scale(1, -1) translate(-440.563924, -447.251650) " points="474.402685 466.776832 440.563426 486.302013 406.725164 466.776832 406.725164 427.726469 440.563426 408.201287 474.402685 427.726469"></polygon>
                    <polygon id="Fill-191" fill="#F6F6F6" transform="translate(169.852640, 447.251551) scale(1, -1) translate(-169.852640, -447.251551) " points="203.691401 466.776732 169.852142 486.301914 136.01388 466.776732 136.01388 427.726369 169.852142 408.201188 203.691401 427.726369"></polygon>
                    <polygon id="Fill-193" fill="#F0F0F0" transform="translate(102.174720, 447.251551) scale(1, -1) translate(-102.174720, -447.251551) " points="136.01348 466.776732 102.174221 486.301914 68.3359588 466.776732 68.3359588 427.726369 102.174221 408.201188 136.01348 427.726369"></polygon>
                    <polygon id="Fill-195" fill="#F6F6F6" transform="translate(52.427695, 447.251251) scale(1, -1) translate(-52.427695, -447.251251) " points="36.5193317 485.134391 68.3360585 466.776931 68.3360585 427.725571 36.5193317 409.368111"></polygon>
                    <polygon id="Fill-199" fill="#FAFAFA" transform="translate(136.013680, 388.664439) scale(1, -1) translate(-136.013680, -388.664439) " points="169.852441 408.18962 136.013181 427.714802 102.174919 408.18962 102.174919 369.139257 136.013181 349.614076 169.852441 369.139257"></polygon>
                    <polygon id="Fill-201" fill="#F6F6F6" transform="translate(271.369422, 388.664439) scale(1, -1) translate(-271.369422, -388.664439) " points="305.208183 408.18962 271.368923 427.714802 237.530661 408.18962 237.530661 369.139257 271.368923 349.614076 305.208183 369.139257"></polygon>
                    <polygon id="Fill-203" fill="#FAFAFA" transform="translate(339.047243, 388.664439) scale(1, -1) translate(-339.047243, -388.664439) " points="372.886004 408.18962 339.046744 427.714802 305.208482 408.18962 305.208482 369.139257 339.046744 349.614076 372.886004 369.139257"></polygon>
                    <polygon id="Fill-205" fill="#F6F6F6" transform="translate(406.725064, 388.664439) scale(1, -1) translate(-406.725064, -388.664439) " points="440.563825 408.18962 406.724565 427.714802 372.886303 408.18962 372.886303 369.139257 406.724565 349.614076 440.563825 369.139257"></polygon>
                    <polygon id="Fill-207" fill="#FAFAFA" transform="translate(69.346826, 388.664140) scale(1, -1) translate(-69.346826, -388.664140) " points="36.5193317 367.971735 36.5193317 409.355547 68.3360585 427.715001 102.17432 408.188822 102.17432 369.138459 68.3360585 349.613278"></polygon>
                    <polygon id="Fill-209" fill="#F0F0F0" transform="translate(474.402785, 388.664439) scale(1, -1) translate(-474.402785, -388.664439) " points="508.241546 408.18962 474.402286 427.714802 440.564024 408.18962 440.564024 369.139257 474.402286 349.614076 508.241546 369.139257"></polygon>
                    <polygon id="Fill-211" fill="#F6F6F6" transform="translate(237.530461, 330.077427) scale(1, -1) translate(-237.530461, -330.077427) " points="271.369222 349.602608 237.529963 369.127789 203.691701 349.602608 203.691701 310.552245 237.529963 291.027064 271.369222 310.552245"></polygon>
                    <polygon id="Fill-213" fill="#F6F6F6" transform="translate(304.838761, 330.050363) scale(1, -1) translate(-304.838761, -330.050363) " points="338.677522 349.575544 304.838262 369.100726 271 349.575544 271 310.525181 304.838262 291 338.677522 310.525181"></polygon>
                    <polygon id="Fill-213-Copy" fill="#F6F6F6" transform="translate(169.838761, 213.050363) scale(1, -1) translate(-169.838761, -213.050363) " points="203.677522 232.575544 169.838262 252.100726 136 232.575544 136 193.525181 169.838262 174 203.677522 193.525181"></polygon>
                    <polygon id="Fill-217" fill="#FAFAFA" transform="translate(440.563924, 330.077427) scale(1, -1) translate(-440.563924, -330.077427) " points="474.402685 349.602608 440.563426 369.127789 406.725164 349.602608 406.725164 310.552245 440.563426 291.027064 474.402685 310.552245"></polygon>
                    <polygon id="Fill-219" fill="#F6F6F6" transform="translate(169.852640, 330.077427) scale(1, -1) translate(-169.852640, -330.077427) " points="203.691401 349.602608 169.852142 369.127789 136.01388 349.602608 136.01388 310.552245 169.852142 291.027064 203.691401 310.552245"></polygon>
                    <polygon id="Fill-221" fill="#F6F6F6" transform="translate(102.174720, 330.077427) scale(1, -1) translate(-102.174720, -330.077427) " points="136.01348 349.602608 102.174221 369.127789 68.3359588 349.602608 68.3359588 310.552245 102.174221 291.027064 136.01348 310.552245"></polygon>
                    <polygon id="Fill-223" fill="#00B4CB" transform="translate(34.496899, 330.077427) scale(1, -1) translate(-34.496899, -330.077427) " points="68.3356594 349.602608 34.4963997 369.127789 0.658137738 349.602608 0.658137738 310.552245 34.4963997 291.027064 68.3356594 310.552245"></polygon>
                    <polygon id="Fill-226" fill="#F6F6F6" transform="translate(203.691601, 271.527012) scale(1, -1) translate(-203.691601, -271.527012) " points="237.530362 291.052193 203.691102 310.577374 169.85284 291.052193 169.85284 252.00183 203.691102 232.476649 237.530362 252.00183"></polygon>
                    <polygon id="Fill-228" fill="#F6F6F6" transform="translate(135.838761, 271.050363) scale(1, -1) translate(-135.838761, -271.050363) " points="169.677522 290.575544 135.838262 310.100726 102 290.575544 102 251.525181 135.838262 232 169.677522 251.525181"></polygon>
                    <polygon id="Fill-230" fill="#F0F0F0" transform="translate(271.369422, 271.527012) scale(1, -1) translate(-271.369422, -271.527012) " points="305.208183 291.052193 271.368923 310.577374 237.530661 291.052193 237.530661 252.00183 271.368923 232.476649 305.208183 252.00183"></polygon>
                    <polygon id="Fill-232" fill="#ECECEC" transform="translate(338.838761, 271.050363) scale(1, -1) translate(-338.838761, -271.050363) " points="372.677522 290.575544 338.838262 310.100726 305 290.575544 305 251.525181 338.838262 232 372.677522 251.525181"></polygon>
                    <polygon id="Fill-232-Copy" fill="#ECECEC" transform="translate(136.013680, 154.652845) scale(1, -1) translate(-136.013680, -154.652845) " points="169.852441 174.178027 136.013181 193.703208 102.174919 174.178027 102.174919 135.127664 136.013181 115.602482 169.852441 135.127664"></polygon>
                    <polygon id="Fill-236" fill="#FAFAFA" transform="translate(68.335859, 271.527012) scale(1, -1) translate(-68.335859, -271.527012) " points="102.17462 291.052193 68.3353601 310.577374 34.4970981 291.052193 34.4970981 252.00183 68.3353601 232.476649 102.17462 252.00183"></polygon>
                    <polygon id="Fill-239" fill="#F6F6F6" transform="translate(474.402785, 271.527012) scale(1, -1) translate(-474.402785, -271.527012) " points="508.241546 291.052193 474.402286 310.577374 440.564024 291.052193 440.564024 252.00183 474.402286 232.476649 508.241546 252.00183"></polygon>
                    <polygon id="Fill-243" fill="#F48365" transform="translate(305.208282, 212.939900) scale(1, -1) translate(-305.208282, -212.939900) " points="339.047043 232.465081 305.207784 251.990263 271.369522 232.465081 271.369522 193.414718 305.207784 173.889537 339.047043 193.414718"></polygon>
                    <polygon id="Fill-247" fill="#ECECEC" transform="translate(440.563924, 212.939900) scale(1, -1) translate(-440.563924, -212.939900) " points="474.402685 232.465081 440.563426 251.990263 406.725164 232.465081 406.725164 193.414718 440.563426 173.889537 474.402685 193.414718"></polygon>
                    <polygon id="Fill-249" fill="#F6F6F6" transform="translate(102.174720, 212.939900) scale(1, -1) translate(-102.174720, -212.939900) " points="136.01348 232.465081 102.174221 251.990263 68.3359588 232.465081 68.3359588 193.414718 102.174221 173.889537 136.01348 193.414718"></polygon>
                    <polygon id="Fill-251" fill="#ECECEC" transform="translate(34.496899, 212.939900) scale(1, -1) translate(-34.496899, -212.939900) " points="68.3356594 232.465081 34.4963997 251.990263 0.658137738 232.465081 0.658137738 193.414718 34.4963997 173.889537 68.3356594 193.414718"></polygon>
                    <polygon id="Fill-255" fill="#F6F6F6" transform="translate(778.702782, 564.369732) scale(1, -1) translate(-778.702782, -564.369732) " points="812.541543 583.894913 778.702283 603.420095 744.864021 583.894913 744.864021 544.84455 778.702283 525.319369 812.541543 544.84455"></polygon>
                    <polygon id="Fill-257" fill="#F6F6F6" transform="translate(711.024961, 564.369732) scale(1, -1) translate(-711.024961, -564.369732) " points="744.863722 583.894913 711.024462 603.420095 677.1862 583.894913 677.1862 544.84455 711.024462 525.319369 744.863722 544.84455"></polygon>
                    <polygon id="Fill-259" fill="#F6F6F6" transform="translate(846.380703, 564.369732) scale(1, -1) translate(-846.380703, -564.369732) " points="880.219464 583.894913 846.380204 603.420095 812.541942 583.894913 812.541942 544.84455 846.380204 525.319369 880.219464 544.84455"></polygon>
                    <polygon id="Fill-261" fill="#F0F0F0" transform="translate(914.058424, 564.369732) scale(1, -1) translate(-914.058424, -564.369732) " points="947.897185 583.894913 914.057925 603.420095 880.219664 583.894913 880.219664 544.84455 914.057925 525.319369 947.897185 544.84455"></polygon>
                    <polygon id="Fill-263" fill="#FAFAFA" transform="translate(981.736345, 564.369732) scale(1, -1) translate(-981.736345, -564.369732) " points="1015.57511 583.894913 981.735846 603.420095 947.897584 583.894913 947.897584 544.84455 981.735846 525.319369 1015.57511 544.84455"></polygon>
                    <polygon id="Fill-265" fill="#F6F6F6" transform="translate(643.347040, 564.369732) scale(1, -1) translate(-643.347040, -564.369732) " points="677.185801 583.894913 643.346542 603.420095 609.50828 583.894913 609.50828 544.84455 643.346542 525.319369 677.185801 544.84455"></polygon>
                    <polygon id="Fill-267" fill="#ECECEC" transform="translate(575.669219, 564.369732) scale(1, -1) translate(-575.669219, -564.369732) " points="609.50798 583.894913 575.668721 603.420095 541.830459 583.894913 541.830459 544.84455 575.668721 525.319369 609.50798 544.84455"></polygon>
                    <polygon id="Fill-269" fill="#F0F0F0" transform="translate(1049.413967, 564.369732) scale(1, -1) translate(-1049.413967, -564.369732) " points="1083.25273 583.894913 1049.41347 603.420095 1015.57521 583.894913 1015.57521 544.84455 1049.41347 525.319369 1083.25273 544.84455"></polygon>
                    <polygon id="Fill-271" fill="#F6F6F6" transform="translate(508.006365, 564.369732) scale(1, -1) translate(-508.006365, -564.369732) " points="541.845126 583.894913 508.005866 603.420095 474.167605 583.894913 474.167605 544.84455 508.005866 525.319369 541.845126 544.84455"></polygon>
                    <polygon id="Fill-273" fill="#F0F0F0" transform="translate(812.541743, 505.782620) scale(1, -1) translate(-812.541743, -505.782620) " points="846.380504 525.307801 812.541244 544.832983 778.702982 525.307801 778.702982 486.257438 812.541244 466.732257 846.380504 486.257438"></polygon>
                    <polygon id="Fill-275" fill="#F6F6F6" transform="translate(880.219564, 505.782620) scale(1, -1) translate(-880.219564, -505.782620) " points="914.058325 525.307801 880.219065 544.832983 846.380803 525.307801 846.380803 486.257438 880.219065 466.732257 914.058325 486.257438"></polygon>
                    <polygon id="Fill-277" fill="#F6F6F6" transform="translate(947.838761, 506.050363) scale(1, -1) translate(-947.838761, -506.050363) " points="981.677522 525.575544 947.838262 545.100726 914 525.575544 914 486.525181 947.838262 467 981.677522 486.525181"></polygon>
                    <polygon id="Fill-277-Copy" fill="#00B1B0" transform="translate(1353.838761, 39.050363) scale(1, -1) translate(-1353.838761, -39.050363) " points="1387.67752 58.5755444 1353.83826 78.1007258 1320 58.5755444 1320 19.5251815 1353.83826 -5.68434189e-14 1387.67752 19.5251815"></polygon>
                    <polygon id="Fill-279" fill="#FAFAFA" transform="translate(1015.575206, 505.782620) scale(1, -1) translate(-1015.575206, -505.782620) " points="1049.41397 525.307801 1015.57471 544.832983 981.736445 525.307801 981.736445 486.257438 1015.57471 466.732257 1049.41397 486.257438"></polygon>
                    <polygon id="Fill-281" fill="#F6F6F6" transform="translate(744.863822, 505.782520) scale(1, -1) translate(-744.863822, -505.782520) " points="778.702583 525.307702 744.863323 544.832883 711.025061 525.307702 711.025061 486.257339 744.863323 466.732157 778.702583 486.257339"></polygon>
                    <polygon id="Fill-283" fill="#F0F0F0" transform="translate(677.186001, 505.782520) scale(1, -1) translate(-677.186001, -505.782520) " points="711.024762 525.307702 677.185502 544.832883 643.34724 525.307702 643.34724 486.257339 677.185502 466.732157 711.024762 486.257339"></polygon>
                    <polygon id="Fill-285" fill="#F6F6F6" transform="translate(609.508180, 505.782520) scale(1, -1) translate(-609.508180, -505.782520) " points="643.346941 525.307702 609.507681 544.832883 575.669419 525.307702 575.669419 486.257339 609.507681 466.732157 643.346941 486.257339"></polygon>
                    <polygon id="Fill-287" fill="#FAFAFA" transform="translate(541.935726, 505.782520) scale(1, -1) translate(-541.935726, -505.782520) " points="575.774487 525.307702 541.935227 544.832883 508.096965 525.307702 508.096965 486.257339 541.935227 466.732157 575.774487 486.257339"></polygon>
                    <polygon id="Fill-289" fill="#F6F6F6" transform="translate(778.702782, 447.195508) scale(1, -1) translate(-778.702782, -447.195508) " points="812.541543 466.720689 778.702283 486.245871 744.864021 466.720689 744.864021 427.670326 778.702283 408.145145 812.541543 427.670326"></polygon>
                    <polygon id="Fill-291" fill="#FAFAFA" transform="translate(711.024961, 447.195508) scale(1, -1) translate(-711.024961, -447.195508) " points="744.863722 466.720689 711.024462 486.245871 677.1862 466.720689 677.1862 427.670326 711.024462 408.145145 744.863722 427.670326"></polygon>
                    <polygon id="Fill-293" fill="#F6F6F6" transform="translate(846.380703, 447.195508) scale(1, -1) translate(-846.380703, -447.195508) " points="880.219464 466.720689 846.380204 486.245871 812.541942 466.720689 812.541942 427.670326 846.380204 408.145145 880.219464 427.670326"></polygon>
                    <polygon id="Fill-295" fill="#FAFAFA" transform="translate(914.058424, 447.195508) scale(1, -1) translate(-914.058424, -447.195508) " points="947.897185 466.720689 914.057925 486.245871 880.219664 466.720689 880.219664 427.670326 914.057925 408.145145 947.897185 427.670326"></polygon>
                    <polygon id="Fill-297" fill="#F6F6F6" transform="translate(981.736345, 447.195508) scale(1, -1) translate(-981.736345, -447.195508) " points="1015.57511 466.720689 981.735846 486.245871 947.897584 466.720689 947.897584 427.670326 981.735846 408.145145 1015.57511 427.670326"></polygon>
                    <polygon id="Fill-299" fill="#FAFAFA" transform="translate(643.347040, 447.195508) scale(1, -1) translate(-643.347040, -447.195508) " points="677.185801 466.720689 643.346542 486.245871 609.50828 466.720689 609.50828 427.670326 643.346542 408.145145 677.185801 427.670326"></polygon>
                    <polygon id="Fill-301" fill="#F6F6F6" transform="translate(575.669219, 447.195508) scale(1, -1) translate(-575.669219, -447.195508) " points="609.50798 466.720689 575.668721 486.245871 541.830459 466.720689 541.830459 427.670326 575.668721 408.145145 609.50798 427.670326"></polygon>
                    <polygon id="Fill-303" fill="#F0F0F0" transform="translate(1049.413967, 447.195508) scale(1, -1) translate(-1049.413967, -447.195508) " points="1083.25273 466.720689 1049.41347 486.245871 1015.57521 466.720689 1015.57521 427.670326 1049.41347 408.145145 1083.25273 427.670326"></polygon>
                    <polygon id="Fill-305" fill="#F6F6F6" transform="translate(508.006365, 447.195508) scale(1, -1) translate(-508.006365, -447.195508) " points="541.845126 466.720689 508.005866 486.245871 474.167605 466.720689 474.167605 427.670326 508.005866 408.145145 541.845126 427.670326"></polygon>
                    <polygon id="Fill-307" fill="#F6F6F6" transform="translate(812.541743, 388.608396) scale(1, -1) translate(-812.541743, -388.608396) " points="846.380504 408.133577 812.541244 427.658759 778.702982 408.133577 778.702982 369.083215 812.541244 349.558033 846.380504 369.083215"></polygon>
                    <polygon id="Fill-309" fill="#FAFAFA" transform="translate(880.219564, 388.608396) scale(1, -1) translate(-880.219564, -388.608396) " points="914.058325 408.133577 880.219065 427.658759 846.380803 408.133577 846.380803 369.083215 880.219065 349.558033 914.058325 369.083215"></polygon>
                    <polygon id="Fill-311" fill="#F6F6F6" transform="translate(947.897385, 388.608396) scale(1, -1) translate(-947.897385, -388.608396) " points="981.736146 408.133577 947.896886 427.658759 914.058624 408.133577 914.058624 369.083215 947.896886 349.558033 981.736146 369.083215"></polygon>
                    <polygon id="Fill-313" fill="#FAFAFA" transform="translate(1015.575206, 388.608396) scale(1, -1) translate(-1015.575206, -388.608396) " points="1049.41397 408.133577 1015.57471 427.658759 981.736445 408.133577 981.736445 369.083215 1015.57471 349.558033 1049.41397 369.083215"></polygon>
                    <polygon id="Fill-315" fill="#F6F6F6" transform="translate(744.863822, 388.608396) scale(1, -1) translate(-744.863822, -388.608396) " points="778.702583 408.133577 744.863323 427.658759 711.025061 408.133577 711.025061 369.083215 744.863323 349.558033 778.702583 369.083215"></polygon>
                    <polygon id="Fill-317" fill="#F6F6F6" transform="translate(677.186001, 388.608396) scale(1, -1) translate(-677.186001, -388.608396) " points="711.024762 408.133577 677.185502 427.658759 643.34724 408.133577 643.34724 369.083215 677.185502 349.558033 711.024762 369.083215"></polygon>
                    <polygon id="Fill-319" fill="#F6F6F6" transform="translate(609.508180, 388.608396) scale(1, -1) translate(-609.508180, -388.608396) " points="643.346941 408.133577 609.507681 427.658759 575.669419 408.133577 575.669419 369.083215 609.507681 349.558033 643.346941 369.083215"></polygon>
                    <polygon id="Fill-321" fill="#ECECEC" transform="translate(541.935726, 388.608396) scale(1, -1) translate(-541.935726, -388.608396) " points="575.774487 408.133577 541.935227 427.658759 508.096965 408.133577 508.096965 369.083215 541.935227 349.558033 575.774487 369.083215"></polygon>
                    <polygon id="Fill-323" fill="#F6F6F6" transform="translate(778.702782, 330.057981) scale(1, -1) translate(-778.702782, -330.057981) " points="812.541543 349.583163 778.702283 369.108344 744.864021 349.583163 744.864021 310.5328 778.702283 291.007618 812.541543 310.5328"></polygon>
                    <polygon id="Fill-325" fill="#F6F6F6" transform="translate(711.024961, 330.057981) scale(1, -1) translate(-711.024961, -330.057981) " points="744.863722 349.583163 711.024462 369.108344 677.1862 349.583163 677.1862 310.5328 711.024462 291.007618 744.863722 310.5328"></polygon>
                    <polygon id="Fill-327" fill="#F0F0F0" transform="translate(846.380703, 330.057981) scale(1, -1) translate(-846.380703, -330.057981) " points="880.219464 349.583163 846.380204 369.108344 812.541942 349.583163 812.541942 310.5328 846.380204 291.007618 880.219464 310.5328"></polygon>
                    <polygon id="Fill-329" fill="#ECECEC" transform="translate(914.058424, 330.057981) scale(1, -1) translate(-914.058424, -330.057981) " points="947.897185 349.583163 914.057925 369.108344 880.219664 349.583163 880.219664 310.5328 914.057925 291.007618 947.897185 310.5328"></polygon>
                    <polygon id="Fill-331" fill="#F6F6F6" transform="translate(981.736345, 330.057981) scale(1, -1) translate(-981.736345, -330.057981) " points="1015.57511 349.583163 981.735846 369.108344 947.897584 349.583163 947.897584 310.5328 981.735846 291.007618 1015.57511 310.5328"></polygon>
                    <polygon id="Fill-333" fill="#FAFAFA" transform="translate(643.347040, 330.057981) scale(1, -1) translate(-643.347040, -330.057981) " points="677.185801 349.583163 643.346542 369.108344 609.50828 349.583163 609.50828 310.5328 643.346542 291.007618 677.185801 310.5328"></polygon>
                    <polygon id="Fill-335" fill="#F6F6F6" transform="translate(575.669219, 330.057981) scale(1, -1) translate(-575.669219, -330.057981) " points="609.50798 349.583163 575.668721 369.108344 541.830459 349.583163 541.830459 310.5328 575.668721 291.007618 609.50798 310.5328"></polygon>
                    <polygon id="Fill-337" fill="#F6F6F6" transform="translate(1049.838761, 330.050363) scale(1, -1) translate(-1049.838761, -330.050363) " points="1083.67752 349.575544 1049.83826 369.100726 1016 349.575544 1016 310.525181 1049.83826 291 1083.67752 310.525181"></polygon>
                    <polygon id="Fill-337-Copy" fill="#F6F6F6" transform="translate(981.838761, 213.050363) scale(1, -1) translate(-981.838761, -213.050363) " points="1015.67752 232.575544 981.838262 252.100726 948 232.575544 948 193.525181 981.838262 174 1015.67752 193.525181"></polygon>
                    <polygon id="Fill-339" fill="#F6F6F6" transform="translate(508.006365, 330.057981) scale(1, -1) translate(-508.006365, -330.057981) " points="541.845126 349.583163 508.005866 369.108344 474.167605 349.583163 474.167605 310.5328 508.005866 291.007618 541.845126 310.5328"></polygon>
                    <polygon id="Fill-343" fill="#F6F6F6" transform="translate(880.219564, 271.470869) scale(1, -1) translate(-880.219564, -271.470869) " points="914.058325 290.996051 880.219065 310.521232 846.380803 290.996051 846.380803 251.945688 880.219065 232.420506 914.058325 251.945688"></polygon>
                    <polygon id="Fill-345" fill="#FAFAFA" transform="translate(947.838761, 271.050363) scale(1, -1) translate(-947.838761, -271.050363) " points="981.677522 290.575544 947.838262 310.100726 914 290.575544 914 251.525181 947.838262 232 981.677522 251.525181"></polygon>
                    <polygon id="Fill-347" fill="#EBEBEB" transform="translate(1015.838761, 271.050363) scale(1, -1) translate(-1015.838761, -271.050363) " points="1049.67752 290.575544 1015.83826 310.100726 982 290.575544 982 251.525181 1015.83826 232 1049.67752 251.525181"></polygon>
                    <polygon id="Fill-349" fill="#F0F0F0" transform="translate(744.863822, 271.470869) scale(1, -1) translate(-744.863822, -271.470869) " points="778.702583 290.996051 744.863323 310.521232 711.025061 290.996051 711.025061 251.945688 744.863323 232.420506 778.702583 251.945688"></polygon>
                    <polygon id="Fill-351" fill="#F6F6F6" transform="translate(677.186001, 271.470869) scale(1, -1) translate(-677.186001, -271.470869) " points="711.024762 290.996051 677.185502 310.521232 643.34724 290.996051 643.34724 251.945688 677.185502 232.420506 711.024762 251.945688"></polygon>
                    <polygon id="Fill-353" fill="#ECECEC" transform="translate(609.838761, 271.050363) scale(1, -1) translate(-609.838761, -271.050363) " points="643.677522 290.575544 609.838262 310.100726 576 290.575544 576 251.525181 609.838262 232 643.677522 251.525181"></polygon>
                    <polygon id="Fill-355" fill="#F0F0F0" transform="translate(541.935726, 271.470869) scale(1, -1) translate(-541.935726, -271.470869) " points="575.774487 290.996051 541.935227 310.521232 508.096965 290.996051 508.096965 251.945688 541.935227 232.420506 575.774487 251.945688"></polygon>
                    <polygon id="Fill-359" fill="#F6F6F6" transform="translate(271.369422, 154.652845) scale(1, -1) translate(-271.369422, -154.652845) " points="305.208183 174.178027 271.368923 193.703208 237.530661 174.178027 237.530661 135.127664 271.368923 115.602482 305.208183 135.127664"></polygon>
                    <polygon id="Fill-365" fill="#F6F6F6" transform="translate(68.335859, 154.652845) scale(1, -1) translate(-68.335859, -154.652845) " points="102.17462 174.178027 68.3353601 193.703208 34.4970981 174.178027 34.4970981 135.127664 68.3353601 115.602482 102.17462 135.127664"></polygon>
                    <polygon id="Fill-407" fill="#F6F6F6" transform="translate(644.411889, 214.248027) scale(1, -1) translate(-644.411889, -214.248027) " points="678.250649 233.773208 644.41139 253.29839 610.573128 233.773208 610.573128 194.722846 644.41139 175.197664 678.250649 194.722846"></polygon>
                    <polygon id="Fill-409" fill="#EBEBEB" transform="translate(576.838761, 214.050363) scale(1, -1) translate(-576.838761, -214.050363) " points="610.677522 233.575544 576.838262 253.100726 543 233.575544 543 194.525181 576.838262 175 610.677522 194.525181"></polygon>
                    <polygon id="Fill-413" fill="#F6F6F6" transform="translate(509.071213, 214.248027) scale(1, -1) translate(-509.071213, -214.248027) " points="542.909974 233.773208 509.070715 253.29839 475.232453 233.773208 475.232453 194.722846 509.070715 175.197664 542.909974 194.722846"></polygon>
                    <polygon id="Fill-425" fill="#F6F6F6" transform="translate(610.573028, 155.660915) scale(1, -1) translate(-610.573028, -155.660915) " points="644.411789 175.186097 610.572529 194.711278 576.734267 175.186097 576.734267 136.135734 610.572529 116.610552 644.411789 136.135734"></polygon>
                    <polygon id="Fill-449" fill="#F6F6F6" transform="translate(1353.714064, 155.717057) scale(1, -1) translate(-1353.714064, -155.717057) " points="1387.55282 175.242239 1353.71356 194.76742 1319.8753 175.242239 1319.8753 136.191876 1353.71356 116.666695 1387.55282 136.191876"></polygon>
                    <polygon id="Fill-451" fill="#F6F6F6" transform="translate(1421.391885, 155.717057) scale(1, -1) translate(-1421.391885, -155.717057) " points="1455.23065 175.242239 1421.39139 194.76742 1387.55312 175.242239 1387.55312 136.191876 1421.39139 116.666695 1455.23065 136.191876"></polygon>
                    <polygon id="Fill-486" fill="#F6F6F6" transform="translate(1394.893711, 834.328301) scale(1, -1) translate(-1394.893711, -834.328301) " points="1390.27791 831.665278 1399.50952 836.991324 1399.50952 831.665278"></polygon>
                    <polygon id="Fill-494" fill="#F0F0F0" transform="translate(1376.611191, 798.721271) scale(1, -1) translate(-1376.611191, -798.721271) " points="1384.848 760.451217 1353.71376 778.414783 1353.71376 817.466143 1387.55302 836.991324 1399.50862 830.092693 1399.50862 765.78923 1390.25805 760.451217"></polygon>
                    <polygon id="Fill-496" fill="#F6F6F6" transform="translate(1319.874904, 798.721271) scale(1, -1) translate(-1319.874904, -798.721271) " points="1317.16988 760.451217 1286.03564 778.414783 1286.03564 817.466143 1319.8749 836.991324 1353.71416 817.466143 1353.71416 778.414783 1322.57993 760.451217"></polygon>
                    <polygon id="Fill-504" fill="#F6F6F6" transform="translate(1353.714064, 740.914667) scale(1, -1) translate(-1353.714064, -740.914667) " points="1387.55282 760.439849 1353.71356 779.96503 1319.8753 760.439849 1319.8753 721.389486 1353.71356 701.864304 1387.55282 721.389486"></polygon>
                    <polygon id="Fill-508" fill="#F6F6F6" transform="translate(1393.531220, 740.914667) scale(1, -1) translate(-1393.531220, -740.914667) " points="1387.55292 721.389486 1387.55292 760.439849 1399.50952 767.33848 1399.50952 714.490854"></polygon>
                    <polygon id="Fill-510" fill="#FAFAFA" transform="translate(1218.358322, 740.914667) scale(1, -1) translate(-1218.358322, -740.914667) " points="1252.19708 760.439849 1218.35782 779.96503 1184.51956 760.439849 1184.51956 721.389486 1218.35782 701.864304 1252.19708 721.389486"></polygon>
                    <polygon id="Fill-512" fill="#F6F6F6" transform="translate(1150.680401, 740.914667) scale(1, -1) translate(-1150.680401, -740.914667) " points="1184.51916 760.439849 1150.6799 779.96503 1116.84164 760.439849 1116.84164 721.389486 1150.6799 701.864304 1184.51916 721.389486"></polygon>
                    <polygon id="Fill-516" fill="#68C7C5" transform="translate(1376.611291, 682.327556) scale(1, -1) translate(-1376.611291, -682.327556) " points="1353.71386 662.802873 1353.71386 701.853236 1387.55312 721.37742 1399.50872 714.478788 1399.50872 650.176323 1387.55312 643.277691"></polygon>
                    <polygon id="Fill-518" fill="#F6F6F6" transform="translate(1319.875103, 682.327456) scale(1, -1) translate(-1319.875103, -682.327456) " points="1353.71386 701.852637 1319.8746 721.377819 1286.03634 701.852637 1286.03634 662.802274 1319.8746 643.277093 1353.71386 662.802274"></polygon>
                    <polygon id="Fill-520" fill="#F6F6F6" transform="translate(1252.197182, 682.327456) scale(1, -1) translate(-1252.197182, -682.327456) " points="1286.03594 701.852637 1252.19668 721.377819 1218.35842 701.852637 1218.35842 662.802274 1252.19668 643.277093 1286.03594 662.802274"></polygon>
                    <polygon id="Fill-522" fill="#F6F6F6" transform="translate(1184.519361, 682.327456) scale(1, -1) translate(-1184.519361, -682.327456) " points="1218.35812 701.852637 1184.51886 721.377819 1150.6806 701.852637 1150.6806 662.802274 1184.51886 643.277093 1218.35812 662.802274"></polygon>
                    <polygon id="Fill-524" fill="#ECECEC" transform="translate(1116.947007, 682.327456) scale(1, -1) translate(-1116.947007, -682.327456) " points="1150.78577 701.852637 1116.94651 721.377819 1083.10825 701.852637 1083.10825 662.802274 1116.94651 643.277093 1150.78577 662.802274"></polygon>
                    <polygon id="Fill-526" fill="#F6F6F6" transform="translate(1353.714064, 623.777041) scale(1, -1) translate(-1353.714064, -623.777041) " points="1387.55282 643.302222 1353.71356 662.827404 1319.8753 643.302222 1319.8753 604.251859 1353.71356 584.726678 1387.55282 604.251859"></polygon>
                    <polygon id="Fill-528" fill="#F6F6F6" transform="translate(1286.036143, 623.777041) scale(1, -1) translate(-1286.036143, -623.777041) " points="1319.8749 643.302222 1286.03564 662.827404 1252.19738 643.302222 1252.19738 604.251859 1286.03564 584.726678 1319.8749 604.251859"></polygon>
                    <polygon id="Fill-530" fill="#F0F0F0" transform="translate(1393.531220, 623.777340) scale(1, -1) translate(-1393.531220, -623.777340) " points="1387.55292 604.252159 1387.55292 643.302521 1399.50952 650.201153 1399.50952 597.353527"></polygon>
                    <polygon id="Fill-532" fill="#FAFAFA" transform="translate(1218.358322, 623.777041) scale(1, -1) translate(-1218.358322, -623.777041) " points="1252.19708 643.302222 1218.35782 662.827404 1184.51956 643.302222 1184.51956 604.251859 1218.35782 584.726678 1252.19708 604.251859"></polygon>
                    <polygon id="Fill-534" fill="#F6F6F6" transform="translate(1150.680401, 623.777041) scale(1, -1) translate(-1150.680401, -623.777041) " points="1184.51916 643.302222 1150.6799 662.827404 1116.84164 643.302222 1116.84164 604.251859 1150.6799 584.726678 1184.51916 604.251859"></polygon>
                    <polygon id="Fill-536" fill="#F6F6F6" transform="translate(1083.017647, 623.777041) scale(1, -1) translate(-1083.017647, -623.777041) " points="1116.85641 643.302222 1083.01715 662.827404 1049.17889 643.302222 1049.17889 604.251859 1083.01715 584.726678 1116.85641 604.251859"></polygon>
                    <polygon id="Fill-538" fill="#F6F6F6" transform="translate(1376.611291, 565.189829) scale(1, -1) translate(-1376.611291, -565.189829) " points="1353.71386 545.664648 1353.71386 584.715011 1387.55312 604.240192 1399.50872 597.341561 1399.50872 533.038098 1387.55312 526.139466"></polygon>
                    <polygon id="Fill-540" fill="#F0F0F0" transform="translate(1319.875103, 565.189929) scale(1, -1) translate(-1319.875103, -565.189929) " points="1353.71386 584.71511 1319.8746 604.240292 1286.03634 584.71511 1286.03634 545.664748 1319.8746 526.139566 1353.71386 545.664748"></polygon>
                    <polygon id="Fill-542" fill="#F6F6F6" transform="translate(1252.197182, 565.189929) scale(1, -1) translate(-1252.197182, -565.189929) " points="1286.03594 584.71511 1252.19668 604.240292 1218.35842 584.71511 1218.35842 545.664748 1252.19668 526.139566 1286.03594 545.664748"></polygon>
                    <polygon id="Fill-544" fill="#F48365" transform="translate(1184.519361, 565.189929) scale(1, -1) translate(-1184.519361, -565.189929) " points="1218.35812 584.71511 1184.51886 604.240292 1150.6806 584.71511 1150.6806 545.664748 1184.51886 526.139566 1218.35812 545.664748"></polygon>
                    <polygon id="Fill-546" fill="#F0F0F0" transform="translate(1116.947007, 565.189929) scale(1, -1) translate(-1116.947007, -565.189929) " points="1150.78577 584.71511 1116.94651 604.240292 1083.10825 584.71511 1083.10825 545.664748 1116.94651 526.139566 1150.78577 545.664748"></polygon>
                    <polygon id="Fill-548" fill="#F6F6F6" transform="translate(1353.714064, 507.967087) scale(1, -1) translate(-1353.714064, -507.967087) " points="1387.55282 527.492268 1353.71356 547.01745 1319.8753 527.492268 1319.8753 488.441905 1353.71356 468.916724 1387.55282 488.441905"></polygon>
                    <polygon id="Fill-550" fill="#F6F6F6" transform="translate(1286.036143, 507.967087) scale(1, -1) translate(-1286.036143, -507.967087) " points="1319.8749 527.492268 1286.03564 547.01745 1252.19738 527.492268 1252.19738 488.441905 1286.03564 468.916724 1319.8749 488.441905"></polygon>
                    <polygon id="Fill-552" fill="#F6F6F6" transform="translate(1393.531220, 507.967386) scale(1, -1) translate(-1393.531220, -507.967386) " points="1387.55292 488.442204 1387.55292 527.492567 1399.50952 534.391199 1399.50952 481.543573"></polygon>
                    <polygon id="Fill-554" fill="#F6F6F6" transform="translate(1218.358322, 507.967087) scale(1, -1) translate(-1218.358322, -507.967087) " points="1252.19708 527.492268 1218.35782 547.01745 1184.51956 527.492268 1184.51956 488.441905 1218.35782 468.916724 1252.19708 488.441905"></polygon>
                    <polygon id="Fill-556" fill="#EBEBEB" transform="translate(1150.680401, 507.967087) scale(1, -1) translate(-1150.680401, -507.967087) " points="1184.51916 527.492268 1150.6799 547.01745 1116.84164 527.492268 1116.84164 488.441905 1150.6799 468.916724 1184.51916 488.441905"></polygon>
                    <polygon id="Fill-558" fill="#F6F6F6" transform="translate(1083.017647, 507.967087) scale(1, -1) translate(-1083.017647, -507.967087) " points="1116.85641 527.492268 1083.01715 547.01745 1049.17889 527.492268 1049.17889 488.441905 1083.01715 468.916724 1116.85641 488.441905"></polygon>
                    <polygon id="Fill-560" fill="#F0F0F0" transform="translate(1376.611291, 449.379875) scale(1, -1) translate(-1376.611291, -449.379875) " points="1353.71386 429.854694 1353.71386 468.905057 1387.55312 488.430238 1399.50872 481.531607 1399.50872 417.228144 1387.55312 410.329512"></polygon>
                    <polygon id="Fill-562" fill="#F6F6F6" transform="translate(1319.875103, 449.379975) scale(1, -1) translate(-1319.875103, -449.379975) " points="1353.71386 468.905156 1319.8746 488.430338 1286.03634 468.905156 1286.03634 429.854793 1319.8746 410.329612 1353.71386 429.854793"></polygon>
                    <polygon id="Fill-564" fill="#F0F0F0" transform="translate(1252.197182, 449.379975) scale(1, -1) translate(-1252.197182, -449.379975) " points="1286.03594 468.905156 1252.19668 488.430338 1218.35842 468.905156 1218.35842 429.854793 1252.19668 410.329612 1286.03594 429.854793"></polygon>
                    <polygon id="Fill-566" fill="#F6F6F6" transform="translate(1184.519361, 449.379975) scale(1, -1) translate(-1184.519361, -449.379975) " points="1218.35812 468.905156 1184.51886 488.430338 1150.6806 468.905156 1150.6806 429.854793 1184.51886 410.329612 1218.35812 429.854793"></polygon>
                    <polygon id="Fill-568" fill="#FAFAFA" transform="translate(1116.947007, 449.379975) scale(1, -1) translate(-1116.947007, -449.379975) " points="1150.78577 468.905156 1116.94651 488.430338 1083.10825 468.905156 1083.10825 429.854793 1116.94651 410.329612 1150.78577 429.854793"></polygon>
                    <polygon id="Fill-570" fill="#F6F6F6" transform="translate(1353.714064, 390.792863) scale(1, -1) translate(-1353.714064, -390.792863) " points="1387.55282 410.318044 1353.71356 429.843226 1319.8753 410.318044 1319.8753 371.267682 1353.71356 351.7425 1387.55282 371.267682"></polygon>
                    <polygon id="Fill-572" fill="#00A8CB" transform="translate(1286.036143, 390.792863) scale(1, -1) translate(-1286.036143, -390.792863) " points="1319.8749 410.318044 1286.03564 429.843226 1252.19738 410.318044 1252.19738 371.267682 1286.03564 351.7425 1319.8749 371.267682"></polygon>
                    <polygon id="Fill-574" fill="#F6F6F6" transform="translate(1393.531220, 390.792763) scale(1, -1) translate(-1393.531220, -390.792763) " points="1387.55292 371.267083 1387.55292 410.318443 1399.50952 417.217075 1399.50952 364.368452"></polygon>
                    <polygon id="Fill-576" fill="#FAFAFA" transform="translate(1218.358322, 390.792863) scale(1, -1) translate(-1218.358322, -390.792863) " points="1252.19708 410.318044 1218.35782 429.843226 1184.51956 410.318044 1184.51956 371.267682 1218.35782 351.7425 1252.19708 371.267682"></polygon>
                    <polygon id="Fill-578" fill="#F6F6F6" transform="translate(1150.680401, 390.792863) scale(1, -1) translate(-1150.680401, -390.792863) " points="1184.51916 410.318044 1150.6799 429.843226 1116.84164 410.318044 1116.84164 371.267682 1150.6799 351.7425 1184.51916 371.267682"></polygon>
                    <polygon id="Fill-580" fill="#F6F6F6" transform="translate(1083.017647, 390.792863) scale(1, -1) translate(-1083.017647, -390.792863) " points="1116.85641 410.318044 1083.01715 429.843226 1049.17889 410.318044 1049.17889 371.267682 1083.01715 351.7425 1116.85641 371.267682"></polygon>
                    <polygon id="Fill-582" fill="#F6F6F6" transform="translate(1387.552924, 332.205851) scale(1, -1) translate(-1387.552924, -332.205851) " points="1421.39169 351.731032 1387.55243 371.256214 1353.71416 351.731032 1353.71416 312.680669 1387.55243 293.155488 1421.39169 312.680669"></polygon>
                    <polygon id="Fill-585" fill="#F6F6F6" transform="translate(1319.875103, 332.205751) scale(1, -1) translate(-1319.875103, -332.205751) " points="1353.71386 351.730933 1319.8746 371.256114 1286.03634 351.730933 1286.03634 312.68057 1319.8746 293.155388 1353.71386 312.68057"></polygon>
                    <polygon id="Fill-587" fill="#F6F6F6" transform="translate(1252.197182, 332.205751) scale(1, -1) translate(-1252.197182, -332.205751) " points="1286.03594 351.730933 1252.19668 371.256114 1218.35842 351.730933 1218.35842 312.68057 1252.19668 293.155388 1286.03594 312.68057"></polygon>
                    <polygon id="Fill-589" fill="#F6F6F6" transform="translate(1387.838761, 97.050363) scale(1, -1) translate(-1387.838761, -97.050363) " points="1421.67752 116.575544 1387.83826 136.100726 1354 116.575544 1354 77.5251815 1387.83826 58 1421.67752 77.5251815"></polygon>
                    <polygon id="Fill-591-Copy" fill="#ECECEC" transform="translate(1285.838761, 156.050363) scale(1, -1) translate(-1285.838761, -156.050363) " points="1319.67752 175.575544 1285.83826 195.100726 1252 175.575544 1252 136.525181 1285.83826 117 1319.67752 136.525181"></polygon>
                    <polygon id="Fill-593" fill="#F6F6F6" transform="translate(1353.714064, 273.655436) scale(1, -1) translate(-1353.714064, -273.655436) " points="1387.55282 293.180617 1353.71356 312.705799 1319.8753 293.180617 1319.8753 254.130254 1353.71356 234.605073 1387.55282 254.130254"></polygon>
                    <polygon id="Fill-595" fill="#F6F6F6" transform="translate(1286.036143, 273.655436) scale(1, -1) translate(-1286.036143, -273.655436) " points="1319.8749 293.180617 1286.03564 312.705799 1252.19738 293.180617 1252.19738 254.130254 1286.03564 234.605073 1319.8749 254.130254"></polygon>
                    <polygon id="Fill-597" fill="#F0F0F0" transform="translate(1421.391885, 273.655436) scale(1, -1) translate(-1421.391885, -273.655436) " points="1455.23065 293.180617 1421.39139 312.705799 1387.55312 293.180617 1387.55312 254.130254 1421.39139 234.605073 1455.23065 254.130254"></polygon>
                    <polygon id="Fill-600" fill="#FAFAFA" transform="translate(1218.358322, 273.655436) scale(1, -1) translate(-1218.358322, -273.655436) " points="1252.19708 293.180617 1218.35782 312.705799 1184.51956 293.180617 1184.51956 254.130254 1218.35782 234.605073 1252.19708 254.130254"></polygon>
                    <polygon id="Fill-602" fill="#F6F6F6" transform="translate(1150.680401, 273.655436) scale(1, -1) translate(-1150.680401, -273.655436) " points="1184.51916 293.180617 1150.6799 312.705799 1116.84164 293.180617 1116.84164 254.130254 1150.6799 234.605073 1184.51916 254.130254"></polygon>
                    <polygon id="Fill-604" fill="#F6F6F6" transform="translate(1083.017647, 273.655436) scale(1, -1) translate(-1083.017647, -273.655436) " points="1116.85641 293.180617 1083.01715 312.705799 1049.17889 293.180617 1049.17889 254.130254 1083.01715 234.605073 1116.85641 254.130254"></polygon>
                    <polygon id="Fill-606" fill="#E6BB83" transform="translate(1387.552924, 215.068324) scale(1, -1) translate(-1387.552924, -215.068324) " points="1421.39169 234.593505 1387.55243 254.118687 1353.71416 234.593505 1353.71416 195.543142 1387.55243 176.017961 1421.39169 195.543142"></polygon>
                    <polygon id="Fill-609" fill="#F0F0F0" transform="translate(1319.875103, 215.068224) scale(1, -1) translate(-1319.875103, -215.068224) " points="1353.71386 234.593406 1319.8746 254.118587 1286.03634 234.593406 1286.03634 195.543043 1319.8746 176.017861 1353.71386 195.543043"></polygon>
                    <polygon id="Fill-611" fill="#F6F6F6" transform="translate(1252.197182, 215.068224) scale(1, -1) translate(-1252.197182, -215.068224) " points="1286.03594 234.593406 1252.19668 254.118587 1218.35842 234.593406 1218.35842 195.543043 1252.19668 176.017861 1286.03594 195.543043"></polygon>
                    <polygon id="Fill-613" fill="#ECECEC" transform="translate(1184.519361, 215.068224) scale(1, -1) translate(-1184.519361, -215.068224) " points="1218.35812 234.593406 1184.51886 254.118587 1150.6806 234.593406 1150.6806 195.543043 1184.51886 176.017861 1218.35812 195.543043"></polygon>
                </g>
            </g>
        </g>
    </g>
</svg>