<svg xmlns="http://www.w3.org/2000/svg" viewBox="0 0 18.55 25.17"><defs><style>.cls-1{fill:#cfa175;}.cls-2{fill:#b7814f;}</style></defs><title>Idea</title><g id="Capa_2" data-name="Capa 2"><g id="Capa_1-2" data-name="Capa 1"><g id="_Grupo_" data-name="&lt;Grupo&gt;"><path id="_Trazado_compuesto_" data-name="&lt;Trazado compuesto&gt;" class="cls-1" d="M15.89,2.77a9.28,9.28,0,0,0-13.23,13A5,5,0,0,1,3.87,18a12.48,12.48,0,0,0,10.92,0,5.89,5.89,0,0,1,1.37-2.47A9.27,9.27,0,0,0,15.89,2.77Z"/><path id="_Trazado_" data-name="&lt;Trazado&gt;" class="cls-2" d="M9.28,20.8a14.42,14.42,0,0,1-5.29-1,5,5,0,0,0,.07,1,5.3,5.3,0,0,0,10.52-.87v-.12A14.52,14.52,0,0,1,9.28,20.8Z"/></g></g></g></svg>