<?xml version="1.0" encoding="utf-8"?>
<!-- Generator: Adobe Illustrator 18.1.0, SVG Export Plug-In . SVG Version: 6.00 Build 0)  -->
<svg version="1.1" id="Capa_1" xmlns="http://www.w3.org/2000/svg" xmlns:xlink="http://www.w3.org/1999/xlink" x="0px" y="0px"
	 viewBox="0 0 828 315" enable-background="new 0 0 828 315" xml:space="preserve">
<title>idea_1</title>
<path fill="#25A9CC" d="M79.3,32.9h669.3c43.8,0,79.3,35.5,79.3,79.3v90.6c0,43.8-35.5,79.3-79.3,79.3H79.3
	C35.5,282.1,0,246.6,0,202.8v-90.6C0,68.4,35.5,32.9,79.3,32.9z"/>
<g enable-background="new    ">
	<path fill="#FFFFFF" d="M343.2,120.4h12.1v86.2h-12.1V120.4z"/>
	<path fill="#FFFFFF" d="M400.3,143.3c14.3,0,19.1,9.8,19.1,9.8h0.2c0,0-0.2-1.8-0.2-4.2v-28.6h11.8v86.2h-11.2v-5.9
		c0-2.4,0.1-4.2,0.1-4.2h-0.2c0,0-5,11.5-20.3,11.5c-16.7,0-27.2-13.2-27.2-32.4C372.3,156,383.9,143.3,400.3,143.3z M401.9,197.8
		c9.2,0,17.8-6.5,17.8-22.2c0-11-5.7-22-17.5-22c-9.8,0-17.8,8.1-17.8,22.1C384.4,189.1,391.6,197.8,401.9,197.8z"/>
	<path fill="#FFFFFF" d="M476.4,143.3c17.5,0,26.8,12.9,26.8,28.9c0,1.6-0.4,5.1-0.4,5.1h-45.1c0.6,13.6,10.3,20.4,21.3,20.4
		c10.6,0,18.3-7.2,18.3-7.2l4.9,8.7c0,0-9.2,8.8-23.9,8.8c-19.4,0-32.7-14-32.7-32.4C445.5,156,458.8,143.3,476.4,143.3z M491,168.5
		c-0.4-10.6-7-15.8-14.9-15.8c-9,0-16.4,5.6-18.1,15.8H491z"/>
	<path fill="#FFFFFF" d="M549.8,168h2.7v-1.1c0-10.1-5.7-13.6-13.6-13.6c-9.5,0-17.2,6-17.2,6l-4.9-8.7c0,0,8.9-7.3,23.1-7.3
		c15.6,0,24.4,8.6,24.4,24.2v39.1h-11v-5.9c0-2.8,0.2-4.9,0.2-4.9h-0.2c0,0-5,12.2-19.8,12.2c-10.6,0-21-6.5-21-18.8
		C512.5,168.9,539.4,168,549.8,168z M536.1,198.5c10,0,16.5-10.5,16.5-19.7v-2h-3.1c-8.9,0-25,0.6-25,11.7
		C524.5,193.7,528.4,198.5,536.1,198.5z"/>
</g>
<g id="_Grupo_">
	<path id="_Trazado_compuesto_" fill="#FFFFFF" d="M246.5,107.2c-18.4-18.7-48.5-19-67.2-0.5c-18.7,18.4-19,48.5-0.5,67.2
		c3,3.2,5.1,7.2,6.2,11.4c17.7,8.6,38.3,8.6,55.9,0c1.3-4.7,3.8-9.1,7.2-12.7C265.1,153.9,264.4,125.2,246.5,107.2z"/>
	<path id="_Trazado_" fill="#FFFFFF" d="M212.7,199.5c-9.3-0.1-18.5-1.9-27.1-5.3c-0.2,1.7-0.2,3.4,0,5.1
		c2.4,14.8,16.4,24.8,31.2,22.4c13.1-2.2,22.8-13.5,22.7-26.8v-0.6C231,197.6,221.9,199.4,212.7,199.5z"/>
</g>
</svg>
