<svg id="Capa_1" data-name="Capa 1" xmlns="http://www.w3.org/2000/svg" viewBox="0 0 115 34.62"><defs><style>.cls-1{fill:#00a9cd;}.cls-2{font-size:20px;font-family:MuseoSans-500, Museo Sans;}.cls-2,.cls-3{fill:#fff;}</style></defs><title>idea_1</title><rect class="cls-1" width="115" height="34.62" rx="11.02" ry="11.02"/><text class="cls-2" transform="translate(46.32 23.59)">Idea</text><g id="_Grupo_" data-name="&lt;Grupo&gt;"><path id="_Trazado_compuesto_" data-name="&lt;Trazado compuesto&gt;" class="cls-3" d="M34.24,10.33a6.6,6.6,0,0,0-9.41,9.26,3.57,3.57,0,0,1,.86,1.59,8.88,8.88,0,0,0,7.77,0,4.19,4.19,0,0,1,1-1.76A6.6,6.6,0,0,0,34.24,10.33Z"/><path id="_Trazado_" data-name="&lt;Trazado&gt;" class="cls-3" d="M29.54,23.15a10.26,10.26,0,0,1-3.76-.74,3.53,3.53,0,0,0,0,.71,3.77,3.77,0,0,0,7.49-.62v-.09A10.33,10.33,0,0,1,29.54,23.15Z"/></g></svg>