<svg id="Capa_1" data-name="Capa 1" xmlns="http://www.w3.org/2000/svg" viewBox="0 0 10.51 14.26"><defs><style>.cls-1{fill:#00a9cd;}</style></defs><title>idea_1</title><g id="_Grupo_" data-name="&lt;Grupo&gt;"><path id="_Trazado_compuesto_" data-name="&lt;Trazado compuesto&gt;" class="cls-1" d="M5.25,11.69a8,8,0,0,1-2.94-.58,2.75,2.75,0,0,0,0,.55,2.94,2.94,0,0,0,5.84-.48v-.07A8.06,8.06,0,0,1,5.25,11.69Zm3.67-10A5.15,5.15,0,1,0,1.58,8.9a2.78,2.78,0,0,1,.67,1.24,6.93,6.93,0,0,0,6.06,0,3.27,3.27,0,0,1,.76-1.37A5.15,5.15,0,0,0,8.93,1.68Z"/></g></svg>