<svg xmlns="http://www.w3.org/2000/svg" viewBox="213.3 0 746.7 560"><path fill="#AAA" d="M213.4 0h746.7v560H213.4z"/><path fill="#CCC" d="M413.2 186.2v193.5c0 2.1 1.1 4 2.9 5l167.5 96.8c1.8 1 4 1 5.8 0l167.5-96.8c1.8-1 2.9-3 2.9-5V186.2c0-2.1-1.1-4-2.9-5L589.5 84.4c-1.8-1-4-1-5.8 0l-167.6 96.8c-1.7 1-2.9 2.9-2.9 5z"/><path fill="#AAA" d="M586.7 357.1c-14.5 0-29.4-3-42.7-8.4-.1 2.8.1 5.3.6 8 3 17.7 16.8 31.6 34.5 34.9 2.5.5 4.9.7 7.5.7 23.6 0 42.7-19 42.8-42.7v-.9c-13.4 5.4-28.2 8.4-42.7 8.4zm53.4-145.4c-29-29.5-76.3-29.9-105.8-.9-29.5 28.9-29.9 76.3-.9 105.8 4.8 5 8.1 11.3 9.7 18 12.6 6.2 27.9 10 43.7 10 16.1 0 31.7-3.9 44.4-10.4 2-7.4 5.8-14.3 11-20 26.5-29.3 25.6-74.2-2.1-102.5z"/></svg>