<?xml version="1.0" encoding="utf-8"?>
<!-- Generator: Adobe Illustrator 18.1.0, SVG Export Plug-In . SVG Version: 6.00 Build 0)  -->
<svg version="1.1" id="Capa_1" xmlns="http://www.w3.org/2000/svg" xmlns:xlink="http://www.w3.org/1999/xlink" x="0px" y="0px"
	 viewBox="213.3 0 746.7 560" enable-background="new 213.3 0 746.7 560" xml:space="preserve">
<rect x="213.4" fill="#AAAAAA" width="746.7" height="560"/>
<g>
	<path fill="#CCCCCC" d="M413.2,186.2v193.5c0,2.1,1.1,4,2.9,5l167.5,96.8c1.8,1,4,1,5.8,0l167.5-96.8c1.8-1,2.9-3,2.9-5V186.2
		c0-2.1-1.1-4-2.9-5L589.5,84.4c-1.8-1-4-1-5.8,0l-167.6,96.8C414.4,182.2,413.2,184.1,413.2,186.2z"/>
	<g id="XMLID_249_">
		<path id="XMLID_250_" fill="#AAAAAA" d="M586.7,357.1c-14.5,0-29.4-3-42.7-8.4c-0.1,2.8,0.1,5.3,0.6,8c3,17.7,16.8,31.6,34.5,34.9
			c2.5,0.5,4.9,0.7,7.5,0.7c23.6,0,42.7-19,42.8-42.7v-0.9C616,354.1,601.2,357.1,586.7,357.1z M640.1,211.7
			c-29-29.5-76.3-29.9-105.8-0.9c-29.5,28.9-29.9,76.3-0.9,105.8c4.8,5,8.1,11.3,9.7,18c12.6,6.2,27.9,10,43.7,10
			c16.1,0,31.7-3.9,44.4-10.4c2-7.4,5.8-14.3,11-20C668.7,284.9,667.8,240,640.1,211.7z"/>
	</g>
</g>
</svg>
