<svg width="30" height="34" viewBox="0 0 30 34" xmlns="http://www.w3.org/2000/svg"><title>Insta_Icon</title><g fill="none" fill-rule="evenodd"><path fill="#4A4A4A" d="M15 0l15 8.5v17L15 34 0 25.5v-17z"/><path d="M21.442 21.908c0 .846-.689 1.534-1.535 1.534h-9.815a1.535 1.535 0 0 1-1.534-1.534v-6.55h2.389A4.356 4.356 0 0 0 10.625 17 4.38 4.38 0 0 0 15 21.375 4.38 4.38 0 0 0 19.375 17c0-.58-.117-1.134-.323-1.642h2.39v6.55zm-8.725-6.55A2.814 2.814 0 0 1 15 14.185c.94 0 1.77.464 2.283 1.173A2.8 2.8 0 0 1 17.817 17 2.82 2.82 0 0 1 15 19.815 2.82 2.82 0 0 1 12.183 17c0-.613.2-1.18.534-1.642zm8.078-4.513l.353-.002V13.554l-2.702.01-.01-2.712 2.359-.007zM19.907 9h-9.815A3.094 3.094 0 0 0 7 12.092V21.908A3.095 3.095 0 0 0 10.092 25h9.815A3.096 3.096 0 0 0 23 21.908V12.092A3.095 3.095 0 0 0 19.907 9z" fill="#FFF"/></g></svg>