<?xml version="1.0" encoding="UTF-8"?>
<svg width="30px" height="34px" viewBox="0 0 30 34" version="1.1" xmlns="http://www.w3.org/2000/svg" xmlns:xlink="http://www.w3.org/1999/xlink">
    <!-- Generator: Sketch 42 (36781) - http://www.bohemiancoding.com/sketch -->
    <title>Insta_Icon</title>
    <desc>Created with Sketch.</desc>
    <defs></defs>
    <g id="Page-1" stroke="none" stroke-width="1" fill="none" fill-rule="evenodd">
        <g id="LANDING-W/MENU" transform="translate(-516.000000, -2662.000000)">
            <g id="Footer" transform="translate(0.000000, 2568.000000)">
                <g id="Social_Icons" transform="translate(436.000000, 94.000000)">
                    <g id="Insta_Icon" transform="translate(80.000000, 0.000000)">
                        <polygon id="Polygon" fill="#4A4A4A" points="15 0 30 8.5 30 25.5 15 34 9.1038288e-14 25.5 8.12683254e-14 8.5"></polygon>
                        <path d="M21.4416,21.9082667 C21.4416,22.7541333 20.7530667,23.4416 19.9072,23.4416 L10.0917333,23.4416 C9.24586667,23.4416 8.5584,22.7541333 8.5584,21.9082667 L8.5584,15.3584 L10.9466667,15.3584 C10.7408,15.8656 10.6250667,16.4197333 10.6250667,17 C10.6250667,19.4122667 12.5872,21.3749333 15,21.3749333 C17.4122667,21.3749333 19.3749333,19.4122667 19.3749333,17 C19.3749333,16.4197333 19.2581333,15.8656 19.0522667,15.3584 L21.4416,15.3584 L21.4416,21.9082667 Z M12.7168,15.3584 C13.2293333,14.6490667 14.0602667,14.1845333 15,14.1845333 C15.9397333,14.1845333 16.7706667,14.6490667 17.2832,15.3584 C17.6165333,15.8208 17.8165333,16.3872 17.8165333,17 C17.8165333,18.552 16.552,19.8154667 15,19.8154667 C13.4469333,19.8154667 12.1834667,18.552 12.1834667,17 C12.1834667,16.3872 12.3834667,15.8208 12.7168,15.3584 L12.7168,15.3584 Z M20.7946667,10.8448 L21.1477333,10.8426667 L21.1477333,11.1957333 L21.1477333,13.5541333 L18.4458667,13.5632 L18.4362667,10.8522667 L20.7946667,10.8448 Z M19.9072,9 L10.0917333,9 C8.38613333,9 7,10.3861333 7,12.0917333 L7,15.3584 L7,21.9082667 C7,23.6133333 8.38613333,25 10.0917333,25 L19.9072,25 C21.6122667,25 23,23.6133333 23,21.9082667 L23,15.3584 L23,12.0917333 C23,10.3861333 21.6122667,9 19.9072,9 L19.9072,9 Z" id="Fill-1" fill="#FFFFFF"></path>
                    </g>
                </g>
            </g>
        </g>
    </g>
</svg>