<?xml version="1.0" encoding="utf-8"?>
<!-- Generator: Adobe Illustrator 18.1.0, SVG Export Plug-In . SVG Version: 6.00 Build 0)  -->
<svg version="1.1" id="Capa_1" xmlns="http://www.w3.org/2000/svg" xmlns:xlink="http://www.w3.org/1999/xlink" x="0px" y="0px"
	 viewBox="0 0 1200 1114.1" style="enable-background:new 0 0 1200 1114.1;" xml:space="preserve">
<style type="text/css">
	.st0{fill:#F5F5F5;}
	.st1{fill:#F0F0F0;}
	.st2{fill:#FAFAFA;}
	.st3{fill:#EBEBEB;}
	.st4{fill:url(#SVGID_1_);}
	.st5{fill:#F48465;}
	.st6{fill:#00B4CB;}
	.st7{fill:#00B1AF;}
	.st8{fill:#E6BA83;}
	.st9{fill:#66C7C6;}
	.st10{fill:#FFFFFF;}
</style>
<polygon class="st0" points="1184.2,175 1153.4,192.7 1122.7,175 1122.7,139.4 1153.4,121.7 1184.2,139.4 "/>
<polygon class="st1" points="1245.7,175 1215,192.7 1184.2,175 1184.2,139.4 1215,121.7 1245.7,139.4 "/>
<polygon class="st1" points="1153.4,228.2 1122.7,246 1091.9,228.2 1091.9,192.7 1122.7,175 1153.4,192.7 "/>
<polygon class="st0" points="1215,228.2 1184.2,246 1153.4,228.2 1153.4,192.7 1184.2,175 1215,192.7 "/>
<polygon class="st0" points="1276.5,228.2 1245.7,246 1215,228.2 1215,192.7 1245.7,175 1276.5,192.7 "/>
<polygon class="st0" points="1091.9,228.2 1061.1,246 1030.4,228.2 1030.4,192.7 1061.1,175 1091.9,192.7 "/>
<polygon class="st0" points="1122.7,68.2 1091.9,86 1061.1,68.2 1061.1,32.7 1091.9,14.9 1122.7,32.7 "/>
<polygon class="st1" points="1245.7,68.2 1215,86 1184.2,68.2 1184.2,32.7 1215,14.9 1245.7,32.7 "/>
<polygon class="st0" points="1215,121.5 1184.2,139.2 1153.4,121.5 1153.4,86 1184.2,68.2 1215,86 "/>
<polygon class="st0" points="1276.5,121.5 1245.7,139.2 1215,121.5 1215,86 1245.7,68.2 1276.5,86 "/>
<polygon class="st2" points="1061.1,281.5 1030.4,299.3 999.6,281.5 999.6,246 1030.4,228.3 1061.1,246 "/>
<polygon class="st0" points="1184.2,281.5 1153.4,299.3 1122.7,281.5 1122.7,246 1153.4,228.3 1184.2,246 "/>
<polygon class="st2" points="1245.7,281.5 1215,299.3 1184.2,281.5 1184.2,246 1215,228.3 1245.7,246 "/>
<polygon class="st2" points="999.6,281.5 968.9,299.3 938.1,281.5 938.1,246 968.9,228.3 999.6,246 "/>
<polygon class="st0" points="1276.5,334.8 1245.7,352.6 1215,334.8 1215,299.3 1245.7,281.5 1276.5,299.3 "/>
<polygon class="st0" points="1091.9,334.8 1061.1,352.6 1030.4,334.8 1030.4,299.3 1061.1,281.5 1091.9,299.3 "/>
<polygon class="st1" points="1184.2,388.1 1153.4,405.8 1122.7,388.1 1122.7,352.6 1153.4,334.8 1184.2,352.6 "/>
<polygon class="st3" points="1245.7,388.1 1215,405.8 1184.2,388.1 1184.2,352.6 1215,334.8 1245.7,352.6 "/>
<polygon class="st0" points="1215,441.4 1184.2,459.1 1153.4,441.4 1153.4,405.9 1184.2,388.1 1215,405.9 "/>
<polygon class="st2" points="1276.5,441.4 1245.7,459.1 1215,441.4 1215,405.9 1245.7,388.1 1276.5,405.9 "/>
<polygon class="st0" points="1061.1,493.4 1030.4,511.2 999.6,493.4 999.6,457.9 1030.4,440.1 1061.1,457.9 "/>
<polygon class="st0" points="1184.2,493.4 1153.4,511.2 1122.7,493.4 1122.7,457.9 1153.4,440.1 1184.2,457.9 "/>
<polygon class="st1" points="1245.7,493.4 1215,511.2 1184.2,493.4 1184.2,457.9 1215,440.1 1245.7,457.9 "/>
<polygon class="st1" points="1153.4,546.7 1122.7,564.5 1091.9,546.7 1091.9,511.2 1122.7,493.4 1153.4,511.2 "/>
<polygon class="st0" points="1276.5,546.7 1245.7,564.5 1215,546.7 1215,511.2 1245.7,493.4 1276.5,511.2 "/>
<polygon class="st0" points="1122.7,600 1091.9,617.8 1061.1,600 1061.1,564.5 1091.9,546.7 1122.7,564.5 "/>
<polygon class="st2" points="1061.1,600 1030.4,617.8 999.6,600 999.6,564.5 1030.4,546.7 1061.1,564.5 "/>
<polygon class="st0" points="1184.2,600 1153.4,617.8 1122.7,600 1122.7,564.5 1153.4,546.7 1184.2,564.5 "/>
<polygon class="st2" points="1245.7,600 1215,617.8 1184.2,600 1184.2,564.5 1215,546.7 1245.7,564.5 "/>
<polygon class="st0" points="1153.4,653.3 1122.7,671.1 1091.9,653.3 1091.9,617.8 1122.7,600 1153.4,617.8 "/>
<polygon class="st0" points="1215,653.3 1184.2,671.1 1153.4,653.3 1153.4,617.8 1184.2,600 1215,617.8 "/>
<polygon class="st0" points="1276.5,653.3 1245.7,671.1 1215,653.3 1215,617.8 1245.7,600 1276.5,617.8 "/>
<polygon class="st0" points="1061.1,706.6 1030.4,724.3 999.6,706.6 999.6,671 1030.4,653.3 1061.1,671 "/>
<polygon class="st1" points="1184.2,706.6 1153.4,724.3 1122.7,706.6 1122.7,671 1153.4,653.3 1184.2,671 "/>
<polygon class="st3" points="1245.7,706.6 1215,724.3 1184.2,706.6 1184.2,671 1215,653.3 1245.7,671 "/>
<polygon class="st2" points="999.6,706.6 968.9,724.3 938.1,706.6 938.1,671 968.9,653.3 999.6,671 "/>
<polygon class="st0" points="1153.4,759.8 1122.7,777.6 1091.9,759.8 1091.9,724.3 1122.7,706.6 1153.4,724.3 "/>
<polygon class="st0" points="1215,759.8 1184.2,777.6 1153.4,759.8 1153.4,724.3 1184.2,706.6 1215,724.3 "/>
<polygon class="st2" points="1276.5,759.8 1245.7,777.6 1215,759.8 1215,724.3 1245.7,706.6 1276.5,724.3 "/>
<polygon class="st0" points="1061.1,812.7 1030.4,830.4 999.6,812.7 999.6,777.2 1030.4,759.4 1061.1,777.2 "/>
<polygon class="st1" points="1184.2,812.7 1153.4,830.4 1122.7,812.7 1122.7,777.2 1153.4,759.4 1184.2,777.2 "/>
<polygon class="st3" points="1245.7,812.7 1215,830.4 1184.2,812.7 1184.2,777.2 1215,759.4 1245.7,777.2 "/>
<polygon class="st0" points="1153.4,866 1122.7,883.7 1091.9,866 1091.9,830.4 1122.7,812.7 1153.4,830.4 "/>
<polygon class="st2" points="1276.5,866 1245.7,883.7 1215,866 1215,830.4 1245.7,812.7 1276.5,830.4 "/>
<polygon class="st1" points="1091.9,866 1061.1,883.7 1030.4,866 1030.4,830.4 1061.1,812.7 1091.9,830.4 "/>
<polygon class="st0" points="1122.7,918.8 1091.9,936.6 1061.1,918.8 1061.1,883.3 1091.9,865.5 1122.7,883.3 "/>
<polygon class="st1" points="1184.2,918.8 1153.4,936.6 1122.7,918.8 1122.7,883.3 1153.4,865.5 1184.2,883.3 "/>
<polygon class="st3" points="1245.7,918.8 1215,936.6 1184.2,918.8 1184.2,883.3 1215,865.5 1245.7,883.3 "/>
<polygon class="st2" points="999.6,918.8 968.9,936.6 938.1,918.8 938.1,883.3 968.9,865.5 999.6,883.3 "/>
<polygon class="st0" points="1153.4,972.1 1122.7,989.9 1091.9,972.1 1091.9,936.6 1122.7,918.8 1153.4,936.6 "/>
<polygon class="st0" points="1215,972.1 1184.2,989.9 1153.4,972.1 1153.4,936.6 1184.2,918.8 1215,936.6 "/>
<polygon class="st2" points="1276.5,972.1 1245.7,989.9 1215,972.1 1215,936.6 1245.7,918.8 1276.5,936.6 "/>
<polygon class="st0" points="1122.7,1024.9 1091.9,1042.7 1061.1,1024.9 1061.1,989.4 1091.9,971.6 1122.7,989.4 "/>
<polygon class="st1" points="1184.2,1024.9 1153.4,1042.7 1122.7,1024.9 1122.7,989.4 1153.4,971.6 1184.2,989.4 "/>
<polygon class="st3" points="1245.7,1024.9 1215,1042.7 1184.2,1024.9 1184.2,989.4 1215,971.6 1245.7,989.4 "/>
<polygon class="st0" points="1215,1078.2 1184.2,1096 1153.4,1078.2 1153.4,1042.7 1184.2,1024.9 1215,1042.7 "/>
<polygon class="st2" points="1276.5,1078.2 1245.7,1096 1215,1078.2 1215,1042.7 1245.7,1024.9 1276.5,1042.7 "/>
<linearGradient id="SVGID_1_" gradientUnits="userSpaceOnUse" x1="1822.3633" y1="8114.9121" x2="1822.3633" y2="8812.8457" gradientTransform="matrix(0 1 -1 0 9647.7041 -1285.9479)">
	<stop  offset="9.900990e-03" style="stop-color:#FFFFFF;stop-opacity:0"/>
	<stop  offset="1" style="stop-color:#FFFFFF;stop-opacity:0.6"/>
</linearGradient>
<rect x="844.1" y="-42.3" class="st4" width="678.4" height="1157.4"/>
<polygon class="st5" points="1091.9,121.5 1061.1,139.2 1030.4,121.5 1030.4,86 1061.1,68.2 1091.9,86 "/>
<polygon class="st6" points="1215,334.8 1184.2,352.6 1153.4,334.8 1153.4,299.3 1184.2,281.5 1215,299.3 "/>
<polygon class="st7" points="999.6,388.1 968.9,405.8 938.1,388.1 938.1,352.6 968.9,334.8 999.6,352.6 "/>
<polygon class="st8" points="1153.4,441.4 1122.7,459.1 1091.9,441.4 1091.9,405.9 1122.7,388.1 1153.4,405.9 "/>
<polygon class="st9" points="1215,546.7 1184.2,564.5 1153.4,546.7 1153.4,511.2 1184.2,493.4 1215,511.2 "/>
<polygon class="st5" points="1091.9,653.3 1061.1,671.1 1030.4,653.3 1030.4,617.8 1061.1,600 1091.9,617.8 "/>
<polygon class="st8" points="1215,866 1184.2,883.7 1153.4,866 1153.4,830.4 1184.2,812.7 1215,830.4 "/>
<polygon class="st9" points="1061.1,1024.9 1030.4,1042.7 999.6,1024.9 999.6,989.4 1030.4,971.6 1061.1,989.4 "/>
<g transform="translate(0,-952.36218)">
	<path class="st10" d="M1116.8,1367.1c-3.8,0-6.5,3.6-6.5,7.5c0,6.7,5.2,9.5,11.8,13.8c6.6-4.3,11.8-7.1,11.8-13.8
		c0-3.9-2.6-7.5-6.5-7.5c-2.5,0-4.5,1.4-5.3,2.2C1121.3,1368.5,1119.3,1367.1,1116.8,1367.1z"/>
</g>
<g>
	<path class="st10" d="M1044.9,1004.1c-0.3,0-0.5,0.2-0.5,0.5l0,0c0,1.5-1.2,2.7-2.7,2.7c-1.5,0-2.7-1.2-2.7-2.7
		c0-2-1.6-3.6-3.6-3.6s-3.6,1.6-3.6,3.6l0,0c0,0.3,0.2,0.5,0.5,0.5s0.5-0.2,0.5-0.5c0-1.5,1.2-2.7,2.7-2.7c1.5,0,2.7,1.2,2.7,2.7
		c0,2,1.6,3.6,3.6,3.6s3.6-1.6,3.6-3.6l0,0C1045.3,1004.3,1045.1,1004.1,1044.9,1004.1L1044.9,1004.1z"/>
	<path class="st10" d="M1027.2,1002.5c0,0.3,0.2,0.5,0.5,0.5c2.5,0,4.6-2.1,4.6-4.6c0-2,1.6-3.7,3.7-3.7c2,0,3.7,1.6,3.7,3.7v0
		c0,0.3,0.2,0.5,0.5,0.5c0.3,0,0.5-0.2,0.5-0.5c0-2.5-2.1-4.6-4.6-4.6c-2.5,0-4.6,2.1-4.6,4.6c0,2-1.6,3.7-3.7,3.7
		C1027.4,1002.1,1027.2,1002.3,1027.2,1002.5z"/>
	<path class="st10" d="M1026.2,1002.6c-0.2-0.2-0.5-0.2-0.7,0c0,0-0.1,0.1-0.1,0.1l-8,17.5c-0.1,0.2,0,0.5,0.2,0.6
		c0.1,0.1,0.3,0.1,0.4,0l17.4-8.1c0.2-0.1,0.3-0.4,0.2-0.6c0-0.1-0.1-0.1-0.1-0.1L1026.2,1002.6z"/>
	<polygon class="st10" points="1027.7,1000.8 1028.5,1000 1029.5,1000.3 1029,999.3 1029.6,998.4 1028.5,998.5 1027.8,997.7 
		1027.6,998.7 1026.6,999.2 1027.6,999.7 	"/>
	<polygon class="st10" points="1029,995.8 1029.9,994.9 1031.1,995.1 1030.6,994 1031.2,992.9 1029.9,993.1 1029.1,992.1 
		1028.9,993.4 1027.7,993.9 1028.8,994.5 	"/>
	<polygon class="st10" points="1036.3,996.8 1035.6,995.8 1035.3,996.9 1034.1,997.2 1035.1,997.9 1035,999.1 1036,998.4 
		1037.1,998.8 1036.7,997.7 1037.4,996.8 	"/>
	<polygon class="st10" points="1041.1,1004.6 1041,1005.9 1042,1005.2 1043.2,1005.6 1042.8,1004.4 1043.6,1003.4 1042.4,1003.4 
		1041.7,1002.4 1041.3,1003.5 1040.1,1003.9 	"/>
	<polygon class="st10" points="1035.9,1004.1 1035.2,1003.2 1034.9,1004.3 1033.8,1004.6 1034.7,1005.3 1034.7,1006.4 
		1035.6,1005.8 1036.7,1006.1 1036.3,1005 1037,1004.1 	"/>
	<polygon class="st10" points="1046.2,997.3 1044.8,997.2 1044,996 1043.5,997.3 1042.2,997.6 1043.2,998.5 1043.1,999.9 
		1044.3,999.1 1045.6,999.7 1045.2,998.3 	"/>
	<polygon class="st10" points="1039.1,1008 1037.9,1008.3 1036.9,1007.5 1036.8,1008.8 1035.8,1009.4 1036.9,1009.9 1037.2,1011.1 
		1038,1010.1 1039.3,1010.2 1038.6,1009.2 	"/>
</g>
<g>
	<g>
		<path class="st10" d="M1060.9,109.6c1.3-0.6,4-2,5.1-2.8c0.1-1.3,0.2-4.6,0.1-5.9c-1.1-0.8-3.9-2.5-5-3c-1.2,0.5-4.1,2.1-5.1,2.8
			c-0.1,1.3-0.2,4.6-0.1,5.9C1056.9,107.3,1059.7,109,1060.9,109.6z M1066,99.2c-0.1-1.1-0.3-2.1-0.5-3c-0.9,0.2-1.9,0.5-2.9,0.9
			C1063.2,97.5,1065.5,98.9,1066,99.2z M1055.6,95.7c-3.3-0.8-5.8-0.5-6.5,0.7c-0.8,1.3,0.1,3.6,2.4,6.1c1-0.9,2.1-1.8,3.4-2.7
			C1055,98.5,1055.2,97.1,1055.6,95.7z M1056,108.2c0.1,1.1,0.3,2.1,0.5,3c0.9-0.2,1.9-0.5,2.9-0.9
			C1058.8,109.9,1056.5,108.6,1056,108.2z M1070.6,104.8c-1,0.9-2.1,1.8-3.4,2.7c-0.2,1.5-0.5,2.9-0.8,4.2c3.3,0.8,5.8,0.5,6.5-0.7
			C1073.7,109.7,1072.8,107.4,1070.6,104.8z M1060.8,111c-1.4,0.6-2.7,1.1-4.1,1.4c0.9,3.3,2.4,5.3,3.9,5.3c1.5,0,3-1.9,4.1-5.1
			C1063.5,112.2,1062.2,111.6,1060.8,111z M1061.1,96.5c1.4-0.6,2.7-1.1,4.1-1.4c-0.9-3.3-2.4-5.3-3.9-5.3c-1.5,0-3,1.9-4.1,5.1
			C1058.4,95.3,1059.8,95.8,1061.1,96.5z M1070.6,103c2.4-2.5,3.3-4.7,2.6-6c-0.7-1.3-3.1-1.7-6.5-1c0.3,1.3,0.5,2.7,0.6,4.2
			C1068.6,101.1,1069.7,102.1,1070.6,103z M1051.4,104.4c-2.4,2.5-3.3,4.7-2.6,6c0.7,1.3,3.1,1.7,6.5,1c-0.3-1.3-0.5-2.7-0.6-4.2
			C1053.4,106.3,1052.3,105.4,1051.4,104.4z M1054.5,105.5c0-0.6,0-3.3,0.1-3.9c-0.9,0.6-1.6,1.3-2.3,1.9
			C1052.9,104.2,1053.7,104.9,1054.5,105.5z M1067.5,101.9c0,0.6,0,3.3-0.1,3.9c0.9-0.6,1.6-1.3,2.3-1.9
			C1069,103.2,1068.3,102.6,1067.5,101.9z M1065.8,108.4c-0.5,0.3-2.9,1.6-3.4,1.9c1,0.4,1.9,0.8,2.8,1.1
			C1065.4,110.5,1065.6,109.5,1065.8,108.4z M1056.8,96.1c-0.2,0.9-0.5,1.9-0.6,2.9c0.5-0.3,2.9-1.6,3.4-1.9
			C1058.6,96.7,1057.7,96.4,1056.8,96.1z"/>
	</g>
</g>
</svg>
