<?xml version="1.0" encoding="utf-8"?>
<!-- Generator: Adobe Illustrator 17.1.0, SVG Export Plug-In . SVG Version: 6.00 Build 0)  -->
<!DOCTYPE svg PUBLIC "-//W3C//DTD SVG 1.1//EN" "http://www.w3.org/Graphics/SVG/1.1/DTD/svg11.dtd">
<svg version="1.1" id="Layer_1" xmlns="http://www.w3.org/2000/svg" xmlns:xlink="http://www.w3.org/1999/xlink" x="0px" y="0px"
	 viewBox="0 0 15.9 15.1" enable-background="new 0 0 15.9 15.1" xml:space="preserve">
<g>
	<g>
		<defs>
			<path id="SVGID_1_" d="M1.5,14c0.3,0.3,4.2-0.7,4.2-0.7L2.3,9.8C2.3,9.8,1.2,13.7,1.5,14z"/>
		</defs>
		<clipPath id="SVGID_2_">
			<use xlink:href="#SVGID_1_"  overflow="visible"/>
		</clipPath>
		<g clip-path="url(#SVGID_2_)">
			<defs>
				<rect id="SVGID_3_" x="-422.2" y="-139.1" width="1024" height="1566.3"/>
			</defs>
			<clipPath id="SVGID_4_">
				<use xlink:href="#SVGID_3_"  overflow="visible"/>
			</clipPath>
			<rect x="-3.6" y="4.8" clip-path="url(#SVGID_4_)" fill="#9B9B9B" width="14.3" height="14.2"/>
		</g>
	</g>
	<g>
		<defs>
			<rect id="SVGID_5_" x="-422.2" y="-139.1" width="1024" height="1566.3"/>
		</defs>
		<clipPath id="SVGID_6_">
			<use xlink:href="#SVGID_5_"  overflow="visible"/>
		</clipPath>
		<path clip-path="url(#SVGID_6_)" fill="none" stroke="#979797" stroke-miterlimit="10" d="M11.4,0.6"/>
	</g>
	<g>
		<defs>
			<polygon id="SVGID_7_" points="11.7,4.4 4.8,11.2 6.3,12.7 13.2,5.8 			"/>
		</defs>
		<clipPath id="SVGID_8_">
			<use xlink:href="#SVGID_7_"  overflow="visible"/>
		</clipPath>
		<g clip-path="url(#SVGID_8_)">
			<defs>
				<rect id="SVGID_9_" x="-422.2" y="-139.1" width="1024" height="1566.3"/>
			</defs>
			<clipPath id="SVGID_10_">
				<use xlink:href="#SVGID_9_"  overflow="visible"/>
			</clipPath>
			<rect x="-0.2" y="-0.6" clip-path="url(#SVGID_10_)" fill="#9B9B9B" width="18.3" height="18.3"/>
		</g>
	</g>
	<g>
		<defs>
			<polygon id="SVGID_11_" points="4.3,10.7 11.2,3.8 9.7,2.4 2.8,9.2 			"/>
		</defs>
		<clipPath id="SVGID_12_">
			<use xlink:href="#SVGID_11_"  overflow="visible"/>
		</clipPath>
		<g clip-path="url(#SVGID_12_)">
			<defs>
				<rect id="SVGID_13_" x="-422.2" y="-139.1" width="1024" height="1566.3"/>
			</defs>
			<clipPath id="SVGID_14_">
				<use xlink:href="#SVGID_13_"  overflow="visible"/>
			</clipPath>
			<rect x="-2.2" y="-2.6" clip-path="url(#SVGID_14_)" fill="#9B9B9B" width="18.3" height="18.3"/>
		</g>
	</g>
	<g>
		<defs>
			<path id="SVGID_15_" d="M11.4,0.7c0,0,1-0.2,2.4,1.2c1.4,1.4,1,2.3,1,2.3l-1.3,1.3L10.1,2L11.4,0.7z"/>
		</defs>
		<clipPath id="SVGID_16_">
			<use xlink:href="#SVGID_15_"  overflow="visible"/>
		</clipPath>
		<g clip-path="url(#SVGID_16_)">
			<defs>
				<rect id="SVGID_17_" x="-422.2" y="-139.1" width="1024" height="1566.3"/>
			</defs>
			<clipPath id="SVGID_18_">
				<use xlink:href="#SVGID_17_"  overflow="visible"/>
			</clipPath>
			
				<rect x="5.3" y="-3.6" transform="matrix(-0.7071 -0.7071 0.7071 -0.7071 19.8492 13.724)" clip-path="url(#SVGID_18_)" fill="#9B9B9B" width="14.9" height="12.7"/>
		</g>
	</g>
</g>
</svg>
