<svg id="Capa_1" data-name="Capa 1" xmlns="http://www.w3.org/2000/svg" viewBox="0 0 25.07 24"><defs><style>.cls-1{fill:#fbc326;}.cls-2{fill:#fff;}</style></defs><title>like 2_single</title><path class="cls-1" d="M7.8,16.84H9.25a1.34,1.34,0,0,1,1,.45,2.55,2.55,0,0,0,1.94.91h3a2.55,2.55,0,0,0,2.53-2.53V11.33A1.68,1.68,0,0,0,16,9.65H14l.55-2.41a1.22,1.22,0,0,0-1.2-1.44,1.24,1.24,0,0,0-1.07.61l-2,3.93A1.27,1.27,0,0,1,9.13,11H7.8a.44.44,0,0,0-.43.43v4.94A.42.42,0,0,0,7.8,16.84Z"/><path class="cls-2" d="M15.63,10.23a2.25,2.25,0,0,1,1.14,1,4.62,4.62,0,0,1,.29,1.52,10.36,10.36,0,0,1-.33,3c0-.5-.06-1-.08-1.48s0-1-.06-1.46a5.1,5.1,0,0,0-.19-1.38A3.26,3.26,0,0,0,15.63,10.23Z"/></svg>