<svg xmlns="http://www.w3.org/2000/svg" viewBox="0 0 33.5 38.51"><defs><style>.cls-1{fill:#03a9cd;}.cls-2{fill:#fff;}</style></defs><title>like 2_Idea</title><g id="Capa_2" data-name="Capa 2"><g id="Capa_1-2" data-name="Capa 1"><path class="cls-1" d="M0,9.91V28.6a.56.56,0,0,0,.28.49l16.19,9.35a.56.56,0,0,0,.56,0l16.19-9.35a.56.56,0,0,0,.28-.49V9.91a.56.56,0,0,0-.28-.49L17,.08a.56.56,0,0,0-.56,0L.28,9.42A.56.56,0,0,0,0,9.91Z"/><path class="cls-2" d="M12.49,23.22h1.3a1.2,1.2,0,0,1,.91.41,2.3,2.3,0,0,0,1.74.82h2.69a2.29,2.29,0,0,0,2.28-2.28V18.25a1.51,1.51,0,0,0-1.51-1.51H18.08l.5-2.17a1.1,1.1,0,0,0-1.09-1.3,1.12,1.12,0,0,0-1,.55L14.7,17.36a1.14,1.14,0,0,1-1,.61H12.49a.4.4,0,0,0-.39.39v4.45A.38.38,0,0,0,12.49,23.22Z"/></g></g></svg>