<svg id="Capa_1" data-name="Capa 1" xmlns="http://www.w3.org/2000/svg" viewBox="0 0 33.5 38.51"><defs><style>.cls-1{fill:#03a9cd;}.cls-2{fill:#fff;}</style></defs><title>like 3</title><path class="cls-1" d="M0,9.91V28.6a.56.56,0,0,0,.28.49l16.19,9.35a.56.56,0,0,0,.56,0l16.19-9.35a.56.56,0,0,0,.28-.49V9.91a.56.56,0,0,0-.28-.49L17,.08a.56.56,0,0,0-.56,0L.28,9.42A.56.56,0,0,0,0,9.91Z"/><path class="cls-2" d="M14.12,14a3.43,3.43,0,0,0-3.18,3.68c0,3.31,2.55,4.67,5.81,6.8C20,22.37,22.56,21,22.56,17.7A3.43,3.43,0,0,0,19.38,14a3.93,3.93,0,0,0-2.63,1.1A3.93,3.93,0,0,0,14.12,14Z"/></svg>