<svg id="Capa_1" data-name="Capa 1" xmlns="http://www.w3.org/2000/svg" viewBox="0 0 25.07 24"><defs><style>.cls-1{fill:#8dc63f;}.cls-2{fill:#fff;}</style></defs><title>like 4_1_single</title><path class="cls-1" d="M10.38,13.76a3.87,3.87,0,0,0,2.24,1c.47,0,1-.18,1-.75,0-1-4.25-1.14-4.25-3.95a2.84,2.84,0,0,1,2.5-2.78V6h1.43V7.22a4.09,4.09,0,0,1,2.39,1l-1,1.87a3.57,3.57,0,0,0-2.07-.82c-.47,0-1,.21-1,.73,0,1.11,4.25,1,4.25,3.92a2.87,2.87,0,0,1-2.62,2.85V18H11.85V16.79A4.73,4.73,0,0,1,9.18,15.5Z"/><path class="cls-2" d="M12.27,11.1a5.81,5.81,0,0,1,2.11.82,2.85,2.85,0,0,1,.84.83,1.4,1.4,0,0,1,.23,1.14A2,2,0,0,0,14.9,13a5.74,5.74,0,0,0-.81-.65C13.5,11.95,12.86,11.58,12.27,11.1Z"/></svg>