<svg id="Capa_1" data-name="Capa 1" xmlns="http://www.w3.org/2000/svg" viewBox="0 0 33.5 38.51"><defs><style>.cls-1{fill:#03a9cd;}.cls-2{fill:#fff;}</style></defs><title>like 4</title><path class="cls-1" d="M0,9.91V28.6a.56.56,0,0,0,.28.49l16.19,9.35a.56.56,0,0,0,.56,0l16.19-9.35a.56.56,0,0,0,.28-.49V9.91a.56.56,0,0,0-.28-.49L17,.08a.56.56,0,0,0-.56,0L.28,9.42A.56.56,0,0,0,0,9.91Z"/><path class="cls-2" d="M14.25,21.31a4.51,4.51,0,0,0,2.6,1.13c.55,0,1.14-.21,1.14-.87C18,20.35,13,20.24,13,17A3.3,3.3,0,0,1,16,13.74V12.31h1.66v1.38a4.76,4.76,0,0,1,2.78,1.19l-1.13,2.18a4.15,4.15,0,0,0-2.4-1c-.55,0-1.16.24-1.16.85,0,1.29,4.94,1.2,4.94,4.56a3.34,3.34,0,0,1-3,3.32v1.38H16V24.82a5.5,5.5,0,0,1-3.1-1.49Z"/></svg>