<svg id="Capa_1" data-name="Capa 1" xmlns="http://www.w3.org/2000/svg" viewBox="0 0 33.5 38.51"><defs><style>.cls-1{fill:#03a9cd;}.cls-2{fill:#fff;}</style></defs><title>like 1</title><path class="cls-1" d="M0,9.91V28.6a.56.56,0,0,0,.28.49l16.19,9.35a.56.56,0,0,0,.56,0l16.19-9.35a.56.56,0,0,0,.28-.49V9.91a.56.56,0,0,0-.28-.49L17,.08a.56.56,0,0,0-.56,0L.28,9.42A.56.56,0,0,0,0,9.91Z"/><rect class="cls-2" x="11.33" y="21.29" width="10.85" height="1.92" transform="translate(-4.86 4.68) rotate(-13.91)"/><circle class="cls-2" cx="13.06" cy="15.63" r="1.6"/><circle class="cls-2" cx="20.44" cy="15.63" r="1.6"/></svg>