<svg id="Capa_1" data-name="Capa 1" xmlns="http://www.w3.org/2000/svg" viewBox="0 0 25.07 24"><defs><style>.cls-1{fill:#ef4136;}.cls-2{fill:#fff;}</style></defs><title>like 3_1_single</title><path class="cls-1" d="M9.4,5.75c-2.26,0-3.79,2.09-3.79,4.39,0,3.95,3,5.58,6.93,8.11,3.89-2.54,6.93-4.16,6.93-8.11,0-2.3-1.53-4.39-3.79-4.39a4.69,4.69,0,0,0-3.13,1.32A4.69,4.69,0,0,0,9.4,5.75Z"/><path class="cls-2" d="M14.22,7.6A3.33,3.33,0,0,1,17,7.72,2,2,0,0,1,17.92,9a2.41,2.41,0,0,1,0,1.41,4.5,4.5,0,0,0-1.36-1.84C15.91,8.2,15.07,8,14.22,7.6Z"/></svg>