<?xml version="1.0" encoding="UTF-8"?>
<svg width="13px" height="21px" viewBox="0 0 13 21" version="1.1" xmlns="http://www.w3.org/2000/svg" xmlns:xlink="http://www.w3.org/1999/xlink">
    <!-- Generator: Sketch 42 (36781) - http://www.bohemiancoding.com/sketch -->
    <title>Location_Icon</title>
    <desc>Created with Sketch.</desc>
    <defs></defs>
    <g id="Page-1" stroke="none" stroke-width="1" fill="none" fill-rule="evenodd">
        <g id="MyProfile" transform="translate(-232.000000, -292.000000)">
            <g id="ID" transform="translate(82.000000, 148.000000)">
                <g id="Location_Icon" transform="translate(150.000000, 144.000000)">
                    <path d="M12.5712,6.6765 C12.5712,7.5485 12.3602,8.4805 12.0752,9.2025 C11.1732,11.1575 9.3982,14.8265 8.4662,16.8115 L8.4362,16.8865 L7.0672,19.7445 C6.9322,20.0445 6.6162,20.2405 6.2852,20.2405 C5.9692,20.2405 5.6542,20.0445 5.5032,19.7445 L4.1052,16.8115 C3.1732,14.8415 1.4132,11.1575 0.4962,9.2025 C0.2252,8.4805 0.0002,7.5485 0.0002,6.6765 C0.0002,4.9015 0.7062,3.3075 1.8342,2.1355 C2.9772,0.9775 4.5412,0.2405 6.2852,0.2405 C9.7592,0.2405 12.5712,3.1425 12.5712,6.6765" id="Fill-4" fill="#939597"></path>
                    <path d="M6.2875,4.638 C7.5095,4.638 8.4725,5.601 8.4725,6.823 C8.4725,8.045 7.5095,9.008 6.2875,9.008 C5.0655,9.008 4.1025,8.045 4.1025,6.823 C4.1025,5.601 5.0655,4.638 6.2875,4.638 M6.2875,3.153 C4.2725,3.153 2.6175,4.808 2.6175,6.823 C2.6175,8.838 4.2725,10.493 6.2875,10.493 C8.3025,10.493 9.9575,8.838 9.9575,6.823 C9.9575,4.808 8.3025,3.153 6.2875,3.153" id="Fill-5" fill="#FEFEFE"></path>
                </g>
            </g>
        </g>
    </g>
</svg>