<svg xmlns="http://www.w3.org/2000/svg" viewBox="0 0 33.85 38.55"><defs><style>.cls-1{fill:#b7814f;}.cls-2{fill:#cfa175;}.cls-3{fill:#e84b37;}.cls-4{fill:#eb6852;}.cls-5{fill:#65cbc9;}.cls-6{fill:#00afaa;}.cls-7{fill:#0091b3;}.cls-8{fill:#00acc8;}.cls-9{fill:#fff;}</style></defs><title>LOGO</title><g id="Capa_2" data-name="Capa 2"><g id="Capa_1-2" data-name="Capa 1"><path class="cls-1" d="M26.52,11.85a9.59,9.59,0,1,1-9.59-9.59,9.59,9.59,0,0,1,9.59,9.59Z"/><path class="cls-2" d="M26.52,18.32a9.59,9.59,0,1,1-9.59-9.59,9.59,9.59,0,0,1,9.59,9.59Z"/><path class="cls-3" d="M4.77,20.75A14.3,14.3,0,0,0,9.32,25.3a14.2,14.2,0,0,1-1.45-3.1,14.2,14.2,0,0,1-3.1-1.46Z"/><path class="cls-3" d="M20.93,6.2a8,8,0,0,0-8,0A7.78,7.78,0,0,0,10,9.14a8,8,0,0,0,0,8,14.13,14.13,0,0,1-2.1-4c-.11.32-.2.65-.28,1a14.35,14.35,0,0,0-.24,6.08,14.11,14.11,0,0,0,.51,2,13.51,13.51,0,0,1-2.11-.9c-.29-.15-.58-.31-.86-.48l-.13-.08a1.29,1.29,0,0,1-.09-.16,10.15,10.15,0,0,1-.75-1.42h0A14.34,14.34,0,0,1,3.85,7.29h0l.94-.54.9-.52,1-.55.91-.53,2.81-1.62h0a14.13,14.13,0,0,1,2.05-.14h0a14.6,14.6,0,0,1,4.48.74A14.17,14.17,0,0,1,20.93,6.2Z"/><path class="cls-4" d="M29.93,19.17h0a10.15,10.15,0,0,1-.75,1.42,1.32,1.32,0,0,1-.09.16l-.13.08c-.28.17-.56.33-.85.48a13.62,13.62,0,0,1-2.12.9,12.85,12.85,0,0,0,.5-2,14.23,14.23,0,0,0-.23-6.09c-.08-.32-.17-.64-.28-1a14.13,14.13,0,0,1-2.1,4,8,8,0,0,0,0-8A7.78,7.78,0,0,0,20.93,6.2a14.17,14.17,0,0,0-4-2.09,14.67,14.67,0,0,0-4.49-.74,14.13,14.13,0,0,0-2.05.14L16,.26l.06,0,.16-.07A1.42,1.42,0,0,1,16.5.06h.06l.13,0a.94.94,0,0,1,.47,0,.63.63,0,0,1,.19,0,.58.58,0,0,1,.21.07l.07,0a1.51,1.51,0,0,1,.22.11l5.62,3.25,2.81,1.62.91.53,1,.55.91.52.93.54A14.33,14.33,0,0,1,29.93,19.17Z"/><path class="cls-5" d="M24.53,25.3a14.3,14.3,0,0,0,4.55-4.55A14.16,14.16,0,0,1,26,22.21a14.21,14.21,0,0,1-1.46,3.1Z"/><path class="cls-5" d="M16.93,22.19a14.38,14.38,0,0,1-9.06,0,14.2,14.2,0,0,0,1.45,3.1,14.35,14.35,0,0,0,15.2,0A14.21,14.21,0,0,0,26,22.21a14.38,14.38,0,0,1-9.06,0Z"/><path class="cls-5" d="M16.93,22.19a14.26,14.26,0,0,1-4-2.09A7.83,7.83,0,0,1,10,17.16a14.23,14.23,0,0,1-2.09-4,14.39,14.39,0,0,0,0,9.06,14.38,14.38,0,0,0,9.06,0Z"/><path class="cls-6" d="M22.6,18.83a8.09,8.09,0,0,1-1.67,1.27,14.23,14.23,0,0,1-4,2.09,14.38,14.38,0,0,0,9.06,0,14.39,14.39,0,0,0,0-9.06,14.22,14.22,0,0,1-2.09,4,8.06,8.06,0,0,1-1.27,1.67Z"/><path class="cls-6" d="M12.92,20.1a14.26,14.26,0,0,0,4,2.09,14.23,14.23,0,0,0,4-2.09,8,8,0,0,1-8,0Z"/><path class="cls-6" d="M33.85,10.49V15.8a18.49,18.49,0,0,1-1,1.9c-.31.19-.61.37-.92.54h0l-.37.2q-.24.13-.48.24c-.17.09-.35.17-.52.24h0a5.56,5.56,0,0,1-.56.24h0a.42.42,0,0,1-.14.06c-.33.14-.67.26-1,.37a18.8,18.8,0,0,1-11.84,0,18.69,18.69,0,0,1-5.25-2.74,10.51,10.51,0,0,0,10.49,0A10.21,10.21,0,0,0,26,13s0,0,0,0h0a8.93,8.93,0,0,0,.5-1v0a10.34,10.34,0,0,0,.67-6.32l1,.55.91.52.93.54L32.93,9,33,9h0l.14.1h0a.05.05,0,0,1,0,0l0,0,0,0h0s0,0,0,0,0,0,0,.05a.35.35,0,0,1,.11.1,1.6,1.6,0,0,1,.32.67l0,.18a.12.12,0,0,1,0,.06A.5.5,0,0,1,33.85,10.49Z"/><path class="cls-5" d="M7.83,13a8.41,8.41,0,0,1-.5-.94v0a10.51,10.51,0,0,1-.67-6.35l-1,.55-.9.52-.94.54h0L.92,9,.87,9l-.16.11h0l0,0,0,0s0,0,0,0a.23.23,0,0,0-.07.07.54.54,0,0,0-.13.13l0,0a1.67,1.67,0,0,0-.17.26.56.56,0,0,0-.07.18.24.24,0,0,0-.05.1.31.31,0,0,0,0,.13.23.23,0,0,0,0,.11.35.35,0,0,0,0,.1v0s0,.06,0,.09a.22.22,0,0,0,0,.08V15.8A18.77,18.77,0,0,0,3.67,21,19.25,19.25,0,0,0,7,23.65a18.78,18.78,0,0,0,19.87,0A19.24,19.24,0,0,0,30.18,21a18.65,18.65,0,0,0,2.63-3.31,18.59,18.59,0,0,1-4,1.9,18.8,18.8,0,0,1-11.84,0,18.69,18.69,0,0,1-5.25-2.74A10.66,10.66,0,0,1,9.5,15.18,10.49,10.49,0,0,1,7.84,13Z"/><path class="cls-7" d="M33.85,10.49v10a27.71,27.71,0,0,1-3.75,2.24,29.47,29.47,0,0,1-8.89,2.79A16.56,16.56,0,0,0,32.89,13.79a16.37,16.37,0,0,0,.58-4.28v-.1A1.73,1.73,0,0,1,33.85,10.49Z"/><path class="cls-7" d="M19.81,37.16l-2,1.13a1.5,1.5,0,0,1-.22.11,1.71,1.71,0,0,1-1.4,0l-.16-.07-.06,0-2-1.13h0L.92,29.58l-.07,0A1.71,1.71,0,0,1,0,28.06V10.49a1.54,1.54,0,0,1,0-.3,1.08,1.08,0,0,1,.06-.24,1.57,1.57,0,0,1,.29-.54v.1A16.37,16.37,0,0,0,1,13.79a28.47,28.47,0,0,0,1,4.45q.21.72.48,1.41a27.21,27.21,0,0,0,1.3,3A29.67,29.67,0,0,0,16.93,35.91,26.32,26.32,0,0,0,19.81,37.16Z"/><path class="cls-8" d="M33.85,20.45v7.61a.49.49,0,0,1,0,.12.91.91,0,0,1,0,.23,1.07,1.07,0,0,1-.08.27,0,0,0,0,1,0,0,.61.61,0,0,1-.07.14.81.81,0,0,1-.12.2.59.59,0,0,1-.07.1.81.81,0,0,1-.16.16l-.16.13s0,0-.06,0l-.1.07-.05,0L19.81,37.16h0a26.2,26.2,0,0,1-2.87-1.25A29.67,29.67,0,0,1,3.75,22.69,29.44,29.44,0,0,1,1,13.79,16.56,16.56,0,0,0,12.64,25.48a16.82,16.82,0,0,0,4.29.58,16.81,16.81,0,0,0,4.28-.58,29.47,29.47,0,0,0,8.89-2.79A27.71,27.71,0,0,0,33.85,20.45Z"/><path class="cls-9" d="M10.51,22.57a.48.48,0,0,0-.68,0,.48.48,0,0,0,0,.68l5.69,5.69a.48.48,0,0,0,.68,0,.48.48,0,0,0,0-.68l-5.69-5.69Z"/><path class="cls-9" d="M18.77,22.61a.48.48,0,0,0-.68.68L23.77,29a.48.48,0,1,0,.68-.69l-5.69-5.69Z"/><path class="cls-9" d="M16.84,24.79a.48.48,0,0,0-.68.68l3.38,3.38a.48.48,0,1,0,.68-.68l-3.38-3.38Z"/><path class="cls-9" d="M22.55,23.34h5.63a.48.48,0,1,0,0-1H22.55a.48.48,0,0,0,0,1Z"/><path class="cls-9" d="M33.84,28.18a.91.91,0,0,1,0,.23,1.07,1.07,0,0,1-.08.27,0,0,0,0,1,0,0,.61.61,0,0,1-.07.14.81.81,0,0,1-.12.2.59.59,0,0,1-.07.1H28.33a.47.47,0,0,1-.48-.48.48.48,0,0,1,.48-.49Z"/><path class="cls-9" d="M28.51,25.76a.48.48,0,0,0-.48-.48H25.67a.48.48,0,0,0,0,1H28a.48.48,0,0,0,.48-.48Z"/></g></g></svg>