<svg width="150" height="45" viewBox="0 0 150 45" xmlns="http://www.w3.org/2000/svg"><title>LOGO</title><g fill="none" fill-rule="evenodd"><path d="M19.605 10.111c3.884 0 7.3 1.994 9.286 5.012a9.277 9.277 0 0 0-1.239-4.53 9.306 9.306 0 0 0-1.47-1.932A9.335 9.335 0 0 0 24.25 7.19a9.299 9.299 0 0 0-9.289.001 9.267 9.267 0 0 0-1.932 1.471 9.324 9.324 0 0 0-1.471 1.931 9.283 9.283 0 0 0-1.239 4.532 11.099 11.099 0 0 1 9.286-5.013" fill="#D49D60"/><path d="M10.49 17.036c.167.19.338.376.519.557.77.77 1.623 1.402 2.525 1.923a12.158 12.158 0 0 0 12.143 0 12.19 12.19 0 0 0 2.525-1.925c.18-.18.352-.366.517-.555.125-.631.18-1.273.172-1.913a11.099 11.099 0 0 0-9.286-5.012c-3.883 0-7.3 1.994-9.286 5.013-.008.64.047 1.282.172 1.912" fill="#E6BB83"/><path d="M19.605 4.763a16.629 16.629 0 0 0-7.581-.692l-3.256 1.88-1.06.612a12.17 12.17 0 0 0 .79 7.336c.171.386.357.766.57 1.137l.016.03c.022.038.047.074.068.11a13.43 13.43 0 0 0 1.338 1.861 9.34 9.34 0 0 1-.17-1.913 9.276 9.276 0 0 1 1.238-4.531 9.325 9.325 0 0 1 1.471-1.932 9.269 9.269 0 0 1 1.932-1.47 9.299 9.299 0 0 1 9.288-.002 16.516 16.516 0 0 0-4.644-2.426" fill="#F16549"/><path d="M34.751 8.438l-4.308-2.487-3.254-1.879-1.282-.74-5.24-3.025a2.123 2.123 0 0 0-2.122 0L12.024 4.07a16.626 16.626 0 0 1 7.58.692 16.51 16.51 0 0 1 4.645 2.426c.69.4 1.342.883 1.933 1.472a9.319 9.319 0 0 1 1.47 1.932 9.27 9.27 0 0 1 1.239 4.53 9.317 9.317 0 0 1-.172 1.913c.267-.304.51-.621.741-.945.213-.299.413-.603.597-.915.022-.038.046-.073.068-.11l.016-.032c.214-.371.4-.753.572-1.14a12.17 12.17 0 0 0 .789-7.332l1.102.637 1.049.605 1.098.634" fill="#F48365"/><path d="M34.666 22.21c-.444.181-.892.35-1.346.5-.867.286-1.75.515-2.641.689-.06.012-.122.021-.183.033a21.833 21.833 0 0 1-6.733.2l-.14-.02a21.542 21.542 0 0 1-10.089-4.097 12.154 12.154 0 0 1-2.525-1.922 11.672 11.672 0 0 1-1.259-1.501 13.066 13.066 0 0 1-.597-.915c-.022-.037-.047-.073-.069-.11l-.016-.032c-.213-.37-.4-.75-.57-1.136a12.167 12.167 0 0 1-.79-7.336L6.606 7.2l-1.049.606-4.568 2.638a1.968 1.968 0 0 0-.545.468l-.001.031v.002c0 .027-.003.053-.003.08 0 1.717.247 3.373.67 4.958a19.176 19.176 0 0 0 4.334 7.914l.203.215c.436.464.888.913 1.369 1.333a19.195 19.195 0 0 0 6.632 3.77l-2.264-2.266a.554.554 0 0 1-.087-.663c.025-.045.048-.092.087-.13a.556.556 0 0 1 .792 0l.307.307 3.329 3.33c1.153.237 2.343.371 3.563.387l-.66-.66a.555.555 0 0 1-.164-.397c0-.15.057-.29.164-.396a.557.557 0 0 1 .793 0l1.412 1.412a19.182 19.182 0 0 0 2.761-.414l-2.736-2.736a.558.558 0 0 1-.164-.396c0-.15.058-.292.164-.397.033-.032.073-.051.111-.075a.547.547 0 0 1 .286-.09c.15 0 .29.06.396.165l.087.087 3.119 3.118a19.066 19.066 0 0 0 5.135-2.359h-3.956a.559.559 0 0 1-.553-.49c-.003-.023-.007-.046-.007-.07a.56.56 0 0 1 .56-.561h5.49c.196-.159.395-.315.584-.48.477-.418.928-.864 1.361-1.326.072-.076.144-.15.214-.228a19.18 19.18 0 0 0 1.565-1.966c-.223.1-.446.2-.671.29" fill="#68C7C5"/><path d="M38.767 10.943v-.002l-.001-.031a1.97 1.97 0 0 0-.544-.467l-.07-.042-.005-.002-3.396-1.96-1.098-.635-1.049-.605-1.103-.637a12.166 12.166 0 0 1-.789 7.332c-.17.387-.358.769-.57 1.14l-.017.032c-.022.037-.046.072-.068.11a12.68 12.68 0 0 1-.597.915 11.853 11.853 0 0 1-1.258 1.5c-.77.77-1.624 1.403-2.525 1.924a12.157 12.157 0 0 1-12.143 0 21.563 21.563 0 0 0 10.088 4.097l.14.02a21.833 21.833 0 0 0 6.733-.2c.062-.012.123-.021.184-.033a21.103 21.103 0 0 0 4.657-1.478A19.052 19.052 0 0 0 38.1 15.98c.424-1.584.67-3.241.67-4.957l-.002-.08" fill="#00B1B0"/><path d="M38.766 10.91l.001.03v.003c0 .027.003.053.003.08a19.17 19.17 0 0 1-.67 4.957 19.065 19.065 0 0 1-2.763 5.94 19.225 19.225 0 0 1-1.565 1.966c-.07.077-.142.152-.214.228a19.17 19.17 0 0 1-1.36 1.325c-.19.166-.389.322-.585.48h1.028c.143 0 .272.056.37.143a.558.558 0 0 1-.37.979H30.08a19.46 19.46 0 0 1-1.693.986 19.065 19.065 0 0 1-3.442 1.373l.045.045a33.841 33.841 0 0 0 3.832-.834c.065-.018.13-.039.196-.057.271-.078.544-.155.813-.24a34.115 34.115 0 0 0 5.038-2.03 34.147 34.147 0 0 0 4.343-2.594V12.155c0-.462-.163-.898-.445-1.245M4.342 26.285A34.188 34.188 0 0 1 1.11 15.981a19.148 19.148 0 0 1-.671-4.958l.003-.079v-.032A1.974 1.974 0 0 0 0 12.154V32.51c0 .706.377 1.359.988 1.712l.077.044L16.28 43.05l2.265 1.308a2.132 2.132 0 0 0 2.123 0l2.265-1.308a33.864 33.864 0 0 1-3.327-1.453A34.368 34.368 0 0 1 4.342 26.285" fill="#00A8CB"/><path d="M32.461 30.408h-2.726a.561.561 0 0 1 0-1.121h2.726a.56.56 0 0 1 .504.318.56.56 0 0 1-.503.803m2.406-4.124a34.115 34.115 0 0 1-5.038 2.03c-.27.085-.541.162-.814.24l-.195.057a33.65 33.65 0 0 1-3.832.834l.454.453.47.47.155.155 2.262 2.262a.562.562 0 0 1-.793.794l-2.605-2.604-.015-.016-.748-.747-.488-.488c-.9.2-1.82.345-2.761.414l.48.48.977.977.304.304.737.737a.561.561 0 0 1-.793.793l-1.24-1.24-.414-.414-1.083-1.084-.513-.512c-1.22-.016-2.41-.15-3.563-.388l.68.68 1.252 1.253.527.527.495.495a.56.56 0 1 1-.792.792l-1.722-1.72-.421-.422-1.3-1.3-.717-.718-.165-.165A19.036 19.036 0 0 1 9.8 27.461a19.195 19.195 0 0 1-2.785-2.017 19.58 19.58 0 0 1-1.37-1.333c-.067-.072-.135-.143-.201-.216A19.132 19.132 0 0 1 3.87 21.92a19.063 19.063 0 0 1-2.76-5.938 33.882 33.882 0 0 0 1.711 6.77 34.186 34.186 0 0 0 1.52 3.534 34.368 34.368 0 0 0 15.263 15.312 33.967 33.967 0 0 0 3.327 1.453l15.214-8.783.002-.002.002-.001h.001l.072-.042c.204-.118.379-.271.525-.447h-5.933a.562.562 0 0 1 0-1.122H39.2c.004-.048.01-.095.01-.143v-8.819a34.195 34.195 0 0 1-4.343 2.593" fill="#00B5CC"/><path d="M18.271 32.25l-.527-.526-1.252-1.253-.68-.68-3.33-3.33-.306-.306a.554.554 0 0 0-.396-.165.554.554 0 0 0-.396.165c-.039.038-.062.084-.087.13a.553.553 0 0 0 .087.663l2.264 2.265.166.165.717.718 1.3 1.3.421.421 1.721 1.722a.556.556 0 0 0 .398.164.56.56 0 0 0 .396-.957l-.496-.495zm7.797-1.727l-.156-.155-.47-.47-.453-.453-.045-.045-3.12-3.119-.085-.086a.56.56 0 0 0-.397-.165.547.547 0 0 0-.286.09c-.038.024-.078.043-.111.075a.555.555 0 0 0-.163.397c0 .15.057.29.163.396l2.736 2.736.488.488.748.747.015.016 2.605 2.604a.56.56 0 1 0 .793-.793l-2.262-2.263zm-3.388 1.376l-.303-.304-.976-.976-.481-.481-1.412-1.412a.557.557 0 0 0-.793 0 .552.552 0 0 0-.164.396c0 .15.057.29.164.396l.66.661.513.512 1.083 1.084.415.415 1.24 1.24a.56.56 0 1 0 .792-.793l-.738-.738zm7.399-4.859h2.561a.557.557 0 1 0 .37-.978.556.556 0 0 0-.37-.142h-6.518a.56.56 0 0 0-.56.56c0 .025.004.048.007.07.035.277.268.49.554.49h3.955zm9.117 5.613h-6.381a.562.562 0 0 0 0 1.122h5.933c.263-.314.423-.705.453-1.122h-.005zm-6.735-2.245a.56.56 0 0 0 0-1.121h-2.726a.56.56 0 0 0 0 1.12h2.726z" fill="#FEFEFE"/><path d="M60.462 17.476l-2.288 10.272c-.017.049-.032.114-.049.147v.016c-.016.048-.05.08-.064.13l-.017.015c-.016.05-.049.081-.081.114l-.017.017a.738.738 0 0 1-.113.097c0 .016 0 .016-.016.016-.033.032-.065.049-.114.082h-.016v.015l-.13.05h-.016l-.146.049h-.016c-.05 0-.098.015-.146.015h-.017c-.033 0-.064 0-.097-.015h-.016c-.016 0-.049 0-.082-.017h-.048c-.016-.016-.032-.016-.05-.016-.015 0-.032-.017-.048-.017 0-.016-.015-.016-.032-.016l-.05-.033c-.015 0-.031 0-.031-.015-.016 0-.032-.017-.049-.017-.016-.016-.032-.016-.032-.033-.017 0-.032-.016-.049-.032-.016 0-.016-.016-.032-.016l-.033-.033c-.016-.016-.032-.032-.048-.032 0-.015-.017-.032-.017-.049-.016 0-.032-.016-.032-.033-.017-.015-.033-.015-.033-.031l-.032-.05c0-.016-.017-.032-.032-.047 0 0 0-.017-.017-.017l-2.58-4.836-2.434 4.82c-.017 0-.017 0-.017.016l-.048.08c-.016.018-.016.018-.016.034-.033.031-.05.064-.081.08 0 .018-.016.018-.016.018-.016.03-.05.047-.081.08 0 0-.017 0-.017.016l-.097.065-.114.065h-.016c-.033.016-.065.033-.097.033 0 0-.017 0-.034.016h-.015c-.017 0-.05.017-.065.017h-.049c-.033.015-.08.015-.113.015-.05 0-.097-.015-.146-.015h-.032c-.05-.017-.082-.033-.13-.033 0-.017-.017-.017-.017-.017l-.113-.049h-.017c-.016-.015-.016-.015-.032-.015-.033-.033-.082-.05-.114-.082-.048-.033-.081-.065-.113-.096 0-.017-.017-.017-.017-.017-.032-.05-.064-.081-.08-.114-.017-.017-.017-.017-.017-.033-.032-.03-.049-.081-.065-.129h-.016l-.05-.147v-.016l-2.433-10.255a.984.984 0 0 1 .713-1.184.999.999 0 0 1 1.186.73l1.833 7.675 2.078-4.121a1.03 1.03 0 0 1 .876-.537.99.99 0 0 1 .86.52l2.223 4.153 1.704-7.674a.98.98 0 1 1 1.915.421m8.276 5.844v3.212h4.64c.537 0 .974.438.974.973a.963.963 0 0 1-.974.958h-5.614a.95.95 0 0 1-.958-.958V17.12c0-.536.422-.974.958-.974h5.614c.537 0 .974.438.974.974a.976.976 0 0 1-.974.973h-4.64v3.294h4.64c.537 0 .974.422.974.974a.963.963 0 0 1-.974.958h-4.64z" fill="#F16549"/><path d="M89.346 17.153a.98.98 0 0 1-.974.988h-2.79v9.364a.982.982 0 1 1-1.964 0V18.14h-2.776a.98.98 0 0 1-.973-.988c0-.537.438-.975.973-.975h7.53c.535 0 .974.438.974.975m12.171.941c-2.321 0-4.204 1.883-4.204 4.187a4.204 4.204 0 0 0 4.204 4.203c2.303 0 4.186-1.882 4.186-4.203a4.197 4.197 0 0 0-4.186-4.187m0 10.353a6.165 6.165 0 0 1-6.168-6.166c0-3.39 2.759-6.15 6.168-6.15 3.391 0 6.149 2.76 6.149 6.166 0 3.39-2.758 6.15-6.15 6.15m18.726-8.6c0-.942-.778-1.803-1.638-1.803h-2.694v3.425h2.564c.941 0 1.768-.762 1.768-1.622m1.932 0c0 1.913-1.687 3.554-3.7 3.554h-2.564v4.072a.948.948 0 0 1-.957.959.948.948 0 0 1-.958-.959V17.168a.97.97 0 0 1 .908-.956v-.099h3.7c1.932 0 3.57 1.704 3.57 3.733m7.465 8.6a.98.98 0 0 1-.974-.99V17.12a.982.982 0 0 1 1.963 0v10.335a.982.982 0 0 1-.99.991m15.53-4.933l-1.98-3.96-1.834 3.96h3.814zm3.538 4.9a.968.968 0 0 1-1.298-.422l-1.266-2.53h-5.566c-.048 0-.08 0-.114-.017l-1.168 2.515a.972.972 0 0 1-.877.569.87.87 0 0 1-.405-.098.961.961 0 0 1-.471-1.282l4.738-10.24a.988.988 0 0 1 .86-.567h.017a1 1 0 0 1 .876.535l5.112 10.24a.953.953 0 0 1-.438 1.297z" fill="#00A8CB"/></g></svg>