<svg xmlns="http://www.w3.org/2000/svg" xmlns:xlink="http://www.w3.org/1999/xlink" viewBox="0 0 174.31 176.6"><defs><style>.cls-1{fill:none;}.cls-2{fill:#b7814f;}.cls-3{fill:#cfa175;}.cls-4{clip-path:url(#clip-path);}.cls-5{fill:#e84b37;}.cls-6{fill:#eb6852;}.cls-7{fill:#65cbc9;}.cls-8{fill:#00afaa;}.cls-9{clip-path:url(#clip-path-2);}.cls-10{clip-path:url(#clip-path-3);}.cls-11{fill:#0091b3;}.cls-12{fill:#00acc8;}.cls-13{fill:#fff;}</style><clipPath id="clip-path"><path class="cls-1" d="M38.68,85.53l45.7-26.39a5.55,5.55,0,0,1,5.54,0l45.7,26.39a5.55,5.55,0,0,1,2.77,4.8V143.1a5.55,5.55,0,0,1-2.77,4.8l-45.7,26.39a5.54,5.54,0,0,1-5.54,0l-45.7-26.39a5.55,5.55,0,0,1-2.77-4.8V90.33a5.55,5.55,0,0,1,2.77-4.8Z"/></clipPath><clipPath id="clip-path-2"><path class="cls-1" d="M38.49,85.64,84.57,59a5.17,5.17,0,0,1,5.17,0l46.08,26.6a5.17,5.17,0,0,1,2.58,4.48v53.21a5.17,5.17,0,0,1-2.58,4.48L89.74,174.4a5.17,5.17,0,0,1-5.17,0L38.49,147.8a5.17,5.17,0,0,1-2.58-4.48V90.12a5.17,5.17,0,0,1,2.58-4.48Z"/></clipPath><clipPath id="clip-path-3"><path class="cls-1" d="M38.7,85.52,84.37,59.15a5.57,5.57,0,0,1,5.57,0l45.68,26.37a5.57,5.57,0,0,1,2.78,4.82v52.74a5.57,5.57,0,0,1-2.78,4.82L89.94,174.29a5.58,5.58,0,0,1-5.57,0L38.7,147.91a5.57,5.57,0,0,1-2.79-4.82V90.35a5.57,5.57,0,0,1,2.79-4.82Z"/></clipPath></defs><title>logo_Login</title><g id="Capa_2" data-name="Capa 2"><g id="Capa_1-2" data-name="Capa 1"><path class="cls-2" d="M116.2,94.24a29,29,0,1,1-29-29,29,29,0,0,1,29,29Z"/><path class="cls-3" d="M116.2,113.82a29,29,0,1,1-29-29,29,29,0,0,1,29,29Z"/><g class="cls-4"><path class="cls-5" d="M50.36,121.19A43.29,43.29,0,0,0,64.14,135a43,43,0,0,1-4.41-9.37,43,43,0,0,1-9.37-4.41Z"/><path class="cls-5" d="M50.36,121.19a43,43,0,0,0,9.37,4.41,43.56,43.56,0,0,1,0-27.42,43.59,43.59,0,0,1,0-27.42,43.1,43.1,0,0,0-9.37,4.41,43.45,43.45,0,0,0,0,46Z"/><path class="cls-5" d="M70,81a24.2,24.2,0,0,1,5-3.84,43.1,43.1,0,0,1,12.14-6.35,43.57,43.57,0,0,0-27.42,0,43.59,43.59,0,0,0,0,27.42A43.13,43.13,0,0,1,66.12,86,24.38,24.38,0,0,1,70,81Z"/><path class="cls-5" d="M99.3,77.14a43.14,43.14,0,0,0-12.14-6.34A43.1,43.1,0,0,0,75,77.14a24.3,24.3,0,0,1,24.28,0Z"/><path class="cls-6" d="M64.14,61.38A43.31,43.31,0,0,0,50.36,75.16a43.1,43.1,0,0,1,9.37-4.41,43.13,43.13,0,0,1,4.41-9.37Z"/><path class="cls-6" d="M87.15,70.79a43.57,43.57,0,0,1,27.42,0,43.07,43.07,0,0,0-4.41-9.37,43.45,43.45,0,0,0-46,0,43.13,43.13,0,0,0-4.41,9.37,43.57,43.57,0,0,1,27.42,0Z"/><path class="cls-6" d="M104.35,81a24.31,24.31,0,0,1,3.84,5,43,43,0,0,1,6.34,12.14,43.55,43.55,0,0,0,0-27.42,43.57,43.57,0,0,0-27.42,0A43.14,43.14,0,0,1,99.3,77.14,24.42,24.42,0,0,1,104.35,81Z"/><path class="cls-6" d="M108.19,110.31a43,43,0,0,0,6.34-12.14A43,43,0,0,0,108.19,86a24.31,24.31,0,0,1,0,24.28Z"/><path class="cls-5" d="M66.12,86a43.13,43.13,0,0,0-6.34,12.14,43.07,43.07,0,0,0,6.34,12.14,24.32,24.32,0,0,1,0-24.28Z"/><path class="cls-7" d="M110.17,135A43.28,43.28,0,0,0,124,121.19a42.87,42.87,0,0,1-9.37,4.41,43,43,0,0,1-4.41,9.37Z"/><path class="cls-7" d="M87.15,125.55a43.55,43.55,0,0,1-27.42,0A43,43,0,0,0,64.14,135a43.45,43.45,0,0,0,46,0,43,43,0,0,0,4.41-9.37,43.54,43.54,0,0,1-27.42,0Z"/><path class="cls-7" d="M87.15,125.55A43.16,43.16,0,0,1,75,119.21a23.72,23.72,0,0,1-8.9-8.9,43.07,43.07,0,0,1-6.34-12.14,43.56,43.56,0,0,0,0,27.42,43.55,43.55,0,0,0,27.42,0Z"/><path class="cls-8" d="M124,75.16a43.25,43.25,0,0,0-13.78-13.78,43.07,43.07,0,0,1,4.41,9.37A43.09,43.09,0,0,1,124,75.16Z"/><path class="cls-6" d="M114.53,98.17a43.56,43.56,0,0,1,0,27.42,42.87,42.87,0,0,0,9.37-4.41,43.45,43.45,0,0,0,0-46,43.09,43.09,0,0,0-9.37-4.41,43.55,43.55,0,0,1,0,27.42Z"/><path class="cls-8" d="M104.35,115.36a24.5,24.5,0,0,1-5.05,3.84,43.09,43.09,0,0,1-12.14,6.34,43.54,43.54,0,0,0,27.42,0,43.56,43.56,0,0,0,0-27.42,43,43,0,0,1-6.34,12.14,24.39,24.39,0,0,1-3.84,5.05Z"/><path class="cls-8" d="M75,119.21a43.16,43.16,0,0,0,12.14,6.34,43.09,43.09,0,0,0,12.14-6.34,24.3,24.3,0,0,1-24.28,0Z"/></g><g class="cls-9"><path class="cls-7" d="M39.05,111.95a56.6,56.6,0,0,0,18,18,56.31,56.31,0,0,1-5.76-12.25,56.43,56.43,0,0,1-12.25-5.76Z"/><path class="cls-7" d="M39.05,111.95a56.43,56.43,0,0,0,12.25,5.76,56.94,56.94,0,0,1,.06-35.85A57,57,0,0,1,51.31,46a56.4,56.4,0,0,0-12.25,5.76,56.8,56.8,0,0,0,0,60.18Z"/><path class="cls-7" d="M64.69,59.39a31.7,31.7,0,0,1,6.6-5,56.32,56.32,0,0,1,15.87-8.29A57,57,0,0,0,51.31,46a57,57,0,0,0,.06,35.85A56.36,56.36,0,0,1,59.66,66a31.75,31.75,0,0,1,5-6.6Z"/><path class="cls-8" d="M109.63,59.39a31.67,31.67,0,0,1,5,6.6,56.31,56.31,0,0,1,8.29,15.87A57,57,0,0,0,123,46a57,57,0,0,0-35.85.06A56.32,56.32,0,0,1,103,54.36a31.74,31.74,0,0,1,6.6,5Z"/><path class="cls-8" d="M114.65,97.72a56.31,56.31,0,0,0,8.29-15.87A56.31,56.31,0,0,0,114.65,66a31.78,31.78,0,0,1,0,31.74Z"/><path class="cls-7" d="M59.66,66a56.36,56.36,0,0,0-8.29,15.87,56.31,56.31,0,0,0,8.29,15.87,31.79,31.79,0,0,1,0-31.74Z"/><path class="cls-7" d="M117.24,130a56.53,56.53,0,0,0,18-18A56.28,56.28,0,0,1,123,117.7,56.27,56.27,0,0,1,117.24,130Z"/><path class="cls-7" d="M87.15,117.65a57,57,0,0,1-35.85.06A56.31,56.31,0,0,0,57.07,130a56.8,56.8,0,0,0,60.18,0A56.27,56.27,0,0,0,123,117.7a57,57,0,0,1-35.85-.06Z"/><path class="cls-7" d="M87.15,117.65a56.36,56.36,0,0,1-15.87-8.29A31,31,0,0,1,59.65,97.73a56.31,56.31,0,0,1-8.29-15.87,56.94,56.94,0,0,0-.06,35.85,57,57,0,0,0,35.85-.06Z"/><path class="cls-8" d="M122.95,81.85A57,57,0,0,1,123,117.7a56.28,56.28,0,0,0,12.25-5.76,56.8,56.8,0,0,0,0-60.17A56.39,56.39,0,0,0,123,46a57,57,0,0,1-.06,35.85Z"/><path class="cls-8" d="M109.63,104.33a31.79,31.79,0,0,1-6.6,5,56.4,56.4,0,0,1-15.87,8.29,57,57,0,0,0,35.85.06,57,57,0,0,0-.06-35.85,56.31,56.31,0,0,1-8.29,15.87,31.57,31.57,0,0,1-5,6.6Z"/><path class="cls-8" d="M71.28,109.36a56.36,56.36,0,0,0,15.87,8.29A56.4,56.4,0,0,0,103,109.35a31.78,31.78,0,0,1-31.74,0Z"/></g><g class="cls-10"><path class="cls-5" d="M0,67.08A89,89,0,0,0,7.23,87.16a89.77,89.77,0,0,1,40-39.9,89.82,89.82,0,0,1,39.9-40A88.94,88.94,0,0,0,67.08,0,89.54,89.54,0,0,0,0,67.08Z"/><path class="cls-5" d="M135.5,74.19a88.82,88.82,0,0,0-8.45-26.93,88.83,88.83,0,0,0-26.93-8.45A50.1,50.1,0,0,1,135.5,74.19Z"/><path class="cls-6" d="M127.05,47.26a89.82,89.82,0,0,1,40,39.9,89,89,0,0,0,7.23-20.08A89.54,89.54,0,0,0,107.24,0,88.89,88.89,0,0,0,87.16,7.23a89.82,89.82,0,0,1,39.9,40Z"/><path class="cls-11" d="M137.25,87.16a50,50,0,0,1-1.75,13A88.78,88.78,0,0,1,127.05,127a89.8,89.8,0,0,0,40-39.89,89.82,89.82,0,0,0-40-39.9,88.82,88.82,0,0,1,8.45,26.93,50.07,50.07,0,0,1,1.75,13Z"/><path class="cls-11" d="M100.12,135.49A88.85,88.85,0,0,0,127.05,127a88.78,88.78,0,0,0,8.45-26.93,50.11,50.11,0,0,1-35.38,35.38Z"/><path class="cls-7" d="M74.2,38.81a88.82,88.82,0,0,0-26.94,8.45,88.79,88.79,0,0,0-8.45,26.93A50.1,50.1,0,0,1,74.2,38.81Z"/><path class="cls-11" d="M67.08,174.31a89.17,89.17,0,0,0,40.16,0,88.74,88.74,0,0,1-20.08-7.24,88.79,88.79,0,0,1-20.08,7.24Z"/><path class="cls-11" d="M47.26,127.05a89.81,89.81,0,0,1-40-39.89A88.86,88.86,0,0,0,0,107.24a89.54,89.54,0,0,0,67.08,67.07,88.79,88.79,0,0,0,20.08-7.24,89.83,89.83,0,0,1-39.9-40Z"/><path class="cls-11" d="M47.26,127.05a88.81,88.81,0,0,1-8.45-26.93,48.79,48.79,0,0,1,0-25.93,88.79,88.79,0,0,1,8.45-26.93,89.77,89.77,0,0,0-40,39.9,89.81,89.81,0,0,0,40,39.89Z"/><path class="cls-12" d="M127.05,127a89.81,89.81,0,0,1-39.9,40,88.74,88.74,0,0,0,20.08,7.24,89.54,89.54,0,0,0,67.07-67.07,88.91,88.91,0,0,0-7.23-20.08,89.8,89.8,0,0,1-40,39.89Z"/><path class="cls-12" d="M87.16,137.25a50.11,50.11,0,0,1-13-1.75,88.85,88.85,0,0,1-26.94-8.45,89.83,89.83,0,0,0,39.9,40,89.81,89.81,0,0,0,39.9-40,88.85,88.85,0,0,1-26.93,8.45,50,50,0,0,1-13,1.76Z"/><path class="cls-12" d="M38.81,100.12a88.81,88.81,0,0,0,8.45,26.93A88.85,88.85,0,0,0,74.2,135.5a50.09,50.09,0,0,1-35.38-35.38Z"/></g><path class="cls-13" d="M67.74,126.71a1.46,1.46,0,0,0-2.07,0,1.47,1.47,0,0,0,0,2.07L82.89,146A1.46,1.46,0,0,0,85,146a1.46,1.46,0,0,0,0-2.07L67.74,126.71Z"/><path class="cls-13" d="M92.73,126.82a1.47,1.47,0,0,0-2.07,2.07l17.23,17.23A1.47,1.47,0,1,0,110,144L92.73,126.82Z"/><path class="cls-13" d="M86.9,133.43a1.47,1.47,0,0,0-2.07,2.07l10.22,10.22a1.47,1.47,0,1,0,2.07-2.07L86.9,133.43Z"/><path class="cls-13" d="M104.19,129h17a1.47,1.47,0,1,0,0-2.93h-17a1.47,1.47,0,0,0,0,2.93Z"/><path class="cls-13" d="M138.72,143.7h-17a1.47,1.47,0,1,0,0,2.93h17a1.47,1.47,0,0,0,0-2.93Z"/><path class="cls-13" d="M122.22,136.36a1.47,1.47,0,0,0-1.46-1.47h-7.13a1.47,1.47,0,0,0,0,2.93h7.13a1.47,1.47,0,0,0,1.46-1.47Z"/></g></g></svg>