<svg xmlns="http://www.w3.org/2000/svg" viewBox="0 0 104.36 120.16"><defs><style>.cls-1{fill:#f5f5f5;}.cls-2{fill:#e6e6e6;}.cls-3{fill:#fff;}</style></defs><title>photo_Login</title><g id="Capa_2" data-name="Capa 2"><g id="Capa_1-2" data-name="Capa 1"><path class="cls-1" d="M0,30.59v59a1.09,1.09,0,0,0,.54.94L51.63,120a1.09,1.09,0,0,0,1.09,0l51.09-29.5a1.09,1.09,0,0,0,.54-.94v-59a1.09,1.09,0,0,0-.54-.94L52.72.15a1.09,1.09,0,0,0-1.09,0L.54,29.64A1.09,1.09,0,0,0,0,30.59Z"/><path class="cls-2" d="M98.94,33.71V86.45a1.09,1.09,0,0,1-.54.94l-10,5.78L52.72,113.77a1.09,1.09,0,0,1-1.09,0L16,93.17,6,87.39a1.09,1.09,0,0,1-.55-.94V33.71A1.09,1.09,0,0,1,6,32.76L51.63,6.4a1.09,1.09,0,0,1,1.09,0L98.4,32.76A1.09,1.09,0,0,1,98.94,33.71Z"/><path class="cls-3" d="M88.39,93.17,52.18,114.08,16,93.17l.13-.36.06-.4.35-.39A25.8,25.8,0,0,1,31.79,79.43l5.63-1.67-4-6.43a21.49,21.49,0,0,1-3.11-15.11l.52-3.05a21.31,21.31,0,0,1,8.68-13.79,21,21,0,0,1,12.47-4,22,22,0,0,1,13,4.43,21.63,21.63,0,0,1,7.81,12.3l.81,3.45a21.56,21.56,0,0,1-2.87,16.26L67,77.71l5.63,1.67A26.2,26.2,0,0,1,88,92l.17.39.11.4Z"/></g></g></svg>