<svg id="Capa_1" data-name="Capa 1" xmlns="http://www.w3.org/2000/svg" viewBox="0 0 13.61 13.7"><defs><style>.cls-1{fill:#e6ba83;}</style></defs><title>profile</title><path class="cls-1" d="M13.25,12.89a1.88,1.88,0,0,1-1.55.81H1.9a1.93,1.93,0,0,1-1.56-.81A2,2,0,0,1,.1,11.14L.52,10V9.93l.06-.07A4.45,4.45,0,0,1,3.26,7.67l1-.29-.7-1.12A3.74,3.74,0,0,1,3,3.63l.09-.53A3.72,3.72,0,0,1,4.59.7,3.65,3.65,0,0,1,6.76,0,3.83,3.83,0,0,1,9,.77a3.77,3.77,0,0,1,1.36,2.14l.14.6A3.76,3.76,0,0,1,10,6.34l-.64,1,1,.29A4.58,4.58,0,0,1,13,9.86l0,.07,0,.06.41,1.15A1.92,1.92,0,0,1,13.25,12.89Z"/></svg>