<?xml version="1.0" encoding="utf-8"?>
<!-- Generator: Adobe Illustrator 18.1.0, SVG Export Plug-In . SVG Version: 6.00 Build 0)  -->
<svg version="1.1" id="Capa_1" xmlns="http://www.w3.org/2000/svg" xmlns:xlink="http://www.w3.org/1999/xlink" x="0px" y="0px"
	 viewBox="0 51.3 828 212.3" enable-background="new 0 51.3 828 212.3" xml:space="preserve">
<title>project</title>
<path fill="#F48464" d="M67.6,51.3h692.8c37.3,0,67.6,30.3,67.6,67.6v77.2c0,37.3-30.3,67.6-67.6,67.6H67.6
	C30.3,263.7,0,233.4,0,196.1v-77.2C0,81.6,30.3,51.3,67.6,51.3z"/>
<path fill="#FFFFFF" d="M220.8,118.4c0.1-0.4,0.1-0.8,0-1.2c-0.9-4.5-4.8-7.8-9.4-7.8h-60.1c-5.4,0-9.7,4.3-9.7,9.7v76.7
	c0,5.4,4.3,9.7,9.7,9.8h60.1c4.6,0,8.6-3.3,9.4-7.9c0.1-0.4,0.1-0.8,0-1.2c0-0.2,0-0.5,0-0.7v-76.7
	C220.8,118.9,220.8,118.7,220.8,118.4z"/>
<path fill="#FFFFFF" d="M239.2,126.3v62.2c0,4.3-3.5,7.9-7.9,7.9h-5v-78.1h5C235.7,118.5,239.2,122,239.2,126.3z"/>
<path fill="#FFFFFF" d="M123.4,188.6v-62.2c0-4.3,3.5-7.9,7.9-7.9h5v78.1h-5C126.9,196.5,123.4,192.9,123.4,188.6z"/>
<g enable-background="new    ">
	<path fill="#FFFFFF" d="M296.3,118.1h28.4c14.2,0,24.4,9.6,24.4,24.3c0,14.7-10.2,24.6-24.4,24.6h-17.5v28.7h-10.9V118.1z
		 M323,157.5c9.4,0,15.1-5.8,15.1-15.2s-5.7-14.9-15-14.9h-15.8v30H323z"/>
	<path fill="#FFFFFF" d="M360.9,140.1h10.3v9.7c0,2.3-0.2,4.2-0.2,4.2h0.2c2.5-8.1,9-14.5,17.6-14.5c1.4,0,2.8,0.2,2.8,0.2v10.6
		c0,0-1.4-0.3-3.1-0.3c-6.8,0-13.1,4.8-15.6,13.1c-1,3.2-1.3,6.6-1.3,10v22.8h-10.7V140.1z"/>
	<path fill="#FFFFFF" d="M427.8,138.7c16.6,0,30,12.2,30,29c0,16.9-13.4,29.3-30,29.3s-30-12.3-30-29.3
		C397.8,150.9,411.2,138.7,427.8,138.7z M427.8,187.8c10.6,0,19.1-8.4,19.1-20c0-11.5-8.6-19.8-19.1-19.8
		c-10.5,0-19.1,8.2-19.1,19.8C408.7,179.4,417.3,187.8,427.8,187.8z"/>
	<path fill="#FFFFFF" d="M481,140.1v57.5c0,18.6-14.3,20.8-21.2,20.8c-2.3,0-3.7-0.2-3.7-0.2V209c0,0,1,0.1,2.4,0.1
		c4.1,0,12-1.3,12-12.2v-56.9H481z M470.4,118.1h10.8v10.9h-10.8V118.1z"/>
	<path fill="#FFFFFF" d="M521.7,138.7c15.7,0,24.1,11.7,24.1,26.1c0,1.4-0.3,4.6-0.3,4.6h-40.6c0.6,12.2,9.2,18.4,19.1,18.4
		c9.6,0,16.5-6.5,16.5-6.5l4.4,7.8c0,0-8.3,7.9-21.6,7.9c-17.5,0-29.5-12.7-29.5-29.2C493.9,150.2,505.9,138.7,521.7,138.7z
		 M534.9,161.4c-0.3-9.6-6.3-14.2-13.4-14.2c-8.1,0-14.7,5.1-16.3,14.2H534.9z"/>
	<path fill="#FFFFFF" d="M584.6,138.7c14,0,20.9,8.1,20.9,8.1l-5.1,7.5c0,0-5.9-6.4-15.4-6.4c-11.2,0-19.4,8.4-19.4,19.8
		c0,11.3,8.1,20,19.7,20c10.3,0,17.2-7.5,17.2-7.5l4.3,7.8c0,0-7.7,8.9-22.2,8.9c-17.5,0-29.8-12.4-29.8-29.2
		C554.8,151.4,567.2,138.7,584.6,138.7z"/>
	<path fill="#FFFFFF" d="M621.3,149.4H614v-8.6h7.6v-16.1h10.3v16.1h13.4v8.6h-13.4v24.7c0,11.1,7.8,12.5,11.9,12.5
		c1.5,0,2.5-0.2,2.5-0.2v9.5c0,0-1.5,0.2-3.7,0.2c-7.1,0-21.3-2.2-21.3-20.8V149.4z"/>
</g>
<g enable-background="new    ">
</g>
<g enable-background="new    ">
</g>
</svg>
