<svg id="Capa_1" data-name="Capa 1" xmlns="http://www.w3.org/2000/svg" viewBox="0 0 135.01 34.62"><defs><style>.cls-1{fill:#f48465;}.cls-2,.cls-3{fill:#fff;}.cls-3{font-size:20px;font-family:MuseoSans-500, Museo Sans;}.cls-4{letter-spacing:0em;}</style></defs><title>project</title><rect class="cls-1" width="135.01" height="34.62" rx="11.02" ry="11.02"/><path class="cls-2" d="M36,10.94a.65.65,0,0,0,0-.2,1.56,1.56,0,0,0-1.54-1.27h-9.8a1.58,1.58,0,0,0-1.58,1.58V23.56a1.59,1.59,0,0,0,1.58,1.59h9.8A1.57,1.57,0,0,0,36,23.87a.65.65,0,0,0,0-.2.42.42,0,0,0,0-.11V11.05A.38.38,0,0,0,36,10.94Z"/><path class="cls-2" d="M39,12.23V22.38a1.29,1.29,0,0,1-1.28,1.29h-.81V10.94h.81A1.29,1.29,0,0,1,39,12.23Z"/><path class="cls-2" d="M20.12,22.38V12.23a1.29,1.29,0,0,1,1.28-1.29h.81V23.67H21.4A1.29,1.29,0,0,1,20.12,22.38Z"/><text class="cls-3" transform="translate(46.06 23.59)">P<tspan class="cls-4" x="12.14" y="0">r</tspan><tspan x="19.58" y="0">oject</tspan></text></svg>