<svg xmlns="http://www.w3.org/2000/svg" viewBox="0 0 27.24 25"><defs><style>.cls-1{fill:#e84b37;}</style></defs><title>Proyecto</title><g id="Capa_2" data-name="Capa 2"><g id="Capa_1-2" data-name="Capa 1"><path class="cls-1" d="M21.5,0H5.74A5.74,5.74,0,0,0,0,5.74V19.26A5.75,5.75,0,0,0,5.74,25H21.5a5.75,5.75,0,0,0,5.74-5.74V5.74A5.75,5.75,0,0,0,21.5,0ZM10.62,5a1,1,0,1,1-1,1A1,1,0,0,1,10.62,5ZM21.73,18.15H6a.81.81,0,0,1-.63-1.32L9.6,11.57a.82.82,0,0,1,1.2-.07L13,13.64a.81.81,0,0,0,1.21-.09l3.75-4.93a.81.81,0,0,1,1.4.2l3.17,8.23A.81.81,0,0,1,21.73,18.15Z"/></g></g></svg>