<svg xmlns="http://www.w3.org/2000/svg" viewBox="0 0 52.39 19.79"><defs><style>.cls-1{fill:#03a9cd;}</style></defs><title>Recurso 11_Idea</title><g id="Capa_2" data-name="Capa 2"><g id="Capa_1-2" data-name="Capa 1"><path class="cls-1" d="M51.78,2c-.17-.08-4.35-2-11.87-2A26.77,26.77,0,0,0,31.5,1.21a17.26,17.26,0,0,1-5.31.87,17.25,17.25,0,0,1-5.31-.87A26.77,26.77,0,0,0,12.47,0C5,0,.78,1.88.61,2a.66.66,0,0,0-.39.56L0,5.74a.68.68,0,0,0,.43.66,1.75,1.75,0,0,1,.67.43c0,.11.11.47.22,1a50.2,50.2,0,0,0,1.74,6.73,6.45,6.45,0,0,0,4.06,4.32,14.55,14.55,0,0,0,5.33.93,13.25,13.25,0,0,0,5.18-1c3.81-1.64,4.73-4.14,5.89-7.29L24,10.27c.81-2.32,1-2.62,2.24-2.62s1.43.3,2.24,2.62c.13.38.28.8.45,1.27,1.15,3.16,2.06,5.65,5.88,7.3a13.28,13.28,0,0,0,5.18,1,14.58,14.58,0,0,0,5.34-.93,6.46,6.46,0,0,0,4.06-4.32,50.49,50.49,0,0,0,1.74-6.71c.11-.52.18-.89.22-1A1.71,1.71,0,0,1,52,6.41a.68.68,0,0,0,.43-.66l-.22-3.22A.67.67,0,0,0,51.78,2ZM19.67,13.38c-1.2,2.48-3.71,3.74-7.46,3.74-3,0-4.86-.68-6-2.2S3.81,7.17,4.67,5.23s4.65-2.52,8-2.52c3.48,0,7.6.72,8.45,2.29s.34,4.75-1.41,8.38Zm26.5,1.54c-1.13,1.52-3,2.2-6,2.2-3.75,0-6.26-1.26-7.46-3.74C31,9.74,30.45,6.61,31.31,5s5-2.29,8.45-2.29c3.3,0,7.13.66,8,2.52s-.46,8.23-1.55,9.7Z"/></g></g></svg>