<?xml version="1.0" encoding="UTF-8"?>
<svg width="18px" height="20px" viewBox="0 0 18 20" version="1.1" xmlns="http://www.w3.org/2000/svg" xmlns:xlink="http://www.w3.org/1999/xlink">
    <!-- Generator: Sketch 42 (36781) - http://www.bohemiancoding.com/sketch -->
    <title>RIGHT_UN_ICON</title>
    <desc>Created with Sketch.</desc>
    <defs></defs>
    <g id="Page-1" stroke="none" stroke-width="1" fill="none" fill-rule="evenodd">
        <g id="RIGHT_UN_ICON">
            <polygon id="Fill-1" fill="#8CC63E" points="8.66016 2e-05 -4e-05 5.00002 -4e-05 15.00002 8.66016 20.00002 17.32056 15.00002 17.32056 5.00002"></polygon>
            <path d="M7.33988,11.94332 C7.40148,11.85532 7.43328,11.81132 7.46368,11.76632 C8.88788,9.66652 10.31188,7.56632 11.73608,5.46632 C11.98728,5.09592 12.27528,5.04192 12.64848,5.29532 C12.90588,5.47012 13.16428,5.64412 13.42048,5.82092 C13.72608,6.03172 13.78748,6.33492 13.57988,6.64172 C11.81968,9.24032 10.05888,11.83832 8.29588,14.43492 C8.10288,14.71892 7.84968,14.90952 7.47988,14.84972 C7.24988,14.81252 7.05588,14.69712 6.89228,14.53372 C5.86288,13.50532 4.83368,12.47672 3.80628,11.44612 C3.55668,11.19552 3.55708,10.88332 3.80428,10.62932 C4.03948,10.38792 4.27848,10.15012 4.51828,9.91312 C4.78468,9.64992 5.09868,9.64972 5.36408,9.91412 C5.99588,10.54372 6.62608,11.17472 7.25528,11.80672 C7.28788,11.83932 7.30548,11.88672 7.33988,11.94332" id="Fill-2" fill="#FEFEFE"></path>
        </g>
    </g>
</svg>