<svg xmlns="http://www.w3.org/2000/svg" viewBox="0 0 52 59.17"><defs><style>.cls-1{fill:#ccc;}.cls-2{fill:#fff;}</style></defs><title>snapchat</title><g id="Capa_2" data-name="Capa 2"><g id="Capa_1-2" data-name="Capa 1"><path class="cls-1" d="M24.59.38,1.41,13.76A2.83,2.83,0,0,0,0,16.21V43a2.83,2.83,0,0,0,1.41,2.45L24.59,58.79a2.83,2.83,0,0,0,2.83,0L50.59,45.41A2.83,2.83,0,0,0,52,43V16.21a2.83,2.83,0,0,0-1.41-2.45L27.41.38a2.83,2.83,0,0,0-2.83,0"/><path class="cls-2" d="M26.45,39.65h-.28a5,5,0,0,1-3-1.19,4.34,4.34,0,0,0-1.72-.88,5.55,5.55,0,0,0-.9-.08,6.19,6.19,0,0,0-1.25.14,2.79,2.79,0,0,1-.48.07.33.33,0,0,1-.36-.26c-.05-.18-.09-.35-.13-.52-.09-.42-.16-.67-.31-.7-1.67-.26-2.66-.64-2.86-1.1a.43.43,0,0,1,0-.15.27.27,0,0,1,.22-.28,5.84,5.84,0,0,0,3.51-2.09A7.87,7.87,0,0,0,20,30.78h0a1.2,1.2,0,0,0,.11-1c-.22-.51-.93-.73-1.4-.88l-.32-.11c-.42-.17-1.11-.51-1-1a.93.93,0,0,1,.91-.6.64.64,0,0,1,.27.05,2.75,2.75,0,0,0,1.14.3,1,1,0,0,0,.65-.2c0-.22,0-.45,0-.67h0c-.1-1.53-.22-3.43.27-4.51a5.87,5.87,0,0,1,5.45-3.51h.45A5.88,5.88,0,0,1,32,22.14c.49,1.09.37,3,.27,4.52v.07c0,.21,0,.4,0,.59a.92.92,0,0,0,.59.2,2.84,2.84,0,0,0,1.07-.3.85.85,0,0,1,.35-.07,1.06,1.06,0,0,1,.4.08h0a.74.74,0,0,1,.56.61c0,.23-.17.58-1,.92l-.32.11c-.47.15-1.19.38-1.4.88a1.2,1.2,0,0,0,.11,1h0c.06.14,1.5,3.42,4.71,3.95a.27.27,0,0,1,.22.28.43.43,0,0,1,0,.15c-.2.46-1.18.84-2.86,1.1-.16,0-.22.28-.31.69,0,.17-.08.34-.13.52a.31.31,0,0,1-.33.25h0a2.68,2.68,0,0,1-.48-.06,6.26,6.26,0,0,0-1.25-.13,5.56,5.56,0,0,0-.9.08,4.34,4.34,0,0,0-1.72.88,5,5,0,0,1-3,1.19Z"/></g></g></svg>