<svg id="Capa_1" data-name="Capa 1" xmlns="http://www.w3.org/2000/svg" viewBox="0 0 52 59.17"><defs><style>.cls-1{fill:#fff;}</style></defs><title>snap</title><path class="cls-1" d="M50.58,13.75,27.41.37a2.89,2.89,0,0,0-2.83,0L1.41,13.75A2.84,2.84,0,0,0,0,16.2V43a2.84,2.84,0,0,0,1.41,2.45L24.58,58.79a2.86,2.86,0,0,0,2.83,0L50.58,45.41A2.83,2.83,0,0,0,52,43V16.2A2.83,2.83,0,0,0,50.58,13.75ZM37.47,35.15c-.19.45-1.18.83-2.85,1.09-.16,0-.23.28-.32.7,0,.17-.07.33-.13.51a.3.3,0,0,1-.33.25h0a2.58,2.58,0,0,1-.48-.06,6.17,6.17,0,0,0-1.25-.13,5.67,5.67,0,0,0-.91.07,4.48,4.48,0,0,0-1.72.88,4.94,4.94,0,0,1-3,1.19h-.28a4.92,4.92,0,0,1-3-1.19,4.48,4.48,0,0,0-1.72-.88,5.66,5.66,0,0,0-.91-.07,6.09,6.09,0,0,0-1.25.14,3.73,3.73,0,0,1-.48.07.33.33,0,0,1-.36-.26c0-.18-.09-.35-.12-.52-.09-.42-.16-.67-.32-.7-1.67-.25-2.66-.63-2.85-1.1a.23.23,0,0,1,0-.14.26.26,0,0,1,.23-.28,5.88,5.88,0,0,0,3.51-2.09A7.73,7.73,0,0,0,20,30.77a0,0,0,0,0,0,0,1.21,1.21,0,0,0,.11-1c-.21-.51-.93-.73-1.4-.88a2.62,2.62,0,0,1-.31-.11c-.42-.16-1.11-.51-1-1a.93.93,0,0,1,.91-.59.76.76,0,0,1,.27,0,2.76,2.76,0,0,0,1.14.3.91.91,0,0,0,.65-.2c0-.22,0-.45,0-.66h0c-.09-1.52-.21-3.42.27-4.51a5.89,5.89,0,0,1,5.45-3.52h.45A5.88,5.88,0,0,1,32,22.14c.48,1.09.36,3,.27,4.51v.08l0,.59a.87.87,0,0,0,.59.2,2.77,2.77,0,0,0,1.07-.3.81.81,0,0,1,.35-.07,1.06,1.06,0,0,1,.4.08h0a.76.76,0,0,1,.56.61c0,.23-.17.58-1,.92-.08,0-.2.07-.31.11-.48.15-1.19.37-1.41.88a1.25,1.25,0,0,0,.12,1,0,0,0,0,0,0,0c0,.14,1.49,3.42,4.7,3.95a.26.26,0,0,1,.23.28A.78.78,0,0,1,37.47,35.15Z"/></svg>