<?xml version="1.0" encoding="UTF-8"?>
<svg width="30px" height="34px" viewBox="0 0 30 34" version="1.1" xmlns="http://www.w3.org/2000/svg" xmlns:xlink="http://www.w3.org/1999/xlink">
    <!-- Generator: Sketch 42 (36781) - http://www.bohemiancoding.com/sketch -->
    <title>Snap_Icon</title>
    <desc>Created with Sketch.</desc>
    <defs>
        <polygon id="path-1" points="14.5036988 0.463000911 29.007286 0.463000911 29.007286 33.4698059 0.000111566485 33.4698059 0.000111566485 0.463000911"></polygon>
    </defs>
    <g id="Page-1" stroke="none" stroke-width="1" fill="none" fill-rule="evenodd">
        <g id="LANDING-W/MENU" transform="translate(-559.000000, -2662.000000)">
            <g id="Footer" transform="translate(0.000000, 2568.000000)">
                <g id="Social_Icons" transform="translate(436.000000, 94.000000)">
                    <g id="Snap_Icon" transform="translate(123.000000, 0.000000)">
                        <mask id="mask-2" fill="white">
                            <use xlink:href="#path-1"></use>
                        </mask>
                        <g id="Clip-5"></g>
                        <path d="M21.0649795,20.0708106 C20.9556444,20.3262978 20.4045059,20.5377163 19.4712523,20.6821949 C19.3836726,20.6955829 19.3468556,20.8372723 19.2966507,21.0693306 C19.2754531,21.1647199 19.2542555,21.351036 19.2252482,21.4497723 C19.1979144,21.5423725 19.1376685,21.6795993 19.0406056,21.6795993 L19.026102,21.6795993 C18.9625091,21.6795993 18.8732559,21.5758424 18.7605738,21.554087 C18.5631011,21.5155965 18.3421995,21.4335952 18.0604941,21.4335952 C17.8964913,21.4335952 17.7269103,21.4252277 17.5556557,21.4531193 C17.208684,21.5111339 16.9119171,21.7091644 16.5978575,21.9311817 C16.1582855,22.2418944 15.660699,22.5883083 14.9165505,22.5883083 C14.8814071,22.5883083 14.8473793,22.5838456 14.821719,22.58273 C14.8010792,22.5844035 14.7804394,22.5838456 14.7592418,22.5838456 C14.0150934,22.5838456 13.5180647,22.2312955 13.0790505,21.9205829 C12.7644331,21.6985656 12.4676662,21.4882628 12.1195788,21.4302482 C11.9494399,21.4023566 11.779301,21.3878529 11.6152983,21.3878529 C11.3196471,21.3878529 11.0859153,21.4335952 10.9152186,21.4665073 C10.8103461,21.4871471 10.7199772,21.5049977 10.6502482,21.5049977 C10.5766143,21.5049977 10.4879189,21.4888206 10.4505442,21.3616348 C10.4209791,21.2617828 10.3997814,21.1652778 10.3796995,21.0715619 C10.3283789,20.8389458 10.2921198,20.6966985 10.2045401,20.6833106 C9.27128643,20.5393898 8.720148,20.3268556 8.61025501,20.0702527 C8.59909836,20.0434768 8.59240437,20.016143 8.59128871,19.989367 C8.58682605,19.912944 8.64093579,19.8454463 8.71624317,19.833174 C9.45704463,19.7110087 10.1164026,19.3194103 10.6747928,18.6684199 C11.1071129,18.1646972 11.3196471,17.6832878 11.3425182,17.6302937 C11.3436339,17.6280624 11.3447495,17.6252732 11.3447495,17.6252732 C11.4535269,17.4049294 11.4752823,17.2158242 11.4094581,17.0624203 C11.2895241,16.7784836 10.8912318,16.6524135 10.6279349,16.5687386 C10.5621107,16.5480988 10.5007491,16.5285747 10.451102,16.5090505 C10.2173702,16.4164504 9.83358151,16.2217668 9.88490209,15.9528916 C9.92171903,15.7565346 10.1816689,15.6198657 10.3908561,15.6198657 C10.4494285,15.6198657 10.5007491,15.6304645 10.54426,15.6505464 C10.7813388,15.7615551 10.9944308,15.8178962 11.1773998,15.8178962 C11.4055533,15.8178962 11.6130669,15.7308743 11.6398429,15.7063297 C11.6331489,15.5847222 11.7145924,15.4564208 11.7145924,15.3348133 L11.7145924,15.3331398 C11.7145924,14.4818875 11.4970378,13.4225638 11.7675865,12.8145264 C12.5792327,10.9959927 14.2504986,10.9686589 14.7581261,10.9686589 C14.7715141,10.9686589 14.9304964,11.0807832 14.9304964,11.0807832 L14.9611771,11.0807832 C15.4699203,11.0807832 17.1936225,11.108117 18.0052687,12.9277664 C18.2758174,13.5358037 18.2094353,14.5387864 18.1558834,15.3911544 L18.1530943,15.4034267 C18.1458424,15.5194558 18.1385906,15.6142873 18.1335701,15.7202755 C18.1586726,15.7437045 18.2590824,15.8162227 18.4638069,15.8240323 C18.6389663,15.8173383 18.839786,15.7576503 19.0606876,15.6544513 C19.129301,15.622097 19.2051662,15.6137295 19.255929,15.6137295 C19.3340255,15.6137295 19.4132377,15.6282332 19.4790619,15.6555669 L19.4824089,15.6561248 C19.6703985,15.7230647 19.7931216,15.8558288 19.7959107,15.9958447 C19.7981421,16.1263775 19.7010792,16.321061 19.2246903,16.5090505 C19.1756011,16.5285747 19.1131239,16.5480988 19.0478575,16.5687386 C18.7840027,16.6524135 18.3862682,16.7790414 18.2657764,17.0618625 C18.20051,17.2158242 18.2222655,17.4043716 18.3299271,17.6230419 C18.3299271,17.6230419 18.3321585,17.6275046 18.3332741,17.6302937 C18.3667441,17.7078324 19.1689071,19.5380806 20.9595492,19.8326161 C21.0348566,19.8454463 21.0889663,19.912944 21.0850615,19.989367 C21.083388,20.0167008 21.076694,20.0440346 21.0649795,20.0708106 M28.2995082,8.13765938 L15.4119057,0.674419399 C15.168133,0.533287796 14.9159927,0.463000911 14.6432127,0.463000911 C14.3715483,0.463000911 14.1088092,0.533287796 13.8650364,0.674419399 L0.863078324,8.13765938 C0.375532787,8.41936475 0.000111566485,8.9398224 0.000111566485,9.50323315 L0.000111566485,24.4297131 C0.000111566485,24.9931239 0.380553279,25.5130237 0.868098816,25.7947291 L13.8349135,33.2585269 C14.3230168,33.5402322 14.9444422,33.5402322 15.4319877,33.2585269 L28.2894672,25.7947291 C28.7770128,25.5130237 29.0073975,24.9931239 29.0073975,24.4297131 L29.0073975,9.50323315 C29.0073975,8.9398224 28.7870537,8.41936475 28.2995082,8.13765938" id="Fill-4" fill="#4A4A4A" mask="url(#mask-2)"></path>
                    </g>
                </g>
            </g>
        </g>
    </g>
</svg>