<?xml version="1.0" encoding="utf-8"?>
<!-- Generator: Adobe Illustrator 18.1.0, SVG Export Plug-In . SVG Version: 6.00 Build 0)  -->
<svg version="1.1" id="Capa_1" xmlns="http://www.w3.org/2000/svg" xmlns:xlink="http://www.w3.org/1999/xlink" x="0px" y="0px"
	 viewBox="0 48.9 828 217.1" enable-background="new 0 48.9 828 217.1" xml:space="preserve">
<title>startup_1</title>
<path fill="#65C7C5" d="M69.1,48.9h689.8c38.2,0,69.1,30.9,69.1,69.1V197c0,38.2-30.9,69.1-69.1,69.1H69.1C30.9,266.1,0,235.1,0,197
	V118C0,79.9,30.9,48.9,69.1,48.9z"/>
<g>
	<path fill="#FFFFFF" d="M256.5,109.4c0.3,21.6-10.1,42-27.7,54.5c0.1,9.6-3.9,18.7-11.1,25.1l-12.5-13.8c-2.5,2.3-5.8,3.7-9.2,3.8
		c-8.1,0.4-15-5.9-15.4-14c-0.2-4.4,1.6-8.7,4.9-11.7l-12.5-13.8c7.1-6.4,16.6-9.4,26.1-8.3C219.2,111.4,234.8,108.2,256.5,109.4z
		 M234,142.7c4.1-3.6,4.5-9.8,0.9-13.9c-3.6-4.1-9.8-4.5-13.9-0.9c-4.1,3.6-4.5,9.8-0.9,13.9c1.9,2.2,4.7,3.4,7.6,3.3
		C230.1,145,232.3,144.1,234,142.7L234,142.7z"/>
	<path fill="#FFFFFF" d="M154.9,199.6l0.7-2.1c1.8-6.6,4.8-12.8,8.8-18.4c2.3-2.5,5.5-4,8.9-4.2c1.7-0.1,3.4,0.6,4.6,1.8
		c3.1,3.1,2,9-2.4,13.5c-5.5,4.1-11.7,7.1-18.4,8.9L154.9,199.6z"/>
	<g enable-background="new    ">
	</g>
	<g enable-background="new    ">
		<path fill="#FFFFFF" d="M316.6,175.4c0,0,8.2,8.3,19.7,8.3c7.2,0,13.3-4,13.3-11.4c0-16.7-37.4-13.1-37.4-36.8
			c0-12,10.4-21.5,24.9-21.5c14.3,0,21.9,7.8,21.9,7.8l-4.9,9c0,0-7.1-6.7-16.9-6.7c-8.2,0-14,5.1-14,11.3c0,16,37.4,11.7,37.4,36.7
			c0,11.9-9.2,21.7-24.5,21.7c-16.4,0-25.6-10.2-25.6-10.2L316.6,175.4z"/>
		<path fill="#FFFFFF" d="M375.9,146.5h-7.2v-8.5h7.5v-16h10.3v16h13.3v8.5h-13.3V171c0,11,7.8,12.5,11.8,12.5
			c1.5,0,2.5-0.2,2.5-0.2v9.4c0,0-1.5,0.2-3.7,0.2c-7.1,0-21.2-2.2-21.2-20.7V146.5z"/>
		<path fill="#FFFFFF" d="M441.5,157.9h2.4v-1c0-9.1-5.1-12.1-12.1-12.1c-8.5,0-15.4,5.4-15.4,5.4l-4.4-7.8c0,0,8-6.6,20.7-6.6
			c14,0,21.9,7.6,21.9,21.6v35h-9.8v-5.2c0-2.5,0.2-4.4,0.2-4.4h-0.2c0,0-4.5,10.9-17.7,10.9c-9.5,0-18.8-5.8-18.8-16.8
			C408.2,158.7,432.2,157.9,441.5,157.9z M429.3,185.3c9,0,14.8-9.4,14.8-17.6v-1.7h-2.7c-8,0-22.4,0.5-22.4,10.5
			C418.9,180.9,422.4,185.3,429.3,185.3z"/>
		<path fill="#FFFFFF" d="M470.4,137.2h10.3v9.6c0,2.3-0.2,4.2-0.2,4.2h0.2c2.5-8.1,9-14.4,17.5-14.4c1.4,0,2.7,0.2,2.7,0.2v10.5
			c0,0-1.4-0.3-3.1-0.3c-6.8,0-13,4.8-15.5,13c-1,3.2-1.3,6.6-1.3,9.9v22.6h-10.6V137.2z"/>
		<path fill="#FFFFFF" d="M513.6,146.5h-7.2v-8.5h7.5v-16h10.3v16h13.3v8.5h-13.3V171c0,11,7.8,12.5,11.8,12.5
			c1.5,0,2.5-0.2,2.5-0.2v9.4c0,0-1.5,0.2-3.7,0.2c-7.1,0-21.2-2.2-21.2-20.7V146.5z"/>
		<path fill="#FFFFFF" d="M549.7,137.2h10.6v33c0,7.6,1.5,13.8,10.4,13.8c11.3,0,17.9-9.9,17.9-20.9v-25.9h10.6v55.3h-10.3v-7.3
			c0-2.3,0.2-4,0.2-4h-0.2c-2.3,5.5-9.5,12.7-20.3,12.7c-12.5,0-18.9-6.6-18.9-21.2V137.2z"/>
		<path fill="#FFFFFF" d="M615.8,137.2h9.7v4.7c0,2.2-0.2,4-0.2,4h0.2c0,0,4.7-10.1,18.6-10.1c14.9,0,24.3,11.8,24.3,29
			c0,17.6-10.6,29-25,29c-12.1,0-16.9-9.1-16.9-9.1h-0.2c0,0,0.2,2,0.2,4.8v24.8h-10.6V137.2z M641.7,184.7c8.7,0,16-7.2,16-19.8
			c0-12-6.4-19.8-15.6-19.8c-8.3,0-16,5.8-16,19.9C626.1,174.9,631.5,184.7,641.7,184.7z"/>
	</g>
</g>
</svg>
