<svg id="Capa_1" data-name="Capa 1" xmlns="http://www.w3.org/2000/svg" viewBox="0 0 132.01 34.62"><defs><style>.cls-1{fill:#66c7c6;}.cls-2,.cls-3{fill:#fff;}.cls-3{font-size:20px;font-family:MuseoSans-500, Museo Sans;letter-spacing:0em;}.cls-4{letter-spacing:0em;}</style></defs><title>startup_1</title><rect class="cls-1" width="132.01" height="34.62" rx="11.02" ry="11.02"/><path class="cls-2" d="M37.63,10.14a10.47,10.47,0,0,1-4.42,8.69,5.23,5.23,0,0,1-1.77,4l-2-2.2a2.28,2.28,0,0,1-1.47.6,2.35,2.35,0,0,1-1.68-4.1l-2-2.2a5.29,5.29,0,0,1,4.16-1.32C31.68,10.46,34.18,9.95,37.63,10.14Zm-3.58,5.3a1.57,1.57,0,1,0-1,.39A1.66,1.66,0,0,0,34.05,15.44Z"/><path class="cls-2" d="M21.44,24.52l.11-.34a9,9,0,0,1,1.4-2.93,2.08,2.08,0,0,1,1.42-.67,1,1,0,0,1,.73.28c.5.5.32,1.44-.39,2.16a8.69,8.69,0,0,1-2.93,1.42Z"/><text class="cls-3" transform="translate(46.06 23.59)">S<tspan class="cls-4" x="10.86" y="0">tartup</tspan></text></svg>