<svg xmlns="http://www.w3.org/2000/svg" viewBox="0 0 30.77 27.4"><defs><style>.cls-1{fill:#0091b3;}</style></defs><title>StartUp</title><g id="Capa_2" data-name="Capa 2"><g id="Capa_1-2" data-name="Capa 1"><path class="cls-1" d="M30.77.07c-.37,6.56-1.84,11.19-8.4,16.51A9.94,9.94,0,0,1,19,24.12l-3.73-4.18a4.33,4.33,0,0,1-2.79,1.15A4.47,4.47,0,0,1,9.3,13.3L5.57,9.12a10,10,0,0,1,7.91-2.5C19.46.68,24.22-.3,30.77.07ZM24,10.15a3,3,0,1,0-1.84.74A3.16,3.16,0,0,0,24,10.15Z"/><path class="cls-1" d="M0,27.4l.2-.66c0-.16,1.19-4.06,2.66-5.57a4,4,0,0,1,2.7-1.27A1.85,1.85,0,0,1,7,20.43c.94.94.61,2.75-.74,4.1-1.6,1.6-5.41,2.62-5.57,2.7Z"/></g></g></svg>