<svg xmlns="http://www.w3.org/2000/svg" viewBox="0 0 52 59.17"><defs><style>.cls-1{fill:#ccc;}.cls-2{fill:#fff;}</style></defs><title>twitter</title><g id="Capa_2" data-name="Capa 2"><g id="Capa_1-2" data-name="Capa 1"><path class="cls-1" d="M24.59.38,1.41,13.76A2.83,2.83,0,0,0,0,16.21V43a2.83,2.83,0,0,0,1.41,2.45L24.59,58.79a2.83,2.83,0,0,0,2.83,0L50.59,45.41A2.83,2.83,0,0,0,52,43V16.21a2.83,2.83,0,0,0-1.41-2.45L27.41.38a2.83,2.83,0,0,0-2.83,0"/><path class="cls-2" d="M38.28,21.11a10.6,10.6,0,0,1-3,.84A5.33,5.33,0,0,0,37.57,19a10.71,10.71,0,0,1-3.37,1.29,5.31,5.31,0,0,0-9,4.84A15.08,15.08,0,0,1,14.2,19.6a5.32,5.32,0,0,0,1.64,7.09A5.31,5.31,0,0,1,13.44,26v.07a5.32,5.32,0,0,0,4.26,5.21,5.38,5.38,0,0,1-1.4.19,5.1,5.1,0,0,1-1-.1,5.31,5.31,0,0,0,5,3.69,10.65,10.65,0,0,1-6.6,2.27,11.29,11.29,0,0,1-1.27-.07A15.1,15.1,0,0,0,35.64,24.54l0-.69A10.6,10.6,0,0,0,38.28,21.11Z"/></g></g></svg>