<svg width="30" height="34" viewBox="0 0 30 34" xmlns="http://www.w3.org/2000/svg"><title>Tw_Icon</title><path d="M20.032 13.866l.01.383c0 3.915-2.978 8.428-8.428 8.428-1.673 0-3.23-.49-4.54-1.332.231.026.467.04.706.04a5.942 5.942 0 0 0 3.679-1.266 2.964 2.964 0 0 1-2.767-2.057c.182.036.367.055.558.055.27 0 .61-.037.858-.104-1.354-.273-2.298-1.47-2.298-2.904v-.038c0 .222.778.356 1.264.372-.794-.53-1.356-1.437-1.356-2.465 0-.543.126-1.052.381-1.49a8.39 8.39 0 0 0 6.096 3.096 2.996 2.996 0 0 1-.082-.675 2.96 2.96 0 0 1 5.121-2.026 5.966 5.966 0 0 0 1.882-.719 2.974 2.974 0 0 1-1.303 1.638c.6-.071 1.17-.231 1.702-.466a5.92 5.92 0 0 1-1.483 1.53M28.3 8.233L15.412.769a1.505 1.505 0 0 0-.769-.21c-.272 0-.534.07-.778.21L.863 8.233C.375 8.513 0 9.035 0 9.598v14.927c0 .563.38 1.083.868 1.365l12.967 7.464c.488.281 1.11.281 1.597 0l12.857-7.464c.488-.282.718-.802.718-1.365V9.598c0-.563-.22-1.084-.708-1.365" fill="#4A4A4A" fill-rule="evenodd"/></svg>