<svg id="Capa_1" data-name="Capa 1" xmlns="http://www.w3.org/2000/svg" viewBox="0 0 52 59.17"><defs><style>.cls-1{fill:#fff;}</style></defs><title>twitter</title><path class="cls-1" d="M50.58,13.75,27.41.37a2.89,2.89,0,0,0-2.83,0L1.41,13.75A2.84,2.84,0,0,0,0,16.2V43a2.84,2.84,0,0,0,1.41,2.45L24.58,58.79a2.86,2.86,0,0,0,2.83,0L50.58,45.41A2.83,2.83,0,0,0,52,43V16.2A2.83,2.83,0,0,0,50.58,13.75Zm-15,10.1,0,.69A15.1,15.1,0,0,1,12.39,37.26a10.82,10.82,0,0,0,7.86-2.2,5.32,5.32,0,0,1-5-3.69,4.78,4.78,0,0,0,1,.1,5.32,5.32,0,0,0,1.4-.18,5.32,5.32,0,0,1-4.26-5.21V26a5.33,5.33,0,0,0,2.41.67,5.29,5.29,0,0,1-2.36-4.42,5.35,5.35,0,0,1,.71-2.67,15.1,15.1,0,0,0,11,5.55,5.31,5.31,0,0,1,9-4.84A10.67,10.67,0,0,0,37.56,19a5.32,5.32,0,0,1-2.33,2.93,10.52,10.52,0,0,0,3-.83A10.66,10.66,0,0,1,35.62,23.85Z"/></svg>