<svg width="475" height="58" viewBox="0 0 475 58" xmlns="http://www.w3.org/2000/svg"><title>Wetopia_Logo</title><g fill="#4A4A4A" fill-rule="evenodd"><path d="M62.23 6.63L51.615 54.104c-.076.226-.147.527-.222.677v.076c-.08.217-.231.372-.302.598l-.076.07c-.076.23-.227.377-.378.527l-.075.08c-.151.146-.298.292-.53.447 0 .076 0 .076-.07.076-.151.146-.303.226-.53.376h-.075v.075l-.604.222h-.071l-.68.23h-.071c-.227 0-.454.071-.68.071h-.076c-.151 0-.302 0-.449-.07h-.075c-.076 0-.227 0-.378-.08H46.048c-.072-.071-.152-.071-.228-.071-.07 0-.15-.08-.226-.08 0-.071-.071-.071-.147-.071l-.231-.15c-.071 0-.147 0-.147-.076-.075 0-.15-.08-.226-.08-.076-.07-.147-.07-.147-.15-.08 0-.156-.071-.231-.146-.071 0-.071-.076-.147-.076l-.15-.155c-.076-.07-.152-.146-.228-.146 0-.07-.075-.146-.075-.226a.159.159 0 0 1-.151-.15c-.076-.075-.151-.075-.151-.146l-.151-.23c0-.071-.076-.147-.147-.218 0 0 0-.08-.076-.08L31.22 32.883 19.927 55.153c-.075 0-.075 0-.075.076l-.223.376c-.075.075-.075.075-.075.15-.151.147-.227.297-.378.377 0 .075-.076.075-.076.075-.07.147-.226.217-.373.372 0 0-.075 0-.075.076l-.454.296-.524.306h-.08c-.151.07-.298.15-.45.15 0 0-.075 0-.155.071h-.066c-.08 0-.231.08-.307.08h-.227c-.15.071-.373.071-.524.071-.227 0-.449-.07-.676-.07h-.15c-.232-.08-.379-.151-.605-.151 0-.08-.076-.08-.076-.08l-.524-.222h-.08c-.071-.075-.071-.075-.147-.075-.155-.15-.378-.23-.529-.376-.222-.15-.373-.301-.524-.448 0-.075-.08-.075-.08-.075-.142-.23-.298-.376-.374-.527-.075-.08-.075-.08-.075-.15-.151-.147-.227-.381-.302-.598h-.071c-.08-.226-.156-.452-.232-.682v-.071L.132 6.704c-.6-2.4.906-4.875 3.31-5.473 2.49-.527 4.894.97 5.498 3.375l8.503 35.473 9.635-19.048c.831-1.505 2.334-2.4 4.067-2.48 1.653 0 3.235.975 3.987 2.4L45.447 40.15 53.35 4.681c.525-2.48 3.014-3.977 5.423-3.45 2.48.527 3.986 2.998 3.457 5.399M100.617 33.634v14.849h21.524c2.485 0 4.516 2.024 4.516 4.495 0 2.475-2.031 4.428-4.516 4.428H96.097c-2.485 0-4.44-1.953-4.44-4.428V4.98c0-2.476 1.955-4.5 4.44-4.5h26.044c2.485 0 4.516 2.024 4.516 4.5 0 2.475-2.031 4.5-4.516 4.5h-21.524V24.7h21.524c2.485 0 4.516 1.953 4.516 4.504 0 2.476-2.031 4.429-4.516 4.429h-21.524zM196.203 5.133c0 2.547-2.035 4.566-4.52 4.566h-12.942v43.28c0 2.547-2.036 4.58-4.516 4.58a4.559 4.559 0 0 1-4.59-4.58V9.7h-12.872c-2.484 0-4.52-2.02-4.52-4.566 0-2.484 2.036-4.508 4.52-4.508h34.92c2.485 0 4.52 2.024 4.52 4.508M252.655 9.48c-10.765 0-19.498 8.702-19.498 19.348 0 10.73 8.733 19.428 19.498 19.428 10.684 0 19.417-8.697 19.417-19.428 0-10.646-8.733-19.348-19.417-19.348m0 47.85c-15.814 0-28.61-12.754-28.61-28.502 0-15.668 12.796-28.418 28.61-28.418 15.733 0 28.52 12.75 28.52 28.498 0 15.668-12.787 28.422-28.52 28.422M339.51 17.58c0-4.353-3.609-8.33-7.6-8.33h-12.493v15.828h11.893c4.365 0 8.2-3.521 8.2-7.498m8.96 0c0 8.844-7.826 16.426-17.16 16.426h-11.893v18.821c0 2.485-1.956 4.429-4.44 4.429-2.489 0-4.445-1.944-4.445-4.429V5.202c0-2.32 1.88-4.273 4.214-4.42V.331h17.164c8.956 0 16.56 7.874 16.56 17.25M383.089 57.33c-2.485 0-4.516-2.02-4.516-4.58V4.983c0-2.56 2.031-4.574 4.516-4.574 2.56 0 4.591 2.015 4.591 4.574V52.75c0 2.56-2.031 4.58-4.591 4.58M455.12 34.529l-9.182-18.3-8.507 18.3h17.689zm16.409 22.647c-2.182 1.13-4.893.23-6.022-1.948l-5.867-11.7h-25.822c-.222 0-.374 0-.53-.071l-5.417 11.62a4.5 4.5 0 0 1-4.062 2.626c-.68 0-1.28-.146-1.88-.447-2.258-1.045-3.236-3.671-2.187-5.925L441.72 3.998c.756-1.572 2.262-2.546 3.991-2.617h.076c1.733 0 3.235.974 4.062 2.47l23.711 47.33c1.129 2.249.227 4.95-2.031 5.995z"/></g></svg>