<svg width="98" height="133" viewBox="0 0 98 133" xmlns="http://www.w3.org/2000/svg"><title>ART_ICON</title><g fill="none" fill-rule="evenodd" opacity=".6"><path fill="#00B1B0" d="M48.838.129L0 28.355v56.452l48.838 28.226 48.839-28.226V28.355z"/><path d="M31.047 79.382s-3.234-11.18 20.316-38.227c-.937-3.926-2.405-10.116 9.016-12.36 3.395-1.456 2.431-3.124 3.14-3.566.71-.441 3.08 1.098 3.12 9.224-.62 4.505-2.797 9.74-6.738 9.984-3.02 5.223-15.506 25.057-17.212 26.386-1.704 1.33-7.722 10.12-11.642 8.56z" fill="#FEFEFE"/><path d="M40.296 124.865s-.217.948-.406 1.49l-.852 2.572h2.515l-.851-2.573c-.176-.54-.38-1.489-.38-1.489h-.026zm1.69 5.484H38.62l-.812 2.464h-1.8l3.382-9.614h1.826l3.383 9.614h-1.8l-.811-2.464zM49.147 127.709c.934 0 1.515-.556 1.515-1.518 0-.92-.392-1.488-1.759-1.488h-1.325v3.006h1.569zm-3.314-4.51h3.097c1.043 0 1.515.082 1.935.271.96.434 1.57 1.354 1.57 2.626 0 1.152-.61 2.222-1.623 2.628v.028s.134.134.323.473l1.975 3.588h-1.948l-1.907-3.588h-1.677v3.588h-1.745v-9.614zM56.727 124.703h-3.151V123.2h8.048v1.504h-3.152v8.111h-1.745z" fill="#00B1B0"/></g></svg>