<?xml version="1.0" encoding="UTF-8"?>
<svg width="98px" height="133px" viewBox="0 0 98 133" version="1.1" xmlns="http://www.w3.org/2000/svg" xmlns:xlink="http://www.w3.org/1999/xlink">
    <!-- Generator: Sketch 42 (36781) - http://www.bohemiancoding.com/sketch -->
    <title>ART_ICON</title>
    <desc>Created with Sketch.</desc>
    <defs></defs>
    <g id="Page-1" stroke="none" stroke-width="1" fill="none" fill-rule="evenodd" opacity="0.6">
        <g id="CATEGORIES-Copy">
            <g id="ART_ICON" transform="translate(0.000000, 0.129032)">
                <polygon id="Fill-1" fill="#00B1B0" points="48.8378276 -0.000112903226 -0.000225574713 28.2256935 -0.000225574713 84.6784355 48.8378276 112.904242 97.6770086 84.6784355 97.6770086 28.2256935"></polygon>
                <path d="M31.0473139,79.2530968 C31.0473139,79.2530968 27.8125726,68.0722903 51.3625726,41.0263226 C50.4264375,37.0995484 48.9579461,30.9101935 60.3787938,28.6656774 C63.7736932,27.2103548 62.8104892,25.5416452 63.5187938,25.1001935 C64.2282263,24.6587419 66.5990165,26.1976129 66.6384921,34.3243871 C66.0181616,38.8292258 63.8424935,44.0645484 59.9005754,44.3084194 C56.8812579,49.5313226 44.3945697,69.3650323 42.6892249,70.6939032 C40.9850079,72.0239032 34.9666746,80.8145484 31.0473139,79.2530968 Z" id="Fill-2" fill="#FEFEFE"></path>
                <path d="M40.2958772,124.736048 C40.2958772,124.736048 40.0793254,125.684435 39.8898427,126.225242 L39.0382981,128.798306 L41.5534562,128.798306 L40.7019116,126.225242 C40.5259634,125.684435 40.3229461,124.736048 40.3229461,124.736048 L40.2958772,124.736048 Z M41.9865596,130.219758 L38.6187292,130.219758 L37.8066602,132.684435 L36.0077019,132.684435 L39.3890668,123.069597 L41.2150941,123.069597 L44.5975869,132.684435 L42.7986286,132.684435 L41.9865596,130.219758 Z" id="Fill-4" fill="#00B1B0"></path>
                <path d="M49.1469777,127.579629 C50.080857,127.579629 50.6617119,127.024145 50.6617119,126.06221 C50.6617119,125.142048 50.2703398,124.574145 48.903357,124.574145 L47.5781056,124.574145 L47.5781056,127.579629 L49.1469777,127.579629 Z M45.8332852,123.070274 L48.930426,123.070274 C49.9725812,123.070274 50.4451602,123.151565 50.8647292,123.341242 C51.8256774,123.77479 52.4347292,124.694952 52.4347292,125.967371 C52.4347292,127.118984 51.8256774,128.189306 50.8117191,128.594629 L50.8117191,128.622855 C50.8117191,128.622855 50.9459361,128.75721 51.1354188,129.095919 L53.1103254,132.683984 L51.1624878,132.683984 L49.2552536,129.095919 L47.5781056,129.095919 L47.5781056,132.683984 L45.8332852,132.683984 L45.8332852,123.070274 Z" id="Fill-6" fill="#00B1B0"></path>
                <polygon id="Fill-8" fill="#00B1B0" points="56.7270776 124.574032 53.5757989 124.574032 53.5757989 123.070161 61.6243046 123.070161 61.6243046 124.574032 58.471898 124.574032 58.471898 132.685 56.7270776 132.685"></polygon>
            </g>
        </g>
    </g>
</svg>