<?xml version="1.0" encoding="UTF-8"?>
<svg width="98px" height="133px" viewBox="0 0 98 133" version="1.1" xmlns="http://www.w3.org/2000/svg" xmlns:xlink="http://www.w3.org/1999/xlink">
    <!-- Generator: Sketch 42 (36781) - http://www.bohemiancoding.com/sketch -->
    <title>DESIGN_ICON</title>
    <desc>Created with Sketch.</desc>
    <defs></defs>
    <g id="Page-1" stroke="none" stroke-width="1" fill="none" fill-rule="evenodd" opacity="0.6">
        <g id="CATEGORIES-Copy" transform="translate(-112.000000, 0.000000)">
            <g id="DESIGN_ICON" transform="translate(111.659483, 0.108710)">
                <polygon id="Fill-134" fill="#00B1B0" points="0.589201149 28.2464677 49.4272543 0.0206612903 98.2653075 28.2464677 98.2653075 84.6980806 49.4272543 112.923887 0.589201149 84.6980806"></polygon>
                <path d="M29.4775395,131.202016 C31.4253772,131.202016 32.6705496,130.050403 32.6705496,127.884919 C32.6705496,125.744274 31.3983082,124.59379 29.4775395,124.59379 L28.0440122,124.59379 L28.0440122,131.202016 L29.4775395,131.202016 Z M26.2991918,123.089919 L29.5722809,123.089919 C32.5340769,123.089919 34.46838,124.85121 34.46838,127.884919 C34.46838,130.9175 32.5340769,132.704758 29.5722809,132.704758 L26.2991918,132.704758 L26.2991918,123.089919 Z" id="Fill-135" fill="#00B1B0"></path>
                <polygon id="Fill-136" fill="#00B1B0" points="36.300949 123.090371 42.0497205 123.090371 42.0497205 124.594242 38.0457694 124.594242 38.0457694 127.113113 41.2793829 127.113113 41.2793829 128.615855 38.0457694 128.615855 38.0457694 131.202468 42.2662723 131.202468 42.2662723 132.70521 36.300949 132.70521"></polygon>
                <path d="M44.2996027,130.240645 C44.2996027,130.240645 45.34063,131.255645 46.6940783,131.255645 C47.4249404,131.255645 48.0870022,130.87629 48.0870022,130.091613 C48.0870022,128.372097 43.5552062,128.669032 43.5552062,125.717742 C43.5552062,124.120161 44.9345955,122.927903 46.7752852,122.927903 C48.6689849,122.927903 49.6423398,123.957581 49.6423398,123.957581 L48.8844088,125.379032 C48.8844088,125.379032 47.9651918,124.539032 46.7617507,124.539032 C45.9496818,124.539032 45.3135611,125.013226 45.3135611,125.690645 C45.3135611,127.396613 49.8318226,126.976613 49.8318226,130.050968 C49.8318226,131.580806 48.6689849,132.866774 46.6670093,132.866774 C44.5296889,132.866774 43.3521889,131.55371 43.3521889,131.55371 L44.2996027,130.240645 Z" id="Fill-137" fill="#00B1B0"></path>
                <polygon id="Fill-138" fill="#00B1B0" points="51.5810417 132.705323 53.3258621 132.705323 53.3258621 123.090484 51.5810417 123.090484"></polygon>
                <path d="M60.0644555,122.928355 C62.4183276,122.928355 63.636431,124.146581 63.636431,124.146581 L62.7702241,125.446097 C62.7702241,125.446097 61.7416034,124.525935 60.2133348,124.525935 C58.0624799,124.525935 56.9131767,126.015129 56.9131767,127.830613 C56.9131767,129.914806 58.3331695,131.269645 60.1321279,131.269645 C61.5803175,131.269645 62.5401379,130.267065 62.5401379,130.267065 L62.5401379,129.143677 L61.0660072,129.143677 L61.0660072,127.640935 L64.1090101,127.640935 L64.1090101,132.704645 L62.6213448,132.704645 L62.6213448,132.244 C62.6213448,132.040774 62.6348793,131.838677 62.6348793,131.838677 L62.6078103,131.838677 C62.6078103,131.838677 61.6073865,132.867226 59.8208348,132.867226 C57.2921422,132.867226 55.1142184,130.903839 55.1142184,127.884806 C55.1142184,125.094968 57.2109353,122.928355 60.0644555,122.928355" id="Fill-139" fill="#00B1B0"></path>
                <path d="M66.0497421,123.090371 L67.7945625,123.090371 L71.4330826,128.642952 C71.7985136,129.197306 72.2316171,130.132145 72.2316171,130.132145 L72.2586861,130.132145 C72.2586861,130.132145 72.1639447,129.210855 72.1639447,128.642952 L72.1639447,123.090371 L73.8952306,123.090371 L73.8952306,132.70521 L72.1639447,132.70521 L68.5254246,127.166177 C68.1599935,126.610694 67.7268901,125.676984 67.7268901,125.676984 L67.6998211,125.676984 C67.6998211,125.676984 67.7945625,126.597145 67.7945625,127.166177 L67.7945625,132.70521 L66.0497421,132.70521 L66.0497421,123.090371 Z" id="Fill-140" fill="#00B1B0"></path>
                <path d="M60.1584073,39.999129 C56.9529907,39.999129 53.9742766,40.9678387 51.4952105,42.6263871 L59.8764389,57.1592903 L44.6196932,57.1592903 C45.3877751,65.0738065 52.0501243,71.2597742 60.1584073,71.2597742 C68.7821286,71.2597742 75.7726889,64.2620323 75.7726889,55.6294516 C75.7726889,46.996871 68.7821286,39.999129 60.1584073,39.999129" id="Fill-141" fill="#FEFEFE"></path>
                <polygon id="Fill-142" fill="#FEFEFE" points="23.0824964 54.8009677 39.4400467 26.4408065 55.7964691 54.8009677"></polygon>
                <path d="M43.4376818,62.2545 L30.3566042,62.2545 L30.3566042,86.5038548 L54.5810726,86.5038548 L54.5810726,72.7398226 C49.4943628,71.0948226 45.3956703,67.2538548 43.4376818,62.2545" id="Fill-143" fill="#FEFEFE"></path>
            </g>
        </g>
    </g>
</svg>