<svg width="98" height="133" viewBox="0 0 98 133" xmlns="http://www.w3.org/2000/svg"><title>DESIGN_ICON</title><g fill="none" fill-rule="evenodd" opacity=".6"><path fill="#00B1B0" d="M.249 28.355L49.087.13l48.838 28.226v56.452l-48.838 28.226L.249 84.807zM29.137 131.31c1.948 0 3.193-1.15 3.193-3.316 0-2.141-1.272-3.291-3.193-3.291h-1.434v6.608h1.434zm-3.178-8.111h3.273c2.962 0 4.896 1.76 4.896 4.795 0 3.032-1.934 4.82-4.896 4.82h-3.273v-9.615zM35.96 123.2h5.75v1.503h-4.005v2.519h3.234v1.503h-3.234v2.586h4.22v1.503H35.96zM43.96 130.35s1.04 1.014 2.394 1.014c.73 0 1.392-.379 1.392-1.164 0-1.72-4.531-1.422-4.531-4.374 0-1.597 1.38-2.79 3.22-2.79 1.893 0 2.867 1.03 2.867 1.03l-.758 1.422s-.92-.84-2.123-.84c-.812 0-1.448.474-1.448 1.151 0 1.706 4.518 1.286 4.518 4.36 0 1.53-1.163 2.816-3.165 2.816-2.137 0-3.314-1.313-3.314-1.313l.947-1.313zM51.24 132.814h1.745v-9.615h-1.744zM59.724 123.037c2.354 0 3.572 1.218 3.572 1.218l-.866 1.3s-1.029-.92-2.557-.92c-2.151 0-3.3 1.489-3.3 3.304 0 2.085 1.42 3.44 3.219 3.44 1.448 0 2.408-1.003 2.408-1.003v-1.124h-1.475v-1.502h3.043v5.063h-1.487v-.46c0-.204.013-.406.013-.406h-.027s-1 1.029-2.787 1.029c-2.528 0-4.706-1.963-4.706-4.982 0-2.79 2.096-4.957 4.95-4.957M65.71 123.2h1.744l3.639 5.552c.365.554.798 1.489.798 1.489h.027s-.095-.921-.095-1.49V123.2h1.732v9.615h-1.732l-3.638-5.54c-.366-.555-.799-1.488-.799-1.488h-.027s.095.92.095 1.489v5.539h-1.745v-9.615z"/><path d="M59.818 40.108c-3.206 0-6.184.969-8.663 2.627l8.38 14.533H44.28c.768 7.915 7.43 14.1 15.539 14.1 8.624 0 15.614-6.997 15.614-15.63 0-8.632-6.99-15.63-15.614-15.63" fill="#FEFEFE"/><path fill="#FEFEFE" d="M22.742 54.91L39.1 26.55l16.356 28.36zM43.097 62.363h-13.08v24.25H54.24V72.849a17.873 17.873 0 0 1-11.144-10.486"/></g></svg>