<?xml version="1.0" encoding="UTF-8"?>
<svg width="98px" height="133px" viewBox="0 0 98 133" version="1.1" xmlns="http://www.w3.org/2000/svg" xmlns:xlink="http://www.w3.org/1999/xlink">
    <!-- Generator: Sketch 42 (36781) - http://www.bohemiancoding.com/sketch -->
    <title>ECO_ICON</title>
    <desc>Created with Sketch.</desc>
    <defs></defs>
    <g id="Page-1" stroke="none" stroke-width="1" fill="none" fill-rule="evenodd" opacity="0.6">
        <g id="CATEGORIES-Copy" transform="translate(-231.000000, 0.000000)">
            <g id="ECO_ICON" transform="translate(231.214080, 0.108710)">
                <polygon id="Fill-163" fill="#00B1B0" points="6.19416882 123.090371 11.9429404 123.090371 11.9429404 124.594242 7.93898922 124.594242 7.93898922 127.113113 11.1726027 127.113113 11.1726027 128.615855 7.93898922 128.615855 7.93898922 131.202468 12.1594921 131.202468 12.1594921 132.70521 6.19416882 132.70521"></polygon>
                <path d="M18.1965481,122.928355 C20.5368858,122.928355 21.7414547,124.241419 21.7414547,124.241419 L20.9023168,125.540935 C20.9023168,125.540935 19.8060237,124.525935 18.277755,124.525935 C16.2487105,124.525935 15.0588039,126.043355 15.0588039,127.830613 C15.0588039,129.658516 16.2893139,131.269645 18.2912895,131.269645 C19.954903,131.269645 21.0782651,130.051419 21.0782651,130.051419 L21.997482,131.31029 C21.997482,131.31029 20.6722306,132.867226 18.2236171,132.867226 C15.2877622,132.867226 13.2598455,130.687065 13.2598455,127.856581 C13.2598455,125.067871 15.370097,122.928355 18.1965481,122.928355" id="Fill-164" fill="#00B1B0"></path>
                <path d="M27.860056,131.269306 C29.6184109,131.269306 31.0248693,129.80721 31.0248693,127.830274 C31.0248693,125.9335 29.6184109,124.525597 27.860056,124.525597 C26.1005733,124.525597 24.6941149,125.9335 24.6941149,127.830274 C24.6941149,129.80721 26.1005733,131.269306 27.860056,131.269306 M27.860056,122.928016 C30.6865072,122.928016 32.8238276,125.08221 32.8238276,127.830274 C32.8238276,130.660758 30.6865072,132.866887 27.860056,132.866887 C25.032477,132.866887 22.8951566,130.660758 22.8951566,127.830274 C22.8951566,125.08221 25.032477,122.928016 27.860056,122.928016" id="Fill-165" fill="#00B1B0"></path>
                <polygon id="Fill-166" fill="#00B1B0" points="34.6024842 123.090371 36.3473046 123.090371 36.3473046 131.202468 40.5001351 131.202468 40.5001351 132.70521 34.6024842 132.70521"></polygon>
                <path d="M46.037092,131.269306 C47.7954468,131.269306 49.2019052,129.80721 49.2019052,127.830274 C49.2019052,125.9335 47.7954468,124.525597 46.037092,124.525597 C44.2776092,124.525597 42.8711509,125.9335 42.8711509,127.830274 C42.8711509,129.80721 44.2776092,131.269306 46.037092,131.269306 M46.037092,122.928016 C48.8635431,122.928016 51.0008635,125.08221 51.0008635,127.830274 C51.0008635,130.660758 48.8635431,132.866887 46.037092,132.866887 C43.2095129,132.866887 41.0721925,130.660758 41.0721925,127.830274 C41.0721925,125.08221 43.2095129,122.928016 46.037092,122.928016" id="Fill-167" fill="#00B1B0"></path>
                <path d="M57.0812299,122.928355 C59.4339741,122.928355 60.6520776,124.146581 60.6520776,124.146581 L59.7858707,125.446097 C59.7858707,125.446097 58.7583779,124.525935 57.2301092,124.525935 C55.0792543,124.525935 53.9288233,126.015129 53.9288233,127.830613 C53.9288233,129.914806 55.349944,131.269645 57.1489023,131.269645 C58.5959641,131.269645 59.5557845,130.267065 59.5557845,130.267065 L59.5557845,129.143677 L58.0816537,129.143677 L58.0816537,127.640935 L61.1257845,127.640935 L61.1257845,132.704645 L59.6381193,132.704645 L59.6381193,132.244 C59.6381193,132.040774 59.6505259,131.838677 59.6505259,131.838677 L59.6234569,131.838677 C59.6234569,131.838677 58.623033,132.867226 56.8376092,132.867226 C54.3077888,132.867226 52.1298649,130.903839 52.1298649,127.884806 C52.1298649,125.094968 54.2265819,122.928355 57.0812299,122.928355" id="Fill-168" fill="#00B1B0"></path>
                <polygon id="Fill-169" fill="#00B1B0" points="63.0661782 132.705323 64.8109986 132.705323 64.8109986 123.090484 63.0661782 123.090484"></polygon>
                <path d="M71.5221846,122.928355 C73.8625223,122.928355 75.0670912,124.241419 75.0670912,124.241419 L74.2279533,125.540935 C74.2279533,125.540935 73.1316602,124.525935 71.6033915,124.525935 C69.574347,124.525935 68.3844404,126.043355 68.3844404,127.830613 C68.3844404,129.658516 69.6149504,131.269645 71.616926,131.269645 C73.2816674,131.269645 74.4039016,130.051419 74.4039016,130.051419 L75.3231185,131.31029 C75.3231185,131.31029 73.9978671,132.867226 71.5492536,132.867226 C68.6133987,132.867226 66.585482,130.687065 66.585482,127.856581 C66.585482,125.067871 68.6957335,122.928355 71.5221846,122.928355" id="Fill-170" fill="#00B1B0"></path>
                <path d="M80.0225165,124.756371 C80.0225165,124.756371 79.8059648,125.704758 79.616482,126.245565 L78.7649375,128.818629 L81.2800955,128.818629 L80.428551,126.245565 C80.2526027,125.704758 80.0495855,124.756371 80.0495855,124.756371 L80.0225165,124.756371 Z M81.713199,130.240081 L78.3453685,130.240081 L77.5332996,132.704758 L75.7343412,132.704758 L79.1157062,123.089919 L80.9417335,123.089919 L84.3242263,132.704758 L82.525268,132.704758 L81.713199,130.240081 Z" id="Fill-171" fill="#00B1B0"></path>
                <polygon id="Fill-172" fill="#00B1B0" points="85.5600374 123.090371 87.3048578 123.090371 87.3048578 131.202468 91.4576882 131.202468 91.4576882 132.70521 85.5600374 132.70521"></polygon>
                <polygon id="Fill-173" fill="#00B1B0" points="0.167714799 28.4930484 48.8918527 0.333854839 97.6159907 28.4930484 97.6159907 84.8125645 48.8918527 112.972887 0.167714799 84.8125645"></polygon>
                <path d="M34.9419741,88.6403226 C34.6194023,88.4641935 34.4039784,88.1898387 34.327283,87.8420968 C34.1084756,86.8598387 33.8197399,85.8787097 33.7328937,84.8817742 C33.578375,83.0753226 33.498296,81.2575806 33.4791221,79.4432258 C33.4464138,76.2706452 33.8028218,73.1319355 34.4964641,70.033871 C35.2307098,66.7483871 36.2807601,63.5701613 37.8033894,60.5612903 C39.2109756,57.7793548 41.0855014,55.3869355 43.6750991,53.5940323 C46.067319,51.9377419 48.7133103,50.8798387 51.5205876,50.1866129 C53.4368448,49.7135484 55.380171,49.3951613 57.3392874,49.1670968 C59.4732241,48.9187097 61.6116724,48.6940323 63.7444813,48.4320968 C66.7784612,48.0595161 69.7966509,47.5796774 72.6783678,46.513871 C73.7881954,46.1040323 74.8517802,45.568871 75.932283,45.0822581 C76.4014784,44.871129 76.887592,45.0020968 77.0612845,45.4491935 C77.1345963,45.6366129 77.1515144,45.8816129 77.1007601,46.0769355 C76.2379368,49.4120968 75.3773693,52.7483871 74.4818376,56.0756452 C73.4430661,59.9346774 71.7986264,63.5080645 69.3455014,66.6817742 C66.5551422,70.2901613 63.0711408,72.9670968 58.7480014,74.4958065 C57.1599555,75.0580645 55.5143879,75.4024194 53.8496466,75.6429032 C51.1416221,76.0335484 48.4245747,76.3745161 45.718806,76.7798387 C44.0078218,77.036129 42.3408247,77.4877419 40.7302213,78.1324194 C40.5486336,78.2046774 40.3614066,78.2690323 40.1719239,78.3141935 C39.4850489,78.4767742 38.993296,78.1369355 38.877125,77.4391935 C38.7654655,76.7640323 38.8962989,76.1148387 39.0812701,75.4746774 C39.6181379,73.6140323 40.5824698,71.9758065 41.7509468,70.4516129 C43.551033,68.1043548 45.7537701,66.2391935 48.4257026,64.9509677 C49.7543376,64.3096774 51.0908678,63.6864516 52.4240144,63.0541935 C52.4657457,63.035 52.5097328,63.0169355 52.5514641,62.9977419 C52.7138779,62.9209677 52.8627572,62.8272581 52.7792945,62.615 C52.7003434,62.4162903 52.5469526,62.4129032 52.3608534,62.4704839 C51.6570603,62.6895161 50.9476279,62.8904839 50.2449626,63.1129032 C48.2486264,63.7462903 46.2962773,64.4869355 44.4691221,65.5290323 C41.5140934,67.2158065 39.1478147,69.4840323 37.610523,72.5527419 C36.6687486,74.4337097 36.0360115,76.4253226 35.6130589,78.4846774 C35.2656739,80.1770968 35.1066437,81.8864516 35.1585259,83.616129 C35.2002572,84.9687097 35.3908678,86.2975806 35.7438922,87.6027419 C35.8961552,88.1672581 35.8307385,88.338871 35.335602,88.6403226 L34.9419741,88.6403226 Z" id="Fill-174" fill="#FEFEFE"></path>
                <path d="M23.7079023,33.5931129 C25.3906897,34.5482742 27.1873922,35.2177903 29.0472557,35.7281129 C30.5856753,36.150371 32.1624425,36.3219839 33.745977,36.4687581 C36.7404813,36.7465 39.7451365,36.9644032 42.6855029,37.6474677 C47.848908,38.847629 52.2667888,41.3868226 55.9538075,45.1860161 C56.6136135,45.8656935 57.135819,46.6797258 57.7189296,47.4339194 C57.7741954,47.5050484 57.8091595,47.5908548 57.8441236,47.6529516 C56.3361566,47.8923065 54.8417241,48.1158548 53.352931,48.3710161 C51.8336853,48.6306935 50.3426365,49.0168226 48.875273,49.4932742 C48.7703807,49.5271452 48.6068391,49.5237581 48.5222486,49.4650484 C46.689454,48.1723065 44.6299569,47.4689194 42.4418822,47.0839194 C41.524921,46.9224677 40.6135991,46.7271452 39.615431,46.5295645 C42.1102874,47.7511774 44.6480029,48.7052097 46.9454813,50.1740806 C46.1864224,50.5568226 45.4544325,50.9023065 44.7438721,51.2873065 C42.1260776,52.7098871 39.9447701,54.6281129 38.2585991,57.0927903 C38.0894181,57.3400484 37.9540733,57.4235968 37.6348851,57.3434355 C35.877658,56.9031129 34.34375,56.0315 32.9293966,54.9340806 C30.4435632,53.0056935 28.6299425,50.5285968 27.1479167,47.7827903 C25.8012356,45.285371 24.994806,42.5994032 24.3271049,39.8592419 C23.8985129,38.0990806 23.4304454,36.3490806 22.9725287,34.5956935 C22.8371839,34.0808548 22.8868103,33.9035968 23.3142744,33.5931129 L23.7079023,33.5931129 Z" id="Fill-175" fill="#FEFEFE"></path>
            </g>
        </g>
    </g>
</svg>