<svg width="98" height="133" viewBox="0 0 98 133" xmlns="http://www.w3.org/2000/svg"><title>ECO_ICON</title><g fill="none" fill-rule="evenodd" opacity=".6"><path fill="#00B1B0" d="M6.408 123.2h5.749v1.503H8.153v2.519h3.234v1.503H8.153v2.586h4.22v1.503H6.409zM18.41 123.037c2.341 0 3.546 1.313 3.546 1.313l-.84 1.3s-1.096-1.015-2.624-1.015c-2.03 0-3.22 1.517-3.22 3.304 0 1.828 1.231 3.44 3.233 3.44 1.664 0 2.787-1.219 2.787-1.219l.92 1.259s-1.326 1.557-3.774 1.557c-2.936 0-4.964-2.18-4.964-5.01 0-2.79 2.11-4.929 4.937-4.929M28.074 131.378c1.758 0 3.165-1.462 3.165-3.439 0-1.897-1.407-3.305-3.165-3.305-1.76 0-3.166 1.408-3.166 3.305 0 1.977 1.407 3.439 3.166 3.439m0-8.341c2.827 0 4.964 2.154 4.964 4.902 0 2.83-2.137 5.037-4.964 5.037-2.827 0-4.965-2.207-4.965-5.037 0-2.748 2.138-4.902 4.965-4.902M34.817 123.2h1.744v8.111h4.153v1.503h-5.897zM46.251 131.378c1.759 0 3.165-1.462 3.165-3.439 0-1.897-1.406-3.305-3.165-3.305-1.76 0-3.166 1.408-3.166 3.305 0 1.977 1.407 3.439 3.166 3.439m0-8.341c2.827 0 4.964 2.154 4.964 4.902 0 2.83-2.137 5.037-4.964 5.037-2.827 0-4.965-2.207-4.965-5.037 0-2.748 2.138-4.902 4.965-4.902M57.295 123.037c2.353 0 3.571 1.218 3.571 1.218l-.866 1.3s-1.028-.92-2.556-.92c-2.15 0-3.301 1.489-3.301 3.304 0 2.085 1.421 3.44 3.22 3.44 1.447 0 2.407-1.003 2.407-1.003v-1.124h-1.474v-1.502h3.044v5.063h-1.488v-.46c0-.204.013-.406.013-.406h-.027s-1 1.029-2.786 1.029c-2.53 0-4.708-1.963-4.708-4.982 0-2.79 2.097-4.957 4.951-4.957M63.28 132.814h1.745v-9.615H63.28zM71.736 123.037c2.34 0 3.545 1.313 3.545 1.313l-.839 1.3s-1.096-1.015-2.625-1.015c-2.029 0-3.218 1.517-3.218 3.304 0 1.828 1.23 3.44 3.232 3.44 1.665 0 2.787-1.219 2.787-1.219l.92 1.259s-1.326 1.557-3.775 1.557c-2.936 0-4.963-2.18-4.963-5.01 0-2.79 2.11-4.929 4.936-4.929M80.237 124.865s-.217.948-.406 1.49l-.852 2.572h2.515l-.851-2.573c-.176-.54-.38-1.489-.38-1.489h-.026zm1.69 5.484H78.56l-.812 2.464h-1.799l3.382-9.614h1.826l3.382 9.614H82.74l-.812-2.464zM85.774 123.2h1.745v8.111h4.153v1.503h-5.898zM.382 28.602L49.106.442l48.724 28.16v56.32l-48.724 28.16L.382 84.922z"/><path d="M35.156 88.749a1.186 1.186 0 0 1-.615-.798c-.218-.982-.507-1.964-.594-2.96a72.91 72.91 0 0 1-.254-5.44c-.033-3.172.324-6.31 1.018-9.408.734-3.286 1.784-6.464 3.306-9.473 1.408-2.782 3.283-5.174 5.872-6.967 2.392-1.657 5.038-2.714 7.846-3.408 1.916-.473 3.86-.791 5.818-1.02 2.134-.248 4.273-.472 6.406-.734 3.034-.373 6.052-.853 8.933-1.918 1.11-.41 2.174-.945 3.254-1.432.47-.211.956-.08 1.13.367.073.187.09.432.039.628-.863 3.335-1.724 6.671-2.62 9.998-1.038 3.86-2.682 7.433-5.135 10.606-2.79 3.609-6.275 6.286-10.598 7.815-1.588.562-3.234.906-4.898 1.147-2.708.39-5.425.731-8.131 1.137a22.276 22.276 0 0 0-4.989 1.352 4.079 4.079 0 0 1-.558.182c-.687.162-1.179-.177-1.295-.875-.111-.675.02-1.324.204-1.965.537-1.86 1.502-3.498 2.67-5.023 1.8-2.347 4.003-4.212 6.675-5.5 1.328-.642 2.665-1.265 3.998-1.897.042-.02.086-.037.128-.057.162-.076.31-.17.227-.382-.079-.199-.232-.202-.418-.145-.704.22-1.413.42-2.116.643-1.996.633-3.949 1.374-5.776 2.416-2.955 1.687-5.321 3.955-6.858 7.023-.942 1.881-1.575 3.873-1.998 5.932a22.136 22.136 0 0 0-.454 5.132c.041 1.352.232 2.681.585 3.986.152.565.087.737-.408 1.038h-.394z" fill="#FEFEFE"/><path d="M23.922 33.702c1.683.955 3.48 1.625 5.34 2.135 1.538.422 3.115.594 4.698.74 2.995.278 6 .496 8.94 1.18 5.163 1.2 9.58 3.739 13.268 7.538.66.68 1.182 1.493 1.765 2.248.055.07.09.157.125.219-1.508.239-3.002.463-4.491.718-1.52.26-3.01.646-4.478 1.122-.105.034-.268.03-.353-.028-1.832-1.293-3.892-1.996-6.08-2.381-.917-.162-1.828-.357-2.826-.555 2.494 1.222 5.032 2.176 7.33 3.645-.76.383-1.491.728-2.202 1.113-2.618 1.423-4.8 3.34-6.485 5.806-.17.247-.305.33-.624.25-1.757-.44-3.291-1.312-4.706-2.41-2.485-1.928-4.299-4.405-5.781-7.15-1.347-2.498-2.153-5.184-2.82-7.924-.43-1.76-.897-3.51-1.355-5.264-.136-.514-.086-.692.341-1.002h.394z" fill="#FEFEFE"/></g></svg>