<svg width="99" height="133" viewBox="0 0 99 133" xmlns="http://www.w3.org/2000/svg"><title>EDU_ICON</title><g fill="none" fill-rule="evenodd" opacity=".6"><path fill="#00B1B0" d="M.812 28.355L49.651.13 98.49 28.355v56.452l-48.84 28.226L.813 84.807z"/><path d="M14.016 52.208c0-1.665 33.259-17.004 35.635-17.004 2.375 0 35.634 16.052 35.634 17.004 0 .952-33.852 18.428-35.634 18.428-1.782 0-35.635-16.764-35.635-18.428M24.29 77.713c-4.216-.3-4.928-1.437-4.928-1.437" fill="#FEFEFE"/><path d="M21.281 70.888a3.09 3.09 0 0 0-.078-5.992v-5.864c-.66-.356-1.273-.691-1.842-1.006v7.001a3.09 3.09 0 0 0 0 5.751v5.497s6.178 2.448 4.93 1.438c-1.095-.889-2.65-5.673-3.01-6.825M49.65 72.557c-1.654 0-12.328-5.26-18.054-8.142v3.964s2.495 7.133 15.917 7.848c12.471.595 20.311-4.28 20.904-7.016v-5.417c-16.976 8.758-18.277 8.763-18.766 8.763" fill="#FEFEFE"/><path fill="#00B1B0" d="M11.457 123.2h5.75v1.503h-4.005v2.519h3.234v1.503h-3.234v2.586h4.22v1.503h-5.965zM22.418 131.31c1.948 0 3.193-1.15 3.193-3.316 0-2.141-1.272-3.291-3.193-3.291h-1.433v6.608h1.433zM19.24 123.2h3.273c2.962 0 4.896 1.76 4.896 4.795 0 3.032-1.934 4.82-4.896 4.82H19.24v-9.615zM29.106 123.2h1.745v6.16c0 1.287.84 2.018 2.124 2.018 1.284 0 2.137-.73 2.137-2.031v-6.148h1.745v6.161c0 2.153-1.555 3.615-3.869 3.615-2.326 0-3.882-1.462-3.882-3.615v-6.16zM43.436 123.037c2.34 0 3.545 1.313 3.545 1.313l-.839 1.3s-1.096-1.015-2.624-1.015c-2.03 0-3.22 1.517-3.22 3.304 0 1.828 1.231 3.44 3.233 3.44 1.664 0 2.787-1.219 2.787-1.219l.92 1.259s-1.326 1.557-3.774 1.557c-2.936 0-4.964-2.18-4.964-5.01 0-2.79 2.11-4.929 4.936-4.929M51.937 124.865s-.217.948-.406 1.49l-.852 2.572h2.515l-.851-2.573c-.176-.54-.38-1.489-.38-1.489h-.026zm1.69 5.484H50.26l-.812 2.464h-1.8l3.382-9.614h1.826l3.383 9.614h-1.8l-.811-2.464zM58.908 124.703h-3.151V123.2h8.048v1.504h-3.152v8.111h-1.745zM65.081 132.814h1.745v-9.615h-1.745zM73.565 131.378c1.758 0 3.165-1.462 3.165-3.439 0-1.897-1.407-3.305-3.165-3.305-1.76 0-3.166 1.408-3.166 3.305 0 1.977 1.406 3.439 3.166 3.439m0-8.341c2.826 0 4.963 2.154 4.963 4.902 0 2.83-2.137 5.037-4.963 5.037-2.828 0-4.965-2.207-4.965-5.037 0-2.748 2.137-4.902 4.965-4.902M80.307 123.2h1.745l3.638 5.552c.366.554.799 1.489.799 1.489h.027s-.095-.921-.095-1.49V123.2h1.732v9.615H86.42l-3.638-5.54c-.366-.555-.799-1.488-.799-1.488h-.027s.095.92.095 1.489v5.539h-1.745v-9.615z"/></g></svg>