<?xml version="1.0" encoding="UTF-8"?>
<svg width="99px" height="133px" viewBox="0 0 99 133" version="1.1" xmlns="http://www.w3.org/2000/svg" xmlns:xlink="http://www.w3.org/1999/xlink">
    <!-- Generator: Sketch 42 (36781) - http://www.bohemiancoding.com/sketch -->
    <title>EDU_ICON</title>
    <desc>Created with Sketch.</desc>
    <defs></defs>
    <g id="Page-1" stroke="none" stroke-width="1" fill="none" fill-rule="evenodd" opacity="0.6">
        <g id="CATEGORIES-Copy" transform="translate(-345.000000, 0.000000)">
            <g id="EDU_ICON" transform="translate(345.129310, 0.108710)">
                <polygon id="Fill-10" fill="#00B1B0" points="0.683153017 28.2464677 49.5212062 0.0206612903 98.3603872 28.2464677 98.3603872 84.6980806 49.5212062 112.923887 0.683153017 84.6980806"></polygon>
                <path d="M13.8866049,52.0995323 C13.8866049,50.4342097 47.1453405,35.0951774 49.5217701,35.0951774 C51.8970718,35.0951774 85.1558075,51.1477581 85.1558075,52.0995323 C85.1558075,53.0513065 51.3038103,70.5275968 49.5217701,70.5275968 C47.7397299,70.5275968 13.8866049,53.7637258 13.8866049,52.0995323" id="Fill-12" fill="#FEFEFE"></path>
                <path d="M24.1614203,77.6041452 C19.944301,77.3049516 19.2326128,76.1668871 19.2326128,76.1668871" id="Fill-14" fill="#FEFEFE"></path>
                <path d="M21.1516897,70.7792581 C22.4724296,70.4292581 23.4491681,69.2268387 23.4491681,67.7952258 C23.4491681,66.332 22.4352098,65.1115161 21.0738664,64.7874839 L21.0738664,58.9232903 C20.4129325,58.5676452 19.8004971,58.2323226 19.2320489,57.9173226 L19.2320489,64.9184516 C18.0850014,65.3700645 17.2718046,66.4855484 17.2718046,67.7952258 C17.2718046,69.1026452 18.0850014,70.2192581 19.2320489,70.6697419 L19.2320489,76.165871 C19.2320489,76.165871 25.4094124,78.6147419 24.1608563,77.6042581 C23.066819,76.7157097 21.5126092,71.930871 21.1516897,70.7792581" id="Fill-16" fill="#FEFEFE"></path>
                <path d="M49.5214318,72.4485323 C47.8668412,72.4485323 37.1926458,67.188371 31.4664318,64.3059516 L31.4664318,68.2699839 C31.4664318,68.2699839 33.9612881,75.4032097 47.3841114,76.1178871 C59.8550093,76.7128871 67.6948585,71.8377258 68.28812,69.1020806 L68.28812,63.6849839 C51.3113671,72.4428871 50.0109289,72.4485323 49.5214318,72.4485323" id="Fill-18" fill="#FEFEFE"></path>
                <polygon id="Fill-20" fill="#00B1B0" points="11.3280237 123.090371 17.0767953 123.090371 17.0767953 124.594242 13.0728441 124.594242 13.0728441 127.113113 16.3064576 127.113113 16.3064576 128.615855 13.0728441 128.615855 13.0728441 131.202468 17.293347 131.202468 17.293347 132.70521 11.3280237 132.70521"></polygon>
                <path d="M22.2889246,131.202016 C24.2367622,131.202016 25.4819346,130.050403 25.4819346,127.884919 C25.4819346,125.744274 24.2096932,124.59379 22.2889246,124.59379 L20.8553973,124.59379 L20.8553973,131.202016 L22.2889246,131.202016 Z M19.1105769,123.089919 L22.3836659,123.089919 C25.3454619,123.089919 27.2797651,124.85121 27.2797651,127.884919 C27.2797651,130.9175 25.3454619,132.704758 22.3836659,132.704758 L19.1105769,132.704758 L19.1105769,123.089919 Z" id="Fill-22" fill="#00B1B0"></path>
                <path d="M28.9768764,123.090371 L30.7216968,123.090371 L30.7216968,129.2515 C30.7216968,130.538597 31.5608348,131.269081 32.8454828,131.269081 C34.1301307,131.269081 34.9828032,130.538597 34.9828032,129.237952 L34.9828032,123.090371 L36.7276236,123.090371 L36.7276236,129.2515 C36.7276236,131.404565 35.1722859,132.866661 32.8590172,132.866661 C30.5322141,132.866661 28.9768764,131.404565 28.9768764,129.2515 L28.9768764,123.090371 Z" id="Fill-24" fill="#00B1B0"></path>
                <path d="M43.3071868,122.928355 C45.6475244,122.928355 46.8520934,124.241419 46.8520934,124.241419 L46.0129555,125.540935 C46.0129555,125.540935 44.9166624,124.525935 43.3883937,124.525935 C41.3593491,124.525935 40.1694425,126.043355 40.1694425,127.830613 C40.1694425,129.658516 41.3999526,131.269645 43.4019282,131.269645 C45.0655417,131.269645 46.1889037,130.051419 46.1889037,130.051419 L47.1081207,131.31029 C47.1081207,131.31029 45.7828693,132.867226 43.3342557,132.867226 C40.3984009,132.867226 38.3704842,130.687065 38.3704842,127.856581 C38.3704842,125.067871 40.4807356,122.928355 43.3071868,122.928355" id="Fill-26" fill="#00B1B0"></path>
                <path d="M51.8075187,124.756371 C51.8075187,124.756371 51.590967,125.704758 51.4014842,126.245565 L50.5499397,128.818629 L53.0650977,128.818629 L52.2135532,126.245565 C52.0376049,125.704758 51.8345876,124.756371 51.8345876,124.756371 L51.8075187,124.756371 Z M53.4982011,130.240081 L50.1303707,130.240081 L49.3183017,132.704758 L47.5193434,132.704758 L50.9007083,123.089919 L52.7267356,123.089919 L56.1092284,132.704758 L54.3102701,132.704758 L53.4982011,130.240081 Z" id="Fill-28" fill="#00B1B0"></path>
                <polygon id="Fill-30" fill="#00B1B0" points="58.7785668 124.594355 55.6272881 124.594355 55.6272881 123.090484 63.6757938 123.090484 63.6757938 124.594355 60.5233872 124.594355 60.5233872 132.705323 58.7785668 132.705323"></polygon>
                <polygon id="Fill-32" fill="#00B1B0" points="64.9519828 132.705323 66.6968032 132.705323 66.6968032 123.090484 64.9519828 123.090484"></polygon>
                <path d="M73.4353966,131.269306 C75.1937514,131.269306 76.6002098,129.80721 76.6002098,127.830274 C76.6002098,125.9335 75.1937514,124.525597 73.4353966,124.525597 C71.6759138,124.525597 70.2694555,125.9335 70.2694555,127.830274 C70.2694555,129.80721 71.6759138,131.269306 73.4353966,131.269306 M73.4353966,122.928016 C76.2618477,122.928016 78.3991681,125.08221 78.3991681,127.830274 C78.3991681,130.660758 76.2618477,132.866887 73.4353966,132.866887 C70.6078175,132.866887 68.4704971,130.660758 68.4704971,127.830274 C68.4704971,125.08221 70.6078175,122.928016 73.4353966,122.928016" id="Fill-34" fill="#00B1B0"></path>
                <path d="M80.1778247,123.090371 L81.9226451,123.090371 L85.5611652,128.642952 C85.9265963,129.197306 86.3596997,130.132145 86.3596997,130.132145 L86.3867687,130.132145 C86.3867687,130.132145 86.2920273,129.210855 86.2920273,128.642952 L86.2920273,123.090371 L88.0233132,123.090371 L88.0233132,132.70521 L86.2920273,132.70521 L82.6535072,127.166177 C82.2880761,126.610694 81.8549727,125.676984 81.8549727,125.676984 L81.8279037,125.676984 C81.8279037,125.676984 81.9226451,126.597145 81.9226451,127.166177 L81.9226451,132.70521 L80.1778247,132.70521 L80.1778247,123.090371 Z" id="Fill-35" fill="#00B1B0"></path>
            </g>
        </g>
    </g>
</svg>