<svg width="99" height="133" viewBox="0 0 99 133" xmlns="http://www.w3.org/2000/svg"><title>FASH_ICON</title><g fill="none" fill-rule="evenodd" opacity=".6"><path fill="#00B1B0" d="M.766 28.355L49.604.13l48.838 28.226v56.452l-48.838 28.226L.766 84.807z"/><path d="M76.513 44.605L65.09 33.421c-2.317-2.268-5.255-2.838-6.672-2.504-1.793 4.562-7.534 4.5-8.708 4.438v-.014l-.107.008a7.706 7.706 0 0 1-.107-.008v.014c-1.174.062-6.914.124-8.707-4.438-1.42-.334-4.356.236-6.672 2.504L22.695 44.605s-2.169 2.003 0 4.676c2.168 2.67 7.088 6.843 7.088 6.843s1.25.919 2.835-1.251c1.584-2.171 2.334-2.755 2.334-2.755v26.877s-.334 3.338 2.668 3.338H61.588c3.002 0 2.668-3.338 2.668-3.338V52.118s.75.584 2.335 2.755c1.585 2.17 2.834 1.25 2.834 1.25s4.92-4.172 7.088-6.842c2.168-2.673 0-4.676 0-4.676" fill="#FEFEFE"/><path fill="#00B1B0" d="M21.418 123.2h5.519v1.503h-3.774v2.72h3.178v1.504h-3.178v3.887h-1.745zM31.35 124.865s-.216.948-.406 1.49l-.851 2.572h2.515l-.852-2.573c-.176-.54-.379-1.489-.379-1.489h-.027zm1.69 5.484h-3.367l-.812 2.464h-1.799l3.381-9.614h1.826l3.383 9.614h-1.8l-.811-2.464zM37.104 130.35s1.041 1.014 2.395 1.014c.73 0 1.393-.379 1.393-1.164 0-1.72-4.532-1.422-4.532-4.374 0-1.597 1.38-2.79 3.22-2.79 1.894 0 2.867 1.03 2.867 1.03l-.758 1.422s-.92-.84-2.123-.84c-.812 0-1.448.474-1.448 1.151 0 1.706 4.518 1.286 4.518 4.36 0 1.53-1.162 2.816-3.164 2.816-2.138 0-3.315-1.313-3.315-1.313l.947-1.313zM44.386 123.2h1.745v4.075h4.396v-4.076h1.745v9.615h-1.745v-4.036h-4.396v4.036h-1.745zM54.713 132.814h1.745v-9.615h-1.745zM63.196 131.378c1.759 0 3.165-1.462 3.165-3.439 0-1.897-1.406-3.305-3.165-3.305-1.76 0-3.166 1.408-3.166 3.305 0 1.977 1.407 3.439 3.166 3.439m0-8.341c2.827 0 4.964 2.154 4.964 4.902 0 2.83-2.137 5.037-4.964 5.037-2.827 0-4.965-2.207-4.965-5.037 0-2.748 2.138-4.902 4.965-4.902M69.939 123.2h1.744l3.639 5.552c.365.554.798 1.489.798 1.489h.028s-.095-.921-.095-1.49V123.2h1.731v9.615h-1.731l-3.639-5.54c-.365-.555-.798-1.488-.798-1.488h-.027s.094.92.094 1.489v5.539H69.94v-9.615z"/></g></svg>