<?xml version="1.0" encoding="UTF-8"?>
<svg width="99px" height="133px" viewBox="0 0 99 133" version="1.1" xmlns="http://www.w3.org/2000/svg" xmlns:xlink="http://www.w3.org/1999/xlink">
    <!-- Generator: Sketch 42 (36781) - http://www.bohemiancoding.com/sketch -->
    <title>FASH_ICON</title>
    <desc>Created with Sketch.</desc>
    <defs></defs>
    <g id="Page-1" stroke="none" stroke-width="1" fill="none" fill-rule="evenodd" opacity="0.6">
        <g id="CATEGORIES-Copy" transform="translate(-457.000000, 0.000000)">
            <g id="FASH_ICON" transform="translate(456.788793, 0.108710)">
                <polygon id="Fill-36" fill="#00B1B0" points="0.977076868 28.2464677 49.81513 0.0206612903 98.6531832 28.2464677 98.6531832 84.6980806 49.81513 112.923887 0.977076868 84.6980806"></polygon>
                <path d="M76.7240503,44.4967419 L65.3020747,33.3125484 C62.9854224,31.0443226 60.0473118,30.4741613 58.6307026,30.8083548 C56.8373836,35.3707742 51.0965072,35.3086774 49.9223908,35.2465806 L49.9223908,35.2319032 C49.9223908,35.2319032 49.8829152,35.2352903 49.8152428,35.2398065 C49.7486983,35.2352903 49.7080948,35.2319032 49.7080948,35.2319032 L49.7080948,35.2465806 C48.5339784,35.3086774 42.7942299,35.3707742 41.0009109,30.8083548 C39.582046,30.4741613 36.6450632,31.0443226 34.3295388,33.3125484 L22.9064353,44.4967419 C22.9064353,44.4967419 20.7375345,46.4996452 22.9064353,49.1720645 C25.0742083,51.8422258 29.9939928,56.015129 29.9939928,56.015129 C29.9939928,56.015129 31.2448046,56.9341613 32.829467,54.7641613 C34.4130014,52.5930323 35.1630374,52.0093226 35.1630374,52.0093226 L35.1630374,78.8859355 C35.1630374,78.8859355 34.8291868,82.2244839 37.8315862,82.2244839 L49.3742443,82.2244839 L50.2562414,82.2244839 L61.7988994,82.2244839 C64.8012989,82.2244839 64.4674483,78.8859355 64.4674483,78.8859355 L64.4674483,52.0093226 C64.4674483,52.0093226 65.2174842,52.5930323 66.8021466,54.7641613 C68.3868089,56.9341613 69.6364928,56.015129 69.6364928,56.015129 C69.6364928,56.015129 74.5562773,51.8422258 76.7240503,49.1720645 C78.8918233,46.4996452 76.7240503,44.4967419 76.7240503,44.4967419" id="Fill-37" fill="#FEFEFE"></path>
                <polygon id="Fill-38" fill="#00B1B0" points="21.6292313 123.090371 27.1479167 123.090371 27.1479167 124.594242 23.3740517 124.594242 23.3740517 127.31521 26.5523994 127.31521 26.5523994 128.817952 23.3740517 128.817952 23.3740517 132.70521 21.6292313 132.70521"></polygon>
                <path d="M31.5613987,124.756371 C31.5613987,124.756371 31.344847,125.704758 31.1553642,126.245565 L30.3038197,128.818629 L32.8189777,128.818629 L31.9674332,126.245565 C31.7914849,125.704758 31.5884677,124.756371 31.5884677,124.756371 L31.5613987,124.756371 Z M33.2520812,130.240081 L29.8842507,130.240081 L29.0721818,132.704758 L27.2732234,132.704758 L30.6545884,123.089919 L32.4806157,123.089919 L35.8631085,132.704758 L34.0641501,132.704758 L33.2520812,130.240081 Z" id="Fill-39" fill="#00B1B0"></path>
                <path d="M37.3153585,130.240645 C37.3153585,130.240645 38.3563858,131.255645 39.7098341,131.255645 C40.4406961,131.255645 41.1027579,130.87629 41.1027579,130.091613 C41.1027579,128.372097 36.5709619,128.669032 36.5709619,125.717742 C36.5709619,124.120161 37.9503513,122.927903 39.7910409,122.927903 C41.6847407,122.927903 42.6580955,123.957581 42.6580955,123.957581 L41.9001645,125.379032 C41.9001645,125.379032 40.9809476,124.539032 39.7775065,124.539032 C38.9654375,124.539032 38.3293168,125.013226 38.3293168,125.690645 C38.3293168,127.396613 42.8475783,126.976613 42.8475783,130.050968 C42.8475783,131.580806 41.6847407,132.866774 39.6827651,132.866774 C37.5454447,132.866774 36.3679447,131.55371 36.3679447,131.55371 L37.3153585,130.240645 Z" id="Fill-40" fill="#00B1B0"></path>
                <polygon id="Fill-41" fill="#00B1B0" points="44.5969102 123.090371 46.3417306 123.090371 46.3417306 127.166177 50.7381818 127.166177 50.7381818 123.090371 52.4830022 123.090371 52.4830022 132.70521 50.7381818 132.70521 50.7381818 128.668919 46.3417306 128.668919 46.3417306 132.70521 44.5969102 132.70521"></polygon>
                <polygon id="Fill-42" fill="#00B1B0" points="54.9240589 132.705323 56.6688793 132.705323 56.6688793 123.090484 54.9240589 123.090484"></polygon>
                <path d="M63.4073599,131.269306 C65.1657148,131.269306 66.5721731,129.80721 66.5721731,127.830274 C66.5721731,125.9335 65.1657148,124.525597 63.4073599,124.525597 C61.6478772,124.525597 60.2414188,125.9335 60.2414188,127.830274 C60.2414188,129.80721 61.6478772,131.269306 63.4073599,131.269306 M63.4073599,122.928016 C66.2338111,122.928016 68.3711315,125.08221 68.3711315,127.830274 C68.3711315,130.660758 66.2338111,132.866887 63.4073599,132.866887 C60.5797809,132.866887 58.4424605,130.660758 58.4424605,127.830274 C58.4424605,125.08221 60.5797809,122.928016 63.4073599,122.928016" id="Fill-43" fill="#00B1B0"></path>
                <path d="M70.1497881,123.090371 L71.8946085,123.090371 L75.5331286,128.642952 C75.8985596,129.197306 76.3316631,130.132145 76.3316631,130.132145 L76.358732,130.132145 C76.358732,130.132145 76.2639907,129.210855 76.2639907,128.642952 L76.2639907,123.090371 L77.9952766,123.090371 L77.9952766,132.70521 L76.2639907,132.70521 L72.6254705,127.166177 C72.2600395,126.610694 71.8269361,125.676984 71.8269361,125.676984 L71.7998671,125.676984 C71.7998671,125.676984 71.8946085,126.597145 71.8946085,127.166177 L71.8946085,132.70521 L70.1497881,132.70521 L70.1497881,123.090371 Z" id="Fill-44" fill="#00B1B0"></path>
            </g>
        </g>
    </g>
</svg>