<svg width="103" height="150" viewBox="0 0 103 150" xmlns="http://www.w3.org/2000/svg"><title>FILM_ICON</title><g fill="none" fill-rule="evenodd" opacity=".6"><path fill="#00B1B0" d="M1.748 28.355L50.586.13l48.839 28.226v56.452l-48.84 28.226L1.749 84.807z"/><path d="M70.62 52.3a1.964 1.964 0 0 1-1.963-1.965 1.963 1.963 0 1 1 3.927 0A1.964 1.964 0 0 1 70.62 52.3M50.587 72.99c-7.48 0-13.543-6.07-13.543-13.558 0-7.486 6.064-13.556 13.543-13.556 7.479 0 13.54 6.07 13.54 13.556 0 7.488-6.061 13.558-13.54 13.558m22.872-30.06h-6.854c-.94 0-3.896.06-3.896-4.293s-3.864-3.807-3.864-3.807H42.328s-3.866-.546-3.866 3.807-2.957 4.293-3.895 4.293h-6.854c-1.51 0-4.303 1.511-4.303 7.254V73.7c0 1.572 2.432 4.655 5.511 4.655H72.25c3.082 0 5.512-3.083 5.512-4.655V50.184c0-5.743-2.793-7.254-4.303-7.254" fill="#FEFEFE"/><path d="M50.587 51.317c-4.472 0-8.108 3.642-8.108 8.116 0 4.475 3.636 8.115 8.108 8.115 4.47 0 8.107-3.64 8.107-8.115 0-4.474-3.637-8.116-8.107-8.116" fill="#FEFEFE"/><path fill="#00B1B0" d="M28.606 123.2h5.518v1.503h-3.773v2.72h3.178v1.504h-3.178v3.887h-1.745zM35.765 132.814h1.745v-9.615h-1.745zM39.947 123.2h1.745v8.111h4.153v1.503h-5.898zM47.729 123.2h1.866l1.88 4.752c.217.57.488 1.408.488 1.408h.026s.258-.839.474-1.408l1.88-4.753h1.868l.77 9.615H55.25l-.405-5.377c-.042-.636-.015-1.489-.015-1.489h-.027s-.283.935-.514 1.49l-1.556 3.724h-1.528l-1.542-3.725c-.23-.554-.528-1.502-.528-1.502h-.027s.027.866-.013 1.502l-.405 5.377h-1.746l.785-9.615zM65.24 131.378c1.083 0 1.732-.595 1.732-1.76v-1.042H65.35c-1.07 0-1.76.473-1.76 1.408 0 .77.664 1.394 1.65 1.394m-1.798-3.683v-.027s-1.217-.474-1.217-2.099c0-1.706 1.366-2.532 3.03-2.532a6.02 6.02 0 0 1 1.258.162l-.42 1.381s-.324-.081-.636-.081c-.81 0-1.474.448-1.474 1.287 0 .555.311 1.272 1.462 1.272h1.527v-1.245h1.719v1.245h1.244v1.518H68.69v1.137c0 1.963-1.286 3.263-3.45 3.263-2.083 0-3.436-1.26-3.436-2.885 0-1.042.623-2.044 1.637-2.396M3.504 144.238c1.014 0 1.61-.65 1.61-1.653 0-.987-.596-1.623-1.584-1.623H1.867v3.276h1.637zm-3.381-4.78h3.706c1.799 0 3.056 1.259 3.056 3.127 0 1.869-1.257 3.17-3.056 3.17H1.867v3.317H.123v-9.614zM8.433 139.458h1.745v4.075h4.395v-4.075h1.746v9.614h-1.746v-4.036h-4.395v4.036H8.433zM23.06 147.637c1.76 0 3.166-1.463 3.166-3.44 0-1.896-1.406-3.304-3.166-3.304-1.758 0-3.165 1.408-3.165 3.304 0 1.977 1.407 3.44 3.165 3.44m0-8.342c2.828 0 4.965 2.154 4.965 4.903 0 2.83-2.137 5.036-4.965 5.036-2.826 0-4.964-2.206-4.964-5.037 0-2.748 2.138-4.902 4.964-4.902M31.71 140.962h-3.152v-1.504h8.05v1.504h-3.152v8.11H31.71zM42.103 147.637c1.76 0 3.166-1.463 3.166-3.44 0-1.896-1.407-3.304-3.166-3.304s-3.165 1.408-3.165 3.304c0 1.977 1.406 3.44 3.165 3.44m0-8.342c2.827 0 4.965 2.154 4.965 4.903 0 2.83-2.138 5.036-4.965 5.036s-4.964-2.206-4.964-5.037c0-2.748 2.137-4.902 4.964-4.902M53.147 139.296c2.354 0 3.572 1.218 3.572 1.218l-.866 1.3s-1.029-.92-2.556-.92c-2.15 0-3.301 1.488-3.301 3.304 0 2.084 1.42 3.439 3.22 3.439 1.447 0 2.407-1.003 2.407-1.003v-1.123h-1.474v-1.503h3.044v5.064h-1.488v-.46c0-.204.012-.406.012-.406h-.027s-1 1.028-2.787 1.028c-2.528 0-4.706-1.963-4.706-4.982 0-2.79 2.096-4.956 4.95-4.956M62.446 143.967c.933 0 1.515-.555 1.515-1.517 0-.92-.392-1.488-1.758-1.488h-1.327v3.005h1.57zm-3.313-4.51h3.097c1.04 0 1.515.082 1.934.272.961.433 1.569 1.353 1.569 2.626 0 1.152-.608 2.222-1.622 2.627v.028s.134.135.324.473l1.975 3.589h-1.948l-1.907-3.589h-1.679v3.589h-1.743v-9.614zM71.122 141.124s-.216.948-.406 1.489l-.851 2.573h2.515l-.853-2.573c-.176-.541-.379-1.49-.379-1.49h-.026zm1.691 5.483h-3.368l-.812 2.465h-1.799l3.382-9.615h1.826l3.381 9.615h-1.798l-.812-2.465zM80.04 144.238c1.015 0 1.611-.65 1.611-1.653 0-.987-.596-1.623-1.583-1.623h-1.664v3.276h1.637zm-3.38-4.78h3.706c1.8 0 3.057 1.259 3.057 3.127 0 1.869-1.257 3.17-3.057 3.17h-1.962v3.317H76.66v-9.614zM84.97 139.458h1.745v4.075h4.396v-4.075h1.745v9.614H91.11v-4.036h-4.396v4.036H84.97zM97.298 145.05l-3.192-5.592h1.975l1.501 2.83c.312.595.569 1.3.582 1.286h.027s.27-.69.582-1.286l1.488-2.83h1.975l-3.193 5.592v4.023h-1.745v-4.023z"/></g></svg>