<?xml version="1.0" encoding="UTF-8"?>
<svg width="103px" height="150px" viewBox="0 0 103 150" version="1.1" xmlns="http://www.w3.org/2000/svg" xmlns:xlink="http://www.w3.org/1999/xlink">
    <!-- Generator: Sketch 42 (36781) - http://www.bohemiancoding.com/sketch -->
    <title>FILM_ICON</title>
    <desc>Created with Sketch.</desc>
    <defs></defs>
    <g id="Page-1" stroke="none" stroke-width="1" fill="none" fill-rule="evenodd" opacity="0.6">
        <g id="CATEGORIES-Copy" transform="translate(-682.000000, 0.000000)">
            <g id="FILM_ICON" transform="translate(681.235632, 0.108710)">
                <polygon id="Fill-56" fill="#00B1B0" points="2.51188721 28.2464677 51.3499404 0.0206612903 100.189121 28.2464677 100.189121 84.6980806 51.3499404 112.923887 2.51188721 84.6980806"></polygon>
                <path d="M71.3842457,52.1915484 C70.3003592,52.1915484 69.4217457,51.3120323 69.4217457,50.2259032 C69.4217457,49.1409032 70.3003592,48.2613871 71.3842457,48.2613871 C72.4692601,48.2613871 73.3478736,49.1409032 73.3478736,50.2259032 C73.3478736,51.3120323 72.4692601,52.1915484 71.3842457,52.1915484 M51.3509555,72.8810645 C43.8720259,72.8810645 37.8085776,66.8113871 37.8085776,59.3236452 C37.8085776,51.8370323 43.8720259,45.7673548 51.3509555,45.7673548 C58.8298851,45.7673548 64.8910776,51.8370323 64.8910776,59.3236452 C64.8910776,66.8113871 58.8298851,72.8810645 51.3509555,72.8810645 M74.2231034,42.8217097 L67.3690158,42.8217097 C66.4294971,42.8217097 63.4733405,42.8815484 63.4733405,38.528 C63.4733405,34.1755806 59.6092457,34.7209032 59.6092457,34.7209032 L51.3509555,34.7209032 L43.0926652,34.7209032 C43.0926652,34.7209032 39.2263147,34.1755806 39.2263147,38.528 C39.2263147,42.8815484 36.2690302,42.8217097 35.3317672,42.8217097 L28.4776796,42.8217097 C26.9674569,42.8217097 24.174842,44.3323548 24.174842,50.0757419 L24.174842,73.5912258 C24.174842,75.1628387 26.6065374,78.2462258 29.6856322,78.2462258 L51.3509555,78.2462258 L73.014023,78.2462258 C76.0965014,78.2462258 78.5259411,75.1628387 78.5259411,73.5912258 L78.5259411,50.0757419 C78.5259411,44.3323548 75.7333261,42.8217097 74.2231034,42.8217097" id="Fill-57" fill="#FEFEFE"></path>
                <path d="M51.3512938,51.2080484 C46.8792751,51.2080484 43.2430108,54.8503065 43.2430108,59.3246613 C43.2430108,63.7990161 46.8792751,67.4390161 51.3512938,67.4390161 C55.8210568,67.4390161 59.458449,63.7990161 59.458449,59.3246613 C59.458449,54.8503065 55.8210568,51.2080484 51.3512938,51.2080484" id="Fill-58" fill="#FEFEFE"></path>
                <polygon id="Fill-59" fill="#00B1B0" points="29.3701659 123.090371 34.8888513 123.090371 34.8888513 124.594242 31.1149864 124.594242 31.1149864 127.31521 34.2933341 127.31521 34.2933341 128.817952 31.1149864 128.817952 31.1149864 132.70521 29.3701659 132.70521"></polygon>
                <polygon id="Fill-60" fill="#00B1B0" points="36.529569 132.705323 38.2743894 132.705323 38.2743894 123.090484 36.529569 123.090484"></polygon>
                <polygon id="Fill-61" fill="#00B1B0" points="40.7116114 123.090371 42.4564318 123.090371 42.4564318 131.202468 46.6092622 131.202468 46.6092622 132.70521 40.7116114 132.70521"></polygon>
                <path d="M48.493375,123.090371 L50.3588779,123.090371 L52.240171,127.843597 C52.4567227,128.412629 52.7274124,129.2515 52.7274124,129.2515 L52.7533534,129.2515 C52.7533534,129.2515 53.0116365,128.412629 53.2270603,127.843597 L55.1072256,123.090371 L56.9749842,123.090371 L57.7453218,132.70521 L56.0140359,132.70521 L55.6091293,127.328758 C55.567398,126.691984 55.594467,125.839565 55.594467,125.839565 L55.567398,125.839565 C55.567398,125.839565 55.2843017,126.774403 55.0530876,127.328758 L53.49775,131.053435 L51.9694813,131.053435 L50.4276782,127.328758 C50.197592,126.774403 49.8998333,125.826016 49.8998333,125.826016 L49.8727644,125.826016 C49.8727644,125.826016 49.8998333,126.691984 49.8592299,127.328758 L49.4543233,132.70521 L47.708375,132.70521 L48.493375,123.090371 Z" id="Fill-62" fill="#00B1B0"></path>
                <path d="M66.0050783,131.269306 C67.0878369,131.269306 67.7363642,130.674306 67.7363642,129.509145 L67.7363642,128.467048 L66.114482,128.467048 C65.04413,128.467048 64.3549993,128.940113 64.3549993,129.874952 C64.3549993,130.646081 65.0181889,131.269306 66.0050783,131.269306 M64.20612,127.586403 L64.20612,127.559306 C64.20612,127.559306 62.9891444,127.085113 62.9891444,125.460435 C62.9891444,123.754468 64.3549993,122.928016 66.0197407,122.928016 C66.6276645,122.928016 67.2773197,123.090597 67.2773197,123.090597 L66.8577507,124.471403 C66.8577507,124.471403 66.5329231,124.390113 66.22163,124.390113 C65.4106889,124.390113 64.7474993,124.838339 64.7474993,125.67721 C64.7474993,126.232694 65.0587924,126.949629 66.2092234,126.949629 L67.7363642,126.949629 L67.7363642,125.704306 L69.4552435,125.704306 L69.4552435,126.949629 L70.6992881,126.949629 L70.6992881,128.467048 L69.4552435,128.467048 L69.4552435,129.603984 C69.4552435,131.567371 68.1694677,132.866887 66.0050783,132.866887 C63.9218958,132.866887 62.5695754,131.608016 62.5695754,129.98221 C62.5695754,128.940113 63.1921616,127.938661 64.20612,127.586403" id="Fill-63" fill="#00B1B0"></path>
                <path d="M4.26832471,144.129661 C5.28228305,144.129661 5.87780029,143.479339 5.87780029,142.476758 C5.87780029,141.488855 5.28228305,140.85321 4.2942658,140.85321 L2.63178017,140.85321 L2.63178017,144.129661 L4.26832471,144.129661 Z M0.88695977,139.349339 L4.5931523,139.349339 C6.39211063,139.349339 7.64968966,140.60821 7.64968966,142.476758 C7.64968966,144.345306 6.39211063,145.645952 4.5931523,145.645952 L2.63178017,145.645952 L2.63178017,148.963048 L0.88695977,148.963048 L0.88695977,139.349339 Z" id="Fill-64" fill="#00B1B0"></path>
                <polygon id="Fill-65" fill="#00B1B0" points="9.19724497 139.348887 10.9420654 139.348887 10.9420654 143.424694 15.3373886 143.424694 15.3373886 139.348887 17.0833369 139.348887 17.0833369 148.963726 15.3373886 148.963726 15.3373886 144.927435 10.9420654 144.927435 10.9420654 148.963726 9.19724497 148.963726"></polygon>
                <path d="M23.8244116,147.527823 C25.5838944,147.527823 26.9903527,146.065726 26.9903527,144.08879 C26.9903527,142.192016 25.5838944,140.784113 23.8244116,140.784113 C22.0660568,140.784113 20.6595984,142.192016 20.6595984,144.08879 C20.6595984,146.065726 22.0660568,147.527823 23.8244116,147.527823 M23.8244116,139.186532 C26.6519907,139.186532 28.7893111,141.340726 28.7893111,144.08879 C28.7893111,146.919274 26.6519907,149.125403 23.8244116,149.125403 C20.9979605,149.125403 18.8606401,146.919274 18.8606401,144.08879 C18.8606401,141.340726 20.9979605,139.186532 23.8244116,139.186532" id="Fill-66" fill="#00B1B0"></path>
                <polygon id="Fill-67" fill="#00B1B0" points="32.4750891 140.852871 29.3226825 140.852871 29.3226825 139.349 37.3723161 139.349 37.3723161 140.852871 34.2199095 140.852871 34.2199095 148.963839 32.4750891 148.963839"></polygon>
                <path d="M42.8672033,147.527823 C44.6266861,147.527823 46.0331444,146.065726 46.0331444,144.08879 C46.0331444,142.192016 44.6266861,140.784113 42.8672033,140.784113 C41.1088484,140.784113 39.7023901,142.192016 39.7023901,144.08879 C39.7023901,146.065726 41.1088484,147.527823 42.8672033,147.527823 M42.8672033,139.186532 C45.6947823,139.186532 47.8321027,141.340726 47.8321027,144.08879 C47.8321027,146.919274 45.6947823,149.125403 42.8672033,149.125403 C40.0407522,149.125403 37.9034318,146.919274 37.9034318,144.08879 C37.9034318,141.340726 40.0407522,139.186532 42.8672033,139.186532" id="Fill-68" fill="#00B1B0"></path>
                <path d="M53.9113412,139.186871 C56.2652134,139.186871 57.4833168,140.405097 57.4833168,140.405097 L56.6171099,141.704613 C56.6171099,141.704613 55.5884892,140.784452 54.0613484,140.784452 C51.9104935,140.784452 50.7600625,142.273645 50.7600625,144.089129 C50.7600625,146.173323 52.1800553,147.528161 53.9801415,147.528161 C55.4272033,147.528161 56.3870237,146.525581 56.3870237,146.525581 L56.3870237,145.402194 L54.912893,145.402194 L54.912893,143.899452 L57.9570237,143.899452 L57.9570237,148.963161 L56.4693585,148.963161 L56.4693585,148.502516 C56.4693585,148.29929 56.4817651,148.097194 56.4817651,148.097194 L56.4546961,148.097194 C56.4546961,148.097194 55.4542723,149.125742 53.6677205,149.125742 C51.139028,149.125742 48.9611042,147.162355 48.9611042,144.143323 C48.9611042,141.353484 51.0578211,139.186871 53.9113412,139.186871" id="Fill-69" fill="#00B1B0"></path>
                <path d="M63.2107716,143.858468 C64.143523,143.858468 64.7255057,143.302984 64.7255057,142.341048 C64.7255057,141.420887 64.3330057,140.852984 62.9671509,140.852984 L61.6407716,140.852984 L61.6407716,143.858468 L63.2107716,143.858468 Z M59.897079,139.349113 L62.9942198,139.349113 C64.0352471,139.349113 64.508954,139.430403 64.928523,139.620081 C65.8894713,140.053629 66.4973951,140.97379 66.4973951,142.24621 C66.4973951,143.397823 65.8894713,144.468145 64.8755129,144.873468 L64.8755129,144.901694 C64.8755129,144.901694 65.0097299,145.036048 65.1992126,145.374758 L67.1741193,148.962823 L65.2262816,148.962823 L63.3190474,145.374758 L61.6407716,145.374758 L61.6407716,148.962823 L59.897079,148.962823 L59.897079,139.349113 Z" id="Fill-70" fill="#00B1B0"></path>
                <path d="M71.8868261,141.014887 C71.8868261,141.014887 71.6702744,141.963274 71.4807917,142.504081 L70.6292471,145.077145 L73.1444052,145.077145 L72.2917328,142.504081 C72.1157845,141.963274 71.9127672,141.014887 71.9127672,141.014887 L71.8868261,141.014887 Z M73.5775086,146.498597 L70.2096782,146.498597 L69.3976092,148.963274 L67.5986509,148.963274 L70.9800158,139.348435 L72.8060431,139.348435 L76.187408,148.963274 L74.3895776,148.963274 L73.5775086,146.498597 Z" id="Fill-71" fill="#00B1B0"></path>
                <path d="M80.805148,144.129661 C81.8191063,144.129661 82.4157514,143.479339 82.4157514,142.476758 C82.4157514,141.488855 81.8191063,140.85321 80.832217,140.85321 L79.1686034,140.85321 L79.1686034,144.129661 L80.805148,144.129661 Z M77.423783,139.349339 L81.1299756,139.349339 C82.9300618,139.349339 84.1876408,140.60821 84.1876408,142.476758 C84.1876408,144.345306 82.9300618,145.645952 81.1299756,145.645952 L79.1686034,145.645952 L79.1686034,148.963048 L77.423783,148.963048 L77.423783,139.349339 Z" id="Fill-72" fill="#00B1B0"></path>
                <polygon id="Fill-73" fill="#00B1B0" points="85.7340682 139.348887 87.4788886 139.348887 87.4788886 143.424694 91.8753398 143.424694 91.8753398 139.348887 93.6201602 139.348887 93.6201602 148.963726 91.8753398 148.963726 91.8753398 144.927435 87.4788886 144.927435 87.4788886 148.963726 85.7340682 148.963726"></polygon>
                <path d="M98.0625158,144.94121 L94.8706336,139.349113 L96.8455402,139.349113 L98.3467399,142.179597 C98.658033,142.774597 98.9151882,143.479113 98.9287227,143.465565 L98.9557917,143.465565 C98.9557917,143.465565 99.2253534,142.774597 99.5377744,142.179597 L101.02544,139.349113 L103.000346,139.349113 L99.8073362,144.94121 L99.8073362,148.963952 L98.0625158,148.963952 L98.0625158,144.94121 Z" id="Fill-74" fill="#00B1B0"></path>
            </g>
        </g>
    </g>
</svg>