<?xml version="1.0" encoding="UTF-8"?>
<svg width="99px" height="133px" viewBox="0 0 99 133" version="1.1" xmlns="http://www.w3.org/2000/svg" xmlns:xlink="http://www.w3.org/1999/xlink">
    <!-- Generator: Sketch 42 (36781) - http://www.bohemiancoding.com/sketch -->
    <title>FINAN_ICON</title>
    <desc>Created with Sketch.</desc>
    <defs></defs>
    <g id="Page-1" stroke="none" stroke-width="1" fill="none" fill-rule="evenodd" opacity="0.6">
        <g id="CATEGORIES-Copy" transform="translate(-570.000000, 0.000000)">
            <g id="FINAN_ICON" transform="translate(570.704023, 0.108710)">
                <polygon id="Fill-45" fill="#00B1B0" points="0.0530100575 28.2464677 48.8910632 0.0206612903 97.7291164 28.2464677 97.7291164 84.6980806 48.8910632 112.923887 0.0530100575 84.6980806"></polygon>
                <path d="M56.2124289,35.4054355 C56.2124289,35.4054355 60.5818111,29.5683387 65.1914303,30.9254355 C62.2082047,34.862371 63.5650366,40.0197903 64.650051,40.8349516 C66.683607,42.4641452 71.1590093,48.4367258 72.2440237,51.6951129 C73.8704174,52.1026935 75.2272493,51.6951129 75.2272493,51.6951129 C75.2272493,51.6951129 76.041574,52.3736613 76.041574,53.5952742 L76.041574,59.2980161 C76.041574,59.2980161 76.3122636,61.1981774 75.0919045,61.1981774 L72.5147134,61.1981774 C72.5147134,61.1981774 71.5661717,61.604629 71.0225366,63.3704355 C70.4800295,65.1351129 68.5818182,69.3430161 64.3782335,72.7357581 C60.9878455,76.2662419 60.9878455,81.1526935 61.1231904,82.1033387 C57.8692751,82.3743065 52.1735136,82.1033387 52.1735136,82.1033387 L52.1735136,79.5235 C52.1735136,79.5235 51.4268614,78.5739839 49.7666315,78.5739839 C48.1064016,78.5739839 43.6309993,78.437371 43.6309993,78.437371 C43.6309993,78.437371 41.3256257,78.8460806 41.3256257,79.9299516 L41.3256257,82.2241452 L32.6466386,82.2241452 C32.6466386,82.2241452 31.9687866,77.352371 30.3412651,75.1801129 C28.7137435,73.0078548 19.2215596,61.604629 22.34013,51.1520484 C24.5101588,44.6364032 32.8586789,30.6544677 56.2124289,35.4054355" id="Fill-46" fill="#FEFEFE"></path>
                <path d="M46.8967572,45.9099516 L46.8967572,47.6994677 C47.6140848,47.814629 48.200579,48.0528548 48.6573678,48.4118871 C49.1130287,48.7709194 49.5472601,49.3218871 49.9611897,50.0647903 L48.182533,51.0594677 C47.647921,50.0862419 46.9475115,49.5985 46.0846882,49.5985 C45.5500761,49.5985 45.105694,49.7576935 44.7526695,50.0738226 C44.400773,50.3899516 44.2236968,50.7851129 44.2236968,51.2604355 C44.2236968,51.6928548 44.3669368,52.0518871 44.6522888,52.3375323 C44.9320014,52.6175323 45.498194,52.9494677 46.3497385,53.3333387 C47.0851121,53.6675323 47.6930359,53.9825323 48.1735101,54.2783387 C48.6539842,54.5730161 49.0149037,54.8575323 49.2585244,55.1318871 C49.9465273,55.8747903 50.2894009,56.772371 50.2894009,57.8257581 C50.2894009,58.8599516 49.9792356,59.7733387 49.3589052,60.5647903 C48.745342,61.3494677 47.92425,61.8789839 46.8967572,62.1522097 L46.8967572,64.0433387 L45.2996882,64.0433387 L45.2996882,62.2075323 C44.1086537,62.0122097 43.1995876,61.602371 42.5736178,60.974629 C41.9465201,60.3491452 41.4852198,59.3804355 41.1874612,58.0718871 L43.1928204,57.6518871 C43.4668937,58.5765645 43.8007443,59.2370484 44.1966279,59.6333387 C44.6105575,60.0104355 45.1598319,60.1989839 45.8478348,60.1989839 C46.5166638,60.1989839 47.0760891,59.9822097 47.5261106,59.5509194 C47.9693649,59.1252742 48.191556,58.5731774 48.191556,57.8991452 C48.191556,57.2951129 48.0054569,56.8118871 47.6355144,56.4472097 C47.4471595,56.2699516 47.1685747,56.0712419 46.8008879,55.8488226 C46.4320733,55.6264032 45.9628779,55.3847903 45.3921739,55.1228548 C44.2124181,54.5933387 43.4364411,54.1055968 43.0664986,53.6618871 C42.4754928,52.9980161 42.1811178,52.2043065 42.1811178,51.2785 C42.1811178,50.8404355 42.251046,50.4328548 42.3909023,50.054629 C42.5307586,49.6775323 42.732648,49.3354355 42.9965704,49.0283387 C43.2616207,48.7212419 43.588704,48.4547903 43.9778204,48.2289839 C44.3669368,48.0043065 44.8079353,47.8270484 45.2996882,47.6994677 L45.2996882,45.9099516 L46.8967572,45.9099516 Z" id="Fill-47" fill="#00B1B0"></path>
                <polygon id="Fill-48" fill="#00B1B0" points="17.3556056 123.090371 22.8742909 123.090371 22.8742909 124.594242 19.100426 124.594242 19.100426 127.31521 22.2787737 127.31521 22.2787737 128.817952 19.100426 128.817952 19.100426 132.70521 17.3556056 132.70521"></polygon>
                <polygon id="Fill-49" fill="#00B1B0" points="24.5154598 132.705323 26.2602802 132.705323 26.2602802 123.090484 24.5154598 123.090484"></polygon>
                <path d="M28.6971638,123.090371 L30.4419842,123.090371 L34.0805043,128.642952 C34.4459353,129.197306 34.8790388,130.132145 34.8790388,130.132145 L34.9061078,130.132145 C34.9061078,130.132145 34.8113664,129.210855 34.8113664,128.642952 L34.8113664,123.090371 L36.5426523,123.090371 L36.5426523,132.70521 L34.8113664,132.70521 L31.1728463,127.166177 C30.8074152,126.610694 30.3743118,125.676984 30.3743118,125.676984 L30.3472428,125.676984 C30.3472428,125.676984 30.4419842,126.597145 30.4419842,127.166177 L30.4419842,132.70521 L28.6971638,132.70521 L28.6971638,123.090371 Z" id="Fill-50" fill="#00B1B0"></path>
                <path d="M42.0675409,124.756371 C42.0675409,124.756371 41.8509892,125.704758 41.6615065,126.245565 L40.8099619,128.818629 L43.32512,128.818629 L42.4735754,126.245565 C42.2976272,125.704758 42.0946099,124.756371 42.0946099,124.756371 L42.0675409,124.756371 Z M43.7582234,130.240081 L40.390393,130.240081 L39.578324,132.704758 L37.7793657,132.704758 L41.1607306,123.089919 L42.9867579,123.089919 L46.3692507,132.704758 L44.5702924,132.704758 L43.7582234,130.240081 Z" id="Fill-51" fill="#00B1B0"></path>
                <path d="M47.6050618,123.090371 L49.3498822,123.090371 L52.9884023,128.642952 C53.3538333,129.197306 53.7869368,130.132145 53.7869368,130.132145 L53.8140057,130.132145 C53.8140057,130.132145 53.7192644,129.210855 53.7192644,128.642952 L53.7192644,123.090371 L55.4505503,123.090371 L55.4505503,132.70521 L53.7192644,132.70521 L50.0807443,127.166177 C49.7153132,126.610694 49.2822098,125.676984 49.2822098,125.676984 L49.2551408,125.676984 C49.2551408,125.676984 49.3498822,126.597145 49.3498822,127.166177 L49.3498822,132.70521 L47.6050618,132.70521 L47.6050618,123.090371 Z" id="Fill-52" fill="#00B1B0"></path>
                <path d="M62.1654583,122.928355 C64.505796,122.928355 65.7103649,124.241419 65.7103649,124.241419 L64.871227,125.540935 C64.871227,125.540935 63.7760618,124.525935 62.2466652,124.525935 C60.2176207,124.525935 59.0277141,126.043355 59.0277141,127.830613 C59.0277141,129.658516 60.2582241,131.269645 62.2601997,131.269645 C63.9249411,131.269645 65.0471753,130.051419 65.0471753,130.051419 L65.9663922,131.31029 C65.9663922,131.31029 64.6411408,132.867226 62.1925273,132.867226 C59.2566724,132.867226 57.2287557,130.687065 57.2287557,127.856581 C57.2287557,125.067871 59.3390072,122.928355 62.1654583,122.928355" id="Fill-53" fill="#00B1B0"></path>
                <polygon id="Fill-54" fill="#00B1B0" points="67.5824095 123.090371 73.331181 123.090371 73.331181 124.594242 69.3272299 124.594242 69.3272299 127.113113 72.5597155 127.113113 72.5597155 128.615855 69.3272299 128.615855 69.3272299 131.202468 73.5477328 131.202468 73.5477328 132.70521 67.5824095 132.70521"></polygon>
                <path d="M75.5810632,130.240645 C75.5810632,130.240645 76.6220905,131.255645 77.9744109,131.255645 C78.7064009,131.255645 79.3673348,130.87629 79.3673348,130.091613 C79.3673348,128.372097 74.8366667,128.669032 74.8366667,125.717742 C74.8366667,124.120161 76.216056,122.927903 78.0556178,122.927903 C79.9493175,122.927903 80.9238003,123.957581 80.9238003,123.957581 L80.1658693,125.379032 C80.1658693,125.379032 79.2466523,124.539032 78.0432112,124.539032 C77.2311422,124.539032 76.5950216,125.013226 76.5950216,125.690645 C76.5950216,127.396613 81.113283,126.976613 81.113283,130.050968 C81.113283,131.580806 79.9493175,132.866774 77.9484698,132.866774 C75.8100216,132.866774 74.6336494,131.55371 74.6336494,131.55371 L75.5810632,130.240645 Z" id="Fill-55" fill="#00B1B0"></path>
            </g>
        </g>
    </g>
</svg>