<svg width="99" height="133" viewBox="0 0 99 133" xmlns="http://www.w3.org/2000/svg"><title>FINAN_ICON</title><g fill="none" fill-rule="evenodd" opacity=".6"><path fill="#00B1B0" d="M.757 28.355L49.595.13l48.838 28.226v56.452l-48.838 28.226L.757 84.807z"/><path d="M56.916 35.514s4.37-5.837 8.98-4.48c-2.984 3.937-1.627 9.095-.542 9.91 2.034 1.629 6.509 7.601 7.594 10.86 1.626.407 2.983 0 2.983 0s.815.678.815 1.9v5.703s.27 1.9-.95 1.9h-2.577s-.949.406-1.492 2.172c-.543 1.765-2.441 5.973-6.645 9.365-3.39 3.531-3.39 8.417-3.255 9.368-3.254.271-8.95 0-8.95 0v-2.58s-.746-.95-2.406-.95c-1.66 0-6.136-.136-6.136-.136s-2.305.409-2.305 1.493v2.294h-8.68s-.677-4.872-2.305-7.044c-1.627-2.172-11.12-13.576-8-24.028 2.17-6.516 10.518-20.498 33.871-15.747" fill="#FEFEFE"/><path d="M47.6 46.019v1.79c.718.114 1.305.353 1.761.712.456.359.89.91 1.304 1.653l-1.778.994c-.535-.973-1.235-1.46-2.098-1.46-.535 0-.98.158-1.332.475a1.53 1.53 0 0 0-.53 1.186c0 .433.144.792.43 1.077.279.28.845.612 1.697.996.735.334 1.343.65 1.824.945.48.295.84.58 1.085.854.688.743 1.03 1.64 1.03 2.693 0 1.035-.31 1.948-.93 2.74-.614.784-1.435 1.314-2.462 1.587v1.891h-1.597v-1.836c-1.191-.195-2.1-.605-2.726-1.233-.627-.625-1.089-1.594-1.387-2.902l2.006-.42c.274.924.608 1.585 1.004 1.981.414.377.963.566 1.65.566.67 0 1.23-.217 1.68-.648.442-.426.665-.978.665-1.652 0-.604-.187-1.087-.556-1.452-.189-.177-.467-.376-.835-.598a14.479 14.479 0 0 0-1.409-.726c-1.18-.53-1.956-1.018-2.325-1.461-.591-.664-.886-1.458-.886-2.384a3.35 3.35 0 0 1 .815-2.25 3.8 3.8 0 0 1 .982-.8c.389-.224.83-.401 1.322-.529v-1.79H47.6zM18.06 123.2h5.518v1.503h-3.774v2.72h3.179v1.504h-3.179v3.887H18.06zM25.22 132.814h1.744v-9.615H25.22zM29.401 123.2h1.745l3.639 5.552c.365.554.798 1.489.798 1.489h.027s-.095-.921-.095-1.49V123.2h1.732v9.615h-1.732l-3.638-5.54c-.366-.555-.799-1.488-.799-1.488h-.027s.095.92.095 1.489v5.539h-1.745v-9.615zM42.772 124.865s-.217.948-.406 1.49l-.852 2.572h2.515l-.851-2.573c-.176-.54-.38-1.489-.38-1.489h-.026zm1.69 5.484h-3.368l-.812 2.464h-1.799l3.382-9.614h1.826l3.382 9.614h-1.799l-.812-2.464zM48.31 123.2h1.744l3.638 5.552c.366.554.799 1.489.799 1.489h.027s-.095-.921-.095-1.49V123.2h1.732v9.615h-1.732l-3.638-5.54c-.366-.555-.799-1.488-.799-1.488h-.027s.095.92.095 1.489v5.539h-1.745v-9.615zM62.87 123.037c2.34 0 3.544 1.313 3.544 1.313l-.839 1.3s-1.095-1.015-2.624-1.015c-2.03 0-3.22 1.517-3.22 3.304 0 1.828 1.231 3.44 3.233 3.44 1.665 0 2.787-1.219 2.787-1.219l.92 1.259s-1.326 1.557-3.774 1.557c-2.936 0-4.964-2.18-4.964-5.01 0-2.79 2.11-4.929 4.936-4.929M68.286 123.2h5.75v1.503H70.03v2.519h3.233v1.503H70.03v2.586h4.22v1.503h-5.965zM76.285 130.35s1.041 1.014 2.393 1.014c.732 0 1.393-.379 1.393-1.164 0-1.72-4.53-1.422-4.53-4.374 0-1.597 1.38-2.79 3.219-2.79 1.893 0 2.868 1.03 2.868 1.03l-.758 1.422s-.92-.84-2.123-.84c-.812 0-1.448.474-1.448 1.151 0 1.706 4.518 1.286 4.518 4.36 0 1.53-1.164 2.816-3.165 2.816-2.138 0-3.314-1.313-3.314-1.313l.947-1.313z" fill="#00B1B0"/></g></svg>