<svg width="99" height="138" viewBox="0 0 99 138" xmlns="http://www.w3.org/2000/svg"><title>FOOD_ICON</title><g fill="none" fill-rule="evenodd" opacity=".6"><path fill="#00B1B0" d="M.8 28.595L49.64.369l48.84 28.226v56.452l-48.84 28.225L.8 85.047z"/><path d="M32.734 80.056h33.871v-5.681h-33.87v5.68zm44.08-34.839c0 5.38-4.355 9.74-9.728 9.74-.162 0-.322-.005-.48-.013v18.259H32.733V54.43c-.18.01-.36.016-.541.016-5.373 0-9.73-4.36-9.73-9.74 0-5.378 4.357-9.738 9.73-9.738a9.714 9.714 0 0 1 7.877 4.024c.19-5.21 4.467-9.375 9.72-9.375 5.288 0 9.59 4.226 9.722 9.49a9.706 9.706 0 0 1 7.574-3.629c5.373 0 9.729 4.36 9.729 9.74z" fill="#FEFEFE"/><path fill="#00B1B0" d="M31.303 128.203h5.518v1.504h-3.774v2.721h3.179v1.503h-3.179v3.887h-1.744zM42.764 136.382c1.758 0 3.164-1.462 3.164-3.439 0-1.897-1.406-3.305-3.164-3.305-1.76 0-3.166 1.408-3.166 3.305 0 1.977 1.406 3.44 3.166 3.44m0-8.342c2.826 0 4.963 2.154 4.963 4.902 0 2.83-2.137 5.037-4.963 5.037-2.828 0-4.965-2.206-4.965-5.037 0-2.748 2.137-4.902 4.965-4.902M53.808 136.382c1.758 0 3.165-1.462 3.165-3.439 0-1.897-1.407-3.305-3.165-3.305-1.76 0-3.166 1.408-3.166 3.305 0 1.977 1.406 3.44 3.166 3.44m0-8.342c2.826 0 4.964 2.154 4.964 4.902 0 2.83-2.138 5.037-4.964 5.037-2.828 0-4.965-2.206-4.965-5.037 0-2.748 2.137-4.902 4.965-4.902M63.729 136.315c1.948 0 3.193-1.152 3.193-3.317 0-2.14-1.272-3.291-3.193-3.291h-1.434v6.608h1.434zm-3.178-8.112h3.273c2.962 0 4.896 1.761 4.896 4.795 0 3.032-1.934 4.82-4.896 4.82H60.55v-9.615z"/></g></svg>