<?xml version="1.0" encoding="UTF-8"?>
<svg width="99px" height="138px" viewBox="0 0 99 138" version="1.1" xmlns="http://www.w3.org/2000/svg" xmlns:xlink="http://www.w3.org/1999/xlink">
    <!-- Generator: Sketch 42 (36781) - http://www.bohemiancoding.com/sketch -->
    <title>FOOD_ICON</title>
    <desc>Created with Sketch.</desc>
    <defs></defs>
    <g id="Page-1" stroke="none" stroke-width="1" fill="none" fill-rule="evenodd" opacity="0.6">
        <g id="CATEGORIES-Copy" transform="translate(-5.000000, -176.000000)">
            <g id="FOOD_ICON" transform="translate(5.639368, 176.237742)">
                <polygon id="Fill-75" fill="#00B1B0" points="0.161398707 28.3572258 48.9994519 0.131419355 97.8397608 28.3572258 97.8397608 84.8088387 48.9994519 113.034645 0.161398707 84.8088387"></polygon>
                <path d="M32.0947701,79.8180645 L65.9659411,79.8180645 L65.9659411,74.1367742 L32.0947701,74.1367742 L32.0947701,79.8180645 Z M76.1754526,44.9795161 C76.1754526,50.3593548 71.8196049,54.7196774 66.4464152,54.7196774 C66.2851293,54.7196774 66.1249713,54.7140323 65.9659411,54.706129 L65.9659411,72.9648387 L32.0947701,72.9648387 L32.0947701,54.1924194 C31.9143103,54.2025806 31.7349784,54.2082258 31.5533908,54.2082258 C26.1802011,54.2082258 21.8243534,49.8479032 21.8243534,44.4691935 C21.8243534,39.0904839 26.1802011,34.7301613 31.5533908,34.7301613 C34.7937716,34.7301613 37.6608261,36.3164516 39.4304598,38.7540323 C39.6210704,33.5446774 43.897967,29.3796774 49.1504741,29.3796774 C54.4390733,29.3796774 58.740783,33.6056452 58.8727443,38.8691935 C60.6559124,36.6574194 63.3853664,35.2404839 66.4464152,35.2404839 C71.8196049,35.2404839 76.1754526,39.6008065 76.1754526,44.9795161 L76.1754526,44.9795161 Z" id="Fill-76" fill="#FEFEFE"></path>
                <polygon id="Fill-77" fill="#00B1B0" points="30.663273 127.965419 36.1819583 127.965419 36.1819583 129.46929 32.4080934 129.46929 32.4080934 132.190258 35.5864411 132.190258 35.5864411 133.693 32.4080934 133.693 32.4080934 137.580258 30.663273 137.580258"></polygon>
                <path d="M42.124273,136.144355 C43.8826279,136.144355 45.2890862,134.682258 45.2890862,132.705323 C45.2890862,130.808548 43.8826279,129.400645 42.124273,129.400645 C40.3647902,129.400645 38.9583319,130.808548 38.9583319,132.705323 C38.9583319,134.682258 40.3647902,136.144355 42.124273,136.144355 M42.124273,127.803065 C44.9507241,127.803065 47.0880445,129.957258 47.0880445,132.705323 C47.0880445,135.535806 44.9507241,137.741935 42.124273,137.741935 C39.296694,137.741935 37.1593736,135.535806 37.1593736,132.705323 C37.1593736,129.957258 39.296694,127.803065 42.124273,127.803065" id="Fill-78" fill="#00B1B0"></path>
                <path d="M53.1684109,136.144355 C54.9267658,136.144355 56.3332241,134.682258 56.3332241,132.705323 C56.3332241,130.808548 54.9267658,129.400645 53.1684109,129.400645 C51.4089282,129.400645 50.0024698,130.808548 50.0024698,132.705323 C50.0024698,134.682258 51.4089282,136.144355 53.1684109,136.144355 M53.1684109,127.803065 C55.9948621,127.803065 58.1321825,129.957258 58.1321825,132.705323 C58.1321825,135.535806 55.9948621,137.741935 53.1684109,137.741935 C50.3408319,137.741935 48.2035115,135.535806 48.2035115,132.705323 C48.2035115,129.957258 50.3408319,127.803065 53.1684109,127.803065" id="Fill-79" fill="#00B1B0"></path>
                <path d="M63.0896379,136.077065 C65.0374756,136.077065 66.282648,134.925452 66.282648,132.759968 C66.282648,130.619323 65.0104066,129.468839 63.0896379,129.468839 L61.6561106,129.468839 L61.6561106,136.077065 L63.0896379,136.077065 Z M59.9112902,127.964968 L63.1843793,127.964968 C66.1461753,127.964968 68.0804784,129.726258 68.0804784,132.759968 C68.0804784,135.792548 66.1461753,137.579806 63.1843793,137.579806 L59.9112902,137.579806 L59.9112902,127.964968 Z" id="Fill-80" fill="#00B1B0"></path>
            </g>
        </g>
    </g>
</svg>