<svg width="99" height="138" viewBox="0 0 99 138" xmlns="http://www.w3.org/2000/svg"><title>GAMES_ICON</title><g fill="none" fill-rule="evenodd" opacity=".6"><path fill="#00B1B0" d="M.792 28.595L49.63.369l48.84 28.226v56.452l-48.84 28.225L.792 85.047z"/><path fill="#FEFEFE" d="M43.708 53.246H33.651V43.179h-7.143v10.067H16.452v7.15h10.056v10.067h7.143V60.396h10.057zM73.505 47.507a4.325 4.325 0 0 1-4.324 4.327 4.326 4.326 0 0 1-4.324-4.327 4.326 4.326 0 0 1 4.324-4.328 4.325 4.325 0 0 1 4.324 4.328M73.505 66.135a4.326 4.326 0 0 1-4.324 4.328 4.327 4.327 0 0 1-4.324-4.328 4.326 4.326 0 0 1 4.324-4.328 4.325 4.325 0 0 1 4.324 4.328M64.2 56.82a4.325 4.325 0 0 1-4.324 4.328 4.326 4.326 0 0 1-4.324-4.327 4.326 4.326 0 0 1 4.324-4.328 4.325 4.325 0 0 1 4.324 4.328M82.808 56.82a4.325 4.325 0 0 1-4.323 4.328 4.326 4.326 0 0 1-4.324-4.327 4.326 4.326 0 0 1 4.324-4.328 4.325 4.325 0 0 1 4.323 4.328"/><path d="M32.114 128.041c2.354 0 3.572 1.218 3.572 1.218l-.866 1.3s-1.03-.92-2.557-.92c-2.151 0-3.3 1.489-3.3 3.304 0 2.085 1.42 3.44 3.218 3.44 1.449 0 2.408-1.003 2.408-1.003v-1.124h-1.474v-1.502h3.043v5.063h-1.487v-.46c0-.203.013-.406.013-.406h-.027s-1 1.029-2.787 1.029c-2.529 0-4.706-1.963-4.706-4.982 0-2.79 2.096-4.957 4.95-4.957M41.183 129.87s-.217.948-.406 1.488l-.852 2.573h2.516l-.852-2.573c-.176-.54-.379-1.489-.379-1.489h-.027zm1.69 5.483h-3.367l-.812 2.465h-1.8l3.382-9.615h1.826l3.383 9.615h-1.8l-.811-2.465zM47.207 128.203h1.867l1.88 4.753c.217.57.487 1.408.487 1.408h.027s.258-.839.474-1.408l1.88-4.753h1.867l.771 9.615h-1.732l-.405-5.376c-.042-.637-.015-1.49-.015-1.49h-.027s-.283.935-.513 1.49l-1.556 3.724h-1.529l-1.541-3.724c-.23-.555-.528-1.503-.528-1.503h-.027s.027.866-.014 1.503l-.405 5.376h-1.746l.785-9.615zM58.604 128.203h5.749v1.504h-4.004v2.519h3.233v1.503H60.35v2.586h4.22v1.503h-5.965zM66.603 135.353s1.04 1.015 2.394 1.015c.73 0 1.393-.379 1.393-1.164 0-1.72-4.532-1.422-4.532-4.374 0-1.597 1.38-2.79 3.22-2.79 1.894 0 2.867 1.03 2.867 1.03l-.758 1.422s-.919-.84-2.122-.84c-.812 0-1.448.474-1.448 1.151 0 1.706 4.518 1.286 4.518 4.36 0 1.53-1.163 2.816-3.165 2.816-2.137 0-3.315-1.313-3.315-1.313l.948-1.313z" fill="#00B1B0"/></g></svg>