<?xml version="1.0" encoding="UTF-8"?>
<svg width="99px" height="138px" viewBox="0 0 99 138" version="1.1" xmlns="http://www.w3.org/2000/svg" xmlns:xlink="http://www.w3.org/1999/xlink">
    <!-- Generator: Sketch 42 (36781) - http://www.bohemiancoding.com/sketch -->
    <title>GAMES_ICON</title>
    <desc>Created with Sketch.</desc>
    <defs></defs>
    <g id="Page-1" stroke="none" stroke-width="1" fill="none" fill-rule="evenodd" opacity="0.6">
        <g id="CATEGORIES-Copy" transform="translate(-118.000000, -176.000000)">
            <g id="GAMES_ICON" transform="translate(118.426724, 176.237742)">
                <polygon id="Fill-81" fill="#00B1B0" points="0.36520546 28.3572258 49.2032586 0.131419355 98.0424397 28.3572258 98.0424397 84.8088387 49.2032586 113.034645 0.36520546 84.8088387"></polygon>
                <polygon id="Fill-82" fill="#FEFEFE" points="43.2816968 53.0079516 33.2244483 53.0079516 33.2244483 42.9415 26.081625 42.9415 26.081625 53.0079516 16.0255043 53.0079516 16.0255043 60.1581129 26.081625 60.1581129 26.081625 70.2256935 33.2244483 70.2256935 33.2244483 60.1581129 43.2816968 60.1581129"></polygon>
                <path d="M73.0778606,47.2690806 C73.0778606,49.6592419 71.1424296,51.5966613 68.7547213,51.5966613 C66.3670129,51.5966613 64.430454,49.6592419 64.430454,47.2690806 C64.430454,44.8789194 66.3670129,42.9415 68.7547213,42.9415 C71.1424296,42.9415 73.0778606,44.8789194 73.0778606,47.2690806" id="Fill-83" fill="#FEFEFE"></path>
                <path d="M73.0778606,65.8969839 C73.0778606,68.2871452 71.1424296,70.2256935 68.7547213,70.2256935 C66.3670129,70.2256935 64.430454,68.2871452 64.430454,65.8969839 C64.430454,63.5068226 66.3670129,61.5694032 68.7547213,61.5694032 C71.1424296,61.5694032 73.0778606,63.5068226 73.0778606,65.8969839" id="Fill-84" fill="#FEFEFE"></path>
                <path d="M63.7729037,56.5830323 C63.7729037,58.9731935 61.8374727,60.9106129 59.4497644,60.9106129 C57.062056,60.9106129 55.1254971,58.9731935 55.1254971,56.5830323 C55.1254971,54.192871 57.062056,52.2554516 59.4497644,52.2554516 C61.8374727,52.2554516 63.7729037,54.192871 63.7729037,56.5830323" id="Fill-85" fill="#FEFEFE"></path>
                <path d="M82.3816897,56.5830323 C82.3816897,58.9731935 80.4462586,60.9106129 78.0585503,60.9106129 C75.670842,60.9106129 73.734283,58.9731935 73.734283,56.5830323 C73.734283,54.192871 75.670842,52.2554516 78.0585503,52.2554516 C80.4462586,52.2554516 82.3816897,54.192871 82.3816897,56.5830323" id="Fill-86" fill="#FEFEFE"></path>
                <path d="M31.6870438,127.803403 C34.0409159,127.803403 35.2590194,129.021629 35.2590194,129.021629 L34.3928125,130.321145 C34.3928125,130.321145 33.3641918,129.400984 31.8359231,129.400984 C29.6850682,129.400984 28.5357651,130.890177 28.5357651,132.705661 C28.5357651,134.789855 29.9557579,136.144694 31.7547162,136.144694 C33.2029059,136.144694 34.1627263,135.142113 34.1627263,135.142113 L34.1627263,134.018726 L32.6885955,134.018726 L32.6885955,132.515984 L35.7315984,132.515984 L35.7315984,137.579694 L34.2439332,137.579694 L34.2439332,137.119048 C34.2439332,136.915823 34.2574677,136.713726 34.2574677,136.713726 L34.2303987,136.713726 C34.2303987,136.713726 33.2299749,137.742274 31.4434231,137.742274 C28.9147306,137.742274 26.7368068,135.778887 26.7368068,132.759855 C26.7368068,129.970016 28.8335237,127.803403 31.6870438,127.803403" id="Fill-87" fill="#00B1B0"></path>
                <path d="M40.7562751,129.631419 C40.7562751,129.631419 40.5397234,130.579806 40.3502407,131.120613 L39.4986961,133.693677 L42.0138542,133.693677 L41.1623096,131.120613 C40.9863614,130.579806 40.7833441,129.631419 40.7833441,129.631419 L40.7562751,129.631419 Z M42.4469576,135.115129 L39.0791272,135.115129 L38.2670582,137.579806 L36.4680999,137.579806 L39.8494648,127.964968 L41.6754921,127.964968 L45.0579849,137.579806 L43.2590266,137.579806 L42.4469576,135.115129 Z" id="Fill-88" fill="#00B1B0"></path>
                <path d="M46.7805862,127.965419 L48.647217,127.965419 L50.5273822,132.718645 C50.7439339,133.287677 51.0146236,134.126548 51.0146236,134.126548 L51.0416925,134.126548 C51.0416925,134.126548 51.2988477,133.287677 51.5153994,132.718645 L53.3955647,127.965419 L55.2621954,127.965419 L56.0336609,137.580258 L54.3012471,137.580258 L53.8963405,132.203806 C53.8546092,131.567032 53.8816782,130.714613 53.8816782,130.714613 L53.8546092,130.714613 C53.8546092,130.714613 53.5715129,131.649452 53.3414267,132.203806 L51.7849612,135.928484 L50.2566925,135.928484 L48.7148894,132.203806 C48.4848032,131.649452 48.1870445,130.701065 48.1870445,130.701065 L48.1599756,130.701065 C48.1599756,130.701065 48.1870445,131.567032 48.1464411,132.203806 L47.7415345,137.580258 L45.9955862,137.580258 L46.7805862,127.965419 Z" id="Fill-89" fill="#00B1B0"></path>
                <polygon id="Fill-90" fill="#00B1B0" points="58.1771846 127.965419 63.9259562 127.965419 63.9259562 129.46929 59.922005 129.46929 59.922005 131.988161 63.1556185 131.988161 63.1556185 133.490903 59.922005 133.490903 59.922005 136.077516 64.1425079 136.077516 64.1425079 137.580258 58.1771846 137.580258"></polygon>
                <path d="M66.1758384,135.115581 C66.1758384,135.115581 67.2168657,136.130581 68.5703139,136.130581 C69.301176,136.130581 69.9632378,135.751226 69.9632378,134.966548 C69.9632378,133.247032 65.4314418,133.543968 65.4314418,130.592677 C65.4314418,128.995097 66.8108312,127.802839 68.6515208,127.802839 C70.5452205,127.802839 71.5185754,128.832516 71.5185754,128.832516 L70.7606444,130.253968 C70.7606444,130.253968 69.8414274,129.413968 68.6379864,129.413968 C67.8259174,129.413968 67.1897967,129.888161 67.1897967,130.565581 C67.1897967,132.271548 71.7080582,131.851548 71.7080582,134.925903 C71.7080582,136.455742 70.5452205,137.74171 68.543245,137.74171 C66.4059246,137.74171 65.2284246,136.428645 65.2284246,136.428645 L66.1758384,135.115581 Z" id="Fill-91" fill="#00B1B0"></path>
            </g>
        </g>
    </g>
</svg>