<svg width="99" height="138" viewBox="0 0 99 138" xmlns="http://www.w3.org/2000/svg"><title>HC_ICON</title><g fill="none" fill-rule="evenodd" opacity=".6"><path fill="#00B1B0" d="M.784 28.595L49.622.369 98.46 28.595v56.452l-48.838 28.225L.784 85.047z"/><path d="M76.478 39.551c2.207-2.21-7.718-11.883-10.314-9.285-3.202 3.205-3.46 3.465-3.46 3.465l9.793 9.805 3.98-3.985M27.223 69.262l-2.108 11.899 11.888-2.11zM69.489 46.548l2.186-2.189-9.794-9.806-2.188 2.19 9.796 9.805zM58.896 37.541l-30.859 30.89 9.795 9.805 30.86-30.89-9.796-9.805z" fill="#FEFEFE"/><path d="M69.489 46.548l2.186-2.189-9.794-9.806-2.188 2.19 9.796 9.805zM72.189 69.607l-3.591 3.595-.571-.571 3.591-3.595-1.431-1.433-2.203 2.206-.57-.57 2.202-2.207-1.431-1.433-2.203 2.205-.573-.571 2.205-2.206-1.431-1.432-3.591 3.594-.571-.571 3.59-3.595-1.43-1.433-2.205 2.206-.57-.571 2.203-2.206-1.431-1.433-2.203 2.206-.57-.572 2.202-2.205-.704-.706-9.794 9.805 15.894 15.91 9.795-9.805zM44.353 48.931L44 48.58l3.592-3.594-1.431-1.432-2.204 2.206-.571-.573 2.203-2.206-1.43-1.432-2.204 2.207-.572-.573 2.204-2.206-1.431-1.433-3.592 3.596-.57-.572 3.59-3.595-1.43-1.432-2.204 2.205-.571-.57 2.203-2.207-1.43-1.433-2.204 2.208-.571-.573 2.204-2.207-1.431-1.432-3.592 3.595-.57-.571 3.59-3.596-3.339-3.342-9.794 9.806L38.149 55.14z" fill="#FEFEFE"/><path fill="#00B1B0" d="M5.602 128.203h1.745v4.076h4.396v-4.076h1.745v9.615h-1.745v-4.036H7.347v4.036H5.602zM19.013 129.87s-.217.948-.406 1.488l-.852 2.573h2.515l-.851-2.573c-.176-.54-.38-1.489-.38-1.489h-.026zm1.69 5.483h-3.368l-.812 2.465h-1.799l3.382-9.615h1.826l3.382 9.615h-1.799l-.812-2.465zM24.55 128.203h1.745l3.638 5.553c.366.554.799 1.489.799 1.489h.027s-.095-.921-.095-1.49v-5.552h1.732v9.615h-1.732l-3.638-5.539c-.366-.556-.799-1.49-.799-1.49H26.2s.095.92.095 1.49v5.539H24.55v-9.615zM38.015 136.315c1.948 0 3.193-1.152 3.193-3.317 0-2.14-1.272-3.291-3.193-3.291h-1.433v6.608h1.433zm-3.178-8.112h3.273c2.962 0 4.896 1.761 4.896 4.795 0 3.032-1.934 4.82-4.896 4.82h-3.273v-9.615z"/><path fill="#050201" d="M44.676 134.703h4.072V133.2h-4.072z"/><path d="M55.298 128.041c2.34 0 3.545 1.313 3.545 1.313l-.84 1.3s-1.096-1.015-2.624-1.015c-2.029 0-3.219 1.517-3.219 3.304 0 1.828 1.23 3.44 3.233 3.44 1.663 0 2.787-1.219 2.787-1.219l.919 1.26s-1.325 1.556-3.774 1.556c-2.936 0-4.964-2.18-4.964-5.01 0-2.79 2.11-4.929 4.937-4.929M64.028 132.713c.934 0 1.515-.556 1.515-1.518 0-.92-.392-1.488-1.759-1.488H62.46v3.006h1.569zm-3.314-4.51h3.097c1.042 0 1.515.082 1.935.271.96.434 1.57 1.354 1.57 2.626 0 1.152-.61 2.222-1.623 2.628v.028s.134.134.323.473l1.975 3.588h-1.948l-1.907-3.588H62.46v3.588h-1.745v-9.614zM72.704 129.87s-.217.948-.406 1.488l-.852 2.573h2.515l-.851-2.573c-.176-.54-.38-1.489-.38-1.489h-.026zm1.69 5.483h-3.367l-.812 2.465h-1.8l3.382-9.615h1.826l3.383 9.615h-1.8l-.811-2.465zM78.241 128.203h5.52v1.504h-3.775v2.721h3.179v1.503h-3.179v3.887h-1.745zM87.39 129.707h-3.152v-1.504h8.049v1.504h-3.153v8.111H87.39z" fill="#00B1B0"/></g></svg>