<?xml version="1.0" encoding="UTF-8"?>
<svg width="99px" height="138px" viewBox="0 0 99 138" version="1.1" xmlns="http://www.w3.org/2000/svg" xmlns:xlink="http://www.w3.org/1999/xlink">
    <!-- Generator: Sketch 42 (36781) - http://www.bohemiancoding.com/sketch -->
    <title>HC_ICON</title>
    <desc>Created with Sketch.</desc>
    <defs></defs>
    <g id="Page-1" stroke="none" stroke-width="1" fill="none" fill-rule="evenodd" opacity="0.6">
        <g id="CATEGORIES-Copy" transform="translate(-231.000000, -176.000000)">
            <g id="HC_ICON" transform="translate(231.214080, 176.237742)">
                <polygon id="Fill-92" fill="#00B1B0" points="0.569576149 28.3572258 49.4076293 0.131419355 98.2456825 28.3572258 98.2456825 84.8088387 49.4076293 113.034645 0.569576149 84.8088387"></polygon>
                <path d="M76.2636523,39.3134677 C78.4709009,37.1039516 68.5456135,27.4304032 65.9503764,30.0283065 C62.7483434,33.233629 62.4900603,33.4933065 62.4900603,33.4933065 L72.2833865,43.2978226 C73.9063966,41.6731452 75.2688678,40.3092742 76.2636523,39.3134677" id="Fill-93" fill="#FEFEFE"></path>
                <polygon id="Fill-94" fill="#FEFEFE" points="27.0089626 69.0244032 24.900967 80.9232742 36.7887543 78.8131129"></polygon>
                <path d="M69.2744454,46.3104194 C70.0380158,45.5460645 70.7700057,44.8121935 71.4613922,44.1212258 L61.6669382,34.3155806 L59.4788635,36.5047742 L69.2744454,46.3104194 Z" id="Fill-95" fill="#FEFEFE"></path>
                <path d="M58.681908,37.3034516 L27.8232874,68.1937742 L37.6177414,77.9982903 C41.4198032,74.1934516 57.7615632,57.8349032 68.4774899,47.1090968 L58.681908,37.3034516 Z" id="Fill-96" fill="#FEFEFE"></path>
                <path d="M69.2744454,46.3104194 C70.0380158,45.5460645 70.7700057,44.8121935 71.4613922,44.1212258 L61.6669382,34.3155806 L59.4788635,36.5047742 L69.2744454,46.3104194 Z" id="Fill-97" fill="#FEFEFE"></path>
                <polygon id="Fill-98" fill="#FEFEFE" points="71.9745747 69.3695484 68.3834253 72.9643871 67.8127213 72.3930968 71.4038707 68.7982581 69.9725991 67.3655161 67.7698621 69.5716452 67.199158 69.0003548 69.4018951 66.7942258 67.9706236 65.3614839 65.7678865 67.5664839 65.1949267 66.9951935 67.3999195 64.7890645 65.968648 63.3574516 62.3774986 66.9511613 61.8067945 66.379871 65.3968161 62.7850323 63.9666724 61.3522903 61.7616796 63.5584194 61.1921034 62.987129 63.3948405 60.781 61.963569 59.3482581 59.7608319 61.5543871 59.1901279 60.9819677 61.3928649 58.7769677 60.6890718 58.0713226 50.8946178 67.8758387 66.7886121 83.7861613 76.584194 73.9816452"></polygon>
                <polygon id="Fill-99" fill="#FEFEFE" points="44.1384296 48.6934677 43.786533 48.3412097 47.3788103 44.7475 45.9475388 43.3147581 43.7436739 45.5208871 43.1729698 44.9484677 45.3757069 42.7423387 43.9455632 41.3107258 41.7416983 43.5168548 41.1698664 42.9444355 43.3737313 40.7383065 41.9424598 39.3055645 38.3513103 42.9015323 37.7806063 42.3291129 41.3717557 38.7342742 39.9404842 37.3026613 37.7366193 39.5076613 37.1659152 38.936371 39.3686523 36.7302419 37.9385086 35.2975 35.7346437 37.5047581 35.1639397 36.9323387 37.3678046 34.7250806 35.936533 33.2934677 32.3453836 36.8883065 31.7746796 36.3170161 35.3647011 32.7210484 32.0261954 29.3791129 22.2317414 39.1847581 37.935125 54.9031452"></polygon>
                <polygon id="Fill-100" fill="#00B1B0" points="5.3879648 127.965419 7.1327852 127.965419 7.1327852 132.041226 11.5292364 132.041226 11.5292364 127.965419 13.2740568 127.965419 13.2740568 137.580258 11.5292364 137.580258 11.5292364 133.543968 7.1327852 133.543968 7.1327852 137.580258 5.3879648 137.580258"></polygon>
                <path d="M18.7984943,129.631419 C18.7984943,129.631419 18.5819425,130.579806 18.3924598,131.120613 L17.5409152,133.693677 L20.0560733,133.693677 L19.2045287,131.120613 C19.0285805,130.579806 18.8255632,129.631419 18.8255632,129.631419 L18.7984943,129.631419 Z M20.4891767,135.115129 L17.1213463,135.115129 L16.3092773,137.579806 L14.510319,137.579806 L17.8916839,127.964968 L19.7177112,127.964968 L23.100204,137.579806 L21.3012457,137.579806 L20.4891767,135.115129 Z" id="Fill-101" fill="#00B1B0"></path>
                <path d="M24.3360151,127.965419 L26.0808355,127.965419 L29.7193556,133.518 C30.0847866,134.072355 30.5178901,135.007194 30.5178901,135.007194 L30.5449591,135.007194 C30.5449591,135.007194 30.4502177,134.085903 30.4502177,133.518 L30.4502177,127.965419 L32.1815036,127.965419 L32.1815036,137.580258 L30.4502177,137.580258 L26.8116976,132.041226 C26.4462665,131.485742 26.0131631,130.552032 26.0131631,130.552032 L25.9860941,130.552032 C25.9860941,130.552032 26.0808355,131.472194 26.0808355,132.041226 L26.0808355,137.580258 L24.3360151,137.580258 L24.3360151,127.965419 Z" id="Fill-102" fill="#00B1B0"></path>
                <path d="M37.8011336,136.077065 C39.7489713,136.077065 40.9941437,134.925452 40.9941437,132.759968 C40.9941437,130.619323 39.7219023,129.468839 37.8011336,129.468839 L36.3676063,129.468839 L36.3676063,136.077065 L37.8011336,136.077065 Z M34.6227859,127.964968 L37.895875,127.964968 C40.857671,127.964968 42.7919741,129.726258 42.7919741,132.759968 C42.7919741,135.792548 40.857671,137.579806 37.895875,137.579806 L34.6227859,137.579806 L34.6227859,127.964968 Z" id="Fill-103" fill="#00B1B0"></path>
                <polygon id="Fill-104" fill="#050201" points="44.4619037 134.465484 48.5335273 134.465484 48.5335273 132.962742 44.4619037 132.962742"></polygon>
                <path d="M55.0837658,127.803403 C57.4241034,127.803403 58.6286724,129.116468 58.6286724,129.116468 L57.7895345,130.415984 C57.7895345,130.415984 56.6932414,129.400984 55.1649727,129.400984 C53.1359282,129.400984 51.9460216,130.918403 51.9460216,132.705661 C51.9460216,134.533565 53.1765316,136.144694 55.1785072,136.144694 C56.8421207,136.144694 57.9654828,134.926468 57.9654828,134.926468 L58.8846997,136.185339 C58.8846997,136.185339 57.5594483,137.742274 55.1108348,137.742274 C52.1749799,137.742274 50.1470632,135.562113 50.1470632,132.731629 C50.1470632,129.942919 52.2573147,127.803403 55.0837658,127.803403" id="Fill-105" fill="#00B1B0"></path>
                <path d="M63.8137328,132.475 C64.7476121,132.475 65.328467,131.919516 65.328467,130.957581 C65.328467,130.037419 64.9370948,129.469516 63.5701121,129.469516 L62.2448606,129.469516 L62.2448606,132.475 L63.8137328,132.475 Z M60.5000402,127.965645 L63.597181,127.965645 C64.6393362,127.965645 65.1119152,128.046935 65.5314842,128.236613 C66.4924325,128.670161 67.1014842,129.590323 67.1014842,130.862742 C67.1014842,132.014355 66.4924325,133.084677 65.4784741,133.49 L65.4784741,133.518226 C65.4784741,133.518226 65.6126911,133.652581 65.8021739,133.99129 L67.7770805,137.579355 L65.8292428,137.579355 L63.9220086,133.99129 L62.2448606,133.99129 L62.2448606,137.579355 L60.5000402,137.579355 L60.5000402,127.965645 Z" id="Fill-106" fill="#00B1B0"></path>
                <path d="M72.4897874,129.631419 C72.4897874,129.631419 72.2732356,130.579806 72.0837529,131.120613 L71.2322083,133.693677 L73.7473664,133.693677 L72.8958218,131.120613 C72.7198736,130.579806 72.5168563,129.631419 72.5168563,129.631419 L72.4897874,129.631419 Z M74.1804698,135.115129 L70.8126394,135.115129 L70.0005704,137.579806 L68.2016121,137.579806 L71.582977,127.964968 L73.4090043,127.964968 L76.7914971,137.579806 L74.9925388,137.579806 L74.1804698,135.115129 Z" id="Fill-107" fill="#00B1B0"></path>
                <polygon id="Fill-108" fill="#00B1B0" points="78.0273082 127.965419 83.5459935 127.965419 83.5459935 129.46929 79.7721286 129.46929 79.7721286 132.190258 82.9504763 132.190258 82.9504763 133.693 79.7721286 133.693 79.7721286 137.580258 78.0273082 137.580258"></polygon>
                <polygon id="Fill-109" fill="#00B1B0" points="87.1752651 129.469403 84.0239864 129.469403 84.0239864 127.965532 92.0724921 127.965532 92.0724921 129.469403 88.9200855 129.469403 88.9200855 137.580371 87.1752651 137.580371"></polygon>
            </g>
        </g>
    </g>
</svg>