<?xml version="1.0" encoding="UTF-8"?>
<svg width="99px" height="138px" viewBox="0 0 99 138" version="1.1" xmlns="http://www.w3.org/2000/svg" xmlns:xlink="http://www.w3.org/1999/xlink">
    <!-- Generator: Sketch 42 (36781) - http://www.bohemiancoding.com/sketch -->
    <title>HEALTH_ICON</title>
    <desc>Created with Sketch.</desc>
    <defs></defs>
    <g id="Page-1" stroke="none" stroke-width="1" fill="none" fill-rule="evenodd" opacity="0.6">
        <g id="CATEGORIES-Copy" transform="translate(-344.000000, -176.000000)">
            <g id="HEALTH_ICON" transform="translate(344.001437, 176.237742)">
                <polygon id="Fill-110" fill="#00B1B0" points="0.773270115 28.3572258 49.6113233 0.131419355 98.4505043 28.3572258 98.4505043 84.8088387 49.6113233 113.034645 0.773270115 84.8088387"></polygon>
                <path d="M58.8003348,70.7246129 L48.3099828,70.7246129 L48.3099828,59.7888065 L58.8003348,59.7888065 L58.8003348,49.2888065 L69.7215345,49.2888065 L69.7215345,59.7888065 L70.6351121,59.7888065 L72.7656652,57.5567097 C73.3126839,57.0554194 73.8303779,56.5236452 74.2995733,55.9489677 L74.328898,55.9184839 L74.3243865,55.9162258 C76.4583233,53.2833226 77.7407155,49.9312258 77.7407155,46.2765484 C77.7407155,37.8167097 70.8911394,30.9589677 62.4399828,30.9589677 C56.8073822,30.9589677 51.8988764,34.014129 49.2427342,38.5505806 C46.586592,34.014129 41.6780862,30.9589677 36.0454856,30.9589677 C27.594329,30.9589677 20.743625,37.8167097 20.743625,46.2765484 C20.743625,50.4765484 22.4354353,54.279129 25.1716566,57.0463871 L25.1694009,57.0475161 L49.2416063,82.206871 L58.8003348,72.1912258 L58.8003348,70.7246129 Z" id="Fill-111" fill="#FEFEFE"></path>
                <polygon id="Fill-112" fill="#FEFEFE" points="78.4792471 61.5269516 67.9866394 61.5269516 67.9866394 51.0258226 60.5347787 51.0258226 60.5347787 61.5269516 50.0444267 61.5269516 50.0444267 68.9864677 60.5347787 68.9864677 60.5347787 79.4898548 67.9866394 79.4898548 67.9866394 68.9864677 78.4792471 68.9864677"></polygon>
                <polygon id="Fill-113" fill="#00B1B0" points="22.8016559 127.965419 24.5464763 127.965419 24.5464763 132.041226 28.9429274 132.041226 28.9429274 127.965419 30.6877478 127.965419 30.6877478 137.580258 28.9429274 137.580258 28.9429274 133.543968 24.5464763 133.543968 24.5464763 137.580258 22.8016559 137.580258"></polygon>
                <polygon id="Fill-114" fill="#00B1B0" points="33.1282407 127.965419 38.8770122 127.965419 38.8770122 129.46929 34.8730611 129.46929 34.8730611 131.988161 38.1066746 131.988161 38.1066746 133.490903 34.8730611 133.490903 34.8730611 136.077516 39.0935639 136.077516 39.0935639 137.580258 33.1282407 137.580258"></polygon>
                <path d="M43.9945129,129.631419 C43.9945129,129.631419 43.7779612,130.579806 43.5884784,131.120613 L42.7369339,133.693677 L45.252092,133.693677 L44.4005474,131.120613 C44.2245991,130.579806 44.0215819,129.631419 44.0215819,129.631419 L43.9945129,129.631419 Z M45.6851954,135.115129 L42.3173649,135.115129 L41.505296,137.579806 L39.7063376,137.579806 L43.0877026,127.964968 L44.9137299,127.964968 L48.2962227,137.579806 L46.4972644,137.579806 L45.6851954,135.115129 Z" id="Fill-115" fill="#00B1B0"></path>
                <polygon id="Fill-116" fill="#00B1B0" points="49.531921 127.965419 51.2767414 127.965419 51.2767414 136.077516 55.4295718 136.077516 55.4295718 137.580258 49.531921 137.580258"></polygon>
                <polygon id="Fill-117" fill="#00B1B0" points="58.043306 129.469403 54.8920273 129.469403 54.8920273 127.965532 62.940533 127.965532 62.940533 129.469403 59.7881264 129.469403 59.7881264 137.580371 58.043306 137.580371"></polygon>
                <polygon id="Fill-118" fill="#00B1B0" points="64.2163836 127.965419 65.961204 127.965419 65.961204 132.041226 70.3576552 132.041226 70.3576552 127.965419 72.1024756 127.965419 72.1024756 137.580258 70.3576552 137.580258 70.3576552 133.543968 65.961204 133.543968 65.961204 137.580258 64.2163836 137.580258"></polygon>
            </g>
        </g>
    </g>
</svg>