<svg width="99" height="138" viewBox="0 0 99 138" xmlns="http://www.w3.org/2000/svg"><title>HEALTH_ICON</title><g fill="none" fill-rule="evenodd" opacity=".6"><path fill="#00B1B0" d="M.775 28.595L49.613.369l48.839 28.226v56.452l-48.84 28.225L.776 85.047z"/><path d="M58.802 70.962h-10.49V60.027h10.49v-10.5h10.921v10.5h.914l2.13-2.233a15.407 15.407 0 0 0 1.534-1.607l.03-.03-.005-.003a15.256 15.256 0 0 0 3.416-9.64c0-8.46-6.85-15.317-15.3-15.317-5.633 0-10.542 3.055-13.198 7.591-2.656-4.536-7.564-7.591-13.197-7.591-8.451 0-15.302 6.857-15.302 15.317 0 4.2 1.692 8.003 4.428 10.77l-.002.001 24.072 25.16 9.559-10.016v-1.467z" fill="#FEFEFE"/><path fill="#FEFEFE" d="M78.48 61.765H67.989V51.264h-7.452v10.5h-10.49v7.46h10.49v10.504h7.452V69.224h10.493z"/><path fill="#00B1B0" d="M22.803 128.203h1.745v4.076h4.396v-4.076h1.745v9.615h-1.745v-4.036h-4.396v4.036h-1.745zM33.13 128.203h5.748v1.504h-4.004v2.519h3.234v1.503h-3.234v2.586h4.221v1.503H33.13zM43.996 129.87s-.217.948-.406 1.488l-.852 2.573h2.516l-.852-2.573c-.176-.54-.379-1.489-.379-1.489h-.027zm1.69 5.483H42.32l-.812 2.465h-1.8l3.382-9.615h1.826l3.383 9.615h-1.8l-.811-2.465zM49.533 128.203h1.745v8.112h4.153v1.503h-5.898zM58.045 129.707h-3.152v-1.504h8.049v1.504H59.79v8.111h-1.745zM64.218 128.203h1.745v4.076h4.396v-4.076h1.745v9.615h-1.745v-4.036h-4.396v4.036h-1.745z"/></g></svg>