<?xml version="1.0" encoding="UTF-8"?>
<svg width="99px" height="138px" viewBox="0 0 99 138" version="1.1" xmlns="http://www.w3.org/2000/svg" xmlns:xlink="http://www.w3.org/1999/xlink">
    <!-- Generator: Sketch 42 (36781) - http://www.bohemiancoding.com/sketch -->
    <title>OTHERS_ICON</title>
    <desc>Created with Sketch.</desc>
    <defs></defs>
    <g id="Page-1" stroke="none" stroke-width="1" fill="none" fill-rule="evenodd" opacity="0.6">
        <g id="CATEGORIES-Copy" transform="translate(-683.000000, -176.000000)">
            <g id="OTHERS_ICON" transform="translate(683.491379, 176.237742)">
                <polygon id="Fill-144" fill="#00B1B0" points="0.256704023 28.3572258 49.0947572 0.131419355 97.9328103 28.3572258 97.9328103 84.8088387 49.0947572 113.034645 0.256704023 84.8088387"></polygon>
                <path d="M27.7962184,136.144355 C29.5545733,136.144355 30.9610316,134.682258 30.9610316,132.705323 C30.9610316,130.808548 29.5545733,129.400645 27.7962184,129.400645 C26.0367356,129.400645 24.6302773,130.808548 24.6302773,132.705323 C24.6302773,134.682258 26.0367356,136.144355 27.7962184,136.144355 M27.7962184,127.803065 C30.6226695,127.803065 32.7599899,129.957258 32.7599899,132.705323 C32.7599899,135.535806 30.6226695,137.741935 27.7962184,137.741935 C24.9686394,137.741935 22.831319,135.535806 22.831319,132.705323 C22.831319,129.957258 24.9686394,127.803065 27.7962184,127.803065" id="Fill-145" fill="#00B1B0"></path>
                <polygon id="Fill-146" fill="#00B1B0" points="36.445768 129.469403 33.2933614 129.469403 33.2933614 127.965532 41.342995 127.965532 41.342995 129.469403 38.1905884 129.469403 38.1905884 137.580371 36.445768 137.580371"></polygon>
                <polygon id="Fill-147" fill="#00B1B0" points="42.6182816 127.965419 44.363102 127.965419 44.363102 132.041226 48.7595532 132.041226 48.7595532 127.965419 50.5043736 127.965419 50.5043736 137.580258 48.7595532 137.580258 48.7595532 133.543968 44.363102 133.543968 44.363102 137.580258 42.6182816 137.580258"></polygon>
                <polygon id="Fill-148" fill="#00B1B0" points="52.9453175 127.965419 58.6940891 127.965419 58.6940891 129.46929 54.6901379 129.46929 54.6901379 131.988161 57.9226236 131.988161 57.9226236 133.490903 54.6901379 133.490903 54.6901379 136.077516 58.9106408 136.077516 58.9106408 137.580258 52.9453175 137.580258"></polygon>
                <path d="M64.0412249,132.475 C64.9739763,132.475 65.5559591,131.919516 65.5559591,130.957581 C65.5559591,130.037419 65.1634591,129.469516 63.7976042,129.469516 L62.4712249,129.469516 L62.4712249,132.475 L64.0412249,132.475 Z M60.7275323,127.965645 L63.8246731,127.965645 C64.8657004,127.965645 65.3394073,128.046935 65.7589763,128.236613 C66.7199246,128.670161 67.3278484,129.590323 67.3278484,130.862742 C67.3278484,132.014355 66.7199246,133.084677 65.7059662,133.49 L65.7059662,133.518226 C65.7059662,133.518226 65.8401832,133.652581 66.0296659,133.99129 L68.0045726,137.579355 L66.0567349,137.579355 L64.1495007,133.99129 L62.4712249,133.99129 L62.4712249,137.579355 L60.7275323,137.579355 L60.7275323,127.965645 Z" id="Fill-149" fill="#00B1B0"></path>
                <path d="M69.849097,135.115581 C69.849097,135.115581 70.8912522,136.130581 72.2435726,136.130581 C72.9744346,136.130581 73.6364964,135.751226 73.6364964,134.966548 C73.6364964,133.247032 69.1058283,133.543968 69.1058283,130.592677 C69.1058283,128.995097 70.4840898,127.802839 72.3247795,127.802839 C74.2184792,127.802839 75.1918341,128.832516 75.1918341,128.832516 L74.433903,130.253968 C74.433903,130.253968 73.5146861,129.413968 72.311245,129.413968 C71.499176,129.413968 70.8630553,129.888161 70.8630553,130.565581 C70.8630553,132.271548 75.3813168,131.851548 75.3813168,134.925903 C75.3813168,136.455742 74.2184792,137.74171 72.2165036,137.74171 C70.0791832,137.74171 68.9016832,136.428645 68.9016832,136.428645 L69.849097,135.115581 Z" id="Fill-150" fill="#00B1B0"></path>
                <path d="M34.9698326,56.5830323 C34.9698326,60.1191613 32.1061616,62.9857742 28.5736616,62.9857742 C25.0411616,62.9857742 22.1774907,60.1191613 22.1774907,56.5830323 C22.1774907,53.0469032 25.0411616,50.1802903 28.5736616,50.1802903 C32.1061616,50.1802903 34.9698326,53.0469032 34.9698326,56.5830323" id="Fill-151" fill="#FEFEFE"></path>
                <path d="M76.0124749,56.5830323 C76.0124749,60.1191613 73.1488039,62.9857742 69.6163039,62.9857742 C66.0838039,62.9857742 63.2201329,60.1191613 63.2201329,56.5830323 C63.2201329,53.0469032 66.0838039,50.1802903 69.6163039,50.1802903 C73.1488039,50.1802903 76.0124749,53.0469032 76.0124749,56.5830323" id="Fill-152" fill="#FEFEFE"></path>
                <path d="M55.4911537,56.5830323 C55.4911537,60.1191613 52.6274828,62.9857742 49.0949828,62.9857742 C45.5624828,62.9857742 42.6988118,60.1191613 42.6988118,56.5830323 C42.6988118,53.0469032 45.5624828,50.1802903 49.0949828,50.1802903 C52.6274828,50.1802903 55.4911537,53.0469032 55.4911537,56.5830323" id="Fill-153" fill="#FEFEFE"></path>
            </g>
        </g>
    </g>
</svg>