<svg width="99" height="138" viewBox="0 0 99 138" xmlns="http://www.w3.org/2000/svg"><title>OTHERS_ICON</title><g fill="none" fill-rule="evenodd" opacity=".6"><path fill="#00B1B0" d="M.748 28.595L49.586.369l48.838 28.226v56.452l-48.838 28.225L.748 85.047zM28.288 136.382c1.758 0 3.164-1.462 3.164-3.439 0-1.897-1.406-3.305-3.164-3.305-1.76 0-3.166 1.408-3.166 3.305 0 1.977 1.406 3.44 3.166 3.44m0-8.342c2.826 0 4.963 2.154 4.963 4.902 0 2.83-2.137 5.037-4.963 5.037-2.828 0-4.965-2.206-4.965-5.037 0-2.748 2.137-4.902 4.965-4.902M36.937 129.707h-3.152v-1.504h8.05v1.504h-3.153v8.111h-1.745zM43.11 128.203h1.744v4.076h4.397v-4.076h1.745v9.615H49.25v-4.036h-4.397v4.036H43.11zM53.437 128.203h5.748v1.504h-4.003v2.519h3.232v1.503h-3.232v2.586h4.22v1.503h-5.965zM64.533 132.713c.932 0 1.514-.556 1.514-1.518 0-.92-.392-1.488-1.758-1.488h-1.326v3.006h1.57zm-3.314-4.51h3.097c1.041 0 1.515.082 1.934.271.961.434 1.57 1.354 1.57 2.626 0 1.152-.609 2.222-1.623 2.628v.028s.135.134.324.473l1.975 3.588h-1.948l-1.907-3.588h-1.678v3.588h-1.744v-9.614zM70.34 135.353s1.043 1.015 2.395 1.015c.73 0 1.393-.379 1.393-1.164 0-1.72-4.53-1.422-4.53-4.374 0-1.597 1.377-2.79 3.218-2.79 1.894 0 2.867 1.03 2.867 1.03l-.758 1.422s-.919-.84-2.122-.84c-.812 0-1.449.474-1.449 1.151 0 1.706 4.519 1.286 4.519 4.36 0 1.53-1.163 2.816-3.165 2.816-2.137 0-3.315-1.313-3.315-1.313l.947-1.313z"/><path d="M35.461 56.82a6.4 6.4 0 0 1-6.396 6.404 6.4 6.4 0 0 1-6.396-6.403 6.4 6.4 0 0 1 6.396-6.403 6.4 6.4 0 0 1 6.396 6.403M76.504 56.82a6.4 6.4 0 0 1-6.396 6.404 6.4 6.4 0 0 1-6.396-6.403 6.4 6.4 0 0 1 6.396-6.403 6.4 6.4 0 0 1 6.396 6.403M55.983 56.82a6.4 6.4 0 0 1-6.397 6.404 6.4 6.4 0 0 1-6.396-6.403 6.4 6.4 0 0 1 6.396-6.403 6.4 6.4 0 0 1 6.397 6.403" fill="#FEFEFE"/></g></svg>