<svg width="99" height="138" viewBox="0 0 99 138" xmlns="http://www.w3.org/2000/svg"><title>SOCIAL_ICON</title><g fill="none" fill-rule="evenodd" opacity=".6"><path fill="#00B1B0" d="M.756 28.595L49.595.369l48.839 28.226v56.452l-48.84 28.225L.757 85.047zM23.222 135.353s1.041 1.015 2.395 1.015c.73 0 1.393-.379 1.393-1.164 0-1.72-4.532-1.422-4.532-4.374 0-1.597 1.38-2.79 3.22-2.79 1.894 0 2.867 1.03 2.867 1.03l-.758 1.422s-.92-.84-2.123-.84c-.812 0-1.448.474-1.448 1.151 0 1.706 4.518 1.286 4.518 4.36 0 1.53-1.162 2.816-3.164 2.816-2.138 0-3.315-1.313-3.315-1.313l.947-1.313zM34.805 136.382c1.759 0 3.165-1.462 3.165-3.439 0-1.897-1.406-3.305-3.165-3.305-1.76 0-3.166 1.408-3.166 3.305 0 1.977 1.407 3.44 3.166 3.44m0-8.342c2.827 0 4.964 2.154 4.964 4.902 0 2.83-2.137 5.037-4.964 5.037-2.827 0-4.965-2.206-4.965-5.037 0-2.748 2.138-4.902 4.965-4.902M45.822 128.041c2.34 0 3.545 1.313 3.545 1.313l-.84 1.3s-1.096-1.015-2.624-1.015c-2.029 0-3.219 1.517-3.219 3.304 0 1.828 1.23 3.44 3.233 3.44 1.664 0 2.787-1.219 2.787-1.219l.919 1.26s-1.325 1.556-3.774 1.556c-2.936 0-4.964-2.18-4.964-5.01 0-2.79 2.11-4.929 4.937-4.929M51.238 137.818h1.745v-9.615h-1.745zM58.504 129.87s-.216.948-.406 1.488l-.851 2.573h2.515l-.851-2.573c-.176-.54-.38-1.489-.38-1.489h-.027zm1.691 5.483h-3.368l-.812 2.465h-1.799l3.382-9.615h1.826l3.382 9.615h-1.799l-.812-2.465zM64.043 128.203h1.744v8.112h4.153v1.503h-5.897z"/><path d="M55.864 34.685c.986.153 1.977.285 2.958.46 4.29.764 8.25 2.391 11.987 4.6.18.107.36.208.58.335.063-.29.104-.533.166-.77a2.125 2.125 0 0 1 2.033-1.598c.812-.01 1.625-.003 2.437-.002 1.357.003 2.313.85 2.324 2.2.029 4.165.026 8.33 0 12.494-.007 1.228-.801 2.086-2.035 2.197-.92.084-1.858.082-2.78.01-1.174-.092-1.829-.765-2.048-1.94-.03-.15-.049-.302-.084-.523-1.102.243-2.178.516-3.267.716-2.72.5-5.46.916-8.232.738-.941-.06-1.936-.298-2.779-.714-2.042-1.008-4.156-.953-6.335-.843-2.33.12-4.67.077-7.004.058-.487-.005-.997-.154-1.454-.341-.926-.382-1.492-1.08-1.56-2.115-.072-1.11.394-1.976 1.401-2.38a20.027 20.027 0 0 1 3.366-1.014 99.867 99.867 0 0 1 6.324-1.123c1.063-.152 2.16-.068 3.242-.1.347-.01.695-.026 1.037-.08.375-.058.644-.263.662-.684.019-.446-.202-.744-.614-.87-.216-.067-.458-.075-.687-.075a37.785 37.785 0 0 0-10.295 1.438c-1.961.55-3.886 1.264-5.773 2.039-.873.357-1.657.984-2.41 1.58-1.27 1.005-2.64 1.59-4.282 1.304-1.987-.346-2.895-2.335-1.854-4.076.758-1.266 1.84-2.243 2.994-3.126 4.973-3.807 10.504-6.391 16.683-7.53.564-.103 1.133-.177 1.7-.265h3.6zM27.777 73.52c-.13 1.175-.575 2.046-1.705 2.326-.458.114-.96.054-1.443.062-.503.008-1.006.003-1.51 0-1.308-.004-2.269-.87-2.278-2.186-.028-4.164-.025-8.329-.001-12.494.007-1.235.792-2.096 2.022-2.206.92-.084 1.858-.085 2.78-.016 1.174.09 1.839.764 2.06 1.93.03.15.05.303.087.532 1.095-.241 2.17-.508 3.258-.71 2.72-.503 5.459-.915 8.231-.741.943.058 1.938.298 2.78.713 2.042 1.006 4.158.991 6.336.836 2.58-.186 5.171-.425 7.746.058 1.75.33 2.705 1.852 2.154 3.372-.238.656-.675 1.17-1.322 1.384-1.24.41-2.491.826-3.769 1.072-2.29.443-4.6.79-6.908 1.116-.74.105-1.507.017-2.263.019-.173 0-.348-.002-.52.01-.795.057-1.125.296-1.125.807-.001.574.41.916 1.178.891 1.332-.044 2.671-.06 3.993-.213 3.518-.409 6.965-1.156 10.287-2.412 1.652-.623 3.204-1.398 4.556-2.586 1.146-1.007 2.545-1.439 4.097-1.142 1.921.366 2.82 2.314 1.831 4.013-.794 1.364-1.966 2.387-3.201 3.325-4.716 3.579-9.95 6.065-15.759 7.25-4.164.85-8.265.356-12.306-.832a37.351 37.351 0 0 1-8.766-3.877c-.146-.088-.295-.17-.52-.3" fill="#FEFEFE"/></g></svg>