<?xml version="1.0" encoding="UTF-8"?>
<svg width="99px" height="138px" viewBox="0 0 99 138" version="1.1" xmlns="http://www.w3.org/2000/svg" xmlns:xlink="http://www.w3.org/1999/xlink">
    <!-- Generator: Sketch 42 (36781) - http://www.bohemiancoding.com/sketch -->
    <title>SOCIAL_ICON</title>
    <desc>Created with Sketch.</desc>
    <defs></defs>
    <g id="Page-1" stroke="none" stroke-width="1" fill="none" fill-rule="evenodd" opacity="0.6">
        <g id="CATEGORIES-Copy" transform="translate(-570.000000, -176.000000)">
            <g id="SOCIAL_ICON" transform="translate(570.704023, 176.237742)">
                <polygon id="Fill-154" fill="#00B1B0" points="0.0524461207 28.3572258 48.8904993 0.131419355 97.7296803 28.3572258 97.7296803 84.8088387 48.8904993 113.034645 0.0524461207 84.8088387"></polygon>
                <path d="M22.5181085,135.115581 C22.5181085,135.115581 23.5591358,136.130581 24.9125841,136.130581 C25.6434461,136.130581 26.3055079,135.751226 26.3055079,134.966548 C26.3055079,133.247032 21.7737119,133.543968 21.7737119,130.592677 C21.7737119,128.995097 23.1531013,127.802839 24.9937909,127.802839 C26.8874907,127.802839 27.8608455,128.832516 27.8608455,128.832516 L27.1029145,130.253968 C27.1029145,130.253968 26.1836976,129.413968 24.9802565,129.413968 C24.1681875,129.413968 23.5320668,129.888161 23.5320668,130.565581 C23.5320668,132.271548 28.0503283,131.851548 28.0503283,134.925903 C28.0503283,136.455742 26.8874907,137.74171 24.8855151,137.74171 C22.7481947,137.74171 21.5706947,136.428645 21.5706947,136.428645 L22.5181085,135.115581 Z" id="Fill-155" fill="#00B1B0"></path>
                <path d="M34.10137,136.144355 C35.8597249,136.144355 37.2661832,134.682258 37.2661832,132.705323 C37.2661832,130.808548 35.8597249,129.400645 34.10137,129.400645 C32.3418872,129.400645 30.9354289,130.808548 30.9354289,132.705323 C30.9354289,134.682258 32.3418872,136.144355 34.10137,136.144355 M34.10137,127.803065 C36.9278211,127.803065 39.0651415,129.957258 39.0651415,132.705323 C39.0651415,135.535806 36.9278211,137.741935 34.10137,137.741935 C31.2737909,137.741935 29.1364705,135.535806 29.1364705,132.705323 C29.1364705,129.957258 31.2737909,127.803065 34.10137,127.803065" id="Fill-156" fill="#00B1B0"></path>
                <path d="M45.1179878,127.803403 C47.4583254,127.803403 48.6628944,129.116468 48.6628944,129.116468 L47.8237565,130.415984 C47.8237565,130.415984 46.7274634,129.400984 45.1991947,129.400984 C43.1701501,129.400984 41.9802435,130.918403 41.9802435,132.705661 C41.9802435,134.533565 43.2107536,136.144694 45.2127292,136.144694 C46.8774705,136.144694 47.9997047,134.926468 47.9997047,134.926468 L48.9189217,136.185339 C48.9189217,136.185339 47.5936703,137.742274 45.1450568,137.742274 C42.2092019,137.742274 40.1812852,135.562113 40.1812852,132.731629 C40.1812852,129.942919 42.2915366,127.803403 45.1179878,127.803403" id="Fill-157" fill="#00B1B0"></path>
                <polygon id="Fill-158" fill="#00B1B0" points="50.534375 137.580484 52.2791954 137.580484 52.2791954 127.965645 50.534375 127.965645"></polygon>
                <path d="M57.8004749,129.631419 C57.8004749,129.631419 57.5839231,130.579806 57.3944404,131.120613 L56.5428958,133.693677 L59.0580539,133.693677 L58.2065093,131.120613 C58.0305611,130.579806 57.8275438,129.631419 57.8275438,129.631419 L57.8004749,129.631419 Z M59.4911573,135.115129 L56.1233269,135.115129 L55.3112579,137.579806 L53.5122996,137.579806 L56.8936645,127.964968 L58.7196918,127.964968 L62.1021846,137.579806 L60.3032263,137.579806 L59.4911573,135.115129 Z" id="Fill-159" fill="#00B1B0"></path>
                <polygon id="Fill-160" fill="#00B1B0" points="63.3385596 127.965419 65.08338 127.965419 65.08338 136.077516 69.2362105 136.077516 69.2362105 137.580258 63.3385596 137.580258"></polygon>
                <path d="M55.1604612,34.4475645 C56.1462227,34.5999839 57.1364957,34.7320806 58.1177457,34.9070806 C62.4070489,35.6714355 66.3681408,37.298371 70.1047859,39.5078871 C70.2841178,39.6140161 70.4657055,39.715629 70.6856408,39.8420806 C70.7476739,39.5519194 70.7894052,39.3091774 70.8514382,39.0720806 C71.0961868,38.138371 71.9206624,37.4857903 72.8838664,37.4745 C73.6959353,37.4643387 74.5091322,37.4711129 75.3212011,37.4722419 C76.678033,37.475629 77.6344698,38.3224032 77.6446207,39.6727258 C77.6739454,43.8377258 77.6705618,48.0015968 77.6457486,52.1665968 C77.6378534,53.3938548 76.8438305,54.2519194 75.6099368,54.3636935 C74.6907198,54.4472419 73.752329,54.4449839 72.8308563,54.3727258 C71.6556121,54.2812742 71.0014454,53.608371 70.7815101,52.4341774 C70.7521853,52.2840161 70.7330115,52.1315968 70.6980474,51.9103065 C69.5961149,52.1530484 68.5201236,52.4262742 67.4305977,52.6261129 C64.7101667,53.1262742 61.9716897,53.5417581 59.1993764,53.3645 C58.257602,53.3046613 57.2628175,53.0664355 56.420296,52.6498226 C54.377717,51.6427258 52.2640819,51.6969194 50.0850302,51.8075645 C47.7548434,51.9272419 45.4156336,51.8843387 43.0809353,51.8651452 C42.593694,51.860629 42.0838951,51.7115968 41.6271063,51.5241774 C40.7011221,51.1425645 40.1349296,50.4448226 40.0672572,49.4095 C39.9950733,48.2996613 40.4608851,47.4336935 41.4680761,47.028371 C42.5508348,46.5936935 43.6888592,46.2538548 44.8336509,46.015629 C46.9281121,45.5786935 49.0383635,45.1936935 51.1576379,44.8922419 C52.2212227,44.7398226 53.3186437,44.8245 54.4002744,44.7928871 C54.7465316,44.7827258 55.0950445,44.7657903 55.4367902,44.7127258 C55.8123721,44.6540161 56.080806,44.4496613 56.098852,44.0285323 C56.1180259,43.5825645 55.8969626,43.2845 55.4852888,43.1580484 C55.2687371,43.0914355 55.0273721,43.0835323 54.7984138,43.0835323 C51.29975,43.0812742 47.8597356,43.5757903 44.5031839,44.5207903 C42.5418118,45.0717581 40.6165316,45.7853065 38.7295991,46.5598226 C37.856625,46.9177258 37.0727529,47.5443387 36.3204612,48.1393387 C35.0504756,49.1453065 33.6801092,49.7301452 32.0379253,49.4445 C30.0506121,49.0978871 29.1426739,47.1096613 30.1837011,45.3686935 C30.9416322,44.1019194 32.0243908,43.1253065 33.1782055,42.2424032 C38.151,38.4353065 43.682092,35.8509516 49.8605833,34.7128871 C50.4245201,34.6090161 50.9940963,34.535629 51.5602888,34.4475645 L55.1604612,34.4475645 Z" id="Fill-161" fill="#FEFEFE"></path>
                <path d="M27.0733642,73.2831129 C26.9436588,74.4573065 26.4981487,75.3277903 25.3680194,75.6077903 C24.9101027,75.7218226 24.4070711,75.6619839 23.9254691,75.6698871 C23.4224375,75.6777903 22.9194059,75.6732742 22.4152464,75.6710161 C21.1069131,75.6665 20.1459648,74.8005323 20.1369418,73.4840806 C20.108745,69.3202097 20.1121286,65.1552097 20.1358139,60.9902097 C20.1425812,59.7550484 20.9275812,58.8947258 22.1580912,58.7840806 C23.0784361,58.7005323 24.015699,58.6994032 24.9382996,58.7682742 C26.1124159,58.8574677 26.7767335,59.532629 26.9977967,60.6977903 C27.0271214,60.8490806 27.0474231,61.0015 27.084643,61.2306935 C28.1798082,60.9890806 29.2546717,60.722629 30.3430697,60.5205323 C33.0623728,60.0169839 35.8019777,59.6048871 38.5742909,59.7787581 C39.5171932,59.8374677 40.5119777,60.0768226 41.3544993,60.4923065 C43.3959504,61.4982742 45.5118412,61.4835968 47.6897651,61.3277903 C50.2703398,61.142629 52.8610654,60.9032742 55.4360007,61.3865 C57.1853326,61.7161774 58.1406415,63.2381129 57.5902392,64.7577903 C57.3522579,65.4137581 56.914643,65.9285968 56.2683714,66.1419839 C55.0288384,66.5518226 53.7768987,66.9684355 52.499018,67.2145645 C50.2094346,67.6571452 47.8995496,68.0037581 45.5907924,68.3300484 C44.8509073,68.4350484 44.0839533,68.3469839 43.328278,68.3492419 C43.1545855,68.3492419 42.9797651,68.3469839 42.8072004,68.3594032 C42.0131774,68.4158548 41.6827105,68.6552097 41.6827105,69.1666613 C41.6815826,69.7402097 42.0921286,70.0823065 42.8613384,70.0574677 C44.193357,70.0134355 45.532143,69.997629 46.8540108,69.8440806 C50.3718484,69.435371 53.81863,68.6879516 57.1413455,67.4324677 C58.7925524,66.8092419 60.3445065,66.0347258 61.6968269,64.8458548 C62.8427464,63.8387581 64.2424375,63.4074677 65.7943915,63.7044032 C67.7151602,64.0702097 68.6140754,66.0177903 67.6249303,67.7169839 C66.8309073,69.0808548 65.6590467,70.1037581 64.4240251,71.0419839 C59.7083858,74.6210161 54.4739246,77.1071452 48.6653757,78.2915 C44.5012665,79.1416613 40.4003182,78.6482742 36.3591473,77.4605323 C33.2676458,76.5516613 30.3520927,75.245371 27.5933139,73.5834355 C27.4466904,73.495371 27.2978111,73.4129516 27.0733642,73.2831129" id="Fill-162" fill="#FEFEFE"></path>
            </g>
        </g>
    </g>
</svg>