<?xml version="1.0" encoding="UTF-8"?>
<svg width="100px" height="138px" viewBox="0 0 100 138" version="1.1" xmlns="http://www.w3.org/2000/svg" xmlns:xlink="http://www.w3.org/1999/xlink">
    <!-- Generator: Sketch 42 (36781) - http://www.bohemiancoding.com/sketch -->
    <title>TECH_ICON</title>
    <desc>Created with Sketch.</desc>
    <defs></defs>
    <g id="Page-1" stroke="none" stroke-width="1" fill="none" fill-rule="evenodd" opacity="0.6">
        <g id="CATEGORIES-Copy" transform="translate(-456.000000, -176.000000)">
            <g id="TECH_ICON" transform="translate(456.788793, 176.237742)">
                <polygon id="Fill-119" fill="#00B1B0" points="0.977076868 28.3572258 49.81513 0.131419355 98.6531832 28.3572258 98.6531832 84.8088387 49.81513 113.034645 0.977076868 84.8088387"></polygon>
                <polygon id="Fill-120" fill="#00B1B0" points="3.19831106 129.469403 0.0470323276 129.469403 0.0470323276 127.965532 8.09553807 127.965532 8.09553807 129.469403 4.94313147 129.469403 4.94313147 137.580371 3.19831106 137.580371"></polygon>
                <polygon id="Fill-121" fill="#00B1B0" points="9.37127586 127.965419 15.1200474 127.965419 15.1200474 129.46929 11.1160963 129.46929 11.1160963 131.988161 14.3497098 131.988161 14.3497098 133.490903 11.1160963 133.490903 11.1160963 136.077516 15.3365991 136.077516 15.3365991 137.580258 9.37127586 137.580258"></polygon>
                <path d="M21.3736552,127.803403 C23.7139928,127.803403 24.9185618,129.116468 24.9185618,129.116468 L24.0794239,130.415984 C24.0794239,130.415984 22.9831307,129.400984 21.4548621,129.400984 C19.4258175,129.400984 18.2359109,130.918403 18.2359109,132.705661 C18.2359109,134.533565 19.466421,136.144694 21.4683966,136.144694 C23.1320101,136.144694 24.2553721,134.926468 24.2553721,134.926468 L25.1745891,136.185339 C25.1745891,136.185339 23.8493376,137.742274 21.4007241,137.742274 C18.4648693,137.742274 16.4369526,135.562113 16.4369526,132.731629 C16.4369526,129.942919 18.547204,127.803403 21.3736552,127.803403" id="Fill-122" fill="#00B1B0"></path>
                <polygon id="Fill-123" fill="#00B1B0" points="26.7900424 127.965419 28.5348628 127.965419 28.5348628 132.041226 32.9313139 132.041226 32.9313139 127.965419 34.6761343 127.965419 34.6761343 137.580258 32.9313139 137.580258 32.9313139 133.543968 28.5348628 133.543968 28.5348628 137.580258 26.7900424 137.580258"></polygon>
                <path d="M37.1165144,127.965419 L38.8613348,127.965419 L42.4998549,133.518 C42.8652859,134.072355 43.2983894,135.007194 43.2983894,135.007194 L43.3254583,135.007194 C43.3254583,135.007194 43.230717,134.085903 43.230717,133.518 L43.230717,127.965419 L44.9620029,127.965419 L44.9620029,137.580258 L43.230717,137.580258 L39.5921968,132.041226 C39.2267658,131.485742 38.7936624,130.552032 38.7936624,130.552032 L38.7665934,130.552032 C38.7665934,130.552032 38.8613348,131.472194 38.8613348,132.041226 L38.8613348,137.580258 L37.1165144,137.580258 L37.1165144,127.965419 Z" id="Fill-124" fill="#00B1B0"></path>
                <path d="M51.7045438,136.144355 C53.4628987,136.144355 54.869357,134.682258 54.869357,132.705323 C54.869357,130.808548 53.4628987,129.400645 51.7045438,129.400645 C49.9450611,129.400645 48.5386027,130.808548 48.5386027,132.705323 C48.5386027,134.682258 49.9450611,136.144355 51.7045438,136.144355 M51.7045438,127.803065 C54.530995,127.803065 56.6683154,129.957258 56.6683154,132.705323 C56.6683154,135.535806 54.530995,137.741935 51.7045438,137.741935 C48.8769648,137.741935 46.7396444,135.535806 46.7396444,132.705323 C46.7396444,129.957258 48.8769648,127.803065 51.7045438,127.803065" id="Fill-125" fill="#00B1B0"></path>
                <polygon id="Fill-126" fill="#00B1B0" points="58.446972 127.965419 60.1917924 127.965419 60.1917924 136.077516 64.3446228 136.077516 64.3446228 137.580258 58.446972 137.580258"></polygon>
                <path d="M69.8804519,136.144355 C71.6399346,136.144355 73.046393,134.682258 73.046393,132.705323 C73.046393,130.808548 71.6399346,129.400645 69.8804519,129.400645 C68.122097,129.400645 66.7156386,130.808548 66.7156386,132.705323 C66.7156386,134.682258 68.122097,136.144355 69.8804519,136.144355 M69.8804519,127.803065 C72.7080309,127.803065 74.8453513,129.957258 74.8453513,132.705323 C74.8453513,135.535806 72.7080309,137.741935 69.8804519,137.741935 C67.0540007,137.741935 64.9166803,135.535806 64.9166803,132.705323 C64.9166803,129.957258 67.0540007,127.803065 69.8804519,127.803065" id="Fill-127" fill="#00B1B0"></path>
                <path d="M80.9245898,127.803403 C83.2784619,127.803403 84.4965654,129.021629 84.4965654,129.021629 L83.6303585,130.321145 C83.6303585,130.321145 82.6017378,129.400984 81.0734691,129.400984 C78.9226142,129.400984 77.7733111,130.890177 77.7733111,132.705661 C77.7733111,134.789855 79.1933039,136.144694 80.9922622,136.144694 C82.4404519,136.144694 83.4002723,135.142113 83.4002723,135.142113 L83.4002723,134.018726 L81.9261415,134.018726 L81.9261415,132.515984 L84.9691444,132.515984 L84.9691444,137.579694 L83.4814792,137.579694 L83.4814792,137.119048 C83.4814792,136.915823 83.4950136,136.713726 83.4950136,136.713726 L83.4679447,136.713726 C83.4679447,136.713726 82.4675208,137.742274 80.6809691,137.742274 C78.1522766,137.742274 75.9743527,135.778887 75.9743527,132.759855 C75.9743527,129.970016 78.0710697,127.803403 80.9245898,127.803403" id="Fill-128" fill="#00B1B0"></path>
                <path d="M88.8714741,133.557629 L85.6784641,127.965532 L87.6533707,127.965532 L89.1556983,130.796016 C89.4669914,131.391016 89.7230187,132.095532 89.737681,132.081984 L89.76475,132.081984 C89.76475,132.081984 90.0343118,131.391016 90.3456049,130.796016 L91.8332701,127.965532 L93.8081767,127.965532 L90.6162945,133.557629 L90.6162945,137.580371 L88.8714741,137.580371 L88.8714741,133.557629 Z" id="Fill-129" fill="#00B1B0"></path>
                <path d="M71.6838089,69.451629 C71.6984713,68.6805 71.049944,68.0200161 70.273967,68.016629 C69.5081408,68.0121129 68.8291609,68.6805 68.8314167,69.4335645 C68.8348003,70.1459839 69.5092687,70.8369516 70.2254684,70.8617903 C70.9630977,70.8877581 71.6691466,70.2046935 71.6838089,69.451629 L71.6838089,69.451629 Z M64.181194,69.3827581 C64.1654037,70.1629194 64.7902457,70.8324355 65.5571997,70.8550161 C66.2846782,70.8764677 67.0020057,70.1775968 67.0099009,69.4414677 C67.017796,68.6974355 66.3884425,68.0414677 65.644046,68.016629 C64.8522787,67.9906613 64.1981121,68.6014677 64.181194,69.3827581 L64.181194,69.3827581 Z M21.041158,36.6645323 C21.1945489,36.3280806 21.3129756,35.9690484 21.5069698,35.6574355 C22.0438376,34.7903387 22.8423721,34.2596935 23.8529468,34.2213065 C25.3665532,34.1637258 26.884671,34.206629 28.4828678,34.206629 C27.8794555,35.4722742 28.0576595,36.6238871 28.9655977,37.7213065 C28.7084425,37.7664677 28.516704,37.7879194 28.329477,37.8342097 C27.071898,38.1446935 26.1594483,39.0930806 26.0929037,40.3937258 C26.0128247,41.941629 25.7838664,43.5719516 26.1571925,45.0295323 C26.6455618,46.9353387 26.5057055,48.8050161 26.5248793,50.6905 C26.5699943,55.3951774 26.5372859,60.1009839 26.5395417,64.8056613 C26.5406695,65.8929194 27.0301667,66.3885645 28.1163089,66.3885645 C38.5096638,66.3908226 48.9030187,66.3885645 59.2963736,66.3874355 C63.3409282,66.3874355 67.3866106,66.3851774 71.4311652,66.3851774 C72.6244555,66.3851774 73.0880115,65.9188871 73.0880115,64.7198548 C73.0891394,59.1898548 73.0891394,53.6598548 73.0992902,48.1298548 C73.0992902,47.856629 73.1500445,47.5709839 73.2414023,47.3135645 C73.7060862,46.0095323 73.7320273,44.7179194 73.2222284,43.4195323 C73.1353822,43.2005 73.1083132,42.9509839 73.0913951,42.7127581 C73.0643261,42.3390484 73.0959066,41.9608226 73.0541753,41.589371 C72.9560503,40.7019516 72.6571638,40.4253387 71.7571207,40.3688871 C71.3093549,40.3406613 70.8593333,40.3361452 70.4093118,40.3327581 C69.6446135,40.3271129 68.8787874,40.331629 68.0588233,40.2830806 C69.3423434,39.8145323 70.4318693,39.1472742 70.4905187,37.6309839 C70.5446566,36.2264677 69.7765747,35.1945323 68.7242687,34.2359839 C68.953227,34.2179194 69.1066178,34.1953387 69.2611365,34.1953387 C71.246194,34.1930806 73.2312514,34.1919516 75.2163089,34.1942097 C76.9442112,34.1964677 77.9198218,34.8942097 78.4939095,36.5301774 C78.5119555,36.5798548 78.5570704,36.6205 78.5897787,36.6645323 L78.5897787,70.4192097 C78.5288736,70.5513065 78.4600733,70.6800161 78.4081911,70.814371 C77.9784713,71.9140484 77.2002385,72.6038871 76.0295057,72.7946935 C75.5704612,72.8703387 75.0978822,72.8805 74.6309425,72.8805 C68.3926739,72.8838871 62.155533,72.8805 55.9172644,72.8782419 L55.188658,72.8782419 C55.9229037,74.6417903 56.6751954,76.311629 57.3090603,78.0255 C57.6643405,78.9829194 58.0297716,79.5519516 59.2399799,79.4864677 C60.6069626,79.4142097 61.4742974,80.8232419 61.0400661,82.0855 C60.7355402,82.9684032 59.9685862,83.4414677 58.8113879,83.4414677 C52.8167399,83.4437258 46.822092,83.4437258 40.827444,83.4392097 C40.568033,83.4392097 40.3029828,83.414371 40.0480833,83.3624355 C39.1548075,83.1806613 38.5006408,82.3925968 38.4746997,81.4882419 C38.4487586,80.5929194 39.0589382,79.7472742 39.9488305,79.5406613 C40.3616322,79.4446935 40.8015029,79.4356613 41.2278391,79.4446935 C41.5707126,79.4514677 41.7601954,79.3645323 41.8989239,79.0213065 C42.6681336,77.114371 43.4666681,75.2175968 44.2516681,73.3174355 C44.3035503,73.1909839 44.3317471,73.054371 44.3825014,72.8838871 L43.9358635,72.8838871 C37.4539741,72.8827581 30.9732126,72.8805 24.4913233,72.8838871 C23.7457989,72.8838871 23.0431336,72.7563065 22.4058851,72.3430806 C21.6941968,71.8813065 21.3434282,71.1688871 21.041158,70.4192097 L21.041158,36.6645323 Z" id="Fill-130" fill="#FEFEFE"></path>
                <path d="M65.1605266,50.6579839 C63.8521932,50.2933065 62.4931056,50.0516935 61.2501889,49.5300806 C59.9610295,48.9892742 58.8861659,49.0942742 57.6105409,49.6407258 C50.8263815,52.5468548 43.997107,55.3491129 37.1858786,58.1931452 C36.1448513,58.6278226 35.0936731,58.9541129 33.9861013,58.4731452 C32.5401674,57.8442742 31.8093053,56.6791129 31.696518,55.143629 C31.5882421,53.6747581 32.2029332,52.4994355 33.5383355,51.8897581 C35.8313024,50.8420161 38.1738958,49.9026613 40.5018269,48.9294355 C45.7250093,46.7458871 50.9538312,44.5747581 56.1725022,42.3765323 C56.4296573,42.2692742 56.6665108,42.0005645 56.807495,41.7487903 C57.5823441,40.3645968 58.2511731,38.9149194 59.0993341,37.5804032 C59.8155338,36.4558871 60.9580697,35.8123387 62.2675309,35.5131452 C63.0863671,35.3268548 63.8995639,35.1021774 64.7274231,34.9757258 C66.3008068,34.7375 67.4963527,35.3991129 68.3614318,36.6839516 C68.8464174,37.4054032 68.653551,37.9292742 67.8527608,38.2668548 C66.6481918,38.7760484 65.433472,39.2637903 64.2480769,39.813629 C63.3491616,40.2302419 63.1641904,40.7021774 63.5048082,41.633629 C63.8578326,42.5989516 64.2514605,43.5507258 64.6687737,44.4900806 C65.0093915,45.2566935 65.7402536,45.5005645 66.6053326,45.1562097 C67.7681703,44.6921774 68.9197292,44.1987903 70.0757996,43.7189516 C70.9679476,43.348629 71.4675955,43.6094355 71.6277536,44.5657258 C71.8939318,46.1531452 71.410074,47.4775 70.0679045,48.3784677 C68.8148369,49.2195968 67.547107,50.068629 66.0357565,50.4152419 C65.9083068,50.4445968 65.7819849,50.4807258 65.6522795,50.4920161 C65.5034001,50.5055645 65.353393,50.4954032 65.2033858,50.4954032 C65.1887234,50.5495968 65.1751889,50.6037903 65.1605266,50.6579839" id="Fill-131" fill="#FEFEFE"></path>
                <path d="M47.4259555,43.9741129 C47.777852,41.7995968 47.2973779,39.9084677 45.9563362,38.271371 C44.9998994,37.1062097 43.7569828,36.3587903 42.2930029,36.0155645 C39.3413578,35.3223387 36.2735417,36.7178226 34.8185848,39.4026613 C33.9884698,40.9347581 33.826056,42.5605645 34.1959986,44.2495968 C34.4745833,45.5242742 35.0430316,46.3462097 36.9953807,48.318629 C35.9870618,48.736371 34.9753592,49.1066935 34.0065158,49.5684677 C33.0388003,50.031371 32.113944,50.5845968 31.0853233,51.1434677 C30.9928376,51.0429839 30.7875647,50.8273387 30.5913147,50.6049194 C29.7995474,49.7107258 29.8074425,49.3957258 30.6556034,48.5275 C30.9443391,48.2328226 31.2263075,47.9279839 31.5421121,47.6660484 C31.8308477,47.4278226 31.7507687,47.2223387 31.6752011,46.9005645 C31.4078951,45.7579839 30.722148,45.3820161 29.6235991,45.5852419 C29.4792313,45.6112097 29.3247126,45.5841129 29.1747055,45.5762097 C28.269023,45.5242742 27.9543463,45.2454032 27.9272773,44.3399194 C27.8911853,43.1600806 27.8979526,41.9779839 27.9182543,40.7970161 C27.929533,40.1297581 28.2284195,39.7865323 28.8904813,39.7052419 C29.4826149,39.6329839 30.0848994,39.6239516 30.6826724,39.6329839 C31.0075,39.6375 31.1304382,39.5223387 31.3063865,39.2412097 C31.9154382,38.2668548 31.7011422,37.6041129 30.847342,36.8533065 C29.6890158,35.8337903 29.7431537,35.4894355 30.8089943,34.3762097 C31.4958693,33.6592742 32.2064296,32.9637903 32.9237572,32.2773387 C33.4865661,31.7387903 33.9625287,31.7184677 34.5614296,32.2254032 C35.0024282,32.6002419 35.3813937,33.0484677 35.8223922,33.4244355 C35.9509698,33.5350806 36.1945905,33.5328226 36.386329,33.5395968 C36.4867098,33.5429839 36.5859626,33.4300806 36.6931106,33.4131452 C37.7465445,33.2539516 37.8570761,32.568629 37.8209842,31.6518548 C37.7555675,29.978629 37.9732471,29.7833065 39.6526509,29.733629 C40.605704,29.7054032 41.5621408,29.7381452 42.5174497,29.7675 C43.3419253,29.7934677 43.6904382,30.1445968 43.7332974,30.9857258 C43.7614943,31.5287903 43.7197629,32.0752419 43.76375,32.6160484 C43.7772845,32.7842742 43.9566164,32.951371 44.0897055,33.091371 C44.1596336,33.1647581 44.3096408,33.1545968 44.3953592,33.2200806 C45.2525431,33.8670161 45.8142241,33.4560484 46.4390661,32.7808871 C47.6097989,31.5175 47.8827443,31.5457258 49.1121264,32.7504032 C49.767421,33.3928226 50.4114368,34.0487903 51.0509411,34.7070161 C51.6487141,35.3223387 51.6678879,35.8191129 51.0994397,36.4739516 C50.7689727,36.8555645 50.400158,37.2033065 50.0460057,37.5657258 C49.9681825,37.6458871 49.8012572,37.7441129 49.8159195,37.7949194 C49.9647989,38.3312097 50.1227011,38.8675 50.3268463,39.3845968 C50.374217,39.5054032 50.5986638,39.6171774 50.748671,39.6273387 C51.3644899,39.6691129 51.9848204,39.636371 52.5983836,39.6939516 C53.3427802,39.7628226 53.8356609,40.5452419 53.6145977,41.2554032 C53.5864009,41.3445968 53.4882759,41.4416935 53.3991739,41.4789516 C51.4389296,42.3042742 49.4741739,43.1205645 47.4259555,43.9741129" id="Fill-132" fill="#FEFEFE"></path>
                <path d="M55.5369454,40.1249032 C54.6673549,38.3839355 54.0898836,37.9142581 52.5898118,37.738129 C53.3804511,36.6474839 53.7413707,35.5026452 53.0544957,34.2200645 L60.1014497,34.2200645 C57.6878003,35.4766774 56.5148118,37.6963548 55.5369454,40.1249032" id="Fill-133" fill="#FEFEFE"></path>
            </g>
        </g>
    </g>
</svg>