<svg width="100" height="138" viewBox="0 0 100 138" xmlns="http://www.w3.org/2000/svg"><title>TECH_ICON</title><g fill="none" fill-rule="evenodd" opacity=".6"><path fill="#00B1B0" d="M1.766 28.595L50.604.369l48.838 28.226v56.452l-48.838 28.225L1.766 85.047zM3.987 129.707H.836v-1.504h8.048v1.504H5.732v8.111H3.987zM10.16 128.203h5.749v1.504h-4.004v2.519h3.234v1.503h-3.234v2.586h4.22v1.503H10.16zM22.162 128.041c2.34 0 3.545 1.313 3.545 1.313l-.839 1.3s-1.096-1.015-2.624-1.015c-2.03 0-3.22 1.517-3.22 3.304 0 1.828 1.231 3.44 3.233 3.44 1.664 0 2.787-1.219 2.787-1.219l.92 1.26s-1.326 1.556-3.774 1.556c-2.936 0-4.964-2.18-4.964-5.01 0-2.79 2.11-4.929 4.936-4.929M27.579 128.203h1.745v4.076h4.396v-4.076h1.745v9.615H33.72v-4.036h-4.396v4.036h-1.745zM37.905 128.203h1.745l3.639 5.553c.365.554.798 1.489.798 1.489h.027s-.094-.921-.094-1.49v-5.552h1.73v9.615h-1.73l-3.639-5.539c-.365-.556-.799-1.49-.799-1.49h-.027s.095.92.095 1.49v5.539h-1.745v-9.615zM52.493 136.382c1.759 0 3.165-1.462 3.165-3.439 0-1.897-1.406-3.305-3.165-3.305-1.76 0-3.166 1.408-3.166 3.305 0 1.977 1.407 3.44 3.166 3.44m0-8.342c2.827 0 4.964 2.154 4.964 4.902 0 2.83-2.137 5.037-4.964 5.037-2.827 0-4.965-2.206-4.965-5.037 0-2.748 2.138-4.902 4.965-4.902M59.236 128.203h1.745v8.112h4.152v1.503h-5.897zM70.67 136.382c1.759 0 3.165-1.462 3.165-3.439 0-1.897-1.406-3.305-3.166-3.305-1.758 0-3.165 1.408-3.165 3.305 0 1.977 1.407 3.44 3.165 3.44m0-8.342c2.828 0 4.965 2.154 4.965 4.902 0 2.83-2.137 5.037-4.965 5.037-2.826 0-4.964-2.206-4.964-5.037 0-2.748 2.138-4.902 4.964-4.902M81.713 128.041c2.354 0 3.572 1.218 3.572 1.218l-.866 1.3s-1.028-.92-2.557-.92c-2.15 0-3.3 1.489-3.3 3.304 0 2.085 1.42 3.44 3.22 3.44 1.447 0 2.407-1.003 2.407-1.003v-1.124h-1.474v-1.502h3.043v5.063H84.27v-.46c0-.203.014-.406.014-.406h-.027s-1 1.029-2.787 1.029c-2.529 0-4.707-1.963-4.707-4.982 0-2.79 2.097-4.957 4.95-4.957M89.66 133.795l-3.193-5.592h1.975l1.502 2.83c.312.596.568 1.3.582 1.287h.028s.27-.691.58-1.286l1.488-2.83h1.975l-3.192 5.591v4.023H89.66v-4.023z"/><path d="M72.473 69.69c.014-.772-.634-1.432-1.41-1.436-.766-.004-1.445.664-1.443 1.417.004.713.678 1.404 1.394 1.429.738.026 1.444-.658 1.459-1.41zm-7.503-.07c-.016.78.609 1.45 1.376 1.473.727.021 1.445-.678 1.453-1.414.008-.744-.622-1.4-1.366-1.425a1.403 1.403 0 0 0-1.463 1.367zM21.83 36.903c.153-.336.272-.695.466-1.007.537-.867 1.335-1.398 2.346-1.436 1.513-.058 3.031-.015 4.63-.015-.604 1.266-.426 2.418.482 3.515-.257.045-.449.067-.636.113-1.257.31-2.17 1.259-2.236 2.56-.08 1.547-.31 3.178.064 4.635.488 1.906.348 3.776.368 5.661.045 4.705.012 9.41.014 14.115.001 1.088.491 1.583 1.577 1.583 10.393.003 20.787 0 31.18 0l12.135-.003c1.193 0 1.657-.466 1.657-1.665 0-5.53 0-11.06.011-16.59 0-.274.05-.56.142-.817.465-1.304.49-2.595-.019-3.894-.087-.219-.114-.468-.13-.706-.028-.374.004-.752-.038-1.124-.098-.887-.397-1.164-1.297-1.22a24.35 24.35 0 0 0-1.348-.036c-.765-.006-1.53-.002-2.35-.05 1.283-.469 2.373-1.136 2.431-2.652.054-1.405-.714-2.437-1.766-3.395.229-.018.382-.04.537-.04 1.985-.003 3.97-.004 5.955-.002 1.728.002 2.704.7 3.278 2.336.018.05.063.09.096.134v33.755c-.061.132-.13.26-.182.395-.43 1.1-1.208 1.79-2.379 1.98-.459.076-.931.086-1.398.086-6.239.004-12.476 0-18.714-.002h-.729c.735 1.764 1.487 3.433 2.12 5.147.356.958.722 1.527 1.932 1.461 1.367-.072 2.234 1.337 1.8 2.6-.305.882-1.072 1.355-2.229 1.355-5.994.002-11.99.002-17.984-.002-.26 0-.524-.025-.78-.077a1.98 1.98 0 0 1-1.573-1.874c-.025-.895.585-1.741 1.475-1.948.412-.096.852-.105 1.279-.096.343.007.532-.08.67-.423.77-1.907 1.568-3.804 2.353-5.704.052-.126.08-.263.131-.433h-.446c-6.482-.001-12.963-.004-19.445 0-.745 0-1.448-.128-2.085-.541-.712-.462-1.063-1.174-1.365-1.924V36.902z" fill="#FEFEFE"/><path d="M65.95 50.896c-1.309-.365-2.668-.607-3.911-1.128-1.29-.541-2.364-.436-3.64.11-6.784 2.907-13.613 5.709-20.424 8.553-1.041.435-2.093.76-3.2.28-1.446-.629-2.177-1.794-2.29-3.33-.108-1.468.507-2.644 1.842-3.253 2.293-1.048 4.636-1.988 6.964-2.96 5.223-2.184 10.452-4.355 15.67-6.554.257-.107.494-.376.635-.627.775-1.385 1.444-2.834 2.292-4.169.716-1.124 1.859-1.768 3.168-2.067.82-.186 1.632-.411 2.46-.538 1.574-.238 2.77.424 3.634 1.709.485.721.292 1.245-.508 1.583-1.205.509-2.42.997-3.605 1.546-.899.417-1.084.889-.743 1.82.353.966.746 1.917 1.164 2.857.34.766 1.071 1.01 1.936.666 1.163-.464 2.315-.957 3.47-1.437.893-.37 1.392-.11 1.553.846.266 1.588-.218 2.912-1.56 3.813-1.253.841-2.521 1.69-4.032 2.037-.128.03-.254.065-.384.077-.149.013-.299.003-.449.003l-.043.163" fill="#FEFEFE"/><path d="M48.215 44.212c.352-2.175-.129-4.066-1.47-5.703-.956-1.165-2.2-1.912-3.663-2.256-2.952-.693-6.02.703-7.475 3.387-.83 1.533-.992 3.158-.622 4.847.278 1.275.847 2.097 2.8 4.07-1.01.417-2.02.787-2.99 1.25-.967.462-1.892 1.015-2.92 1.574-.093-.1-.299-.316-.495-.538-.792-.895-.784-1.21.064-2.078.29-.294.571-.6.887-.861.289-.238.209-.444.133-.766-.267-1.142-.953-1.518-2.052-1.315-.144.026-.298-.001-.449-.009-.905-.052-1.22-.33-1.247-1.236a74.201 74.201 0 0 1-.009-3.543c.011-.667.31-1.01.972-1.092.592-.072 1.195-.081 1.792-.072.325.004.448-.11.624-.392.61-.974.395-1.637-.459-2.388-1.158-1.02-1.104-1.364-.038-2.477a68.685 68.685 0 0 1 2.115-2.099c.562-.538 1.038-.559 1.637-.052.441.375.82.823 1.261 1.2.129.11.372.108.564.114.1.004.2-.11.307-.126 1.053-.16 1.164-.845 1.128-1.761-.066-1.674.152-1.869 1.831-1.919.953-.028 1.91.005 2.865.034.825.026 1.173.377 1.216 1.218.028.544-.013 1.09.03 1.63.014.169.193.336.326.476.07.074.22.063.306.129.857.647 1.419.236 2.044-.44 1.17-1.263 1.444-1.235 2.673-.03.655.643 1.3 1.299 1.939 1.957.598.615.617 1.112.048 1.767-.33.381-.699.729-1.053 1.091-.078.08-.245.179-.23.23.149.536.306 1.072.51 1.59.048.12.272.232.422.242.616.042 1.237.01 1.85.067.745.069 1.237.851 1.016 1.561a.417.417 0 0 1-.215.224c-1.96.825-3.925 1.641-5.973 2.495M56.326 40.363c-.87-1.741-1.447-2.211-2.947-2.387.79-1.09 1.151-2.236.464-3.518h7.047c-2.413 1.256-3.586 3.476-4.564 5.905" fill="#FEFEFE"/></g></svg>