<svg width="118" height="38" viewBox="0 0 118 38" xmlns="http://www.w3.org/2000/svg"><title>CreateIdea</title><g fill="none" fill-rule="evenodd"><path d="M50.75 9.774v18.325c0 .196.105.378.275.476l15.844 9.163c.17.098.38.098.549 0l15.845-9.163a.551.551 0 0 0 .274-.476V9.774a.551.551 0 0 0-.274-.477L67.418.135a.548.548 0 0 0-.549 0L51.025 9.297a.551.551 0 0 0-.274.477" fill="#03A9CC"/><path d="M72.19 12.191a7.07 7.07 0 0 0-10.008-.084c-2.788 2.742-2.822 7.231-.084 10.024.447.481.767 1.072.918 1.705a9.52 9.52 0 0 0 4.128.945c1.516 0 3-.371 4.204-.979a4.49 4.49 0 0 1 1.045-1.89 7.094 7.094 0 0 0-.203-9.72m-5.046 13.77c-1.364 0-2.78-.287-4.035-.793-.009.262.009.506.05.76a4.061 4.061 0 0 0 3.977 3.375 4.054 4.054 0 0 0 4.052-4.042v-.093a11.07 11.07 0 0 1-4.044.793" fill="#FEFEFE"/><text font-family="MuseoSans-500, Museo Sans" font-size="11" fill="#00A8CB"><tspan x="93.448" y="24">IDEA</tspan></text><text font-family="MuseoSans-500, Museo Sans" font-size="11" fill="#00A8CB"><tspan x=".443" y="24">CREATE</tspan></text></g></svg>