<?xml version="1.0" encoding="UTF-8"?>
<svg width="150px" height="45px" viewBox="0 0 150 45" version="1.1" xmlns="http://www.w3.org/2000/svg" xmlns:xlink="http://www.w3.org/1999/xlink">
    <!-- Generator: Sketch 42 (36781) - http://www.bohemiancoding.com/sketch -->
    <title>LOGO</title>
    <desc>Created with Sketch.</desc>
    <defs>
        <polygon id="path-1" points="1.13996398e-15 33.8531284 1.13996398e-15 0.12356422 22.9316697 0.12356422 22.9316697 33.8531284 0 33.8531284"></polygon>
        <polygon id="path-3" points="12.1194495 12.3731835 12.1194495 0.186027523 0.320734425 0.186027523 0.320734425 12.3731835 12.1194495 12.3731835"></polygon>
    </defs>
    <g id="Page-1" stroke="none" stroke-width="1" fill="none" fill-rule="evenodd">
        <g id="Home" transform="translate(-42.000000, -20.000000)">
            <g id="Menu">
                <g id="LOGO" transform="translate(42.000000, 20.000000)">
                    <path d="M19.6054679,10.1114174 C23.4886789,10.1114174 26.9045505,12.1046284 28.891156,15.1225183 C28.8717523,13.5553624 28.4609725,11.991922 27.652211,10.5923807 C27.2538165,9.90334404 26.7703761,9.25022477 26.1816606,8.66109633 C25.5917064,8.07155505 24.9381743,7.58811468 24.2495505,7.18930734 C21.3819358,5.53256422 17.8281743,5.53256422 14.9609725,7.19013303 C14.2715229,7.58811468 13.6188165,8.07155505 13.0292752,8.66109633 C12.4405596,9.25022477 11.9567064,9.90334404 11.5578991,10.5923807 C10.7491376,11.9927477 10.3383578,13.5561881 10.3189541,15.1237569 C12.3055596,12.1050413 15.721844,10.1114174 19.6054679,10.1114174" id="Fill-1" fill="#D49D60"></path>
                    <path d="M10.490656,17.0364633 C10.6566193,17.2259587 10.8279495,17.4117385 11.0087752,17.5925642 C11.7791422,18.3629312 12.6324908,18.9945826 13.5337294,19.5155917 C17.2827661,21.6817844 21.9280872,21.6813716 25.6771239,19.5151789 C26.5779495,18.9937569 27.431711,18.3616927 28.202078,17.5913257 C28.3824908,17.4109128 28.5538211,17.225133 28.7193716,17.0360505 C28.8436376,16.4048119 28.8989587,15.7632523 28.8911147,15.1225183 C26.9045092,12.1046284 23.4886376,10.1114174 19.6054266,10.1114174 C15.7218028,10.1114174 12.3055183,12.1050413 10.3189128,15.1237569 C10.3114817,15.7644908 10.3663899,16.4056376 10.490656,17.0364633" id="Fill-3" fill="#E6BB83"></path>
                    <path d="M19.6048486,4.76277523 C17.922922,4.2008945 16.1695734,3.9168578 14.4145734,3.90860092 C13.6157202,3.90488532 12.816867,3.96061927 12.0237936,4.07126147 L12.0237936,4.07126147 L8.76769266,5.95135321 L7.70792202,6.56318807 L7.70792202,6.56318807 C7.20920642,9.01135321 7.47549083,11.579656 8.49851835,13.8986009 C8.66902294,14.2846101 8.8552156,14.6652523 9.06783028,15.0355734 C9.07361009,15.0458945 9.07856422,15.0562156 9.08434404,15.0665367 C9.10581193,15.1036927 9.13058257,15.1396101 9.1524633,15.1763532 C9.33700459,15.4884633 9.53764679,15.7931422 9.75026147,16.0920413 C9.98062844,16.4152982 10.2242064,16.7323624 10.4904908,17.0366284 C10.3666376,16.4053899 10.3113165,15.7642431 10.3191606,15.1235092 C10.3381514,13.5563532 10.7489312,11.9925 11.5576927,10.5925459 C11.9565,9.90350917 12.4403532,9.25038991 13.0294817,8.66084862 C13.6186101,8.07172018 14.2717294,7.58827982 14.9611789,7.19029817 C17.8279679,5.53272936 21.3817294,5.53272936 24.249344,7.18905963 C22.8134725,6.11855505 21.2438394,5.31020642 19.6048486,4.76277523" id="Fill-5" fill="#F16549"></path>
                    <path d="M34.7511055,8.43832569 L30.4426651,5.95094037 L27.1886284,4.07208716 L25.9071606,3.33227064 L20.6661055,0.306536697 C20.0096835,-0.0720412844 19.2013349,-0.0720412844 18.5449128,0.306536697 L12.0236284,4.07126147 L12.0240413,4.07126147 C12.8167018,3.96061927 13.615555,3.90488532 14.4148211,3.90860092 C16.1694083,3.9168578 17.9231697,4.2008945 19.6046835,4.76277523 C21.2440872,5.31020642 22.8133073,6.11855505 24.2491789,7.18905963 C24.9382156,7.58827982 25.5913349,8.07172018 26.1817018,8.66084862 C26.7704174,9.25038991 27.2538578,9.90350917 27.6522523,10.5925459 C28.4610138,11.9920872 28.8717936,13.5551147 28.8907844,15.1222706 C28.8986284,15.7634174 28.8433073,16.4049771 28.7190413,17.0362156 C28.9857385,16.7319495 29.2293165,16.4148853 29.4600963,16.0908028 C29.672711,15.7923165 29.8729404,15.4876376 30.0570688,15.1755275 C30.0789495,15.1383716 30.1033073,15.102867 30.1247752,15.065711 C30.130555,15.0553899 30.1355092,15.044656 30.141289,15.0343349 C30.3547294,14.6627752 30.5417477,14.2808945 30.7126651,13.8936468 C31.7344541,11.5755275 31.9999128,9.00887615 31.5016101,6.56236239 L32.6043165,7.19896789 L33.6529404,7.80419725 L34.7511055,8.43832569 L34.7511055,8.43832569" id="Fill-7" fill="#F48365"></path>
                    <path d="M34.6658532,22.2107202 C34.221633,22.391133 33.7736972,22.5599862 33.3203945,22.7094358 C32.4525963,22.9963624 31.5699358,23.2246651 30.6790183,23.3988853 C30.6183303,23.4108578 30.5572294,23.4203532 30.4961284,23.4319128 C28.5161284,23.8014083 26.4960826,23.8942982 24.4954404,23.7105826 C24.2510367,23.6878761 24.006633,23.6631055 23.7626422,23.6321422 C23.7159908,23.6263624 23.6693394,23.6185183 23.6222752,23.6123257 C22.2627798,23.4319128 20.9169083,23.1259954 19.6048899,22.6879679 C17.463055,21.9725092 15.4108073,20.9172798 13.5336055,19.5156743 C12.6327798,18.9946651 11.7790183,18.3630138 11.0086514,17.5926468 C10.8278257,17.4118211 10.6564954,17.2256284 10.4905321,17.0365459 C10.2242477,16.7322798 9.98066972,16.4156284 9.75030275,16.0919587 C9.53768807,15.7930596 9.33704587,15.4883807 9.15250459,15.1766835 C9.13062385,15.1395275 9.10585321,15.1036101 9.08438532,15.0664541 C9.0786055,15.0565459 9.07365138,15.0458119 9.06787156,15.0354908 C8.85525688,14.6651697 8.66865138,14.2845275 8.49855963,13.8985183 C7.47511927,11.5795734 7.20924771,9.01127064 7.7079633,6.5631055 L7.7079633,6.5631055 L7.7079633,6.5631055 L6.60566972,7.19929817 L5.55704587,7.80494037 L0.988513761,10.4426009 C0.775486239,10.5656284 0.593834862,10.7262248 0.443972477,10.9111789 C0.443559633,10.9215 0.442733945,10.9318211 0.442733945,10.9421422 L0.442733945,10.9442064 C0.442321101,10.9706284 0.439844037,10.9966376 0.439844037,11.0230596 C0.439844037,12.7409037 0.687137615,14.3968211 1.1107156,15.9817294 C1.68704587,18.1367752 2.63452294,20.1361789 3.87057798,21.9192523 C4.35195413,22.6132431 4.87791743,23.272555 5.44475229,23.8955367 C5.51080734,23.9681972 5.57933945,24.0392064 5.64663303,24.1106284 C6.08259633,24.5754908 6.53548624,25.0242523 7.01562385,25.4437018 C7.87846789,26.1971422 8.81190826,26.8704908 9.80108257,27.4612706 C10.1367248,27.6615 10.4793853,27.8505826 10.8278257,28.0305826 C11.7290642,28.4962706 12.6707615,28.8934266 13.6483761,29.2133807 L11.3835138,26.9481055 C11.2026881,26.7681055 11.1799817,26.4981055 11.2972294,26.2846651 C11.322,26.2396651 11.3451193,26.1930138 11.3835138,26.1550321 C11.488789,26.0489312 11.6303945,25.9903073 11.7794312,25.9903073 C11.9297064,25.9903073 12.0704862,26.0489312 12.1757615,26.1550321 L12.4825046,26.4617752 L15.8116789,29.7913624 C16.9651651,30.0291606 18.1553945,30.1633349 19.3753486,30.1790229 L18.7147982,29.5184725 C18.6082844,29.4123716 18.5508991,29.2715917 18.5508991,29.1217294 C18.5508991,28.971867 18.6082844,28.8315 18.7147982,28.7258119 C18.8200734,28.619711 18.9612661,28.5610872 19.1115413,28.5610872 C19.2609908,28.5610872 19.4017706,28.619711 19.5078716,28.7258119 L20.9197982,30.1377385 C21.8619083,30.0692064 22.7813119,29.9234725 23.6813119,29.7240688 L20.9449817,26.9881514 C20.8392936,26.8820505 20.7814954,26.7412706 20.7814954,26.5918211 C20.7814954,26.4419587 20.8392936,26.2995275 20.9449817,26.195078 C20.9775963,26.1628761 21.0184679,26.1438853 21.0564495,26.1203532 C21.1431468,26.0675092 21.2376881,26.0299404 21.3421376,26.0299404 C21.4911743,26.0299404 21.632367,26.0893899 21.7384679,26.195078 L21.8247523,26.2817752 L24.943789,29.3999862 C26.1443394,29.0515459 27.2953486,28.5908119 28.3856697,28.0272798 C28.7336972,27.8472798 29.075945,27.6586101 29.4107615,27.4583807 C29.6365872,27.3237936 29.8591101,27.1846651 30.0787431,27.0409954 L29.5915872,27.0409954 L29.0714037,27.0409954 L26.1232844,27.0409954 C25.838422,27.0409954 25.605578,26.8263165 25.5704862,26.5509495 C25.5671835,26.5278303 25.563055,26.504711 25.563055,26.4803532 C25.563055,26.171133 25.8140642,25.919711 26.1232844,25.919711 L29.4726881,25.919711 L29.6749817,25.919711 L30.0267248,25.919711 L31.6132844,25.919711 C31.8093853,25.7611789 32.0075505,25.604711 32.1970459,25.4391606 C32.6742936,25.0221881 33.1247064,24.5759037 33.5581927,24.1139312 C33.6296147,24.0379679 33.7018624,23.9632431 33.771633,23.8860413 C34.3347523,23.2663624 34.8578257,22.6103532 35.3367248,21.920078 C35.113789,22.0195734 34.8912661,22.1190688 34.6658532,22.2107202" id="Fill-9" fill="#68C7C5"></path>
                    <path d="M38.7670046,10.9426376 L38.7670046,10.9405734 C38.7670046,10.9302523 38.7657661,10.9199312 38.7657661,10.9096101 C38.6163165,10.7254817 38.4346651,10.5652982 38.2224633,10.4426835 L38.1514541,10.4013991 L38.1465,10.3985092 L34.7512706,8.43832569 L33.6526927,7.80419725 L32.6040688,7.19896789 L31.5013624,6.56236239 C31.9996651,9.00887615 31.7346193,11.5755275 30.7124174,13.8936468 C30.5419128,14.2808945 30.3544817,14.6627752 30.1414541,15.0343349 C30.1356743,15.044656 30.1307202,15.0553899 30.1249404,15.065711 C30.1034725,15.102867 30.0787018,15.1383716 30.0568211,15.1755275 C29.8731055,15.4876376 29.6724633,15.7923165 29.4598486,16.0912156 C29.2294817,16.4148853 28.9859037,16.7319495 28.7192064,17.0362156 C28.553656,17.2252982 28.3823257,17.411078 28.2019128,17.5914908 C27.4315459,18.3618578 26.5777844,18.993922 25.6769587,19.5149312 C21.9283349,21.6815367 17.2826009,21.6819495 13.5335642,19.5157569 C15.4107661,20.9169495 17.4630138,21.9721789 19.6048486,22.6880505 C20.916867,23.126078 22.2631514,23.4315826 23.6222339,23.6124083 C23.6692982,23.6186009 23.7159495,23.626445 23.7626009,23.6322248 C24.0065917,23.6631881 24.2509954,23.6879587 24.4953991,23.7106651 C26.4960413,23.8943807 28.5160872,23.801078 30.4960872,23.4315826 C30.5571881,23.4204358 30.618289,23.4109404 30.6793899,23.3989679 C31.5703073,23.2247477 32.452555,22.9960321 33.3203532,22.7095183 C33.773656,22.5600688 34.2215917,22.3912156 34.6658119,22.2108028 C34.8912248,22.1191514 35.1137477,22.019656 35.3366835,21.9201606 C36.5743899,20.1366743 37.5222798,18.1360321 38.0990229,15.9797477 C38.5226009,14.3956651 38.7698945,12.738922 38.7698945,11.0227294 C38.7698945,10.9958945 38.7670046,10.9694725 38.7670046,10.9426376" id="Fill-11" fill="#00B1B0"></path>
                    <path d="M38.7658486,10.9096927 C38.7658486,10.9200138 38.7670872,10.9303349 38.7670872,10.940656 L38.7670872,10.9427202 C38.7670872,10.969555 38.7699771,10.9959771 38.7699771,11.0228119 C38.7699771,12.7390046 38.5226835,14.3957477 38.0991055,15.9798303 C37.5223624,18.1361147 36.5740596,20.136344 35.3367661,21.9202431 C34.857867,22.6101055 34.3347936,23.2665275 33.7716743,23.8862064 C33.7019037,23.9634083 33.629656,24.038133 33.5582339,24.1140963 C33.1247477,24.5760688 32.6743349,25.0219404 32.1970872,25.4389128 C32.0075917,25.6048761 31.8094266,25.761344 31.6133257,25.9194633 L31.9535092,25.9194633 L32.3077294,25.9194633 L32.6413073,25.9194633 C32.7837385,25.9194633 32.9125459,25.9747844 33.0116284,26.0623073 C33.1276376,26.1651055 33.2023624,26.3137294 33.2023624,26.4805183 C33.2023624,26.7893257 32.9505275,27.0407477 32.6413073,27.0407477 L31.6508945,27.0407477 L31.3243349,27.0407477 L31.2797477,27.0407477 L30.0787844,27.0407477 C29.8591514,27.1844174 29.6366284,27.3235459 29.4108028,27.4585459 C29.0759862,27.6587752 28.7337385,27.847445 28.385711,28.027445 C27.2953899,28.5909771 26.1443807,29.0512982 24.9438303,29.3997385 L24.9888303,29.4447385 C25.8743807,29.3047844 26.7483716,29.1313899 27.6095642,28.924555 C28.0162156,28.826711 28.4203899,28.7230872 28.8212615,28.6107936 C28.8864908,28.5926284 28.9513073,28.5723991 29.0165367,28.5538211 C29.2881881,28.4757936 29.5606651,28.3994174 29.8298394,28.3147844 C31.572867,27.7690046 33.256445,27.0882248 34.8681881,26.2840046 C36.3845642,25.5268486 37.8332339,24.6557477 39.2108945,23.6901055 L39.2108945,18.3049679 L39.2108945,12.2435917 L39.2108945,12.2378119 L39.2108945,12.1548303 C39.2108945,11.6932706 39.0478211,11.2568945 38.7658486,10.9096927" id="Fill-13" fill="#00A8CB"></path>
                    <g id="Group-17" transform="translate(0.000000, 10.787615)">
                        <mask id="mask-2" fill="white">
                            <use xlink:href="#path-1"></use>
                        </mask>
                        <g id="Clip-16"></g>
                        <path d="M4.3417156,15.4974633 C3.77116514,14.3542982 3.2646055,13.1735642 2.8220367,11.9622798 C2.62758716,11.4301239 2.44634862,10.8913624 2.27790826,10.3472339 C1.76185321,8.68016972 1.36717431,6.95984862 1.11079817,5.19370183 C0.687220183,3.60920642 0.439926606,1.95328899 0.439926606,0.235444954 C0.439926606,0.209022936 0.44240367,0.183013761 0.442816514,0.156591743 L0.442816514,0.154527523 C0.442816514,0.144206422 0.443642202,0.133885321 0.443642202,0.12356422 C0.162495413,0.470353211 -0.000165137615,0.906316514 -0.000165137615,1.36705046 L-0.000165137615,1.45044495 L-0.000165137615,1.45622477 L-0.000165137615,7.51925229 L-0.000165137615,12.9043899 L-0.000165137615,21.6335642 L-0.000165137615,21.6389312 L-0.000165137615,21.7227385 C-0.000165137615,22.4287018 0.376761468,23.0814083 0.988183486,23.4343899 L1.06497248,23.4785642 C1.06538532,23.4789771 1.06538532,23.4789771 1.06579817,23.4789771 L16.2786881,32.2626468 L16.2786881,32.2626468 L16.2791009,32.2626468 L18.5439633,33.5701239 C19.201211,33.9474633 20.0095596,33.9474633 20.6668073,33.5701239 L22.9316697,32.2626468 C21.7934587,31.8349404 20.6820826,31.3515 19.6053853,30.8090229 C13.0122661,27.4885183 7.64116514,22.102555 4.3417156,15.4974633" id="Fill-15" fill="#00A8CB" mask="url(#mask-2)"></path>
                    </g>
                    <path d="M32.4612661,30.4079037 L32.4253486,30.4079037 L29.734844,30.4079037 C29.425211,30.4079037 29.1742018,30.1560688 29.1742018,29.8472615 C29.1742018,29.5380413 29.425211,29.2866193 29.734844,29.2866193 L32.4612661,29.2866193 C32.6833761,29.2866193 32.8736972,29.4174908 32.9645229,29.6053349 C33.0000275,29.6788211 33.0214954,29.7601514 33.0214954,29.8472615 C33.0214954,30.1560688 32.7708991,30.4079037 32.4612661,30.4079037 M34.8681468,26.2840046 C33.2564037,27.0882248 31.5728257,27.7690046 29.8297982,28.3147844 C29.5606239,28.3990046 29.2885596,28.4757936 29.0164954,28.5538211 C28.9512661,28.5723991 28.8864495,28.5926284 28.8212202,28.6107936 C28.4203486,28.7230872 28.0161743,28.826711 27.6095229,28.9241422 C26.7483303,29.1313899 25.8743394,29.3047844 24.988789,29.4447385 L25.4425046,29.8984541 L25.9127339,30.3682706 L26.0675505,30.5235 L28.3299358,32.7854725 C28.5487431,33.0042798 28.5487431,33.3605642 28.3299358,33.5789587 C28.2238349,33.6842339 28.083055,33.742445 27.9331927,33.742445 C27.7833303,33.742445 27.6429633,33.6842339 27.5368624,33.5789587 L24.9322294,30.9747385 L24.9165413,30.9590505 L24.1692936,30.2118028 L23.6813119,29.7238211 C22.7813119,29.9236376 21.8619083,30.0693716 20.9197982,30.1379037 L21.4007615,30.618867 L22.3771376,31.5952431 L22.680578,31.8990963 L23.4179174,32.6364358 C23.6367248,32.8544174 23.6367248,33.2098761 23.4187431,33.4290963 C23.3122294,33.5347844 23.1714495,33.5925826 23.0224128,33.5925826 C22.8721376,33.5925826 22.730945,33.5347844 22.6252569,33.4290963 L21.3858991,32.1897385 L20.9714037,31.7748303 L19.8876881,30.6911147 L19.3753486,30.1787752 C18.1553945,30.1630872 16.9651651,30.0289128 15.8116789,29.7911147 L16.491633,30.4710688 L17.7442018,31.7236376 L18.2709908,32.2508394 L18.7664037,32.7462523 C18.985211,32.9650596 18.985211,33.3205183 18.7664037,33.5385 C18.6603028,33.6454266 18.5199358,33.7028119 18.3704862,33.7028119 C18.220211,33.7028119 18.079844,33.6454266 17.9737431,33.5385 L16.2521835,31.8173532 L15.8306697,31.3958394 L14.5310367,30.0957936 L13.8135138,29.3782706 L13.648789,29.213133 C12.6707615,28.8931789 11.7290642,28.4964358 10.8278257,28.0307477 C10.4793853,27.8507477 10.1367248,27.6616651 9.80108257,27.4614358 C8.81190826,26.870656 7.87846789,26.1973073 7.01562385,25.443867 C6.53548624,25.0244174 6.08259633,24.575656 5.64663303,24.1107936 C5.57933945,24.0389587 5.51080734,23.9683624 5.44475229,23.895289 C4.87791743,23.2727202 4.35195413,22.6129954 3.87057798,21.9190046 C2.63452294,20.136344 1.68704587,18.1365275 1.1107156,15.9814817 C1.36709174,17.7472156 1.76177064,19.4675367 2.27782569,21.1346009 C2.44626606,21.6791422 2.62750459,22.2174908 2.82236697,22.7500596 C3.26493578,23.961344 3.77108257,25.142078 4.34163303,26.2852431 C7.64108257,32.8903349 13.0121835,38.2762982 19.6053028,41.5968028 C20.6824128,42.138867 21.7933761,42.6223073 22.932,43.0500138 C22.932,43.0500138 22.932,43.0500138 22.932,43.0504266 L22.932,43.0504266 L38.1457156,34.2667569 C38.1465413,34.266344 38.147367,34.2655183 38.1481927,34.2651055 L38.1502569,34.263867 C38.1506697,34.2634541 38.1506697,34.2634541 38.1510826,34.2634541 L38.2225046,34.2221697 C38.4268624,34.1040963 38.6019083,33.9505183 38.7484679,33.7750596 L38.7228716,33.7750596 L38.7208073,33.7750596 L32.8150734,33.7750596 C32.5066789,33.7750596 32.2540183,33.5232248 32.2540183,33.2135917 C32.2540183,32.9043716 32.5066789,32.6533624 32.8150734,32.6533624 L39.195578,32.6533624 L39.1959908,32.6533624 L39.2013578,32.6533624 C39.2050734,32.6054725 39.2108532,32.5584083 39.2108532,32.5101055 L39.2108532,32.426711 L39.2108532,32.4209312 L39.2108532,23.6901055 C37.8331927,24.6553349 36.3845229,25.5268486 34.8681468,26.2840046" id="Fill-18" fill="#00B5CC"></path>
                    <path d="M18.2710734,32.2508394 L17.7438716,31.7236376 L16.4917156,30.4710688 L15.8117615,29.7911147 L12.4825872,26.4619404 L12.175844,26.1547844 C12.0705688,26.0486835 11.929789,25.9904725 11.7795138,25.9904725 C11.6304771,25.9904725 11.4884587,26.0486835 11.3835963,26.1547844 C11.3452018,26.1931789 11.3220826,26.2394174 11.2973119,26.2848303 C11.1800642,26.4982706 11.2027706,26.7682706 11.3835963,26.9478578 L13.6484587,29.213133 L13.8135963,29.3782706 L14.5311193,30.0957936 L15.8307523,31.3958394 L16.2522661,31.8173532 L17.9734128,33.5389128 C18.0799266,33.6454266 18.2202936,33.7028119 18.3705688,33.7028119 C18.5200183,33.7028119 18.6603853,33.6454266 18.7664862,33.5389128 C18.9852936,33.3205183 18.9852936,32.9650596 18.7664862,32.7462523 L18.2710734,32.2508394 Z" id="Fill-20" fill="#FEFEFE"></path>
                    <path d="M26.0675917,30.5234174 L25.9123624,30.3681881 L25.4425459,29.8983716 L24.9888303,29.444656 L24.9438303,29.399656 L21.8247936,26.281445 L21.7385092,26.1951606 C21.6324083,26.0894725 21.4912156,26.0300229 21.3421789,26.0300229 C21.2377294,26.0300229 21.1431881,26.0675917 21.0564908,26.1204358 C21.0180963,26.143555 20.9776376,26.1629587 20.9450229,26.1951606 C20.8393349,26.2996101 20.7815367,26.4420413 20.7815367,26.5919037 C20.7815367,26.7413532 20.8393349,26.882133 20.9450229,26.9882339 L23.6813532,29.7241514 L24.1693349,30.2117202 L24.9165826,30.9589679 L24.9322706,30.974656 L27.5369037,33.5788761 C27.6425917,33.6841514 27.7829587,33.7423624 27.9332339,33.7423624 C28.0830963,33.7423624 28.2238761,33.6841514 28.3299771,33.5788761 C28.5483716,33.3604817 28.5483716,33.0046101 28.3299771,32.7853899 L26.0675917,30.5234174 Z" id="Fill-22" fill="#FEFEFE"></path>
                    <path d="M22.6804541,31.8988899 L22.3770138,31.5954495 L21.4006376,30.6190734 L20.9196743,30.1376972 L19.5077477,28.7257706 C19.4020596,28.6196697 19.260867,28.5610459 19.1114174,28.5610459 C18.9611422,28.5610459 18.8203624,28.6196697 18.7146743,28.7257706 C18.6081606,28.8314587 18.5507752,28.9718257 18.5507752,29.1216881 C18.5507752,29.2715505 18.6081606,29.4123303 18.7146743,29.5184312 L19.3756376,30.1789817 L19.8875642,30.6913211 L20.9712798,31.7750367 L21.3857752,32.1895321 L22.6255459,33.4293028 C22.7308211,33.534578 22.8720138,33.592789 23.022289,33.592789 C23.1713257,33.592789 23.3121055,33.534578 23.4186193,33.4293028 C23.6366009,33.2100826 23.6366009,32.8546239 23.4177936,32.6366422 L22.6804541,31.8988899 Z" id="Fill-24" fill="#FEFEFE"></path>
                    <path d="M30.078578,27.0408303 L31.2799541,27.0408303 L31.3245413,27.0408303 L31.6511009,27.0408303 L32.6415138,27.0408303 C32.9503211,27.0408303 33.202156,26.7894083 33.202156,26.4806009 C33.202156,26.3133991 33.1274312,26.1651881 33.011422,26.0623899 C32.9123394,25.9744541 32.7835321,25.9195459 32.6415138,25.9195459 L32.3079358,25.9195459 L31.9537156,25.9195459 L31.6131193,25.9195459 L30.0265596,25.9195459 L29.6752294,25.9195459 L29.4725229,25.9195459 L26.1235321,25.9195459 C25.8138991,25.9195459 25.5633028,26.1709679 25.5633028,26.4806009 C25.5633028,26.5045459 25.5674312,26.5276651 25.5703211,26.5507844 C25.6054128,26.8265642 25.8382569,27.0408303 26.1235321,27.0408303 L29.0712385,27.0408303 L29.5918349,27.0408303 L30.078578,27.0408303 Z" id="Fill-26" fill="#FEFEFE"></path>
                    <path d="M39.1958257,32.6533211 L39.1954128,32.6533211 L32.8149083,32.6533211 C32.5069266,32.6533211 32.2538532,32.9043303 32.2538532,33.2135505 C32.2538532,33.5231835 32.5069266,33.7750183 32.8149083,33.7750183 L38.721055,33.7750183 L38.7227064,33.7750183 L38.7483028,33.7750183 C39.0108716,33.460844 39.171055,33.0702936 39.2011927,32.6533211 L39.1958257,32.6533211 Z" id="Fill-28" fill="#FEFEFE"></path>
                    <path d="M32.4612661,30.4079037 C32.7708991,30.4079037 33.0214954,30.1560688 33.0214954,29.8472615 C33.0214954,29.7601514 33.0000275,29.6788211 32.9645229,29.6053349 C32.8736972,29.4174908 32.6833761,29.2866193 32.4612661,29.2866193 L29.734844,29.2866193 C29.425211,29.2866193 29.1742018,29.5380413 29.1742018,29.8472615 C29.1742018,30.1560688 29.425211,30.4079037 29.734844,30.4079037 L32.4253486,30.4079037 L32.4612661,30.4079037 Z" id="Fill-30" fill="#FEFEFE"></path>
                    <path d="M60.4616927,17.4764725 L58.173711,27.7480321 C58.1571972,27.7967477 58.141922,27.8623899 58.1254083,27.8950046 L58.1254083,27.9111055 C58.1088945,27.9585826 58.075867,27.9916101 58.0605917,28.0403257 L58.044078,28.0560138 C58.0283899,28.105555 57.9953624,28.137344 57.9627477,28.1703716 L57.9462339,28.1868853 C57.9140321,28.2190872 57.8818303,28.2508761 57.8327018,28.2843165 C57.8327018,28.3004174 57.8327018,28.3004174 57.8170138,28.3004174 C57.7839862,28.3322064 57.7521972,28.3487202 57.7030688,28.3817477 L57.6873807,28.3817477 L57.6873807,28.3974358 L57.5565092,28.4461514 L57.5408211,28.4461514 L57.3946743,28.4956927 L57.3789862,28.4956927 C57.3298578,28.4956927 57.2811422,28.5109679 57.2328394,28.5109679 L57.2159128,28.5109679 C57.1832982,28.5109679 57.1515092,28.5109679 57.1193073,28.4956927 L57.1027936,28.4956927 C57.0866927,28.4956927 57.054078,28.4956927 57.0214633,28.4791789 L57.0049495,28.4791789 L56.9727477,28.4791789 C56.9574725,28.463078 56.9405459,28.463078 56.9236193,28.463078 C56.908344,28.463078 56.8914174,28.4461514 56.8749037,28.4461514 C56.8749037,28.4304633 56.8596284,28.4304633 56.8431147,28.4304633 L56.7935734,28.3974358 C56.7782982,28.3974358 56.7617844,28.3974358 56.7617844,28.3817477 C56.7456835,28.3817477 56.7295826,28.3648211 56.7130688,28.3648211 C56.696555,28.3487202 56.6812798,28.3487202 56.6812798,28.3322064 C56.6643532,28.3322064 56.6486651,28.3161055 56.6321514,28.3004174 C56.6160505,28.3004174 56.6160505,28.2843165 56.5999495,28.2843165 L56.5673349,28.2508761 C56.5512339,28.2347752 56.5347202,28.2190872 56.5186193,28.2190872 C56.5186193,28.2038119 56.5021055,28.1868853 56.5021055,28.1703716 C56.4855917,28.1703716 56.4699037,28.1542706 56.4699037,28.137344 C56.4533899,28.121656 56.4368761,28.121656 56.4368761,28.105555 L56.4046743,28.0560138 C56.4046743,28.0403257 56.3881606,28.0242248 56.3728853,28.0093624 C56.3728853,28.0093624 56.3728853,27.9916101 56.3563716,27.9916101 L53.7765092,23.1563807 L51.341555,27.9755092 C51.3250413,27.9755092 51.3250413,27.9755092 51.3250413,27.9916101 L51.2767385,28.0729404 C51.2610505,28.089867 51.2610505,28.089867 51.2610505,28.105555 C51.2284358,28.137344 51.211922,28.1703716 51.1797202,28.1868853 C51.1797202,28.2038119 51.1636193,28.2038119 51.1636193,28.2038119 C51.1479312,28.2347752 51.1144908,28.2508761 51.0827018,28.2843165 C51.0827018,28.2843165 51.0661881,28.2843165 51.0661881,28.3004174 L50.9687569,28.3648211 L50.8552248,28.4304633 L50.838711,28.4304633 C50.8056835,28.4461514 50.7743073,28.463078 50.7416927,28.463078 C50.7416927,28.463078 50.7251789,28.463078 50.7082523,28.4791789 L50.6933899,28.4791789 C50.6764633,28.4791789 50.6438486,28.4956927 50.6277477,28.4956927 L50.5790321,28.4956927 C50.5464174,28.5109679 50.4985275,28.5109679 50.4659128,28.5109679 C50.4167844,28.5109679 50.3688945,28.4956927 50.3197661,28.4956927 L50.2875642,28.4956927 C50.2376101,28.4791789 50.2062339,28.463078 50.1571055,28.463078 C50.1571055,28.4461514 50.1410046,28.4461514 50.1410046,28.4461514 L50.0278853,28.3974358 L50.0109587,28.3974358 C49.9952706,28.3817477 49.9952706,28.3817477 49.9791697,28.3817477 C49.9457294,28.3487202 49.8974266,28.3322064 49.8652248,28.3004174 C49.816922,28.2673899 49.7838945,28.2347752 49.7516927,28.2038119 C49.7516927,28.1868853 49.7347661,28.1868853 49.7347661,28.1868853 C49.7033899,28.137344 49.6707752,28.105555 49.6542615,28.0729404 C49.6377477,28.0560138 49.6377477,28.0560138 49.6377477,28.0403257 C49.6055459,28.0093624 49.589445,27.9585826 49.5729312,27.9111055 L49.5572431,27.9111055 C49.5403165,27.8623899 49.5242156,27.8136743 49.5077018,27.764133 L49.5077018,27.7480321 L47.0739862,17.4925734 C46.9439404,16.9732156 47.2692615,16.4377569 47.7873807,16.3085367 C48.324078,16.1945917 48.8430229,16.5182615 48.972656,17.038445 L50.8056835,24.7136284 L52.8835275,20.5926193 C53.062289,20.2668853 53.3863716,20.0732615 53.7599954,20.0563349 C54.1166927,20.0563349 54.457289,20.2668853 54.6199495,20.5756927 L56.8431147,24.7293165 L58.5473349,17.0545459 C58.6604541,16.5182615 59.1967385,16.1945917 59.7160963,16.3085367 C60.2511422,16.4228945 60.5760505,16.9571147 60.4616927,17.4764725" id="Fill-32" fill="#F16549"></path>
                    <path d="M68.7378945,23.3193303 L68.7378945,26.5316697 L73.3782615,26.5316697 C73.9145459,26.5316697 74.3517477,26.9696972 74.3517477,27.505156 C74.3517477,28.0402018 73.9145459,28.463367 73.3782615,28.463367 L67.7635826,28.463367 C67.227711,28.463367 66.8061972,28.0402018 66.8061972,27.505156 L66.8061972,17.1200642 C66.8061972,16.5837798 67.227711,16.1457523 67.7635826,16.1457523 L73.3782615,16.1457523 C73.9145459,16.1457523 74.3517477,16.5837798 74.3517477,17.1200642 C74.3517477,17.6551101 73.9145459,18.0931376 73.3782615,18.0931376 L68.7378945,18.0931376 L68.7378945,21.3872202 L73.3782615,21.3872202 C73.9145459,21.3872202 74.3517477,21.8091468 74.3517477,22.3611193 C74.3517477,22.896578 73.9145459,23.3193303 73.3782615,23.3193303 L68.7378945,23.3193303 Z" id="Fill-34" fill="#F16549"></path>
                    <path d="M89.3458716,17.1526789 C89.3458716,17.7038257 88.9070183,18.1410275 88.3715596,18.1410275 L85.5815596,18.1410275 L85.5815596,27.5047431 C85.5815596,28.0558899 85.1422936,28.4959817 84.6072477,28.4959817 C84.0556881,28.4959817 83.6176606,28.0558899 83.6176606,27.5047431 L83.6176606,18.1410275 L80.8421101,18.1410275 C80.3074771,18.1410275 79.8686239,17.7038257 79.8686239,17.1526789 C79.8686239,16.6155688 80.3074771,16.1775413 80.8421101,16.1775413 L88.3715596,16.1775413 C88.9070183,16.1775413 89.3458716,16.6155688 89.3458716,17.1526789" id="Fill-36" fill="#00A8CB"></path>
                    <path d="M101.516596,18.0931789 C99.1955872,18.0931789 97.3126055,19.9757477 97.3126055,22.2798303 C97.3126055,24.6012523 99.1955872,26.4829954 101.516596,26.4829954 C103.820266,26.4829954 105.703248,24.6012523 105.703248,22.2798303 C105.703248,19.9757477 103.820266,18.0931789 101.516596,18.0931789 M101.516596,28.4464817 C98.1077431,28.4464817 95.3491193,25.6866193 95.3491193,22.2798303 C95.3491193,18.889555 98.1077431,16.1309312 101.516596,16.1309312 C104.90811,16.1309312 107.665908,18.889555 107.665908,22.296344 C107.665908,25.6866193 104.90811,28.4464817 101.516596,28.4464817" id="Fill-38" fill="#00A8CB"></path>
                    <path d="M120.242294,19.8458257 C120.242294,18.9037156 119.46367,18.0433486 118.603716,18.0433486 L115.909908,18.0433486 L115.909908,21.4683028 L118.474083,21.4683028 C119.414954,21.4683028 120.242294,20.7057798 120.242294,19.8458257 M122.173578,19.8458257 C122.173578,21.7593578 120.486697,23.4 118.474083,23.4 L115.909908,23.4 L115.909908,27.4722936 C115.909908,28.0094037 115.488394,28.4305046 114.952523,28.4305046 C114.416239,28.4305046 113.994725,28.0094037 113.994725,27.4722936 L113.994725,17.1677064 C113.994725,16.6652752 114.40055,16.2433486 114.902982,16.2115596 L114.902982,16.1133028 L118.603716,16.1133028 C120.534587,16.1133028 122.173578,17.8171101 122.173578,19.8458257" id="Fill-40" fill="#00A8CB"></path>
                    <path d="M129.637674,28.4462752 C129.101803,28.4462752 128.664188,28.0090734 128.664188,27.4554495 L128.664188,17.1198991 C128.664188,16.5671009 129.101803,16.1307248 129.637674,16.1307248 C130.189647,16.1307248 130.627674,16.5671009 130.627674,17.1198991 L130.627674,27.4554495 C130.627674,28.0090734 130.189647,28.4462752 129.637674,28.4462752" id="Fill-42" fill="#00A8CB"></path>
                    <g id="LOGO-WETOPIA" transform="translate(137.128440, 16.154587)">
                        <mask id="mask-4" fill="white">
                            <use xlink:href="#path-3"></use>
                        </mask>
                        <g id="Clip-45"></g>
                        <path d="M8.0388578,7.35836697 L6.0588578,3.39919266 L4.22500459,7.35836697 L8.0388578,7.35836697 Z M11.5765183,12.2588257 C11.1058761,12.5032294 10.521289,12.308367 10.2781239,11.8368991 L9.01275688,9.30575229 L8.99665596,9.30575229 L3.44638073,9.30575229 C3.39807798,9.30575229 3.36587615,9.30575229 3.33243578,9.28965138 L2.1645,11.8042844 C2.00225229,12.1613945 1.64555505,12.3731835 1.28803211,12.3731835 C1.14188532,12.3731835 1.01266514,12.3413945 0.882619266,12.2757523 C0.396288991,12.0495138 0.185325688,11.4814404 0.41156422,10.9938716 L5.14977523,0.752862385 C5.31284862,0.412266055 5.63734404,0.201715596 6.0101422,0.186027523 L6.02665596,0.186027523 C6.39986697,0.186027523 6.72477523,0.39740367 6.90271101,0.721073394 L12.0149587,10.960844 C12.2581239,11.4475872 12.0628486,12.0325872 11.5765183,12.2588257 L11.5765183,12.2588257 Z" id="Fill-44" fill="#00A8CB" mask="url(#mask-4)"></path>
                    </g>
                </g>
            </g>
        </g>
    </g>
</svg>