<svg width="27" height="31" viewBox="0 0 27 31" xmlns="http://www.w3.org/2000/svg"><title>Notifications</title><g fill="none" fill-rule="evenodd"><path fill="gray" d="M.243 8.171V23.17l12.97 7.502 12.97-7.502V8.17l-12.97-7.5z"/><path d="M11.002 20.936h3.962c.042.484-.41.97-.922.978-.71.01-1.422.01-2.133 0-.5-.008-.948-.5-.907-.978M11.987 10.132c-.019-.375.105-.682.405-.899.327-.235.685-.267 1.043-.085a.939.939 0 0 1 .542.873c.001.076.008.118.098.139 1.342.312 2.117 1.203 2.522 2.462.311.97.405 1.973.367 2.979-.057 1.493.663 2.516 1.879 3.27.09.057.13.11.126.218-.007.277-.002.554-.002.84H7c0-.314-.004-.626.005-.938.001-.038.066-.083.111-.11a4.35 4.35 0 0 0 1.276-1.142 2.978 2.978 0 0 0 .601-1.834c-.006-.8.018-1.598.157-2.389.1-.57.258-1.123.527-1.64.474-.912 1.213-1.485 2.218-1.72l.09-.024" fill="#FEFEFE"/></g></svg>