<svg width="35" height="40" viewBox="0 0 35 40" xmlns="http://www.w3.org/2000/svg"><title>User_ICON</title><g fill="none" fill-rule="evenodd"><path fill="#9B9B9B" d="M17.356 0L0 9.798v19.595l17.357 9.798 17.357-9.798V9.798L17.358 0z"/><path d="M27.184 28.113a2.893 2.893 0 0 1-2.367 1.198H9.851a2.982 2.982 0 0 1-2.382-1.198 2.85 2.85 0 0 1-.366-2.588l.64-1.7.016-.09.092-.103a6.754 6.754 0 0 1 4.077-3.239l1.481-.428-1.069-1.657a5.386 5.386 0 0 1-.824-3.89l.137-.783c.275-1.449 1.085-2.72 2.306-3.55a5.699 5.699 0 0 1 3.314-1.034c1.237 0 2.459.414 3.466 1.139 1.024.783 1.802 1.907 2.077 3.164l.214.887c.336 1.405.046 2.973-.763 4.186l-.978 1.508 1.482.429c1.74.532 3.237 1.715 4.077 3.268l.046.103.03.09.627 1.7c.32.858.183 1.834-.367 2.588" fill="#FFF"/></g></svg>