<?xml version="1.0" encoding="utf-8"?>
<!-- Generator: Adobe Illustrator 17.1.0, SVG Export Plug-In . SVG Version: 6.00 Build 0)  -->
<!DOCTYPE svg PUBLIC "-//W3C//DTD SVG 1.1//EN" "http://www.w3.org/Graphics/SVG/1.1/DTD/svg11.dtd">
<svg version="1.1" id="Layer_1" xmlns="http://www.w3.org/2000/svg" xmlns:xlink="http://www.w3.org/1999/xlink" x="0px" y="0px"
	 viewBox="0 0 226.5 41" enable-background="new 0 0 226.5 41" xml:space="preserve">
<g>
	<defs>
		<rect id="SVGID_1_" y="-213" width="512" height="203"/>
	</defs>
	<clipPath id="SVGID_2_">
		<use xlink:href="#SVGID_1_"  overflow="visible"/>
	</clipPath>
	<g clip-path="url(#SVGID_2_)">
		<defs>
			<rect id="SVGID_3_" x="-11" y="-221" width="532" height="450"/>
		</defs>
		<clipPath id="SVGID_4_">
			<use xlink:href="#SVGID_3_"  overflow="visible"/>
		</clipPath>
	</g>
</g>
<g>
	<defs>
		<path id="SVGID_151_" d="M32,13.6l-3.4,15.1c0,0.1,0,0.2-0.1,0.2v0c0,0.1-0.1,0.1-0.1,0.2l0,0c0,0.1-0.1,0.1-0.1,0.2l0,0
			c0,0-0.1,0.1-0.2,0.1c0,0,0,0,0,0c0,0-0.1,0.1-0.2,0.1h0v0l-0.2,0.1h0l-0.2,0.1h0c-0.1,0-0.1,0-0.2,0h0c0,0-0.1,0-0.1,0h0
			c0,0-0.1,0-0.1,0h0h0c0,0,0,0-0.1,0c0,0,0,0-0.1,0c0,0,0,0,0,0l-0.1,0c0,0,0,0,0,0c0,0,0,0-0.1,0c0,0,0,0,0,0c0,0,0,0-0.1,0
			c0,0,0,0,0,0l0,0c0,0,0,0-0.1,0c0,0,0,0,0-0.1c0,0,0,0,0,0c0,0,0,0,0,0l0-0.1c0,0,0,0,0-0.1c0,0,0,0,0,0L22.1,22l-3.6,7.1
			c0,0,0,0,0,0l-0.1,0.1c0,0,0,0,0,0c0,0-0.1,0.1-0.1,0.1c0,0,0,0,0,0c0,0-0.1,0.1-0.1,0.1c0,0,0,0,0,0l-0.1,0.1l-0.2,0.1h0
			c0,0-0.1,0-0.1,0c0,0,0,0,0,0h0c0,0-0.1,0-0.1,0h-0.1c0,0-0.1,0-0.2,0c-0.1,0-0.1,0-0.2,0h0c-0.1,0-0.1,0-0.2,0c0,0,0,0,0,0
			l-0.2-0.1h0c0,0,0,0,0,0c0,0-0.1-0.1-0.2-0.1c-0.1,0-0.1-0.1-0.2-0.1c0,0,0,0,0,0c0-0.1-0.1-0.1-0.1-0.2c0,0,0,0,0,0
			c0,0-0.1-0.1-0.1-0.2h0c0-0.1,0-0.1-0.1-0.2v0l-3.6-15.1c-0.2-0.8,0.3-1.6,1.1-1.7c0.8-0.2,1.6,0.3,1.8,1.1l2.7,11.3l3.1-6.1
			c0.3-0.5,0.7-0.8,1.3-0.8c0.5,0,1,0.3,1.3,0.8l3.3,6.1L29.2,13c0.2-0.8,1-1.3,1.7-1.1C31.7,12,32.2,12.8,32,13.6"/>
	</defs>
	<clipPath id="SVGID_6_">
		<use xlink:href="#SVGID_151_"  overflow="visible"/>
	</clipPath>
	<g clip-path="url(#SVGID_6_)">
		<defs>
			<rect id="SVGID_153_" x="-144" y="-170" width="532" height="450"/>
		</defs>
		<clipPath id="SVGID_8_">
			<use xlink:href="#SVGID_153_"  overflow="visible"/>
		</clipPath>
		<rect x="7.1" y="6.8" clip-path="url(#SVGID_8_)" fill="#F16649" width="30" height="28"/>
	</g>
</g>
<g>
	<defs>
		<path id="SVGID_155_" d="M44.3,22.2v4.7h6.9c0.8,0,1.4,0.6,1.4,1.4c0,0.8-0.6,1.4-1.4,1.4h-8.3c-0.8,0-1.4-0.6-1.4-1.4V13.1
			c0-0.8,0.6-1.4,1.4-1.4h8.3c0.8,0,1.4,0.6,1.4,1.4c0,0.8-0.6,1.4-1.4,1.4h-6.9v4.9h6.9c0.8,0,1.4,0.6,1.4,1.4
			c0,0.8-0.6,1.4-1.4,1.4H44.3z"/>
	</defs>
	<clipPath id="SVGID_10_">
		<use xlink:href="#SVGID_155_"  overflow="visible"/>
	</clipPath>
	<g clip-path="url(#SVGID_10_)">
		<defs>
			<rect id="SVGID_157_" x="-144" y="-170" width="532" height="450"/>
		</defs>
		<clipPath id="SVGID_12_">
			<use xlink:href="#SVGID_157_"  overflow="visible"/>
		</clipPath>
		<rect x="36.4" y="6.6" clip-path="url(#SVGID_12_)" fill="#F16649" width="21.2" height="28.2"/>
	</g>
</g>
<g>
	<defs>
		<path id="SVGID_159_" d="M75,13.1c0,0.8-0.7,1.5-1.4,1.5h-4.1v13.8c0,0.8-0.7,1.5-1.4,1.5c-0.8,0-1.5-0.6-1.5-1.5V14.6h-4.1
			c-0.8,0-1.4-0.6-1.4-1.5c0-0.8,0.7-1.4,1.4-1.4h11.2C74.3,11.7,75,12.3,75,13.1"/>
	</defs>
	<clipPath id="SVGID_14_">
		<use xlink:href="#SVGID_159_"  overflow="visible"/>
	</clipPath>
	<g clip-path="url(#SVGID_14_)">
		<defs>
			<rect id="SVGID_161_" x="-144" y="-170" width="532" height="450"/>
		</defs>
		<clipPath id="SVGID_16_">
			<use xlink:href="#SVGID_161_"  overflow="visible"/>
		</clipPath>
		<rect x="55.9" y="6.7" clip-path="url(#SVGID_16_)" fill="#00A8CA" width="24.1" height="28.2"/>
	</g>
</g>
<g>
	<defs>
		<path id="SVGID_163_" d="M93,29.8c-5.1,0-9.2-4.1-9.2-9.1c0-5,4.1-9.1,9.2-9.1c5,0,9.1,4.1,9.1,9.1C102.2,25.7,98.1,29.8,93,29.8
			 M93,14.5c-3.5,0-6.2,2.8-6.2,6.2c0,3.4,2.8,6.2,6.2,6.2c3.4,0,6.2-2.8,6.2-6.2C99.3,17.3,96.5,14.5,93,14.5"/>
	</defs>
	<clipPath id="SVGID_18_">
		<use xlink:href="#SVGID_163_"  overflow="visible"/>
	</clipPath>
	<g clip-path="url(#SVGID_18_)">
		<defs>
			<rect id="SVGID_165_" x="-144" y="-170" width="532" height="450"/>
		</defs>
		<clipPath id="SVGID_20_">
			<use xlink:href="#SVGID_165_"  overflow="visible"/>
		</clipPath>
		<rect x="78.9" y="6.6" clip-path="url(#SVGID_20_)" fill="#00A8CA" width="28.3" height="28.1"/>
	</g>
</g>
<g>
	<defs>
		<path id="SVGID_167_" d="M123.8,17.1c0,2.8-2.5,5.2-5.5,5.2h-3.8v6c0,0.8-0.6,1.4-1.4,1.4c-0.8,0-1.4-0.6-1.4-1.4V13.1
			c0-0.7,0.6-1.4,1.4-1.4v-0.1h5.5C121.3,11.6,123.8,14.1,123.8,17.1 M120.9,17.1c0-1.4-1.2-2.7-2.4-2.7h-4v5h3.8
			C119.7,19.5,120.9,18.4,120.9,17.1"/>
	</defs>
	<clipPath id="SVGID_22_">
		<use xlink:href="#SVGID_167_"  overflow="visible"/>
	</clipPath>
	<g clip-path="url(#SVGID_22_)">
		<defs>
			<rect id="SVGID_169_" x="-144" y="-170" width="532" height="450"/>
		</defs>
		<clipPath id="SVGID_24_">
			<use xlink:href="#SVGID_169_"  overflow="visible"/>
		</clipPath>
		<rect x="106.6" y="6.6" clip-path="url(#SVGID_24_)" fill="#00A8CA" width="22.2" height="28.2"/>
	</g>
</g>
<g>
	<defs>
		<path id="SVGID_171_" d="M134.9,29.8c-0.8,0-1.4-0.6-1.4-1.5V13.1c0-0.8,0.7-1.5,1.4-1.5c0.8,0,1.5,0.6,1.5,1.5v15.2
			C136.3,29.1,135.7,29.8,134.9,29.8"/>
	</defs>
	<clipPath id="SVGID_26_">
		<use xlink:href="#SVGID_171_"  overflow="visible"/>
	</clipPath>
	<g clip-path="url(#SVGID_26_)">
		<defs>
			<rect id="SVGID_173_" x="-144" y="-170" width="532" height="450"/>
		</defs>
		<clipPath id="SVGID_28_">
			<use xlink:href="#SVGID_173_"  overflow="visible"/>
		</clipPath>
		<rect x="128.4" y="6.6" clip-path="url(#SVGID_28_)" fill="#00A8CA" width="12.9" height="28.1"/>
	</g>
</g>
<g>
	<defs>
		<rect id="SVGID_175_" x="146.5" y="11.9" width="17.5" height="18"/>
	</defs>
	<clipPath id="SVGID_30_">
		<use xlink:href="#SVGID_175_"  overflow="visible"/>
	</clipPath>
	<g clip-path="url(#SVGID_30_)">
		<defs>
			<rect id="SVGID_177_" x="-144" y="-170" width="532" height="450"/>
		</defs>
		<clipPath id="SVGID_32_">
			<use xlink:href="#SVGID_177_"  overflow="visible"/>
		</clipPath>
		<g clip-path="url(#SVGID_32_)" enable-background="new    ">
			<g>
				<defs>
					<rect id="SVGID_179_" x="146" y="11" width="19" height="19"/>
				</defs>
				<clipPath id="SVGID_34_">
					<use xlink:href="#SVGID_179_"  overflow="visible"/>
				</clipPath>
				<g clip-path="url(#SVGID_34_)">
					<defs>
						<path id="SVGID_181_" d="M163.2,29.7c-0.7,0.4-1.6,0.1-1.9-0.6l-1.9-3.7h0h-8.3c-0.1,0-0.1,0-0.2,0l-1.7,3.7
							c-0.2,0.5-0.8,0.8-1.3,0.8c-0.2,0-0.4,0-0.6-0.1c-0.7-0.3-1-1.2-0.7-1.9l7-15.1c0.2-0.5,0.7-0.8,1.3-0.8h0
							c0.6,0,1,0.3,1.3,0.8l7.6,15.1C164.2,28.5,163.9,29.4,163.2,29.7z M157.9,22.5l-2.9-5.8l-2.7,5.8H157.9z"/>
					</defs>
					<clipPath id="SVGID_36_">
						<use xlink:href="#SVGID_181_"  overflow="visible"/>
					</clipPath>
					<g clip-path="url(#SVGID_36_)">
						<defs>
							<rect id="SVGID_183_" x="146" y="11" width="19" height="19"/>
						</defs>
						<clipPath id="SVGID_38_">
							<use xlink:href="#SVGID_183_"  overflow="visible"/>
						</clipPath>
						<rect x="141.5" y="6.9" clip-path="url(#SVGID_38_)" fill="#00A8CA" width="27.5" height="28"/>
					</g>
				</g>
			</g>
		</g>
	</g>
</g>
<g>
	<defs>
		<rect id="SVGID_185_" x="-144" y="-170" width="532" height="450"/>
	</defs>
	<clipPath id="SVGID_40_">
		<use xlink:href="#SVGID_185_"  overflow="visible"/>
	</clipPath>
	<g clip-path="url(#SVGID_40_)">
		<text transform="matrix(1 0 0 1 171.833 29)" fill="#00C1D5" font-family="'MuseoSans-700'" font-size="22">Beta</text>
	</g>
</g>
<g>
	<g>
		<defs>
			<path id="SVGID_187_" d="M55.8,83.5c9.2,0,17.2,4.7,21.9,11.8c0-3.7-1-7.4-2.9-10.7c-0.9-1.6-2.1-3.2-3.5-4.5
				c-1.4-1.4-2.9-2.5-4.6-3.5c-6.8-3.9-15.1-3.9-21.9,0c-1.6,0.9-3.2,2.1-4.6,3.5c-1.4,1.4-2.5,2.9-3.5,4.5c-1.9,3.3-2.9,7-2.9,10.7
				C38.6,88.2,46.6,83.5,55.8,83.5"/>
		</defs>
		<clipPath id="SVGID_42_">
			<use xlink:href="#SVGID_187_"  overflow="visible"/>
		</clipPath>
		<g clip-path="url(#SVGID_42_)">
			<defs>
				<rect id="SVGID_189_" x="-210.4" y="22.6" width="532" height="450"/>
			</defs>
			<clipPath id="SVGID_44_">
				<use xlink:href="#SVGID_189_"  overflow="visible"/>
			</clipPath>
		</g>
	</g>
	<g>
		<defs>
			<path id="SVGID_191_" d="M34.3,99.8c0.4,0.4,0.8,0.9,1.2,1.3c1.8,1.8,3.8,3.3,6,4.5c8.8,5.1,19.8,5.1,28.6,0
				c2.1-1.2,4.1-2.7,6-4.5c0.4-0.4,0.8-0.9,1.2-1.3c0.3-1.5,0.4-3,0.4-4.5C73,88.2,65,83.5,55.8,83.5c-9.2,0-17.2,4.7-21.9,11.8
				C33.9,96.8,34,98.3,34.3,99.8"/>
		</defs>
		<clipPath id="SVGID_46_">
			<use xlink:href="#SVGID_191_"  overflow="visible"/>
		</clipPath>
		<g clip-path="url(#SVGID_46_)">
			<defs>
				<rect id="SVGID_193_" x="-210.4" y="22.6" width="532" height="450"/>
			</defs>
			<clipPath id="SVGID_48_">
				<use xlink:href="#SVGID_193_"  overflow="visible"/>
			</clipPath>
		</g>
	</g>
	<g>
		<defs>
			<path id="SVGID_195_" d="M55.8,70.9c-4-1.3-8.1-2-12.2-2c-1.9,0-3.8,0.1-5.6,0.4l-7.7,4.4l-2.5,1.4c-1.2,5.8-0.5,11.8,1.9,17.3
				c0.4,0.9,0.8,1.8,1.3,2.7c0,0,0,0,0,0.1c0.1,0.1,0.1,0.2,0.2,0.3c0.4,0.7,0.9,1.5,1.4,2.2c0.5,0.8,1.1,1.5,1.7,2.2
				c-0.3-1.5-0.4-3-0.4-4.5c0-3.7,1-7.4,2.9-10.7c0.9-1.6,2.1-3.2,3.5-4.6c1.4-1.4,2.9-2.5,4.6-3.5c6.8-3.9,15.1-3.9,21.9,0
				C63.4,74.1,59.7,72.2,55.8,70.9"/>
		</defs>
		<clipPath id="SVGID_50_">
			<use xlink:href="#SVGID_195_"  overflow="visible"/>
		</clipPath>
		<g clip-path="url(#SVGID_50_)">
			<defs>
				<rect id="SVGID_197_" x="-210.4" y="22.6" width="532" height="450"/>
			</defs>
			<clipPath id="SVGID_52_">
				<use xlink:href="#SVGID_197_"  overflow="visible"/>
			</clipPath>
		</g>
	</g>
	<g>
		<defs>
			<path id="SVGID_199_" d="M91.5,79.5l-10.2-5.9l-7.7-4.4l-3-1.7l-12.4-7.1c-1.5-0.9-3.5-0.9-5,0l-15.4,8.9h0
				c1.9-0.3,3.8-0.4,5.6-0.4c4.1,0,8.3,0.7,12.2,2c3.9,1.3,7.6,3.2,11,5.7c1.6,0.9,3.2,2.1,4.6,3.5c1.4,1.4,2.5,2.9,3.5,4.6
				c1.9,3.3,2.9,7,2.9,10.7c0,1.5-0.1,3-0.4,4.5c0.6-0.7,1.2-1.5,1.7-2.2c0.5-0.7,1-1.4,1.4-2.2c0.1-0.1,0.1-0.2,0.2-0.3
				c0,0,0,0,0-0.1c0.5-0.9,0.9-1.8,1.3-2.7c2.4-5.5,3-11.5,1.9-17.3l2.6,1.5l2.5,1.4L91.5,79.5"/>
		</defs>
		<clipPath id="SVGID_54_">
			<use xlink:href="#SVGID_199_"  overflow="visible"/>
		</clipPath>
		<g clip-path="url(#SVGID_54_)">
			<defs>
				<rect id="SVGID_201_" x="-210.4" y="22.6" width="532" height="450"/>
			</defs>
			<clipPath id="SVGID_56_">
				<use xlink:href="#SVGID_201_"  overflow="visible"/>
			</clipPath>
		</g>
	</g>
	<g>
		<defs>
			<path id="SVGID_203_" d="M91.3,112c-1,0.4-2.1,0.8-3.2,1.2c-2,0.7-4.1,1.2-6.2,1.6c-0.1,0-0.3,0.1-0.4,0.1
				c-4.7,0.9-9.4,1.1-14.2,0.7c-0.6-0.1-1.2-0.1-1.7-0.2c-0.1,0-0.2,0-0.3,0c-3.2-0.4-6.4-1.1-9.5-2.2c-5.1-1.7-9.9-4.2-14.3-7.5
				c-2.1-1.2-4.1-2.7-6-4.5c-0.4-0.4-0.8-0.9-1.2-1.3c-0.6-0.7-1.2-1.5-1.7-2.2c-0.5-0.7-1-1.4-1.4-2.2c-0.1-0.1-0.1-0.2-0.2-0.3
				c0,0,0,0,0-0.1c-0.5-0.9-0.9-1.8-1.3-2.7c-2.4-5.5-3-11.5-1.9-17.3l-2.6,1.5L22.7,78l-10.8,6.2c-0.5,0.3-0.9,0.7-1.3,1.1
				c0,0,0,0,0,0.1v0c0,0.1,0,0.1,0,0.2c0,4,0.6,7.9,1.6,11.7c1.4,5.1,3.6,9.8,6.5,14c1.1,1.6,2.4,3.2,3.7,4.7
				c0.2,0.2,0.3,0.3,0.5,0.5c1,1.1,2.1,2.2,3.2,3.1c2,1.8,4.2,3.4,6.6,4.8c0.8,0.5,1.6,0.9,2.4,1.3c2.1,1.1,4.3,2,6.7,2.8l-5.3-5.3
				c-0.4-0.4-0.5-1.1-0.2-1.6c0.1-0.1,0.1-0.2,0.2-0.3c0.2-0.2,0.6-0.4,0.9-0.4c0.4,0,0.7,0.1,0.9,0.4L39,122l7.9,7.8
				c2.7,0.6,5.5,0.9,8.4,0.9l-1.6-1.6c-0.3-0.2-0.4-0.6-0.4-0.9s0.1-0.7,0.4-0.9c0.2-0.2,0.6-0.4,0.9-0.4c0.4,0,0.7,0.1,0.9,0.4
				l3.3,3.3c2.2-0.2,4.4-0.5,6.5-1l-6.5-6.4c-0.2-0.2-0.4-0.6-0.4-0.9c0-0.4,0.1-0.7,0.4-0.9c0.1-0.1,0.2-0.1,0.3-0.2
				c0.2-0.1,0.4-0.2,0.7-0.2c0.4,0,0.7,0.1,0.9,0.4l0.2,0.2l7.4,7.3c2.8-0.8,5.5-1.9,8.1-3.2c0.8-0.4,1.6-0.9,2.4-1.3
				c0.5-0.3,1.1-0.6,1.6-1h-1.1h-1.2h-7c-0.7,0-1.2-0.5-1.3-1.2c0-0.1,0-0.1,0-0.2c0-0.7,0.6-1.3,1.3-1.3h7.9h0.5h0.8h3.7
				c0.5-0.4,0.9-0.7,1.4-1.1c1.1-1,2.2-2,3.2-3.1c0.2-0.2,0.3-0.4,0.5-0.5c1.3-1.5,2.6-3,3.7-4.6C92.4,111.5,91.9,111.7,91.3,112"/>
		</defs>
		<clipPath id="SVGID_58_">
			<use xlink:href="#SVGID_203_"  overflow="visible"/>
		</clipPath>
		<g clip-path="url(#SVGID_58_)">
			<defs>
				<rect id="SVGID_205_" x="-210.4" y="22.6" width="532" height="450"/>
			</defs>
			<clipPath id="SVGID_60_">
				<use xlink:href="#SVGID_205_"  overflow="visible"/>
			</clipPath>
		</g>
	</g>
	<g>
		<defs>
			<path id="SVGID_207_" d="M101,85.4L101,85.4C101,85.4,101,85.4,101,85.4c-0.4-0.5-0.8-0.9-1.3-1.2l-0.2-0.1l0,0l-8-4.6L88.9,78
				l-2.5-1.4l-2.6-1.5c1.2,5.8,0.6,11.8-1.9,17.3c-0.4,0.9-0.8,1.8-1.3,2.7c0,0,0,0,0,0.1c-0.1,0.1-0.1,0.2-0.2,0.3
				c-0.4,0.7-0.9,1.5-1.4,2.2c-0.5,0.8-1.1,1.5-1.7,2.2c-0.4,0.4-0.8,0.9-1.2,1.3c-1.8,1.8-3.8,3.3-6,4.5c-8.8,5.1-19.8,5.1-28.6,0
				c4.4,3.3,9.3,5.8,14.3,7.5c3.1,1,6.3,1.8,9.5,2.2c0.1,0,0.2,0,0.3,0c0.6,0.1,1.2,0.1,1.7,0.2c4.7,0.4,9.5,0.2,14.2-0.7
				c0.1,0,0.3,0,0.4-0.1c2.1-0.4,4.2-0.9,6.2-1.6c1.1-0.4,2.1-0.7,3.2-1.2c0.5-0.2,1.1-0.5,1.6-0.7c2.9-4.2,5.2-8.9,6.5-14
				c1-3.7,1.6-7.6,1.6-11.7C101,85.5,101,85.5,101,85.4"/>
		</defs>
		<clipPath id="SVGID_62_">
			<use xlink:href="#SVGID_207_"  overflow="visible"/>
		</clipPath>
		<g clip-path="url(#SVGID_62_)">
			<defs>
				<rect id="SVGID_209_" x="-210.4" y="22.6" width="532" height="450"/>
			</defs>
			<clipPath id="SVGID_64_">
				<use xlink:href="#SVGID_209_"  overflow="visible"/>
			</clipPath>
		</g>
	</g>
	<g>
		<defs>
			<path id="SVGID_211_" d="M101,85.3C101,85.4,101,85.4,101,85.3L101,85.3c0,0.1,0,0.2,0,0.3c0,4-0.6,7.9-1.6,11.7
				c-1.4,5.1-3.6,9.8-6.5,14c-1.1,1.6-2.4,3.2-3.7,4.6c-0.2,0.2-0.3,0.4-0.5,0.5c-1,1.1-2.1,2.1-3.2,3.1c-0.4,0.4-0.9,0.8-1.4,1.1
				h0.8h0.8h0.8c0.3,0,0.6,0.1,0.9,0.3c0.3,0.2,0.4,0.6,0.4,1c0,0.7-0.6,1.3-1.3,1.3h-2.3h-0.8h-0.1h-2.8c-0.5,0.3-1,0.7-1.6,1
				c-0.8,0.5-1.6,0.9-2.4,1.3c-2.6,1.3-5.3,2.4-8.1,3.2l0.1,0.1c2.1-0.3,4.2-0.7,6.2-1.2c1-0.2,1.9-0.5,2.9-0.7
				c0.2,0,0.3-0.1,0.5-0.1c0.6-0.2,1.3-0.4,1.9-0.6c4.1-1.3,8.1-2.9,11.9-4.8c3.6-1.8,7-3.8,10.2-6.1v-12.7V88.5v0v-0.2
				C102,87.2,101.7,86.2,101,85.3"/>
		</defs>
		<clipPath id="SVGID_66_">
			<use xlink:href="#SVGID_211_"  overflow="visible"/>
		</clipPath>
		<g clip-path="url(#SVGID_66_)">
			<defs>
				<rect id="SVGID_213_" x="-210.4" y="22.6" width="532" height="450"/>
			</defs>
			<clipPath id="SVGID_68_">
				<use xlink:href="#SVGID_213_"  overflow="visible"/>
			</clipPath>
		</g>
	</g>
	<g>
		<defs>
			<rect id="SVGID_215_" x="9.6" y="85.3" width="54.1" height="79.5"/>
		</defs>
		<clipPath id="SVGID_70_">
			<use xlink:href="#SVGID_215_"  overflow="visible"/>
		</clipPath>
		<g clip-path="url(#SVGID_70_)">
			<defs>
				<rect id="SVGID_217_" x="-210.4" y="22.6" width="532" height="450"/>
			</defs>
			<clipPath id="SVGID_72_">
				<use xlink:href="#SVGID_217_"  overflow="visible"/>
			</clipPath>
		</g>
	</g>
	<g>
		<defs>
			<path id="SVGID_225_" d="M91.8,121.6c-3.8,1.9-7.8,3.5-11.9,4.8c-0.6,0.2-1.3,0.4-1.9,0.6c-0.2,0-0.3,0.1-0.5,0.1
				c-0.9,0.3-1.9,0.5-2.9,0.7c-2,0.5-4.1,0.9-6.2,1.2l1.1,1.1l1.1,1.1l0.4,0.4l5.3,5.3c0.5,0.5,0.5,1.4,0,1.9
				c-0.3,0.2-0.6,0.4-0.9,0.4s-0.7-0.1-0.9-0.4l-6.1-6.1l0,0l-1.8-1.8l-1.2-1.1c-2.1,0.5-4.3,0.8-6.5,1l1.1,1.1l2.3,2.3l0.7,0.7
				l1.7,1.7c0.5,0.5,0.5,1.4,0,1.9c-0.3,0.2-0.6,0.4-0.9,0.4c-0.4,0-0.7-0.1-0.9-0.4l-2.9-2.9l-1-1l-2.6-2.6l-1.2-1.2
				c-2.9,0-5.7-0.4-8.4-0.9l1.6,1.6l3,3l1.2,1.2l1.2,1.2c0.5,0.5,0.5,1.4,0,1.9c-0.3,0.3-0.6,0.4-0.9,0.4c-0.4,0-0.7-0.1-0.9-0.4
				l-4.1-4.1l-1-1l-3.1-3.1l-1.7-1.7l-0.4-0.4c-2.3-0.8-4.5-1.7-6.7-2.8c-0.8-0.4-1.6-0.9-2.4-1.3c-2.3-1.4-4.5-3-6.6-4.8
				c-1.1-1-2.2-2-3.2-3.1c-0.2-0.2-0.3-0.3-0.5-0.5c-1.3-1.5-2.6-3-3.7-4.7c-2.9-4.2-5.2-8.9-6.5-14c0.6,4.2,1.5,8.2,2.8,12.1
				c0.4,1.3,0.8,2.6,1.3,3.8c1,2.9,2.2,5.6,3.6,8.3c7.8,15.6,20.5,28.2,36,36.1c2.5,1.3,5.2,2.4,7.8,3.4c0,0,0,0,0,0l35.9-20.7
				c0,0,0,0,0,0l0,0c0,0,0,0,0,0l0.2-0.1c0.5-0.3,0.9-0.6,1.2-1.1h-0.1h0H87c-0.7,0-1.3-0.6-1.3-1.3c0-0.7,0.6-1.3,1.3-1.3h15h0h0
				c0-0.1,0-0.2,0-0.3V136v0v-20.6C98.8,117.7,95.4,119.8,91.8,121.6 M86.1,131.3L86.1,131.3h-6.4c-0.7,0-1.3-0.6-1.3-1.3
				c0-0.7,0.6-1.3,1.3-1.3h6.4c0.5,0,1,0.3,1.2,0.8c0.1,0.2,0.1,0.4,0.1,0.6C87.4,130.7,86.9,131.3,86.1,131.3"/>
		</defs>
		<clipPath id="SVGID_74_">
			<use xlink:href="#SVGID_225_"  overflow="visible"/>
		</clipPath>
		<g clip-path="url(#SVGID_74_)">
			<defs>
				<rect id="SVGID_227_" x="-210.4" y="22.6" width="532" height="450"/>
			</defs>
			<clipPath id="SVGID_76_">
				<use xlink:href="#SVGID_227_"  overflow="visible"/>
			</clipPath>
		</g>
	</g>
	<g>
		<defs>
			<path id="SVGID_229_" d="M52.7,135.6l-1.2-1.2l-3-3l-1.6-1.6L39,122l-0.7-0.7c-0.2-0.2-0.6-0.4-0.9-0.4c-0.4,0-0.7,0.1-0.9,0.4
				c-0.1,0.1-0.1,0.2-0.2,0.3c-0.3,0.5-0.2,1.1,0.2,1.6l5.3,5.3l0.4,0.4l1.7,1.7l3.1,3.1l1,1l4.1,4.1c0.3,0.3,0.6,0.4,0.9,0.4
				c0.4,0,0.7-0.1,0.9-0.4c0.5-0.5,0.5-1.4,0-1.9L52.7,135.6z"/>
		</defs>
		<clipPath id="SVGID_78_">
			<use xlink:href="#SVGID_229_"  overflow="visible"/>
		</clipPath>
		<g clip-path="url(#SVGID_78_)">
			<defs>
				<rect id="SVGID_231_" x="-210.4" y="22.6" width="532" height="450"/>
			</defs>
			<clipPath id="SVGID_80_">
				<use xlink:href="#SVGID_231_"  overflow="visible"/>
			</clipPath>
		</g>
	</g>
	<g>
		<defs>
			<path id="SVGID_233_" d="M71,131.5l-0.4-0.4l-1.1-1.1l-1.1-1.1l-0.1-0.1l-7.4-7.3l-0.2-0.2c-0.3-0.2-0.6-0.4-0.9-0.4
				c-0.2,0-0.5,0.1-0.7,0.2c-0.1,0.1-0.2,0.1-0.3,0.2c-0.2,0.2-0.4,0.6-0.4,0.9c0,0.4,0.1,0.7,0.4,0.9l6.5,6.4l1.2,1.1l1.8,1.8l0,0
				l6.1,6.1c0.2,0.2,0.6,0.4,0.9,0.4c0.4,0,0.7-0.1,0.9-0.4c0.5-0.5,0.5-1.4,0-1.9L71,131.5z"/>
		</defs>
		<clipPath id="SVGID_82_">
			<use xlink:href="#SVGID_233_"  overflow="visible"/>
		</clipPath>
		<g clip-path="url(#SVGID_82_)">
			<defs>
				<rect id="SVGID_235_" x="-210.4" y="22.6" width="532" height="450"/>
			</defs>
			<clipPath id="SVGID_84_">
				<use xlink:href="#SVGID_235_"  overflow="visible"/>
			</clipPath>
		</g>
	</g>
	<g>
		<defs>
			<path id="SVGID_237_" d="M63.1,134.8l-0.7-0.7l-2.3-2.3l-1.1-1.1l-3.3-3.3c-0.2-0.2-0.6-0.4-0.9-0.4c-0.4,0-0.7,0.1-0.9,0.4
				c-0.3,0.2-0.4,0.6-0.4,0.9c0,0.4,0.1,0.7,0.4,0.9l1.6,1.6l1.2,1.2l2.6,2.6l1,1l2.9,2.9c0.2,0.2,0.6,0.4,0.9,0.4
				c0.4,0,0.7-0.1,0.9-0.4c0.5-0.5,0.5-1.4,0-1.9L63.1,134.8z"/>
		</defs>
		<clipPath id="SVGID_86_">
			<use xlink:href="#SVGID_237_"  overflow="visible"/>
		</clipPath>
		<g clip-path="url(#SVGID_86_)">
			<defs>
				<rect id="SVGID_239_" x="-210.4" y="22.6" width="532" height="450"/>
			</defs>
			<clipPath id="SVGID_88_">
				<use xlink:href="#SVGID_239_"  overflow="visible"/>
			</clipPath>
		</g>
	</g>
	<g>
		<defs>
			<path id="SVGID_241_" d="M80.5,123.3h2.8h0.1h0.8h2.3c0.7,0,1.3-0.6,1.3-1.3c0-0.4-0.2-0.7-0.4-1c-0.2-0.2-0.5-0.3-0.9-0.3h-0.8
				h-0.8h-0.8h-3.7h-0.8h-0.5h-7.9c-0.7,0-1.3,0.6-1.3,1.3c0,0.1,0,0.1,0,0.2c0.1,0.6,0.6,1.2,1.3,1.2h7h1.2H80.5z"/>
		</defs>
		<clipPath id="SVGID_90_">
			<use xlink:href="#SVGID_241_"  overflow="visible"/>
		</clipPath>
		<g clip-path="url(#SVGID_90_)">
			<defs>
				<rect id="SVGID_243_" x="-210.4" y="22.6" width="532" height="450"/>
			</defs>
			<clipPath id="SVGID_92_">
				<use xlink:href="#SVGID_243_"  overflow="visible"/>
			</clipPath>
		</g>
	</g>
	<g>
		<defs>
			<path id="SVGID_245_" d="M102,136.6L102,136.6H87c-0.7,0-1.3,0.6-1.3,1.3c0,0.7,0.6,1.3,1.3,1.3h13.9h0h0.1
				C101.6,138.5,101.9,137.5,102,136.6L102,136.6z"/>
		</defs>
		<clipPath id="SVGID_94_">
			<use xlink:href="#SVGID_245_"  overflow="visible"/>
		</clipPath>
		<g clip-path="url(#SVGID_94_)">
			<defs>
				<rect id="SVGID_247_" x="-210.4" y="22.6" width="532" height="450"/>
			</defs>
			<clipPath id="SVGID_96_">
				<use xlink:href="#SVGID_247_"  overflow="visible"/>
			</clipPath>
		</g>
	</g>
	<g>
		<defs>
			<path id="SVGID_249_" d="M86.1,131.3c0.7,0,1.3-0.6,1.3-1.3c0-0.2-0.1-0.4-0.1-0.6c-0.2-0.4-0.7-0.8-1.2-0.8h-6.4
				c-0.7,0-1.3,0.6-1.3,1.3c0,0.7,0.6,1.3,1.3,1.3H86.1L86.1,131.3z"/>
		</defs>
		<clipPath id="SVGID_98_">
			<use xlink:href="#SVGID_249_"  overflow="visible"/>
		</clipPath>
		<g clip-path="url(#SVGID_98_)">
			<defs>
				<rect id="SVGID_251_" x="-210.4" y="22.6" width="532" height="450"/>
			</defs>
			<clipPath id="SVGID_100_">
				<use xlink:href="#SVGID_251_"  overflow="visible"/>
			</clipPath>
		</g>
	</g>
</g>
<g>
	<defs>
		<path id="SVGID_253_" d="M272.4,94.5H134.9c-3.4,0-6.2-2.6-6.2-5.8V65.3c0-3.2,2.8-5.8,6.2-5.8h137.4c3.4,0,6.2,2.6,6.2,5.8v23.3
			C278.6,91.9,275.8,94.5,272.4,94.5"/>
	</defs>
	<clipPath id="SVGID_102_">
		<use xlink:href="#SVGID_253_"  overflow="visible"/>
	</clipPath>
	<g clip-path="url(#SVGID_102_)">
		<defs>
			<rect id="SVGID_255_" x="-62.2" y="-280.5" width="532" height="450"/>
		</defs>
		<clipPath id="SVGID_104_">
			<use xlink:href="#SVGID_255_"  overflow="visible"/>
		</clipPath>
	</g>
</g>
<g>
	<defs>
		<rect id="SVGID_257_" x="-62.2" y="-280.5" width="532" height="450"/>
	</defs>
	<clipPath id="SVGID_106_">
		<use xlink:href="#SVGID_257_"  overflow="visible"/>
	</clipPath>
</g>
</svg>
