<?xml version="1.0" encoding="utf-8"?>
<!-- Generator: Adobe Illustrator 17.1.0, SVG Export Plug-In . SVG Version: 6.00 Build 0)  -->
<!DOCTYPE svg PUBLIC "-//W3C//DTD SVG 1.1//EN" "http://www.w3.org/Graphics/SVG/1.1/DTD/svg11.dtd">
<svg version="1.1" id="Layer_1" xmlns="http://www.w3.org/2000/svg" xmlns:xlink="http://www.w3.org/1999/xlink" x="0px" y="0px"
	 viewBox="0 0 111.6 114.5" enable-background="new 0 0 111.6 114.5" xml:space="preserve">
<g>
	<defs>
		<rect id="SVGID_1_" y="-268" width="512" height="203"/>
	</defs>
	<clipPath id="SVGID_2_">
		<use xlink:href="#SVGID_1_"  overflow="visible"/>
	</clipPath>
	<g clip-path="url(#SVGID_2_)">
		<defs>
			<rect id="SVGID_3_" x="-11" y="-276" width="532" height="450"/>
		</defs>
		<clipPath id="SVGID_4_">
			<use xlink:href="#SVGID_3_"  overflow="visible"/>
		</clipPath>
	</g>
</g>
<g>
	<defs>
		<path id="SVGID_151_" d="M32-41.4l-3.4,15.1c0,0.1,0,0.2-0.1,0.2v0c0,0.1-0.1,0.1-0.1,0.2l0,0c0,0.1-0.1,0.1-0.1,0.2l0,0
			c0,0-0.1,0.1-0.2,0.1c0,0,0,0,0,0c0,0-0.1,0.1-0.2,0.1h0v0l-0.2,0.1h0l-0.2,0.1h0c-0.1,0-0.1,0-0.2,0h0c0,0-0.1,0-0.1,0h0
			c0,0-0.1,0-0.1,0h0h0c0,0,0,0-0.1,0c0,0,0,0-0.1,0c0,0,0,0,0,0l-0.1,0c0,0,0,0,0,0c0,0,0,0-0.1,0c0,0,0,0,0,0c0,0,0,0-0.1,0
			c0,0,0,0,0,0l0,0c0,0,0,0-0.1,0c0,0,0,0,0-0.1c0,0,0,0,0,0c0,0,0,0,0,0l0-0.1c0,0,0,0,0-0.1c0,0,0,0,0,0L22.1-33l-3.6,7.1
			c0,0,0,0,0,0l-0.1,0.1c0,0,0,0,0,0c0,0-0.1,0.1-0.1,0.1c0,0,0,0,0,0c0,0-0.1,0.1-0.1,0.1c0,0,0,0,0,0l-0.1,0.1l-0.2,0.1h0
			c0,0-0.1,0-0.1,0c0,0,0,0,0,0h0c0,0-0.1,0-0.1,0h-0.1c0,0-0.1,0-0.2,0c-0.1,0-0.1,0-0.2,0h0c-0.1,0-0.1,0-0.2,0c0,0,0,0,0,0
			l-0.2-0.1h0c0,0,0,0,0,0c0,0-0.1-0.1-0.2-0.1c-0.1,0-0.1-0.1-0.2-0.1c0,0,0,0,0,0c0-0.1-0.1-0.1-0.1-0.2c0,0,0,0,0,0
			c0,0-0.1-0.1-0.1-0.2h0c0-0.1,0-0.1-0.1-0.2v0l-3.6-15.1c-0.2-0.8,0.3-1.6,1.1-1.7c0.8-0.2,1.6,0.3,1.8,1.1l2.7,11.3l3.1-6.1
			c0.3-0.5,0.7-0.8,1.3-0.8c0.5,0,1,0.3,1.3,0.8l3.3,6.1L29.2-42c0.2-0.8,1-1.3,1.7-1.1C31.7-43,32.2-42.2,32-41.4"/>
	</defs>
	<clipPath id="SVGID_6_">
		<use xlink:href="#SVGID_151_"  overflow="visible"/>
	</clipPath>
	<g clip-path="url(#SVGID_6_)">
		<defs>
			<rect id="SVGID_153_" x="-144" y="-225" width="532" height="450"/>
		</defs>
		<clipPath id="SVGID_8_">
			<use xlink:href="#SVGID_153_"  overflow="visible"/>
		</clipPath>
	</g>
</g>
<g>
	<defs>
		<path id="SVGID_155_" d="M44.3-32.8v4.7h6.9c0.8,0,1.4,0.6,1.4,1.4c0,0.8-0.6,1.4-1.4,1.4h-8.3c-0.8,0-1.4-0.6-1.4-1.4v-15.3
			c0-0.8,0.6-1.4,1.4-1.4h8.3c0.8,0,1.4,0.6,1.4,1.4c0,0.8-0.6,1.4-1.4,1.4h-6.9v4.9h6.9c0.8,0,1.4,0.6,1.4,1.4
			c0,0.8-0.6,1.4-1.4,1.4H44.3z"/>
	</defs>
	<clipPath id="SVGID_10_">
		<use xlink:href="#SVGID_155_"  overflow="visible"/>
	</clipPath>
	<g clip-path="url(#SVGID_10_)">
		<defs>
			<rect id="SVGID_157_" x="-144" y="-225" width="532" height="450"/>
		</defs>
		<clipPath id="SVGID_12_">
			<use xlink:href="#SVGID_157_"  overflow="visible"/>
		</clipPath>
	</g>
</g>
<g>
	<defs>
		<path id="SVGID_159_" d="M75-41.9c0,0.8-0.7,1.5-1.4,1.5h-4.1v13.8c0,0.8-0.7,1.5-1.4,1.5c-0.8,0-1.5-0.6-1.5-1.5v-13.8h-4.1
			c-0.8,0-1.4-0.6-1.4-1.5c0-0.8,0.7-1.4,1.4-1.4h11.2C74.3-43.3,75-42.7,75-41.9"/>
	</defs>
	<clipPath id="SVGID_14_">
		<use xlink:href="#SVGID_159_"  overflow="visible"/>
	</clipPath>
	<g clip-path="url(#SVGID_14_)">
		<defs>
			<rect id="SVGID_161_" x="-144" y="-225" width="532" height="450"/>
		</defs>
		<clipPath id="SVGID_16_">
			<use xlink:href="#SVGID_161_"  overflow="visible"/>
		</clipPath>
	</g>
</g>
<g>
	<defs>
		<path id="SVGID_163_" d="M93-25.2c-5.1,0-9.2-4.1-9.2-9.1c0-5,4.1-9.1,9.2-9.1c5,0,9.1,4.1,9.1,9.1C102.2-29.3,98.1-25.2,93-25.2
			 M93-40.5c-3.5,0-6.2,2.8-6.2,6.2c0,3.4,2.8,6.2,6.2,6.2c3.4,0,6.2-2.8,6.2-6.2C99.3-37.7,96.5-40.5,93-40.5"/>
	</defs>
	<clipPath id="SVGID_18_">
		<use xlink:href="#SVGID_163_"  overflow="visible"/>
	</clipPath>
	<g clip-path="url(#SVGID_18_)">
		<defs>
			<rect id="SVGID_165_" x="-144" y="-225" width="532" height="450"/>
		</defs>
		<clipPath id="SVGID_20_">
			<use xlink:href="#SVGID_165_"  overflow="visible"/>
		</clipPath>
	</g>
</g>
<g>
	<defs>
		<path id="SVGID_167_" d="M123.8-37.9c0,2.8-2.5,5.2-5.5,5.2h-3.8v6c0,0.8-0.6,1.4-1.4,1.4c-0.8,0-1.4-0.6-1.4-1.4v-15.2
			c0-0.7,0.6-1.4,1.4-1.4v-0.1h5.5C121.3-43.4,123.8-40.9,123.8-37.9 M120.9-37.9c0-1.4-1.2-2.7-2.4-2.7h-4v5h3.8
			C119.7-35.5,120.9-36.6,120.9-37.9"/>
	</defs>
	<clipPath id="SVGID_22_">
		<use xlink:href="#SVGID_167_"  overflow="visible"/>
	</clipPath>
	<g clip-path="url(#SVGID_22_)">
		<defs>
			<rect id="SVGID_169_" x="-144" y="-225" width="532" height="450"/>
		</defs>
		<clipPath id="SVGID_24_">
			<use xlink:href="#SVGID_169_"  overflow="visible"/>
		</clipPath>
	</g>
</g>
<g>
	<defs>
		<path id="SVGID_171_" d="M134.9-25.2c-0.8,0-1.4-0.6-1.4-1.5v-15.2c0-0.8,0.7-1.5,1.4-1.5c0.8,0,1.5,0.6,1.5,1.5v15.2
			C136.3-25.9,135.7-25.2,134.9-25.2"/>
	</defs>
	<clipPath id="SVGID_26_">
		<use xlink:href="#SVGID_171_"  overflow="visible"/>
	</clipPath>
	<g clip-path="url(#SVGID_26_)">
		<defs>
			<rect id="SVGID_173_" x="-144" y="-225" width="532" height="450"/>
		</defs>
		<clipPath id="SVGID_28_">
			<use xlink:href="#SVGID_173_"  overflow="visible"/>
		</clipPath>
	</g>
</g>
<g>
	<defs>
		<rect id="SVGID_175_" x="146.5" y="-43.1" width="17.5" height="18"/>
	</defs>
	<clipPath id="SVGID_30_">
		<use xlink:href="#SVGID_175_"  overflow="visible"/>
	</clipPath>
	<g clip-path="url(#SVGID_30_)">
		<defs>
			<rect id="SVGID_177_" x="-144" y="-225" width="532" height="450"/>
		</defs>
		<clipPath id="SVGID_32_">
			<use xlink:href="#SVGID_177_"  overflow="visible"/>
		</clipPath>
	</g>
</g>
<g>
	<defs>
		<rect id="SVGID_185_" x="-144" y="-225" width="532" height="450"/>
	</defs>
	<clipPath id="SVGID_34_">
		<use xlink:href="#SVGID_185_"  overflow="visible"/>
	</clipPath>
</g>
<g>
	<g>
		<defs>
			<path id="SVGID_187_" d="M55.8,28.5c9.2,0,17.2,4.7,21.9,11.8c0-3.7-1-7.4-2.9-10.7c-0.9-1.6-2.1-3.2-3.5-4.5
				c-1.4-1.4-2.9-2.5-4.6-3.5c-6.8-3.9-15.1-3.9-21.9,0c-1.6,0.9-3.2,2.1-4.6,3.5c-1.4,1.4-2.5,2.9-3.5,4.5c-1.9,3.3-2.9,7-2.9,10.7
				C38.6,33.2,46.6,28.5,55.8,28.5"/>
		</defs>
		<clipPath id="SVGID_36_">
			<use xlink:href="#SVGID_187_"  overflow="visible"/>
		</clipPath>
		<g clip-path="url(#SVGID_36_)">
			<defs>
				<rect id="SVGID_189_" x="-210.4" y="-32.4" width="532" height="450"/>
			</defs>
			<clipPath id="SVGID_38_">
				<use xlink:href="#SVGID_189_"  overflow="visible"/>
			</clipPath>
			<rect x="28.9" y="13.7" clip-path="url(#SVGID_38_)" fill="#D39D60" width="53.8" height="31.6"/>
		</g>
	</g>
	<g>
		<defs>
			<path id="SVGID_191_" d="M34.3,44.8c0.4,0.4,0.8,0.9,1.2,1.3c1.8,1.8,3.8,3.3,6,4.5c8.8,5.1,19.8,5.1,28.6,0
				c2.1-1.2,4.1-2.7,6-4.5c0.4-0.4,0.8-0.9,1.2-1.3c0.3-1.5,0.4-3,0.4-4.5C73,33.2,65,28.5,55.8,28.5c-9.2,0-17.2,4.7-21.9,11.8
				C33.9,41.8,34,43.3,34.3,44.8"/>
		</defs>
		<clipPath id="SVGID_40_">
			<use xlink:href="#SVGID_191_"  overflow="visible"/>
		</clipPath>
		<g clip-path="url(#SVGID_40_)">
			<defs>
				<rect id="SVGID_193_" x="-210.4" y="-32.4" width="532" height="450"/>
			</defs>
			<clipPath id="SVGID_42_">
				<use xlink:href="#SVGID_193_"  overflow="visible"/>
			</clipPath>
			<rect x="28.9" y="23.5" clip-path="url(#SVGID_42_)" fill="#E5BB83" width="53.8" height="36"/>
		</g>
	</g>
	<g>
		<defs>
			<path id="SVGID_195_" d="M55.8,15.9c-4-1.3-8.1-2-12.2-2c-1.9,0-3.8,0.1-5.6,0.4l-7.7,4.4l-2.5,1.4c-1.2,5.8-0.5,11.8,1.9,17.3
				c0.4,0.9,0.8,1.8,1.3,2.7c0,0,0,0,0,0.1c0.1,0.1,0.1,0.2,0.2,0.3c0.4,0.7,0.9,1.5,1.4,2.2c0.5,0.8,1.1,1.5,1.7,2.2
				c-0.3-1.5-0.4-3-0.4-4.5c0-3.7,1-7.4,2.9-10.7c0.9-1.6,2.1-3.2,3.5-4.6c1.4-1.4,2.9-2.5,4.6-3.5c6.8-3.9,15.1-3.9,21.9,0
				C63.4,19.1,59.7,17.2,55.8,15.9"/>
		</defs>
		<clipPath id="SVGID_44_">
			<use xlink:href="#SVGID_195_"  overflow="visible"/>
		</clipPath>
		<g clip-path="url(#SVGID_44_)">
			<defs>
				<rect id="SVGID_197_" x="-210.4" y="-32.4" width="532" height="450"/>
			</defs>
			<clipPath id="SVGID_46_">
				<use xlink:href="#SVGID_197_"  overflow="visible"/>
			</clipPath>
			<rect x="22.2" y="8.9" clip-path="url(#SVGID_46_)" fill="#F16649" width="49.6" height="40.9"/>
		</g>
	</g>
	<g>
		<defs>
			<path id="SVGID_199_" d="M91.5,24.5l-10.2-5.9l-7.7-4.4l-3-1.7L58.3,5.4c-1.5-0.9-3.5-0.9-5,0l-15.4,8.9h0
				c1.9-0.3,3.8-0.4,5.6-0.4c4.1,0,8.3,0.7,12.2,2c3.9,1.3,7.6,3.2,11,5.7c1.6,0.9,3.2,2.1,4.6,3.5c1.4,1.4,2.5,2.9,3.5,4.6
				c1.9,3.3,2.9,7,2.9,10.7c0,1.5-0.1,3-0.4,4.5c0.6-0.7,1.2-1.5,1.7-2.2c0.5-0.7,1-1.4,1.4-2.2c0.1-0.1,0.1-0.2,0.2-0.3
				c0,0,0,0,0-0.1c0.5-0.9,0.9-1.8,1.3-2.7c2.4-5.5,3-11.5,1.9-17.3l2.6,1.5l2.5,1.4L91.5,24.5"/>
		</defs>
		<clipPath id="SVGID_48_">
			<use xlink:href="#SVGID_199_"  overflow="visible"/>
		</clipPath>
		<g clip-path="url(#SVGID_48_)">
			<defs>
				<rect id="SVGID_201_" x="-210.4" y="-32.4" width="532" height="450"/>
			</defs>
			<clipPath id="SVGID_50_">
				<use xlink:href="#SVGID_201_"  overflow="visible"/>
			</clipPath>
			<rect x="32.9" y="-0.3" clip-path="url(#SVGID_50_)" fill="#F48365" width="63.6" height="50.1"/>
		</g>
	</g>
	<g>
		<defs>
			<path id="SVGID_203_" d="M91.3,57c-1,0.4-2.1,0.8-3.2,1.2c-2,0.7-4.1,1.2-6.2,1.6c-0.1,0-0.3,0.1-0.4,0.1
				c-4.7,0.9-9.4,1.1-14.2,0.7c-0.6-0.1-1.2-0.1-1.7-0.2c-0.1,0-0.2,0-0.3,0c-3.2-0.4-6.4-1.1-9.5-2.2c-5.1-1.7-9.9-4.2-14.3-7.5
				c-2.1-1.2-4.1-2.7-6-4.5c-0.4-0.4-0.8-0.9-1.2-1.3c-0.6-0.7-1.2-1.5-1.7-2.2c-0.5-0.7-1-1.4-1.4-2.2c-0.1-0.1-0.1-0.2-0.2-0.3
				c0,0,0,0,0-0.1c-0.5-0.9-0.9-1.8-1.3-2.7c-2.4-5.5-3-11.5-1.9-17.3l-2.6,1.5L22.7,23l-10.8,6.2c-0.5,0.3-0.9,0.7-1.3,1.1
				c0,0,0,0,0,0.1v0c0,0.1,0,0.1,0,0.2c0,4,0.6,7.9,1.6,11.7c1.4,5.1,3.6,9.8,6.5,14c1.1,1.6,2.4,3.2,3.7,4.7
				c0.2,0.2,0.3,0.3,0.5,0.5c1,1.1,2.1,2.2,3.2,3.1c2,1.8,4.2,3.4,6.6,4.8c0.8,0.5,1.6,0.9,2.4,1.3c2.1,1.1,4.3,2,6.7,2.8l-5.3-5.3
				c-0.4-0.4-0.5-1.1-0.2-1.6c0.1-0.1,0.1-0.2,0.2-0.3c0.2-0.2,0.6-0.4,0.9-0.4c0.4,0,0.7,0.1,0.9,0.4L39,67l7.9,7.8
				c2.7,0.6,5.5,0.9,8.4,0.9l-1.6-1.6c-0.3-0.2-0.4-0.6-0.4-0.9c0-0.4,0.1-0.7,0.4-0.9c0.2-0.2,0.6-0.4,0.9-0.4
				c0.4,0,0.7,0.1,0.9,0.4l3.3,3.3c2.2-0.2,4.4-0.5,6.5-1L59,68.2c-0.2-0.2-0.4-0.6-0.4-0.9c0-0.4,0.1-0.7,0.4-0.9
				c0.1-0.1,0.2-0.1,0.3-0.2c0.2-0.1,0.4-0.2,0.7-0.2c0.4,0,0.7,0.1,0.9,0.4l0.2,0.2l7.4,7.3c2.8-0.8,5.5-1.9,8.1-3.2
				c0.8-0.4,1.6-0.9,2.4-1.3c0.5-0.3,1.1-0.6,1.6-1h-1.1h-1.2h-7c-0.7,0-1.2-0.5-1.3-1.2c0-0.1,0-0.1,0-0.2c0-0.7,0.6-1.3,1.3-1.3
				h7.9h0.5h0.8h3.7c0.5-0.4,0.9-0.7,1.4-1.1c1.1-1,2.2-2,3.2-3.1c0.2-0.2,0.3-0.4,0.5-0.5c1.3-1.5,2.6-3,3.7-4.6
				C92.4,56.5,91.9,56.7,91.3,57"/>
		</defs>
		<clipPath id="SVGID_52_">
			<use xlink:href="#SVGID_203_"  overflow="visible"/>
		</clipPath>
		<g clip-path="url(#SVGID_52_)">
			<defs>
				<rect id="SVGID_205_" x="-210.4" y="-32.4" width="532" height="450"/>
			</defs>
			<clipPath id="SVGID_54_">
				<use xlink:href="#SVGID_205_"  overflow="visible"/>
			</clipPath>
			<rect x="5.6" y="15.1" clip-path="url(#SVGID_54_)" fill="#68C7C5" width="92.3" height="65.6"/>
		</g>
	</g>
	<g>
		<defs>
			<path id="SVGID_207_" d="M101,30.4L101,30.4C101,30.4,101,30.4,101,30.4c-0.4-0.5-0.8-0.9-1.3-1.2l-0.2-0.1l0,0l-8-4.6L88.9,23
				l-2.5-1.4l-2.6-1.5c1.2,5.8,0.6,11.8-1.9,17.3c-0.4,0.9-0.8,1.8-1.3,2.7c0,0,0,0,0,0.1c-0.1,0.1-0.1,0.2-0.2,0.3
				c-0.4,0.7-0.9,1.5-1.4,2.2c-0.5,0.8-1.1,1.5-1.7,2.2c-0.4,0.4-0.8,0.9-1.2,1.3c-1.8,1.8-3.8,3.3-6,4.5c-8.8,5.1-19.8,5.1-28.6,0
				c4.4,3.3,9.3,5.8,14.3,7.5c3.1,1,6.3,1.8,9.5,2.2c0.1,0,0.2,0,0.3,0c0.6,0.1,1.2,0.1,1.7,0.2c4.7,0.4,9.5,0.2,14.2-0.7
				c0.1,0,0.3,0,0.4-0.1c2.1-0.4,4.2-0.9,6.2-1.6c1.1-0.4,2.1-0.7,3.2-1.2c0.5-0.2,1.1-0.5,1.6-0.7c2.9-4.2,5.2-8.9,6.5-14
				c1-3.7,1.6-7.6,1.6-11.7C101,30.5,101,30.5,101,30.4"/>
		</defs>
		<clipPath id="SVGID_56_">
			<use xlink:href="#SVGID_207_"  overflow="visible"/>
		</clipPath>
		<g clip-path="url(#SVGID_56_)">
			<defs>
				<rect id="SVGID_209_" x="-210.4" y="-32.4" width="532" height="450"/>
			</defs>
			<clipPath id="SVGID_58_">
				<use xlink:href="#SVGID_209_"  overflow="visible"/>
			</clipPath>
			<rect x="36.5" y="15.1" clip-path="url(#SVGID_58_)" fill="#00B1B0" width="69.5" height="50.6"/>
		</g>
	</g>
	<g>
		<defs>
			<path id="SVGID_211_" d="M101,30.3C101,30.4,101,30.4,101,30.3L101,30.3c0,0.1,0,0.2,0,0.3c0,4-0.6,7.9-1.6,11.7
				c-1.4,5.1-3.6,9.8-6.5,14c-1.1,1.6-2.4,3.2-3.7,4.6c-0.2,0.2-0.3,0.4-0.5,0.5c-1,1.1-2.1,2.1-3.2,3.1c-0.4,0.4-0.9,0.8-1.4,1.1
				h0.8h0.8h0.8c0.3,0,0.6,0.1,0.9,0.3c0.3,0.2,0.4,0.6,0.4,1c0,0.7-0.6,1.3-1.3,1.3h-2.3h-0.8h-0.1h-2.8c-0.5,0.3-1,0.7-1.6,1
				c-0.8,0.5-1.6,0.9-2.4,1.3c-2.6,1.3-5.3,2.4-8.1,3.2l0.1,0.1c2.1-0.3,4.2-0.7,6.2-1.2c1-0.2,1.9-0.5,2.9-0.7
				c0.2,0,0.3-0.1,0.5-0.1c0.6-0.2,1.3-0.4,1.9-0.6c4.1-1.3,8.1-2.9,11.9-4.8c3.6-1.8,7-3.8,10.2-6.1V47.8V33.5v0v-0.2
				C102,32.2,101.7,31.2,101,30.3"/>
		</defs>
		<clipPath id="SVGID_60_">
			<use xlink:href="#SVGID_211_"  overflow="visible"/>
		</clipPath>
		<g clip-path="url(#SVGID_60_)">
			<defs>
				<rect id="SVGID_213_" x="-210.4" y="-32.4" width="532" height="450"/>
			</defs>
			<clipPath id="SVGID_62_">
				<use xlink:href="#SVGID_213_"  overflow="visible"/>
			</clipPath>
			<rect x="63.4" y="25.3" clip-path="url(#SVGID_62_)" fill="#00A8CA" width="43.7" height="53.7"/>
		</g>
	</g>
	<g>
		<defs>
			<rect id="SVGID_215_" x="9.6" y="30.3" width="54.1" height="79.5"/>
		</defs>
		<clipPath id="SVGID_64_">
			<use xlink:href="#SVGID_215_"  overflow="visible"/>
		</clipPath>
		<g clip-path="url(#SVGID_64_)">
			<defs>
				<rect id="SVGID_217_" x="-210.4" y="-32.4" width="532" height="450"/>
			</defs>
			<clipPath id="SVGID_66_">
				<use xlink:href="#SVGID_217_"  overflow="visible"/>
			</clipPath>
			<g clip-path="url(#SVGID_66_)" enable-background="new    ">
				<g>
					<defs>
						<rect id="SVGID_219_" x="9.6" y="29.6" width="55" height="81"/>
					</defs>
					<clipPath id="SVGID_68_">
						<use xlink:href="#SVGID_219_"  overflow="visible"/>
					</clipPath>
					<g clip-path="url(#SVGID_68_)">
						<defs>
							<path id="SVGID_221_" d="M19.8,66.6c-1.3-2.7-2.5-5.5-3.6-8.3c-0.5-1.3-0.9-2.5-1.3-3.8c-1.2-3.9-2.1-8-2.8-12.1
								c-1-3.7-1.6-7.6-1.6-11.7c0-0.1,0-0.1,0-0.2v0c0,0,0,0,0-0.1c-0.7,0.8-1,1.8-1,2.9v0.2v0v14.3v12.7V81v0v0.2
								c0,1.7,0.9,3.2,2.3,4l0.2,0.1c0,0,0,0,0,0L48,106.1h0l5.3,3.1c1.6,0.9,3.5,0.9,5,0l5.3-3.1c-2.7-1-5.3-2.1-7.8-3.4
								C40.2,94.8,27.6,82.1,19.8,66.6"/>
						</defs>
						<clipPath id="SVGID_70_">
							<use xlink:href="#SVGID_221_"  overflow="visible"/>
						</clipPath>
						<g clip-path="url(#SVGID_70_)">
							<defs>
								<rect id="SVGID_223_" x="9.6" y="29.6" width="55" height="81"/>
							</defs>
							<clipPath id="SVGID_72_">
								<use xlink:href="#SVGID_223_"  overflow="visible"/>
							</clipPath>
							<rect x="4.6" y="25.3" clip-path="url(#SVGID_72_)" fill="#00A8CA" width="64.1" height="89.5"/>
						</g>
					</g>
				</g>
			</g>
		</g>
	</g>
	<g>
		<defs>
			<path id="SVGID_225_" d="M91.8,66.6c-3.8,1.9-7.8,3.5-11.9,4.8c-0.6,0.2-1.3,0.4-1.9,0.6c-0.2,0-0.3,0.1-0.5,0.1
				c-0.9,0.3-1.9,0.5-2.9,0.7c-2,0.5-4.1,0.9-6.2,1.2l1.1,1.1l1.1,1.1l0.4,0.4l5.3,5.3c0.5,0.5,0.5,1.4,0,1.9
				c-0.3,0.2-0.6,0.4-0.9,0.4s-0.7-0.1-0.9-0.4l-6.1-6.1l0,0l-1.8-1.8l-1.2-1.1c-2.1,0.5-4.3,0.8-6.5,1l1.1,1.1l2.3,2.3l0.7,0.7
				l1.7,1.7c0.5,0.5,0.5,1.4,0,1.9c-0.3,0.2-0.6,0.4-0.9,0.4c-0.4,0-0.7-0.1-0.9-0.4L60,80.5l-1-1l-2.6-2.6l-1.2-1.2
				c-2.9,0-5.7-0.4-8.4-0.9l1.6,1.6l3,3l1.2,1.2l1.2,1.2c0.5,0.5,0.5,1.4,0,1.9c-0.3,0.3-0.6,0.4-0.9,0.4c-0.4,0-0.7-0.1-0.9-0.4
				l-4.1-4.1l-1-1l-3.1-3.1l-1.7-1.7l-0.4-0.4c-2.3-0.8-4.5-1.7-6.7-2.8c-0.8-0.4-1.6-0.9-2.4-1.3c-2.3-1.4-4.5-3-6.6-4.8
				c-1.1-1-2.2-2-3.2-3.1c-0.2-0.2-0.3-0.3-0.5-0.5c-1.3-1.5-2.6-3-3.7-4.7c-2.9-4.2-5.2-8.9-6.5-14c0.6,4.2,1.5,8.2,2.8,12.1
				c0.4,1.3,0.8,2.6,1.3,3.8c1,2.9,2.2,5.6,3.6,8.3c7.8,15.6,20.5,28.2,36,36.1c2.5,1.3,5.2,2.4,7.8,3.4c0,0,0,0,0,0l35.9-20.7
				c0,0,0,0,0,0l0,0c0,0,0,0,0,0l0.2-0.1c0.5-0.3,0.9-0.6,1.2-1.1h-0.1h0H87c-0.7,0-1.3-0.6-1.3-1.3c0-0.7,0.6-1.3,1.3-1.3h15h0h0
				c0-0.1,0-0.2,0-0.3V81v0V60.4C98.8,62.7,95.4,64.8,91.8,66.6 M86.1,76.3L86.1,76.3h-6.4c-0.7,0-1.3-0.6-1.3-1.3
				c0-0.7,0.6-1.3,1.3-1.3h6.4c0.5,0,1,0.3,1.2,0.8c0.1,0.2,0.1,0.4,0.1,0.6C87.4,75.7,86.9,76.3,86.1,76.3"/>
		</defs>
		<clipPath id="SVGID_74_">
			<use xlink:href="#SVGID_225_"  overflow="visible"/>
		</clipPath>
		<g clip-path="url(#SVGID_74_)">
			<defs>
				<rect id="SVGID_227_" x="-210.4" y="-32.4" width="532" height="450"/>
			</defs>
			<clipPath id="SVGID_76_">
				<use xlink:href="#SVGID_227_"  overflow="visible"/>
			</clipPath>
			<rect x="7.2" y="37.3" clip-path="url(#SVGID_76_)" fill="#00B5CB" width="99.9" height="73.8"/>
		</g>
	</g>
	<g>
		<defs>
			<path id="SVGID_229_" d="M52.7,80.6l-1.2-1.2l-3-3l-1.6-1.6L39,67l-0.7-0.7c-0.2-0.2-0.6-0.4-0.9-0.4c-0.4,0-0.7,0.1-0.9,0.4
				c-0.1,0.1-0.1,0.2-0.2,0.3c-0.3,0.5-0.2,1.1,0.2,1.6l5.3,5.3l0.4,0.4l1.7,1.7l3.1,3.1l1,1l4.1,4.1c0.3,0.3,0.6,0.4,0.9,0.4
				c0.4,0,0.7-0.1,0.9-0.4c0.5-0.5,0.5-1.4,0-1.9L52.7,80.6z"/>
		</defs>
		<clipPath id="SVGID_78_">
			<use xlink:href="#SVGID_229_"  overflow="visible"/>
		</clipPath>
		<g clip-path="url(#SVGID_78_)">
			<defs>
				<rect id="SVGID_231_" x="-210.4" y="-32.4" width="532" height="450"/>
			</defs>
			<clipPath id="SVGID_80_">
				<use xlink:href="#SVGID_231_"  overflow="visible"/>
			</clipPath>
			<rect x="31" y="60.9" clip-path="url(#SVGID_80_)" fill="#FEFEFE" width="28.2" height="28.2"/>
		</g>
	</g>
	<g>
		<defs>
			<path id="SVGID_233_" d="M71,76.5l-0.4-0.4l-1.1-1.1L68.5,74l-0.1-0.1L61,66.6l-0.2-0.2c-0.3-0.2-0.6-0.4-0.9-0.4
				c-0.2,0-0.5,0.1-0.7,0.2c-0.1,0.1-0.2,0.1-0.3,0.2c-0.2,0.2-0.4,0.6-0.4,0.9c0,0.4,0.1,0.7,0.4,0.9l6.5,6.4l1.2,1.1l1.8,1.8l0,0
				l6.1,6.1c0.2,0.2,0.6,0.4,0.9,0.4c0.4,0,0.7-0.1,0.9-0.4c0.5-0.5,0.5-1.4,0-1.9L71,76.5z"/>
		</defs>
		<clipPath id="SVGID_82_">
			<use xlink:href="#SVGID_233_"  overflow="visible"/>
		</clipPath>
		<g clip-path="url(#SVGID_82_)">
			<defs>
				<rect id="SVGID_235_" x="-210.4" y="-32.4" width="532" height="450"/>
			</defs>
			<clipPath id="SVGID_84_">
				<use xlink:href="#SVGID_235_"  overflow="visible"/>
			</clipPath>
			<rect x="53.6" y="61" clip-path="url(#SVGID_84_)" fill="#FEFEFE" width="28.2" height="28.2"/>
		</g>
	</g>
	<g>
		<defs>
			<path id="SVGID_237_" d="M63.1,79.8l-0.7-0.7L60,76.8l-1.1-1.1l-3.3-3.3c-0.2-0.2-0.6-0.4-0.9-0.4c-0.4,0-0.7,0.1-0.9,0.4
				c-0.3,0.2-0.4,0.6-0.4,0.9c0,0.4,0.1,0.7,0.4,0.9l1.6,1.6l1.2,1.2l2.6,2.6l1,1l2.9,2.9c0.2,0.2,0.6,0.4,0.9,0.4
				c0.4,0,0.7-0.1,0.9-0.4c0.5-0.5,0.5-1.4,0-1.9L63.1,79.8z"/>
		</defs>
		<clipPath id="SVGID_86_">
			<use xlink:href="#SVGID_237_"  overflow="visible"/>
		</clipPath>
		<g clip-path="url(#SVGID_86_)">
			<defs>
				<rect id="SVGID_239_" x="-210.4" y="-32.4" width="532" height="450"/>
			</defs>
			<clipPath id="SVGID_88_">
				<use xlink:href="#SVGID_239_"  overflow="visible"/>
			</clipPath>
			<rect x="48.3" y="66.9" clip-path="url(#SVGID_88_)" fill="#FEFEFE" width="21.9" height="21.9"/>
		</g>
	</g>
	<g>
		<defs>
			<path id="SVGID_241_" d="M80.5,68.3h2.8h0.1h0.8h2.3c0.7,0,1.3-0.6,1.3-1.3c0-0.4-0.2-0.7-0.4-1c-0.2-0.2-0.5-0.3-0.9-0.3h-0.8
				h-0.8h-0.8h-3.7h-0.8h-0.5h-7.9c-0.7,0-1.3,0.6-1.3,1.3c0,0.1,0,0.1,0,0.2c0.1,0.6,0.6,1.2,1.3,1.2h7h1.2H80.5z"/>
		</defs>
		<clipPath id="SVGID_90_">
			<use xlink:href="#SVGID_241_"  overflow="visible"/>
		</clipPath>
		<g clip-path="url(#SVGID_90_)">
			<defs>
				<rect id="SVGID_243_" x="-210.4" y="-32.4" width="532" height="450"/>
			</defs>
			<clipPath id="SVGID_92_">
				<use xlink:href="#SVGID_243_"  overflow="visible"/>
			</clipPath>
			<rect x="64.9" y="60.7" clip-path="url(#SVGID_92_)" fill="#FEFEFE" width="28" height="12.6"/>
		</g>
	</g>
	<g>
		<defs>
			<path id="SVGID_245_" d="M102,81.6L102,81.6H87c-0.7,0-1.3,0.6-1.3,1.3c0,0.7,0.6,1.3,1.3,1.3h13.9h0h0.1
				C101.6,83.5,101.9,82.5,102,81.6L102,81.6z"/>
		</defs>
		<clipPath id="SVGID_94_">
			<use xlink:href="#SVGID_245_"  overflow="visible"/>
		</clipPath>
		<g clip-path="url(#SVGID_94_)">
			<defs>
				<rect id="SVGID_247_" x="-210.4" y="-32.4" width="532" height="450"/>
			</defs>
			<clipPath id="SVGID_96_">
				<use xlink:href="#SVGID_247_"  overflow="visible"/>
			</clipPath>
			<rect x="80.6" y="76.6" clip-path="url(#SVGID_96_)" fill="#FEFEFE" width="26.4" height="12.6"/>
		</g>
	</g>
	<g>
		<defs>
			<path id="SVGID_249_" d="M86.1,76.3c0.7,0,1.3-0.6,1.3-1.3c0-0.2-0.1-0.4-0.1-0.6c-0.2-0.4-0.7-0.8-1.2-0.8h-6.4
				c-0.7,0-1.3,0.6-1.3,1.3c0,0.7,0.6,1.3,1.3,1.3H86.1L86.1,76.3z"/>
		</defs>
		<clipPath id="SVGID_98_">
			<use xlink:href="#SVGID_249_"  overflow="visible"/>
		</clipPath>
		<g clip-path="url(#SVGID_98_)">
			<defs>
				<rect id="SVGID_251_" x="-210.4" y="-32.4" width="532" height="450"/>
			</defs>
			<clipPath id="SVGID_100_">
				<use xlink:href="#SVGID_251_"  overflow="visible"/>
			</clipPath>
			<rect x="73.4" y="68.6" clip-path="url(#SVGID_100_)" fill="#FEFEFE" width="19.1" height="12.6"/>
		</g>
	</g>
</g>
<g>
	<defs>
		<path id="SVGID_253_" d="M272.4,39.5H134.9c-3.4,0-6.2-2.6-6.2-5.8V10.3c0-3.2,2.8-5.8,6.2-5.8h137.4c3.4,0,6.2,2.6,6.2,5.8v23.3
			C278.6,36.9,275.8,39.5,272.4,39.5"/>
	</defs>
	<clipPath id="SVGID_102_">
		<use xlink:href="#SVGID_253_"  overflow="visible"/>
	</clipPath>
	<g clip-path="url(#SVGID_102_)">
		<defs>
			<rect id="SVGID_255_" x="-62.2" y="-335.5" width="532" height="450"/>
		</defs>
		<clipPath id="SVGID_104_">
			<use xlink:href="#SVGID_255_"  overflow="visible"/>
		</clipPath>
	</g>
</g>
<g>
	<defs>
		<rect id="SVGID_257_" x="-62.2" y="-335.5" width="532" height="450"/>
	</defs>
	<clipPath id="SVGID_106_">
		<use xlink:href="#SVGID_257_"  overflow="visible"/>
	</clipPath>
</g>
</svg>
