<?xml version="1.0" encoding="UTF-8"?>
<svg width="101px" height="114px" viewBox="0 0 101 114" version="1.1" xmlns="http://www.w3.org/2000/svg" xmlns:xlink="http://www.w3.org/1999/xlink">
    <!-- Generator: Sketch 42 (36781) - http://www.bohemiancoding.com/sketch -->
    <title>EARLYADOPTERS</title>
    <desc>Created with Sketch.</desc>
    <defs>
        <path d="M6.756,1.08 C5.697,1.822 4.979,2.965 4.735,4.292 L4.602,5.08 C4.401,6.313 4.658,7.565 5.328,8.612 L6.762,10.905 L4.609,11.547 C3.044,12.006 1.75,13.067 0.966,14.537 L0.937,14.589 L0.905,14.623 L0.271,16.351 C0.033,17.044 0.144,17.837 0.554,18.436 C0.994,19.046 1.693,19.382 2.425,19.382 L17.032,19.382 C17.772,19.382 18.463,19.049 18.885,18.44 C19.319,17.827 19.426,17.071 19.173,16.371 L18.558,14.646 L18.535,14.578 L18.509,14.516 C17.762,13.104 16.436,12.011 14.875,11.517 L12.724,10.874 L14.073,8.725 C14.787,7.621 15.037,6.205 14.743,4.938 L14.532,4.032 C14.301,2.946 13.636,1.902 12.718,1.176 C11.818,0.507 10.735,0.138 9.669,0.138 C8.607,0.138 7.604,0.462 6.756,1.08 Z" id="path-1"></path>
        <path d="M7.361,1.08 C6.302,1.822 5.585,2.965 5.341,4.292 L5.208,5.08 C5.006,6.313 5.263,7.565 5.934,8.612 L7.367,10.905 L5.215,11.547 C3.65,12.006 2.356,13.067 1.572,14.537 L1.543,14.589 L1.51,14.623 L0.876,16.351 C0.637,17.044 0.749,17.837 1.159,18.436 C1.599,19.046 2.299,19.382 3.031,19.382 L17.638,19.382 C18.377,19.382 19.069,19.049 19.49,18.44 C19.924,17.827 20.032,17.071 19.778,16.371 L19.163,14.646 L19.141,14.578 L19.114,14.516 C18.367,13.104 17.041,12.011 15.479,11.517 L13.329,10.874 L14.677,8.725 C15.391,7.621 15.641,6.205 15.348,4.938 L15.137,4.032 C14.907,2.946 14.241,1.902 13.324,1.176 C12.423,0.507 11.339,0.138 10.274,0.138 C9.213,0.138 8.208,0.462 7.361,1.08 Z" id="path-3"></path>
        <path d="M6.756,1.671 C5.697,2.411 4.979,3.555 4.735,4.883 L4.602,5.669 C4.401,6.902 4.658,8.155 5.328,9.203 L6.762,11.494 L4.609,12.137 C3.044,12.597 1.75,13.658 0.966,15.127 L0.937,15.18 L0.905,15.214 L0.271,16.941 C0.033,17.634 0.144,18.428 0.554,19.025 C0.994,19.636 1.693,19.972 2.425,19.972 L17.032,19.972 C17.772,19.972 18.463,19.639 18.885,19.031 C19.319,18.416 19.426,17.661 19.173,16.961 L18.558,15.235 L18.535,15.169 L18.509,15.107 C17.762,13.694 16.436,12.601 14.875,12.107 L12.724,11.464 L14.073,9.314 C14.787,8.212 15.037,6.795 14.743,5.528 L14.532,4.623 C14.301,3.536 13.636,2.492 12.718,1.766 C11.818,1.097 10.735,0.728 9.669,0.728 C8.607,0.728 7.604,1.052 6.756,1.671 Z" id="path-5"></path>
        <path d="M7.361,1.671 C6.302,2.411 5.585,3.555 5.341,4.883 L5.208,5.669 C5.006,6.902 5.263,8.155 5.934,9.203 L7.367,11.494 L5.215,12.137 C3.65,12.597 2.356,13.658 1.572,15.127 L1.543,15.18 L1.51,15.214 L0.876,16.941 C0.637,17.634 0.749,18.428 1.159,19.025 C1.599,19.636 2.299,19.972 3.031,19.972 L17.638,19.972 C18.377,19.972 19.069,19.639 19.49,19.031 C19.924,18.416 20.032,17.661 19.778,16.961 L19.163,15.235 L19.141,15.169 L19.114,15.107 C18.367,13.694 17.041,12.601 15.479,12.107 L13.329,11.464 L14.677,9.314 C15.391,8.212 15.641,6.795 15.348,5.528 L15.137,4.623 C14.907,3.536 14.241,2.492 13.324,1.766 C12.423,1.097 11.339,0.728 10.274,0.728 C9.213,0.728 8.208,1.052 7.361,1.671 Z" id="path-7"></path>
        <path d="M7.558,1.49 C6.5,2.231 5.783,3.374 5.539,4.702 L5.405,5.489 C5.204,6.722 5.46,7.975 6.132,9.021 L7.564,11.314 L5.413,11.956 C3.847,12.415 2.553,13.477 1.769,14.946 L1.74,14.998 L1.707,15.034 L1.074,16.761 C0.835,17.453 0.947,18.247 1.356,18.845 C1.796,19.455 2.496,19.792 3.227,19.792 L17.834,19.792 C18.574,19.792 19.266,19.459 19.687,18.849 C20.121,18.236 20.229,17.481 19.975,16.78 L19.36,15.055 L19.338,14.988 L19.311,14.926 C18.565,13.513 17.239,12.42 15.677,11.927 L13.527,11.283 L14.875,9.134 C15.589,8.031 15.839,6.615 15.546,5.347 L15.335,4.441 C15.105,3.356 14.439,2.311 13.522,1.585 C12.62,0.916 11.537,0.548 10.471,0.548 C9.409,0.548 8.406,0.871 7.558,1.49 Z" id="path-9"></path>
        <path d="M7.558,1.62 C6.5,2.362 5.783,3.505 5.539,4.833 L5.405,5.619 C5.204,6.853 5.46,8.106 6.132,9.152 L7.564,11.445 L5.413,12.087 C3.847,12.546 2.553,13.608 1.769,15.077 L1.74,15.129 L1.707,15.164 L1.074,16.892 C0.835,17.584 0.947,18.378 1.356,18.976 C1.796,19.586 2.496,19.922 3.227,19.922 L17.834,19.922 C18.574,19.922 19.266,19.59 19.687,18.98 C20.121,18.367 20.229,17.612 19.975,16.911 L19.36,15.186 L19.338,15.119 L19.311,15.057 C18.565,13.644 17.239,12.551 15.677,12.057 L13.527,11.414 L14.875,9.265 C15.589,8.162 15.839,6.745 15.546,5.478 L15.335,4.572 C15.105,3.486 14.439,2.442 13.522,1.716 C12.62,1.047 11.537,0.678 10.471,0.678 C9.409,0.678 8.406,1.002 7.558,1.62 Z" id="path-11"></path>
    </defs>
    <g id="Page-1" stroke="none" stroke-width="1" fill="none" fill-rule="evenodd">
        <g id="Landing-Copy-3" transform="translate(-1101.000000, -2622.000000)">
            <g id="EARLYADOPTERS" transform="translate(1101.000000, 2622.000000)">
                <polygon id="Fill-1" fill="#00A9C7" points="100.5301 85.5082 50.5291 113.8412 0.5301 85.5082 0.5301 28.8412 50.5291 0.5082 100.5301 28.8412"></polygon>
                <g id="Group-5" transform="translate(8.000000, 37.440000)">
                    <mask id="mask-2" fill="white">
                        <use xlink:href="#path-1"></use>
                    </mask>
                    <g id="Clip-3"></g>
                    <polygon id="Stroke-2" stroke="#FFFFFF" stroke-width="0.77" mask="url(#mask-2)" points="-2.282 21.811 21.738 21.811 21.738 -2.292 -2.282 -2.292"></polygon>
                    <polygon id="Stroke-4" stroke="#FFFFFF" stroke-width="0.77" mask="url(#mask-2)" points="-354.615 1488.075 309.11 1488.075 309.11 -714.462 -354.615 -714.462"></polygon>
                </g>
                <path d="M10.4253,56.822 C9.6933,56.822 8.9943,56.486 8.5543,55.875 C8.1443,55.277 8.0323,54.483 8.2713,53.791 L8.9053,52.064 L8.9373,52.029 L8.9663,51.977 C9.7503,50.507 11.0443,49.446 12.6103,48.987 L14.7623,48.344 L13.3293,46.052 C12.6583,45.005 12.4013,43.753 12.6023,42.519 L12.7353,41.733 C12.9793,40.405 13.6973,39.261 14.7553,38.52 C15.6033,37.902 16.6073,37.578 17.6693,37.578 C18.7343,37.578 19.8173,37.947 20.7193,38.616 C21.6363,39.342 22.3023,40.386 22.5323,41.472 L22.7433,42.377 C23.0363,43.645 22.7863,45.062 22.0723,46.165 L20.7243,48.314 L22.8743,48.957 C24.4363,49.451 25.7623,50.544 26.5083,51.956 L26.5353,52.019 L26.5573,52.086 L27.1733,53.811 C27.4263,54.511 27.3183,55.266 26.8853,55.88 C26.4633,56.489 25.7723,56.822 25.0323,56.822 L10.4253,56.822 Z" id="Stroke-6" stroke="#FFFFFF" stroke-width="0.77"></path>
                <g id="Group-11" transform="translate(73.000000, 37.440000)">
                    <mask id="mask-4" fill="white">
                        <use xlink:href="#path-3"></use>
                    </mask>
                    <g id="Clip-9"></g>
                    <polygon id="Stroke-8" stroke="#FFFFFF" stroke-width="0.77" mask="url(#mask-4)" points="-1.677 21.811 22.343 21.811 22.343 -2.292 -1.677 -2.292"></polygon>
                    <polygon id="Stroke-10" stroke="#FFFFFF" stroke-width="0.77" mask="url(#mask-4)" points="-354.01 1488.075 309.715 1488.075 309.715 -714.462 -354.01 -714.462"></polygon>
                </g>
                <path d="M76.0304,56.822 C75.2984,56.822 74.5994,56.486 74.1594,55.875 C73.7494,55.277 73.6374,54.483 73.8764,53.791 L74.5104,52.064 L74.5424,52.029 L74.5714,51.977 C75.3554,50.507 76.6494,49.446 78.2154,48.987 L80.3674,48.344 L78.9344,46.052 C78.2634,45.005 78.0064,43.753 78.2074,42.519 L78.3404,41.733 C78.5844,40.405 79.3024,39.261 80.3604,38.52 C81.2084,37.902 82.2124,37.578 83.2744,37.578 C84.3394,37.578 85.4224,37.947 86.3244,38.616 C87.2414,39.342 87.9074,40.386 88.1374,41.472 L88.3484,42.377 C88.6414,43.645 88.3914,45.062 87.6774,46.165 L86.3294,48.314 L88.4794,48.957 C90.0414,49.451 91.3674,50.544 92.1134,51.956 L92.1404,52.019 L92.1634,52.086 L92.7784,53.811 C93.0314,54.511 92.9234,55.266 92.4904,55.88 C92.0684,56.489 91.3774,56.822 90.6374,56.822 L76.0304,56.822 Z" id="Stroke-12" stroke="#FFFFFF" stroke-width="0.77"></path>
                <g id="Group-17" transform="translate(8.000000, 63.440000)">
                    <mask id="mask-6" fill="white">
                        <use xlink:href="#path-5"></use>
                    </mask>
                    <g id="Clip-15"></g>
                    <polygon id="Stroke-14" stroke="#FFFFFF" stroke-width="0.77" mask="url(#mask-6)" points="-2.282 22.402 21.738 22.402 21.738 -1.701 -2.282 -1.701"></polygon>
                    <polygon id="Stroke-16" stroke="#FFFFFF" stroke-width="0.77" mask="url(#mask-6)" points="-354.615 1488.665 309.11 1488.665 309.11 -713.872 -354.615 -713.872"></polygon>
                </g>
                <path d="M10.4253,83.4122 C9.6933,83.4122 8.9943,83.0762 8.5543,82.4652 C8.1443,81.8672 8.0323,81.0732 8.2713,80.3812 L8.9053,78.6542 L8.9373,78.6192 L8.9663,78.5672 C9.7503,77.0972 11.0443,76.0362 12.6103,75.5772 L14.7623,74.9342 L13.3293,72.6422 C12.6583,71.5952 12.4013,70.3432 12.6023,69.1092 L12.7353,68.3232 C12.9793,66.9952 13.6973,65.8512 14.7553,65.1102 C15.6033,64.4922 16.6073,64.1682 17.6693,64.1682 C18.7343,64.1682 19.8173,64.5372 20.7193,65.2062 C21.6363,65.9322 22.3023,66.9762 22.5323,68.0622 L22.7433,68.9682 C23.0363,70.2352 22.7863,71.6522 22.0723,72.7552 L20.7243,74.9042 L22.8743,75.5472 C24.4363,76.0412 25.7623,77.1342 26.5083,78.5462 L26.5353,78.6092 L26.5573,78.6762 L27.1733,80.4012 C27.4263,81.1012 27.3183,81.8562 26.8853,82.4702 C26.4633,83.0792 25.7723,83.4122 25.0323,83.4122 L10.4253,83.4122 Z" id="Stroke-18" stroke="#FFFFFF" stroke-width="0.77"></path>
                <g id="Group-23" transform="translate(73.000000, 63.440000)">
                    <mask id="mask-8" fill="white">
                        <use xlink:href="#path-7"></use>
                    </mask>
                    <g id="Clip-21"></g>
                    <polygon id="Stroke-20" stroke="#FFFFFF" stroke-width="0.77" mask="url(#mask-8)" points="-1.677 22.402 22.343 22.402 22.343 -1.701 -1.677 -1.701"></polygon>
                    <polygon id="Stroke-22" stroke="#FFFFFF" stroke-width="0.77" mask="url(#mask-8)" points="-354.01 1488.665 309.715 1488.665 309.715 -713.872 -354.01 -713.872"></polygon>
                </g>
                <path d="M76.0304,83.4122 C75.2984,83.4122 74.5994,83.0762 74.1594,82.4652 C73.7494,81.8672 73.6374,81.0732 73.8764,80.3812 L74.5104,78.6542 L74.5424,78.6192 L74.5714,78.5672 C75.3554,77.0972 76.6494,76.0362 78.2154,75.5772 L80.3674,74.9342 L78.9344,72.6422 C78.2634,71.5952 78.0064,70.3432 78.2074,69.1092 L78.3404,68.3232 C78.5844,66.9952 79.3024,65.8512 80.3604,65.1102 C81.2084,64.4922 82.2124,64.1682 83.2744,64.1682 C84.3394,64.1682 85.4224,64.5372 86.3244,65.2062 C87.2414,65.9322 87.9074,66.9762 88.1374,68.0622 L88.3484,68.9682 C88.6414,70.2352 88.3914,71.6522 87.6774,72.7552 L86.3294,74.9042 L88.4794,75.5472 C90.0414,76.0412 91.3674,77.1342 92.1134,78.5462 L92.1404,78.6092 L92.1624,78.6762 L92.7784,80.4012 C93.0314,81.1012 92.9234,81.8562 92.4904,82.4702 C92.0684,83.0792 91.3774,83.4122 90.6374,83.4122 L76.0304,83.4122 Z" id="Stroke-24" stroke="#FFFFFF" stroke-width="0.77"></path>
                <g id="Group-29" transform="translate(40.000000, 13.440000)">
                    <mask id="mask-10" fill="white">
                        <use xlink:href="#path-9"></use>
                    </mask>
                    <g id="Clip-27"></g>
                    <polygon id="Stroke-26" stroke="#FFFFFF" stroke-width="0.77" mask="url(#mask-10)" points="-1.48 22.221 22.54 22.221 22.54 -1.882 -1.48 -1.882"></polygon>
                    <polygon id="Stroke-28" stroke="#FFFFFF" stroke-width="0.77" mask="url(#mask-10)" points="-353.812 1488.484 309.913 1488.484 309.913 -714.053 -353.812 -714.053"></polygon>
                </g>
                <path d="M43.2278,33.2314 C42.4958,33.2314 41.7968,32.8954 41.3568,32.2844 C40.9468,31.6864 40.8348,30.8924 41.0738,30.2004 L41.7078,28.4734 L41.7398,28.4384 L41.7688,28.3864 C42.5528,26.9164 43.8468,25.8554 45.4128,25.3964 L47.5648,24.7534 L46.1318,22.4614 C45.4608,21.4144 45.2038,20.1624 45.4048,18.9284 L45.5378,18.1424 C45.7818,16.8144 46.4998,15.6704 47.5578,14.9294 C48.4058,14.3114 49.4098,13.9874 50.4718,13.9874 C51.5368,13.9874 52.6198,14.3564 53.5218,15.0254 C54.4388,15.7514 55.1048,16.7954 55.3348,17.8814 L55.5458,18.7864 C55.8388,20.0544 55.5888,21.4714 54.8748,22.5744 L53.5268,24.7234 L55.6768,25.3664 C57.2388,25.8604 58.5648,26.9534 59.3108,28.3654 L59.3378,28.4284 L59.3608,28.4954 L59.9758,30.2204 C60.2288,30.9204 60.1208,31.6754 59.6878,32.2894 C59.2658,32.8984 58.5748,33.2314 57.8348,33.2314 L43.2278,33.2314 Z" id="Stroke-30" stroke="#FFFFFF" stroke-width="0.77"></path>
                <g id="Group-35" transform="translate(40.000000, 80.440000)">
                    <mask id="mask-12" fill="white">
                        <use xlink:href="#path-11"></use>
                    </mask>
                    <g id="Clip-33"></g>
                    <polygon id="Stroke-32" stroke="#FFFFFF" stroke-width="0.77" mask="url(#mask-12)" points="-1.48 22.352 22.54 22.352 22.54 -1.751 -1.48 -1.751"></polygon>
                    <polygon id="Stroke-34" stroke="#FFFFFF" stroke-width="0.77" mask="url(#mask-12)" points="-353.812 1488.615 309.913 1488.615 309.913 -713.922 -353.812 -713.922"></polygon>
                </g>
                <g id="Group-44" transform="translate(37.000000, 42.440000)">
                    <path d="M6.2278,57.9221 C5.4958,57.9221 4.7968,57.5861 4.3568,56.9761 C3.9468,56.3771 3.8348,55.5831 4.0738,54.8911 L4.7078,53.1641 L4.7398,53.1291 L4.7688,53.0771 C5.5528,51.6071 6.8468,50.5461 8.4128,50.0871 L10.5648,49.4441 L9.1318,47.1521 C8.4608,46.1051 8.2038,44.8531 8.4048,43.6191 L8.5378,42.8331 C8.7818,41.5051 9.4998,40.3621 10.5578,39.6201 C11.4058,39.0021 12.4098,38.6781 13.4718,38.6781 C14.5368,38.6781 15.6198,39.0471 16.5218,39.7161 C17.4388,40.4421 18.1048,41.4861 18.3348,42.5721 L18.5458,43.4781 C18.8388,44.7451 18.5888,46.1621 17.8748,47.2651 L16.5268,49.4141 L18.6768,50.0571 C20.2388,50.5511 21.5648,51.6441 22.3108,53.0561 L22.3378,53.1191 L22.3608,53.1861 L22.9758,54.9111 C23.2288,55.6111 23.1208,56.3661 22.6878,56.9801 C22.2658,57.5891 21.5748,57.9221 20.8348,57.9221 L6.2278,57.9221 Z" id="Stroke-36" stroke="#FFFFFF" stroke-width="0.77"></path>
                    <path d="M15.96,5.5529 C16.009,5.6389 16.057,5.7249 16.106,5.8109 C17.444,5.8109 18.793,5.9119 20.112,5.7579 C20.591,5.7019 21.148,5.1159 21.401,4.6309 C21.698,4.0629 21.448,3.4179 20.906,2.9839 C20.376,2.5599 19.728,2.3909 19.192,2.8049 C18.072,3.6659 17.032,4.6309 15.96,5.5529 M10.944,5.8249 C10.999,5.7369 11.054,5.6489 11.109,5.5619 C10.002,4.6159 8.936,3.6159 7.77,2.7509 C7.239,2.3569 6.578,2.6129 6.079,3.0559 C5.561,3.5169 5.454,4.1199 5.656,4.7429 C5.86,5.3749 6.333,5.7969 7.016,5.8149 C8.324,5.8489 9.634,5.8249 10.944,5.8249 M6.45,0.9249 L7.799,0.9249 C9.128,1.8599 10.458,2.7949 11.833,3.7629 C12.958,2.8159 14.185,2.9069 15.24,3.7429 C16.643,2.7609 17.954,1.8429 19.266,0.9249 L20.446,0.9249 C22.442,1.7699 23.269,2.8479 23.133,4.4959 C23.097,4.9269 22.945,5.3479 22.835,5.8229 C24.085,5.8919 25.464,5.5429 26.18,6.9959 L26.18,10.3679 C25.717,10.5089 25.254,10.7709 24.791,10.7729 C17.29,10.7989 9.788,10.7909 2.286,10.7909 C2.146,10.7909 2.006,10.7909 1.865,10.7879 C1.218,10.7779 0.876,10.4709 0.883,9.8019 C0.891,9.0709 0.869,8.3399 0.889,7.6099 C0.919,6.5299 1.55,5.8919 2.626,5.8479 C3.152,5.8269 3.681,5.8449 4.291,5.8449 C3.714,4.4639 3.727,3.1909 4.692,2.1359 C5.16,1.6239 5.857,1.3219 6.45,0.9249" id="Fill-38" fill="#FFFFFF"></path>
                    <path d="M15.2329,26.1924 L15.2329,12.4724 L24.4759,12.4724 C24.4919,12.7704 24.5199,13.0414 24.5199,13.3134 C24.5229,16.9084 24.5239,20.5034 24.5209,24.0984 C24.5189,25.6364 23.9679,26.1904 22.4539,26.1914 C20.3189,26.1944 18.1839,26.1924 16.0499,26.1924 L15.2329,26.1924 Z" id="Fill-40" fill="#FFFFFF"></path>
                    <path d="M11.8198,12.4677 L11.8198,26.1927 L6.8278,26.1927 C5.9848,26.1917 5.1418,26.2177 4.3018,26.1827 C3.1768,26.1377 2.5608,25.5387 2.5568,24.4467 C2.5398,20.6017 2.5488,16.7567 2.5508,12.9107 C2.5508,12.7767 2.5838,12.6437 2.6078,12.4677 L11.8198,12.4677 Z" id="Fill-42" fill="#FFFFFF"></path>
                </g>
            </g>
        </g>
    </g>
</svg>