<svg width="101" height="114" viewBox="0 0 101 114" xmlns="http://www.w3.org/2000/svg" xmlns:xlink="http://www.w3.org/1999/xlink"><title>EARLYADOPTERS</title><defs><path d="M6.756 1.08c-1.059.742-1.777 1.885-2.021 3.212l-.133.788a5.033 5.033 0 0 0 .726 3.532l1.434 2.293-2.153.642c-1.565.459-2.859 1.52-3.643 2.99l-.029.052-.032.034-.634 1.728a2.377 2.377 0 0 0 .283 2.085c.44.61 1.139.946 1.871.946h14.607c.74 0 1.431-.333 1.853-.942a2.23 2.23 0 0 0 .288-2.069l-.615-1.725-.023-.068-.026-.062c-.747-1.412-2.073-2.505-3.634-2.999l-2.151-.643 1.349-2.149a5.02 5.02 0 0 0 .67-3.787l-.211-.906c-.231-1.086-.896-2.13-1.814-2.856-.9-.669-1.983-1.038-3.049-1.038a4.9 4.9 0 0 0-2.913.942z" id="a"/><path d="M7.361 1.08c-1.059.742-1.776 1.885-2.02 3.212l-.133.788a5.023 5.023 0 0 0 .726 3.532l1.433 2.293-2.152.642c-1.565.459-2.859 1.52-3.643 2.99l-.029.052-.033.034-.634 1.728a2.373 2.373 0 0 0 .283 2.085c.44.61 1.14.946 1.872.946h14.607c.739 0 1.431-.333 1.852-.942a2.228 2.228 0 0 0 .288-2.069l-.615-1.725-.022-.068-.027-.062c-.747-1.412-2.073-2.505-3.635-2.999l-2.15-.643 1.348-2.149a5.025 5.025 0 0 0 .671-3.787l-.211-.906c-.23-1.086-.896-2.13-1.813-2.856-.901-.669-1.985-1.038-3.05-1.038a4.9 4.9 0 0 0-2.913.942z" id="c"/><path d="M6.756 1.671c-1.059.74-1.777 1.884-2.021 3.212l-.133.786a5.04 5.04 0 0 0 .726 3.534l1.434 2.291-2.153.643c-1.565.46-2.859 1.521-3.643 2.99l-.029.053-.032.034-.634 1.727a2.374 2.374 0 0 0 .283 2.084c.44.611 1.139.947 1.871.947h14.607c.74 0 1.431-.333 1.853-.941.434-.615.541-1.37.288-2.07l-.615-1.726-.023-.066-.026-.062c-.747-1.413-2.073-2.506-3.634-3l-2.151-.643 1.349-2.15a5.016 5.016 0 0 0 .67-3.786l-.211-.905c-.231-1.087-.896-2.131-1.814-2.857-.9-.669-1.983-1.038-3.049-1.038a4.895 4.895 0 0 0-2.913.943z" id="e"/><path d="M7.361 1.671c-1.059.74-1.776 1.884-2.02 3.212l-.133.786a5.03 5.03 0 0 0 .726 3.534l1.433 2.291-2.152.643c-1.565.46-2.859 1.521-3.643 2.99l-.029.053-.033.034-.634 1.727a2.37 2.37 0 0 0 .283 2.084c.44.611 1.14.947 1.872.947h14.607c.739 0 1.431-.333 1.852-.941a2.23 2.23 0 0 0 .288-2.07l-.615-1.726-.022-.066-.027-.062c-.747-1.413-2.073-2.506-3.635-3l-2.15-.643 1.348-2.15a5.021 5.021 0 0 0 .671-3.786l-.211-.905c-.23-1.087-.896-2.131-1.813-2.857-.901-.669-1.985-1.038-3.05-1.038a4.895 4.895 0 0 0-2.913.943z" id="g"/><path d="M7.558 1.49C6.5 2.231 5.783 3.374 5.539 4.702l-.134.787a5.022 5.022 0 0 0 .727 3.532l1.432 2.293-2.151.642c-1.566.459-2.86 1.521-3.644 2.99l-.029.052-.033.036-.633 1.727a2.374 2.374 0 0 0 .282 2.084c.44.61 1.14.947 1.871.947h14.607c.74 0 1.432-.333 1.853-.943a2.227 2.227 0 0 0 .288-2.069l-.615-1.725-.022-.067-.027-.062c-.746-1.413-2.072-2.506-3.634-2.999l-2.15-.644 1.348-2.149a5.024 5.024 0 0 0 .671-3.787l-.211-.906c-.23-1.085-.896-2.13-1.813-2.856C12.62.916 11.537.548 10.471.548a4.894 4.894 0 0 0-2.913.942z" id="i"/><path d="M7.558 1.62C6.5 2.362 5.783 3.505 5.539 4.833l-.134.786a5.024 5.024 0 0 0 .727 3.533l1.432 2.293-2.151.642c-1.566.459-2.86 1.521-3.644 2.99l-.029.052-.033.035-.633 1.728a2.374 2.374 0 0 0 .282 2.084c.44.61 1.14.946 1.871.946h14.607c.74 0 1.432-.332 1.853-.942a2.227 2.227 0 0 0 .288-2.069l-.615-1.725-.022-.067-.027-.062c-.746-1.413-2.072-2.506-3.634-3l-2.15-.643 1.348-2.149a5.024 5.024 0 0 0 .671-3.787l-.211-.906c-.23-1.086-.896-2.13-1.813-2.856-.902-.669-1.985-1.038-3.051-1.038a4.9 4.9 0 0 0-2.913.942z" id="k"/></defs><g fill="none" fill-rule="evenodd"><path fill="#00A9C7" d="M100.53 85.508l-50 28.333-50-28.333V28.841l50-28.333 50 28.333z"/><g transform="translate(8 37.44)"><mask id="b" fill="#fff"><use xlink:href="#a"/></mask><path stroke="#FFF" stroke-width=".77" mask="url(#b)" d="M-2.282 21.811h24.02V-2.292h-24.02z"/><path stroke="#FFF" stroke-width=".77" mask="url(#b)" d="M-354.615 1488.075H309.11V-714.462h-663.725z"/></g><path d="M10.425 56.822a2.292 2.292 0 0 1-1.87-.947 2.371 2.371 0 0 1-.284-2.084l.634-1.727.032-.035.03-.052c.783-1.47 2.077-2.531 3.643-2.99l2.152-.643-1.433-2.292a5.03 5.03 0 0 1-.727-3.533l.133-.786c.244-1.328.962-2.472 2.02-3.213a4.904 4.904 0 0 1 2.914-.942c1.065 0 2.148.369 3.05 1.038.917.726 1.583 1.77 1.813 2.856l.211.905a5.026 5.026 0 0 1-.67 3.788l-1.349 2.149 2.15.643c1.562.494 2.888 1.587 3.634 2.999l.027.063.022.067.616 1.725c.253.7.145 1.455-.288 2.069-.422.609-1.113.942-1.853.942H10.425z" stroke="#FFF" stroke-width=".77"/><g transform="translate(73 37.44)"><mask id="d" fill="#fff"><use xlink:href="#c"/></mask><path stroke="#FFF" stroke-width=".77" mask="url(#d)" d="M-1.677 21.811h24.02V-2.292h-24.02z"/><path stroke="#FFF" stroke-width=".77" mask="url(#d)" d="M-354.01 1488.075h663.725V-714.462H-354.01z"/></g><path d="M76.03 56.822a2.292 2.292 0 0 1-1.87-.947 2.371 2.371 0 0 1-.284-2.084l.634-1.727.032-.035.03-.052c.783-1.47 2.077-2.531 3.643-2.99l2.152-.643-1.433-2.292a5.03 5.03 0 0 1-.727-3.533l.133-.786c.244-1.328.962-2.472 2.02-3.213a4.904 4.904 0 0 1 2.914-.942c1.065 0 2.148.369 3.05 1.038.917.726 1.583 1.77 1.813 2.856l.211.905a5.026 5.026 0 0 1-.67 3.788l-1.349 2.149 2.15.643c1.562.494 2.888 1.587 3.634 2.999l.027.063.023.067.615 1.725c.253.7.145 1.455-.288 2.069-.422.609-1.113.942-1.853.942H76.03z" stroke="#FFF" stroke-width=".77"/><g transform="translate(8 63.44)"><mask id="f" fill="#fff"><use xlink:href="#e"/></mask><path stroke="#FFF" stroke-width=".77" mask="url(#f)" d="M-2.282 22.402h24.02V-1.701h-24.02z"/><path stroke="#FFF" stroke-width=".77" mask="url(#f)" d="M-354.615 1488.665H309.11V-713.872h-663.725z"/></g><path d="M10.425 83.412a2.292 2.292 0 0 1-1.87-.947 2.371 2.371 0 0 1-.284-2.084l.634-1.727.032-.035.03-.052c.783-1.47 2.077-2.53 3.643-2.99l2.152-.643-1.433-2.292a5.03 5.03 0 0 1-.727-3.533l.133-.786c.244-1.328.962-2.472 2.02-3.213a4.904 4.904 0 0 1 2.914-.942c1.065 0 2.148.37 3.05 1.038.917.726 1.583 1.77 1.813 2.856l.211.906a5.024 5.024 0 0 1-.67 3.787l-1.349 2.15 2.15.642c1.562.494 2.888 1.587 3.634 3l.027.062.022.067.616 1.725c.253.7.145 1.455-.288 2.07-.422.608-1.113.941-1.853.941H10.425z" stroke="#FFF" stroke-width=".77"/><g transform="translate(73 63.44)"><mask id="h" fill="#fff"><use xlink:href="#g"/></mask><path stroke="#FFF" stroke-width=".77" mask="url(#h)" d="M-1.677 22.402h24.02V-1.701h-24.02z"/><path stroke="#FFF" stroke-width=".77" mask="url(#h)" d="M-354.01 1488.665h663.725V-713.872H-354.01z"/></g><path d="M76.03 83.412a2.292 2.292 0 0 1-1.87-.947 2.371 2.371 0 0 1-.284-2.084l.634-1.727.032-.035.03-.052c.783-1.47 2.077-2.53 3.643-2.99l2.152-.643-1.433-2.292a5.03 5.03 0 0 1-.727-3.533l.133-.786c.244-1.328.962-2.472 2.02-3.213a4.904 4.904 0 0 1 2.914-.942c1.065 0 2.148.37 3.05 1.038.917.726 1.583 1.77 1.813 2.856l.211.906a5.024 5.024 0 0 1-.67 3.787l-1.349 2.15 2.15.642c1.562.494 2.888 1.587 3.634 3l.027.062.022.067.616 1.725c.253.7.145 1.455-.288 2.07-.422.608-1.113.941-1.853.941H76.03z" stroke="#FFF" stroke-width=".77"/><g transform="translate(40 13.44)"><mask id="j" fill="#fff"><use xlink:href="#i"/></mask><path stroke="#FFF" stroke-width=".77" mask="url(#j)" d="M-1.48 22.221h24.02V-1.882H-1.48z"/><path stroke="#FFF" stroke-width=".77" mask="url(#j)" d="M-353.812 1488.484h663.725V-714.053h-663.725z"/></g><path d="M43.228 33.231a2.292 2.292 0 0 1-1.871-.947 2.371 2.371 0 0 1-.283-2.084l.634-1.727.032-.035.029-.052c.784-1.47 2.078-2.53 3.644-2.99l2.152-.643-1.433-2.292a5.03 5.03 0 0 1-.727-3.533l.133-.786c.244-1.328.962-2.472 2.02-3.213a4.904 4.904 0 0 1 2.914-.942c1.065 0 2.148.37 3.05 1.038.917.726 1.583 1.77 1.813 2.856l.21.905a5.026 5.026 0 0 1-.67 3.788l-1.348 2.15 2.15.642c1.562.494 2.888 1.587 3.634 3l.027.062.023.067.615 1.725c.253.7.145 1.455-.288 2.07-.422.608-1.113.941-1.853.941H43.228z" stroke="#FFF" stroke-width=".77"/><g transform="translate(40 80.44)"><mask id="l" fill="#fff"><use xlink:href="#k"/></mask><path stroke="#FFF" stroke-width=".77" mask="url(#l)" d="M-1.48 22.352h24.02V-1.751H-1.48z"/><path stroke="#FFF" stroke-width=".77" mask="url(#l)" d="M-353.812 1488.615h663.725V-713.922h-663.725z"/></g><path d="M43.228 100.362a2.294 2.294 0 0 1-1.871-.946 2.374 2.374 0 0 1-.283-2.085l.634-1.727.032-.035.029-.052c.784-1.47 2.078-2.53 3.644-2.99l2.152-.643-1.433-2.292a5.03 5.03 0 0 1-.727-3.533l.133-.786c.244-1.328.962-2.47 2.02-3.213a4.904 4.904 0 0 1 2.914-.942c1.065 0 2.148.37 3.05 1.038.917.726 1.583 1.77 1.813 2.856l.21.906a5.024 5.024 0 0 1-.67 3.787l-1.348 2.15 2.15.642c1.562.494 2.888 1.587 3.634 3l.027.062.023.067.615 1.725c.253.7.145 1.455-.288 2.07-.422.608-1.113.941-1.853.941H43.228z" stroke="#FFF" stroke-width=".77"/><path d="M52.96 47.993l.146.258c1.338 0 2.687.1 4.006-.053.479-.056 1.036-.642 1.289-1.127.297-.568.047-1.213-.495-1.647-.53-.424-1.178-.593-1.714-.18-1.12.862-2.16 1.827-3.232 2.749m-5.016.272l.165-.263c-1.107-.946-2.173-1.946-3.339-2.811-.531-.394-1.192-.138-1.691.305-.518.46-.625 1.064-.423 1.687.204.632.677 1.054 1.36 1.072 1.308.034 2.618.01 3.928.01m-4.494-4.9h1.349l4.034 2.838c1.125-.947 2.352-.856 3.407-.02l4.026-2.818h1.18c1.996.845 2.823 1.923 2.687 3.57-.036.432-.188.853-.298 1.328 1.25.069 2.629-.28 3.345 1.173v3.372c-.463.14-.926.403-1.389.405-7.501.026-15.003.018-22.505.018-.14 0-.28 0-.421-.003-.647-.01-.989-.317-.982-.986.008-.731-.014-1.462.006-2.192.03-1.08.661-1.718 1.737-1.762.526-.021 1.055-.003 1.665-.003-.577-1.381-.564-2.654.401-3.71.468-.511 1.165-.813 1.758-1.21M52.233 68.632v-13.72h9.243c.016.298.044.57.044.841.003 3.595.004 7.19 0 10.785-.001 1.538-.552 2.092-2.066 2.093-2.135.003-4.27.001-6.404.001h-.817zM48.82 54.908v13.725h-4.992c-.843-.001-1.686.025-2.526-.01-1.125-.045-1.741-.644-1.745-1.736-.017-3.845-.008-7.69-.006-11.536 0-.134.033-.267.057-.443h9.212z" fill="#FFF"/></g></svg>