<svg width="101" height="114" viewBox="0 0 101 114" xmlns="http://www.w3.org/2000/svg" xmlns:xlink="http://www.w3.org/1999/xlink"><title>FEEDBACK</title><defs><path d="M3.733.886H48.14a2.804 2.804 0 0 1 2.787 2.804v28.946a2.804 2.804 0 0 1-2.804 2.805H33.759l-7.063 7.063-7.063-7.063h-15.9a2.805 2.805 0 0 1-2.806-2.805V3.69A2.805 2.805 0 0 1 3.733.886zm31.378 17.641a3.177 3.177 0 1 0 6.354 0 3.177 3.177 0 0 0-6.354 0zm-12.351 0a3.177 3.177 0 1 0 6.354 0 3.177 3.177 0 0 0-6.354 0zm-12.353 0a3.177 3.177 0 1 0 6.354 0 3.177 3.177 0 0 0-6.354 0z" id="a"/></defs><g fill="none" fill-rule="evenodd"><path fill="#00A9C7" d="M100.927 85.148l-50 28.333-50-28.333V28.481l50-28.333 50 28.333z"/><g transform="translate(25 35.12)"><mask id="b" fill="#fff"><use xlink:href="#a"/></mask><path fill="#FFF" mask="url(#b)" d="M-2.658 46.089h57.17V-2.699h-57.17z"/></g></g></svg>