<svg width="100" height="114" viewBox="0 0 100 114" xmlns="http://www.w3.org/2000/svg"><title>JOBLIST</title><g fill="none" fill-rule="evenodd"><path fill="#00A9C7" d="M50 0L0 28.334V85l50 28.332L100 85V28.334z"/><g fill="#FFF"><path d="M50.03 54.337a9.398 9.398 0 0 0 1.274 4.984l2.76-4.402c1.618-2.501 2.186-5.711 1.52-8.584l-.076-.33a9.442 9.442 0 0 0-5.477 8.332M51.747 60.013a9.454 9.454 0 0 0 9.034 3.929 14.39 14.39 0 0 0-4.9-2.693l-4.134-1.236z"/><path d="M59.149 68.004c-7.421-.19-13.292-6.36-13.102-13.769.14-5.488 3.568-10.123 8.35-12.083a11.83 11.83 0 0 0-3.402-4.344c-2.042-1.516-4.497-2.35-6.912-2.35-2.2 0-4.288.618-6.098 1.796-.17.11-.341.218-.506.34-2.398 1.678-4.025 4.27-4.578 7.28l-.302 1.783a11.397 11.397 0 0 0 1.647 8.008l3.162 5.058.085.136-.09.027-4.788 1.43c-3.548 1.041-6.481 3.447-8.258 6.778l-.066.12-.073.078-1.436 3.918c-.541 1.57-.29 2.577.64 3.933.997 1.383 2.583 1.356 4.242 1.356h33.108c1.677 0 3.245.035 4.2-1.346.983-1.392 1.228-2.713.654-4.3L64.23 68.14l-.051-.052-.06-.09c-.13-.246-.27-.46-.413-.696-1.43.474-2.97.743-4.558.702"/><path d="M76.937 70.053l-6.84-7.241a13.282 13.282 0 0 0 2.843-7.887c.19-7.41-5.682-13.58-13.102-13.77a13.417 13.417 0 0 0-5.44.998c.314.69.555 1.406.708 2.13l.402 1.723a9.448 9.448 0 0 1 4.228-.873c5.229.134 9.354 4.468 9.22 9.689-.121 4.702-3.654 8.508-8.175 9.12a13.89 13.89 0 0 1 2.926 3.385 13.153 13.153 0 0 0 3.478-1.753l6.843 7.19a1.985 1.985 0 0 0 2.838.073 1.92 1.92 0 0 0 .07-2.784"/></g></g></svg>