<?xml version="1.0" encoding="UTF-8"?>
<svg width="100px" height="114px" viewBox="0 0 100 114" version="1.1" xmlns="http://www.w3.org/2000/svg" xmlns:xlink="http://www.w3.org/1999/xlink">
    <!-- Generator: Sketch 42 (36781) - http://www.bohemiancoding.com/sketch -->
    <title>JOBLIST</title>
    <desc>Created with Sketch.</desc>
    <defs></defs>
    <g id="Page-1" stroke="none" stroke-width="1" fill="none" fill-rule="evenodd">
        <g id="Landing-Copy-3" transform="translate(-862.000000, -2623.000000)">
            <g id="JOBLIST" transform="translate(862.000000, 2623.000000)">
                <polygon id="Fill-1" fill="#00A9C7" points="49.9995 -0.0004 0.0005 28.3336 0.0005 85.0006 49.9995 113.3326 99.9995 85.0006 99.9995 28.3336"></polygon>
                <g id="Group-10" transform="translate(22.000000, 35.333000)" fill="#FFFFFF">
                    <path d="M28.0306,19.0039 C27.9836,20.8189 28.4536,22.5259 29.3036,23.9879 L32.0646,19.5859 C33.6816,17.0849 34.2496,13.8749 33.5836,11.0019 L33.5076,10.6729 C30.3496,12.1379 28.1256,15.2909 28.0306,19.0039" id="Fill-2"></path>
                    <path d="M29.7466,24.6796 C31.4106,27.0416 34.1346,28.6136 37.2506,28.6936 C37.7706,28.7066 38.2816,28.6766 38.7806,28.6086 C37.3556,27.4136 35.6886,26.4866 33.8816,25.9156 L29.7466,24.6796 Z" id="Fill-4"></path>
                    <path d="M37.1488,32.6712 C29.7278,32.4812 23.8568,26.3102 24.0468,18.9022 C24.1868,13.4142 27.6148,8.7792 32.3978,6.8192 C31.6448,5.1592 30.4628,3.6372 28.9948,2.4752 C26.9528,0.9592 24.4978,0.1242 22.0828,0.1242 C19.8828,0.1242 17.7948,0.7432 15.9848,1.9212 C15.8148,2.0312 15.6438,2.1392 15.4788,2.2602 C13.0808,3.9392 11.4538,6.5302 10.9008,9.5402 L10.5988,11.3242 C10.1418,14.1192 10.7248,16.9582 12.2458,19.3322 L15.4078,24.3902 L15.4928,24.5262 L15.4038,24.5532 L10.6148,25.9832 C7.0668,27.0242 4.1338,29.4302 2.3568,32.7612 L2.2908,32.8802 L2.2178,32.9592 L0.7818,36.8772 C0.2408,38.4462 0.4928,39.4542 1.4228,40.8102 C2.4188,42.1932 4.0048,42.1662 5.6638,42.1662 L14.9118,42.1662 L38.7728,42.1662 C40.4488,42.1662 42.0168,42.2012 42.9718,40.8202 C43.9548,39.4282 44.1998,38.1072 43.6258,36.5192 L42.2308,32.8072 L42.1798,32.7552 L42.1198,32.6642 C41.9908,32.4192 41.8508,32.2052 41.7068,31.9692 C40.2768,32.4432 38.7378,32.7122 37.1488,32.6712" id="Fill-6"></path>
                    <path d="M54.9368,34.7197 L48.0968,27.4787 C49.7948,25.3337 50.8628,22.5757 50.9398,19.5917 C51.1298,12.1827 45.2578,6.0117 37.8378,5.8217 C35.9128,5.7727 34.0728,6.1337 32.3978,6.8197 C32.7118,7.5107 32.9528,8.2257 33.1058,8.9497 L33.5078,10.6727 C34.7898,10.0787 36.2248,9.7607 37.7358,9.7997 C42.9648,9.9337 47.0898,14.2677 46.9558,19.4887 C46.8348,24.1907 43.3018,27.9967 38.7808,28.6087 C39.9338,29.5757 40.9268,30.7187 41.7068,31.9937 C42.9648,31.5777 44.1388,30.9827 45.1848,30.2407 L52.0278,37.4307 C52.8028,38.2477 54.0488,38.2797 54.8658,37.5037 C55.6818,36.7787 55.7158,35.4857 54.9368,34.7197" id="Fill-8"></path>
                </g>
            </g>
        </g>
    </g>
</svg>