<svg width="101" height="114" viewBox="0 0 101 114" xmlns="http://www.w3.org/2000/svg" xmlns:xlink="http://www.w3.org/1999/xlink"><title>NETWORK</title><defs><path d="M9.009 1.496c-1.311.919-2.201 2.336-2.504 3.982l-.164.976a6.223 6.223 0 0 0 .9 4.379l1.776 2.843-2.667.796c-1.942.57-3.545 1.885-4.517 3.706l-.036.066-.041.042-.786 2.142a2.946 2.946 0 0 0 .351 2.584 2.844 2.844 0 0 0 2.32 1.174H21.75c.918 0 1.774-.413 2.296-1.168a2.76 2.76 0 0 0 .358-2.565l-.763-2.14-.028-.083-.033-.077c-.925-1.751-2.569-3.106-4.504-3.718l-2.667-.797 1.672-2.665a6.23 6.23 0 0 0 .831-4.696l-.261-1.122c-.286-1.346-1.112-2.641-2.248-3.54C15.285.785 13.942.328 12.622.328a6.074 6.074 0 0 0-3.613 1.168z" id="a"/><path d="M6.658 1.205c-1.058.741-1.776 1.884-2.02 3.213l-.133.786a5.036 5.036 0 0 0 .726 3.533l1.433 2.292-2.152.643c-1.565.459-2.859 1.52-3.643 2.989l-.029.053-.032.034-.634 1.728a2.371 2.371 0 0 0 .283 2.084c.44.61 1.139.946 1.871.946h14.607c.74 0 1.431-.332 1.852-.941a2.228 2.228 0 0 0 .289-2.069l-.616-1.726-.022-.067-.026-.062c-.747-1.412-2.074-2.506-3.635-3l-2.151-.643 1.349-2.149a5.019 5.019 0 0 0 .67-3.787l-.21-.905c-.231-1.086-.896-2.131-1.814-2.857C11.72.631 10.637.263 9.572.263a4.897 4.897 0 0 0-2.914.942z" id="c"/><path d="M6.786 1.205c-1.058.741-1.776 1.884-2.02 3.213l-.133.786a5.026 5.026 0 0 0 .727 3.533l1.433 2.292-2.152.643c-1.566.459-2.861 1.52-3.644 2.989l-.029.053-.033.034-.633 1.728a2.374 2.374 0 0 0 .282 2.084c.441.61 1.14.946 1.872.946h14.606c.74 0 1.432-.332 1.854-.941a2.234 2.234 0 0 0 .288-2.069l-.616-1.726-.023-.067-.026-.062c-.747-1.412-2.072-2.506-3.634-3l-2.15-.643 1.348-2.149a5.024 5.024 0 0 0 .671-3.787l-.212-.905c-.23-1.086-.895-2.131-1.812-2.857C11.848.631 10.765.263 9.7.263a4.897 4.897 0 0 0-2.914.942z" id="e"/><path d="M5.239 1.448c-.751.526-1.26 1.337-1.433 2.279l-.094.558a3.566 3.566 0 0 0 .515 2.506l1.016 1.626-1.526.456a4.287 4.287 0 0 0-2.585 2.121l-.02.037-.023.024-.45 1.226A1.685 1.685 0 0 0 .84 13.76c.312.432.808.671 1.327.671h10.362a1.58 1.58 0 0 0 1.314-.668c.308-.435.384-.972.204-1.468l-.436-1.224-.016-.047-.018-.045a4.441 4.441 0 0 0-2.579-2.127l-1.525-.456.956-1.525a3.563 3.563 0 0 0 .476-2.687l-.15-.642c-.163-.771-.635-1.511-1.286-2.026A3.67 3.67 0 0 0 7.305.78a3.47 3.47 0 0 0-2.066.668z" id="g"/><path d="M6.722 1.526c-1.058.741-1.776 1.885-2.02 3.212l-.133.787a5.026 5.026 0 0 0 .727 3.533l1.432 2.291-2.152.644c-1.566.459-2.859 1.52-3.643 2.989l-.029.053-.033.034-.634 1.727a2.377 2.377 0 0 0 .284 2.085 2.29 2.29 0 0 0 1.871.946h14.606c.741 0 1.432-.333 1.853-.941.434-.615.542-1.37.288-2.069l-.614-1.726-.023-.067-.027-.062c-.746-1.413-2.073-2.506-3.634-3l-2.15-.642 1.348-2.15a5.024 5.024 0 0 0 .671-3.787l-.211-.905c-.231-1.086-.896-2.13-1.814-2.857C11.784.953 10.701.584 9.635.584a4.9 4.9 0 0 0-2.913.942z" id="i"/></defs><g fill="none" fill-rule="evenodd"><path fill="#00A9C7" d="M100.152 85.08L50.15 113.411.15 85.08V28.412l50-28.333 50 28.333z"/><path d="M41.641 89.785a2.843 2.843 0 0 1-2.32-1.173 2.944 2.944 0 0 1-.35-2.585l.785-2.14.04-.044.037-.065c.971-1.822 2.575-3.137 4.516-3.707l2.668-.796-1.776-2.842a6.237 6.237 0 0 1-.9-4.38l.164-.975c.303-1.646 1.192-3.064 2.504-3.982a6.075 6.075 0 0 1 3.612-1.168c1.321 0 2.664.456 3.781 1.286 1.138.9 1.963 2.195 2.25 3.541l.26 1.122c.364 1.572.054 3.328-.83 4.695l-1.673 2.665 2.666.797c1.936.612 3.58 1.968 4.505 3.72l.034.076.027.083.763 2.14a2.767 2.767 0 0 1-.357 2.565c-.523.754-1.38 1.167-2.297 1.167H41.641z" fill="#FFF"/><g transform="translate(38 65.6)"><mask id="b" fill="#fff"><use xlink:href="#a"/></mask><path fill="#FFF" mask="url(#b)" d="M-439 1845h822.854V-885.6H-439z"/><path fill="#FFF" mask="url(#b)" d="M-2.195 27.197h29.778V-2.684H-2.195z"/></g><g transform="translate(18 34.6)"><mask id="d" fill="#fff"><use xlink:href="#c"/></mask><path stroke="#FFF" stroke-width=".77" mask="url(#d)" d="M-2.38 21.936h24.02V-2.167H-2.38z"/><path stroke="#FFF" stroke-width=".77" mask="url(#d)" d="M-354.712 1488.199h663.725V-714.338h-663.725z"/></g><path d="M20.328 54.106a2.292 2.292 0 0 1-1.871-.947 2.371 2.371 0 0 1-.283-2.084l.634-1.727.032-.035.029-.052c.784-1.47 2.078-2.53 3.644-2.99l2.152-.642-1.433-2.292a5.03 5.03 0 0 1-.727-3.534l.133-.785c.244-1.328.962-2.473 2.02-3.214a4.904 4.904 0 0 1 2.914-.942c1.065 0 2.148.37 3.05 1.038.917.727 1.583 1.77 1.813 2.857l.21.906a5.024 5.024 0 0 1-.67 3.787l-1.348 2.148 2.15.644c1.562.494 2.888 1.587 3.634 2.998l.027.063.023.068.615 1.724c.253.7.145 1.456-.288 2.07-.422.608-1.113.941-1.853.941H20.328z" stroke="#FFF" stroke-width=".77"/><g transform="translate(64 34.6)"><mask id="f" fill="#fff"><use xlink:href="#e"/></mask><path stroke="#FFF" stroke-width=".77" mask="url(#f)" d="M-2.252 21.936h24.02V-2.167h-24.02z"/><path stroke="#FFF" stroke-width=".77" mask="url(#f)" d="M-354.584 1488.199h663.725V-714.338h-663.725z"/></g><path d="M66.456 54.106a2.292 2.292 0 0 1-1.871-.947 2.371 2.371 0 0 1-.283-2.084l.634-1.727.032-.035.029-.052c.784-1.47 2.078-2.53 3.644-2.99l2.152-.642-1.433-2.292a5.03 5.03 0 0 1-.727-3.534l.133-.785c.244-1.328.962-2.473 2.02-3.214a4.904 4.904 0 0 1 2.914-.942c1.065 0 2.148.37 3.05 1.038.917.727 1.583 1.77 1.813 2.857l.21.906a5.024 5.024 0 0 1-.67 3.787l-1.348 2.148 2.15.644c1.562.494 2.888 1.587 3.634 2.998l.027.063.023.068.615 1.724c.253.7.145 1.456-.288 2.07-.422.608-1.113.941-1.853.941H66.456z" stroke="#FFF" stroke-width=".77"/><g transform="translate(75 62.6)"><mask id="h" fill="#fff"><use xlink:href="#g"/></mask><path stroke="#FFF" stroke-width=".547" mask="url(#h)" d="M-1.172 16.154h17.039V-.944H-1.172z"/><path stroke="#FFF" stroke-width=".547" mask="url(#h)" d="M-251.105 1056.271h470.824V-506.133h-470.824z"/></g><path d="M77.167 77.03a1.626 1.626 0 0 1-1.327-.67 1.685 1.685 0 0 1-.2-1.48l.45-1.224.022-.025.02-.037a4.285 4.285 0 0 1 2.585-2.121l1.526-.456-1.016-1.626a3.57 3.57 0 0 1-.516-2.506l.095-.558c.173-.942.682-1.753 1.433-2.278a3.471 3.471 0 0 1 2.066-.67c.756 0 1.525.262 2.164.737.651.515 1.123 1.256 1.286 2.026l.15.643c.208.899.03 1.904-.476 2.686l-.956 1.525 1.525.456a4.44 4.44 0 0 1 2.578 2.127l.02.045.015.047.436 1.224c.18.497.104 1.032-.204 1.468-.299.432-.79.668-1.314.668H77.167z" stroke="#FFF" stroke-width=".547"/><g transform="translate(41 16.6)"><mask id="j" fill="#fff"><use xlink:href="#i"/></mask><path stroke="#FFF" stroke-width=".77" mask="url(#j)" d="M-2.316 22.257h24.02V-1.846h-24.02z"/><path stroke="#FFF" stroke-width=".77" mask="url(#j)" d="M-354.648 1488.52h663.725V-714.017h-663.725z"/></g><g stroke="#FFF"><path d="M43.392 36.428a2.292 2.292 0 0 1-1.871-.947 2.371 2.371 0 0 1-.283-2.084l.634-1.727.032-.036.029-.052c.784-1.47 2.078-2.53 3.644-2.99l2.152-.642-1.433-2.293a5.03 5.03 0 0 1-.727-3.533l.133-.786c.244-1.328.962-2.472 2.02-3.213a4.904 4.904 0 0 1 2.914-.942c1.065 0 2.148.37 3.05 1.038.917.726 1.583 1.77 1.813 2.856l.21.905a5.023 5.023 0 0 1-.67 3.787l-1.348 2.15 2.15.643c1.562.494 2.888 1.587 3.634 3l.027.061.023.068.615 1.726c.253.7.145 1.454-.288 2.068-.422.61-1.113.943-1.853.943H43.392z" stroke-width=".77"/><path d="M50.906 39.58v24" stroke-linecap="round"/><path d="M37.575 55.487l9.817 9.042M54.426 64.529l9.817-9.042M58.26 22.88l12.565 10.298M79.47 55.53l2.697 6.178" stroke-width=".843" stroke-linecap="round"/></g></g></svg>