<?xml version="1.0" encoding="UTF-8"?>
<svg width="100px" height="114px" viewBox="0 0 100 114" version="1.1" xmlns="http://www.w3.org/2000/svg" xmlns:xlink="http://www.w3.org/1999/xlink">
    <!-- Generator: Sketch 42 (36781) - http://www.bohemiancoding.com/sketch -->
    <title>PIVOT</title>
    <desc>Created with Sketch.</desc>
    <defs></defs>
    <g id="Page-1" stroke="none" stroke-width="1" fill="none" fill-rule="evenodd">
        <g id="Landing-Copy-3" transform="translate(-142.000000, -2306.000000)">
            <g id="PIVOT" transform="translate(142.000000, 2306.000000)">
                <polygon id="Fill-1" fill="#00A9C7" points="49.9995 -0.0004 0.0005 28.3336 0.0005 85.0006 49.9995 113.3326 99.9995 85.0006 99.9995 28.3336"></polygon>
                <g id="Group-8" transform="translate(21.000000, 26.333000)" fill="#FFFFFF">
                    <path d="M28.7183,0.2664 C18.6973,0.2664 9.7363,6.2454 5.8863,15.4974 C4.6343,18.5064 3.9993,21.6994 3.9993,24.9854 C3.9993,28.2644 4.6633,31.5114 5.9173,34.5144 L1.0053,32.8874 L0.5033,34.4084 L6.8573,36.5114 L7.3753,36.6824 L9.6243,37.4274 L10.2033,35.1294 L10.3483,34.5564 L11.9733,28.1094 L10.4213,27.7164 L9.2963,32.1834 C8.4483,29.8914 7.9993,27.4494 7.9993,24.9854 C7.9993,22.2294 8.5313,19.5534 9.5793,17.0354 C12.8063,9.2784 20.3193,4.2664 28.7183,4.2664 C34.6533,4.2664 40.2223,6.7724 44.1583,11.1744 L44.3613,8.2044 L47.2293,8.6114 C42.5293,3.2974 35.8453,0.2664 28.7183,0.2664" id="Fill-2"></path>
                    <path d="M55.2659,10.6928 L50.7069,9.9808 L50.7069,9.9818 L45.7509,9.1228 L45.1069,13.1668 L45.0509,13.1668 L44.6609,18.7098 L46.2439,18.9308 L46.5489,14.3948 C48.4229,17.5698 49.4419,21.2418 49.4419,24.9578 C49.4419,36.3818 40.1449,45.6908 28.7199,45.6908 C21.9149,45.6908 15.5969,42.3618 11.7429,36.8608 L11.1179,35.5918 L10.3319,38.7118 L7.6949,37.8398 L7.5489,37.9468 C12.0909,44.9198 20.3189,49.7048 28.7179,49.7048 C42.3489,49.7048 53.4379,38.6158 53.4379,24.9848 C53.4379,20.2108 52.0269,15.5328 49.4499,11.5518 L54.8089,12.2788 L55.2659,10.6928 Z" id="Fill-4"></path>
                    <path d="M57.4971,43.6363 L48.3601,40.6593 L46.0551,49.9873 L47.6101,50.3723 L48.9121,45.0973 C49.2891,46.0633 49.4871,47.1073 49.4871,48.1453 C49.4871,52.6973 45.7841,56.4003 41.2311,56.4003 C36.6801,56.4003 32.9771,52.6973 32.9771,48.1453 C32.9771,47.8303 32.9951,47.5183 33.0291,47.2123 L29.0521,46.7713 C29.0021,47.2243 28.9771,47.6863 28.9771,48.1453 C28.9771,54.9033 34.4741,60.4003 41.2311,60.4003 C47.9891,60.4003 53.4871,54.8753 53.4871,48.1173 C53.4871,46.5973 53.1971,45.1773 52.6511,43.7403 L57.0021,45.1593 L57.4971,43.6363 Z" id="Fill-6"></path>
                </g>
            </g>
        </g>
    </g>
</svg>