<svg width="100" height="114" viewBox="0 0 100 114" xmlns="http://www.w3.org/2000/svg"><title>PIVOT</title><g fill="none" fill-rule="evenodd"><path fill="#00A9C7" d="M50 0L0 28.334V85l50 28.332L100 85V28.334z"/><g fill="#FFF"><path d="M49.718 26.6a24.663 24.663 0 0 0-22.832 15.23A24.573 24.573 0 0 0 25 51.318c0 3.28.664 6.526 1.918 9.53l-4.912-1.628-.502 1.521 6.354 2.103.518.171 2.25.745.578-2.298.145-.573 1.625-6.447-1.552-.393-1.125 4.467A20.775 20.775 0 0 1 29 51.318c0-2.756.532-5.432 1.58-7.95A20.674 20.674 0 0 1 49.72 30.6a20.633 20.633 0 0 1 15.44 6.908l.202-2.97 2.868.407A24.62 24.62 0 0 0 49.72 26.6"/><path d="M76.266 37.026l-4.56-.712-4.955-.858-.644 4.044h-.056l-.39 5.543 1.583.22.305-4.535a20.866 20.866 0 0 1 2.893 10.563c0 11.424-9.297 20.733-20.722 20.733a20.725 20.725 0 0 1-16.977-8.83l-.625-1.27-.786 3.12-2.637-.871-.146.107c4.542 6.973 12.77 11.758 21.169 11.758 13.63 0 24.72-11.09 24.72-24.72 0-4.774-1.411-9.452-3.988-13.433l5.359.727.457-1.586z"/><path d="M78.497 69.97l-9.137-2.978-2.305 9.328 1.555.385 1.302-5.275c.377.966.575 2.01.575 3.048 0 4.552-3.703 8.255-8.256 8.255-4.55 0-8.254-3.703-8.254-8.255 0-.315.018-.627.052-.933l-3.977-.44c-.05.452-.075.914-.075 1.373 0 6.758 5.497 12.255 12.254 12.255 6.758 0 12.256-5.525 12.256-12.283 0-1.52-.29-2.94-.836-4.377l4.351 1.42.495-1.524z"/></g></g></svg>