<svg width="100" height="114" viewBox="0 0 100 114" xmlns="http://www.w3.org/2000/svg"><title>PRIVACY</title><g fill="none" fill-rule="evenodd"><path fill="#00A9C7" d="M50 0L0 28.334V85l50 28.332L100 85V28.334z"/><path d="M49.97 75.07c3.07 0 3.099-.062 3.146-3.214.035-2.363-.265-4.713.895-7.024.84-1.674.007-3.345-1.525-4.413-1.584-1.103-3.325-1.118-4.924-.037-1.545 1.046-2.413 2.714-1.588 4.39 1.169 2.378.872 4.79.91 7.218.049 2.98.114 3.079 3.086 3.08zm9.033-23.27c0-1.9.09-3.591-.016-5.27-.364-5.728-6.15-9.71-11.605-7.945-5.313 1.719-7.442 6.559-6.092 13.215h17.713zm8.185 29.867H32.813c-1.511-.973-2.027-2.375-2.016-4.142.044-7.083.01-14.166.02-21.25.007-3.135.51-3.785 3.634-4.702 0-1.11-.012-2.27.003-3.428.053-4.297 1.234-8.185 4.162-11.438 2.537-2.818 5.81-4.253 9.43-5.04h3.907c.175.084.342.22.525.245 6.84.929 12.508 7.12 12.888 14.1.104 1.924.213 3.848.317 5.732 2.752.53 3.485 1.379 3.494 4.142.024 7.213-.017 14.426.027 21.639.01 1.766-.506 3.169-2.016 4.142z" fill="#FFF"/></g></svg>