<svg width="101" height="114" viewBox="0 0 101 114" xmlns="http://www.w3.org/2000/svg" xmlns:xlink="http://www.w3.org/1999/xlink"><title>QA</title><defs><path d="M2.095 2.137l3.159 6.196s2.532-1.468 4.686-.996c1.706.373 2.942 1.819 2.608 3.345-.826 3.771-8.109 3.305-9.436 9.364l-.491 2.244 7.451 1.632.353-1.617c.875-3.994 8.786-3.39 10.399-10.751 1.267-5.791-3.505-9.987-8.533-11.088A14.283 14.283 0 0 0 9.227.131c-4.323 0-7.132 2.006-7.132 2.006zM.628 32.249l7.091 1.554 1.475-6.733-7.092-1.554-1.474 6.733z" id="a"/><path d="M2.095 2.137l3.159 6.196s2.532-1.468 4.686-.996c1.706.373 2.942 1.819 2.608 3.345-.826 3.771-8.109 3.305-9.436 9.364l-.491 2.244 7.451 1.632.353-1.617c.875-3.994 8.786-3.39 10.399-10.751 1.267-5.791-3.505-9.987-8.533-11.088A14.277 14.277 0 0 0 9.227.131c-4.323 0-7.132 2.006-7.132 2.006zM.628 32.249l7.091 1.554 1.475-6.733-7.092-1.554-1.474 6.733z" id="c"/><path d="M12.266 7.022l7.092 1.553 1.475-6.733L13.741.29l-1.475 6.732zm-1.231 4.764C10.16 15.78 2.249 15.177.637 22.538c-1.268 5.79 3.505 9.987 8.532 11.088 6.014 1.317 10.196-1.672 10.196-1.672l-3.159-6.195s-2.531 1.469-4.686.996c-1.706-.374-2.941-1.819-2.607-3.345.826-3.77 8.109-3.305 9.435-9.365l.492-2.243-7.451-1.632-.354 1.616z" id="e"/></defs><g fill="none" fill-rule="evenodd"><path fill="#00A9C7" d="M100.23 85.29l-50 28.332-50-28.333V28.622L50.23.29l50 28.333z"/><path d="M56.102 61.426l7.092 1.553-1.475 6.734-7.09-1.553 1.473-6.733zm1.01-5.47c1.327-6.06 8.61-5.594 9.435-9.364.335-1.526-.9-2.972-2.607-3.346-2.154-.471-4.686.996-4.686.996l-3.159-6.195s4.182-2.988 10.196-1.671c5.028 1.1 9.8 5.297 8.532 11.088-1.612 7.361-9.523 6.758-10.398 10.752l-.353 1.615-7.45-1.63.49-2.245z" fill="#FFF"/><g transform="translate(54 35.91)"><mask id="b" fill="#fff"><use xlink:href="#a"/></mask><path fill="#FFF" mask="url(#b)" d="M-488 1626h789.842V-995.049H-488z"/></g><g transform="translate(54 35.91)"><mask id="d" fill="#fff"><use xlink:href="#c"/></mask><path fill="#FFF" mask="url(#d)" d="M-2.263 36.693h26.185V-2.761H-2.263z"/></g><path d="M44.358 52.485l-7.092-1.553 1.475-6.733 7.091 1.553-1.474 6.733zm-1.01 5.47c-1.327 6.06-8.61 5.594-9.435 9.365-.335 1.526.901 2.972 2.607 3.345 2.154.472 4.686-.996 4.686-.996l3.16 6.196s-4.183 2.988-10.197 1.671c-5.028-1.1-9.8-5.298-8.532-11.088 1.612-7.362 9.523-6.758 10.398-10.752l.353-1.616 7.451 1.631-.49 2.244z" fill="#FFF"/><g transform="translate(25 43.91)"><mask id="f" fill="#fff"><use xlink:href="#e"/></mask><path fill="#FFF" mask="url(#f)" d="M-280.381 1029.141h789.842v-2621.049h-789.842z"/><path fill="#FFF" mask="url(#f)" d="M-2.461 36.852h26.185V-2.602H-2.461z"/></g></g></svg>