<svg width="100" height="114" viewBox="0 0 100 114" xmlns="http://www.w3.org/2000/svg"><title>STATUS</title><g fill="none" fill-rule="evenodd"><path fill="#00A9C7" d="M50 0L0 28.334V85l50 28.332L100 85V28.334z"/><path d="M75.265 63.054c-1.427 1.925-3.764 2.784-7.58 2.784-4.743 0-7.923-1.598-9.435-4.726-2.218-4.606-2.888-8.594-1.719-10.605 1.17-2.011 6.187-2.922 10.587-2.922 4.4 0 9.024.843 10.072 3.18 1.048 2.338-.584 10.398-1.925 12.289zm-33.567-1.977c-1.512 3.129-4.675 4.727-9.4 4.727-3.817 0-6.137-.86-7.58-2.784-1.445-1.925-3.077-9.797-1.977-12.255 1.1-2.458 5.878-3.18 10.071-3.18 4.194 0 9.608.91 10.691 2.905 1.083 1.994.43 5.998-1.719 10.605l-.086-.018zM82.33 46.623a38.504 38.504 0 0 0-15.005-2.475 33.833 33.833 0 0 0-10.639 1.53 21.826 21.826 0 0 1-6.72 1.1 21.831 21.831 0 0 1-6.72-1.1 33.829 33.829 0 0 0-10.639-1.53 38.51 38.51 0 0 0-15.005 2.475.841.841 0 0 0-.498.705l-.275 4.09a.858.858 0 0 0 .533.842c.32.094.612.259.86.482 0 .137.137.6.274 1.237a63.476 63.476 0 0 0 2.2 8.594 8.166 8.166 0 0 0 5.156 5.465c2.16.81 4.45 1.206 6.755 1.169a16.77 16.77 0 0 0 6.566-1.237c4.83-2.08 5.981-5.157 7.442-9.23l.567-1.598c1.031-2.94 1.22-3.318 2.836-3.318 1.615 0 1.804.379 2.836 3.318.172.48.361 1.014.567 1.598 1.461 3.987 2.612 7.15 7.442 9.23a16.8 16.8 0 0 0 6.548 1.22 18.45 18.45 0 0 0 6.755-1.17 8.163 8.163 0 0 0 5.156-5.464 63.927 63.927 0 0 0 2.2-8.491c.138-.653.224-1.117.275-1.255.232-.253.521-.447.842-.567a.858.858 0 0 0 .533-.842l-.344-4.056a.843.843 0 0 0-.498-.705v-.017z" fill="#FFF"/></g></svg>