<svg width="101" height="115" viewBox="0 0 101 115" xmlns="http://www.w3.org/2000/svg" xmlns:xlink="http://www.w3.org/1999/xlink"><title>TEAM</title><defs><path d="M11.362 2.389C9.624 3.606 8.445 5.483 8.045 7.663l-.219 1.292a8.266 8.266 0 0 0 1.193 5.801l2.354 3.763-3.534 1.056c-2.571.754-4.696 2.496-5.982 4.909l-.048.086-.054.057-1.04 2.836a3.892 3.892 0 0 0 .464 3.422 3.765 3.765 0 0 0 3.072 1.554h23.984c1.216 0 2.351-.546 3.043-1.545.712-1.009.889-2.248.473-3.398l-1.01-2.833-.037-.111-.043-.102c-1.226-2.319-3.404-4.115-5.967-4.925l-3.532-1.055 2.214-3.53c1.173-1.81 1.583-4.137 1.101-6.218l-.346-1.486c-.378-1.784-1.471-3.498-2.978-4.691C19.674 1.447 17.895.842 16.146.842a8.04 8.04 0 0 0-4.784 1.547z" id="a"/><path d="M12.233 2.008c-1.957 1.371-3.254 3.475-3.695 5.873l-.219 1.297a9.143 9.143 0 0 0 1.321 6.437l1.713 2.741-2.374.71c-2.839.832-5.164 2.79-6.534 5.36l-.147.17-.025.148-1.027 2.814a4.874 4.874 0 0 0 .587 4.298c.881 1.225 2.301 1.999 3.817 1.999h13.433l.981-2.707.054-.343.254-.297c1.532-2.814 4.035-4.85 7.061-5.737l1.159-.347-1.043-1.669a10.062 10.062 0 0 1-1.457-3.818l-2.11-.63 1.565-2.497c.309-.475.567-.985.779-1.516.123-.647.299-1.27.527-1.865a8.99 8.99 0 0 0-.081-3.544l-.342-1.469c-.442-2.08-1.69-3.939-3.33-5.236C21.485.98 19.527.294 17.545.294c-1.933 0-3.77.588-5.312 1.714z" id="c"/><path d="M5.685 2.008C3.727 3.379 2.43 5.483 1.99 7.881l-.22 1.297a9.143 9.143 0 0 0 1.322 6.437l1.712 2.741-2.247.672a10.095 10.095 0 0 1-1.475 3.934l-.887 1.413 1.162.348c3.073.97 5.66 3.114 7.111 5.884l.018.034.103.241.063.202.983 2.771h13.452a4.608 4.608 0 0 0 3.793-1.999 4.723 4.723 0 0 0 .587-4.298l-1.003-2.814-.05-.148-.073-.17c-1.346-2.57-3.744-4.528-6.534-5.41l-2.374-.709L19 15.81c1.297-2.006 1.76-4.601 1.222-6.925l-.342-1.469c-.44-2.08-1.688-3.939-3.328-5.237C14.937.98 12.979.294 10.996.294a8.937 8.937 0 0 0-5.311 1.714z" id="e"/></defs><g fill="none" fill-rule="evenodd"><path fill="#00A9C7" d="M100.365 85.72l-50.001 28.333-50-28.333V29.053l50-28.333 50 28.333z"/><g transform="translate(34 44.52)"><mask id="b" fill="#fff"><use xlink:href="#a"/></mask><path fill="#FFF" mask="url(#b)" d="M-3.478 36.428h39.44V-3.148h-39.44z"/></g><g transform="translate(14 37.52)"><mask id="d" fill="#fff"><use xlink:href="#c"/></mask><path fill="#FFF" mask="url(#d)" d="M-3 37.844h35.581V-3.694H-3z"/></g><g transform="translate(58 37.52)"><mask id="f" fill="#fff"><use xlink:href="#e"/></mask><path fill="#FFF" mask="url(#f)" d="M-3.794 37.844h35.523V-3.695H-3.794z"/></g></g></svg>